<?xml version='1.0' encoding='utf-8'?>
<svg xmlns="http://www.w3.org/2000/svg" xmlns:rdkit="http://www.rdkit.org/xml" xmlns:xlink="http://www.w3.org/1999/xlink" version="1.1" baseProfile="full" xml:space="preserve" width="512px" height="178px" viewBox="0 0 512 178">

<rect style="opacity:1.0;fill:#FFFFFF;stroke:none" width="512.0" height="178.0" x="0.0" y="0.0"> </rect>
<path class="bond-0 atom-0 atom-1" d="M 25.8,141.1 L 79.0,115.9" style="fill:none;fill-rule:evenodd;stroke:#000000;stroke-width:2.0px;stroke-linecap:butt;stroke-linejoin:miter;stroke-opacity:1"/>
<path class="bond-0 atom-0 atom-1" d="M 29.3,148.4 L 82.4,123.2" style="fill:none;fill-rule:evenodd;stroke:#000000;stroke-width:2.0px;stroke-linecap:butt;stroke-linejoin:miter;stroke-opacity:1"/>
<path class="bond-1 atom-1 atom-2" d="M 78.1,120.8 L 127.1,147.6" style="fill:none;fill-rule:evenodd;stroke:#000000;stroke-width:2.0px;stroke-linecap:butt;stroke-linejoin:miter;stroke-opacity:1"/>
<path class="bond-2 atom-2 atom-3" d="M 127.1,147.6 L 167.8,109.3" style="fill:none;fill-rule:evenodd;stroke:#000000;stroke-width:2.0px;stroke-linecap:butt;stroke-linejoin:miter;stroke-opacity:1"/>
<path class="bond-3 atom-3 atom-4" d="M 167.8,109.3 L 223.5,113.8" style="fill:none;fill-rule:evenodd;stroke:#000000;stroke-width:2.0px;stroke-linecap:butt;stroke-linejoin:miter;stroke-opacity:1"/>
<path class="bond-4 atom-4 atom-5" d="M 223.5,113.8 L 247.4,164.3" style="fill:none;fill-rule:evenodd;stroke:#000000;stroke-width:2.0px;stroke-linecap:butt;stroke-linejoin:miter;stroke-opacity:1"/>
<path class="bond-5 atom-5 atom-6" d="M 247.4,164.3 L 303.1,168.9" style="fill:none;fill-rule:evenodd;stroke:#000000;stroke-width:2.0px;stroke-linecap:butt;stroke-linejoin:miter;stroke-opacity:1"/>
<path class="bond-6 atom-6 atom-7" d="M 303.1,168.9 L 334.9,122.9" style="fill:none;fill-rule:evenodd;stroke:#000000;stroke-width:2.0px;stroke-linecap:butt;stroke-linejoin:miter;stroke-opacity:1"/>
<path class="bond-7 atom-7 atom-8" d="M 334.9,122.9 L 390.6,127.5" style="fill:none;fill-rule:evenodd;stroke:#000000;stroke-width:2.0px;stroke-linecap:butt;stroke-linejoin:miter;stroke-opacity:1"/>
<path class="bond-7 atom-7 atom-8" d="M 340.2,115.2 L 386.6,119.0" style="fill:none;fill-rule:evenodd;stroke:#000000;stroke-width:2.0px;stroke-linecap:butt;stroke-linejoin:miter;stroke-opacity:1"/>
<path class="bond-8 atom-8 atom-9" d="M 390.6,127.5 L 422.4,81.5" style="fill:none;fill-rule:evenodd;stroke:#000000;stroke-width:2.0px;stroke-linecap:butt;stroke-linejoin:miter;stroke-opacity:1"/>
<path class="bond-9 atom-9 atom-10" d="M 419.8,85.3 L 468.8,89.3" style="fill:none;fill-rule:evenodd;stroke:#000000;stroke-width:2.0px;stroke-linecap:butt;stroke-linejoin:miter;stroke-opacity:1"/>
<path class="bond-9 atom-9 atom-10" d="M 420.4,77.3 L 469.4,81.3" style="fill:none;fill-rule:evenodd;stroke:#000000;stroke-width:2.0px;stroke-linecap:butt;stroke-linejoin:miter;stroke-opacity:1"/>
<path class="bond-10 atom-9 atom-11" d="M 422.4,81.5 L 398.5,31.0" style="fill:none;fill-rule:evenodd;stroke:#000000;stroke-width:2.0px;stroke-linecap:butt;stroke-linejoin:miter;stroke-opacity:1"/>
<path class="bond-11 atom-11 atom-12" d="M 398.5,31.0 L 342.8,26.4" style="fill:none;fill-rule:evenodd;stroke:#000000;stroke-width:2.0px;stroke-linecap:butt;stroke-linejoin:miter;stroke-opacity:1"/>
<path class="bond-11 atom-11 atom-12" d="M 393.2,38.7 L 346.8,34.9" style="fill:none;fill-rule:evenodd;stroke:#000000;stroke-width:2.0px;stroke-linecap:butt;stroke-linejoin:miter;stroke-opacity:1"/>
<path class="bond-12 atom-12 atom-13" d="M 342.8,26.4 L 311.0,72.4" style="fill:none;fill-rule:evenodd;stroke:#000000;stroke-width:2.0px;stroke-linecap:butt;stroke-linejoin:miter;stroke-opacity:1"/>
<path class="bond-13 atom-13 atom-14" d="M 309.3,69.4 L 309.7,69.1" style="fill:none;fill-rule:evenodd;stroke:#000000;stroke-width:1.0px;stroke-linecap:butt;stroke-linejoin:miter;stroke-opacity:1"/>
<path class="bond-13 atom-13 atom-14" d="M 307.5,66.3 L 308.5,65.9" style="fill:none;fill-rule:evenodd;stroke:#000000;stroke-width:1.0px;stroke-linecap:butt;stroke-linejoin:miter;stroke-opacity:1"/>
<path class="bond-13 atom-13 atom-14" d="M 305.8,63.3 L 307.2,62.6" style="fill:none;fill-rule:evenodd;stroke:#000000;stroke-width:1.0px;stroke-linecap:butt;stroke-linejoin:miter;stroke-opacity:1"/>
<path class="bond-13 atom-13 atom-14" d="M 304.1,60.2 L 305.9,59.3" style="fill:none;fill-rule:evenodd;stroke:#000000;stroke-width:1.0px;stroke-linecap:butt;stroke-linejoin:miter;stroke-opacity:1"/>
<path class="bond-13 atom-13 atom-14" d="M 302.4,57.2 L 304.7,56.1" style="fill:none;fill-rule:evenodd;stroke:#000000;stroke-width:1.0px;stroke-linecap:butt;stroke-linejoin:miter;stroke-opacity:1"/>
<path class="bond-13 atom-13 atom-14" d="M 300.7,54.1 L 303.4,52.8" style="fill:none;fill-rule:evenodd;stroke:#000000;stroke-width:1.0px;stroke-linecap:butt;stroke-linejoin:miter;stroke-opacity:1"/>
<path class="bond-13 atom-13 atom-14" d="M 298.9,51.1 L 302.1,49.5" style="fill:none;fill-rule:evenodd;stroke:#000000;stroke-width:1.0px;stroke-linecap:butt;stroke-linejoin:miter;stroke-opacity:1"/>
<path class="bond-13 atom-13 atom-14" d="M 297.2,48.0 L 300.9,46.3" style="fill:none;fill-rule:evenodd;stroke:#000000;stroke-width:1.0px;stroke-linecap:butt;stroke-linejoin:miter;stroke-opacity:1"/>
<path class="bond-13 atom-13 atom-14" d="M 295.5,45.0 L 299.6,43.0" style="fill:none;fill-rule:evenodd;stroke:#000000;stroke-width:1.0px;stroke-linecap:butt;stroke-linejoin:miter;stroke-opacity:1"/>
<path class="bond-13 atom-13 atom-14" d="M 293.8,41.9 L 298.3,39.7" style="fill:none;fill-rule:evenodd;stroke:#000000;stroke-width:1.0px;stroke-linecap:butt;stroke-linejoin:miter;stroke-opacity:1"/>
<path class="bond-13 atom-13 atom-14" d="M 292.0,38.9 L 297.1,36.5" style="fill:none;fill-rule:evenodd;stroke:#000000;stroke-width:1.0px;stroke-linecap:butt;stroke-linejoin:miter;stroke-opacity:1"/>
<path class="bond-13 atom-13 atom-14" d="M 290.3,35.8 L 295.8,33.2" style="fill:none;fill-rule:evenodd;stroke:#000000;stroke-width:1.0px;stroke-linecap:butt;stroke-linejoin:miter;stroke-opacity:1"/>
<path class="bond-13 atom-13 atom-14" d="M 288.6,32.8 L 294.5,29.9" style="fill:none;fill-rule:evenodd;stroke:#000000;stroke-width:1.0px;stroke-linecap:butt;stroke-linejoin:miter;stroke-opacity:1"/>
<path class="bond-13 atom-13 atom-14" d="M 286.9,29.7 L 293.3,26.7" style="fill:none;fill-rule:evenodd;stroke:#000000;stroke-width:1.0px;stroke-linecap:butt;stroke-linejoin:miter;stroke-opacity:1"/>
<path class="bond-13 atom-13 atom-14" d="M 285.1,26.7 L 292.0,23.4" style="fill:none;fill-rule:evenodd;stroke:#000000;stroke-width:1.0px;stroke-linecap:butt;stroke-linejoin:miter;stroke-opacity:1"/>
<path class="bond-13 atom-13 atom-14" d="M 283.4,23.6 L 290.7,20.1" style="fill:none;fill-rule:evenodd;stroke:#000000;stroke-width:1.0px;stroke-linecap:butt;stroke-linejoin:miter;stroke-opacity:1"/>
<path class="bond-14 atom-13 atom-15" d="M 311.0,72.4 L 255.3,67.9" style="fill:none;fill-rule:evenodd;stroke:#000000;stroke-width:2.0px;stroke-linecap:butt;stroke-linejoin:miter;stroke-opacity:1"/>
<path class="bond-15 atom-15 atom-16" d="M 255.3,67.9 L 231.4,17.3" style="fill:none;fill-rule:evenodd;stroke:#000000;stroke-width:2.0px;stroke-linecap:butt;stroke-linejoin:miter;stroke-opacity:1"/>
<path class="bond-16 atom-16 atom-17" d="M 231.4,17.3 L 175.6,12.8" style="fill:none;fill-rule:evenodd;stroke:#000000;stroke-width:2.0px;stroke-linecap:butt;stroke-linejoin:miter;stroke-opacity:1"/>
<path class="bond-17 atom-17 atom-18" d="M 175.6,12.8 L 143.8,58.7" style="fill:none;fill-rule:evenodd;stroke:#000000;stroke-width:2.0px;stroke-linecap:butt;stroke-linejoin:miter;stroke-opacity:1"/>
<path class="bond-18 atom-18 atom-19" d="M 141.8,55.9 L 142.2,55.6" style="fill:none;fill-rule:evenodd;stroke:#000000;stroke-width:1.0px;stroke-linecap:butt;stroke-linejoin:miter;stroke-opacity:1"/>
<path class="bond-18 atom-18 atom-19" d="M 139.8,53.0 L 140.6,52.5" style="fill:none;fill-rule:evenodd;stroke:#000000;stroke-width:1.0px;stroke-linecap:butt;stroke-linejoin:miter;stroke-opacity:1"/>
<path class="bond-18 atom-18 atom-19" d="M 137.8,50.2 L 139.0,49.4" style="fill:none;fill-rule:evenodd;stroke:#000000;stroke-width:1.0px;stroke-linecap:butt;stroke-linejoin:miter;stroke-opacity:1"/>
<path class="bond-18 atom-18 atom-19" d="M 135.7,47.3 L 137.4,46.3" style="fill:none;fill-rule:evenodd;stroke:#000000;stroke-width:1.0px;stroke-linecap:butt;stroke-linejoin:miter;stroke-opacity:1"/>
<path class="bond-18 atom-18 atom-19" d="M 133.7,44.5 L 135.8,43.2" style="fill:none;fill-rule:evenodd;stroke:#000000;stroke-width:1.0px;stroke-linecap:butt;stroke-linejoin:miter;stroke-opacity:1"/>
<path class="bond-18 atom-18 atom-19" d="M 131.7,41.6 L 134.2,40.1" style="fill:none;fill-rule:evenodd;stroke:#000000;stroke-width:1.0px;stroke-linecap:butt;stroke-linejoin:miter;stroke-opacity:1"/>
<path class="bond-18 atom-18 atom-19" d="M 129.6,38.8 L 132.6,36.9" style="fill:none;fill-rule:evenodd;stroke:#000000;stroke-width:1.0px;stroke-linecap:butt;stroke-linejoin:miter;stroke-opacity:1"/>
<path class="bond-18 atom-18 atom-19" d="M 127.6,35.9 L 131.0,33.8" style="fill:none;fill-rule:evenodd;stroke:#000000;stroke-width:1.0px;stroke-linecap:butt;stroke-linejoin:miter;stroke-opacity:1"/>
<path class="bond-18 atom-18 atom-19" d="M 125.6,33.1 L 129.4,30.7" style="fill:none;fill-rule:evenodd;stroke:#000000;stroke-width:1.0px;stroke-linecap:butt;stroke-linejoin:miter;stroke-opacity:1"/>
<path class="bond-18 atom-18 atom-19" d="M 123.5,30.2 L 127.8,27.6" style="fill:none;fill-rule:evenodd;stroke:#000000;stroke-width:1.0px;stroke-linecap:butt;stroke-linejoin:miter;stroke-opacity:1"/>
<path class="bond-18 atom-18 atom-19" d="M 121.5,27.4 L 126.2,24.5" style="fill:none;fill-rule:evenodd;stroke:#000000;stroke-width:1.0px;stroke-linecap:butt;stroke-linejoin:miter;stroke-opacity:1"/>
<path class="bond-18 atom-18 atom-19" d="M 119.5,24.5 L 124.6,21.4" style="fill:none;fill-rule:evenodd;stroke:#000000;stroke-width:1.0px;stroke-linecap:butt;stroke-linejoin:miter;stroke-opacity:1"/>
<path class="bond-18 atom-18 atom-19" d="M 117.4,21.7 L 123.0,18.2" style="fill:none;fill-rule:evenodd;stroke:#000000;stroke-width:1.0px;stroke-linecap:butt;stroke-linejoin:miter;stroke-opacity:1"/>
<path class="bond-18 atom-18 atom-19" d="M 115.4,18.8 L 121.4,15.1" style="fill:none;fill-rule:evenodd;stroke:#000000;stroke-width:1.0px;stroke-linecap:butt;stroke-linejoin:miter;stroke-opacity:1"/>
<path class="bond-18 atom-18 atom-19" d="M 113.4,16.0 L 119.8,12.0" style="fill:none;fill-rule:evenodd;stroke:#000000;stroke-width:1.0px;stroke-linecap:butt;stroke-linejoin:miter;stroke-opacity:1"/>
<path class="bond-18 atom-18 atom-19" d="M 111.3,13.1 L 118.2,8.9" style="fill:none;fill-rule:evenodd;stroke:#000000;stroke-width:1.0px;stroke-linecap:butt;stroke-linejoin:miter;stroke-opacity:1"/>
<path class="bond-19 atom-18 atom-20" d="M 143.8,58.7 L 88.4,65.9" style="fill:none;fill-rule:evenodd;stroke:#000000;stroke-width:2.0px;stroke-linecap:butt;stroke-linejoin:miter;stroke-opacity:1"/>
<path class="bond-20 atom-20 atom-21" d="M 93.4,65.2 L 62.0,32.0" style="fill:none;fill-rule:evenodd;stroke:#000000;stroke-width:2.0px;stroke-linecap:butt;stroke-linejoin:miter;stroke-opacity:1"/>
<path class="bond-20 atom-20 atom-21" d="M 87.5,70.8 L 56.2,37.6" style="fill:none;fill-rule:evenodd;stroke:#000000;stroke-width:2.0px;stroke-linecap:butt;stroke-linejoin:miter;stroke-opacity:1"/>
<path class="bond-21 atom-20 atom-1" d="M 88.4,65.9 L 78.1,120.8" style="fill:none;fill-rule:evenodd;stroke:#000000;stroke-width:2.0px;stroke-linecap:butt;stroke-linejoin:miter;stroke-opacity:1"/>
<path class="bond-22 atom-18 atom-3" d="M 143.8,58.7 L 167.8,109.3" style="fill:none;fill-rule:evenodd;stroke:#000000;stroke-width:2.0px;stroke-linecap:butt;stroke-linejoin:miter;stroke-opacity:1"/>
<path class="bond-23 atom-15 atom-4" d="M 255.3,67.9 L 223.5,113.8" style="fill:none;fill-rule:evenodd;stroke:#000000;stroke-width:2.0px;stroke-linecap:butt;stroke-linejoin:miter;stroke-opacity:1"/>
<path class="bond-24 atom-13 atom-7" d="M 311.0,72.4 L 334.9,122.9" style="fill:none;fill-rule:evenodd;stroke:#000000;stroke-width:2.0px;stroke-linecap:butt;stroke-linejoin:miter;stroke-opacity:1"/>
<path class="bond-25 atom-3 atom-22" d="M 167.8,109.3 L 179.9,131.6 L 172.3,134.3 Z" style="fill:#000000;fill-rule:evenodd;fill-opacity:1;stroke:#000000;stroke-width:0.5px;stroke-linecap:butt;stroke-linejoin:miter;stroke-miterlimit:10;stroke-opacity:1;"/>
<path class="bond-26 atom-4 atom-23" d="M 226.9,113.6 L 226.9,114.6" style="fill:none;fill-rule:evenodd;stroke:#000000;stroke-width:1.0px;stroke-linecap:butt;stroke-linejoin:miter;stroke-opacity:1"/>
<path class="bond-26 atom-4 atom-23" d="M 230.4,113.4 L 230.2,115.4" style="fill:none;fill-rule:evenodd;stroke:#000000;stroke-width:1.0px;stroke-linecap:butt;stroke-linejoin:miter;stroke-opacity:1"/>
<path class="bond-26 atom-4 atom-23" d="M 233.9,113.2 L 233.6,116.2" style="fill:none;fill-rule:evenodd;stroke:#000000;stroke-width:1.0px;stroke-linecap:butt;stroke-linejoin:miter;stroke-opacity:1"/>
<path class="bond-26 atom-4 atom-23" d="M 237.3,112.9 L 237.0,117.0" style="fill:none;fill-rule:evenodd;stroke:#000000;stroke-width:1.0px;stroke-linecap:butt;stroke-linejoin:miter;stroke-opacity:1"/>
<path class="bond-26 atom-4 atom-23" d="M 240.8,112.7 L 240.4,117.7" style="fill:none;fill-rule:evenodd;stroke:#000000;stroke-width:1.0px;stroke-linecap:butt;stroke-linejoin:miter;stroke-opacity:1"/>
<path class="bond-26 atom-4 atom-23" d="M 244.3,112.5 L 243.8,118.5" style="fill:none;fill-rule:evenodd;stroke:#000000;stroke-width:1.0px;stroke-linecap:butt;stroke-linejoin:miter;stroke-opacity:1"/>
<path class="bond-26 atom-4 atom-23" d="M 247.7,112.3 L 247.2,119.3" style="fill:none;fill-rule:evenodd;stroke:#000000;stroke-width:1.0px;stroke-linecap:butt;stroke-linejoin:miter;stroke-opacity:1"/>
<path class="bond-26 atom-4 atom-23" d="M 251.2,112.0 L 250.5,120.1" style="fill:none;fill-rule:evenodd;stroke:#000000;stroke-width:1.0px;stroke-linecap:butt;stroke-linejoin:miter;stroke-opacity:1"/>
<path class="bond-27 atom-15 atom-24" d="M 255.3,67.9 L 227.6,69.6 L 228.2,61.6 Z" style="fill:#000000;fill-rule:evenodd;fill-opacity:1;stroke:#000000;stroke-width:0.5px;stroke-linecap:butt;stroke-linejoin:miter;stroke-miterlimit:10;stroke-opacity:1;"/>
<path d="M 80.5,122.2 L 78.1,120.8 L 78.6,118.1" style="fill:none;stroke:#000000;stroke-width:2.0px;stroke-linecap:butt;stroke-linejoin:miter;stroke-miterlimit:10;stroke-opacity:1;"/>
<path d="M 124.7,146.3 L 127.1,147.6 L 129.1,145.7" style="fill:none;stroke:#000000;stroke-width:2.0px;stroke-linecap:butt;stroke-linejoin:miter;stroke-miterlimit:10;stroke-opacity:1;"/>
<path d="M 246.2,161.8 L 247.4,164.3 L 250.2,164.6" style="fill:none;stroke:#000000;stroke-width:2.0px;stroke-linecap:butt;stroke-linejoin:miter;stroke-miterlimit:10;stroke-opacity:1;"/>
<path d="M 300.3,168.7 L 303.1,168.9 L 304.7,166.6" style="fill:none;stroke:#000000;stroke-width:2.0px;stroke-linecap:butt;stroke-linejoin:miter;stroke-miterlimit:10;stroke-opacity:1;"/>
<path d="M 387.8,127.2 L 390.6,127.5 L 392.2,125.2" style="fill:none;stroke:#000000;stroke-width:2.0px;stroke-linecap:butt;stroke-linejoin:miter;stroke-miterlimit:10;stroke-opacity:1;"/>
<path d="M 420.8,83.8 L 422.4,81.5 L 421.2,79.0" style="fill:none;stroke:#000000;stroke-width:2.0px;stroke-linecap:butt;stroke-linejoin:miter;stroke-miterlimit:10;stroke-opacity:1;"/>
<path d="M 399.7,33.5 L 398.5,31.0 L 395.7,30.8" style="fill:none;stroke:#000000;stroke-width:2.0px;stroke-linecap:butt;stroke-linejoin:miter;stroke-miterlimit:10;stroke-opacity:1;"/>
<path d="M 345.6,26.7 L 342.8,26.4 L 341.2,28.7" style="fill:none;stroke:#000000;stroke-width:2.0px;stroke-linecap:butt;stroke-linejoin:miter;stroke-miterlimit:10;stroke-opacity:1;"/>
<path d="M 232.6,19.9 L 231.4,17.3 L 228.6,17.1" style="fill:none;stroke:#000000;stroke-width:2.0px;stroke-linecap:butt;stroke-linejoin:miter;stroke-miterlimit:10;stroke-opacity:1;"/>
<path d="M 178.4,13.0 L 175.6,12.8 L 174.1,15.1" style="fill:none;stroke:#000000;stroke-width:2.0px;stroke-linecap:butt;stroke-linejoin:miter;stroke-miterlimit:10;stroke-opacity:1;"/>
<path d="M 91.2,65.5 L 88.4,65.9 L 87.9,68.6" style="fill:none;stroke:#000000;stroke-width:2.0px;stroke-linecap:butt;stroke-linejoin:miter;stroke-miterlimit:10;stroke-opacity:1;"/>
<path class="atom-10" d="M 470.9 86.1 Q 470.9 82.3, 472.7 80.2 Q 474.6 78.0, 478.1 78.0 Q 481.6 78.0, 483.5 80.2 Q 485.4 82.3, 485.4 86.1 Q 485.4 89.9, 483.5 92.1 Q 481.6 94.3, 478.1 94.3 Q 474.6 94.3, 472.7 92.1 Q 470.9 90.0, 470.9 86.1 M 478.1 92.5 Q 480.5 92.5, 481.8 90.9 Q 483.2 89.3, 483.2 86.1 Q 483.2 83.0, 481.8 81.4 Q 480.5 79.8, 478.1 79.8 Q 475.7 79.8, 474.4 81.4 Q 473.1 83.0, 473.1 86.1 Q 473.1 89.3, 474.4 90.9 Q 475.7 92.5, 478.1 92.5 " fill="#000000"/>
<path class="atom-21" d="M 42.8 25.3 Q 42.8 21.5, 44.7 19.3 Q 46.5 17.2, 50.0 17.2 Q 53.6 17.2, 55.4 19.3 Q 57.3 21.5, 57.3 25.3 Q 57.3 29.1, 55.4 31.3 Q 53.5 33.5, 50.0 33.5 Q 46.6 33.5, 44.7 31.3 Q 42.8 29.1, 42.8 25.3 M 50.0 31.7 Q 52.5 31.7, 53.8 30.1 Q 55.1 28.4, 55.1 25.3 Q 55.1 22.2, 53.8 20.6 Q 52.5 19.0, 50.0 19.0 Q 47.6 19.0, 46.3 20.6 Q 45.0 22.1, 45.0 25.3 Q 45.0 28.5, 46.3 30.1 Q 47.6 31.7, 50.0 31.7 " fill="#000000"/>
<path class="atom-22" d="M 173.9 136.5 L 176.1 136.5 L 176.1 143.3 L 184.1 143.3 L 184.1 136.5 L 186.3 136.5 L 186.3 152.4 L 184.1 152.4 L 184.1 145.0 L 176.1 145.0 L 176.1 152.4 L 173.9 152.4 L 173.9 136.5 " fill="#000000"/>
<path class="atom-23" d="M 254.4 108.9 L 256.6 108.9 L 256.6 115.7 L 264.7 115.7 L 264.7 108.9 L 266.8 108.9 L 266.8 124.8 L 264.7 124.8 L 264.7 117.5 L 256.6 117.5 L 256.6 124.8 L 254.4 124.8 L 254.4 108.9 " fill="#000000"/>
<path class="atom-24" d="M 211.9 56.9 L 214.1 56.9 L 214.1 63.6 L 222.2 63.6 L 222.2 56.9 L 224.3 56.9 L 224.3 72.7 L 222.2 72.7 L 222.2 65.4 L 214.1 65.4 L 214.1 72.7 L 211.9 72.7 L 211.9 56.9 " fill="#000000"/>
</svg>