<?xml version='1.0' encoding='utf-8'?>
<svg xmlns="http://www.w3.org/2000/svg" xmlns:rdkit="http://www.rdkit.org/xml" xmlns:xlink="http://www.w3.org/1999/xlink" version="1.1" baseProfile="full" xml:space="preserve" width="512px" height="151px" viewBox="0 0 512 151">

<rect style="opacity:1.0;fill:#FFFFFF;stroke:none" width="512.0" height="151.0" x="0.0" y="0.0"> </rect>
<path class="bond-0 atom-0 atom-1" d="M 27.6,7.6 L 97.9,56.9" style="fill:none;fill-rule:evenodd;stroke:#000000;stroke-width:2.0px;stroke-linecap:butt;stroke-linejoin:miter;stroke-opacity:1"/>
<path class="bond-1 atom-1 atom-2" d="M 97.9,56.9 L 90.3,142.6" style="fill:none;fill-rule:evenodd;stroke:#000000;stroke-width:2.0px;stroke-linecap:butt;stroke-linejoin:miter;stroke-opacity:1"/>
<path class="bond-2 atom-1 atom-3" d="M 97.9,56.9 L 175.9,20.7" style="fill:none;fill-rule:evenodd;stroke:#000000;stroke-width:2.0px;stroke-linecap:butt;stroke-linejoin:miter;stroke-opacity:1"/>
<path class="bond-3 atom-3 atom-4" d="M 175.9,20.7 L 246.2,70.1" style="fill:none;fill-rule:evenodd;stroke:#000000;stroke-width:2.0px;stroke-linecap:butt;stroke-linejoin:miter;stroke-opacity:1"/>
<path class="bond-4 atom-4 atom-5" d="M 246.2,70.1 L 310.1,40.4" style="fill:none;fill-rule:evenodd;stroke:#000000;stroke-width:2.0px;stroke-linecap:butt;stroke-linejoin:miter;stroke-opacity:1"/>
<path class="bond-5 atom-5 atom-6" d="M 338.2,43.7 L 382.4,74.8" style="fill:none;fill-rule:evenodd;stroke:#000000;stroke-width:2.0px;stroke-linecap:butt;stroke-linejoin:miter;stroke-opacity:1"/>
<path class="bond-6 atom-6 atom-7" d="M 409.3,83.5 L 461.1,59.4" style="fill:none;fill-rule:evenodd;stroke:#000000;stroke-width:2.0px;stroke-linecap:butt;stroke-linejoin:miter;stroke-opacity:1"/>
<path class="bond-6 atom-6 atom-7" d="M 403.8,71.8 L 455.7,47.7" style="fill:none;fill-rule:evenodd;stroke:#000000;stroke-width:2.0px;stroke-linecap:butt;stroke-linejoin:miter;stroke-opacity:1"/>
<path d="M 172.0,22.5 L 175.9,20.7 L 179.4,23.2" style="fill:none;stroke:#000000;stroke-width:2.0px;stroke-linecap:butt;stroke-linejoin:miter;stroke-miterlimit:10;stroke-opacity:1;"/>
<path d="M 242.7,67.7 L 246.2,70.1 L 249.4,68.6" style="fill:none;stroke:#000000;stroke-width:2.0px;stroke-linecap:butt;stroke-linejoin:miter;stroke-miterlimit:10;stroke-opacity:1;"/>
<path class="atom-5" d="M 313.0 34.0 Q 313.0 28.1, 315.9 24.9 Q 318.8 21.6, 324.2 21.6 Q 329.5 21.6, 332.4 24.9 Q 335.3 28.1, 335.3 34.0 Q 335.3 39.9, 332.4 43.3 Q 329.5 46.6, 324.2 46.6 Q 318.8 46.6, 315.9 43.3 Q 313.0 39.9, 313.0 34.0 M 324.2 43.8 Q 327.9 43.8, 329.9 41.4 Q 331.9 38.9, 331.9 34.0 Q 331.9 29.2, 329.9 26.8 Q 327.9 24.4, 324.2 24.4 Q 320.4 24.4, 318.4 26.8 Q 316.4 29.2, 316.4 34.0 Q 316.4 38.9, 318.4 41.4 Q 320.4 43.8, 324.2 43.8 " fill="#000000"/>
<path class="atom-6" d="M 389.1 71.1 L 397.1 84.0 Q 397.9 85.3, 399.1 87.6 Q 400.4 89.9, 400.5 90.0 L 400.5 71.1 L 403.7 71.1 L 403.7 95.5 L 400.4 95.5 L 391.8 81.4 Q 390.8 79.7, 389.8 77.8 Q 388.7 75.9, 388.4 75.4 L 388.4 95.5 L 385.3 95.5 L 385.3 71.1 L 389.1 71.1 " fill="#000000"/>
<path class="atom-7" d="M 461.3 47.2 Q 461.3 41.3, 464.1 38.0 Q 467.0 34.8, 472.4 34.8 Q 477.8 34.8, 480.7 38.0 Q 483.6 41.3, 483.6 47.2 Q 483.6 53.1, 480.7 56.4 Q 477.8 59.8, 472.4 59.8 Q 467.1 59.8, 464.1 56.4 Q 461.3 53.1, 461.3 47.2 M 472.4 57.0 Q 476.1 57.0, 478.1 54.5 Q 480.2 52.0, 480.2 47.2 Q 480.2 42.4, 478.1 40.0 Q 476.1 37.5, 472.4 37.5 Q 468.7 37.5, 466.7 39.9 Q 464.7 42.3, 464.7 47.2 Q 464.7 52.1, 466.7 54.5 Q 468.7 57.0, 472.4 57.0 " fill="#000000"/>
</svg>