<?xml version='1.0' encoding='utf-8'?>
<svg xmlns="http://www.w3.org/2000/svg" xmlns:rdkit="http://www.rdkit.org/xml" xmlns:xlink="http://www.w3.org/1999/xlink" version="1.1" baseProfile="full" xml:space="preserve" width="512px" height="288px" viewBox="0 0 512 288">

<rect style="opacity:1.0;fill:#FFFFFF;stroke:none" width="512.0" height="288.0" x="0.0" y="0.0"> </rect>
<path class="bond-0 atom-0 atom-1" d="M 26.9,44.6 L 25.6,81.5" style="fill:none;fill-rule:evenodd;stroke:#000000;stroke-width:2.0px;stroke-linecap:butt;stroke-linejoin:miter;stroke-opacity:1"/>
<path class="bond-1 atom-1 atom-2" d="M 25.6,81.5 L 56.9,101.0" style="fill:none;fill-rule:evenodd;stroke:#000000;stroke-width:2.0px;stroke-linecap:butt;stroke-linejoin:miter;stroke-opacity:1"/>
<path class="bond-2 atom-2 atom-3" d="M 56.9,101.0 L 55.7,137.8" style="fill:none;fill-rule:evenodd;stroke:#000000;stroke-width:2.0px;stroke-linecap:butt;stroke-linejoin:miter;stroke-opacity:1"/>
<path class="bond-3 atom-3 atom-4" d="M 55.7,137.8 L 82.4,154.5" style="fill:none;fill-rule:evenodd;stroke:#000000;stroke-width:2.0px;stroke-linecap:butt;stroke-linejoin:miter;stroke-opacity:1"/>
<path class="bond-4 atom-4 atom-5" d="M 80.5,162.6 L 69.2,180.7" style="fill:none;fill-rule:evenodd;stroke:#000000;stroke-width:2.0px;stroke-linecap:butt;stroke-linejoin:miter;stroke-opacity:1"/>
<path class="bond-4 atom-4 atom-5" d="M 85.2,165.5 L 73.9,183.6" style="fill:none;fill-rule:evenodd;stroke:#000000;stroke-width:2.0px;stroke-linecap:butt;stroke-linejoin:miter;stroke-opacity:1"/>
<path class="bond-5 atom-4 atom-6" d="M 93.4,152.4 L 104.7,134.2" style="fill:none;fill-rule:evenodd;stroke:#000000;stroke-width:2.0px;stroke-linecap:butt;stroke-linejoin:miter;stroke-opacity:1"/>
<path class="bond-5 atom-4 atom-6" d="M 88.7,149.5 L 100.0,131.2" style="fill:none;fill-rule:evenodd;stroke:#000000;stroke-width:2.0px;stroke-linecap:butt;stroke-linejoin:miter;stroke-opacity:1"/>
<path class="bond-6 atom-4 atom-7" d="M 91.6,160.2 L 113.1,173.6" style="fill:none;fill-rule:evenodd;stroke:#000000;stroke-width:2.0px;stroke-linecap:butt;stroke-linejoin:miter;stroke-opacity:1"/>
<path class="bond-7 atom-7 atom-8" d="M 118.1,183.3 L 117.1,213.7" style="fill:none;fill-rule:evenodd;stroke:#000000;stroke-width:2.0px;stroke-linecap:butt;stroke-linejoin:miter;stroke-opacity:1"/>
<path class="bond-8 atom-8 atom-9" d="M 117.1,213.7 L 151.3,231.7 L 145.7,234.7 Z" style="fill:#000000;fill-rule:evenodd;fill-opacity:1;stroke:#000000;stroke-width:0.5px;stroke-linecap:butt;stroke-linejoin:miter;stroke-miterlimit:10;stroke-opacity:1;"/>
<path class="bond-9 atom-9 atom-10" d="M 145.7,234.7 L 180.9,215.9" style="fill:none;fill-rule:evenodd;stroke:#000000;stroke-width:2.0px;stroke-linecap:butt;stroke-linejoin:miter;stroke-opacity:1"/>
<path class="bond-10 atom-10 atom-11" d="M 180.9,215.9 L 182.2,179.0" style="fill:none;fill-rule:evenodd;stroke:#000000;stroke-width:2.0px;stroke-linecap:butt;stroke-linejoin:miter;stroke-opacity:1"/>
<path class="bond-11 atom-11 atom-12" d="M 182.2,179.0 L 214.7,161.7" style="fill:none;fill-rule:evenodd;stroke:#000000;stroke-width:2.0px;stroke-linecap:butt;stroke-linejoin:miter;stroke-opacity:1"/>
<path class="bond-11 atom-11 atom-12" d="M 187.6,182.4 L 214.5,168.1" style="fill:none;fill-rule:evenodd;stroke:#000000;stroke-width:2.0px;stroke-linecap:butt;stroke-linejoin:miter;stroke-opacity:1"/>
<path class="bond-12 atom-12 atom-13" d="M 214.7,161.7 L 246.0,181.2" style="fill:none;fill-rule:evenodd;stroke:#000000;stroke-width:2.0px;stroke-linecap:butt;stroke-linejoin:miter;stroke-opacity:1"/>
<path class="bond-13 atom-13 atom-14" d="M 246.0,181.2 L 272.6,167.0" style="fill:none;fill-rule:evenodd;stroke:#000000;stroke-width:2.0px;stroke-linecap:butt;stroke-linejoin:miter;stroke-opacity:1"/>
<path class="bond-14 atom-14 atom-15" d="M 284.6,167.6 L 309.9,183.3" style="fill:none;fill-rule:evenodd;stroke:#000000;stroke-width:2.0px;stroke-linecap:butt;stroke-linejoin:miter;stroke-opacity:1"/>
<path class="bond-15 atom-15 atom-16" d="M 309.9,183.3 L 342.4,166.0" style="fill:none;fill-rule:evenodd;stroke:#000000;stroke-width:2.0px;stroke-linecap:butt;stroke-linejoin:miter;stroke-opacity:1"/>
<path class="bond-16 atom-16 atom-17" d="M 342.4,166.0 L 373.7,185.5" style="fill:none;fill-rule:evenodd;stroke:#000000;stroke-width:2.0px;stroke-linecap:butt;stroke-linejoin:miter;stroke-opacity:1"/>
<path class="bond-17 atom-17 atom-18" d="M 373.7,185.5 L 406.3,168.1" style="fill:none;fill-rule:evenodd;stroke:#000000;stroke-width:2.0px;stroke-linecap:butt;stroke-linejoin:miter;stroke-opacity:1"/>
<path class="bond-18 atom-18 atom-19" d="M 406.3,168.1 L 437.6,187.7" style="fill:none;fill-rule:evenodd;stroke:#000000;stroke-width:2.0px;stroke-linecap:butt;stroke-linejoin:miter;stroke-opacity:1"/>
<path class="bond-19 atom-19 atom-20" d="M 437.6,187.7 L 470.1,170.3" style="fill:none;fill-rule:evenodd;stroke:#000000;stroke-width:2.0px;stroke-linecap:butt;stroke-linejoin:miter;stroke-opacity:1"/>
<path class="bond-20 atom-20 atom-21" d="M 470.1,170.3 L 471.2,139.9" style="fill:none;fill-rule:evenodd;stroke:#000000;stroke-width:2.0px;stroke-linecap:butt;stroke-linejoin:miter;stroke-opacity:1"/>
<path class="bond-21 atom-21 atom-22" d="M 466.2,130.2 L 440.1,113.9" style="fill:none;fill-rule:evenodd;stroke:#000000;stroke-width:2.0px;stroke-linecap:butt;stroke-linejoin:miter;stroke-opacity:1"/>
<path class="bond-22 atom-22 atom-23" d="M 440.1,113.9 L 407.5,131.3" style="fill:none;fill-rule:evenodd;stroke:#000000;stroke-width:2.0px;stroke-linecap:butt;stroke-linejoin:miter;stroke-opacity:1"/>
<path class="bond-23 atom-13 atom-24" d="M 246.0,181.2 L 244.8,218.0" style="fill:none;fill-rule:evenodd;stroke:#000000;stroke-width:2.0px;stroke-linecap:butt;stroke-linejoin:miter;stroke-opacity:1"/>
<path class="bond-23 atom-13 atom-24" d="M 240.4,184.2 L 239.4,214.7" style="fill:none;fill-rule:evenodd;stroke:#000000;stroke-width:2.0px;stroke-linecap:butt;stroke-linejoin:miter;stroke-opacity:1"/>
<path class="bond-24 atom-24 atom-25" d="M 244.8,218.0 L 212.2,235.4" style="fill:none;fill-rule:evenodd;stroke:#000000;stroke-width:2.0px;stroke-linecap:butt;stroke-linejoin:miter;stroke-opacity:1"/>
<path class="bond-25 atom-8 atom-26" d="M 117.1,213.7 L 84.5,231.1" style="fill:none;fill-rule:evenodd;stroke:#000000;stroke-width:2.0px;stroke-linecap:butt;stroke-linejoin:miter;stroke-opacity:1"/>
<path class="bond-26 atom-26 atom-27" d="M 81.8,229.4 L 80.7,261.4" style="fill:none;fill-rule:evenodd;stroke:#000000;stroke-width:2.0px;stroke-linecap:butt;stroke-linejoin:miter;stroke-opacity:1"/>
<path class="bond-26 atom-26 atom-27" d="M 87.3,229.6 L 86.3,261.5" style="fill:none;fill-rule:evenodd;stroke:#000000;stroke-width:2.0px;stroke-linecap:butt;stroke-linejoin:miter;stroke-opacity:1"/>
<path class="bond-27 atom-26 atom-28" d="M 84.5,231.1 L 59.2,215.3" style="fill:none;fill-rule:evenodd;stroke:#000000;stroke-width:2.0px;stroke-linecap:butt;stroke-linejoin:miter;stroke-opacity:1"/>
<path class="bond-28 atom-25 atom-10" d="M 212.2,235.4 L 180.9,215.9" style="fill:none;fill-rule:evenodd;stroke:#000000;stroke-width:2.0px;stroke-linecap:butt;stroke-linejoin:miter;stroke-opacity:1"/>
<path class="bond-28 atom-25 atom-10" d="M 212.4,229.0 L 186.6,212.9" style="fill:none;fill-rule:evenodd;stroke:#000000;stroke-width:2.0px;stroke-linecap:butt;stroke-linejoin:miter;stroke-opacity:1"/>
<path class="bond-29 atom-23 atom-18" d="M 407.5,131.3 L 406.3,168.1" style="fill:none;fill-rule:evenodd;stroke:#000000;stroke-width:2.0px;stroke-linecap:butt;stroke-linejoin:miter;stroke-opacity:1"/>
<path d="M 25.7,79.6 L 25.6,81.5 L 27.2,82.4" style="fill:none;stroke:#000000;stroke-width:2.0px;stroke-linecap:butt;stroke-linejoin:miter;stroke-miterlimit:10;stroke-opacity:1;"/>
<path d="M 55.4,100.0 L 56.9,101.0 L 56.9,102.8" style="fill:none;stroke:#000000;stroke-width:2.0px;stroke-linecap:butt;stroke-linejoin:miter;stroke-miterlimit:10;stroke-opacity:1;"/>
<path d="M 55.8,136.0 L 55.7,137.8 L 57.0,138.7" style="fill:none;stroke:#000000;stroke-width:2.0px;stroke-linecap:butt;stroke-linejoin:miter;stroke-miterlimit:10;stroke-opacity:1;"/>
<path d="M 117.1,212.2 L 117.1,213.7 L 115.4,214.6" style="fill:none;stroke:#000000;stroke-width:2.0px;stroke-linecap:butt;stroke-linejoin:miter;stroke-miterlimit:10;stroke-opacity:1;"/>
<path d="M 182.1,180.9 L 182.2,179.0 L 183.8,178.2" style="fill:none;stroke:#000000;stroke-width:2.0px;stroke-linecap:butt;stroke-linejoin:miter;stroke-miterlimit:10;stroke-opacity:1;"/>
<path d="M 213.1,162.5 L 214.7,161.7 L 216.3,162.6" style="fill:none;stroke:#000000;stroke-width:2.0px;stroke-linecap:butt;stroke-linejoin:miter;stroke-miterlimit:10;stroke-opacity:1;"/>
<path d="M 308.6,182.6 L 309.9,183.3 L 311.5,182.5" style="fill:none;stroke:#000000;stroke-width:2.0px;stroke-linecap:butt;stroke-linejoin:miter;stroke-miterlimit:10;stroke-opacity:1;"/>
<path d="M 340.8,166.9 L 342.4,166.0 L 344.0,167.0" style="fill:none;stroke:#000000;stroke-width:2.0px;stroke-linecap:butt;stroke-linejoin:miter;stroke-miterlimit:10;stroke-opacity:1;"/>
<path d="M 372.2,184.5 L 373.7,185.5 L 375.4,184.6" style="fill:none;stroke:#000000;stroke-width:2.0px;stroke-linecap:butt;stroke-linejoin:miter;stroke-miterlimit:10;stroke-opacity:1;"/>
<path d="M 436.0,186.7 L 437.6,187.7 L 439.2,186.8" style="fill:none;stroke:#000000;stroke-width:2.0px;stroke-linecap:butt;stroke-linejoin:miter;stroke-miterlimit:10;stroke-opacity:1;"/>
<path d="M 468.5,171.2 L 470.1,170.3 L 470.2,168.8" style="fill:none;stroke:#000000;stroke-width:2.0px;stroke-linecap:butt;stroke-linejoin:miter;stroke-miterlimit:10;stroke-opacity:1;"/>
<path d="M 441.4,114.7 L 440.1,113.9 L 438.5,114.8" style="fill:none;stroke:#000000;stroke-width:2.0px;stroke-linecap:butt;stroke-linejoin:miter;stroke-miterlimit:10;stroke-opacity:1;"/>
<path d="M 409.2,130.4 L 407.5,131.3 L 407.5,133.1" style="fill:none;stroke:#000000;stroke-width:2.0px;stroke-linecap:butt;stroke-linejoin:miter;stroke-miterlimit:10;stroke-opacity:1;"/>
<path d="M 244.8,216.2 L 244.8,218.0 L 243.2,218.9" style="fill:none;stroke:#000000;stroke-width:2.0px;stroke-linecap:butt;stroke-linejoin:miter;stroke-miterlimit:10;stroke-opacity:1;"/>
<path d="M 213.9,234.5 L 212.2,235.4 L 210.7,234.4" style="fill:none;stroke:#000000;stroke-width:2.0px;stroke-linecap:butt;stroke-linejoin:miter;stroke-miterlimit:10;stroke-opacity:1;"/>
<path d="M 86.1,230.2 L 84.5,231.1 L 83.3,230.3" style="fill:none;stroke:#000000;stroke-width:2.0px;stroke-linecap:butt;stroke-linejoin:miter;stroke-miterlimit:10;stroke-opacity:1;"/>
<path class="atom-4" d="M 84.1 160.9 Q 84.2 161.0, 84.7 161.2 Q 85.1 161.4, 85.7 161.5 Q 86.2 161.6, 86.8 161.6 Q 87.7 161.6, 88.3 161.2 Q 88.9 160.7, 88.9 159.8 Q 88.9 159.3, 88.6 158.9 Q 88.3 158.6, 87.9 158.4 Q 87.4 158.2, 86.7 158.0 Q 85.8 157.7, 85.2 157.4 Q 84.7 157.1, 84.3 156.6 Q 83.9 156.0, 83.9 155.1 Q 83.9 153.8, 84.8 153.0 Q 85.7 152.1, 87.4 152.1 Q 88.6 152.1, 90.0 152.7 L 89.7 153.9 Q 88.4 153.3, 87.5 153.3 Q 86.5 153.3, 85.9 153.8 Q 85.3 154.2, 85.4 154.9 Q 85.4 155.5, 85.6 155.8 Q 85.9 156.1, 86.3 156.3 Q 86.8 156.5, 87.5 156.7 Q 88.4 157.0, 89.0 157.3 Q 89.5 157.6, 89.9 158.2 Q 90.4 158.8, 90.4 159.8 Q 90.4 161.3, 89.4 162.1 Q 88.4 162.8, 86.8 162.8 Q 85.9 162.8, 85.2 162.6 Q 84.5 162.4, 83.7 162.1 L 84.1 160.9 " fill="#000000"/>
<path class="atom-5" d="M 62.7 188.7 Q 62.7 186.2, 63.9 184.8 Q 65.2 183.4, 67.5 183.4 Q 69.8 183.4, 71.1 184.8 Q 72.3 186.2, 72.3 188.7 Q 72.3 191.2, 71.0 192.7 Q 69.8 194.1, 67.5 194.1 Q 65.2 194.1, 63.9 192.7 Q 62.7 191.2, 62.7 188.7 M 67.5 192.9 Q 69.1 192.9, 69.9 191.9 Q 70.8 190.8, 70.8 188.7 Q 70.8 186.6, 69.9 185.6 Q 69.1 184.6, 67.5 184.6 Q 65.9 184.6, 65.0 185.6 Q 64.2 186.6, 64.2 188.7 Q 64.2 190.8, 65.0 191.9 Q 65.9 192.9, 67.5 192.9 " fill="#000000"/>
<path class="atom-6" d="M 101.7 126.1 Q 101.7 123.6, 103.0 122.2 Q 104.2 120.8, 106.5 120.8 Q 108.8 120.8, 110.1 122.2 Q 111.3 123.6, 111.3 126.1 Q 111.3 128.6, 110.1 130.1 Q 108.8 131.5, 106.5 131.5 Q 104.2 131.5, 103.0 130.1 Q 101.7 128.6, 101.7 126.1 M 106.5 130.3 Q 108.1 130.3, 109.0 129.2 Q 109.8 128.2, 109.8 126.1 Q 109.8 124.0, 109.0 123.0 Q 108.1 121.9, 106.5 121.9 Q 104.9 121.9, 104.1 123.0 Q 103.2 124.0, 103.2 126.1 Q 103.2 128.2, 104.1 129.2 Q 104.9 130.3, 106.5 130.3 " fill="#000000"/>
<path class="atom-7" d="M 116.0 171.6 L 119.4 177.2 Q 119.8 177.7, 120.3 178.7 Q 120.9 179.7, 120.9 179.8 L 120.9 171.6 L 122.3 171.6 L 122.3 182.1 L 120.8 182.1 L 117.2 176.0 Q 116.7 175.3, 116.3 174.5 Q 115.8 173.7, 115.7 173.5 L 115.7 182.1 L 114.4 182.1 L 114.4 171.6 L 116.0 171.6 " fill="#000000"/>
<path class="atom-7" d="M 124.3 171.6 L 125.7 171.6 L 125.7 176.1 L 131.1 176.1 L 131.1 171.6 L 132.5 171.6 L 132.5 182.1 L 131.1 182.1 L 131.1 177.3 L 125.7 177.3 L 125.7 182.1 L 124.3 182.1 L 124.3 171.6 " fill="#000000"/>
<path class="atom-14" d="M 273.8 163.9 Q 273.8 161.3, 275.0 159.9 Q 276.3 158.5, 278.6 158.5 Q 280.9 158.5, 282.1 159.9 Q 283.4 161.3, 283.4 163.9 Q 283.4 166.4, 282.1 167.8 Q 280.9 169.3, 278.6 169.3 Q 276.3 169.3, 275.0 167.8 Q 273.8 166.4, 273.8 163.9 M 278.6 168.1 Q 280.2 168.1, 281.0 167.0 Q 281.9 166.0, 281.9 163.9 Q 281.9 161.8, 281.0 160.8 Q 280.2 159.7, 278.6 159.7 Q 277.0 159.7, 276.1 160.8 Q 275.3 161.8, 275.3 163.9 Q 275.3 166.0, 276.1 167.0 Q 277.0 168.1, 278.6 168.1 " fill="#000000"/>
<path class="atom-21" d="M 469.1 128.2 L 472.5 133.7 Q 472.8 134.3, 473.4 135.3 Q 473.9 136.3, 474.0 136.3 L 474.0 128.2 L 475.4 128.2 L 475.4 138.7 L 473.9 138.7 L 470.2 132.6 Q 469.8 131.9, 469.4 131.1 Q 468.9 130.3, 468.8 130.0 L 468.8 138.7 L 467.4 138.7 L 467.4 128.2 L 469.1 128.2 " fill="#000000"/>
<path class="atom-21" d="M 477.4 128.2 L 478.8 128.2 L 478.8 132.6 L 484.1 132.6 L 484.1 128.2 L 485.6 128.2 L 485.6 138.7 L 484.1 138.7 L 484.1 133.8 L 478.8 133.8 L 478.8 138.7 L 477.4 138.7 L 477.4 128.2 " fill="#000000"/>
<path class="atom-27" d="M 78.5 268.0 Q 78.5 265.5, 79.7 264.1 Q 81.0 262.7, 83.3 262.7 Q 85.6 262.7, 86.8 264.1 Q 88.1 265.5, 88.1 268.0 Q 88.1 270.5, 86.8 272.0 Q 85.6 273.4, 83.3 273.4 Q 81.0 273.4, 79.7 272.0 Q 78.5 270.5, 78.5 268.0 M 83.3 272.2 Q 84.9 272.2, 85.7 271.2 Q 86.6 270.1, 86.6 268.0 Q 86.6 265.9, 85.7 264.9 Q 84.9 263.9, 83.3 263.9 Q 81.7 263.9, 80.8 264.9 Q 79.9 265.9, 79.9 268.0 Q 79.9 270.1, 80.8 271.2 Q 81.7 272.2, 83.3 272.2 " fill="#000000"/>
<path class="atom-28" d="M 38.1 206.4 L 39.5 206.4 L 39.5 210.9 L 44.9 210.9 L 44.9 206.4 L 46.3 206.4 L 46.3 216.9 L 44.9 216.9 L 44.9 212.0 L 39.5 212.0 L 39.5 216.9 L 38.1 216.9 L 38.1 206.4 " fill="#000000"/>
<path class="atom-28" d="M 48.4 211.6 Q 48.4 209.1, 49.7 207.7 Q 50.9 206.3, 53.2 206.3 Q 55.5 206.3, 56.8 207.7 Q 58.0 209.1, 58.0 211.6 Q 58.0 214.1, 56.8 215.6 Q 55.5 217.0, 53.2 217.0 Q 50.9 217.0, 49.7 215.6 Q 48.4 214.2, 48.4 211.6 M 53.2 215.8 Q 54.8 215.8, 55.7 214.8 Q 56.5 213.7, 56.5 211.6 Q 56.5 209.6, 55.7 208.5 Q 54.8 207.5, 53.2 207.5 Q 51.6 207.5, 50.7 208.5 Q 49.9 209.5, 49.9 211.6 Q 49.9 213.7, 50.7 214.8 Q 51.6 215.8, 53.2 215.8 " fill="#000000"/>
<path class="atom-29" d="M 195.6 15.2 L 197.0 15.2 L 197.0 19.6 L 202.3 19.6 L 202.3 15.2 L 203.7 15.2 L 203.7 25.6 L 202.3 25.6 L 202.3 20.8 L 197.0 20.8 L 197.0 25.6 L 195.6 25.6 L 195.6 15.2 " fill="#000000"/>
<path class="atom-29" d="M 205.6 20.4 Q 205.6 17.8, 206.8 16.4 Q 208.0 15.0, 210.3 15.0 Q 212.5 15.0, 213.6 16.6 L 212.7 17.4 Q 211.8 16.2, 210.3 16.2 Q 208.8 16.2, 207.9 17.3 Q 207.1 18.4, 207.1 20.4 Q 207.1 22.4, 207.9 23.5 Q 208.8 24.6, 210.5 24.6 Q 211.7 24.6, 213.0 23.9 L 213.4 25.0 Q 212.9 25.3, 212.0 25.5 Q 211.2 25.7, 210.3 25.7 Q 208.0 25.7, 206.8 24.3 Q 205.6 23.0, 205.6 20.4 " fill="#000000"/>
<path class="atom-29" d="M 214.8 14.4 L 216.2 14.4 L 216.2 25.6 L 214.8 25.6 L 214.8 14.4 " fill="#000000"/>
</svg>