<?xml version='1.0' encoding='utf-8'?>
<svg xmlns="http://www.w3.org/2000/svg" xmlns:rdkit="http://www.rdkit.org/xml" xmlns:xlink="http://www.w3.org/1999/xlink" version="1.1" baseProfile="full" xml:space="preserve" width="512px" height="307px" viewBox="0 0 512 307">

<rect style="opacity:1.0;fill:#FFFFFF;stroke:none" width="512.0" height="307.0" x="0.0" y="0.0"> </rect>
<path class="bond-0 atom-0 atom-1" d="M 38.4,279.7 L 76.1,258.0" style="fill:none;fill-rule:evenodd;stroke:#000000;stroke-width:2.0px;stroke-linecap:butt;stroke-linejoin:miter;stroke-opacity:1"/>
<path class="bond-0 atom-0 atom-1" d="M 34.6,273.0 L 72.2,251.3" style="fill:none;fill-rule:evenodd;stroke:#000000;stroke-width:2.0px;stroke-linecap:butt;stroke-linejoin:miter;stroke-opacity:1"/>
<path class="bond-0 atom-0 atom-1" d="M 42.3,286.5 L 79.9,264.8" style="fill:none;fill-rule:evenodd;stroke:#000000;stroke-width:2.0px;stroke-linecap:butt;stroke-linejoin:miter;stroke-opacity:1"/>
<path class="bond-1 atom-1 atom-2" d="M 76.1,258.0 L 120.9,232.1" style="fill:none;fill-rule:evenodd;stroke:#000000;stroke-width:2.0px;stroke-linecap:butt;stroke-linejoin:miter;stroke-opacity:1"/>
<path class="bond-2 atom-2 atom-3" d="M 120.9,232.1 L 120.9,180.3" style="fill:none;fill-rule:evenodd;stroke:#000000;stroke-width:2.0px;stroke-linecap:butt;stroke-linejoin:miter;stroke-opacity:1"/>
<path class="bond-3 atom-3 atom-4" d="M 120.9,180.3 L 165.8,154.4" style="fill:none;fill-rule:evenodd;stroke:#000000;stroke-width:2.0px;stroke-linecap:butt;stroke-linejoin:miter;stroke-opacity:1"/>
<path class="bond-3 atom-3 atom-4" d="M 128.7,184.8 L 165.8,163.3" style="fill:none;fill-rule:evenodd;stroke:#000000;stroke-width:2.0px;stroke-linecap:butt;stroke-linejoin:miter;stroke-opacity:1"/>
<path class="bond-4 atom-4 atom-5" d="M 165.8,154.4 L 210.7,180.3" style="fill:none;fill-rule:evenodd;stroke:#000000;stroke-width:2.0px;stroke-linecap:butt;stroke-linejoin:miter;stroke-opacity:1"/>
<path class="bond-5 atom-5 atom-6" d="M 210.7,180.3 L 210.7,232.1" style="fill:none;fill-rule:evenodd;stroke:#000000;stroke-width:2.0px;stroke-linecap:butt;stroke-linejoin:miter;stroke-opacity:1"/>
<path class="bond-5 atom-5 atom-6" d="M 202.9,184.8 L 202.9,227.6" style="fill:none;fill-rule:evenodd;stroke:#000000;stroke-width:2.0px;stroke-linecap:butt;stroke-linejoin:miter;stroke-opacity:1"/>
<path class="bond-6 atom-6 atom-7" d="M 210.7,232.1 L 165.8,258.0" style="fill:none;fill-rule:evenodd;stroke:#000000;stroke-width:2.0px;stroke-linecap:butt;stroke-linejoin:miter;stroke-opacity:1"/>
<path class="bond-7 atom-5 atom-8" d="M 210.7,180.3 L 255.6,154.4" style="fill:none;fill-rule:evenodd;stroke:#000000;stroke-width:2.0px;stroke-linecap:butt;stroke-linejoin:miter;stroke-opacity:1"/>
<path class="bond-8 atom-8 atom-9" d="M 255.6,154.4 L 300.5,180.3" style="fill:none;fill-rule:evenodd;stroke:#000000;stroke-width:2.0px;stroke-linecap:butt;stroke-linejoin:miter;stroke-opacity:1"/>
<path class="bond-9 atom-9 atom-10" d="M 300.5,180.3 L 300.5,232.1" style="fill:none;fill-rule:evenodd;stroke:#000000;stroke-width:2.0px;stroke-linecap:butt;stroke-linejoin:miter;stroke-opacity:1"/>
<path class="bond-10 atom-10 atom-11" d="M 300.5,232.1 L 345.4,258.0" style="fill:none;fill-rule:evenodd;stroke:#000000;stroke-width:2.0px;stroke-linecap:butt;stroke-linejoin:miter;stroke-opacity:1"/>
<path class="bond-10 atom-10 atom-11" d="M 308.3,227.6 L 345.4,249.0" style="fill:none;fill-rule:evenodd;stroke:#000000;stroke-width:2.0px;stroke-linecap:butt;stroke-linejoin:miter;stroke-opacity:1"/>
<path class="bond-11 atom-11 atom-12" d="M 345.4,258.0 L 390.3,232.1" style="fill:none;fill-rule:evenodd;stroke:#000000;stroke-width:2.0px;stroke-linecap:butt;stroke-linejoin:miter;stroke-opacity:1"/>
<path class="bond-12 atom-12 atom-13" d="M 390.3,232.1 L 390.3,180.3" style="fill:none;fill-rule:evenodd;stroke:#000000;stroke-width:2.0px;stroke-linecap:butt;stroke-linejoin:miter;stroke-opacity:1"/>
<path class="bond-12 atom-12 atom-13" d="M 382.5,227.6 L 382.5,184.8" style="fill:none;fill-rule:evenodd;stroke:#000000;stroke-width:2.0px;stroke-linecap:butt;stroke-linejoin:miter;stroke-opacity:1"/>
<path class="bond-13 atom-13 atom-14" d="M 390.3,180.3 L 345.4,154.4" style="fill:none;fill-rule:evenodd;stroke:#000000;stroke-width:2.0px;stroke-linecap:butt;stroke-linejoin:miter;stroke-opacity:1"/>
<path class="bond-14 atom-12 atom-15" d="M 390.3,232.1 L 435.1,258.0" style="fill:none;fill-rule:evenodd;stroke:#000000;stroke-width:2.0px;stroke-linecap:butt;stroke-linejoin:miter;stroke-opacity:1"/>
<path class="bond-15 atom-15 atom-16" d="M 435.1,258.0 L 472.8,279.7" style="fill:none;fill-rule:evenodd;stroke:#000000;stroke-width:2.0px;stroke-linecap:butt;stroke-linejoin:miter;stroke-opacity:1"/>
<path class="bond-15 atom-15 atom-16" d="M 439.0,251.3 L 476.6,273.0" style="fill:none;fill-rule:evenodd;stroke:#000000;stroke-width:2.0px;stroke-linecap:butt;stroke-linejoin:miter;stroke-opacity:1"/>
<path class="bond-15 atom-15 atom-16" d="M 431.3,264.8 L 468.9,286.5" style="fill:none;fill-rule:evenodd;stroke:#000000;stroke-width:2.0px;stroke-linecap:butt;stroke-linejoin:miter;stroke-opacity:1"/>
<path class="bond-16 atom-8 atom-17" d="M 255.6,154.4 L 255.6,111.6" style="fill:none;fill-rule:evenodd;stroke:#000000;stroke-width:2.0px;stroke-linecap:butt;stroke-linejoin:miter;stroke-opacity:1"/>
<path class="bond-17 atom-17 atom-18" d="M 248.3,97.2 L 213.7,72.1" style="fill:none;fill-rule:evenodd;stroke:#000000;stroke-width:2.0px;stroke-linecap:butt;stroke-linejoin:miter;stroke-opacity:1"/>
<path class="bond-18 atom-18 atom-19" d="M 213.7,72.1 L 226.7,31.8" style="fill:none;fill-rule:evenodd;stroke:#000000;stroke-width:2.0px;stroke-linecap:butt;stroke-linejoin:miter;stroke-opacity:1"/>
<path class="bond-18 atom-18 atom-19" d="M 222.8,69.1 L 234.1,34.2" style="fill:none;fill-rule:evenodd;stroke:#000000;stroke-width:2.0px;stroke-linecap:butt;stroke-linejoin:miter;stroke-opacity:1"/>
<path class="bond-19 atom-19 atom-20" d="M 237.0,22.8 L 281.5,22.8" style="fill:none;fill-rule:evenodd;stroke:#000000;stroke-width:2.0px;stroke-linecap:butt;stroke-linejoin:miter;stroke-opacity:1"/>
<path class="bond-20 atom-20 atom-21" d="M 281.5,22.8 L 294.6,63.0" style="fill:none;fill-rule:evenodd;stroke:#000000;stroke-width:2.0px;stroke-linecap:butt;stroke-linejoin:miter;stroke-opacity:1"/>
<path class="bond-20 atom-20 atom-21" d="M 275.9,30.5 L 287.2,65.4" style="fill:none;fill-rule:evenodd;stroke:#000000;stroke-width:2.0px;stroke-linecap:butt;stroke-linejoin:miter;stroke-opacity:1"/>
<path class="bond-21 atom-7 atom-2" d="M 165.8,258.0 L 120.9,232.1" style="fill:none;fill-rule:evenodd;stroke:#000000;stroke-width:2.0px;stroke-linecap:butt;stroke-linejoin:miter;stroke-opacity:1"/>
<path class="bond-21 atom-7 atom-2" d="M 165.8,249.0 L 128.7,227.6" style="fill:none;fill-rule:evenodd;stroke:#000000;stroke-width:2.0px;stroke-linecap:butt;stroke-linejoin:miter;stroke-opacity:1"/>
<path class="bond-22 atom-14 atom-9" d="M 345.4,154.4 L 300.5,180.3" style="fill:none;fill-rule:evenodd;stroke:#000000;stroke-width:2.0px;stroke-linecap:butt;stroke-linejoin:miter;stroke-opacity:1"/>
<path class="bond-22 atom-14 atom-9" d="M 345.4,163.3 L 308.3,184.8" style="fill:none;fill-rule:evenodd;stroke:#000000;stroke-width:2.0px;stroke-linecap:butt;stroke-linejoin:miter;stroke-opacity:1"/>
<path class="bond-23 atom-21 atom-17" d="M 290.3,77.3 L 262.9,97.2" style="fill:none;fill-rule:evenodd;stroke:#000000;stroke-width:2.0px;stroke-linecap:butt;stroke-linejoin:miter;stroke-opacity:1"/>
<path d="M 74.2,259.1 L 76.1,258.0 L 78.3,256.7" style="fill:none;stroke:#000000;stroke-width:2.0px;stroke-linecap:butt;stroke-linejoin:miter;stroke-miterlimit:10;stroke-opacity:1;"/>
<path d="M 120.9,182.9 L 120.9,180.3 L 123.2,179.0" style="fill:none;stroke:#000000;stroke-width:2.0px;stroke-linecap:butt;stroke-linejoin:miter;stroke-miterlimit:10;stroke-opacity:1;"/>
<path d="M 163.6,155.7 L 165.8,154.4 L 168.1,155.7" style="fill:none;stroke:#000000;stroke-width:2.0px;stroke-linecap:butt;stroke-linejoin:miter;stroke-miterlimit:10;stroke-opacity:1;"/>
<path d="M 210.7,229.5 L 210.7,232.1 L 208.5,233.4" style="fill:none;stroke:#000000;stroke-width:2.0px;stroke-linecap:butt;stroke-linejoin:miter;stroke-miterlimit:10;stroke-opacity:1;"/>
<path d="M 168.1,256.7 L 165.8,258.0 L 163.6,256.7" style="fill:none;stroke:#000000;stroke-width:2.0px;stroke-linecap:butt;stroke-linejoin:miter;stroke-miterlimit:10;stroke-opacity:1;"/>
<path d="M 300.5,229.5 L 300.5,232.1 L 302.7,233.4" style="fill:none;stroke:#000000;stroke-width:2.0px;stroke-linecap:butt;stroke-linejoin:miter;stroke-miterlimit:10;stroke-opacity:1;"/>
<path d="M 343.1,256.7 L 345.4,258.0 L 347.6,256.7" style="fill:none;stroke:#000000;stroke-width:2.0px;stroke-linecap:butt;stroke-linejoin:miter;stroke-miterlimit:10;stroke-opacity:1;"/>
<path d="M 390.3,182.9 L 390.3,180.3 L 388.0,179.0" style="fill:none;stroke:#000000;stroke-width:2.0px;stroke-linecap:butt;stroke-linejoin:miter;stroke-miterlimit:10;stroke-opacity:1;"/>
<path d="M 347.6,155.7 L 345.4,154.4 L 343.1,155.7" style="fill:none;stroke:#000000;stroke-width:2.0px;stroke-linecap:butt;stroke-linejoin:miter;stroke-miterlimit:10;stroke-opacity:1;"/>
<path d="M 432.9,256.7 L 435.1,258.0 L 437.0,259.1" style="fill:none;stroke:#000000;stroke-width:2.0px;stroke-linecap:butt;stroke-linejoin:miter;stroke-miterlimit:10;stroke-opacity:1;"/>
<path d="M 215.4,73.3 L 213.7,72.1 L 214.3,70.0" style="fill:none;stroke:#000000;stroke-width:2.0px;stroke-linecap:butt;stroke-linejoin:miter;stroke-miterlimit:10;stroke-opacity:1;"/>
<path d="M 279.3,22.8 L 281.5,22.8 L 282.2,24.8" style="fill:none;stroke:#000000;stroke-width:2.0px;stroke-linecap:butt;stroke-linejoin:miter;stroke-miterlimit:10;stroke-opacity:1;"/>
<path class="atom-0" d="M 27.9 276.6 L 32.7 284.4 Q 33.2 285.1, 34.0 286.5 Q 34.7 287.9, 34.8 288.0 L 34.8 276.6 L 36.7 276.6 L 36.7 291.3 L 34.7 291.3 L 29.6 282.8 Q 29.0 281.8, 28.3 280.6 Q 27.7 279.5, 27.5 279.1 L 27.5 291.3 L 25.6 291.3 L 25.6 276.6 L 27.9 276.6 " fill="#000000"/>
<path class="atom-16" d="M 476.8 276.6 L 481.6 284.4 Q 482.1 285.1, 482.8 286.5 Q 483.6 287.9, 483.7 288.0 L 483.7 276.6 L 485.6 276.6 L 485.6 291.3 L 483.6 291.3 L 478.4 282.8 Q 477.8 281.8, 477.2 280.6 Q 476.6 279.5, 476.4 279.1 L 476.4 291.3 L 474.5 291.3 L 474.5 276.6 L 476.8 276.6 " fill="#000000"/>
<path class="atom-17" d="M 252.4 95.2 L 257.2 103.0 Q 257.6 103.7, 258.4 105.1 Q 259.2 106.5, 259.2 106.6 L 259.2 95.2 L 261.2 95.2 L 261.2 109.9 L 259.2 109.9 L 254.0 101.4 Q 253.4 100.4, 252.7 99.2 Q 252.1 98.1, 251.9 97.7 L 251.9 109.9 L 250.0 109.9 L 250.0 95.2 L 252.4 95.2 " fill="#000000"/>
<path class="atom-19" d="M 226.4 15.4 L 231.2 23.2 Q 231.7 24.0, 232.5 25.4 Q 233.3 26.7, 233.3 26.8 L 233.3 15.4 L 235.3 15.4 L 235.3 30.1 L 233.2 30.1 L 228.1 21.6 Q 227.5 20.6, 226.8 19.5 Q 226.2 18.3, 226.0 18.0 L 226.0 30.1 L 224.1 30.1 L 224.1 15.4 L 226.4 15.4 " fill="#000000"/>
<path class="atom-21" d="M 294.3 64.7 L 299.1 72.5 Q 299.6 73.3, 300.3 74.7 Q 301.1 76.0, 301.1 76.1 L 301.1 64.7 L 303.1 64.7 L 303.1 79.4 L 301.1 79.4 L 295.9 70.9 Q 295.3 69.9, 294.7 68.8 Q 294.1 67.6, 293.9 67.3 L 293.9 79.4 L 292.0 79.4 L 292.0 64.7 L 294.3 64.7 " fill="#000000"/>
</svg>