<?xml version='1.0' encoding='utf-8'?>
<svg xmlns="http://www.w3.org/2000/svg" xmlns:rdkit="http://www.rdkit.org/xml" xmlns:xlink="http://www.w3.org/1999/xlink" version="1.1" baseProfile="full" xml:space="preserve" width="512px" height="239px" viewBox="0 0 512 239">

<rect style="opacity:1.0;fill:#FFFFFF;stroke:none" width="512.0" height="239.0" x="0.0" y="0.0"> </rect>
<path class="bond-0 atom-0 atom-1" d="M 455.9,163.4 L 411.0,184.6" style="fill:none;fill-rule:evenodd;stroke:#000000;stroke-width:2.0px;stroke-linecap:butt;stroke-linejoin:miter;stroke-opacity:1"/>
<path class="bond-1 atom-1 atom-2" d="M 411.0,184.6 L 394.6,137.7" style="fill:none;fill-rule:evenodd;stroke:#000000;stroke-width:2.0px;stroke-linecap:butt;stroke-linejoin:miter;stroke-opacity:1"/>
<path class="bond-2 atom-2 atom-3" d="M 394.6,137.7 L 352.0,138.7" style="fill:none;fill-rule:evenodd;stroke:#000000;stroke-width:2.0px;stroke-linecap:butt;stroke-linejoin:miter;stroke-opacity:1"/>
<path class="bond-3 atom-3 atom-4" d="M 342.4,147.5 L 330.8,186.4" style="fill:none;fill-rule:evenodd;stroke:#000000;stroke-width:2.0px;stroke-linecap:butt;stroke-linejoin:miter;stroke-opacity:1"/>
<path class="bond-4 atom-4 atom-5" d="M 330.8,186.4 L 365.4,210.4" style="fill:none;fill-rule:evenodd;stroke:#000000;stroke-width:2.0px;stroke-linecap:butt;stroke-linejoin:miter;stroke-opacity:1"/>
<path class="bond-5 atom-4 atom-6" d="M 330.8,186.4 L 283.3,172.1" style="fill:none;fill-rule:evenodd;stroke:#000000;stroke-width:2.0px;stroke-linecap:butt;stroke-linejoin:miter;stroke-opacity:1"/>
<path class="bond-6 atom-6 atom-7" d="M 283.3,172.1 L 297.5,124.6" style="fill:none;fill-rule:evenodd;stroke:#000000;stroke-width:2.0px;stroke-linecap:butt;stroke-linejoin:miter;stroke-opacity:1"/>
<path class="bond-7 atom-7 atom-8" d="M 302.5,126.1 L 282.1,88.1" style="fill:none;fill-rule:evenodd;stroke:#000000;stroke-width:2.0px;stroke-linecap:butt;stroke-linejoin:miter;stroke-opacity:1"/>
<path class="bond-7 atom-7 atom-8" d="M 296.0,129.6 L 275.6,91.6" style="fill:none;fill-rule:evenodd;stroke:#000000;stroke-width:2.0px;stroke-linecap:butt;stroke-linejoin:miter;stroke-opacity:1"/>
<path class="bond-8 atom-6 atom-9" d="M 279.9,173.5 L 280.3,174.2" style="fill:none;fill-rule:evenodd;stroke:#000000;stroke-width:1.0px;stroke-linecap:butt;stroke-linejoin:miter;stroke-opacity:1"/>
<path class="bond-8 atom-6 atom-9" d="M 276.5,174.9 L 277.2,176.2" style="fill:none;fill-rule:evenodd;stroke:#000000;stroke-width:1.0px;stroke-linecap:butt;stroke-linejoin:miter;stroke-opacity:1"/>
<path class="bond-8 atom-6 atom-9" d="M 273.2,176.3 L 274.2,178.3" style="fill:none;fill-rule:evenodd;stroke:#000000;stroke-width:1.0px;stroke-linecap:butt;stroke-linejoin:miter;stroke-opacity:1"/>
<path class="bond-8 atom-6 atom-9" d="M 269.8,177.7 L 271.2,180.3" style="fill:none;fill-rule:evenodd;stroke:#000000;stroke-width:1.0px;stroke-linecap:butt;stroke-linejoin:miter;stroke-opacity:1"/>
<path class="bond-8 atom-6 atom-9" d="M 266.5,179.1 L 268.2,182.3" style="fill:none;fill-rule:evenodd;stroke:#000000;stroke-width:1.0px;stroke-linecap:butt;stroke-linejoin:miter;stroke-opacity:1"/>
<path class="bond-8 atom-6 atom-9" d="M 263.1,180.5 L 265.2,184.4" style="fill:none;fill-rule:evenodd;stroke:#000000;stroke-width:1.0px;stroke-linecap:butt;stroke-linejoin:miter;stroke-opacity:1"/>
<path class="bond-8 atom-6 atom-9" d="M 259.7,181.9 L 262.2,186.4" style="fill:none;fill-rule:evenodd;stroke:#000000;stroke-width:1.0px;stroke-linecap:butt;stroke-linejoin:miter;stroke-opacity:1"/>
<path class="bond-8 atom-6 atom-9" d="M 256.4,183.3 L 259.1,188.5" style="fill:none;fill-rule:evenodd;stroke:#000000;stroke-width:1.0px;stroke-linecap:butt;stroke-linejoin:miter;stroke-opacity:1"/>
<path class="bond-8 atom-6 atom-9" d="M 253.0,184.7 L 256.1,190.5" style="fill:none;fill-rule:evenodd;stroke:#000000;stroke-width:1.0px;stroke-linecap:butt;stroke-linejoin:miter;stroke-opacity:1"/>
<path class="bond-8 atom-6 atom-9" d="M 249.6,186.1 L 253.1,192.5" style="fill:none;fill-rule:evenodd;stroke:#000000;stroke-width:1.0px;stroke-linecap:butt;stroke-linejoin:miter;stroke-opacity:1"/>
<path class="bond-9 atom-9 atom-10" d="M 232.7,191.4 L 197.4,169.6" style="fill:none;fill-rule:evenodd;stroke:#000000;stroke-width:2.0px;stroke-linecap:butt;stroke-linejoin:miter;stroke-opacity:1"/>
<path class="bond-10 atom-10 atom-11" d="M 201.0,171.8 L 202.3,129.0" style="fill:none;fill-rule:evenodd;stroke:#000000;stroke-width:2.0px;stroke-linecap:butt;stroke-linejoin:miter;stroke-opacity:1"/>
<path class="bond-10 atom-10 atom-11" d="M 193.7,171.6 L 194.9,128.8" style="fill:none;fill-rule:evenodd;stroke:#000000;stroke-width:2.0px;stroke-linecap:butt;stroke-linejoin:miter;stroke-opacity:1"/>
<path class="bond-11 atom-10 atom-12" d="M 197.4,169.6 L 153.7,193.1" style="fill:none;fill-rule:evenodd;stroke:#000000;stroke-width:2.0px;stroke-linecap:butt;stroke-linejoin:miter;stroke-opacity:1"/>
<path class="bond-12 atom-12 atom-13" d="M 153.7,193.1 L 111.5,167.0" style="fill:none;fill-rule:evenodd;stroke:#000000;stroke-width:2.0px;stroke-linecap:butt;stroke-linejoin:miter;stroke-opacity:1"/>
<path class="bond-13 atom-13 atom-14" d="M 111.5,167.0 L 113.0,117.4" style="fill:none;fill-rule:evenodd;stroke:#000000;stroke-width:2.0px;stroke-linecap:butt;stroke-linejoin:miter;stroke-opacity:1"/>
<path class="bond-13 atom-13 atom-14" d="M 104.3,162.6 L 105.5,121.5" style="fill:none;fill-rule:evenodd;stroke:#000000;stroke-width:2.0px;stroke-linecap:butt;stroke-linejoin:miter;stroke-opacity:1"/>
<path class="bond-14 atom-14 atom-15" d="M 113.0,117.4 L 70.8,91.4" style="fill:none;fill-rule:evenodd;stroke:#000000;stroke-width:2.0px;stroke-linecap:butt;stroke-linejoin:miter;stroke-opacity:1"/>
<path class="bond-15 atom-15 atom-16" d="M 70.8,91.4 L 27.1,114.9" style="fill:none;fill-rule:evenodd;stroke:#000000;stroke-width:2.0px;stroke-linecap:butt;stroke-linejoin:miter;stroke-opacity:1"/>
<path class="bond-15 atom-15 atom-16" d="M 70.5,99.9 L 34.3,119.4" style="fill:none;fill-rule:evenodd;stroke:#000000;stroke-width:2.0px;stroke-linecap:butt;stroke-linejoin:miter;stroke-opacity:1"/>
<path class="bond-16 atom-16 atom-17" d="M 27.1,114.9 L 25.6,164.5" style="fill:none;fill-rule:evenodd;stroke:#000000;stroke-width:2.0px;stroke-linecap:butt;stroke-linejoin:miter;stroke-opacity:1"/>
<path class="bond-17 atom-17 atom-18" d="M 25.6,164.5 L 67.8,190.6" style="fill:none;fill-rule:evenodd;stroke:#000000;stroke-width:2.0px;stroke-linecap:butt;stroke-linejoin:miter;stroke-opacity:1"/>
<path class="bond-17 atom-17 atom-18" d="M 33.1,160.5 L 68.1,182.1" style="fill:none;fill-rule:evenodd;stroke:#000000;stroke-width:2.0px;stroke-linecap:butt;stroke-linejoin:miter;stroke-opacity:1"/>
<path class="bond-18 atom-2 atom-19" d="M 394.6,137.7 L 418.8,96.6 L 427.3,97.3 Z" style="fill:#000000;fill-rule:evenodd;fill-opacity:1;stroke:#000000;stroke-width:0.5px;stroke-linecap:butt;stroke-linejoin:miter;stroke-miterlimit:10;stroke-opacity:1;"/>
<path class="bond-19 atom-19 atom-20" d="M 427.1,97.3 L 409.2,59.5" style="fill:none;fill-rule:evenodd;stroke:#000000;stroke-width:2.0px;stroke-linecap:butt;stroke-linejoin:miter;stroke-opacity:1"/>
<path class="bond-19 atom-19 atom-20" d="M 420.5,100.5 L 402.6,62.6" style="fill:none;fill-rule:evenodd;stroke:#000000;stroke-width:2.0px;stroke-linecap:butt;stroke-linejoin:miter;stroke-opacity:1"/>
<path class="bond-20 atom-19 atom-21" d="M 422.9,97.0 L 464.2,100.4" style="fill:none;fill-rule:evenodd;stroke:#000000;stroke-width:2.0px;stroke-linecap:butt;stroke-linejoin:miter;stroke-opacity:1"/>
<path class="bond-21 atom-1 atom-22" d="M 411.0,184.6 L 436.8,226.9" style="fill:none;fill-rule:evenodd;stroke:#000000;stroke-width:2.0px;stroke-linecap:butt;stroke-linejoin:miter;stroke-opacity:1"/>
<path class="bond-22 atom-5 atom-1" d="M 377.7,210.0 L 411.0,184.6" style="fill:none;fill-rule:evenodd;stroke:#000000;stroke-width:2.0px;stroke-linecap:butt;stroke-linejoin:miter;stroke-opacity:1"/>
<path class="bond-23 atom-7 atom-3" d="M 297.5,124.6 L 338.1,136.8" style="fill:none;fill-rule:evenodd;stroke:#000000;stroke-width:2.0px;stroke-linecap:butt;stroke-linejoin:miter;stroke-opacity:1"/>
<path class="bond-24 atom-18 atom-13" d="M 67.8,190.6 L 111.5,167.0" style="fill:none;fill-rule:evenodd;stroke:#000000;stroke-width:2.0px;stroke-linecap:butt;stroke-linejoin:miter;stroke-opacity:1"/>
<path class="bond-25 atom-4 atom-24" d="M 330.8,186.4 L 324.7,207.5 L 318.1,204.3 Z" style="fill:#000000;fill-rule:evenodd;fill-opacity:1;stroke:#000000;stroke-width:0.5px;stroke-linecap:butt;stroke-linejoin:miter;stroke-miterlimit:10;stroke-opacity:1;"/>
<path d="M 395.5,140.1 L 394.6,137.7 L 392.5,137.8" style="fill:none;stroke:#000000;stroke-width:2.0px;stroke-linecap:butt;stroke-linejoin:miter;stroke-miterlimit:10;stroke-opacity:1;"/>
<path d="M 285.7,172.8 L 283.3,172.1 L 284.0,169.8" style="fill:none;stroke:#000000;stroke-width:2.0px;stroke-linecap:butt;stroke-linejoin:miter;stroke-miterlimit:10;stroke-opacity:1;"/>
<path d="M 296.8,127.0 L 297.5,124.6 L 299.6,125.2" style="fill:none;stroke:#000000;stroke-width:2.0px;stroke-linecap:butt;stroke-linejoin:miter;stroke-miterlimit:10;stroke-opacity:1;"/>
<path d="M 199.2,170.7 L 197.4,169.6 L 195.2,170.8" style="fill:none;stroke:#000000;stroke-width:2.0px;stroke-linecap:butt;stroke-linejoin:miter;stroke-miterlimit:10;stroke-opacity:1;"/>
<path d="M 155.9,191.9 L 153.7,193.1 L 151.6,191.8" style="fill:none;stroke:#000000;stroke-width:2.0px;stroke-linecap:butt;stroke-linejoin:miter;stroke-miterlimit:10;stroke-opacity:1;"/>
<path d="M 112.9,119.9 L 113.0,117.4 L 110.9,116.1" style="fill:none;stroke:#000000;stroke-width:2.0px;stroke-linecap:butt;stroke-linejoin:miter;stroke-miterlimit:10;stroke-opacity:1;"/>
<path d="M 72.9,92.7 L 70.8,91.4 L 68.6,92.6" style="fill:none;stroke:#000000;stroke-width:2.0px;stroke-linecap:butt;stroke-linejoin:miter;stroke-miterlimit:10;stroke-opacity:1;"/>
<path d="M 29.3,113.7 L 27.1,114.9 L 27.0,117.4" style="fill:none;stroke:#000000;stroke-width:2.0px;stroke-linecap:butt;stroke-linejoin:miter;stroke-miterlimit:10;stroke-opacity:1;"/>
<path d="M 25.7,162.0 L 25.6,164.5 L 27.7,165.8" style="fill:none;stroke:#000000;stroke-width:2.0px;stroke-linecap:butt;stroke-linejoin:miter;stroke-miterlimit:10;stroke-opacity:1;"/>
<path d="M 65.7,189.2 L 67.8,190.6 L 70.0,189.4" style="fill:none;stroke:#000000;stroke-width:2.0px;stroke-linecap:butt;stroke-linejoin:miter;stroke-miterlimit:10;stroke-opacity:1;"/>
<path class="atom-3" d="M 341.9 131.8 L 346.5 139.3 Q 347.0 140.0, 347.7 141.4 Q 348.5 142.7, 348.5 142.8 L 348.5 131.8 L 350.4 131.8 L 350.4 145.9 L 348.4 145.9 L 343.5 137.8 Q 342.9 136.8, 342.3 135.7 Q 341.7 134.6, 341.5 134.3 L 341.5 145.9 L 339.7 145.9 L 339.7 131.8 L 341.9 131.8 " fill="#000000"/>
<path class="atom-5" d="M 367.6 219.4 Q 367.8 219.5, 368.4 219.8 Q 369.1 220.1, 369.8 220.2 Q 370.5 220.4, 371.2 220.4 Q 372.6 220.4, 373.3 219.8 Q 374.1 219.1, 374.1 218.0 Q 374.1 217.2, 373.7 216.7 Q 373.3 216.3, 372.7 216.0 Q 372.1 215.7, 371.2 215.4 Q 369.9 215.1, 369.1 214.7 Q 368.4 214.3, 367.9 213.6 Q 367.4 212.8, 367.4 211.6 Q 367.4 209.8, 368.6 208.7 Q 369.8 207.6, 372.1 207.6 Q 373.8 207.6, 375.6 208.4 L 375.2 209.9 Q 373.5 209.2, 372.2 209.2 Q 370.8 209.2, 370.1 209.8 Q 369.3 210.4, 369.3 211.3 Q 369.3 212.1, 369.7 212.5 Q 370.1 213.0, 370.7 213.3 Q 371.3 213.5, 372.2 213.8 Q 373.5 214.2, 374.2 214.6 Q 375.0 215.0, 375.5 215.8 Q 376.1 216.6, 376.1 218.0 Q 376.1 219.9, 374.8 221.0 Q 373.5 222.0, 371.3 222.0 Q 370.1 222.0, 369.1 221.7 Q 368.2 221.5, 367.1 221.0 L 367.6 219.4 " fill="#000000"/>
<path class="atom-8" d="M 267.6 81.0 Q 267.6 77.6, 269.2 75.7 Q 270.9 73.8, 274.0 73.8 Q 277.1 73.8, 278.8 75.7 Q 280.5 77.6, 280.5 81.0 Q 280.5 84.4, 278.8 86.3 Q 277.1 88.3, 274.0 88.3 Q 270.9 88.3, 269.2 86.3 Q 267.6 84.4, 267.6 81.0 M 274.0 86.7 Q 276.2 86.7, 277.3 85.2 Q 278.5 83.8, 278.5 81.0 Q 278.5 78.2, 277.3 76.8 Q 276.2 75.4, 274.0 75.4 Q 271.9 75.4, 270.7 76.8 Q 269.5 78.2, 269.5 81.0 Q 269.5 83.8, 270.7 85.2 Q 271.9 86.7, 274.0 86.7 " fill="#000000"/>
<path class="atom-9" d="M 236.5 188.6 L 241.1 196.1 Q 241.6 196.8, 242.3 198.1 Q 243.0 199.5, 243.1 199.5 L 243.1 188.6 L 244.9 188.6 L 244.9 202.7 L 243.0 202.7 L 238.1 194.5 Q 237.5 193.6, 236.9 192.5 Q 236.3 191.4, 236.1 191.1 L 236.1 202.7 L 234.3 202.7 L 234.3 188.6 L 236.5 188.6 " fill="#000000"/>
<path class="atom-9" d="M 234.1 204.1 L 236.0 204.1 L 236.0 210.0 L 243.2 210.0 L 243.2 204.1 L 245.1 204.1 L 245.1 218.1 L 243.2 218.1 L 243.2 211.6 L 236.0 211.6 L 236.0 218.1 L 234.1 218.1 L 234.1 204.1 " fill="#000000"/>
<path class="atom-11" d="M 192.4 120.0 Q 192.4 116.7, 194.1 114.8 Q 195.8 112.9, 198.9 112.9 Q 202.0 112.9, 203.6 114.8 Q 205.3 116.7, 205.3 120.0 Q 205.3 123.5, 203.6 125.4 Q 201.9 127.3, 198.9 127.3 Q 195.8 127.3, 194.1 125.4 Q 192.4 123.5, 192.4 120.0 M 198.9 125.7 Q 201.0 125.7, 202.2 124.3 Q 203.3 122.9, 203.3 120.0 Q 203.3 117.3, 202.2 115.9 Q 201.0 114.5, 198.9 114.5 Q 196.7 114.5, 195.6 115.9 Q 194.4 117.3, 194.4 120.0 Q 194.4 122.9, 195.6 124.3 Q 196.7 125.7, 198.9 125.7 " fill="#000000"/>
<path class="atom-20" d="M 395.2 52.2 Q 395.2 48.8, 396.9 46.9 Q 398.6 45.0, 401.7 45.0 Q 404.8 45.0, 406.5 46.9 Q 408.1 48.8, 408.1 52.2 Q 408.1 55.6, 406.4 57.5 Q 404.7 59.4, 401.7 59.4 Q 398.6 59.4, 396.9 57.5 Q 395.2 55.6, 395.2 52.2 M 401.7 57.9 Q 403.8 57.9, 405.0 56.4 Q 406.1 55.0, 406.1 52.2 Q 406.1 49.4, 405.0 48.0 Q 403.8 46.6, 401.7 46.6 Q 399.5 46.6, 398.4 48.0 Q 397.2 49.4, 397.2 52.2 Q 397.2 55.0, 398.4 56.4 Q 399.5 57.9, 401.7 57.9 " fill="#000000"/>
<path class="atom-21" d="M 465.9 101.1 Q 465.9 97.7, 467.5 95.8 Q 469.2 93.9, 472.3 93.9 Q 475.4 93.9, 477.1 95.8 Q 478.8 97.7, 478.8 101.1 Q 478.8 104.5, 477.1 106.4 Q 475.4 108.4, 472.3 108.4 Q 469.2 108.4, 467.5 106.4 Q 465.9 104.5, 465.9 101.1 M 472.3 106.8 Q 474.5 106.8, 475.6 105.3 Q 476.8 103.9, 476.8 101.1 Q 476.8 98.3, 475.6 96.9 Q 474.5 95.5, 472.3 95.5 Q 470.2 95.5, 469.0 96.9 Q 467.8 98.3, 467.8 101.1 Q 467.8 103.9, 469.0 105.3 Q 470.2 106.8, 472.3 106.8 " fill="#000000"/>
<path class="atom-21" d="M 480.8 96.2 L 485.6 96.2 L 485.6 97.3 L 480.8 97.3 L 480.8 96.2 " fill="#000000"/>
<path class="atom-23" d="M 259.9 12.0 L 261.8 12.0 L 261.8 26.1 L 259.9 26.1 L 259.9 12.0 M 267.7 12.0 L 270.3 12.0 L 264.8 18.4 L 270.7 26.1 L 268.2 26.1 L 262.3 18.5 L 267.7 12.0 " fill="#000000"/>
<path class="atom-23" d="M 271.9 14.6 L 274.4 14.6 L 274.4 11.9 L 275.5 11.9 L 275.5 14.6 L 278.0 14.6 L 278.0 15.5 L 275.5 15.5 L 275.5 18.1 L 274.4 18.1 L 274.4 15.5 L 271.9 15.5 L 271.9 14.6 " fill="#000000"/>
<path class="atom-24" d="M 310.9 209.2 L 312.9 209.2 L 312.9 215.1 L 320.0 215.1 L 320.0 209.2 L 321.9 209.2 L 321.9 223.2 L 320.0 223.2 L 320.0 216.7 L 312.9 216.7 L 312.9 223.2 L 310.9 223.2 L 310.9 209.2 " fill="#000000"/>
</svg>