<?xml version='1.0' encoding='utf-8'?>
<svg xmlns="http://www.w3.org/2000/svg" xmlns:rdkit="http://www.rdkit.org/xml" xmlns:xlink="http://www.w3.org/1999/xlink" version="1.1" baseProfile="full" xml:space="preserve" width="512px" height="353px" viewBox="0 0 512 353">

<rect style="opacity:1.0;fill:#FFFFFF;stroke:none" width="512.0" height="353.0" x="0.0" y="0.0"> </rect>
<path class="bond-0 atom-0 atom-1" d="M 485.1,43.0 L 451.9,88.8" style="fill:none;fill-rule:evenodd;stroke:#000000;stroke-width:2.0px;stroke-linecap:butt;stroke-linejoin:miter;stroke-opacity:1"/>
<path class="bond-1 atom-1 atom-2" d="M 430.9,100.3 L 370.9,94.0" style="fill:none;fill-rule:evenodd;stroke:#000000;stroke-width:2.0px;stroke-linecap:butt;stroke-linejoin:miter;stroke-opacity:1"/>
<path class="bond-2 atom-2 atom-3" d="M 377.1,94.6 L 352.2,38.8" style="fill:none;fill-rule:evenodd;stroke:#000000;stroke-width:2.0px;stroke-linecap:butt;stroke-linejoin:miter;stroke-opacity:1"/>
<path class="bond-2 atom-2 atom-3" d="M 367.2,99.0 L 342.3,43.2" style="fill:none;fill-rule:evenodd;stroke:#000000;stroke-width:2.0px;stroke-linecap:butt;stroke-linejoin:miter;stroke-opacity:1"/>
<path class="bond-3 atom-2 atom-4" d="M 370.9,94.0 L 328.4,152.4" style="fill:none;fill-rule:evenodd;stroke:#000000;stroke-width:2.0px;stroke-linecap:butt;stroke-linejoin:miter;stroke-opacity:1"/>
<path class="bond-4 atom-4 atom-5" d="M 328.4,152.4 L 357.8,218.4" style="fill:none;fill-rule:evenodd;stroke:#000000;stroke-width:2.0px;stroke-linecap:butt;stroke-linejoin:miter;stroke-opacity:1"/>
<path class="bond-5 atom-5 atom-6" d="M 357.8,218.4 L 428.5,233.4" style="fill:none;fill-rule:evenodd;stroke:#000000;stroke-width:2.0px;stroke-linecap:butt;stroke-linejoin:miter;stroke-opacity:1"/>
<path class="bond-5 atom-5 atom-6" d="M 363.3,230.6 L 418.6,242.4" style="fill:none;fill-rule:evenodd;stroke:#000000;stroke-width:2.0px;stroke-linecap:butt;stroke-linejoin:miter;stroke-opacity:1"/>
<path class="bond-6 atom-6 atom-7" d="M 428.5,233.4 L 436.1,305.2" style="fill:none;fill-rule:evenodd;stroke:#000000;stroke-width:2.0px;stroke-linecap:butt;stroke-linejoin:miter;stroke-opacity:1"/>
<path class="bond-7 atom-7 atom-8" d="M 436.1,305.2 L 370.1,334.6" style="fill:none;fill-rule:evenodd;stroke:#000000;stroke-width:2.0px;stroke-linecap:butt;stroke-linejoin:miter;stroke-opacity:1"/>
<path class="bond-7 atom-7 atom-8" d="M 424.5,298.5 L 372.9,321.5" style="fill:none;fill-rule:evenodd;stroke:#000000;stroke-width:2.0px;stroke-linecap:butt;stroke-linejoin:miter;stroke-opacity:1"/>
<path class="bond-8 atom-8 atom-9" d="M 370.1,334.6 L 321.7,281.0" style="fill:none;fill-rule:evenodd;stroke:#000000;stroke-width:2.0px;stroke-linecap:butt;stroke-linejoin:miter;stroke-opacity:1"/>
<path class="bond-8 atom-8 atom-9" d="M 372.9,321.5 L 335.1,279.6" style="fill:none;fill-rule:evenodd;stroke:#000000;stroke-width:2.0px;stroke-linecap:butt;stroke-linejoin:miter;stroke-opacity:1"/>
<path class="bond-9 atom-9 atom-10" d="M 321.7,281.0 L 253.6,288.2" style="fill:none;fill-rule:evenodd;stroke:#000000;stroke-width:2.0px;stroke-linecap:butt;stroke-linejoin:miter;stroke-opacity:1"/>
<path class="bond-10 atom-4 atom-11" d="M 325.0,151.7 L 324.9,152.4" style="fill:none;fill-rule:evenodd;stroke:#000000;stroke-width:1.0px;stroke-linecap:butt;stroke-linejoin:miter;stroke-opacity:1"/>
<path class="bond-10 atom-4 atom-11" d="M 321.5,151.0 L 321.4,152.4" style="fill:none;fill-rule:evenodd;stroke:#000000;stroke-width:1.0px;stroke-linecap:butt;stroke-linejoin:miter;stroke-opacity:1"/>
<path class="bond-10 atom-4 atom-11" d="M 318.1,150.3 L 317.9,152.3" style="fill:none;fill-rule:evenodd;stroke:#000000;stroke-width:1.0px;stroke-linecap:butt;stroke-linejoin:miter;stroke-opacity:1"/>
<path class="bond-10 atom-4 atom-11" d="M 314.6,149.6 L 314.3,152.3" style="fill:none;fill-rule:evenodd;stroke:#000000;stroke-width:1.0px;stroke-linecap:butt;stroke-linejoin:miter;stroke-opacity:1"/>
<path class="bond-10 atom-4 atom-11" d="M 311.2,148.9 L 310.8,152.3" style="fill:none;fill-rule:evenodd;stroke:#000000;stroke-width:1.0px;stroke-linecap:butt;stroke-linejoin:miter;stroke-opacity:1"/>
<path class="bond-10 atom-4 atom-11" d="M 307.7,148.2 L 307.3,152.3" style="fill:none;fill-rule:evenodd;stroke:#000000;stroke-width:1.0px;stroke-linecap:butt;stroke-linejoin:miter;stroke-opacity:1"/>
<path class="bond-10 atom-4 atom-11" d="M 304.3,147.5 L 303.8,152.2" style="fill:none;fill-rule:evenodd;stroke:#000000;stroke-width:1.0px;stroke-linecap:butt;stroke-linejoin:miter;stroke-opacity:1"/>
<path class="bond-10 atom-4 atom-11" d="M 300.8,146.8 L 300.2,152.2" style="fill:none;fill-rule:evenodd;stroke:#000000;stroke-width:1.0px;stroke-linecap:butt;stroke-linejoin:miter;stroke-opacity:1"/>
<path class="bond-10 atom-4 atom-11" d="M 297.4,146.1 L 296.7,152.2" style="fill:none;fill-rule:evenodd;stroke:#000000;stroke-width:1.0px;stroke-linecap:butt;stroke-linejoin:miter;stroke-opacity:1"/>
<path class="bond-10 atom-4 atom-11" d="M 293.9,145.4 L 293.2,152.2" style="fill:none;fill-rule:evenodd;stroke:#000000;stroke-width:1.0px;stroke-linecap:butt;stroke-linejoin:miter;stroke-opacity:1"/>
<path class="bond-10 atom-4 atom-11" d="M 290.4,144.7 L 289.7,152.1" style="fill:none;fill-rule:evenodd;stroke:#000000;stroke-width:1.0px;stroke-linecap:butt;stroke-linejoin:miter;stroke-opacity:1"/>
<path class="bond-10 atom-4 atom-11" d="M 287.0,144.0 L 286.2,152.1" style="fill:none;fill-rule:evenodd;stroke:#000000;stroke-width:1.0px;stroke-linecap:butt;stroke-linejoin:miter;stroke-opacity:1"/>
<path class="bond-10 atom-4 atom-11" d="M 283.5,143.3 L 282.6,152.1" style="fill:none;fill-rule:evenodd;stroke:#000000;stroke-width:1.0px;stroke-linecap:butt;stroke-linejoin:miter;stroke-opacity:1"/>
<path class="bond-10 atom-4 atom-11" d="M 280.1,142.6 L 279.1,152.0" style="fill:none;fill-rule:evenodd;stroke:#000000;stroke-width:1.0px;stroke-linecap:butt;stroke-linejoin:miter;stroke-opacity:1"/>
<path class="bond-10 atom-4 atom-11" d="M 276.6,141.9 L 275.6,152.0" style="fill:none;fill-rule:evenodd;stroke:#000000;stroke-width:1.0px;stroke-linecap:butt;stroke-linejoin:miter;stroke-opacity:1"/>
<path class="bond-10 atom-4 atom-11" d="M 273.2,141.2 L 272.1,152.0" style="fill:none;fill-rule:evenodd;stroke:#000000;stroke-width:1.0px;stroke-linecap:butt;stroke-linejoin:miter;stroke-opacity:1"/>
<path class="bond-11 atom-11 atom-12" d="M 251.0,132.3 L 227.2,78.9" style="fill:none;fill-rule:evenodd;stroke:#000000;stroke-width:2.0px;stroke-linecap:butt;stroke-linejoin:miter;stroke-opacity:1"/>
<path class="bond-12 atom-12 atom-13" d="M 227.2,78.9 L 155.3,71.4" style="fill:none;fill-rule:evenodd;stroke:#000000;stroke-width:2.0px;stroke-linecap:butt;stroke-linejoin:miter;stroke-opacity:1"/>
<path class="bond-13 atom-13 atom-14" d="M 155.3,71.4 L 112.9,129.9" style="fill:none;fill-rule:evenodd;stroke:#000000;stroke-width:2.0px;stroke-linecap:butt;stroke-linejoin:miter;stroke-opacity:1"/>
<path class="bond-14 atom-14 atom-15" d="M 112.9,129.9 L 142.3,195.9" style="fill:none;fill-rule:evenodd;stroke:#000000;stroke-width:2.0px;stroke-linecap:butt;stroke-linejoin:miter;stroke-opacity:1"/>
<path class="bond-14 atom-14 atom-15" d="M 106.2,141.5 L 129.2,193.1" style="fill:none;fill-rule:evenodd;stroke:#000000;stroke-width:2.0px;stroke-linecap:butt;stroke-linejoin:miter;stroke-opacity:1"/>
<path class="bond-15 atom-15 atom-16" d="M 142.3,195.9 L 214.1,203.4" style="fill:none;fill-rule:evenodd;stroke:#000000;stroke-width:2.0px;stroke-linecap:butt;stroke-linejoin:miter;stroke-opacity:1"/>
<path class="bond-16 atom-15 atom-17" d="M 142.3,195.9 L 97.6,236.2" style="fill:none;fill-rule:evenodd;stroke:#000000;stroke-width:2.0px;stroke-linecap:butt;stroke-linejoin:miter;stroke-opacity:1"/>
<path class="bond-17 atom-17 atom-18" d="M 79.7,239.1 L 26.1,208.1" style="fill:none;fill-rule:evenodd;stroke:#000000;stroke-width:2.0px;stroke-linecap:butt;stroke-linejoin:miter;stroke-opacity:1"/>
<path class="bond-18 atom-18 atom-19" d="M 26.1,208.1 L 41.1,137.5" style="fill:none;fill-rule:evenodd;stroke:#000000;stroke-width:2.0px;stroke-linecap:butt;stroke-linejoin:miter;stroke-opacity:1"/>
<path class="bond-18 atom-18 atom-19" d="M 38.3,202.7 L 50.0,147.4" style="fill:none;fill-rule:evenodd;stroke:#000000;stroke-width:2.0px;stroke-linecap:butt;stroke-linejoin:miter;stroke-opacity:1"/>
<path class="bond-19 atom-9 atom-5" d="M 321.7,281.0 L 357.8,218.4" style="fill:none;fill-rule:evenodd;stroke:#000000;stroke-width:2.0px;stroke-linecap:butt;stroke-linejoin:miter;stroke-opacity:1"/>
<path class="bond-20 atom-16 atom-11" d="M 214.1,203.4 L 247.4,157.5" style="fill:none;fill-rule:evenodd;stroke:#000000;stroke-width:2.0px;stroke-linecap:butt;stroke-linejoin:miter;stroke-opacity:1"/>
<path class="bond-21 atom-19 atom-14" d="M 41.1,137.5 L 112.9,129.9" style="fill:none;fill-rule:evenodd;stroke:#000000;stroke-width:2.0px;stroke-linecap:butt;stroke-linejoin:miter;stroke-opacity:1"/>
<path d="M 373.9,94.3 L 370.9,94.0 L 368.7,96.9" style="fill:none;stroke:#000000;stroke-width:2.0px;stroke-linecap:butt;stroke-linejoin:miter;stroke-miterlimit:10;stroke-opacity:1;"/>
<path d="M 330.5,149.5 L 328.4,152.4 L 329.9,155.7" style="fill:none;stroke:#000000;stroke-width:2.0px;stroke-linecap:butt;stroke-linejoin:miter;stroke-miterlimit:10;stroke-opacity:1;"/>
<path d="M 425.0,232.7 L 428.5,233.4 L 428.9,237.0" style="fill:none;stroke:#000000;stroke-width:2.0px;stroke-linecap:butt;stroke-linejoin:miter;stroke-miterlimit:10;stroke-opacity:1;"/>
<path d="M 435.7,301.6 L 436.1,305.2 L 432.8,306.7" style="fill:none;stroke:#000000;stroke-width:2.0px;stroke-linecap:butt;stroke-linejoin:miter;stroke-miterlimit:10;stroke-opacity:1;"/>
<path d="M 373.4,333.2 L 370.1,334.6 L 367.7,332.0" style="fill:none;stroke:#000000;stroke-width:2.0px;stroke-linecap:butt;stroke-linejoin:miter;stroke-miterlimit:10;stroke-opacity:1;"/>
<path d="M 228.4,81.6 L 227.2,78.9 L 223.6,78.6" style="fill:none;stroke:#000000;stroke-width:2.0px;stroke-linecap:butt;stroke-linejoin:miter;stroke-miterlimit:10;stroke-opacity:1;"/>
<path d="M 158.9,71.8 L 155.3,71.4 L 153.2,74.3" style="fill:none;stroke:#000000;stroke-width:2.0px;stroke-linecap:butt;stroke-linejoin:miter;stroke-miterlimit:10;stroke-opacity:1;"/>
<path d="M 210.6,203.0 L 214.1,203.4 L 215.8,201.1" style="fill:none;stroke:#000000;stroke-width:2.0px;stroke-linecap:butt;stroke-linejoin:miter;stroke-miterlimit:10;stroke-opacity:1;"/>
<path d="M 28.7,209.7 L 26.1,208.1 L 26.8,204.6" style="fill:none;stroke:#000000;stroke-width:2.0px;stroke-linecap:butt;stroke-linejoin:miter;stroke-miterlimit:10;stroke-opacity:1;"/>
<path d="M 40.3,141.0 L 41.1,137.5 L 44.6,137.1" style="fill:none;stroke:#000000;stroke-width:2.0px;stroke-linecap:butt;stroke-linejoin:miter;stroke-miterlimit:10;stroke-opacity:1;"/>
<path class="atom-1" d="M 433.3 101.5 Q 433.3 96.6, 435.7 93.9 Q 438.2 91.1, 442.7 91.1 Q 447.2 91.1, 449.7 93.9 Q 452.1 96.6, 452.1 101.5 Q 452.1 106.5, 449.6 109.4 Q 447.2 112.2, 442.7 112.2 Q 438.2 112.2, 435.7 109.4 Q 433.3 106.5, 433.3 101.5 M 442.7 109.8 Q 445.8 109.8, 447.5 107.8 Q 449.2 105.7, 449.2 101.5 Q 449.2 97.5, 447.5 95.5 Q 445.8 93.5, 442.7 93.5 Q 439.6 93.5, 437.9 95.5 Q 436.2 97.5, 436.2 101.5 Q 436.2 105.7, 437.9 107.8 Q 439.6 109.8, 442.7 109.8 " fill="#000000"/>
<path class="atom-3" d="M 332.1 28.1 Q 332.1 23.1, 334.5 20.4 Q 336.9 17.6, 341.4 17.6 Q 346.0 17.6, 348.4 20.4 Q 350.8 23.1, 350.8 28.1 Q 350.8 33.0, 348.4 35.9 Q 345.9 38.7, 341.4 38.7 Q 336.9 38.7, 334.5 35.9 Q 332.1 33.1, 332.1 28.1 M 341.4 36.3 Q 344.6 36.3, 346.2 34.3 Q 347.9 32.2, 347.9 28.1 Q 347.9 24.0, 346.2 22.0 Q 344.6 20.0, 341.4 20.0 Q 338.3 20.0, 336.6 22.0 Q 334.9 24.0, 334.9 28.1 Q 334.9 32.2, 336.6 34.3 Q 338.3 36.3, 341.4 36.3 " fill="#000000"/>
<path class="atom-10" d="M 230.7 289.3 Q 230.7 284.2, 233.1 281.5 Q 235.5 278.8, 240.0 278.8 Q 244.2 278.8, 246.5 281.8 L 244.6 283.4 Q 242.9 281.2, 240.0 281.2 Q 236.9 281.2, 235.3 283.3 Q 233.7 285.4, 233.7 289.3 Q 233.7 293.3, 235.3 295.4 Q 237.1 297.5, 240.3 297.5 Q 242.6 297.5, 245.2 296.1 L 246.0 298.3 Q 245.0 299.0, 243.4 299.4 Q 241.7 299.8, 239.9 299.8 Q 235.5 299.8, 233.1 297.1 Q 230.7 294.4, 230.7 289.3 " fill="#000000"/>
<path class="atom-10" d="M 248.6 277.6 L 251.2 277.6 L 251.2 299.5 L 248.6 299.5 L 248.6 277.6 " fill="#000000"/>
<path class="atom-11" d="M 252.1 134.7 L 258.8 145.5 Q 259.4 146.6, 260.5 148.5 Q 261.6 150.5, 261.6 150.6 L 261.6 134.7 L 264.3 134.7 L 264.3 155.1 L 261.5 155.1 L 254.3 143.3 Q 253.5 141.9, 252.6 140.3 Q 251.7 138.7, 251.5 138.2 L 251.5 155.1 L 248.8 155.1 L 248.8 134.7 L 252.1 134.7 " fill="#000000"/>
<path class="atom-17" d="M 82.9 251.2 Q 83.1 251.3, 84.0 251.7 Q 85.0 252.1, 86.0 252.4 Q 87.1 252.6, 88.1 252.6 Q 90.1 252.6, 91.2 251.7 Q 92.3 250.7, 92.3 249.1 Q 92.3 248.0, 91.8 247.3 Q 91.2 246.6, 90.3 246.2 Q 89.5 245.8, 88.0 245.4 Q 86.2 244.9, 85.1 244.3 Q 84.0 243.8, 83.3 242.7 Q 82.5 241.6, 82.5 239.8 Q 82.5 237.2, 84.2 235.6 Q 86.0 234.0, 89.5 234.0 Q 91.8 234.0, 94.5 235.1 L 93.9 237.4 Q 91.4 236.4, 89.6 236.4 Q 87.6 236.4, 86.5 237.2 Q 85.4 238.0, 85.4 239.4 Q 85.4 240.5, 86.0 241.2 Q 86.5 241.9, 87.3 242.2 Q 88.2 242.6, 89.6 243.0 Q 91.4 243.6, 92.5 244.2 Q 93.6 244.8, 94.4 246.0 Q 95.2 247.1, 95.2 249.1 Q 95.2 251.9, 93.3 253.5 Q 91.4 255.0, 88.3 255.0 Q 86.4 255.0, 85.1 254.6 Q 83.7 254.2, 82.1 253.5 L 82.9 251.2 " fill="#000000"/>
</svg>