<?xml version='1.0' encoding='utf-8'?>
<svg xmlns="http://www.w3.org/2000/svg" xmlns:rdkit="http://www.rdkit.org/xml" xmlns:xlink="http://www.w3.org/1999/xlink" version="1.1" baseProfile="full" xml:space="preserve" width="512px" height="220px" viewBox="0 0 512 220">

<rect style="opacity:1.0;fill:#FFFFFF;stroke:none" width="512.0" height="220.0" x="0.0" y="0.0"> </rect>
<path class="bond-0 atom-0 atom-1" d="M 26.1,109.4 L 74.1,137.3" style="fill:none;fill-rule:evenodd;stroke:#000000;stroke-width:2.0px;stroke-linecap:butt;stroke-linejoin:miter;stroke-opacity:1"/>
<path class="bond-1 atom-1 atom-2" d="M 83.4,154.3 L 83.2,209.0" style="fill:none;fill-rule:evenodd;stroke:#000000;stroke-width:2.0px;stroke-linecap:butt;stroke-linejoin:miter;stroke-opacity:1"/>
<path class="bond-2 atom-1 atom-3" d="M 92.7,137.4 L 140.9,109.8" style="fill:none;fill-rule:evenodd;stroke:#000000;stroke-width:2.0px;stroke-linecap:butt;stroke-linejoin:miter;stroke-opacity:1"/>
<path class="bond-3 atom-3 atom-4" d="M 145.9,112.7 L 146.1,55.5" style="fill:none;fill-rule:evenodd;stroke:#000000;stroke-width:2.0px;stroke-linecap:butt;stroke-linejoin:miter;stroke-opacity:1"/>
<path class="bond-3 atom-3 atom-4" d="M 135.9,112.6 L 136.2,55.5" style="fill:none;fill-rule:evenodd;stroke:#000000;stroke-width:2.0px;stroke-linecap:butt;stroke-linejoin:miter;stroke-opacity:1"/>
<path class="bond-4 atom-3 atom-5" d="M 140.9,109.8 L 187.4,136.8" style="fill:none;fill-rule:evenodd;stroke:#000000;stroke-width:2.0px;stroke-linecap:butt;stroke-linejoin:miter;stroke-opacity:1"/>
<path class="bond-5 atom-5 atom-6" d="M 209.0,137.0 L 255.7,110.2" style="fill:none;fill-rule:evenodd;stroke:#000000;stroke-width:2.0px;stroke-linecap:butt;stroke-linejoin:miter;stroke-opacity:1"/>
<path class="bond-6 atom-6 atom-7" d="M 255.7,110.2 L 256.0,43.9" style="fill:none;fill-rule:evenodd;stroke:#000000;stroke-width:2.0px;stroke-linecap:butt;stroke-linejoin:miter;stroke-opacity:1"/>
<path class="bond-7 atom-7 atom-8" d="M 256.0,43.9 L 313.5,11.0" style="fill:none;fill-rule:evenodd;stroke:#000000;stroke-width:2.0px;stroke-linecap:butt;stroke-linejoin:miter;stroke-opacity:1"/>
<path class="bond-7 atom-7 atom-8" d="M 265.9,49.7 L 313.4,22.5" style="fill:none;fill-rule:evenodd;stroke:#000000;stroke-width:2.0px;stroke-linecap:butt;stroke-linejoin:miter;stroke-opacity:1"/>
<path class="bond-8 atom-8 atom-9" d="M 313.5,11.0 L 370.7,44.3" style="fill:none;fill-rule:evenodd;stroke:#000000;stroke-width:2.0px;stroke-linecap:butt;stroke-linejoin:miter;stroke-opacity:1"/>
<path class="bond-9 atom-9 atom-10" d="M 370.7,44.3 L 370.5,110.6" style="fill:none;fill-rule:evenodd;stroke:#000000;stroke-width:2.0px;stroke-linecap:butt;stroke-linejoin:miter;stroke-opacity:1"/>
<path class="bond-9 atom-9 atom-10" d="M 360.8,50.0 L 360.6,104.8" style="fill:none;fill-rule:evenodd;stroke:#000000;stroke-width:2.0px;stroke-linecap:butt;stroke-linejoin:miter;stroke-opacity:1"/>
<path class="bond-10 atom-10 atom-11" d="M 370.5,110.6 L 313.0,143.5" style="fill:none;fill-rule:evenodd;stroke:#000000;stroke-width:2.0px;stroke-linecap:butt;stroke-linejoin:miter;stroke-opacity:1"/>
<path class="bond-11 atom-10 atom-12" d="M 370.5,110.6 L 418.5,138.5" style="fill:none;fill-rule:evenodd;stroke:#000000;stroke-width:2.0px;stroke-linecap:butt;stroke-linejoin:miter;stroke-opacity:1"/>
<path class="bond-12 atom-12 atom-13" d="M 421.1,155.5 L 394.4,201.2" style="fill:none;fill-rule:evenodd;stroke:#000000;stroke-width:2.0px;stroke-linecap:butt;stroke-linejoin:miter;stroke-opacity:1"/>
<path class="bond-13 atom-12 atom-14" d="M 434.5,132.4 L 461.1,86.7" style="fill:none;fill-rule:evenodd;stroke:#000000;stroke-width:2.0px;stroke-linecap:butt;stroke-linejoin:miter;stroke-opacity:1"/>
<path class="bond-14 atom-12 atom-15" d="M 437.1,149.4 L 485.1,177.3" style="fill:none;fill-rule:evenodd;stroke:#000000;stroke-width:2.0px;stroke-linecap:butt;stroke-linejoin:miter;stroke-opacity:1"/>
<path class="bond-15 atom-11 atom-6" d="M 313.0,143.5 L 255.7,110.2" style="fill:none;fill-rule:evenodd;stroke:#000000;stroke-width:2.0px;stroke-linecap:butt;stroke-linejoin:miter;stroke-opacity:1"/>
<path class="bond-15 atom-11 atom-6" d="M 313.0,132.1 L 265.7,104.5" style="fill:none;fill-rule:evenodd;stroke:#000000;stroke-width:2.0px;stroke-linecap:butt;stroke-linejoin:miter;stroke-opacity:1"/>
<path d="M 138.5,111.2 L 140.9,109.8 L 143.3,111.1" style="fill:none;stroke:#000000;stroke-width:2.0px;stroke-linecap:butt;stroke-linejoin:miter;stroke-miterlimit:10;stroke-opacity:1;"/>
<path d="M 255.9,47.2 L 256.0,43.9 L 258.8,42.3" style="fill:none;stroke:#000000;stroke-width:2.0px;stroke-linecap:butt;stroke-linejoin:miter;stroke-miterlimit:10;stroke-opacity:1;"/>
<path d="M 310.6,12.6 L 313.5,11.0 L 316.3,12.7" style="fill:none;stroke:#000000;stroke-width:2.0px;stroke-linecap:butt;stroke-linejoin:miter;stroke-miterlimit:10;stroke-opacity:1;"/>
<path d="M 367.9,42.7 L 370.7,44.3 L 370.7,47.7" style="fill:none;stroke:#000000;stroke-width:2.0px;stroke-linecap:butt;stroke-linejoin:miter;stroke-miterlimit:10;stroke-opacity:1;"/>
<path d="M 315.9,141.9 L 313.0,143.5 L 310.1,141.9" style="fill:none;stroke:#000000;stroke-width:2.0px;stroke-linecap:butt;stroke-linejoin:miter;stroke-miterlimit:10;stroke-opacity:1;"/>
<path class="atom-1" d="M 79.3 133.3 L 85.4 143.3 Q 86.0 144.3, 87.0 146.0 Q 88.0 147.8, 88.0 147.9 L 88.0 133.3 L 90.5 133.3 L 90.5 152.1 L 88.0 152.1 L 81.4 141.2 Q 80.6 140.0, 79.8 138.5 Q 79.0 137.1, 78.7 136.6 L 78.7 152.1 L 76.3 152.1 L 76.3 133.3 L 79.3 133.3 " fill="#000000"/>
<path class="atom-4" d="M 132.5 43.6 Q 132.5 39.1, 134.8 36.5 Q 137.0 34.0, 141.2 34.0 Q 145.3 34.0, 147.6 36.5 Q 149.8 39.1, 149.8 43.6 Q 149.8 48.1, 147.5 50.7 Q 145.3 53.3, 141.2 53.3 Q 137.0 53.3, 134.8 50.7 Q 132.5 48.2, 132.5 43.6 M 141.2 51.2 Q 144.0 51.2, 145.6 49.3 Q 147.1 47.3, 147.1 43.6 Q 147.1 39.9, 145.6 38.0 Q 144.0 36.1, 141.2 36.1 Q 138.3 36.1, 136.7 38.0 Q 135.2 39.9, 135.2 43.6 Q 135.2 47.4, 136.7 49.3 Q 138.3 51.2, 141.2 51.2 " fill="#000000"/>
<path class="atom-5" d="M 189.6 143.2 Q 189.6 138.7, 191.8 136.2 Q 194.0 133.6, 198.2 133.6 Q 202.4 133.6, 204.6 136.2 Q 206.8 138.7, 206.8 143.2 Q 206.8 147.8, 204.6 150.3 Q 202.3 152.9, 198.2 152.9 Q 194.1 152.9, 191.8 150.3 Q 189.6 147.8, 189.6 143.2 M 198.2 150.8 Q 201.1 150.8, 202.6 148.9 Q 204.2 147.0, 204.2 143.2 Q 204.2 139.5, 202.6 137.6 Q 201.1 135.8, 198.2 135.8 Q 195.3 135.8, 193.8 137.6 Q 192.2 139.5, 192.2 143.2 Q 192.2 147.0, 193.8 148.9 Q 195.3 150.8, 198.2 150.8 " fill="#000000"/>
<path class="atom-12" d="M 423.6 134.6 L 429.8 144.5 Q 430.4 145.5, 431.4 147.3 Q 432.4 149.1, 432.4 149.2 L 432.4 134.6 L 434.9 134.6 L 434.9 153.3 L 432.3 153.3 L 425.7 142.5 Q 425.0 141.2, 424.1 139.7 Q 423.3 138.3, 423.1 137.8 L 423.1 153.3 L 420.7 153.3 L 420.7 134.6 L 423.6 134.6 " fill="#000000"/>
<path class="atom-12" d="M 438.4 138.0 L 441.7 138.0 L 441.7 134.5 L 443.2 134.5 L 443.2 138.0 L 446.6 138.0 L 446.6 139.2 L 443.2 139.2 L 443.2 142.7 L 441.7 142.7 L 441.7 139.2 L 438.4 139.2 L 438.4 138.0 " fill="#000000"/>
</svg>