<?xml version='1.0' encoding='utf-8'?>
<svg xmlns="http://www.w3.org/2000/svg" xmlns:rdkit="http://www.rdkit.org/xml" xmlns:xlink="http://www.w3.org/1999/xlink" version="1.1" baseProfile="full" xml:space="preserve" width="512px" height="184px" viewBox="0 0 512 184">

<rect style="opacity:1.0;fill:#FFFFFF;stroke:none" width="512.0" height="184.0" x="0.0" y="0.0"> </rect>
<path class="bond-0 atom-0 atom-1" d="M 431.3,91.7 L 351.5,91.7" style="fill:none;fill-rule:evenodd;stroke:#000000;stroke-width:2.0px;stroke-linecap:butt;stroke-linejoin:miter;stroke-opacity:1"/>
<path class="bond-1 atom-1 atom-2" d="M 351.5,91.7 L 303.9,174.2" style="fill:none;fill-rule:evenodd;stroke:#000000;stroke-width:2.0px;stroke-linecap:butt;stroke-linejoin:miter;stroke-opacity:1"/>
<path class="bond-2 atom-2 atom-3" d="M 303.9,174.2 L 208.6,174.2" style="fill:none;fill-rule:evenodd;stroke:#000000;stroke-width:2.0px;stroke-linecap:butt;stroke-linejoin:miter;stroke-opacity:1"/>
<path class="bond-2 atom-2 atom-3" d="M 295.6,159.9 L 216.9,159.9" style="fill:none;fill-rule:evenodd;stroke:#000000;stroke-width:2.0px;stroke-linecap:butt;stroke-linejoin:miter;stroke-opacity:1"/>
<path class="bond-3 atom-3 atom-4" d="M 208.6,174.2 L 161.0,91.7" style="fill:none;fill-rule:evenodd;stroke:#000000;stroke-width:2.0px;stroke-linecap:butt;stroke-linejoin:miter;stroke-opacity:1"/>
<path class="bond-4 atom-4 atom-5" d="M 161.0,91.7 L 81.3,91.7" style="fill:none;fill-rule:evenodd;stroke:#000000;stroke-width:2.0px;stroke-linecap:butt;stroke-linejoin:miter;stroke-opacity:1"/>
<path class="bond-5 atom-4 atom-6" d="M 161.0,91.7 L 208.6,9.2" style="fill:none;fill-rule:evenodd;stroke:#000000;stroke-width:2.0px;stroke-linecap:butt;stroke-linejoin:miter;stroke-opacity:1"/>
<path class="bond-5 atom-4 atom-6" d="M 177.5,91.7 L 216.9,23.5" style="fill:none;fill-rule:evenodd;stroke:#000000;stroke-width:2.0px;stroke-linecap:butt;stroke-linejoin:miter;stroke-opacity:1"/>
<path class="bond-6 atom-6 atom-7" d="M 208.6,9.2 L 303.9,9.2" style="fill:none;fill-rule:evenodd;stroke:#000000;stroke-width:2.0px;stroke-linecap:butt;stroke-linejoin:miter;stroke-opacity:1"/>
<path class="bond-7 atom-7 atom-1" d="M 303.9,9.2 L 351.5,91.7" style="fill:none;fill-rule:evenodd;stroke:#000000;stroke-width:2.0px;stroke-linecap:butt;stroke-linejoin:miter;stroke-opacity:1"/>
<path class="bond-7 atom-7 atom-1" d="M 295.6,23.5 L 335.0,91.7" style="fill:none;fill-rule:evenodd;stroke:#000000;stroke-width:2.0px;stroke-linecap:butt;stroke-linejoin:miter;stroke-opacity:1"/>
<path d="M 306.3,170.1 L 303.9,174.2 L 299.1,174.2" style="fill:none;stroke:#000000;stroke-width:2.0px;stroke-linecap:butt;stroke-linejoin:miter;stroke-miterlimit:10;stroke-opacity:1;"/>
<path d="M 213.4,174.2 L 208.6,174.2 L 206.3,170.1" style="fill:none;stroke:#000000;stroke-width:2.0px;stroke-linecap:butt;stroke-linejoin:miter;stroke-miterlimit:10;stroke-opacity:1;"/>
<path d="M 206.3,13.3 L 208.6,9.2 L 213.4,9.2" style="fill:none;stroke:#000000;stroke-width:2.0px;stroke-linecap:butt;stroke-linejoin:miter;stroke-miterlimit:10;stroke-opacity:1;"/>
<path d="M 299.1,9.2 L 303.9,9.2 L 306.3,13.3" style="fill:none;stroke:#000000;stroke-width:2.0px;stroke-linecap:butt;stroke-linejoin:miter;stroke-miterlimit:10;stroke-opacity:1;"/>
<path class="atom-0" d="M 434.4 91.8 Q 434.4 85.3, 437.6 81.7 Q 440.8 78.1, 446.8 78.1 Q 452.8 78.1, 456.0 81.7 Q 459.2 85.3, 459.2 91.8 Q 459.2 98.3, 455.9 102.1 Q 452.7 105.8, 446.8 105.8 Q 440.8 105.8, 437.6 102.1 Q 434.4 98.4, 434.4 91.8 M 446.8 102.7 Q 450.9 102.7, 453.1 100.0 Q 455.4 97.2, 455.4 91.8 Q 455.4 86.5, 453.1 83.8 Q 450.9 81.1, 446.8 81.1 Q 442.7 81.1, 440.4 83.8 Q 438.2 86.4, 438.2 91.8 Q 438.2 97.2, 440.4 100.0 Q 442.7 102.7, 446.8 102.7 " fill="#000000"/>
<path class="atom-0" d="M 463.4 78.4 L 467.0 78.4 L 467.0 89.8 L 480.8 89.8 L 480.8 78.4 L 484.5 78.4 L 484.5 105.3 L 480.8 105.3 L 480.8 92.9 L 467.0 92.9 L 467.0 105.3 L 463.4 105.3 L 463.4 78.4 " fill="#000000"/>
<path class="atom-5" d="M 26.7 78.4 L 30.4 78.4 L 30.4 89.8 L 44.2 89.8 L 44.2 78.4 L 47.8 78.4 L 47.8 105.3 L 44.2 105.3 L 44.2 92.9 L 30.4 92.9 L 30.4 105.3 L 26.7 105.3 L 26.7 78.4 " fill="#000000"/>
<path class="atom-5" d="M 53.4 91.8 Q 53.4 85.3, 56.6 81.7 Q 59.8 78.1, 65.7 78.1 Q 71.7 78.1, 74.9 81.7 Q 78.1 85.3, 78.1 91.8 Q 78.1 98.3, 74.9 102.1 Q 71.6 105.8, 65.7 105.8 Q 59.8 105.8, 56.6 102.1 Q 53.4 98.4, 53.4 91.8 M 65.7 102.7 Q 69.9 102.7, 72.1 100.0 Q 74.3 97.2, 74.3 91.8 Q 74.3 86.5, 72.1 83.8 Q 69.9 81.1, 65.7 81.1 Q 61.6 81.1, 59.4 83.8 Q 57.2 86.4, 57.2 91.8 Q 57.2 97.2, 59.4 100.0 Q 61.6 102.7, 65.7 102.7 " fill="#000000"/>
</svg>