<?xml version='1.0' encoding='utf-8'?>
<svg xmlns="http://www.w3.org/2000/svg" xmlns:rdkit="http://www.rdkit.org/xml" xmlns:xlink="http://www.w3.org/1999/xlink" version="1.1" baseProfile="full" xml:space="preserve" width="512px" height="369px" viewBox="0 0 512 369">

<rect style="opacity:1.0;fill:#FFFFFF;stroke:none" width="512.0" height="369.0" x="0.0" y="0.0"> </rect>
<path class="bond-0 atom-0 atom-1" d="M 25.8,336.9 L 62.2,273.9" style="fill:none;fill-rule:evenodd;stroke:#000000;stroke-width:2.0px;stroke-linecap:butt;stroke-linejoin:miter;stroke-opacity:1"/>
<path class="bond-1 atom-1 atom-2" d="M 86.7,257.3 L 163.7,257.3" style="fill:none;fill-rule:evenodd;stroke:#000000;stroke-width:2.0px;stroke-linecap:butt;stroke-linejoin:miter;stroke-opacity:1"/>
<path class="bond-2 atom-2 atom-3" d="M 155.7,257.3 L 194.3,324.1" style="fill:none;fill-rule:evenodd;stroke:#000000;stroke-width:2.0px;stroke-linecap:butt;stroke-linejoin:miter;stroke-opacity:1"/>
<path class="bond-2 atom-2 atom-3" d="M 167.7,250.4 L 206.3,317.2" style="fill:none;fill-rule:evenodd;stroke:#000000;stroke-width:2.0px;stroke-linecap:butt;stroke-linejoin:miter;stroke-opacity:1"/>
<path class="bond-3 atom-2 atom-4" d="M 163.7,257.3 L 209.6,177.7" style="fill:none;fill-rule:evenodd;stroke:#000000;stroke-width:2.0px;stroke-linecap:butt;stroke-linejoin:miter;stroke-opacity:1"/>
<path class="bond-4 atom-4 atom-5" d="M 209.6,177.7 L 163.7,98.1" style="fill:none;fill-rule:evenodd;stroke:#000000;stroke-width:2.0px;stroke-linecap:butt;stroke-linejoin:miter;stroke-opacity:1"/>
<path class="bond-4 atom-4 atom-5" d="M 217.6,163.9 L 179.6,98.1" style="fill:none;fill-rule:evenodd;stroke:#000000;stroke-width:2.0px;stroke-linecap:butt;stroke-linejoin:miter;stroke-opacity:1"/>
<path class="bond-5 atom-5 atom-6" d="M 163.7,98.1 L 209.6,18.5" style="fill:none;fill-rule:evenodd;stroke:#000000;stroke-width:2.0px;stroke-linecap:butt;stroke-linejoin:miter;stroke-opacity:1"/>
<path class="bond-6 atom-6 atom-7" d="M 209.6,18.5 L 301.6,18.4" style="fill:none;fill-rule:evenodd;stroke:#000000;stroke-width:2.0px;stroke-linecap:butt;stroke-linejoin:miter;stroke-opacity:1"/>
<path class="bond-6 atom-6 atom-7" d="M 217.6,32.2 L 293.6,32.2" style="fill:none;fill-rule:evenodd;stroke:#000000;stroke-width:2.0px;stroke-linecap:butt;stroke-linejoin:miter;stroke-opacity:1"/>
<path class="bond-7 atom-7 atom-8" d="M 301.6,18.4 L 347.5,98.1" style="fill:none;fill-rule:evenodd;stroke:#000000;stroke-width:2.0px;stroke-linecap:butt;stroke-linejoin:miter;stroke-opacity:1"/>
<path class="bond-8 atom-8 atom-9" d="M 347.5,98.1 L 301.6,177.7" style="fill:none;fill-rule:evenodd;stroke:#000000;stroke-width:2.0px;stroke-linecap:butt;stroke-linejoin:miter;stroke-opacity:1"/>
<path class="bond-8 atom-8 atom-9" d="M 331.6,98.1 L 293.6,163.9" style="fill:none;fill-rule:evenodd;stroke:#000000;stroke-width:2.0px;stroke-linecap:butt;stroke-linejoin:miter;stroke-opacity:1"/>
<path class="bond-9 atom-9 atom-10" d="M 301.6,177.7 L 347.5,257.3" style="fill:none;fill-rule:evenodd;stroke:#000000;stroke-width:2.0px;stroke-linecap:butt;stroke-linejoin:miter;stroke-opacity:1"/>
<path class="bond-10 atom-10 atom-11" d="M 343.5,250.4 L 304.9,317.2" style="fill:none;fill-rule:evenodd;stroke:#000000;stroke-width:2.0px;stroke-linecap:butt;stroke-linejoin:miter;stroke-opacity:1"/>
<path class="bond-10 atom-10 atom-11" d="M 355.5,257.3 L 316.9,324.1" style="fill:none;fill-rule:evenodd;stroke:#000000;stroke-width:2.0px;stroke-linecap:butt;stroke-linejoin:miter;stroke-opacity:1"/>
<path class="bond-11 atom-10 atom-12" d="M 347.5,257.3 L 424.5,257.3" style="fill:none;fill-rule:evenodd;stroke:#000000;stroke-width:2.0px;stroke-linecap:butt;stroke-linejoin:miter;stroke-opacity:1"/>
<path class="bond-12 atom-12 atom-13" d="M 449.0,273.9 L 485.4,336.9" style="fill:none;fill-rule:evenodd;stroke:#000000;stroke-width:2.0px;stroke-linecap:butt;stroke-linejoin:miter;stroke-opacity:1"/>
<path class="bond-13 atom-9 atom-4" d="M 301.6,177.7 L 209.6,177.7" style="fill:none;fill-rule:evenodd;stroke:#000000;stroke-width:2.0px;stroke-linecap:butt;stroke-linejoin:miter;stroke-opacity:1"/>
<path d="M 159.8,257.3 L 163.7,257.3 L 166.0,253.3" style="fill:none;stroke:#000000;stroke-width:2.0px;stroke-linecap:butt;stroke-linejoin:miter;stroke-miterlimit:10;stroke-opacity:1;"/>
<path d="M 166.0,102.0 L 163.7,98.1 L 166.0,94.1" style="fill:none;stroke:#000000;stroke-width:2.0px;stroke-linecap:butt;stroke-linejoin:miter;stroke-miterlimit:10;stroke-opacity:1;"/>
<path d="M 207.3,22.4 L 209.6,18.5 L 214.2,18.5" style="fill:none;stroke:#000000;stroke-width:2.0px;stroke-linecap:butt;stroke-linejoin:miter;stroke-miterlimit:10;stroke-opacity:1;"/>
<path d="M 297.0,18.4 L 301.6,18.4 L 303.9,22.4" style="fill:none;stroke:#000000;stroke-width:2.0px;stroke-linecap:butt;stroke-linejoin:miter;stroke-miterlimit:10;stroke-opacity:1;"/>
<path d="M 345.2,94.1 L 347.5,98.1 L 345.2,102.0" style="fill:none;stroke:#000000;stroke-width:2.0px;stroke-linecap:butt;stroke-linejoin:miter;stroke-miterlimit:10;stroke-opacity:1;"/>
<path d="M 345.2,253.3 L 347.5,257.3 L 351.4,257.3" style="fill:none;stroke:#000000;stroke-width:2.0px;stroke-linecap:butt;stroke-linejoin:miter;stroke-miterlimit:10;stroke-opacity:1;"/>
<path class="atom-1" d="M 59.8 257.3 Q 59.8 251.1, 62.9 247.6 Q 66.0 244.1, 71.8 244.1 Q 77.5 244.1, 80.6 247.6 Q 83.7 251.1, 83.7 257.3 Q 83.7 263.7, 80.6 267.3 Q 77.5 270.8, 71.8 270.8 Q 66.0 270.8, 62.9 267.3 Q 59.8 263.7, 59.8 257.3 M 71.8 267.9 Q 75.7 267.9, 77.9 265.3 Q 80.0 262.6, 80.0 257.3 Q 80.0 252.2, 77.9 249.7 Q 75.7 247.1, 71.8 247.1 Q 67.8 247.1, 65.6 249.6 Q 63.5 252.2, 63.5 257.3 Q 63.5 262.6, 65.6 265.3 Q 67.8 267.9, 71.8 267.9 " fill="#000000"/>
<path class="atom-3" d="M 197.7 337.0 Q 197.7 330.7, 200.8 327.2 Q 203.9 323.7, 209.6 323.7 Q 215.4 323.7, 218.5 327.2 Q 221.6 330.7, 221.6 337.0 Q 221.6 343.3, 218.5 346.9 Q 215.3 350.5, 209.6 350.5 Q 203.9 350.5, 200.8 346.9 Q 197.7 343.3, 197.7 337.0 M 209.6 347.5 Q 213.6 347.5, 215.7 344.9 Q 217.9 342.2, 217.9 337.0 Q 217.9 331.8, 215.7 329.3 Q 213.6 326.7, 209.6 326.7 Q 205.7 326.7, 203.5 329.2 Q 201.4 331.8, 201.4 337.0 Q 201.4 342.2, 203.5 344.9 Q 205.7 347.5, 209.6 347.5 " fill="#000000"/>
<path class="atom-11" d="M 289.6 337.0 Q 289.6 330.7, 292.7 327.2 Q 295.8 323.7, 301.6 323.7 Q 307.3 323.7, 310.4 327.2 Q 313.5 330.7, 313.5 337.0 Q 313.5 343.3, 310.4 346.9 Q 307.3 350.4, 301.6 350.4 Q 295.8 350.4, 292.7 346.9 Q 289.6 343.3, 289.6 337.0 M 301.6 347.5 Q 305.5 347.5, 307.7 344.9 Q 309.8 342.2, 309.8 337.0 Q 309.8 331.8, 307.7 329.3 Q 305.5 326.7, 301.6 326.7 Q 297.6 326.7, 295.4 329.2 Q 293.3 331.8, 293.3 337.0 Q 293.3 342.2, 295.4 344.9 Q 297.6 347.5, 301.6 347.5 " fill="#000000"/>
<path class="atom-12" d="M 427.5 257.3 Q 427.5 251.1, 430.6 247.6 Q 433.7 244.1, 439.4 244.1 Q 445.2 244.1, 448.3 247.6 Q 451.4 251.1, 451.4 257.3 Q 451.4 263.7, 448.3 267.3 Q 445.1 270.8, 439.4 270.8 Q 433.7 270.8, 430.6 267.3 Q 427.5 263.7, 427.5 257.3 M 439.4 267.9 Q 443.4 267.9, 445.6 265.3 Q 447.7 262.6, 447.7 257.3 Q 447.7 252.2, 445.6 249.7 Q 443.4 247.1, 439.4 247.1 Q 435.5 247.1, 433.3 249.6 Q 431.2 252.2, 431.2 257.3 Q 431.2 262.6, 433.3 265.3 Q 435.5 267.9, 439.4 267.9 " fill="#000000"/>
</svg>