<?xml version='1.0' encoding='utf-8'?>
<svg xmlns="http://www.w3.org/2000/svg" xmlns:rdkit="http://www.rdkit.org/xml" xmlns:xlink="http://www.w3.org/1999/xlink" version="1.1" baseProfile="full" xml:space="preserve" width="512px" height="173px" viewBox="0 0 512 173">

<rect style="opacity:1.0;fill:#FFFFFF;stroke:none" width="512.0" height="173.0" x="0.0" y="0.0"> </rect>
<path class="bond-0 atom-0 atom-1" d="M 198.5,90.3 L 204.0,122.4" style="fill:none;fill-rule:evenodd;stroke:#000000;stroke-width:2.0px;stroke-linecap:butt;stroke-linejoin:miter;stroke-opacity:1"/>
<path class="bond-0 atom-0 atom-1" d="M 192.9,91.3 L 198.4,123.4" style="fill:none;fill-rule:evenodd;stroke:#000000;stroke-width:2.0px;stroke-linecap:butt;stroke-linejoin:miter;stroke-opacity:1"/>
<path class="bond-1 atom-1 atom-2" d="M 200.9,121.3 L 236.5,134.5" style="fill:none;fill-rule:evenodd;stroke:#000000;stroke-width:2.0px;stroke-linecap:butt;stroke-linejoin:miter;stroke-opacity:1"/>
<path class="bond-2 atom-2 atom-3" d="M 236.5,134.5 L 260.7,163.7" style="fill:none;fill-rule:evenodd;stroke:#000000;stroke-width:2.0px;stroke-linecap:butt;stroke-linejoin:miter;stroke-opacity:1"/>
<path class="bond-3 atom-3 atom-4" d="M 260.7,163.7 L 273.8,128.1" style="fill:none;fill-rule:evenodd;stroke:#000000;stroke-width:2.0px;stroke-linecap:butt;stroke-linejoin:miter;stroke-opacity:1"/>
<path class="bond-4 atom-4 atom-5" d="M 273.8,128.1 L 311.1,134.9" style="fill:none;fill-rule:evenodd;stroke:#000000;stroke-width:2.0px;stroke-linecap:butt;stroke-linejoin:miter;stroke-opacity:1"/>
<path class="bond-5 atom-5 atom-6" d="M 311.1,134.9 L 329.8,112.9" style="fill:none;fill-rule:evenodd;stroke:#000000;stroke-width:2.0px;stroke-linecap:butt;stroke-linejoin:miter;stroke-opacity:1"/>
<path class="bond-6 atom-6 atom-7" d="M 341.8,107.1 L 372.9,112.8" style="fill:none;fill-rule:evenodd;stroke:#000000;stroke-width:2.0px;stroke-linecap:butt;stroke-linejoin:miter;stroke-opacity:1"/>
<path class="bond-7 atom-7 atom-8" d="M 372.9,112.8 L 385.7,148.5" style="fill:none;fill-rule:evenodd;stroke:#000000;stroke-width:2.0px;stroke-linecap:butt;stroke-linejoin:miter;stroke-opacity:1"/>
<path class="bond-8 atom-8 atom-9" d="M 385.7,148.5 L 417.7,154.3" style="fill:none;fill-rule:evenodd;stroke:#000000;stroke-width:2.0px;stroke-linecap:butt;stroke-linejoin:miter;stroke-opacity:1"/>
<path class="bond-8 atom-8 atom-9" d="M 389.9,143.5 L 418.7,148.8" style="fill:none;fill-rule:evenodd;stroke:#000000;stroke-width:2.0px;stroke-linecap:butt;stroke-linejoin:miter;stroke-opacity:1"/>
<path class="bond-9 atom-9 atom-10" d="M 428.3,149.0 L 447.5,126.4" style="fill:none;fill-rule:evenodd;stroke:#000000;stroke-width:2.0px;stroke-linecap:butt;stroke-linejoin:miter;stroke-opacity:1"/>
<path class="bond-10 atom-10 atom-11" d="M 447.5,126.4 L 437.1,97.3" style="fill:none;fill-rule:evenodd;stroke:#000000;stroke-width:2.0px;stroke-linecap:butt;stroke-linejoin:miter;stroke-opacity:1"/>
<path class="bond-10 atom-10 atom-11" d="M 441.1,125.2 L 431.8,99.3" style="fill:none;fill-rule:evenodd;stroke:#000000;stroke-width:2.0px;stroke-linecap:butt;stroke-linejoin:miter;stroke-opacity:1"/>
<path class="bond-11 atom-11 atom-12" d="M 429.4,89.8 L 397.5,83.9" style="fill:none;fill-rule:evenodd;stroke:#000000;stroke-width:2.0px;stroke-linecap:butt;stroke-linejoin:miter;stroke-opacity:1"/>
<path class="bond-12 atom-12 atom-13" d="M 397.5,83.9 L 384.7,48.2" style="fill:none;fill-rule:evenodd;stroke:#000000;stroke-width:2.0px;stroke-linecap:butt;stroke-linejoin:miter;stroke-opacity:1"/>
<path class="bond-13 atom-10 atom-14" d="M 447.5,126.4 L 484.8,133.2" style="fill:none;fill-rule:evenodd;stroke:#000000;stroke-width:2.0px;stroke-linecap:butt;stroke-linejoin:miter;stroke-opacity:1"/>
<path class="bond-14 atom-4 atom-15" d="M 273.8,128.1 L 274.1,90.2" style="fill:none;fill-rule:evenodd;stroke:#000000;stroke-width:2.0px;stroke-linecap:butt;stroke-linejoin:miter;stroke-opacity:1"/>
<path class="bond-15 atom-15 atom-16" d="M 274.1,90.2 L 307.0,71.4" style="fill:none;fill-rule:evenodd;stroke:#000000;stroke-width:2.0px;stroke-linecap:butt;stroke-linejoin:miter;stroke-opacity:1"/>
<path class="bond-15 atom-15 atom-16" d="M 274.1,83.6 L 301.3,68.1" style="fill:none;fill-rule:evenodd;stroke:#000000;stroke-width:2.0px;stroke-linecap:butt;stroke-linejoin:miter;stroke-opacity:1"/>
<path class="bond-16 atom-16 atom-17" d="M 307.0,71.4 L 307.2,33.5" style="fill:none;fill-rule:evenodd;stroke:#000000;stroke-width:2.0px;stroke-linecap:butt;stroke-linejoin:miter;stroke-opacity:1"/>
<path class="bond-17 atom-17 atom-18" d="M 307.2,33.5 L 274.5,14.4" style="fill:none;fill-rule:evenodd;stroke:#000000;stroke-width:2.0px;stroke-linecap:butt;stroke-linejoin:miter;stroke-opacity:1"/>
<path class="bond-17 atom-17 atom-18" d="M 301.5,36.8 L 274.5,21.0" style="fill:none;fill-rule:evenodd;stroke:#000000;stroke-width:2.0px;stroke-linecap:butt;stroke-linejoin:miter;stroke-opacity:1"/>
<path class="bond-18 atom-18 atom-19" d="M 274.5,14.4 L 241.6,33.2" style="fill:none;fill-rule:evenodd;stroke:#000000;stroke-width:2.0px;stroke-linecap:butt;stroke-linejoin:miter;stroke-opacity:1"/>
<path class="bond-19 atom-19 atom-20" d="M 241.6,33.2 L 241.3,71.1" style="fill:none;fill-rule:evenodd;stroke:#000000;stroke-width:2.0px;stroke-linecap:butt;stroke-linejoin:miter;stroke-opacity:1"/>
<path class="bond-19 atom-19 atom-20" d="M 247.2,36.5 L 247.0,67.8" style="fill:none;fill-rule:evenodd;stroke:#000000;stroke-width:2.0px;stroke-linecap:butt;stroke-linejoin:miter;stroke-opacity:1"/>
<path class="bond-20 atom-19 atom-21" d="M 241.6,33.2 L 213.3,16.6" style="fill:none;fill-rule:evenodd;stroke:#000000;stroke-width:2.0px;stroke-linecap:butt;stroke-linejoin:miter;stroke-opacity:1"/>
<path class="bond-21 atom-1 atom-22" d="M 200.9,121.3 L 177.1,141.1" style="fill:none;fill-rule:evenodd;stroke:#000000;stroke-width:2.0px;stroke-linecap:butt;stroke-linejoin:miter;stroke-opacity:1"/>
<path class="bond-22 atom-22 atom-23" d="M 166.4,143.5 L 136.2,132.3" style="fill:none;fill-rule:evenodd;stroke:#000000;stroke-width:2.0px;stroke-linecap:butt;stroke-linejoin:miter;stroke-opacity:1"/>
<path class="bond-23 atom-23 atom-24" d="M 136.2,132.3 L 129.8,95.0" style="fill:none;fill-rule:evenodd;stroke:#000000;stroke-width:2.0px;stroke-linecap:butt;stroke-linejoin:miter;stroke-opacity:1"/>
<path class="bond-24 atom-24 atom-25" d="M 129.8,95.0 L 94.3,81.8" style="fill:none;fill-rule:evenodd;stroke:#000000;stroke-width:2.0px;stroke-linecap:butt;stroke-linejoin:miter;stroke-opacity:1"/>
<path class="bond-24 atom-24 atom-25" d="M 124.8,99.1 L 95.4,88.3" style="fill:none;fill-rule:evenodd;stroke:#000000;stroke-width:2.0px;stroke-linecap:butt;stroke-linejoin:miter;stroke-opacity:1"/>
<path class="bond-25 atom-25 atom-26" d="M 94.3,81.8 L 65.1,106.0" style="fill:none;fill-rule:evenodd;stroke:#000000;stroke-width:2.0px;stroke-linecap:butt;stroke-linejoin:miter;stroke-opacity:1"/>
<path class="bond-26 atom-26 atom-27" d="M 65.1,106.0 L 71.5,143.3" style="fill:none;fill-rule:evenodd;stroke:#000000;stroke-width:2.0px;stroke-linecap:butt;stroke-linejoin:miter;stroke-opacity:1"/>
<path class="bond-26 atom-26 atom-27" d="M 71.3,108.3 L 76.5,139.1" style="fill:none;fill-rule:evenodd;stroke:#000000;stroke-width:2.0px;stroke-linecap:butt;stroke-linejoin:miter;stroke-opacity:1"/>
<path class="bond-27 atom-27 atom-28" d="M 71.5,143.3 L 101.7,154.5" style="fill:none;fill-rule:evenodd;stroke:#000000;stroke-width:2.0px;stroke-linecap:butt;stroke-linejoin:miter;stroke-opacity:1"/>
<path class="bond-28 atom-26 atom-29" d="M 65.1,106.0 L 34.0,94.4" style="fill:none;fill-rule:evenodd;stroke:#000000;stroke-width:2.0px;stroke-linecap:butt;stroke-linejoin:miter;stroke-opacity:1"/>
<path class="bond-29 atom-4 atom-2" d="M 273.8,128.1 L 236.5,134.5" style="fill:none;fill-rule:evenodd;stroke:#000000;stroke-width:2.0px;stroke-linecap:butt;stroke-linejoin:miter;stroke-opacity:1"/>
<path class="bond-30 atom-12 atom-7" d="M 397.5,83.9 L 372.9,112.8" style="fill:none;fill-rule:evenodd;stroke:#000000;stroke-width:2.0px;stroke-linecap:butt;stroke-linejoin:miter;stroke-opacity:1"/>
<path class="bond-30 atom-12 atom-7" d="M 399.7,90.1 L 379.4,114.0" style="fill:none;fill-rule:evenodd;stroke:#000000;stroke-width:2.0px;stroke-linecap:butt;stroke-linejoin:miter;stroke-opacity:1"/>
<path class="bond-31 atom-20 atom-15" d="M 241.3,71.1 L 274.1,90.2" style="fill:none;fill-rule:evenodd;stroke:#000000;stroke-width:2.0px;stroke-linecap:butt;stroke-linejoin:miter;stroke-opacity:1"/>
<path class="bond-32 atom-28 atom-23" d="M 112.4,152.1 L 136.2,132.3" style="fill:none;fill-rule:evenodd;stroke:#000000;stroke-width:2.0px;stroke-linecap:butt;stroke-linejoin:miter;stroke-opacity:1"/>
<path class="bond-32 atom-28 atom-23" d="M 108.7,147.7 L 130.1,130.0" style="fill:none;fill-rule:evenodd;stroke:#000000;stroke-width:2.0px;stroke-linecap:butt;stroke-linejoin:miter;stroke-opacity:1"/>
<path d="M 202.7,122.0 L 200.9,121.3 L 199.7,122.3" style="fill:none;stroke:#000000;stroke-width:2.0px;stroke-linecap:butt;stroke-linejoin:miter;stroke-miterlimit:10;stroke-opacity:1;"/>
<path d="M 259.4,162.2 L 260.7,163.7 L 261.3,161.9" style="fill:none;stroke:#000000;stroke-width:2.0px;stroke-linecap:butt;stroke-linejoin:miter;stroke-miterlimit:10;stroke-opacity:1;"/>
<path d="M 309.3,134.6 L 311.1,134.9 L 312.1,133.8" style="fill:none;stroke:#000000;stroke-width:2.0px;stroke-linecap:butt;stroke-linejoin:miter;stroke-miterlimit:10;stroke-opacity:1;"/>
<path d="M 385.1,146.7 L 385.7,148.5 L 387.3,148.8" style="fill:none;stroke:#000000;stroke-width:2.0px;stroke-linecap:butt;stroke-linejoin:miter;stroke-miterlimit:10;stroke-opacity:1;"/>
<path d="M 305.3,72.4 L 307.0,71.4 L 307.0,69.6" style="fill:none;stroke:#000000;stroke-width:2.0px;stroke-linecap:butt;stroke-linejoin:miter;stroke-miterlimit:10;stroke-opacity:1;"/>
<path d="M 307.2,35.4 L 307.2,33.5 L 305.6,32.6" style="fill:none;stroke:#000000;stroke-width:2.0px;stroke-linecap:butt;stroke-linejoin:miter;stroke-miterlimit:10;stroke-opacity:1;"/>
<path d="M 276.1,15.4 L 274.5,14.4 L 272.9,15.3" style="fill:none;stroke:#000000;stroke-width:2.0px;stroke-linecap:butt;stroke-linejoin:miter;stroke-miterlimit:10;stroke-opacity:1;"/>
<path d="M 241.4,69.2 L 241.3,71.1 L 243.0,72.0" style="fill:none;stroke:#000000;stroke-width:2.0px;stroke-linecap:butt;stroke-linejoin:miter;stroke-miterlimit:10;stroke-opacity:1;"/>
<path d="M 130.2,96.8 L 129.8,95.0 L 128.1,94.3" style="fill:none;stroke:#000000;stroke-width:2.0px;stroke-linecap:butt;stroke-linejoin:miter;stroke-miterlimit:10;stroke-opacity:1;"/>
<path d="M 96.1,82.4 L 94.3,81.8 L 92.8,83.0" style="fill:none;stroke:#000000;stroke-width:2.0px;stroke-linecap:butt;stroke-linejoin:miter;stroke-miterlimit:10;stroke-opacity:1;"/>
<path d="M 71.2,141.5 L 71.5,143.3 L 73.0,143.9" style="fill:none;stroke:#000000;stroke-width:2.0px;stroke-linecap:butt;stroke-linejoin:miter;stroke-miterlimit:10;stroke-opacity:1;"/>
<path class="atom-0" d="M 189.6 84.0 Q 189.6 81.4, 190.9 79.9 Q 192.2 78.5, 194.6 78.5 Q 196.9 78.5, 198.2 79.9 Q 199.5 81.4, 199.5 84.0 Q 199.5 86.6, 198.2 88.1 Q 196.9 89.5, 194.6 89.5 Q 192.2 89.5, 190.9 88.1 Q 189.6 86.6, 189.6 84.0 M 194.6 88.3 Q 196.2 88.3, 197.1 87.2 Q 198.0 86.1, 198.0 84.0 Q 198.0 81.9, 197.1 80.8 Q 196.2 79.7, 194.6 79.7 Q 192.9 79.7, 192.0 80.8 Q 191.2 81.8, 191.2 84.0 Q 191.2 86.1, 192.0 87.2 Q 192.9 88.3, 194.6 88.3 " fill="#000000"/>
<path class="atom-6" d="M 330.7 106.1 Q 330.7 103.5, 332.0 102.0 Q 333.3 100.6, 335.7 100.6 Q 338.0 100.6, 339.3 102.0 Q 340.6 103.5, 340.6 106.1 Q 340.6 108.7, 339.3 110.1 Q 338.0 111.6, 335.7 111.6 Q 333.3 111.6, 332.0 110.1 Q 330.7 108.7, 330.7 106.1 M 335.7 110.4 Q 337.3 110.4, 338.2 109.3 Q 339.1 108.2, 339.1 106.1 Q 339.1 103.9, 338.2 102.9 Q 337.3 101.8, 335.7 101.8 Q 334.0 101.8, 333.1 102.9 Q 332.2 103.9, 332.2 106.1 Q 332.2 108.2, 333.1 109.3 Q 334.0 110.4, 335.7 110.4 " fill="#000000"/>
<path class="atom-9" d="M 420.6 149.9 L 424.1 155.6 Q 424.5 156.2, 425.0 157.2 Q 425.6 158.2, 425.6 158.3 L 425.6 149.9 L 427.1 149.9 L 427.1 160.7 L 425.6 160.7 L 421.8 154.5 Q 421.4 153.7, 420.9 152.9 Q 420.4 152.1, 420.3 151.8 L 420.3 160.7 L 418.9 160.7 L 418.9 149.9 L 420.6 149.9 " fill="#000000"/>
<path class="atom-11" d="M 432.4 85.4 L 435.9 91.0 Q 436.3 91.6, 436.8 92.6 Q 437.4 93.6, 437.4 93.7 L 437.4 85.4 L 438.8 85.4 L 438.8 96.1 L 437.4 96.1 L 433.6 89.9 Q 433.1 89.2, 432.7 88.3 Q 432.2 87.5, 432.1 87.2 L 432.1 96.1 L 430.7 96.1 L 430.7 85.4 L 432.4 85.4 " fill="#000000"/>
<path class="atom-21" d="M 205.7 8.7 L 212.0 8.7 L 212.0 9.9 L 207.1 9.9 L 207.1 13.1 L 211.5 13.1 L 211.5 14.4 L 207.1 14.4 L 207.1 19.4 L 205.7 19.4 L 205.7 8.7 " fill="#000000"/>
<path class="atom-22" d="M 169.4 140.1 L 172.9 145.8 Q 173.2 146.4, 173.8 147.4 Q 174.4 148.4, 174.4 148.5 L 174.4 140.1 L 175.8 140.1 L 175.8 150.9 L 174.3 150.9 L 170.6 144.6 Q 170.1 143.9, 169.7 143.1 Q 169.2 142.2, 169.1 142.0 L 169.1 150.9 L 167.7 150.9 L 167.7 140.1 L 169.4 140.1 " fill="#000000"/>
<path class="atom-22" d="M 167.5 151.9 L 169.0 151.9 L 169.0 156.5 L 174.5 156.5 L 174.5 151.9 L 175.9 151.9 L 175.9 162.7 L 174.5 162.7 L 174.5 157.7 L 169.0 157.7 L 169.0 162.7 L 167.5 162.7 L 167.5 151.9 " fill="#000000"/>
<path class="atom-28" d="M 104.7 151.1 L 108.2 156.8 Q 108.5 157.4, 109.1 158.4 Q 109.6 159.4, 109.7 159.5 L 109.7 151.1 L 111.1 151.1 L 111.1 161.9 L 109.6 161.9 L 105.9 155.7 Q 105.4 154.9, 104.9 154.1 Q 104.5 153.3, 104.4 153.0 L 104.4 161.9 L 103.0 161.9 L 103.0 151.1 L 104.7 151.1 " fill="#000000"/>
<path class="atom-29" d="M 26.4 87.4 L 32.8 87.4 L 32.8 88.7 L 27.8 88.7 L 27.8 91.9 L 32.2 91.9 L 32.2 93.2 L 27.8 93.2 L 27.8 98.2 L 26.4 98.2 L 26.4 87.4 " fill="#000000"/>
</svg>