<?xml version='1.0' encoding='utf-8'?>
<svg xmlns="http://www.w3.org/2000/svg" xmlns:rdkit="http://www.rdkit.org/xml" xmlns:xlink="http://www.w3.org/1999/xlink" version="1.1" baseProfile="full" xml:space="preserve" width="512px" height="221px" viewBox="0 0 512 221">

<rect style="opacity:1.0;fill:#FFFFFF;stroke:none" width="512.0" height="221.0" x="0.0" y="0.0"> </rect>
<path class="bond-0 atom-0 atom-1" d="M 27.0,116.9 L 84.7,148.9" style="fill:none;fill-rule:evenodd;stroke:#000000;stroke-width:2.0px;stroke-linecap:butt;stroke-linejoin:miter;stroke-opacity:1"/>
<path class="bond-1 atom-1 atom-2" d="M 84.7,148.9 L 132.0,120.5" style="fill:none;fill-rule:evenodd;stroke:#000000;stroke-width:2.0px;stroke-linecap:butt;stroke-linejoin:miter;stroke-opacity:1"/>
<path class="bond-2 atom-2 atom-3" d="M 141.1,103.4 L 140.2,48.9" style="fill:none;fill-rule:evenodd;stroke:#000000;stroke-width:2.0px;stroke-linecap:butt;stroke-linejoin:miter;stroke-opacity:1"/>
<path class="bond-3 atom-3 atom-4" d="M 140.2,48.9 L 82.4,16.9" style="fill:none;fill-rule:evenodd;stroke:#000000;stroke-width:2.0px;stroke-linecap:butt;stroke-linejoin:miter;stroke-opacity:1"/>
<path class="bond-4 atom-2 atom-5" d="M 150.6,120.1 L 199.0,147.0" style="fill:none;fill-rule:evenodd;stroke:#000000;stroke-width:2.0px;stroke-linecap:butt;stroke-linejoin:miter;stroke-opacity:1"/>
<path class="bond-5 atom-5 atom-6" d="M 199.0,147.0 L 255.6,113.0" style="fill:none;fill-rule:evenodd;stroke:#000000;stroke-width:2.0px;stroke-linecap:butt;stroke-linejoin:miter;stroke-opacity:1"/>
<path class="bond-6 atom-6 atom-7" d="M 260.6,115.7 L 259.6,58.8" style="fill:none;fill-rule:evenodd;stroke:#000000;stroke-width:2.0px;stroke-linecap:butt;stroke-linejoin:miter;stroke-opacity:1"/>
<path class="bond-6 atom-6 atom-7" d="M 250.7,115.9 L 249.7,59.0" style="fill:none;fill-rule:evenodd;stroke:#000000;stroke-width:2.0px;stroke-linecap:butt;stroke-linejoin:miter;stroke-opacity:1"/>
<path class="bond-7 atom-6 atom-8" d="M 255.6,113.0 L 304.1,139.9" style="fill:none;fill-rule:evenodd;stroke:#000000;stroke-width:2.0px;stroke-linecap:butt;stroke-linejoin:miter;stroke-opacity:1"/>
<path class="bond-8 atom-8 atom-9" d="M 322.6,139.4 L 369.9,111.0" style="fill:none;fill-rule:evenodd;stroke:#000000;stroke-width:2.0px;stroke-linecap:butt;stroke-linejoin:miter;stroke-opacity:1"/>
<path class="bond-9 atom-9 atom-10" d="M 369.9,111.0 L 368.8,45.0" style="fill:none;fill-rule:evenodd;stroke:#000000;stroke-width:2.0px;stroke-linecap:butt;stroke-linejoin:miter;stroke-opacity:1"/>
<path class="bond-9 atom-9 atom-10" d="M 379.7,105.1 L 378.8,50.6" style="fill:none;fill-rule:evenodd;stroke:#000000;stroke-width:2.0px;stroke-linecap:butt;stroke-linejoin:miter;stroke-opacity:1"/>
<path class="bond-10 atom-10 atom-11" d="M 368.8,45.0 L 311.1,13.0" style="fill:none;fill-rule:evenodd;stroke:#000000;stroke-width:2.0px;stroke-linecap:butt;stroke-linejoin:miter;stroke-opacity:1"/>
<path class="bond-11 atom-10 atom-12" d="M 368.8,45.0 L 425.4,11.1" style="fill:none;fill-rule:evenodd;stroke:#000000;stroke-width:2.0px;stroke-linecap:butt;stroke-linejoin:miter;stroke-opacity:1"/>
<path class="bond-12 atom-12 atom-13" d="M 425.4,11.1 L 483.1,43.1" style="fill:none;fill-rule:evenodd;stroke:#000000;stroke-width:2.0px;stroke-linecap:butt;stroke-linejoin:miter;stroke-opacity:1"/>
<path class="bond-12 atom-12 atom-13" d="M 425.6,22.5 L 473.3,49.0" style="fill:none;fill-rule:evenodd;stroke:#000000;stroke-width:2.0px;stroke-linecap:butt;stroke-linejoin:miter;stroke-opacity:1"/>
<path class="bond-13 atom-13 atom-14" d="M 483.1,43.1 L 484.2,109.1" style="fill:none;fill-rule:evenodd;stroke:#000000;stroke-width:2.0px;stroke-linecap:butt;stroke-linejoin:miter;stroke-opacity:1"/>
<path class="bond-14 atom-14 atom-15" d="M 484.2,109.1 L 427.6,143.1" style="fill:none;fill-rule:evenodd;stroke:#000000;stroke-width:2.0px;stroke-linecap:butt;stroke-linejoin:miter;stroke-opacity:1"/>
<path class="bond-14 atom-14 atom-15" d="M 474.2,103.5 L 427.4,131.6" style="fill:none;fill-rule:evenodd;stroke:#000000;stroke-width:2.0px;stroke-linecap:butt;stroke-linejoin:miter;stroke-opacity:1"/>
<path class="bond-15 atom-15 atom-16" d="M 427.6,143.1 L 428.8,209.1" style="fill:none;fill-rule:evenodd;stroke:#000000;stroke-width:2.0px;stroke-linecap:butt;stroke-linejoin:miter;stroke-opacity:1"/>
<path class="bond-16 atom-15 atom-9" d="M 427.6,143.1 L 369.9,111.0" style="fill:none;fill-rule:evenodd;stroke:#000000;stroke-width:2.0px;stroke-linecap:butt;stroke-linejoin:miter;stroke-opacity:1"/>
<path d="M 81.8,147.3 L 84.7,148.9 L 87.1,147.5" style="fill:none;stroke:#000000;stroke-width:2.0px;stroke-linecap:butt;stroke-linejoin:miter;stroke-miterlimit:10;stroke-opacity:1;"/>
<path d="M 140.2,51.7 L 140.2,48.9 L 137.3,47.3" style="fill:none;stroke:#000000;stroke-width:2.0px;stroke-linecap:butt;stroke-linejoin:miter;stroke-miterlimit:10;stroke-opacity:1;"/>
<path d="M 196.6,145.6 L 199.0,147.0 L 201.8,145.3" style="fill:none;stroke:#000000;stroke-width:2.0px;stroke-linecap:butt;stroke-linejoin:miter;stroke-miterlimit:10;stroke-opacity:1;"/>
<path d="M 252.8,114.7 L 255.6,113.0 L 258.0,114.3" style="fill:none;stroke:#000000;stroke-width:2.0px;stroke-linecap:butt;stroke-linejoin:miter;stroke-miterlimit:10;stroke-opacity:1;"/>
<path d="M 422.6,12.7 L 425.4,11.1 L 428.3,12.7" style="fill:none;stroke:#000000;stroke-width:2.0px;stroke-linecap:butt;stroke-linejoin:miter;stroke-miterlimit:10;stroke-opacity:1;"/>
<path d="M 480.2,41.5 L 483.1,43.1 L 483.2,46.4" style="fill:none;stroke:#000000;stroke-width:2.0px;stroke-linecap:butt;stroke-linejoin:miter;stroke-miterlimit:10;stroke-opacity:1;"/>
<path d="M 484.2,105.8 L 484.2,109.1 L 481.4,110.8" style="fill:none;stroke:#000000;stroke-width:2.0px;stroke-linecap:butt;stroke-linejoin:miter;stroke-miterlimit:10;stroke-opacity:1;"/>
<path class="atom-2" d="M 137.2 105.6 L 143.3 115.5 Q 143.9 116.5, 144.9 118.2 Q 145.8 120.0, 145.9 120.1 L 145.9 105.6 L 148.4 105.6 L 148.4 124.3 L 145.8 124.3 L 139.2 113.4 Q 138.5 112.2, 137.7 110.7 Q 136.9 109.3, 136.6 108.8 L 136.6 124.3 L 134.2 124.3 L 134.2 105.6 L 137.2 105.6 " fill="#000000"/>
<path class="atom-7" d="M 245.9 47.0 Q 245.9 42.5, 248.1 40.0 Q 250.3 37.5, 254.5 37.5 Q 258.6 37.5, 260.8 40.0 Q 263.1 42.5, 263.1 47.0 Q 263.1 51.6, 260.8 54.2 Q 258.6 56.7, 254.5 56.7 Q 250.4 56.7, 248.1 54.2 Q 245.9 51.6, 245.9 47.0 M 254.5 54.6 Q 257.3 54.6, 258.9 52.7 Q 260.4 50.8, 260.4 47.0 Q 260.4 43.4, 258.9 41.5 Q 257.3 39.6, 254.5 39.6 Q 251.6 39.6, 250.1 41.5 Q 248.5 43.3, 248.5 47.0 Q 248.5 50.8, 250.1 52.7 Q 251.6 54.6, 254.5 54.6 " fill="#000000"/>
<path class="atom-8" d="M 309.2 135.7 L 315.3 145.6 Q 315.9 146.5, 316.9 148.3 Q 317.9 150.1, 317.9 150.2 L 317.9 135.7 L 320.4 135.7 L 320.4 154.3 L 317.8 154.3 L 311.3 143.5 Q 310.5 142.3, 309.7 140.8 Q 308.9 139.4, 308.7 138.9 L 308.7 154.3 L 306.2 154.3 L 306.2 135.7 L 309.2 135.7 " fill="#000000"/>
<path class="atom-8" d="M 306.0 156.2 L 308.5 156.2 L 308.5 164.2 L 318.1 164.2 L 318.1 156.2 L 320.6 156.2 L 320.6 174.9 L 318.1 174.9 L 318.1 166.3 L 308.5 166.3 L 308.5 174.9 L 306.0 174.9 L 306.0 156.2 " fill="#000000"/>
</svg>