<?xml version='1.0' encoding='utf-8'?>
<svg xmlns="http://www.w3.org/2000/svg" xmlns:rdkit="http://www.rdkit.org/xml" xmlns:xlink="http://www.w3.org/1999/xlink" version="1.1" baseProfile="full" xml:space="preserve" width="512px" height="263px" viewBox="0 0 512 263">

<rect style="opacity:1.0;fill:#FFFFFF;stroke:none" width="512.0" height="263.0" x="0.0" y="0.0"> </rect>
<path class="bond-0 atom-0 atom-1" d="M 26.5,186.1 L 44.3,151.5" style="fill:none;fill-rule:evenodd;stroke:#000000;stroke-width:2.0px;stroke-linecap:butt;stroke-linejoin:miter;stroke-opacity:1"/>
<path class="bond-1 atom-1 atom-2" d="M 44.3,151.5 L 83.2,149.7" style="fill:none;fill-rule:evenodd;stroke:#000000;stroke-width:2.0px;stroke-linecap:butt;stroke-linejoin:miter;stroke-opacity:1"/>
<path class="bond-2 atom-2 atom-3" d="M 83.2,149.7 L 101.1,115.1" style="fill:none;fill-rule:evenodd;stroke:#000000;stroke-width:2.0px;stroke-linecap:butt;stroke-linejoin:miter;stroke-opacity:1"/>
<path class="bond-3 atom-3 atom-4" d="M 101.1,115.1 L 87.0,87.2" style="fill:none;fill-rule:evenodd;stroke:#000000;stroke-width:2.0px;stroke-linecap:butt;stroke-linejoin:miter;stroke-opacity:1"/>
<path class="bond-3 atom-3 atom-4" d="M 104.4,108.7 L 92.2,84.5" style="fill:none;fill-rule:evenodd;stroke:#000000;stroke-width:2.0px;stroke-linecap:butt;stroke-linejoin:miter;stroke-opacity:1"/>
<path class="bond-4 atom-4 atom-5" d="M 89.1,75.0 L 105.8,58.4" style="fill:none;fill-rule:evenodd;stroke:#000000;stroke-width:2.0px;stroke-linecap:butt;stroke-linejoin:miter;stroke-opacity:1"/>
<path class="bond-5 atom-5 atom-6" d="M 110.2,46.2 L 105.4,14.5" style="fill:none;fill-rule:evenodd;stroke:#000000;stroke-width:2.0px;stroke-linecap:butt;stroke-linejoin:miter;stroke-opacity:1"/>
<path class="bond-6 atom-5 atom-7" d="M 116.7,55.8 L 145.8,70.9" style="fill:none;fill-rule:evenodd;stroke:#000000;stroke-width:2.0px;stroke-linecap:butt;stroke-linejoin:miter;stroke-opacity:1"/>
<path class="bond-7 atom-7 atom-8" d="M 145.8,70.9 L 139.5,109.3" style="fill:none;fill-rule:evenodd;stroke:#000000;stroke-width:2.0px;stroke-linecap:butt;stroke-linejoin:miter;stroke-opacity:1"/>
<path class="bond-7 atom-7 atom-8" d="M 139.4,74.1 L 134.5,104.1" style="fill:none;fill-rule:evenodd;stroke:#000000;stroke-width:2.0px;stroke-linecap:butt;stroke-linejoin:miter;stroke-opacity:1"/>
<path class="bond-8 atom-8 atom-9" d="M 139.5,109.3 L 164.2,129.5" style="fill:none;fill-rule:evenodd;stroke:#000000;stroke-width:2.0px;stroke-linecap:butt;stroke-linejoin:miter;stroke-opacity:1"/>
<path class="bond-9 atom-9 atom-10" d="M 175.1,131.9 L 206.1,120.2" style="fill:none;fill-rule:evenodd;stroke:#000000;stroke-width:2.0px;stroke-linecap:butt;stroke-linejoin:miter;stroke-opacity:1"/>
<path class="bond-10 atom-10 atom-11" d="M 206.1,120.2 L 211.2,88.6" style="fill:none;fill-rule:evenodd;stroke:#000000;stroke-width:2.0px;stroke-linecap:butt;stroke-linejoin:miter;stroke-opacity:1"/>
<path class="bond-10 atom-10 atom-11" d="M 200.8,115.9 L 205.5,87.6" style="fill:none;fill-rule:evenodd;stroke:#000000;stroke-width:2.0px;stroke-linecap:butt;stroke-linejoin:miter;stroke-opacity:1"/>
<path class="bond-11 atom-11 atom-12" d="M 206.9,77.3 L 182.3,57.1" style="fill:none;fill-rule:evenodd;stroke:#000000;stroke-width:2.0px;stroke-linecap:butt;stroke-linejoin:miter;stroke-opacity:1"/>
<path class="bond-12 atom-12 atom-13" d="M 184.9,59.3 L 190.3,26.2" style="fill:none;fill-rule:evenodd;stroke:#000000;stroke-width:2.0px;stroke-linecap:butt;stroke-linejoin:miter;stroke-opacity:1"/>
<path class="bond-12 atom-12 atom-13" d="M 179.1,58.3 L 184.5,25.3" style="fill:none;fill-rule:evenodd;stroke:#000000;stroke-width:2.0px;stroke-linecap:butt;stroke-linejoin:miter;stroke-opacity:1"/>
<path class="bond-13 atom-10 atom-14" d="M 206.1,120.2 L 236.2,144.9" style="fill:none;fill-rule:evenodd;stroke:#000000;stroke-width:2.0px;stroke-linecap:butt;stroke-linejoin:miter;stroke-opacity:1"/>
<path class="bond-14 atom-14 atom-15" d="M 236.2,144.9 L 229.9,183.3" style="fill:none;fill-rule:evenodd;stroke:#000000;stroke-width:2.0px;stroke-linecap:butt;stroke-linejoin:miter;stroke-opacity:1"/>
<path class="bond-14 atom-14 atom-15" d="M 241.4,149.1 L 236.2,180.9" style="fill:none;fill-rule:evenodd;stroke:#000000;stroke-width:2.0px;stroke-linecap:butt;stroke-linejoin:miter;stroke-opacity:1"/>
<path class="bond-15 atom-15 atom-16" d="M 229.9,183.3 L 199.8,194.6" style="fill:none;fill-rule:evenodd;stroke:#000000;stroke-width:2.0px;stroke-linecap:butt;stroke-linejoin:miter;stroke-opacity:1"/>
<path class="bond-16 atom-16 atom-17" d="M 192.3,204.0 L 187.1,235.4" style="fill:none;fill-rule:evenodd;stroke:#000000;stroke-width:2.0px;stroke-linecap:butt;stroke-linejoin:miter;stroke-opacity:1"/>
<path class="bond-17 atom-17 atom-18" d="M 187.1,235.4 L 150.7,249.2" style="fill:none;fill-rule:evenodd;stroke:#000000;stroke-width:2.0px;stroke-linecap:butt;stroke-linejoin:miter;stroke-opacity:1"/>
<path class="bond-18 atom-15 atom-19" d="M 229.9,183.3 L 260.0,207.9" style="fill:none;fill-rule:evenodd;stroke:#000000;stroke-width:2.0px;stroke-linecap:butt;stroke-linejoin:miter;stroke-opacity:1"/>
<path class="bond-19 atom-19 atom-20" d="M 260.0,207.9 L 296.4,194.2" style="fill:none;fill-rule:evenodd;stroke:#000000;stroke-width:2.0px;stroke-linecap:butt;stroke-linejoin:miter;stroke-opacity:1"/>
<path class="bond-19 atom-19 atom-20" d="M 261.1,201.3 L 291.2,189.9" style="fill:none;fill-rule:evenodd;stroke:#000000;stroke-width:2.0px;stroke-linecap:butt;stroke-linejoin:miter;stroke-opacity:1"/>
<path class="bond-20 atom-20 atom-21" d="M 296.4,194.2 L 302.7,155.8" style="fill:none;fill-rule:evenodd;stroke:#000000;stroke-width:2.0px;stroke-linecap:butt;stroke-linejoin:miter;stroke-opacity:1"/>
<path class="bond-21 atom-21 atom-22" d="M 302.7,155.8 L 272.6,131.1" style="fill:none;fill-rule:evenodd;stroke:#000000;stroke-width:2.0px;stroke-linecap:butt;stroke-linejoin:miter;stroke-opacity:1"/>
<path class="bond-21 atom-21 atom-22" d="M 296.4,158.2 L 271.5,137.8" style="fill:none;fill-rule:evenodd;stroke:#000000;stroke-width:2.0px;stroke-linecap:butt;stroke-linejoin:miter;stroke-opacity:1"/>
<path class="bond-22 atom-21 atom-23" d="M 302.7,155.8 L 334.3,143.9" style="fill:none;fill-rule:evenodd;stroke:#000000;stroke-width:2.0px;stroke-linecap:butt;stroke-linejoin:miter;stroke-opacity:1"/>
<path class="bond-23 atom-23 atom-24" d="M 339.0,150.2 L 347.5,172.6" style="fill:none;fill-rule:evenodd;stroke:#000000;stroke-width:2.0px;stroke-linecap:butt;stroke-linejoin:miter;stroke-opacity:1"/>
<path class="bond-23 atom-23 atom-24" d="M 344.5,148.1 L 353.0,170.6" style="fill:none;fill-rule:evenodd;stroke:#000000;stroke-width:2.0px;stroke-linecap:butt;stroke-linejoin:miter;stroke-opacity:1"/>
<path class="bond-24 atom-23 atom-25" d="M 339.3,134.2 L 330.7,111.6" style="fill:none;fill-rule:evenodd;stroke:#000000;stroke-width:2.0px;stroke-linecap:butt;stroke-linejoin:miter;stroke-opacity:1"/>
<path class="bond-24 atom-23 atom-25" d="M 333.8,136.3 L 325.3,113.7" style="fill:none;fill-rule:evenodd;stroke:#000000;stroke-width:2.0px;stroke-linecap:butt;stroke-linejoin:miter;stroke-opacity:1"/>
<path class="bond-25 atom-23 atom-26" d="M 343.9,140.2 L 370.0,130.4" style="fill:none;fill-rule:evenodd;stroke:#000000;stroke-width:2.0px;stroke-linecap:butt;stroke-linejoin:miter;stroke-opacity:1"/>
<path class="bond-26 atom-26 atom-27" d="M 381.0,132.8 L 405.6,153.0" style="fill:none;fill-rule:evenodd;stroke:#000000;stroke-width:2.0px;stroke-linecap:butt;stroke-linejoin:miter;stroke-opacity:1"/>
<path class="bond-27 atom-27 atom-28" d="M 405.6,153.0 L 442.0,139.2" style="fill:none;fill-rule:evenodd;stroke:#000000;stroke-width:2.0px;stroke-linecap:butt;stroke-linejoin:miter;stroke-opacity:1"/>
<path class="bond-28 atom-28 atom-29" d="M 442.0,139.2 L 447.2,107.6" style="fill:none;fill-rule:evenodd;stroke:#000000;stroke-width:2.0px;stroke-linecap:butt;stroke-linejoin:miter;stroke-opacity:1"/>
<path class="bond-29 atom-29 atom-30" d="M 453.8,98.8 L 484.7,87.1" style="fill:none;fill-rule:evenodd;stroke:#000000;stroke-width:2.0px;stroke-linecap:butt;stroke-linejoin:miter;stroke-opacity:1"/>
<path class="bond-30 atom-29 atom-31" d="M 442.9,96.4 L 418.2,76.2" style="fill:none;fill-rule:evenodd;stroke:#000000;stroke-width:2.0px;stroke-linecap:butt;stroke-linejoin:miter;stroke-opacity:1"/>
<path class="bond-31 atom-31 atom-32" d="M 418.2,76.2 L 381.8,89.9" style="fill:none;fill-rule:evenodd;stroke:#000000;stroke-width:2.0px;stroke-linecap:butt;stroke-linejoin:miter;stroke-opacity:1"/>
<path class="bond-32 atom-8 atom-3" d="M 139.5,109.3 L 101.1,115.1" style="fill:none;fill-rule:evenodd;stroke:#000000;stroke-width:2.0px;stroke-linecap:butt;stroke-linejoin:miter;stroke-opacity:1"/>
<path class="bond-33 atom-12 atom-7" d="M 182.3,57.1 L 145.8,70.9" style="fill:none;fill-rule:evenodd;stroke:#000000;stroke-width:2.0px;stroke-linecap:butt;stroke-linejoin:miter;stroke-opacity:1"/>
<path class="bond-34 atom-22 atom-14" d="M 272.6,131.1 L 236.2,144.9" style="fill:none;fill-rule:evenodd;stroke:#000000;stroke-width:2.0px;stroke-linecap:butt;stroke-linejoin:miter;stroke-opacity:1"/>
<path class="bond-35 atom-32 atom-26" d="M 381.8,89.9 L 376.6,121.5" style="fill:none;fill-rule:evenodd;stroke:#000000;stroke-width:2.0px;stroke-linecap:butt;stroke-linejoin:miter;stroke-opacity:1"/>
<path d="M 43.4,153.3 L 44.3,151.5 L 46.3,151.4" style="fill:none;stroke:#000000;stroke-width:2.0px;stroke-linecap:butt;stroke-linejoin:miter;stroke-miterlimit:10;stroke-opacity:1;"/>
<path d="M 81.3,149.8 L 83.2,149.7 L 84.1,148.0" style="fill:none;stroke:#000000;stroke-width:2.0px;stroke-linecap:butt;stroke-linejoin:miter;stroke-miterlimit:10;stroke-opacity:1;"/>
<path d="M 183.5,58.1 L 182.3,57.1 L 180.4,57.8" style="fill:none;stroke:#000000;stroke-width:2.0px;stroke-linecap:butt;stroke-linejoin:miter;stroke-miterlimit:10;stroke-opacity:1;"/>
<path d="M 187.4,233.8 L 187.1,235.4 L 185.3,236.1" style="fill:none;stroke:#000000;stroke-width:2.0px;stroke-linecap:butt;stroke-linejoin:miter;stroke-miterlimit:10;stroke-opacity:1;"/>
<path d="M 258.5,206.7 L 260.0,207.9 L 261.8,207.2" style="fill:none;stroke:#000000;stroke-width:2.0px;stroke-linecap:butt;stroke-linejoin:miter;stroke-miterlimit:10;stroke-opacity:1;"/>
<path d="M 294.6,194.9 L 296.4,194.2 L 296.7,192.3" style="fill:none;stroke:#000000;stroke-width:2.0px;stroke-linecap:butt;stroke-linejoin:miter;stroke-miterlimit:10;stroke-opacity:1;"/>
<path d="M 274.1,132.4 L 272.6,131.1 L 270.8,131.8" style="fill:none;stroke:#000000;stroke-width:2.0px;stroke-linecap:butt;stroke-linejoin:miter;stroke-miterlimit:10;stroke-opacity:1;"/>
<path d="M 404.4,152.0 L 405.6,153.0 L 407.4,152.3" style="fill:none;stroke:#000000;stroke-width:2.0px;stroke-linecap:butt;stroke-linejoin:miter;stroke-miterlimit:10;stroke-opacity:1;"/>
<path d="M 440.2,139.9 L 442.0,139.2 L 442.3,137.7" style="fill:none;stroke:#000000;stroke-width:2.0px;stroke-linecap:butt;stroke-linejoin:miter;stroke-miterlimit:10;stroke-opacity:1;"/>
<path d="M 419.5,77.2 L 418.2,76.2 L 416.4,76.9" style="fill:none;stroke:#000000;stroke-width:2.0px;stroke-linecap:butt;stroke-linejoin:miter;stroke-miterlimit:10;stroke-opacity:1;"/>
<path d="M 383.6,89.2 L 381.8,89.9 L 381.6,91.5" style="fill:none;stroke:#000000;stroke-width:2.0px;stroke-linecap:butt;stroke-linejoin:miter;stroke-miterlimit:10;stroke-opacity:1;"/>
<path class="atom-4" d="M 81.2 74.9 L 84.8 80.7 Q 85.1 81.3, 85.7 82.3 Q 86.3 83.4, 86.3 83.4 L 86.3 74.9 L 87.8 74.9 L 87.8 85.9 L 86.3 85.9 L 82.4 79.5 Q 81.9 78.7, 81.5 77.9 Q 81.0 77.0, 80.8 76.8 L 80.8 85.9 L 79.4 85.9 L 79.4 74.9 L 81.2 74.9 " fill="#000000"/>
<path class="atom-5" d="M 108.8 47.5 L 112.4 53.3 Q 112.8 53.9, 113.4 54.9 Q 114.0 56.0, 114.0 56.1 L 114.0 47.5 L 115.4 47.5 L 115.4 58.5 L 113.9 58.5 L 110.1 52.1 Q 109.6 51.4, 109.1 50.5 Q 108.7 49.7, 108.5 49.4 L 108.5 58.5 L 107.1 58.5 L 107.1 47.5 L 108.8 47.5 " fill="#000000"/>
<path class="atom-9" d="M 167.2 128.4 L 170.8 134.3 Q 171.2 134.8, 171.8 135.9 Q 172.3 136.9, 172.4 137.0 L 172.4 128.4 L 173.8 128.4 L 173.8 139.4 L 172.3 139.4 L 168.4 133.1 Q 168.0 132.3, 167.5 131.5 Q 167.0 130.6, 166.9 130.3 L 166.9 139.4 L 165.5 139.4 L 165.5 128.4 L 167.2 128.4 " fill="#000000"/>
<path class="atom-9" d="M 165.3 140.5 L 166.8 140.5 L 166.8 145.2 L 172.5 145.2 L 172.5 140.5 L 174.0 140.5 L 174.0 151.6 L 172.5 151.6 L 172.5 146.5 L 166.8 146.5 L 166.8 151.6 L 165.3 151.6 L 165.3 140.5 " fill="#000000"/>
<path class="atom-11" d="M 209.9 76.3 L 213.5 82.1 Q 213.9 82.7, 214.5 83.7 Q 215.0 84.8, 215.1 84.8 L 215.1 76.3 L 216.5 76.3 L 216.5 87.3 L 215.0 87.3 L 211.2 80.9 Q 210.7 80.2, 210.2 79.3 Q 209.8 78.5, 209.6 78.2 L 209.6 87.3 L 208.2 87.3 L 208.2 76.3 L 209.9 76.3 " fill="#000000"/>
<path class="atom-13" d="M 183.5 18.8 Q 183.5 16.1, 184.8 14.6 Q 186.1 13.1, 188.6 13.1 Q 191.0 13.1, 192.3 14.6 Q 193.6 16.1, 193.6 18.8 Q 193.6 21.4, 192.3 23.0 Q 191.0 24.5, 188.6 24.5 Q 186.1 24.5, 184.8 23.0 Q 183.5 21.4, 183.5 18.8 M 188.6 23.2 Q 190.2 23.2, 191.2 22.1 Q 192.1 21.0, 192.1 18.8 Q 192.1 16.6, 191.2 15.5 Q 190.2 14.4, 188.6 14.4 Q 186.9 14.4, 186.0 15.5 Q 185.1 16.6, 185.1 18.8 Q 185.1 21.0, 186.0 22.1 Q 186.9 23.2, 188.6 23.2 " fill="#000000"/>
<path class="atom-16" d="M 188.4 197.0 Q 188.4 194.4, 189.7 192.9 Q 191.0 191.4, 193.4 191.4 Q 195.9 191.4, 197.2 192.9 Q 198.5 194.4, 198.5 197.0 Q 198.5 199.7, 197.2 201.2 Q 195.9 202.8, 193.4 202.8 Q 191.0 202.8, 189.7 201.2 Q 188.4 199.7, 188.4 197.0 M 193.4 201.5 Q 195.1 201.5, 196.0 200.4 Q 196.9 199.2, 196.9 197.0 Q 196.9 194.9, 196.0 193.8 Q 195.1 192.7, 193.4 192.7 Q 191.8 192.7, 190.8 193.8 Q 189.9 194.9, 189.9 197.0 Q 189.9 199.3, 190.8 200.4 Q 191.8 201.5, 193.4 201.5 " fill="#000000"/>
<path class="atom-23" d="M 336.0 145.8 Q 336.1 145.9, 336.6 146.1 Q 337.1 146.3, 337.7 146.5 Q 338.3 146.6, 338.8 146.6 Q 339.9 146.6, 340.5 146.1 Q 341.1 145.6, 341.1 144.7 Q 341.1 144.1, 340.8 143.7 Q 340.5 143.3, 340.0 143.1 Q 339.5 142.9, 338.8 142.7 Q 337.8 142.4, 337.2 142.1 Q 336.6 141.8, 336.2 141.2 Q 335.8 140.6, 335.8 139.6 Q 335.8 138.3, 336.7 137.4 Q 337.7 136.6, 339.5 136.6 Q 340.8 136.6, 342.3 137.2 L 341.9 138.4 Q 340.6 137.8, 339.6 137.8 Q 338.5 137.8, 337.9 138.3 Q 337.3 138.7, 337.3 139.5 Q 337.3 140.1, 337.6 140.4 Q 338.0 140.8, 338.4 141.0 Q 338.8 141.2, 339.6 141.4 Q 340.6 141.7, 341.2 142.0 Q 341.8 142.3, 342.2 143.0 Q 342.6 143.6, 342.6 144.7 Q 342.6 146.2, 341.6 147.0 Q 340.6 147.8, 338.9 147.8 Q 337.9 147.8, 337.2 147.6 Q 336.4 147.4, 335.6 147.1 L 336.0 145.8 " fill="#000000"/>
<path class="atom-24" d="M 347.8 178.5 Q 347.8 175.8, 349.1 174.4 Q 350.4 172.9, 352.8 172.9 Q 355.3 172.9, 356.6 174.4 Q 357.9 175.8, 357.9 178.5 Q 357.9 181.2, 356.6 182.7 Q 355.2 184.2, 352.8 184.2 Q 350.4 184.2, 349.1 182.7 Q 347.8 181.2, 347.8 178.5 M 352.8 183.0 Q 354.5 183.0, 355.4 181.8 Q 356.3 180.7, 356.3 178.5 Q 356.3 176.3, 355.4 175.2 Q 354.5 174.1, 352.8 174.1 Q 351.2 174.1, 350.2 175.2 Q 349.3 176.3, 349.3 178.5 Q 349.3 180.7, 350.2 181.8 Q 351.2 183.0, 352.8 183.0 " fill="#000000"/>
<path class="atom-25" d="M 320.3 105.7 Q 320.3 103.0, 321.6 101.5 Q 322.9 100.1, 325.4 100.1 Q 327.8 100.1, 329.1 101.5 Q 330.4 103.0, 330.4 105.7 Q 330.4 108.3, 329.1 109.9 Q 327.8 111.4, 325.4 111.4 Q 322.9 111.4, 321.6 109.9 Q 320.3 108.4, 320.3 105.7 M 325.4 110.1 Q 327.0 110.1, 327.9 109.0 Q 328.9 107.9, 328.9 105.7 Q 328.9 103.5, 327.9 102.4 Q 327.0 101.3, 325.4 101.3 Q 323.7 101.3, 322.8 102.4 Q 321.9 103.5, 321.9 105.7 Q 321.9 107.9, 322.8 109.0 Q 323.7 110.1, 325.4 110.1 " fill="#000000"/>
<path class="atom-26" d="M 373.1 122.8 L 376.7 128.6 Q 377.0 129.2, 377.6 130.3 Q 378.2 131.3, 378.2 131.4 L 378.2 122.8 L 379.7 122.8 L 379.7 133.8 L 378.2 133.8 L 374.3 127.4 Q 373.8 126.7, 373.4 125.8 Q 372.9 125.0, 372.8 124.7 L 372.8 133.8 L 371.3 133.8 L 371.3 122.8 L 373.1 122.8 " fill="#000000"/>
<path class="atom-29" d="M 445.9 95.3 L 449.5 101.2 Q 449.9 101.7, 450.4 102.8 Q 451.0 103.8, 451.0 103.9 L 451.0 95.3 L 452.5 95.3 L 452.5 106.3 L 451.0 106.3 L 447.1 100.0 Q 446.7 99.2, 446.2 98.4 Q 445.7 97.5, 445.6 97.2 L 445.6 106.3 L 444.2 106.3 L 444.2 95.3 L 445.9 95.3 " fill="#000000"/>
</svg>