<?xml version='1.0' encoding='utf-8'?>
<svg xmlns="http://www.w3.org/2000/svg" xmlns:rdkit="http://www.rdkit.org/xml" xmlns:xlink="http://www.w3.org/1999/xlink" version="1.1" baseProfile="full" xml:space="preserve" width="512px" height="137px" viewBox="0 0 512 137">

<rect style="opacity:1.0;fill:#FFFFFF;stroke:none" width="512.0" height="137.0" x="0.0" y="0.0"> </rect>
<path class="bond-0 atom-0 atom-1" d="M 26.6,120.2 L 92.0,120.2" style="fill:none;fill-rule:evenodd;stroke:#000000;stroke-width:2.0px;stroke-linecap:butt;stroke-linejoin:miter;stroke-opacity:1"/>
<path class="bond-1 atom-1 atom-2" d="M 92.0,120.2 L 117.9,75.3" style="fill:none;fill-rule:evenodd;stroke:#000000;stroke-width:2.0px;stroke-linecap:butt;stroke-linejoin:miter;stroke-opacity:1"/>
<path class="bond-2 atom-2 atom-3" d="M 135.4,63.5 L 190.2,63.5" style="fill:none;fill-rule:evenodd;stroke:#000000;stroke-width:2.0px;stroke-linecap:butt;stroke-linejoin:miter;stroke-opacity:1"/>
<path class="bond-3 atom-3 atom-4" d="M 184.5,63.5 L 212.0,111.1" style="fill:none;fill-rule:evenodd;stroke:#000000;stroke-width:2.0px;stroke-linecap:butt;stroke-linejoin:miter;stroke-opacity:1"/>
<path class="bond-3 atom-3 atom-4" d="M 193.0,58.6 L 220.5,106.2" style="fill:none;fill-rule:evenodd;stroke:#000000;stroke-width:2.0px;stroke-linecap:butt;stroke-linejoin:miter;stroke-opacity:1"/>
<path class="bond-4 atom-3 atom-5" d="M 190.2,63.5 L 222.9,6.8" style="fill:none;fill-rule:evenodd;stroke:#000000;stroke-width:2.0px;stroke-linecap:butt;stroke-linejoin:miter;stroke-opacity:1"/>
<path class="bond-5 atom-5 atom-6" d="M 222.9,6.8 L 288.3,6.8" style="fill:none;fill-rule:evenodd;stroke:#000000;stroke-width:2.0px;stroke-linecap:butt;stroke-linejoin:miter;stroke-opacity:1"/>
<path class="bond-5 atom-5 atom-6" d="M 228.5,16.7 L 282.7,16.7" style="fill:none;fill-rule:evenodd;stroke:#000000;stroke-width:2.0px;stroke-linecap:butt;stroke-linejoin:miter;stroke-opacity:1"/>
<path class="bond-6 atom-6 atom-7" d="M 288.3,6.8 L 321.0,63.5" style="fill:none;fill-rule:evenodd;stroke:#000000;stroke-width:2.0px;stroke-linecap:butt;stroke-linejoin:miter;stroke-opacity:1"/>
<path class="bond-7 atom-7 atom-8" d="M 318.2,58.6 L 290.7,106.2" style="fill:none;fill-rule:evenodd;stroke:#000000;stroke-width:2.0px;stroke-linecap:butt;stroke-linejoin:miter;stroke-opacity:1"/>
<path class="bond-7 atom-7 atom-8" d="M 326.7,63.5 L 299.2,111.1" style="fill:none;fill-rule:evenodd;stroke:#000000;stroke-width:2.0px;stroke-linecap:butt;stroke-linejoin:miter;stroke-opacity:1"/>
<path class="bond-8 atom-7 atom-9" d="M 321.0,63.5 L 375.8,63.5" style="fill:none;fill-rule:evenodd;stroke:#000000;stroke-width:2.0px;stroke-linecap:butt;stroke-linejoin:miter;stroke-opacity:1"/>
<path class="bond-9 atom-9 atom-10" d="M 393.3,75.3 L 419.2,120.2" style="fill:none;fill-rule:evenodd;stroke:#000000;stroke-width:2.0px;stroke-linecap:butt;stroke-linejoin:miter;stroke-opacity:1"/>
<path class="bond-10 atom-10 atom-11" d="M 419.2,120.2 L 484.6,120.2" style="fill:none;fill-rule:evenodd;stroke:#000000;stroke-width:2.0px;stroke-linecap:butt;stroke-linejoin:miter;stroke-opacity:1"/>
<path d="M 88.7,120.2 L 92.0,120.2 L 93.3,117.9" style="fill:none;stroke:#000000;stroke-width:2.0px;stroke-linecap:butt;stroke-linejoin:miter;stroke-miterlimit:10;stroke-opacity:1;"/>
<path d="M 187.4,63.5 L 190.2,63.5 L 191.8,60.7" style="fill:none;stroke:#000000;stroke-width:2.0px;stroke-linecap:butt;stroke-linejoin:miter;stroke-miterlimit:10;stroke-opacity:1;"/>
<path d="M 221.2,9.7 L 222.9,6.8 L 226.2,6.8" style="fill:none;stroke:#000000;stroke-width:2.0px;stroke-linecap:butt;stroke-linejoin:miter;stroke-miterlimit:10;stroke-opacity:1;"/>
<path d="M 285.0,6.8 L 288.3,6.8 L 290.0,9.7" style="fill:none;stroke:#000000;stroke-width:2.0px;stroke-linecap:butt;stroke-linejoin:miter;stroke-miterlimit:10;stroke-opacity:1;"/>
<path d="M 319.4,60.7 L 321.0,63.5 L 323.8,63.5" style="fill:none;stroke:#000000;stroke-width:2.0px;stroke-linecap:butt;stroke-linejoin:miter;stroke-miterlimit:10;stroke-opacity:1;"/>
<path d="M 417.9,117.9 L 419.2,120.2 L 422.5,120.2" style="fill:none;stroke:#000000;stroke-width:2.0px;stroke-linecap:butt;stroke-linejoin:miter;stroke-miterlimit:10;stroke-opacity:1;"/>
<path class="atom-2" d="M 116.2 63.6 Q 116.2 59.1, 118.4 56.6 Q 120.6 54.2, 124.7 54.2 Q 128.8 54.2, 131.0 56.6 Q 133.2 59.1, 133.2 63.6 Q 133.2 68.1, 131.0 70.6 Q 128.8 73.2, 124.7 73.2 Q 120.6 73.2, 118.4 70.6 Q 116.2 68.1, 116.2 63.6 M 124.7 71.1 Q 127.6 71.1, 129.1 69.2 Q 130.6 67.3, 130.6 63.6 Q 130.6 59.9, 129.1 58.1 Q 127.6 56.2, 124.7 56.2 Q 121.9 56.2, 120.4 58.1 Q 118.8 59.9, 118.8 63.6 Q 118.8 67.3, 120.4 69.2 Q 121.9 71.1, 124.7 71.1 " fill="#000000"/>
<path class="atom-4" d="M 214.4 120.2 Q 214.4 115.8, 216.6 113.3 Q 218.8 110.8, 222.9 110.8 Q 227.0 110.8, 229.2 113.3 Q 231.4 115.8, 231.4 120.2 Q 231.4 124.7, 229.2 127.3 Q 226.9 129.9, 222.9 129.9 Q 218.8 129.9, 216.6 127.3 Q 214.4 124.8, 214.4 120.2 M 222.9 127.8 Q 225.7 127.8, 227.2 125.9 Q 228.8 124.0, 228.8 120.2 Q 228.8 116.6, 227.2 114.8 Q 225.7 112.9, 222.9 112.9 Q 220.1 112.9, 218.5 114.7 Q 217.0 116.6, 217.0 120.2 Q 217.0 124.0, 218.5 125.9 Q 220.1 127.8, 222.9 127.8 " fill="#000000"/>
<path class="atom-8" d="M 279.8 120.2 Q 279.8 115.8, 282.0 113.3 Q 284.2 110.8, 288.3 110.8 Q 292.4 110.8, 294.6 113.3 Q 296.8 115.8, 296.8 120.2 Q 296.8 124.7, 294.6 127.3 Q 292.4 129.8, 288.3 129.8 Q 284.2 129.8, 282.0 127.3 Q 279.8 124.8, 279.8 120.2 M 288.3 127.8 Q 291.1 127.8, 292.7 125.9 Q 294.2 124.0, 294.2 120.2 Q 294.2 116.6, 292.7 114.8 Q 291.1 112.9, 288.3 112.9 Q 285.5 112.9, 283.9 114.7 Q 282.4 116.6, 282.4 120.2 Q 282.4 124.0, 283.9 125.9 Q 285.5 127.8, 288.3 127.8 " fill="#000000"/>
<path class="atom-9" d="M 378.0 63.6 Q 378.0 59.1, 380.2 56.6 Q 382.4 54.2, 386.5 54.2 Q 390.6 54.2, 392.8 56.6 Q 395.0 59.1, 395.0 63.6 Q 395.0 68.1, 392.8 70.6 Q 390.5 73.2, 386.5 73.2 Q 382.4 73.2, 380.2 70.6 Q 378.0 68.1, 378.0 63.6 M 386.5 71.1 Q 389.3 71.1, 390.8 69.2 Q 392.4 67.3, 392.4 63.6 Q 392.4 59.9, 390.8 58.1 Q 389.3 56.2, 386.5 56.2 Q 383.6 56.2, 382.1 58.1 Q 380.6 59.9, 380.6 63.6 Q 380.6 67.3, 382.1 69.2 Q 383.6 71.1, 386.5 71.1 " fill="#000000"/>
</svg>