<?xml version='1.0' encoding='utf-8'?>
<svg xmlns="http://www.w3.org/2000/svg" xmlns:rdkit="http://www.rdkit.org/xml" xmlns:xlink="http://www.w3.org/1999/xlink" version="1.1" baseProfile="full" xml:space="preserve" width="512px" height="255px" viewBox="0 0 512 255">

<rect style="opacity:1.0;fill:#FFFFFF;stroke:none" width="512.0" height="255.0" x="0.0" y="0.0"> </rect>
<path class="bond-0 atom-0 atom-1" d="M 62.6,241.8 L 71.4,200.6" style="fill:none;fill-rule:evenodd;stroke:#000000;stroke-width:2.0px;stroke-linecap:butt;stroke-linejoin:miter;stroke-opacity:1"/>
<path class="bond-1 atom-1 atom-2" d="M 81.8,188.5 L 122.5,175.3" style="fill:none;fill-rule:evenodd;stroke:#000000;stroke-width:2.0px;stroke-linecap:butt;stroke-linejoin:miter;stroke-opacity:1"/>
<path class="bond-2 atom-2 atom-3" d="M 118.2,176.7 L 149.8,205.1" style="fill:none;fill-rule:evenodd;stroke:#000000;stroke-width:2.0px;stroke-linecap:butt;stroke-linejoin:miter;stroke-opacity:1"/>
<path class="bond-2 atom-2 atom-3" d="M 123.4,170.9 L 155.0,199.4" style="fill:none;fill-rule:evenodd;stroke:#000000;stroke-width:2.0px;stroke-linecap:butt;stroke-linejoin:miter;stroke-opacity:1"/>
<path class="bond-3 atom-4 atom-2" d="M 133.2,124.8 L 126.5,174.0 L 118.0,176.7 Z" style="fill:#000000;fill-rule:evenodd;fill-opacity:1;stroke:#000000;stroke-width:0.5px;stroke-linecap:butt;stroke-linejoin:miter;stroke-miterlimit:10;stroke-opacity:1;"/>
<path class="bond-4 atom-4 atom-5" d="M 133.2,124.8 L 98.7,86.4" style="fill:none;fill-rule:evenodd;stroke:#000000;stroke-width:2.0px;stroke-linecap:butt;stroke-linejoin:miter;stroke-opacity:1"/>
<path class="bond-5 atom-5 atom-6" d="M 98.7,86.4 L 124.5,41.7" style="fill:none;fill-rule:evenodd;stroke:#000000;stroke-width:2.0px;stroke-linecap:butt;stroke-linejoin:miter;stroke-opacity:1"/>
<path class="bond-6 atom-6 atom-7" d="M 124.5,41.7 L 175.0,52.4" style="fill:none;fill-rule:evenodd;stroke:#000000;stroke-width:2.0px;stroke-linecap:butt;stroke-linejoin:miter;stroke-opacity:1"/>
<path class="bond-7 atom-7 atom-8" d="M 175.0,52.4 L 216.7,22.1" style="fill:none;fill-rule:evenodd;stroke:#000000;stroke-width:2.0px;stroke-linecap:butt;stroke-linejoin:miter;stroke-opacity:1"/>
<path class="bond-8 atom-8 atom-9" d="M 216.7,22.1 L 256.6,39.9" style="fill:none;fill-rule:evenodd;stroke:#000000;stroke-width:2.0px;stroke-linecap:butt;stroke-linejoin:miter;stroke-opacity:1"/>
<path class="bond-9 atom-9 atom-10" d="M 271.1,37.8 L 305.7,12.7" style="fill:none;fill-rule:evenodd;stroke:#000000;stroke-width:2.0px;stroke-linecap:butt;stroke-linejoin:miter;stroke-opacity:1"/>
<path class="bond-10 atom-10 atom-11" d="M 305.7,12.7 L 352.8,33.7" style="fill:none;fill-rule:evenodd;stroke:#000000;stroke-width:2.0px;stroke-linecap:butt;stroke-linejoin:miter;stroke-opacity:1"/>
<path class="bond-11 atom-11 atom-12" d="M 352.8,33.7 L 358.2,85.1" style="fill:none;fill-rule:evenodd;stroke:#000000;stroke-width:2.0px;stroke-linecap:butt;stroke-linejoin:miter;stroke-opacity:1"/>
<path class="bond-12 atom-12 atom-13" d="M 358.2,85.1 L 316.5,115.4" style="fill:none;fill-rule:evenodd;stroke:#000000;stroke-width:2.0px;stroke-linecap:butt;stroke-linejoin:miter;stroke-opacity:1"/>
<path class="bond-12 atom-12 atom-13" d="M 358.2,94.7 L 325.6,118.4" style="fill:none;fill-rule:evenodd;stroke:#000000;stroke-width:2.0px;stroke-linecap:butt;stroke-linejoin:miter;stroke-opacity:1"/>
<path class="bond-13 atom-13 atom-14" d="M 316.5,115.4 L 269.3,94.4" style="fill:none;fill-rule:evenodd;stroke:#000000;stroke-width:2.0px;stroke-linecap:butt;stroke-linejoin:miter;stroke-opacity:1"/>
<path class="bond-14 atom-14 atom-15" d="M 269.3,94.4 L 227.5,124.8" style="fill:none;fill-rule:evenodd;stroke:#000000;stroke-width:2.0px;stroke-linecap:butt;stroke-linejoin:miter;stroke-opacity:1"/>
<path class="bond-15 atom-15 atom-16" d="M 227.5,124.8 L 180.4,103.8" style="fill:none;fill-rule:evenodd;stroke:#000000;stroke-width:2.0px;stroke-linecap:butt;stroke-linejoin:miter;stroke-opacity:1"/>
<path class="bond-16 atom-13 atom-17" d="M 316.5,115.4 L 329.5,155.5" style="fill:none;fill-rule:evenodd;stroke:#000000;stroke-width:2.0px;stroke-linecap:butt;stroke-linejoin:miter;stroke-opacity:1"/>
<path class="bond-17 atom-17 atom-18" d="M 339.7,164.5 L 384.0,164.5" style="fill:none;fill-rule:evenodd;stroke:#000000;stroke-width:2.0px;stroke-linecap:butt;stroke-linejoin:miter;stroke-opacity:1"/>
<path class="bond-18 atom-18 atom-19" d="M 384.0,164.5 L 418.6,202.9" style="fill:none;fill-rule:evenodd;stroke:#000000;stroke-width:2.0px;stroke-linecap:butt;stroke-linejoin:miter;stroke-opacity:1"/>
<path class="bond-18 atom-18 atom-19" d="M 392.8,162.7 L 421.4,194.4" style="fill:none;fill-rule:evenodd;stroke:#000000;stroke-width:2.0px;stroke-linecap:butt;stroke-linejoin:miter;stroke-opacity:1"/>
<path class="bond-19 atom-19 atom-20" d="M 418.6,202.9 L 469.1,192.2" style="fill:none;fill-rule:evenodd;stroke:#000000;stroke-width:2.0px;stroke-linecap:butt;stroke-linejoin:miter;stroke-opacity:1"/>
<path class="bond-20 atom-20 atom-21" d="M 469.1,192.2 L 485.0,143.1" style="fill:none;fill-rule:evenodd;stroke:#000000;stroke-width:2.0px;stroke-linecap:butt;stroke-linejoin:miter;stroke-opacity:1"/>
<path class="bond-20 atom-20 atom-21" d="M 463.1,185.5 L 476.3,144.9" style="fill:none;fill-rule:evenodd;stroke:#000000;stroke-width:2.0px;stroke-linecap:butt;stroke-linejoin:miter;stroke-opacity:1"/>
<path class="bond-21 atom-21 atom-22" d="M 485.0,143.1 L 450.5,104.7" style="fill:none;fill-rule:evenodd;stroke:#000000;stroke-width:2.0px;stroke-linecap:butt;stroke-linejoin:miter;stroke-opacity:1"/>
<path class="bond-22 atom-22 atom-23" d="M 450.5,104.7 L 400.0,115.4" style="fill:none;fill-rule:evenodd;stroke:#000000;stroke-width:2.0px;stroke-linecap:butt;stroke-linejoin:miter;stroke-opacity:1"/>
<path class="bond-22 atom-22 atom-23" d="M 447.7,113.2 L 406.0,122.1" style="fill:none;fill-rule:evenodd;stroke:#000000;stroke-width:2.0px;stroke-linecap:butt;stroke-linejoin:miter;stroke-opacity:1"/>
<path class="bond-23 atom-5 atom-24" d="M 95.3,87.1 L 95.2,86.5" style="fill:none;fill-rule:evenodd;stroke:#000000;stroke-width:1.0px;stroke-linecap:butt;stroke-linejoin:miter;stroke-opacity:1"/>
<path class="bond-23 atom-5 atom-24" d="M 91.9,87.8 L 91.7,86.5" style="fill:none;fill-rule:evenodd;stroke:#000000;stroke-width:1.0px;stroke-linecap:butt;stroke-linejoin:miter;stroke-opacity:1"/>
<path class="bond-23 atom-5 atom-24" d="M 88.5,88.5 L 88.2,86.6" style="fill:none;fill-rule:evenodd;stroke:#000000;stroke-width:1.0px;stroke-linecap:butt;stroke-linejoin:miter;stroke-opacity:1"/>
<path class="bond-23 atom-5 atom-24" d="M 85.0,89.2 L 84.8,86.6" style="fill:none;fill-rule:evenodd;stroke:#000000;stroke-width:1.0px;stroke-linecap:butt;stroke-linejoin:miter;stroke-opacity:1"/>
<path class="bond-23 atom-5 atom-24" d="M 81.6,89.8 L 81.3,86.6" style="fill:none;fill-rule:evenodd;stroke:#000000;stroke-width:1.0px;stroke-linecap:butt;stroke-linejoin:miter;stroke-opacity:1"/>
<path class="bond-23 atom-5 atom-24" d="M 78.2,90.5 L 77.8,86.7" style="fill:none;fill-rule:evenodd;stroke:#000000;stroke-width:1.0px;stroke-linecap:butt;stroke-linejoin:miter;stroke-opacity:1"/>
<path class="bond-23 atom-5 atom-24" d="M 74.8,91.2 L 74.4,86.7" style="fill:none;fill-rule:evenodd;stroke:#000000;stroke-width:1.0px;stroke-linecap:butt;stroke-linejoin:miter;stroke-opacity:1"/>
<path class="bond-23 atom-5 atom-24" d="M 71.4,91.9 L 70.9,86.8" style="fill:none;fill-rule:evenodd;stroke:#000000;stroke-width:1.0px;stroke-linecap:butt;stroke-linejoin:miter;stroke-opacity:1"/>
<path class="bond-23 atom-5 atom-24" d="M 68.0,92.6 L 67.4,86.8" style="fill:none;fill-rule:evenodd;stroke:#000000;stroke-width:1.0px;stroke-linecap:butt;stroke-linejoin:miter;stroke-opacity:1"/>
<path class="bond-23 atom-5 atom-24" d="M 64.6,93.3 L 64.0,86.8" style="fill:none;fill-rule:evenodd;stroke:#000000;stroke-width:1.0px;stroke-linecap:butt;stroke-linejoin:miter;stroke-opacity:1"/>
<path class="bond-23 atom-5 atom-24" d="M 61.2,93.9 L 60.5,86.9" style="fill:none;fill-rule:evenodd;stroke:#000000;stroke-width:1.0px;stroke-linecap:butt;stroke-linejoin:miter;stroke-opacity:1"/>
<path class="bond-23 atom-5 atom-24" d="M 57.8,94.6 L 57.0,86.9" style="fill:none;fill-rule:evenodd;stroke:#000000;stroke-width:1.0px;stroke-linecap:butt;stroke-linejoin:miter;stroke-opacity:1"/>
<path class="bond-24 atom-16 atom-4" d="M 180.4,103.8 L 133.2,124.8" style="fill:none;fill-rule:evenodd;stroke:#000000;stroke-width:2.0px;stroke-linecap:butt;stroke-linejoin:miter;stroke-opacity:1"/>
<path class="bond-25 atom-16 atom-7" d="M 180.4,103.8 L 175.0,52.4" style="fill:none;fill-rule:evenodd;stroke:#000000;stroke-width:2.0px;stroke-linecap:butt;stroke-linejoin:miter;stroke-opacity:1"/>
<path class="bond-26 atom-14 atom-9" d="M 269.3,94.4 L 264.8,52.1" style="fill:none;fill-rule:evenodd;stroke:#000000;stroke-width:2.0px;stroke-linecap:butt;stroke-linejoin:miter;stroke-opacity:1"/>
<path class="bond-27 atom-23 atom-12" d="M 400.0,115.4 L 358.2,85.1" style="fill:none;fill-rule:evenodd;stroke:#000000;stroke-width:2.0px;stroke-linecap:butt;stroke-linejoin:miter;stroke-opacity:1"/>
<path class="bond-28 atom-23 atom-18" d="M 400.0,115.4 L 384.0,164.5" style="fill:none;fill-rule:evenodd;stroke:#000000;stroke-width:2.0px;stroke-linecap:butt;stroke-linejoin:miter;stroke-opacity:1"/>
<path d="M 131.5,122.9 L 133.2,124.8 L 135.6,123.7" style="fill:none;stroke:#000000;stroke-width:2.0px;stroke-linecap:butt;stroke-linejoin:miter;stroke-miterlimit:10;stroke-opacity:1;"/>
<path d="M 100.4,88.3 L 98.7,86.4 L 99.9,84.2" style="fill:none;stroke:#000000;stroke-width:2.0px;stroke-linecap:butt;stroke-linejoin:miter;stroke-miterlimit:10;stroke-opacity:1;"/>
<path d="M 123.2,44.0 L 124.5,41.7 L 127.0,42.3" style="fill:none;stroke:#000000;stroke-width:2.0px;stroke-linecap:butt;stroke-linejoin:miter;stroke-miterlimit:10;stroke-opacity:1;"/>
<path d="M 214.6,23.6 L 216.7,22.1 L 218.7,23.0" style="fill:none;stroke:#000000;stroke-width:2.0px;stroke-linecap:butt;stroke-linejoin:miter;stroke-miterlimit:10;stroke-opacity:1;"/>
<path d="M 303.9,14.0 L 305.7,12.7 L 308.0,13.8" style="fill:none;stroke:#000000;stroke-width:2.0px;stroke-linecap:butt;stroke-linejoin:miter;stroke-miterlimit:10;stroke-opacity:1;"/>
<path d="M 350.5,32.7 L 352.8,33.7 L 353.1,36.3" style="fill:none;stroke:#000000;stroke-width:2.0px;stroke-linecap:butt;stroke-linejoin:miter;stroke-miterlimit:10;stroke-opacity:1;"/>
<path d="M 229.6,123.3 L 227.5,124.8 L 225.2,123.7" style="fill:none;stroke:#000000;stroke-width:2.0px;stroke-linecap:butt;stroke-linejoin:miter;stroke-miterlimit:10;stroke-opacity:1;"/>
<path d="M 416.9,201.0 L 418.6,202.9 L 421.1,202.4" style="fill:none;stroke:#000000;stroke-width:2.0px;stroke-linecap:butt;stroke-linejoin:miter;stroke-miterlimit:10;stroke-opacity:1;"/>
<path d="M 466.6,192.7 L 469.1,192.2 L 469.9,189.7" style="fill:none;stroke:#000000;stroke-width:2.0px;stroke-linecap:butt;stroke-linejoin:miter;stroke-miterlimit:10;stroke-opacity:1;"/>
<path d="M 484.2,145.5 L 485.0,143.1 L 483.3,141.1" style="fill:none;stroke:#000000;stroke-width:2.0px;stroke-linecap:butt;stroke-linejoin:miter;stroke-miterlimit:10;stroke-opacity:1;"/>
<path d="M 452.2,106.6 L 450.5,104.7 L 448.0,105.2" style="fill:none;stroke:#000000;stroke-width:2.0px;stroke-linecap:butt;stroke-linejoin:miter;stroke-miterlimit:10;stroke-opacity:1;"/>
<path class="atom-1" d="M 66.7 191.3 Q 66.7 187.8, 68.4 185.8 Q 70.1 183.9, 73.4 183.9 Q 76.6 183.9, 78.3 185.8 Q 80.1 187.8, 80.1 191.3 Q 80.1 194.8, 78.3 196.9 Q 76.6 198.9, 73.4 198.9 Q 70.2 198.9, 68.4 196.9 Q 66.7 194.9, 66.7 191.3 M 73.4 197.2 Q 75.6 197.2, 76.8 195.7 Q 78.0 194.2, 78.0 191.3 Q 78.0 188.4, 76.8 187.0 Q 75.6 185.5, 73.4 185.5 Q 71.1 185.5, 69.9 187.0 Q 68.7 188.4, 68.7 191.3 Q 68.7 194.2, 69.9 195.7 Q 71.1 197.2, 73.4 197.2 " fill="#000000"/>
<path class="atom-3" d="M 154.1 209.9 Q 154.1 206.4, 155.9 204.4 Q 157.6 202.4, 160.8 202.4 Q 164.1 202.4, 165.8 204.4 Q 167.6 206.4, 167.6 209.9 Q 167.6 213.4, 165.8 215.5 Q 164.0 217.5, 160.8 217.5 Q 157.6 217.5, 155.9 215.5 Q 154.1 213.5, 154.1 209.9 M 160.8 215.8 Q 163.1 215.8, 164.3 214.3 Q 165.5 212.8, 165.5 209.9 Q 165.5 207.0, 164.3 205.6 Q 163.1 204.1, 160.8 204.1 Q 158.6 204.1, 157.4 205.5 Q 156.2 207.0, 156.2 209.9 Q 156.2 212.8, 157.4 214.3 Q 158.6 215.8, 160.8 215.8 " fill="#000000"/>
<path class="atom-9" d="M 260.7 35.8 L 265.5 43.5 Q 265.9 44.3, 266.7 45.7 Q 267.5 47.1, 267.5 47.1 L 267.5 35.8 L 269.4 35.8 L 269.4 50.4 L 267.4 50.4 L 262.3 41.9 Q 261.7 41.0, 261.1 39.8 Q 260.4 38.7, 260.3 38.3 L 260.3 50.4 L 258.4 50.4 L 258.4 35.8 L 260.7 35.8 " fill="#000000"/>
<path class="atom-17" d="M 312.5 157.2 L 314.5 157.2 L 314.5 163.4 L 322.0 163.4 L 322.0 157.2 L 324.0 157.2 L 324.0 171.8 L 322.0 171.8 L 322.0 165.1 L 314.5 165.1 L 314.5 171.8 L 312.5 171.8 L 312.5 157.2 " fill="#000000"/>
<path class="atom-17" d="M 329.2 157.2 L 334.0 165.0 Q 334.5 165.7, 335.2 167.1 Q 336.0 168.5, 336.0 168.6 L 336.0 157.2 L 338.0 157.2 L 338.0 171.8 L 336.0 171.8 L 330.8 163.4 Q 330.2 162.4, 329.6 161.3 Q 329.0 160.1, 328.8 159.8 L 328.8 171.8 L 326.9 171.8 L 326.9 157.2 L 329.2 157.2 " fill="#000000"/>
<path class="atom-24" d="M 26.2 84.6 L 28.1 84.6 L 28.1 90.8 L 35.6 90.8 L 35.6 84.6 L 37.6 84.6 L 37.6 99.2 L 35.6 99.2 L 35.6 92.5 L 28.1 92.5 L 28.1 99.2 L 26.2 99.2 L 26.2 84.6 " fill="#000000"/>
<path class="atom-24" d="M 40.6 91.9 Q 40.6 88.4, 42.3 86.4 Q 44.1 84.4, 47.3 84.4 Q 50.6 84.4, 52.3 86.4 Q 54.0 88.4, 54.0 91.9 Q 54.0 95.4, 52.3 97.4 Q 50.5 99.5, 47.3 99.5 Q 44.1 99.5, 42.3 97.4 Q 40.6 95.4, 40.6 91.9 M 47.3 97.8 Q 49.5 97.8, 50.7 96.3 Q 52.0 94.8, 52.0 91.9 Q 52.0 89.0, 50.7 87.6 Q 49.5 86.1, 47.3 86.1 Q 45.1 86.1, 43.9 87.5 Q 42.7 89.0, 42.7 91.9 Q 42.7 94.8, 43.9 96.3 Q 45.1 97.8, 47.3 97.8 " fill="#000000"/>
</svg>