<?xml version='1.0' encoding='utf-8'?>
<svg xmlns="http://www.w3.org/2000/svg" xmlns:rdkit="http://www.rdkit.org/xml" xmlns:xlink="http://www.w3.org/1999/xlink" version="1.1" baseProfile="full" xml:space="preserve" width="512px" height="230px" viewBox="0 0 512 230">

<rect style="opacity:1.0;fill:#FFFFFF;stroke:none" width="512.0" height="230.0" x="0.0" y="0.0"> </rect>
<path class="bond-0 atom-0 atom-1" d="M 25.6,44.8 L 98.9,82.3" style="fill:none;fill-rule:evenodd;stroke:#000000;stroke-width:2.0px;stroke-linecap:butt;stroke-linejoin:miter;stroke-opacity:1"/>
<path class="bond-1 atom-1 atom-2" d="M 98.9,82.3 L 103.0,164.6" style="fill:none;fill-rule:evenodd;stroke:#000000;stroke-width:2.0px;stroke-linecap:butt;stroke-linejoin:miter;stroke-opacity:1"/>
<path class="bond-2 atom-1 atom-3" d="M 98.9,82.3 L 173.8,33.9" style="fill:none;fill-rule:evenodd;stroke:#000000;stroke-width:2.0px;stroke-linecap:butt;stroke-linejoin:miter;stroke-opacity:1"/>
<path class="bond-3 atom-4 atom-3" d="M 241.4,75.2 L 161.8,41.7 L 173.8,33.9 Z" style="fill:#000000;fill-rule:evenodd;fill-opacity:1;stroke:#000000;stroke-width:0.5px;stroke-linecap:butt;stroke-linejoin:miter;stroke-miterlimit:10;stroke-opacity:1;"/>
<path class="bond-4 atom-4 atom-5" d="M 241.4,75.2 L 245.5,157.5" style="fill:none;fill-rule:evenodd;stroke:#000000;stroke-width:2.0px;stroke-linecap:butt;stroke-linejoin:miter;stroke-opacity:1"/>
<path class="bond-5 atom-5 atom-6" d="M 245.5,157.5 L 307.2,189.1" style="fill:none;fill-rule:evenodd;stroke:#000000;stroke-width:2.0px;stroke-linecap:butt;stroke-linejoin:miter;stroke-opacity:1"/>
<path class="bond-6 atom-4 atom-7" d="M 241.4,75.2 L 310.5,30.5" style="fill:none;fill-rule:evenodd;stroke:#000000;stroke-width:2.0px;stroke-linecap:butt;stroke-linejoin:miter;stroke-opacity:1"/>
<path class="bond-7 atom-7 atom-8" d="M 310.5,30.5 L 383.8,68.1" style="fill:none;fill-rule:evenodd;stroke:#000000;stroke-width:2.0px;stroke-linecap:butt;stroke-linejoin:miter;stroke-opacity:1"/>
<path class="bond-8 atom-8 atom-9" d="M 377.5,64.9 L 381.0,136.2" style="fill:none;fill-rule:evenodd;stroke:#000000;stroke-width:2.0px;stroke-linecap:butt;stroke-linejoin:miter;stroke-opacity:1"/>
<path class="bond-8 atom-8 atom-9" d="M 389.8,64.2 L 393.4,135.5" style="fill:none;fill-rule:evenodd;stroke:#000000;stroke-width:2.0px;stroke-linecap:butt;stroke-linejoin:miter;stroke-opacity:1"/>
<path class="bond-9 atom-8 atom-10" d="M 383.8,68.1 L 439.6,32.1" style="fill:none;fill-rule:evenodd;stroke:#000000;stroke-width:2.0px;stroke-linecap:butt;stroke-linejoin:miter;stroke-opacity:1"/>
<path d="M 241.6,79.3 L 241.4,75.2 L 244.8,73.0" style="fill:none;stroke:#000000;stroke-width:2.0px;stroke-linecap:butt;stroke-linejoin:miter;stroke-miterlimit:10;stroke-opacity:1;"/>
<path d="M 245.3,153.4 L 245.5,157.5 L 248.6,159.1" style="fill:none;stroke:#000000;stroke-width:2.0px;stroke-linecap:butt;stroke-linejoin:miter;stroke-miterlimit:10;stroke-opacity:1;"/>
<path d="M 307.1,32.8 L 310.5,30.5 L 314.2,32.4" style="fill:none;stroke:#000000;stroke-width:2.0px;stroke-linecap:butt;stroke-linejoin:miter;stroke-miterlimit:10;stroke-opacity:1;"/>
<path d="M 380.2,66.2 L 383.8,68.1 L 386.6,66.3" style="fill:none;stroke:#000000;stroke-width:2.0px;stroke-linecap:butt;stroke-linejoin:miter;stroke-miterlimit:10;stroke-opacity:1;"/>
<path class="atom-6" d="M 313.6 183.4 L 321.3 195.7 Q 322.0 197.0, 323.2 199.2 Q 324.4 201.4, 324.5 201.5 L 324.5 183.4 L 327.6 183.4 L 327.6 206.7 L 324.4 206.7 L 316.2 193.2 Q 315.3 191.6, 314.2 189.8 Q 313.2 188.0, 312.9 187.4 L 312.9 206.7 L 309.9 206.7 L 309.9 183.4 L 313.6 183.4 " fill="#000000"/>
<path class="atom-6" d="M 332.1 183.4 L 335.2 183.4 L 335.2 193.3 L 347.2 193.3 L 347.2 183.4 L 350.3 183.4 L 350.3 206.7 L 347.2 206.7 L 347.2 195.9 L 335.2 195.9 L 335.2 206.7 L 332.1 206.7 L 332.1 183.4 " fill="#000000"/>
<path class="atom-6" d="M 354.9 205.9 Q 355.4 204.4, 356.8 203.6 Q 358.1 202.8, 360.0 202.8 Q 362.3 202.8, 363.6 204.1 Q 364.9 205.3, 364.9 207.6 Q 364.9 209.9, 363.3 212.0 Q 361.6 214.1, 358.1 216.6 L 365.2 216.6 L 365.2 218.4 L 354.8 218.4 L 354.8 216.9 Q 357.7 214.9, 359.4 213.4 Q 361.1 211.8, 361.9 210.5 Q 362.8 209.1, 362.8 207.7 Q 362.8 206.2, 362.0 205.4 Q 361.3 204.5, 360.0 204.5 Q 358.8 204.5, 357.9 205.0 Q 357.1 205.5, 356.5 206.7 L 354.9 205.9 " fill="#000000"/>
<path class="atom-9" d="M 377.2 150.4 Q 377.2 144.8, 380.0 141.7 Q 382.8 138.6, 387.9 138.6 Q 393.1 138.6, 395.9 141.7 Q 398.6 144.8, 398.6 150.4 Q 398.6 156.1, 395.8 159.3 Q 393.0 162.5, 387.9 162.5 Q 382.8 162.5, 380.0 159.3 Q 377.2 156.1, 377.2 150.4 M 387.9 159.9 Q 391.5 159.9, 393.4 157.5 Q 395.4 155.1, 395.4 150.4 Q 395.4 145.8, 393.4 143.5 Q 391.5 141.2, 387.9 141.2 Q 384.4 141.2, 382.4 143.5 Q 380.5 145.8, 380.5 150.4 Q 380.5 155.1, 382.4 157.5 Q 384.4 159.9, 387.9 159.9 " fill="#000000"/>
<path class="atom-10" d="M 442.3 23.5 Q 442.3 17.9, 445.1 14.8 Q 447.8 11.6, 453.0 11.6 Q 458.2 11.6, 461.0 14.8 Q 463.7 17.9, 463.7 23.5 Q 463.7 29.2, 460.9 32.4 Q 458.1 35.6, 453.0 35.6 Q 447.9 35.6, 445.1 32.4 Q 442.3 29.2, 442.3 23.5 M 453.0 32.9 Q 456.6 32.9, 458.5 30.6 Q 460.4 28.2, 460.4 23.5 Q 460.4 18.9, 458.5 16.6 Q 456.6 14.3, 453.0 14.3 Q 449.5 14.3, 447.5 16.6 Q 445.6 18.9, 445.6 23.5 Q 445.6 28.2, 447.5 30.6 Q 449.5 32.9, 453.0 32.9 " fill="#000000"/>
<path class="atom-10" d="M 467.3 11.9 L 470.5 11.9 L 470.5 21.8 L 482.4 21.8 L 482.4 11.9 L 485.6 11.9 L 485.6 35.2 L 482.4 35.2 L 482.4 24.4 L 470.5 24.4 L 470.5 35.2 L 467.3 35.2 L 467.3 11.9 " fill="#000000"/>
</svg>