<?xml version='1.0' encoding='utf-8'?>
<svg xmlns="http://www.w3.org/2000/svg" xmlns:rdkit="http://www.rdkit.org/xml" xmlns:xlink="http://www.w3.org/1999/xlink" version="1.1" baseProfile="full" xml:space="preserve" width="512px" height="192px" viewBox="0 0 512 192">

<rect style="opacity:1.0;fill:#FFFFFF;stroke:none" width="512.0" height="192.0" x="0.0" y="0.0"> </rect>
<path class="bond-0 atom-0 atom-1" d="M 26.6,18.6 L 63.6,59.0" style="fill:none;fill-rule:evenodd;stroke:#000000;stroke-width:2.0px;stroke-linecap:butt;stroke-linejoin:miter;stroke-opacity:1"/>
<path class="bond-1 atom-1 atom-2" d="M 83.0,67.4 L 140.7,54.6" style="fill:none;fill-rule:evenodd;stroke:#000000;stroke-width:2.0px;stroke-linecap:butt;stroke-linejoin:miter;stroke-opacity:1"/>
<path class="bond-2 atom-2 atom-3" d="M 140.7,54.6 L 187.4,105.5" style="fill:none;fill-rule:evenodd;stroke:#000000;stroke-width:2.0px;stroke-linecap:butt;stroke-linejoin:miter;stroke-opacity:1"/>
<path class="bond-3 atom-3 atom-4" d="M 187.4,105.5 L 170.5,159.2" style="fill:none;fill-rule:evenodd;stroke:#000000;stroke-width:2.0px;stroke-linecap:butt;stroke-linejoin:miter;stroke-opacity:1"/>
<path class="bond-4 atom-3 atom-5" d="M 187.4,105.5 L 254.9,90.5" style="fill:none;fill-rule:evenodd;stroke:#000000;stroke-width:2.0px;stroke-linecap:butt;stroke-linejoin:miter;stroke-opacity:1"/>
<path class="bond-5 atom-5 atom-6" d="M 254.9,90.5 L 275.7,24.6" style="fill:none;fill-rule:evenodd;stroke:#000000;stroke-width:2.0px;stroke-linecap:butt;stroke-linejoin:miter;stroke-opacity:1"/>
<path class="bond-6 atom-6 atom-7" d="M 275.7,24.6 L 343.1,9.6" style="fill:none;fill-rule:evenodd;stroke:#000000;stroke-width:2.0px;stroke-linecap:butt;stroke-linejoin:miter;stroke-opacity:1"/>
<path class="bond-6 atom-6 atom-7" d="M 283.7,33.4 L 339.5,21.0" style="fill:none;fill-rule:evenodd;stroke:#000000;stroke-width:2.0px;stroke-linecap:butt;stroke-linejoin:miter;stroke-opacity:1"/>
<path class="bond-7 atom-7 atom-8" d="M 343.1,9.6 L 389.8,60.5" style="fill:none;fill-rule:evenodd;stroke:#000000;stroke-width:2.0px;stroke-linecap:butt;stroke-linejoin:miter;stroke-opacity:1"/>
<path class="bond-8 atom-8 atom-9" d="M 389.8,60.5 L 446.0,48.0" style="fill:none;fill-rule:evenodd;stroke:#000000;stroke-width:2.0px;stroke-linecap:butt;stroke-linejoin:miter;stroke-opacity:1"/>
<path class="bond-9 atom-8 atom-10" d="M 389.8,60.5 L 369.1,126.4" style="fill:none;fill-rule:evenodd;stroke:#000000;stroke-width:2.0px;stroke-linecap:butt;stroke-linejoin:miter;stroke-opacity:1"/>
<path class="bond-9 atom-8 atom-10" d="M 378.1,63.1 L 361.0,117.6" style="fill:none;fill-rule:evenodd;stroke:#000000;stroke-width:2.0px;stroke-linecap:butt;stroke-linejoin:miter;stroke-opacity:1"/>
<path class="bond-10 atom-10 atom-11" d="M 369.1,126.4 L 301.6,141.4" style="fill:none;fill-rule:evenodd;stroke:#000000;stroke-width:2.0px;stroke-linecap:butt;stroke-linejoin:miter;stroke-opacity:1"/>
<path class="bond-11 atom-11 atom-5" d="M 301.6,141.4 L 254.9,90.5" style="fill:none;fill-rule:evenodd;stroke:#000000;stroke-width:2.0px;stroke-linecap:butt;stroke-linejoin:miter;stroke-opacity:1"/>
<path class="bond-11 atom-11 atom-5" d="M 305.2,130.0 L 266.6,87.9" style="fill:none;fill-rule:evenodd;stroke:#000000;stroke-width:2.0px;stroke-linecap:butt;stroke-linejoin:miter;stroke-opacity:1"/>
<path d="M 137.8,55.2 L 140.7,54.6 L 143.1,57.1" style="fill:none;stroke:#000000;stroke-width:2.0px;stroke-linecap:butt;stroke-linejoin:miter;stroke-miterlimit:10;stroke-opacity:1;"/>
<path d="M 274.6,27.9 L 275.7,24.6 L 279.0,23.8" style="fill:none;stroke:#000000;stroke-width:2.0px;stroke-linecap:butt;stroke-linejoin:miter;stroke-miterlimit:10;stroke-opacity:1;"/>
<path d="M 339.7,10.3 L 343.1,9.6 L 345.5,12.1" style="fill:none;stroke:#000000;stroke-width:2.0px;stroke-linecap:butt;stroke-linejoin:miter;stroke-miterlimit:10;stroke-opacity:1;"/>
<path d="M 370.1,123.2 L 369.1,126.4 L 365.7,127.2" style="fill:none;stroke:#000000;stroke-width:2.0px;stroke-linecap:butt;stroke-linejoin:miter;stroke-miterlimit:10;stroke-opacity:1;"/>
<path d="M 305.0,140.7 L 301.6,141.4 L 299.3,138.9" style="fill:none;stroke:#000000;stroke-width:2.0px;stroke-linecap:butt;stroke-linejoin:miter;stroke-miterlimit:10;stroke-opacity:1;"/>
<path class="atom-1" d="M 68.9 59.8 L 75.4 70.1 Q 76.0 71.1, 77.0 73.0 Q 78.0 74.8, 78.1 75.0 L 78.1 59.8 L 80.7 59.8 L 80.7 79.3 L 78.0 79.3 L 71.1 68.0 Q 70.3 66.7, 69.5 65.1 Q 68.6 63.6, 68.4 63.2 L 68.4 79.3 L 65.9 79.3 L 65.9 59.8 L 68.9 59.8 " fill="#000000"/>
<path class="atom-1" d="M 65.6 81.3 L 68.3 81.3 L 68.3 89.6 L 78.3 89.6 L 78.3 81.3 L 80.9 81.3 L 80.9 100.9 L 78.3 100.9 L 78.3 91.8 L 68.3 91.8 L 68.3 100.9 L 65.6 100.9 L 65.6 81.3 " fill="#000000"/>
<path class="atom-4" d="M 157.7 171.5 Q 157.7 166.8, 160.0 164.1 Q 162.4 161.5, 166.7 161.5 Q 171.0 161.5, 173.4 164.1 Q 175.7 166.8, 175.7 171.5 Q 175.7 176.2, 173.3 178.9 Q 171.0 181.6, 166.7 181.6 Q 162.4 181.6, 160.0 178.9 Q 157.7 176.2, 157.7 171.5 M 166.7 179.4 Q 169.7 179.4, 171.3 177.4 Q 172.9 175.4, 172.9 171.5 Q 172.9 167.6, 171.3 165.7 Q 169.7 163.7, 166.7 163.7 Q 163.7 163.7, 162.1 165.7 Q 160.5 167.6, 160.5 171.5 Q 160.5 175.4, 162.1 177.4 Q 163.7 179.4, 166.7 179.4 " fill="#000000"/>
<path class="atom-4" d="M 178.7 161.7 L 181.4 161.7 L 181.4 170.0 L 191.4 170.0 L 191.4 161.7 L 194.0 161.7 L 194.0 181.3 L 191.4 181.3 L 191.4 172.3 L 181.4 172.3 L 181.4 181.3 L 178.7 181.3 L 178.7 161.7 " fill="#000000"/>
<path class="atom-9" d="M 448.3 45.6 Q 448.3 40.9, 450.6 38.3 Q 452.9 35.6, 457.3 35.6 Q 461.6 35.6, 464.0 38.3 Q 466.3 40.9, 466.3 45.6 Q 466.3 50.4, 463.9 53.1 Q 461.6 55.7, 457.3 55.7 Q 453.0 55.7, 450.6 53.1 Q 448.3 50.4, 448.3 45.6 M 457.3 53.5 Q 460.3 53.5, 461.9 51.5 Q 463.5 49.5, 463.5 45.6 Q 463.5 41.8, 461.9 39.8 Q 460.3 37.9, 457.3 37.9 Q 454.3 37.9, 452.7 39.8 Q 451.1 41.7, 451.1 45.6 Q 451.1 49.6, 452.7 51.5 Q 454.3 53.5, 457.3 53.5 " fill="#000000"/>
<path class="atom-9" d="M 469.3 35.9 L 472.0 35.9 L 472.0 44.2 L 482.0 44.2 L 482.0 35.9 L 484.6 35.9 L 484.6 55.4 L 482.0 55.4 L 482.0 46.4 L 472.0 46.4 L 472.0 55.4 L 469.3 55.4 L 469.3 35.9 " fill="#000000"/>
</svg>