<?xml version='1.0' encoding='utf-8'?>
<svg xmlns="http://www.w3.org/2000/svg" xmlns:rdkit="http://www.rdkit.org/xml" xmlns:xlink="http://www.w3.org/1999/xlink" version="1.1" baseProfile="full" xml:space="preserve" width="512px" height="274px" viewBox="0 0 512 274">

<rect style="opacity:1.0;fill:#FFFFFF;stroke:none" width="512.0" height="274.0" x="0.0" y="0.0"> </rect>
<path class="bond-0 atom-0 atom-1" d="M 252.1,13.7 L 254.1,71.3" style="fill:none;fill-rule:evenodd;stroke:#000000;stroke-width:2.0px;stroke-linecap:butt;stroke-linejoin:miter;stroke-opacity:1"/>
<path class="bond-1 atom-1 atom-2" d="M 254.1,71.3 L 304.9,98.3" style="fill:none;fill-rule:evenodd;stroke:#000000;stroke-width:2.0px;stroke-linecap:butt;stroke-linejoin:miter;stroke-opacity:1"/>
<path class="bond-2 atom-2 atom-3" d="M 304.9,98.3 L 312.9,155.3" style="fill:none;fill-rule:evenodd;stroke:#000000;stroke-width:2.0px;stroke-linecap:butt;stroke-linejoin:miter;stroke-opacity:1"/>
<path class="bond-2 atom-2 atom-3" d="M 314.3,103.3 L 320.6,147.9" style="fill:none;fill-rule:evenodd;stroke:#000000;stroke-width:2.0px;stroke-linecap:butt;stroke-linejoin:miter;stroke-opacity:1"/>
<path class="bond-3 atom-3 atom-4" d="M 312.9,155.3 L 369.6,165.3" style="fill:none;fill-rule:evenodd;stroke:#000000;stroke-width:2.0px;stroke-linecap:butt;stroke-linejoin:miter;stroke-opacity:1"/>
<path class="bond-4 atom-4 atom-5" d="M 369.6,165.3 L 400.1,214.2" style="fill:none;fill-rule:evenodd;stroke:#000000;stroke-width:2.0px;stroke-linecap:butt;stroke-linejoin:miter;stroke-opacity:1"/>
<path class="bond-4 atom-4 atom-5" d="M 379.6,165.0 L 404.8,205.4" style="fill:none;fill-rule:evenodd;stroke:#000000;stroke-width:2.0px;stroke-linecap:butt;stroke-linejoin:miter;stroke-opacity:1"/>
<path class="bond-5 atom-5 atom-6" d="M 400.1,214.2 L 457.7,212.2" style="fill:none;fill-rule:evenodd;stroke:#000000;stroke-width:2.0px;stroke-linecap:butt;stroke-linejoin:miter;stroke-opacity:1"/>
<path class="bond-6 atom-6 atom-7" d="M 457.7,212.2 L 484.7,161.3" style="fill:none;fill-rule:evenodd;stroke:#000000;stroke-width:2.0px;stroke-linecap:butt;stroke-linejoin:miter;stroke-opacity:1"/>
<path class="bond-6 atom-6 atom-7" d="M 452.4,203.7 L 474.8,161.7" style="fill:none;fill-rule:evenodd;stroke:#000000;stroke-width:2.0px;stroke-linecap:butt;stroke-linejoin:miter;stroke-opacity:1"/>
<path class="bond-7 atom-7 atom-8" d="M 484.7,161.3 L 454.2,112.5" style="fill:none;fill-rule:evenodd;stroke:#000000;stroke-width:2.0px;stroke-linecap:butt;stroke-linejoin:miter;stroke-opacity:1"/>
<path class="bond-8 atom-8 atom-9" d="M 454.2,112.5 L 396.7,114.5" style="fill:none;fill-rule:evenodd;stroke:#000000;stroke-width:2.0px;stroke-linecap:butt;stroke-linejoin:miter;stroke-opacity:1"/>
<path class="bond-8 atom-8 atom-9" d="M 449.5,121.3 L 402.0,123.0" style="fill:none;fill-rule:evenodd;stroke:#000000;stroke-width:2.0px;stroke-linecap:butt;stroke-linejoin:miter;stroke-opacity:1"/>
<path class="bond-9 atom-9 atom-10" d="M 396.7,114.5 L 366.1,82.8" style="fill:none;fill-rule:evenodd;stroke:#000000;stroke-width:2.0px;stroke-linecap:butt;stroke-linejoin:miter;stroke-opacity:1"/>
<path class="bond-10 atom-3 atom-11" d="M 312.9,155.3 L 271.5,195.3" style="fill:none;fill-rule:evenodd;stroke:#000000;stroke-width:2.0px;stroke-linecap:butt;stroke-linejoin:miter;stroke-opacity:1"/>
<path class="bond-11 atom-11 atom-12" d="M 266.7,193.9 L 278.7,242.1" style="fill:none;fill-rule:evenodd;stroke:#000000;stroke-width:2.0px;stroke-linecap:butt;stroke-linejoin:miter;stroke-opacity:1"/>
<path class="bond-11 atom-11 atom-12" d="M 275.1,191.9 L 287.1,240.0" style="fill:none;fill-rule:evenodd;stroke:#000000;stroke-width:2.0px;stroke-linecap:butt;stroke-linejoin:miter;stroke-opacity:1"/>
<path class="bond-12 atom-11 atom-13" d="M 271.5,195.3 L 216.1,179.4" style="fill:none;fill-rule:evenodd;stroke:#000000;stroke-width:2.0px;stroke-linecap:butt;stroke-linejoin:miter;stroke-opacity:1"/>
<path class="bond-13 atom-13 atom-14" d="M 216.1,179.4 L 202.2,123.6" style="fill:none;fill-rule:evenodd;stroke:#000000;stroke-width:2.0px;stroke-linecap:butt;stroke-linejoin:miter;stroke-opacity:1"/>
<path class="bond-13 atom-13 atom-14" d="M 206.5,176.7 L 195.0,130.5" style="fill:none;fill-rule:evenodd;stroke:#000000;stroke-width:2.0px;stroke-linecap:butt;stroke-linejoin:miter;stroke-opacity:1"/>
<path class="bond-14 atom-14 atom-15" d="M 202.2,123.6 L 146.9,107.7" style="fill:none;fill-rule:evenodd;stroke:#000000;stroke-width:2.0px;stroke-linecap:butt;stroke-linejoin:miter;stroke-opacity:1"/>
<path class="bond-15 atom-15 atom-16" d="M 146.9,107.7 L 135.4,61.8" style="fill:none;fill-rule:evenodd;stroke:#000000;stroke-width:2.0px;stroke-linecap:butt;stroke-linejoin:miter;stroke-opacity:1"/>
<path class="bond-16 atom-15 atom-17" d="M 146.9,107.7 L 105.4,147.7" style="fill:none;fill-rule:evenodd;stroke:#000000;stroke-width:2.0px;stroke-linecap:butt;stroke-linejoin:miter;stroke-opacity:1"/>
<path class="bond-16 atom-15 atom-17" d="M 149.3,117.4 L 115.0,150.4" style="fill:none;fill-rule:evenodd;stroke:#000000;stroke-width:2.0px;stroke-linecap:butt;stroke-linejoin:miter;stroke-opacity:1"/>
<path class="bond-17 atom-17 atom-18" d="M 105.4,147.7 L 59.5,134.5" style="fill:none;fill-rule:evenodd;stroke:#000000;stroke-width:2.0px;stroke-linecap:butt;stroke-linejoin:miter;stroke-opacity:1"/>
<path class="bond-18 atom-17 atom-19" d="M 105.4,147.7 L 119.3,203.5" style="fill:none;fill-rule:evenodd;stroke:#000000;stroke-width:2.0px;stroke-linecap:butt;stroke-linejoin:miter;stroke-opacity:1"/>
<path class="bond-19 atom-19 atom-20" d="M 119.3,203.5 L 83.2,238.4" style="fill:none;fill-rule:evenodd;stroke:#000000;stroke-width:2.0px;stroke-linecap:butt;stroke-linejoin:miter;stroke-opacity:1"/>
<path class="bond-20 atom-19 atom-21" d="M 119.3,203.5 L 174.7,219.4" style="fill:none;fill-rule:evenodd;stroke:#000000;stroke-width:2.0px;stroke-linecap:butt;stroke-linejoin:miter;stroke-opacity:1"/>
<path class="bond-20 atom-19 atom-21" d="M 126.5,196.6 L 172.3,209.8" style="fill:none;fill-rule:evenodd;stroke:#000000;stroke-width:2.0px;stroke-linecap:butt;stroke-linejoin:miter;stroke-opacity:1"/>
<path class="bond-21 atom-10 atom-2" d="M 347.3,77.6 L 304.9,98.3" style="fill:none;fill-rule:evenodd;stroke:#000000;stroke-width:2.0px;stroke-linecap:butt;stroke-linejoin:miter;stroke-opacity:1"/>
<path class="bond-22 atom-9 atom-4" d="M 396.7,114.5 L 369.6,165.3" style="fill:none;fill-rule:evenodd;stroke:#000000;stroke-width:2.0px;stroke-linecap:butt;stroke-linejoin:miter;stroke-opacity:1"/>
<path class="bond-23 atom-21 atom-13" d="M 174.7,219.4 L 216.1,179.4" style="fill:none;fill-rule:evenodd;stroke:#000000;stroke-width:2.0px;stroke-linecap:butt;stroke-linejoin:miter;stroke-opacity:1"/>
<path d="M 254.0,68.4 L 254.1,71.3 L 256.6,72.6" style="fill:none;stroke:#000000;stroke-width:2.0px;stroke-linecap:butt;stroke-linejoin:miter;stroke-miterlimit:10;stroke-opacity:1;"/>
<path d="M 398.6,211.7 L 400.1,214.2 L 403.0,214.1" style="fill:none;stroke:#000000;stroke-width:2.0px;stroke-linecap:butt;stroke-linejoin:miter;stroke-miterlimit:10;stroke-opacity:1;"/>
<path d="M 454.8,212.3 L 457.7,212.2 L 459.0,209.6" style="fill:none;stroke:#000000;stroke-width:2.0px;stroke-linecap:butt;stroke-linejoin:miter;stroke-miterlimit:10;stroke-opacity:1;"/>
<path d="M 483.4,163.9 L 484.7,161.3 L 483.2,158.9" style="fill:none;stroke:#000000;stroke-width:2.0px;stroke-linecap:butt;stroke-linejoin:miter;stroke-miterlimit:10;stroke-opacity:1;"/>
<path d="M 455.7,114.9 L 454.2,112.5 L 451.3,112.6" style="fill:none;stroke:#000000;stroke-width:2.0px;stroke-linecap:butt;stroke-linejoin:miter;stroke-miterlimit:10;stroke-opacity:1;"/>
<path d="M 273.5,193.3 L 271.5,195.3 L 268.7,194.5" style="fill:none;stroke:#000000;stroke-width:2.0px;stroke-linecap:butt;stroke-linejoin:miter;stroke-miterlimit:10;stroke-opacity:1;"/>
<path d="M 202.9,126.4 L 202.2,123.6 L 199.4,122.8" style="fill:none;stroke:#000000;stroke-width:2.0px;stroke-linecap:butt;stroke-linejoin:miter;stroke-miterlimit:10;stroke-opacity:1;"/>
<path d="M 171.9,218.6 L 174.7,219.4 L 176.8,217.4" style="fill:none;stroke:#000000;stroke-width:2.0px;stroke-linecap:butt;stroke-linejoin:miter;stroke-miterlimit:10;stroke-opacity:1;"/>
<path class="atom-10" d="M 349.2 73.1 Q 349.2 69.2, 351.1 67.0 Q 353.1 64.8, 356.7 64.8 Q 360.3 64.8, 362.2 67.0 Q 364.2 69.2, 364.2 73.1 Q 364.2 77.1, 362.2 79.3 Q 360.2 81.6, 356.7 81.6 Q 353.1 81.6, 351.1 79.3 Q 349.2 77.1, 349.2 73.1 M 356.7 79.7 Q 359.2 79.7, 360.5 78.1 Q 361.9 76.4, 361.9 73.1 Q 361.9 69.9, 360.5 68.3 Q 359.2 66.7, 356.7 66.7 Q 354.2 66.7, 352.8 68.3 Q 351.5 69.9, 351.5 73.1 Q 351.5 76.4, 352.8 78.1 Q 354.2 79.7, 356.7 79.7 " fill="#000000"/>
<path class="atom-12" d="M 277.9 251.2 Q 277.9 247.3, 279.8 245.1 Q 281.8 243.0, 285.4 243.0 Q 289.0 243.0, 290.9 245.1 Q 292.9 247.3, 292.9 251.2 Q 292.9 255.2, 290.9 257.5 Q 289.0 259.7, 285.4 259.7 Q 281.8 259.7, 279.8 257.5 Q 277.9 255.2, 277.9 251.2 M 285.4 257.9 Q 287.9 257.9, 289.2 256.2 Q 290.6 254.5, 290.6 251.2 Q 290.6 248.0, 289.2 246.4 Q 287.9 244.8, 285.4 244.8 Q 282.9 244.8, 281.6 246.4 Q 280.2 248.0, 280.2 251.2 Q 280.2 254.5, 281.6 256.2 Q 282.9 257.9, 285.4 257.9 " fill="#000000"/>
<path class="atom-16" d="M 135.3 51.4 Q 136.9 51.8, 137.7 52.8 Q 138.5 53.7, 138.5 55.1 Q 138.5 57.4, 137.0 58.7 Q 135.6 59.9, 132.9 59.9 L 127.4 59.9 L 127.4 43.6 L 132.2 43.6 Q 135.0 43.6, 136.4 44.8 Q 137.8 45.9, 137.8 48.0 Q 137.8 50.4, 135.3 51.4 M 129.6 45.5 L 129.6 50.6 L 132.2 50.6 Q 133.8 50.6, 134.6 50.0 Q 135.5 49.3, 135.5 48.0 Q 135.5 45.5, 132.2 45.5 L 129.6 45.5 M 132.9 58.1 Q 134.5 58.1, 135.3 57.3 Q 136.2 56.6, 136.2 55.1 Q 136.2 53.8, 135.2 53.1 Q 134.3 52.4, 132.5 52.4 L 129.6 52.4 L 129.6 58.1 L 132.9 58.1 " fill="#000000"/>
<path class="atom-16" d="M 142.2 48.1 L 142.4 49.7 Q 143.7 47.9, 145.7 47.9 Q 146.3 47.9, 147.2 48.1 L 146.9 50.1 Q 145.9 49.8, 145.3 49.8 Q 144.4 49.8, 143.7 50.2 Q 143.1 50.6, 142.6 51.5 L 142.6 59.9 L 140.4 59.9 L 140.4 48.1 L 142.2 48.1 " fill="#000000"/>
<path class="atom-18" d="M 26.5 123.7 L 28.7 123.7 L 28.7 130.7 L 37.0 130.7 L 37.0 123.7 L 39.2 123.7 L 39.2 140.0 L 37.0 140.0 L 37.0 132.5 L 28.7 132.5 L 28.7 140.0 L 26.5 140.0 L 26.5 123.7 " fill="#000000"/>
<path class="atom-18" d="M 42.6 131.8 Q 42.6 127.9, 44.5 125.7 Q 46.5 123.5, 50.1 123.5 Q 53.7 123.5, 55.6 125.7 Q 57.6 127.9, 57.6 131.8 Q 57.6 135.8, 55.6 138.0 Q 53.6 140.3, 50.1 140.3 Q 46.5 140.3, 44.5 138.0 Q 42.6 135.8, 42.6 131.8 M 50.1 138.4 Q 52.6 138.4, 53.9 136.8 Q 55.2 135.1, 55.2 131.8 Q 55.2 128.6, 53.9 127.0 Q 52.6 125.4, 50.1 125.4 Q 47.6 125.4, 46.2 127.0 Q 44.9 128.6, 44.9 131.8 Q 44.9 135.1, 46.2 136.8 Q 47.6 138.4, 50.1 138.4 " fill="#000000"/>
<path class="atom-20" d="M 69.4 243.1 Q 71.0 243.6, 71.7 244.5 Q 72.6 245.5, 72.6 246.9 Q 72.6 249.1, 71.1 250.4 Q 69.7 251.7, 67.0 251.7 L 61.5 251.7 L 61.5 235.4 L 66.3 235.4 Q 69.1 235.4, 70.5 236.5 Q 71.9 237.6, 71.9 239.7 Q 71.9 242.2, 69.4 243.1 M 63.7 237.2 L 63.7 242.3 L 66.3 242.3 Q 67.9 242.3, 68.7 241.7 Q 69.6 241.0, 69.6 239.7 Q 69.6 237.2, 66.3 237.2 L 63.7 237.2 M 67.0 249.9 Q 68.5 249.9, 69.4 249.1 Q 70.3 248.3, 70.3 246.9 Q 70.3 245.5, 69.3 244.9 Q 68.4 244.2, 66.6 244.2 L 63.7 244.2 L 63.7 249.9 L 67.0 249.9 " fill="#000000"/>
<path class="atom-20" d="M 76.3 239.9 L 76.5 241.5 Q 77.8 239.6, 79.8 239.6 Q 80.4 239.6, 81.3 239.9 L 81.0 241.8 Q 80.0 241.6, 79.4 241.6 Q 78.4 241.6, 77.8 242.0 Q 77.2 242.3, 76.7 243.2 L 76.7 251.7 L 74.5 251.7 L 74.5 239.9 L 76.3 239.9 " fill="#000000"/>
</svg>