<?xml version='1.0' encoding='utf-8'?>
<svg xmlns="http://www.w3.org/2000/svg" xmlns:rdkit="http://www.rdkit.org/xml" xmlns:xlink="http://www.w3.org/1999/xlink" version="1.1" baseProfile="full" xml:space="preserve" width="512px" height="390px" viewBox="0 0 512 390">

<rect style="opacity:1.0;fill:#FFFFFF;stroke:none" width="512.0" height="390.0" x="0.0" y="0.0"> </rect>
<path class="bond-0 atom-0 atom-1" d="M 244.6,19.5 L 246.7,65.7" style="fill:none;fill-rule:evenodd;stroke:#000000;stroke-width:2.0px;stroke-linecap:butt;stroke-linejoin:miter;stroke-opacity:1"/>
<path class="bond-1 atom-1 atom-2" d="M 239.3,80.5 L 199.9,105.7" style="fill:none;fill-rule:evenodd;stroke:#000000;stroke-width:2.0px;stroke-linecap:butt;stroke-linejoin:miter;stroke-opacity:1"/>
<path class="bond-2 atom-2 atom-3" d="M 199.9,105.7 L 202.5,161.7" style="fill:none;fill-rule:evenodd;stroke:#000000;stroke-width:2.0px;stroke-linecap:butt;stroke-linejoin:miter;stroke-opacity:1"/>
<path class="bond-3 atom-3 atom-4" d="M 202.3,156.9 L 162.2,182.5" style="fill:none;fill-rule:evenodd;stroke:#000000;stroke-width:2.0px;stroke-linecap:butt;stroke-linejoin:miter;stroke-opacity:1"/>
<path class="bond-3 atom-3 atom-4" d="M 206.8,163.9 L 166.6,189.5" style="fill:none;fill-rule:evenodd;stroke:#000000;stroke-width:2.0px;stroke-linecap:butt;stroke-linejoin:miter;stroke-opacity:1"/>
<path class="bond-4 atom-3 atom-5" d="M 202.5,161.7 L 244.4,183.4" style="fill:none;fill-rule:evenodd;stroke:#000000;stroke-width:2.0px;stroke-linecap:butt;stroke-linejoin:miter;stroke-opacity:1"/>
<path class="bond-5 atom-5 atom-6" d="M 260.1,182.4 L 299.4,157.2" style="fill:none;fill-rule:evenodd;stroke:#000000;stroke-width:2.0px;stroke-linecap:butt;stroke-linejoin:miter;stroke-opacity:1"/>
<path class="bond-6 atom-6 atom-7" d="M 299.4,157.2 L 296.9,101.3" style="fill:none;fill-rule:evenodd;stroke:#000000;stroke-width:2.0px;stroke-linecap:butt;stroke-linejoin:miter;stroke-opacity:1"/>
<path class="bond-7 atom-7 atom-8" d="M 297.1,106.1 L 337.2,80.4" style="fill:none;fill-rule:evenodd;stroke:#000000;stroke-width:2.0px;stroke-linecap:butt;stroke-linejoin:miter;stroke-opacity:1"/>
<path class="bond-7 atom-7 atom-8" d="M 292.6,99.0 L 332.7,73.4" style="fill:none;fill-rule:evenodd;stroke:#000000;stroke-width:2.0px;stroke-linecap:butt;stroke-linejoin:miter;stroke-opacity:1"/>
<path class="bond-8 atom-6 atom-9" d="M 299.4,157.2 L 349.2,183.0" style="fill:none;fill-rule:evenodd;stroke:#000000;stroke-width:2.0px;stroke-linecap:butt;stroke-linejoin:miter;stroke-opacity:1"/>
<path class="bond-9 atom-9 atom-10" d="M 349.2,183.0 L 351.7,239.0" style="fill:none;fill-rule:evenodd;stroke:#000000;stroke-width:2.0px;stroke-linecap:butt;stroke-linejoin:miter;stroke-opacity:1"/>
<path class="bond-10 atom-10 atom-11" d="M 351.7,239.0 L 304.5,269.2" style="fill:none;fill-rule:evenodd;stroke:#000000;stroke-width:2.0px;stroke-linecap:butt;stroke-linejoin:miter;stroke-opacity:1"/>
<path class="bond-10 atom-10 atom-11" d="M 351.1,249.3 L 314.1,272.9" style="fill:none;fill-rule:evenodd;stroke:#000000;stroke-width:2.0px;stroke-linecap:butt;stroke-linejoin:miter;stroke-opacity:1"/>
<path class="bond-11 atom-11 atom-12" d="M 304.5,269.2 L 254.8,243.4" style="fill:none;fill-rule:evenodd;stroke:#000000;stroke-width:2.0px;stroke-linecap:butt;stroke-linejoin:miter;stroke-opacity:1"/>
<path class="bond-12 atom-12 atom-13" d="M 251.7,245.1 L 252.0,245.5" style="fill:none;fill-rule:evenodd;stroke:#000000;stroke-width:1.0px;stroke-linecap:butt;stroke-linejoin:miter;stroke-opacity:1"/>
<path class="bond-12 atom-12 atom-13" d="M 248.6,246.7 L 249.2,247.6" style="fill:none;fill-rule:evenodd;stroke:#000000;stroke-width:1.0px;stroke-linecap:butt;stroke-linejoin:miter;stroke-opacity:1"/>
<path class="bond-12 atom-12 atom-13" d="M 245.5,248.4 L 246.4,249.8" style="fill:none;fill-rule:evenodd;stroke:#000000;stroke-width:1.0px;stroke-linecap:butt;stroke-linejoin:miter;stroke-opacity:1"/>
<path class="bond-12 atom-12 atom-13" d="M 242.4,250.0 L 243.6,251.9" style="fill:none;fill-rule:evenodd;stroke:#000000;stroke-width:1.0px;stroke-linecap:butt;stroke-linejoin:miter;stroke-opacity:1"/>
<path class="bond-12 atom-12 atom-13" d="M 239.3,251.7 L 240.8,254.0" style="fill:none;fill-rule:evenodd;stroke:#000000;stroke-width:1.0px;stroke-linecap:butt;stroke-linejoin:miter;stroke-opacity:1"/>
<path class="bond-12 atom-12 atom-13" d="M 236.2,253.3 L 238.0,256.1" style="fill:none;fill-rule:evenodd;stroke:#000000;stroke-width:1.0px;stroke-linecap:butt;stroke-linejoin:miter;stroke-opacity:1"/>
<path class="bond-12 atom-12 atom-13" d="M 233.1,255.0 L 235.2,258.2" style="fill:none;fill-rule:evenodd;stroke:#000000;stroke-width:1.0px;stroke-linecap:butt;stroke-linejoin:miter;stroke-opacity:1"/>
<path class="bond-12 atom-12 atom-13" d="M 230.0,256.6 L 232.4,260.4" style="fill:none;fill-rule:evenodd;stroke:#000000;stroke-width:1.0px;stroke-linecap:butt;stroke-linejoin:miter;stroke-opacity:1"/>
<path class="bond-12 atom-12 atom-13" d="M 226.9,258.3 L 229.6,262.5" style="fill:none;fill-rule:evenodd;stroke:#000000;stroke-width:1.0px;stroke-linecap:butt;stroke-linejoin:miter;stroke-opacity:1"/>
<path class="bond-12 atom-12 atom-13" d="M 223.8,259.9 L 226.8,264.6" style="fill:none;fill-rule:evenodd;stroke:#000000;stroke-width:1.0px;stroke-linecap:butt;stroke-linejoin:miter;stroke-opacity:1"/>
<path class="bond-12 atom-12 atom-13" d="M 220.7,261.6 L 224.0,266.7" style="fill:none;fill-rule:evenodd;stroke:#000000;stroke-width:1.0px;stroke-linecap:butt;stroke-linejoin:miter;stroke-opacity:1"/>
<path class="bond-12 atom-12 atom-13" d="M 217.6,263.2 L 221.2,268.9" style="fill:none;fill-rule:evenodd;stroke:#000000;stroke-width:1.0px;stroke-linecap:butt;stroke-linejoin:miter;stroke-opacity:1"/>
<path class="bond-12 atom-12 atom-13" d="M 214.5,264.9 L 218.4,271.0" style="fill:none;fill-rule:evenodd;stroke:#000000;stroke-width:1.0px;stroke-linecap:butt;stroke-linejoin:miter;stroke-opacity:1"/>
<path class="bond-12 atom-12 atom-13" d="M 211.4,266.5 L 215.6,273.1" style="fill:none;fill-rule:evenodd;stroke:#000000;stroke-width:1.0px;stroke-linecap:butt;stroke-linejoin:miter;stroke-opacity:1"/>
<path class="bond-12 atom-12 atom-13" d="M 208.3,268.2 L 212.8,275.2" style="fill:none;fill-rule:evenodd;stroke:#000000;stroke-width:1.0px;stroke-linecap:butt;stroke-linejoin:miter;stroke-opacity:1"/>
<path class="bond-13 atom-13 atom-14" d="M 207.6,273.6 L 157.8,247.8" style="fill:none;fill-rule:evenodd;stroke:#000000;stroke-width:2.0px;stroke-linecap:butt;stroke-linejoin:miter;stroke-opacity:1"/>
<path class="bond-13 atom-13 atom-14" d="M 199.5,278.8 L 158.3,257.4" style="fill:none;fill-rule:evenodd;stroke:#000000;stroke-width:2.0px;stroke-linecap:butt;stroke-linejoin:miter;stroke-opacity:1"/>
<path class="bond-14 atom-14 atom-15" d="M 157.8,247.8 L 110.6,278.0" style="fill:none;fill-rule:evenodd;stroke:#000000;stroke-width:2.0px;stroke-linecap:butt;stroke-linejoin:miter;stroke-opacity:1"/>
<path class="bond-15 atom-15 atom-16" d="M 110.6,278.0 L 113.2,334.0" style="fill:none;fill-rule:evenodd;stroke:#000000;stroke-width:2.0px;stroke-linecap:butt;stroke-linejoin:miter;stroke-opacity:1"/>
<path class="bond-15 atom-15 atom-16" d="M 119.2,282.5 L 121.3,328.8" style="fill:none;fill-rule:evenodd;stroke:#000000;stroke-width:2.0px;stroke-linecap:butt;stroke-linejoin:miter;stroke-opacity:1"/>
<path class="bond-16 atom-16 atom-17" d="M 113.2,334.0 L 162.9,359.8" style="fill:none;fill-rule:evenodd;stroke:#000000;stroke-width:2.0px;stroke-linecap:butt;stroke-linejoin:miter;stroke-opacity:1"/>
<path class="bond-17 atom-17 atom-18" d="M 162.9,359.8 L 210.1,329.6" style="fill:none;fill-rule:evenodd;stroke:#000000;stroke-width:2.0px;stroke-linecap:butt;stroke-linejoin:miter;stroke-opacity:1"/>
<path class="bond-17 atom-17 atom-18" d="M 162.5,350.2 L 201.6,325.2" style="fill:none;fill-rule:evenodd;stroke:#000000;stroke-width:2.0px;stroke-linecap:butt;stroke-linejoin:miter;stroke-opacity:1"/>
<path class="bond-18 atom-16 atom-19" d="M 113.2,334.0 L 69.9,350.3" style="fill:none;fill-rule:evenodd;stroke:#000000;stroke-width:2.0px;stroke-linecap:butt;stroke-linejoin:miter;stroke-opacity:1"/>
<path class="bond-19 atom-19 atom-20" d="M 52.9,343.9 L 25.8,309.9" style="fill:none;fill-rule:evenodd;stroke:#000000;stroke-width:2.0px;stroke-linecap:butt;stroke-linejoin:miter;stroke-opacity:1"/>
<path class="bond-20 atom-20 atom-21" d="M 25.8,309.9 L 50.0,273.3" style="fill:none;fill-rule:evenodd;stroke:#000000;stroke-width:2.0px;stroke-linecap:butt;stroke-linejoin:miter;stroke-opacity:1"/>
<path class="bond-21 atom-11 atom-22" d="M 304.5,269.2 L 316.1,313.6" style="fill:none;fill-rule:evenodd;stroke:#000000;stroke-width:2.0px;stroke-linecap:butt;stroke-linejoin:miter;stroke-opacity:1"/>
<path class="bond-22 atom-22 atom-23" d="M 326.5,323.9 L 374.6,326.7" style="fill:none;fill-rule:evenodd;stroke:#000000;stroke-width:2.0px;stroke-linecap:butt;stroke-linejoin:miter;stroke-opacity:1"/>
<path class="bond-23 atom-23 atom-24" d="M 374.6,326.7 L 409.6,370.5" style="fill:none;fill-rule:evenodd;stroke:#000000;stroke-width:2.0px;stroke-linecap:butt;stroke-linejoin:miter;stroke-opacity:1"/>
<path class="bond-23 atom-23 atom-24" d="M 384.1,325.3 L 413.1,361.5" style="fill:none;fill-rule:evenodd;stroke:#000000;stroke-width:2.0px;stroke-linecap:butt;stroke-linejoin:miter;stroke-opacity:1"/>
<path class="bond-24 atom-24 atom-25" d="M 409.6,370.5 L 465.0,362.1" style="fill:none;fill-rule:evenodd;stroke:#000000;stroke-width:2.0px;stroke-linecap:butt;stroke-linejoin:miter;stroke-opacity:1"/>
<path class="bond-25 atom-25 atom-26" d="M 465.0,362.1 L 485.4,309.9" style="fill:none;fill-rule:evenodd;stroke:#000000;stroke-width:2.0px;stroke-linecap:butt;stroke-linejoin:miter;stroke-opacity:1"/>
<path class="bond-25 atom-25 atom-26" d="M 459.0,354.6 L 475.9,311.4" style="fill:none;fill-rule:evenodd;stroke:#000000;stroke-width:2.0px;stroke-linecap:butt;stroke-linejoin:miter;stroke-opacity:1"/>
<path class="bond-26 atom-26 atom-27" d="M 485.4,309.9 L 450.5,266.1" style="fill:none;fill-rule:evenodd;stroke:#000000;stroke-width:2.0px;stroke-linecap:butt;stroke-linejoin:miter;stroke-opacity:1"/>
<path class="bond-27 atom-27 atom-28" d="M 450.5,266.1 L 395.1,274.5" style="fill:none;fill-rule:evenodd;stroke:#000000;stroke-width:2.0px;stroke-linecap:butt;stroke-linejoin:miter;stroke-opacity:1"/>
<path class="bond-27 atom-27 atom-28" d="M 447.0,275.1 L 401.1,282.1" style="fill:none;fill-rule:evenodd;stroke:#000000;stroke-width:2.0px;stroke-linecap:butt;stroke-linejoin:miter;stroke-opacity:1"/>
<path class="bond-28 atom-7 atom-1" d="M 296.9,101.3 L 255.0,79.5" style="fill:none;fill-rule:evenodd;stroke:#000000;stroke-width:2.0px;stroke-linecap:butt;stroke-linejoin:miter;stroke-opacity:1"/>
<path class="bond-29 atom-12 atom-5" d="M 254.8,243.4 L 252.7,197.2" style="fill:none;fill-rule:evenodd;stroke:#000000;stroke-width:2.0px;stroke-linecap:butt;stroke-linejoin:miter;stroke-opacity:1"/>
<path class="bond-30 atom-28 atom-10" d="M 395.1,274.5 L 351.7,239.0" style="fill:none;fill-rule:evenodd;stroke:#000000;stroke-width:2.0px;stroke-linecap:butt;stroke-linejoin:miter;stroke-opacity:1"/>
<path class="bond-31 atom-18 atom-13" d="M 210.1,329.6 L 207.6,273.6" style="fill:none;fill-rule:evenodd;stroke:#000000;stroke-width:2.0px;stroke-linecap:butt;stroke-linejoin:miter;stroke-opacity:1"/>
<path class="bond-32 atom-21 atom-15" d="M 65.7,265.7 L 110.6,278.0" style="fill:none;fill-rule:evenodd;stroke:#000000;stroke-width:2.0px;stroke-linecap:butt;stroke-linejoin:miter;stroke-opacity:1"/>
<path class="bond-33 atom-28 atom-23" d="M 395.1,274.5 L 374.6,326.7" style="fill:none;fill-rule:evenodd;stroke:#000000;stroke-width:2.0px;stroke-linecap:butt;stroke-linejoin:miter;stroke-opacity:1"/>
<path class="bond-34 atom-6 atom-29" d="M 299.4,157.2 L 274.2,148.9 L 278.1,141.5 Z" style="fill:#000000;fill-rule:evenodd;fill-opacity:1;stroke:#000000;stroke-width:0.5px;stroke-linecap:butt;stroke-linejoin:miter;stroke-miterlimit:10;stroke-opacity:1;"/>
<path d="M 201.9,104.4 L 199.9,105.7 L 200.1,108.5" style="fill:none;stroke:#000000;stroke-width:2.0px;stroke-linecap:butt;stroke-linejoin:miter;stroke-miterlimit:10;stroke-opacity:1;"/>
<path d="M 202.4,158.9 L 202.5,161.7 L 204.6,162.7" style="fill:none;stroke:#000000;stroke-width:2.0px;stroke-linecap:butt;stroke-linejoin:miter;stroke-miterlimit:10;stroke-opacity:1;"/>
<path d="M 297.0,104.1 L 296.9,101.3 L 294.8,100.2" style="fill:none;stroke:#000000;stroke-width:2.0px;stroke-linecap:butt;stroke-linejoin:miter;stroke-miterlimit:10;stroke-opacity:1;"/>
<path d="M 346.7,181.7 L 349.2,183.0 L 349.3,185.8" style="fill:none;stroke:#000000;stroke-width:2.0px;stroke-linecap:butt;stroke-linejoin:miter;stroke-miterlimit:10;stroke-opacity:1;"/>
<path d="M 257.3,244.7 L 254.8,243.4 L 254.7,241.1" style="fill:none;stroke:#000000;stroke-width:2.0px;stroke-linecap:butt;stroke-linejoin:miter;stroke-miterlimit:10;stroke-opacity:1;"/>
<path d="M 205.1,272.3 L 207.6,273.6 L 207.7,276.4" style="fill:none;stroke:#000000;stroke-width:2.0px;stroke-linecap:butt;stroke-linejoin:miter;stroke-miterlimit:10;stroke-opacity:1;"/>
<path d="M 160.3,249.1 L 157.8,247.8 L 155.5,249.3" style="fill:none;stroke:#000000;stroke-width:2.0px;stroke-linecap:butt;stroke-linejoin:miter;stroke-miterlimit:10;stroke-opacity:1;"/>
<path d="M 160.5,358.5 L 162.9,359.8 L 165.3,358.3" style="fill:none;stroke:#000000;stroke-width:2.0px;stroke-linecap:butt;stroke-linejoin:miter;stroke-miterlimit:10;stroke-opacity:1;"/>
<path d="M 207.8,331.1 L 210.1,329.6 L 210.0,326.8" style="fill:none;stroke:#000000;stroke-width:2.0px;stroke-linecap:butt;stroke-linejoin:miter;stroke-miterlimit:10;stroke-opacity:1;"/>
<path d="M 27.1,311.6 L 25.8,309.9 L 27.0,308.1" style="fill:none;stroke:#000000;stroke-width:2.0px;stroke-linecap:butt;stroke-linejoin:miter;stroke-miterlimit:10;stroke-opacity:1;"/>
<path d="M 407.8,368.3 L 409.6,370.5 L 412.4,370.1" style="fill:none;stroke:#000000;stroke-width:2.0px;stroke-linecap:butt;stroke-linejoin:miter;stroke-miterlimit:10;stroke-opacity:1;"/>
<path d="M 462.2,362.5 L 465.0,362.1 L 466.0,359.5" style="fill:none;stroke:#000000;stroke-width:2.0px;stroke-linecap:butt;stroke-linejoin:miter;stroke-miterlimit:10;stroke-opacity:1;"/>
<path d="M 484.4,312.5 L 485.4,309.9 L 483.7,307.7" style="fill:none;stroke:#000000;stroke-width:2.0px;stroke-linecap:butt;stroke-linejoin:miter;stroke-miterlimit:10;stroke-opacity:1;"/>
<path d="M 452.2,268.3 L 450.5,266.1 L 447.7,266.6" style="fill:none;stroke:#000000;stroke-width:2.0px;stroke-linecap:butt;stroke-linejoin:miter;stroke-miterlimit:10;stroke-opacity:1;"/>
<path class="atom-1" d="M 243.6 67.5 L 248.8 75.9 Q 249.3 76.8, 250.2 78.3 Q 251.0 79.8, 251.0 79.9 L 251.0 67.5 L 253.1 67.5 L 253.1 83.4 L 251.0 83.4 L 245.4 74.2 Q 244.7 73.1, 244.0 71.9 Q 243.4 70.7, 243.2 70.3 L 243.2 83.4 L 241.1 83.4 L 241.1 67.5 L 243.6 67.5 " fill="#000000"/>
<path class="atom-4" d="M 148.0 191.9 Q 148.0 188.1, 149.9 186.0 Q 151.8 183.8, 155.3 183.8 Q 158.8 183.8, 160.7 186.0 Q 162.6 188.1, 162.6 191.9 Q 162.6 195.8, 160.7 197.9 Q 158.8 200.1, 155.3 200.1 Q 151.8 200.1, 149.9 197.9 Q 148.0 195.8, 148.0 191.9 M 155.3 198.3 Q 157.7 198.3, 159.0 196.7 Q 160.3 195.1, 160.3 191.9 Q 160.3 188.8, 159.0 187.2 Q 157.7 185.6, 155.3 185.6 Q 152.9 185.6, 151.5 187.2 Q 150.2 188.8, 150.2 191.9 Q 150.2 195.1, 151.5 196.7 Q 152.9 198.3, 155.3 198.3 " fill="#000000"/>
<path class="atom-5" d="M 248.7 179.5 L 253.9 187.9 Q 254.4 188.7, 255.3 190.2 Q 256.1 191.7, 256.1 191.8 L 256.1 179.5 L 258.3 179.5 L 258.3 195.4 L 256.1 195.4 L 250.5 186.2 Q 249.9 185.1, 249.2 183.9 Q 248.5 182.6, 248.3 182.3 L 248.3 195.4 L 246.2 195.4 L 246.2 179.5 L 248.7 179.5 " fill="#000000"/>
<path class="atom-8" d="M 336.8 71.1 Q 336.8 67.3, 338.7 65.2 Q 340.6 63.0, 344.1 63.0 Q 347.6 63.0, 349.5 65.2 Q 351.4 67.3, 351.4 71.1 Q 351.4 75.0, 349.5 77.1 Q 347.6 79.3, 344.1 79.3 Q 340.6 79.3, 338.7 77.1 Q 336.8 75.0, 336.8 71.1 M 344.1 77.5 Q 346.5 77.5, 347.8 75.9 Q 349.1 74.3, 349.1 71.1 Q 349.1 68.0, 347.8 66.4 Q 346.5 64.8, 344.1 64.8 Q 341.7 64.8, 340.3 66.4 Q 339.0 68.0, 339.0 71.1 Q 339.0 74.3, 340.3 75.9 Q 341.7 77.5, 344.1 77.5 " fill="#000000"/>
<path class="atom-19" d="M 53.5 353.8 Q 53.5 350.0, 55.3 347.8 Q 57.2 345.7, 60.7 345.7 Q 64.3 345.7, 66.1 347.8 Q 68.0 350.0, 68.0 353.8 Q 68.0 357.6, 66.1 359.8 Q 64.2 362.0, 60.7 362.0 Q 57.2 362.0, 55.3 359.8 Q 53.5 357.7, 53.5 353.8 M 60.7 360.2 Q 63.2 360.2, 64.5 358.6 Q 65.8 357.0, 65.8 353.8 Q 65.8 350.7, 64.5 349.1 Q 63.2 347.5, 60.7 347.5 Q 58.3 347.5, 57.0 349.1 Q 55.7 350.6, 55.7 353.8 Q 55.7 357.0, 57.0 358.6 Q 58.3 360.2, 60.7 360.2 " fill="#000000"/>
<path class="atom-21" d="M 49.3 263.2 Q 49.3 259.4, 51.2 257.3 Q 53.1 255.1, 56.6 255.1 Q 60.1 255.1, 62.0 257.3 Q 63.9 259.4, 63.9 263.2 Q 63.9 267.1, 62.0 269.3 Q 60.1 271.4, 56.6 271.4 Q 53.1 271.4, 51.2 269.3 Q 49.3 267.1, 49.3 263.2 M 56.6 269.6 Q 59.0 269.6, 60.3 268.0 Q 61.7 266.4, 61.7 263.2 Q 61.7 260.1, 60.3 258.5 Q 59.0 256.9, 56.6 256.9 Q 54.2 256.9, 52.9 258.5 Q 51.6 260.1, 51.6 263.2 Q 51.6 266.4, 52.9 268.0 Q 54.2 269.6, 56.6 269.6 " fill="#000000"/>
<path class="atom-22" d="M 297.1 315.5 L 299.3 315.5 L 299.3 322.2 L 307.4 322.2 L 307.4 315.5 L 309.5 315.5 L 309.5 331.3 L 307.4 331.3 L 307.4 324.0 L 299.3 324.0 L 299.3 331.3 L 297.1 331.3 L 297.1 315.5 " fill="#000000"/>
<path class="atom-22" d="M 315.2 315.5 L 320.4 323.9 Q 320.9 324.7, 321.7 326.2 Q 322.5 327.7, 322.6 327.8 L 322.6 315.5 L 324.7 315.5 L 324.7 331.3 L 322.5 331.3 L 316.9 322.1 Q 316.3 321.1, 315.6 319.8 Q 314.9 318.6, 314.7 318.2 L 314.7 331.3 L 312.7 331.3 L 312.7 315.5 L 315.2 315.5 " fill="#000000"/>
<path class="atom-29" d="M 260.1 132.1 L 262.2 132.1 L 262.2 138.9 L 270.3 138.9 L 270.3 132.1 L 272.5 132.1 L 272.5 148.0 L 270.3 148.0 L 270.3 140.7 L 262.2 140.7 L 262.2 148.0 L 260.1 148.0 L 260.1 132.1 " fill="#000000"/>
</svg>