<?xml version='1.0' encoding='utf-8'?>
<svg xmlns="http://www.w3.org/2000/svg" xmlns:rdkit="http://www.rdkit.org/xml" xmlns:xlink="http://www.w3.org/1999/xlink" version="1.1" baseProfile="full" xml:space="preserve" width="512px" height="254px" viewBox="0 0 512 254">

<rect style="opacity:1.0;fill:#FFFFFF;stroke:none" width="512.0" height="254.0" x="0.0" y="0.0"> </rect>
<path class="bond-0 atom-0 atom-1" d="M 75.2,63.7 L 102.8,98.1" style="fill:none;fill-rule:evenodd;stroke:#000000;stroke-width:2.0px;stroke-linecap:butt;stroke-linejoin:miter;stroke-opacity:1"/>
<path class="bond-1 atom-1 atom-2" d="M 106.8,117.9 L 93.9,151.0" style="fill:none;fill-rule:evenodd;stroke:#000000;stroke-width:2.0px;stroke-linecap:butt;stroke-linejoin:miter;stroke-opacity:1"/>
<path class="bond-2 atom-2 atom-3" d="M 81.5,157.9 L 42.6,163.8" style="fill:none;fill-rule:evenodd;stroke:#000000;stroke-width:2.0px;stroke-linecap:butt;stroke-linejoin:miter;stroke-opacity:1"/>
<path class="bond-2 atom-2 atom-3" d="M 82.7,166.3 L 43.9,172.2" style="fill:none;fill-rule:evenodd;stroke:#000000;stroke-width:2.0px;stroke-linecap:butt;stroke-linejoin:miter;stroke-opacity:1"/>
<path class="bond-3 atom-1 atom-4" d="M 118.7,106.8 L 166.8,99.4" style="fill:none;fill-rule:evenodd;stroke:#000000;stroke-width:2.0px;stroke-linecap:butt;stroke-linejoin:miter;stroke-opacity:1"/>
<path class="bond-4 atom-4 atom-5" d="M 169.9,103.3 L 187.4,58.3" style="fill:none;fill-rule:evenodd;stroke:#000000;stroke-width:2.0px;stroke-linecap:butt;stroke-linejoin:miter;stroke-opacity:1"/>
<path class="bond-4 atom-4 atom-5" d="M 161.9,100.2 L 179.5,55.3" style="fill:none;fill-rule:evenodd;stroke:#000000;stroke-width:2.0px;stroke-linecap:butt;stroke-linejoin:miter;stroke-opacity:1"/>
<path class="bond-5 atom-4 atom-6" d="M 166.8,99.4 L 194.3,133.8" style="fill:none;fill-rule:evenodd;stroke:#000000;stroke-width:2.0px;stroke-linecap:butt;stroke-linejoin:miter;stroke-opacity:1"/>
<path class="bond-6 atom-6 atom-7" d="M 210.2,142.5 L 258.4,135.1" style="fill:none;fill-rule:evenodd;stroke:#000000;stroke-width:2.0px;stroke-linecap:butt;stroke-linejoin:miter;stroke-opacity:1"/>
<path class="bond-7 atom-7 atom-8" d="M 258.4,135.1 L 279.0,82.3" style="fill:none;fill-rule:evenodd;stroke:#000000;stroke-width:2.0px;stroke-linecap:butt;stroke-linejoin:miter;stroke-opacity:1"/>
<path class="bond-8 atom-8 atom-9" d="M 279.0,82.3 L 335.1,73.7" style="fill:none;fill-rule:evenodd;stroke:#000000;stroke-width:2.0px;stroke-linecap:butt;stroke-linejoin:miter;stroke-opacity:1"/>
<path class="bond-9 atom-9 atom-10" d="M 335.1,73.7 L 370.6,118.0" style="fill:none;fill-rule:evenodd;stroke:#000000;stroke-width:2.0px;stroke-linecap:butt;stroke-linejoin:miter;stroke-opacity:1"/>
<path class="bond-10 atom-10 atom-11" d="M 370.6,118.0 L 353.9,160.9" style="fill:none;fill-rule:evenodd;stroke:#000000;stroke-width:2.0px;stroke-linecap:butt;stroke-linejoin:miter;stroke-opacity:1"/>
<path class="bond-11 atom-11 atom-12" d="M 340.7,172.3 L 293.9,179.4" style="fill:none;fill-rule:evenodd;stroke:#000000;stroke-width:2.0px;stroke-linecap:butt;stroke-linejoin:miter;stroke-opacity:1"/>
<path class="bond-12 atom-12 atom-13" d="M 293.9,179.4 L 277.1,222.3" style="fill:none;fill-rule:evenodd;stroke:#000000;stroke-width:2.0px;stroke-linecap:butt;stroke-linejoin:miter;stroke-opacity:1"/>
<path class="bond-13 atom-10 atom-14" d="M 370.6,118.0 L 426.7,109.4" style="fill:none;fill-rule:evenodd;stroke:#000000;stroke-width:2.0px;stroke-linecap:butt;stroke-linejoin:miter;stroke-opacity:1"/>
<path class="bond-14 atom-14 atom-15" d="M 426.7,109.4 L 454.2,143.7" style="fill:none;fill-rule:evenodd;stroke:#000000;stroke-width:2.0px;stroke-linecap:butt;stroke-linejoin:miter;stroke-opacity:1"/>
<path class="bond-15 atom-9 atom-16" d="M 335.1,73.7 L 351.7,31.1" style="fill:none;fill-rule:evenodd;stroke:#000000;stroke-width:2.0px;stroke-linecap:butt;stroke-linejoin:miter;stroke-opacity:1"/>
<path class="bond-16 atom-8 atom-17" d="M 279.0,82.3 L 251.7,48.2" style="fill:none;fill-rule:evenodd;stroke:#000000;stroke-width:2.0px;stroke-linecap:butt;stroke-linejoin:miter;stroke-opacity:1"/>
<path class="bond-17 atom-12 atom-7" d="M 293.9,179.4 L 258.4,135.1" style="fill:none;fill-rule:evenodd;stroke:#000000;stroke-width:2.0px;stroke-linecap:butt;stroke-linejoin:miter;stroke-opacity:1"/>
<path d="M 164.4,99.8 L 166.8,99.4 L 168.2,101.1" style="fill:none;stroke:#000000;stroke-width:2.0px;stroke-linecap:butt;stroke-linejoin:miter;stroke-miterlimit:10;stroke-opacity:1;"/>
<path d="M 423.9,109.9 L 426.7,109.4 L 428.1,111.1" style="fill:none;stroke:#000000;stroke-width:2.0px;stroke-linecap:butt;stroke-linejoin:miter;stroke-miterlimit:10;stroke-opacity:1;"/>
<path class="atom-1" d="M 107.1 100.0 L 112.4 108.5 Q 112.9 109.3, 113.8 110.8 Q 114.6 112.4, 114.7 112.4 L 114.7 100.0 L 116.8 100.0 L 116.8 116.0 L 114.6 116.0 L 108.9 106.7 Q 108.3 105.6, 107.6 104.4 Q 106.9 103.1, 106.7 102.8 L 106.7 116.0 L 104.6 116.0 L 104.6 100.0 L 107.1 100.0 " fill="#000000"/>
<path class="atom-2" d="M 86.5 152.8 L 91.8 161.3 Q 92.3 162.2, 93.1 163.7 Q 94.0 165.2, 94.0 165.3 L 94.0 152.8 L 96.2 152.8 L 96.2 168.9 L 94.0 168.9 L 88.3 159.6 Q 87.6 158.5, 86.9 157.3 Q 86.3 156.0, 86.1 155.6 L 86.1 168.9 L 84.0 168.9 L 84.0 152.8 L 86.5 152.8 " fill="#000000"/>
<path class="atom-3" d="M 26.6 169.5 Q 26.6 165.6, 28.5 163.5 Q 30.4 161.3, 34.0 161.3 Q 37.5 161.3, 39.4 163.5 Q 41.3 165.6, 41.3 169.5 Q 41.3 173.4, 39.4 175.6 Q 37.5 177.8, 34.0 177.8 Q 30.4 177.8, 28.5 175.6 Q 26.6 173.4, 26.6 169.5 M 34.0 176.0 Q 36.4 176.0, 37.7 174.4 Q 39.1 172.7, 39.1 169.5 Q 39.1 166.3, 37.7 164.7 Q 36.4 163.1, 34.0 163.1 Q 31.5 163.1, 30.2 164.7 Q 28.9 166.3, 28.9 169.5 Q 28.9 172.7, 30.2 174.4 Q 31.5 176.0, 34.0 176.0 " fill="#000000"/>
<path class="atom-5" d="M 180.0 46.6 Q 180.0 42.7, 181.9 40.6 Q 183.9 38.4, 187.4 38.4 Q 191.0 38.4, 192.9 40.6 Q 194.8 42.7, 194.8 46.6 Q 194.8 50.5, 192.9 52.7 Q 190.9 54.9, 187.4 54.9 Q 183.9 54.9, 181.9 52.7 Q 180.0 50.5, 180.0 46.6 M 187.4 53.1 Q 189.9 53.1, 191.2 51.5 Q 192.5 49.8, 192.5 46.6 Q 192.5 43.4, 191.2 41.9 Q 189.9 40.2, 187.4 40.2 Q 185.0 40.2, 183.6 41.8 Q 182.3 43.4, 182.3 46.6 Q 182.3 49.8, 183.6 51.5 Q 185.0 53.1, 187.4 53.1 " fill="#000000"/>
<path class="atom-6" d="M 180.4 135.7 L 182.6 135.7 L 182.6 142.5 L 190.8 142.5 L 190.8 135.7 L 193.0 135.7 L 193.0 151.8 L 190.8 151.8 L 190.8 144.3 L 182.6 144.3 L 182.6 151.8 L 180.4 151.8 L 180.4 135.7 " fill="#000000"/>
<path class="atom-6" d="M 198.7 135.7 L 204.0 144.2 Q 204.5 145.0, 205.3 146.6 Q 206.2 148.1, 206.2 148.2 L 206.2 135.7 L 208.4 135.7 L 208.4 151.8 L 206.2 151.8 L 200.5 142.5 Q 199.9 141.4, 199.1 140.1 Q 198.5 138.9, 198.3 138.5 L 198.3 151.8 L 196.2 151.8 L 196.2 135.7 L 198.7 135.7 " fill="#000000"/>
<path class="atom-11" d="M 342.6 170.9 Q 342.6 167.1, 344.5 164.9 Q 346.4 162.7, 350.0 162.7 Q 353.5 162.7, 355.4 164.9 Q 357.3 167.1, 357.3 170.9 Q 357.3 174.8, 355.4 177.0 Q 353.5 179.3, 350.0 179.3 Q 346.4 179.3, 344.5 177.0 Q 342.6 174.8, 342.6 170.9 M 350.0 177.4 Q 352.4 177.4, 353.7 175.8 Q 355.1 174.1, 355.1 170.9 Q 355.1 167.8, 353.7 166.2 Q 352.4 164.6, 350.0 164.6 Q 347.5 164.6, 346.2 166.2 Q 344.8 167.7, 344.8 170.9 Q 344.8 174.2, 346.2 175.8 Q 347.5 177.4, 350.0 177.4 " fill="#000000"/>
<path class="atom-13" d="M 250.0 224.4 L 252.2 224.4 L 252.2 231.2 L 260.4 231.2 L 260.4 224.4 L 262.6 224.4 L 262.6 240.5 L 260.4 240.5 L 260.4 233.0 L 252.2 233.0 L 252.2 240.5 L 250.0 240.5 L 250.0 224.4 " fill="#000000"/>
<path class="atom-13" d="M 265.8 232.4 Q 265.8 228.5, 267.8 226.4 Q 269.7 224.2, 273.2 224.2 Q 276.8 224.2, 278.7 226.4 Q 280.6 228.5, 280.6 232.4 Q 280.6 236.3, 278.7 238.5 Q 276.7 240.7, 273.2 240.7 Q 269.7 240.7, 267.8 238.5 Q 265.8 236.3, 265.8 232.4 M 273.2 238.9 Q 275.7 238.9, 277.0 237.2 Q 278.3 235.6, 278.3 232.4 Q 278.3 229.2, 277.0 227.6 Q 275.7 226.0, 273.2 226.0 Q 270.8 226.0, 269.4 227.6 Q 268.1 229.2, 268.1 232.4 Q 268.1 235.6, 269.4 237.2 Q 270.8 238.9, 273.2 238.9 " fill="#000000"/>
<path class="atom-15" d="M 454.8 153.8 Q 454.8 149.9, 456.7 147.8 Q 458.6 145.6, 462.2 145.6 Q 465.7 145.6, 467.6 147.8 Q 469.5 149.9, 469.5 153.8 Q 469.5 157.7, 467.6 159.9 Q 465.7 162.1, 462.2 162.1 Q 458.6 162.1, 456.7 159.9 Q 454.8 157.7, 454.8 153.8 M 462.2 160.3 Q 464.6 160.3, 465.9 158.7 Q 467.3 157.0, 467.3 153.8 Q 467.3 150.6, 465.9 149.0 Q 464.6 147.4, 462.2 147.4 Q 459.7 147.4, 458.4 149.0 Q 457.1 150.6, 457.1 153.8 Q 457.1 157.0, 458.4 158.7 Q 459.7 160.3, 462.2 160.3 " fill="#000000"/>
<path class="atom-15" d="M 472.0 145.8 L 474.2 145.8 L 474.2 152.6 L 482.4 152.6 L 482.4 145.8 L 484.6 145.8 L 484.6 161.9 L 482.4 161.9 L 482.4 154.4 L 474.2 154.4 L 474.2 161.9 L 472.0 161.9 L 472.0 145.8 " fill="#000000"/>
<path class="atom-16" d="M 348.4 20.9 Q 348.4 17.0, 350.3 14.9 Q 352.2 12.7, 355.7 12.7 Q 359.3 12.7, 361.2 14.9 Q 363.1 17.0, 363.1 20.9 Q 363.1 24.8, 361.2 27.0 Q 359.2 29.2, 355.7 29.2 Q 352.2 29.2, 350.3 27.0 Q 348.4 24.8, 348.4 20.9 M 355.7 27.4 Q 358.2 27.4, 359.5 25.8 Q 360.8 24.1, 360.8 20.9 Q 360.8 17.7, 359.5 16.1 Q 358.2 14.5, 355.7 14.5 Q 353.3 14.5, 351.9 16.1 Q 350.6 17.7, 350.6 20.9 Q 350.6 24.1, 351.9 25.8 Q 353.3 27.4, 355.7 27.4 " fill="#000000"/>
<path class="atom-16" d="M 365.6 12.9 L 367.8 12.9 L 367.8 19.7 L 376.0 19.7 L 376.0 12.9 L 378.2 12.9 L 378.2 29.0 L 376.0 29.0 L 376.0 21.5 L 367.8 21.5 L 367.8 29.0 L 365.6 29.0 L 365.6 12.9 " fill="#000000"/>
<path class="atom-17" d="M 220.3 30.0 L 222.5 30.0 L 222.5 36.9 L 230.7 36.9 L 230.7 30.0 L 232.8 30.0 L 232.8 46.1 L 230.7 46.1 L 230.7 38.7 L 222.5 38.7 L 222.5 46.1 L 220.3 46.1 L 220.3 30.0 " fill="#000000"/>
<path class="atom-17" d="M 236.1 38.0 Q 236.1 34.2, 238.1 32.0 Q 240.0 29.8, 243.5 29.8 Q 247.1 29.8, 249.0 32.0 Q 250.9 34.2, 250.9 38.0 Q 250.9 41.9, 249.0 44.2 Q 247.0 46.4, 243.5 46.4 Q 240.0 46.4, 238.1 44.2 Q 236.1 41.9, 236.1 38.0 M 243.5 44.5 Q 246.0 44.5, 247.3 42.9 Q 248.6 41.2, 248.6 38.0 Q 248.6 34.9, 247.3 33.3 Q 246.0 31.7, 243.5 31.7 Q 241.1 31.7, 239.7 33.3 Q 238.4 34.8, 238.4 38.0 Q 238.4 41.3, 239.7 42.9 Q 241.1 44.5, 243.5 44.5 " fill="#000000"/>
</svg>