<?xml version='1.0' encoding='utf-8'?>
<svg xmlns="http://www.w3.org/2000/svg" xmlns:rdkit="http://www.rdkit.org/xml" xmlns:xlink="http://www.w3.org/1999/xlink" version="1.1" baseProfile="full" xml:space="preserve" width="512px" height="262px" viewBox="0 0 512 262">

<rect style="opacity:1.0;fill:#FFFFFF;stroke:none" width="512.0" height="262.0" x="0.0" y="0.0"> </rect>
<path class="bond-0 atom-0 atom-1" d="M 485.1,162.5 L 468.3,132.9" style="fill:none;fill-rule:evenodd;stroke:#000000;stroke-width:2.0px;stroke-linecap:butt;stroke-linejoin:miter;stroke-opacity:1"/>
<path class="bond-1 atom-1 atom-2" d="M 456.9,125.1 L 420.9,124.8" style="fill:none;fill-rule:evenodd;stroke:#000000;stroke-width:2.0px;stroke-linecap:butt;stroke-linejoin:miter;stroke-opacity:1"/>
<path class="bond-2 atom-2 atom-3" d="M 420.9,124.8 L 399.2,161.9" style="fill:none;fill-rule:evenodd;stroke:#000000;stroke-width:2.0px;stroke-linecap:butt;stroke-linejoin:miter;stroke-opacity:1"/>
<path class="bond-2 atom-2 atom-3" d="M 413.5,124.8 L 395.5,155.4" style="fill:none;fill-rule:evenodd;stroke:#000000;stroke-width:2.0px;stroke-linecap:butt;stroke-linejoin:miter;stroke-opacity:1"/>
<path class="bond-3 atom-3 atom-4" d="M 399.2,161.9 L 356.3,161.6" style="fill:none;fill-rule:evenodd;stroke:#000000;stroke-width:2.0px;stroke-linecap:butt;stroke-linejoin:miter;stroke-opacity:1"/>
<path class="bond-4 atom-4 atom-5" d="M 356.3,161.6 L 335.1,124.2" style="fill:none;fill-rule:evenodd;stroke:#000000;stroke-width:2.0px;stroke-linecap:butt;stroke-linejoin:miter;stroke-opacity:1"/>
<path class="bond-5 atom-5 atom-6" d="M 335.1,124.2 L 356.8,87.2" style="fill:none;fill-rule:evenodd;stroke:#000000;stroke-width:2.0px;stroke-linecap:butt;stroke-linejoin:miter;stroke-opacity:1"/>
<path class="bond-6 atom-6 atom-7" d="M 356.8,87.2 L 399.7,87.5" style="fill:none;fill-rule:evenodd;stroke:#000000;stroke-width:2.0px;stroke-linecap:butt;stroke-linejoin:miter;stroke-opacity:1"/>
<path class="bond-6 atom-6 atom-7" d="M 360.5,93.6 L 396.0,93.9" style="fill:none;fill-rule:evenodd;stroke:#000000;stroke-width:2.0px;stroke-linecap:butt;stroke-linejoin:miter;stroke-opacity:1"/>
<path class="bond-7 atom-7 atom-8" d="M 399.7,87.5 L 416.9,58.2" style="fill:none;fill-rule:evenodd;stroke:#000000;stroke-width:2.0px;stroke-linecap:butt;stroke-linejoin:miter;stroke-opacity:1"/>
<path class="bond-8 atom-8 atom-9" d="M 417.2,42.9 L 400.2,13.1" style="fill:none;fill-rule:evenodd;stroke:#000000;stroke-width:2.0px;stroke-linecap:butt;stroke-linejoin:miter;stroke-opacity:1"/>
<path class="bond-9 atom-5 atom-10" d="M 335.1,124.2 L 298.2,124.0" style="fill:none;fill-rule:evenodd;stroke:#000000;stroke-width:2.0px;stroke-linecap:butt;stroke-linejoin:miter;stroke-opacity:1"/>
<path class="bond-9 atom-5 atom-10" d="M 331.3,130.6 L 298.1,130.4" style="fill:none;fill-rule:evenodd;stroke:#000000;stroke-width:2.0px;stroke-linecap:butt;stroke-linejoin:miter;stroke-opacity:1"/>
<path class="bond-10 atom-10 atom-11" d="M 287.7,131.4 L 270.4,161.0" style="fill:none;fill-rule:evenodd;stroke:#000000;stroke-width:2.0px;stroke-linecap:butt;stroke-linejoin:miter;stroke-opacity:1"/>
<path class="bond-11 atom-11 atom-12" d="M 270.4,161.0 L 287.3,190.8" style="fill:none;fill-rule:evenodd;stroke:#000000;stroke-width:2.0px;stroke-linecap:butt;stroke-linejoin:miter;stroke-opacity:1"/>
<path class="bond-11 atom-11 atom-12" d="M 277.8,161.0 L 292.9,187.6" style="fill:none;fill-rule:evenodd;stroke:#000000;stroke-width:2.0px;stroke-linecap:butt;stroke-linejoin:miter;stroke-opacity:1"/>
<path class="bond-12 atom-12 atom-13" d="M 297.6,198.3 L 334.5,198.6" style="fill:none;fill-rule:evenodd;stroke:#000000;stroke-width:2.0px;stroke-linecap:butt;stroke-linejoin:miter;stroke-opacity:1"/>
<path class="bond-13 atom-13 atom-14" d="M 334.5,198.6 L 351.5,228.4" style="fill:none;fill-rule:evenodd;stroke:#000000;stroke-width:2.0px;stroke-linecap:butt;stroke-linejoin:miter;stroke-opacity:1"/>
<path class="bond-14 atom-11 atom-15" d="M 270.4,161.0 L 233.5,160.7" style="fill:none;fill-rule:evenodd;stroke:#000000;stroke-width:2.0px;stroke-linecap:butt;stroke-linejoin:miter;stroke-opacity:1"/>
<path class="bond-15 atom-15 atom-16" d="M 223.2,153.2 L 206.2,123.3" style="fill:none;fill-rule:evenodd;stroke:#000000;stroke-width:2.0px;stroke-linecap:butt;stroke-linejoin:miter;stroke-opacity:1"/>
<path class="bond-16 atom-16 atom-17" d="M 206.2,123.3 L 163.3,123.0" style="fill:none;fill-rule:evenodd;stroke:#000000;stroke-width:2.0px;stroke-linecap:butt;stroke-linejoin:miter;stroke-opacity:1"/>
<path class="bond-17 atom-17 atom-18" d="M 163.3,123.0 L 146.0,152.6" style="fill:none;fill-rule:evenodd;stroke:#000000;stroke-width:2.0px;stroke-linecap:butt;stroke-linejoin:miter;stroke-opacity:1"/>
<path class="bond-18 atom-18 atom-19" d="M 145.8,167.6 L 162.8,197.4" style="fill:none;fill-rule:evenodd;stroke:#000000;stroke-width:2.0px;stroke-linecap:butt;stroke-linejoin:miter;stroke-opacity:1"/>
<path class="bond-19 atom-19 atom-20" d="M 162.8,197.4 L 205.7,197.7" style="fill:none;fill-rule:evenodd;stroke:#000000;stroke-width:2.0px;stroke-linecap:butt;stroke-linejoin:miter;stroke-opacity:1"/>
<path class="bond-20 atom-18 atom-21" d="M 135.5,160.0 L 98.6,159.8" style="fill:none;fill-rule:evenodd;stroke:#000000;stroke-width:2.0px;stroke-linecap:butt;stroke-linejoin:miter;stroke-opacity:1"/>
<path class="bond-21 atom-21 atom-22" d="M 96.8,156.5 L 78.6,187.6" style="fill:none;fill-rule:evenodd;stroke:#000000;stroke-width:2.0px;stroke-linecap:butt;stroke-linejoin:miter;stroke-opacity:1"/>
<path class="bond-21 atom-21 atom-22" d="M 102.3,159.8 L 84.1,190.9" style="fill:none;fill-rule:evenodd;stroke:#000000;stroke-width:2.0px;stroke-linecap:butt;stroke-linejoin:miter;stroke-opacity:1"/>
<path class="bond-22 atom-21 atom-23" d="M 98.6,159.8 L 77.4,122.4" style="fill:none;fill-rule:evenodd;stroke:#000000;stroke-width:2.0px;stroke-linecap:butt;stroke-linejoin:miter;stroke-opacity:1"/>
<path class="bond-23 atom-23 atom-24" d="M 77.4,122.4 L 34.7,117.7" style="fill:none;fill-rule:evenodd;stroke:#000000;stroke-width:2.0px;stroke-linecap:butt;stroke-linejoin:miter;stroke-opacity:1"/>
<path class="bond-23 atom-23 atom-24" d="M 73.5,115.5 L 40.1,111.8" style="fill:none;fill-rule:evenodd;stroke:#000000;stroke-width:2.0px;stroke-linecap:butt;stroke-linejoin:miter;stroke-opacity:1"/>
<path class="bond-24 atom-24 atom-25" d="M 34.7,117.7 L 26.1,75.6" style="fill:none;fill-rule:evenodd;stroke:#000000;stroke-width:2.0px;stroke-linecap:butt;stroke-linejoin:miter;stroke-opacity:1"/>
<path class="bond-25 atom-25 atom-26" d="M 26.1,75.6 L 63.4,54.4" style="fill:none;fill-rule:evenodd;stroke:#000000;stroke-width:2.0px;stroke-linecap:butt;stroke-linejoin:miter;stroke-opacity:1"/>
<path class="bond-25 atom-25 atom-26" d="M 33.3,78.9 L 62.5,62.3" style="fill:none;fill-rule:evenodd;stroke:#000000;stroke-width:2.0px;stroke-linecap:butt;stroke-linejoin:miter;stroke-opacity:1"/>
<path class="bond-26 atom-26 atom-27" d="M 63.4,54.4 L 88.1,76.9" style="fill:none;fill-rule:evenodd;stroke:#000000;stroke-width:2.0px;stroke-linecap:butt;stroke-linejoin:miter;stroke-opacity:1"/>
<path class="bond-27 atom-7 atom-2" d="M 399.7,87.5 L 420.9,124.8" style="fill:none;fill-rule:evenodd;stroke:#000000;stroke-width:2.0px;stroke-linecap:butt;stroke-linejoin:miter;stroke-opacity:1"/>
<path class="bond-28 atom-13 atom-4" d="M 334.5,198.6 L 356.3,161.6" style="fill:none;fill-rule:evenodd;stroke:#000000;stroke-width:2.0px;stroke-linecap:butt;stroke-linejoin:miter;stroke-opacity:1"/>
<path class="bond-28 atom-13 atom-4" d="M 330.9,192.1 L 348.8,161.5" style="fill:none;fill-rule:evenodd;stroke:#000000;stroke-width:2.0px;stroke-linecap:butt;stroke-linejoin:miter;stroke-opacity:1"/>
<path class="bond-29 atom-20 atom-15" d="M 205.7,197.7 L 223.1,168.2" style="fill:none;fill-rule:evenodd;stroke:#000000;stroke-width:2.0px;stroke-linecap:butt;stroke-linejoin:miter;stroke-opacity:1"/>
<path class="bond-30 atom-27 atom-23" d="M 91.6,91.1 L 77.4,122.4" style="fill:none;fill-rule:evenodd;stroke:#000000;stroke-width:2.0px;stroke-linecap:butt;stroke-linejoin:miter;stroke-opacity:1"/>
<path d="M 400.3,160.0 L 399.2,161.9 L 397.1,161.8" style="fill:none;stroke:#000000;stroke-width:2.0px;stroke-linecap:butt;stroke-linejoin:miter;stroke-miterlimit:10;stroke-opacity:1;"/>
<path d="M 355.7,89.0 L 356.8,87.2 L 358.9,87.2" style="fill:none;stroke:#000000;stroke-width:2.0px;stroke-linecap:butt;stroke-linejoin:miter;stroke-miterlimit:10;stroke-opacity:1;"/>
<path d="M 207.1,124.8 L 206.2,123.3 L 204.1,123.3" style="fill:none;stroke:#000000;stroke-width:2.0px;stroke-linecap:butt;stroke-linejoin:miter;stroke-miterlimit:10;stroke-opacity:1;"/>
<path d="M 165.4,123.0 L 163.3,123.0 L 162.4,124.5" style="fill:none;stroke:#000000;stroke-width:2.0px;stroke-linecap:butt;stroke-linejoin:miter;stroke-miterlimit:10;stroke-opacity:1;"/>
<path d="M 161.9,195.9 L 162.8,197.4 L 164.9,197.4" style="fill:none;stroke:#000000;stroke-width:2.0px;stroke-linecap:butt;stroke-linejoin:miter;stroke-miterlimit:10;stroke-opacity:1;"/>
<path d="M 203.6,197.7 L 205.7,197.7 L 206.6,196.2" style="fill:none;stroke:#000000;stroke-width:2.0px;stroke-linecap:butt;stroke-linejoin:miter;stroke-miterlimit:10;stroke-opacity:1;"/>
<path d="M 100.5,159.8 L 98.6,159.8 L 97.6,157.9" style="fill:none;stroke:#000000;stroke-width:2.0px;stroke-linecap:butt;stroke-linejoin:miter;stroke-miterlimit:10;stroke-opacity:1;"/>
<path d="M 36.9,117.9 L 34.7,117.7 L 34.3,115.6" style="fill:none;stroke:#000000;stroke-width:2.0px;stroke-linecap:butt;stroke-linejoin:miter;stroke-miterlimit:10;stroke-opacity:1;"/>
<path d="M 26.5,77.7 L 26.1,75.6 L 28.0,74.5" style="fill:none;stroke:#000000;stroke-width:2.0px;stroke-linecap:butt;stroke-linejoin:miter;stroke-miterlimit:10;stroke-opacity:1;"/>
<path d="M 61.6,55.4 L 63.4,54.4 L 64.7,55.5" style="fill:none;stroke:#000000;stroke-width:2.0px;stroke-linecap:butt;stroke-linejoin:miter;stroke-miterlimit:10;stroke-opacity:1;"/>
<path class="atom-1" d="M 458.3 125.1 Q 458.3 122.2, 459.8 120.6 Q 461.2 119.0, 463.9 119.0 Q 466.6 119.0, 468.0 120.6 Q 469.5 122.2, 469.5 125.1 Q 469.5 128.1, 468.0 129.8 Q 466.6 131.5, 463.9 131.5 Q 461.2 131.5, 459.8 129.8 Q 458.3 128.1, 458.3 125.1 M 463.9 130.1 Q 465.7 130.1, 466.7 128.8 Q 467.8 127.6, 467.8 125.1 Q 467.8 122.8, 466.7 121.6 Q 465.7 120.3, 463.9 120.3 Q 462.0 120.3, 461.0 121.5 Q 460.0 122.7, 460.0 125.1 Q 460.0 127.6, 461.0 128.8 Q 462.0 130.1, 463.9 130.1 " fill="#000000"/>
<path class="atom-8" d="M 415.9 50.5 Q 415.9 47.6, 417.3 45.9 Q 418.8 44.3, 421.5 44.3 Q 424.2 44.3, 425.6 45.9 Q 427.0 47.6, 427.0 50.5 Q 427.0 53.4, 425.6 55.1 Q 424.1 56.8, 421.5 56.8 Q 418.8 56.8, 417.3 55.1 Q 415.9 53.4, 415.9 50.5 M 421.5 55.4 Q 423.3 55.4, 424.3 54.2 Q 425.3 52.9, 425.3 50.5 Q 425.3 48.1, 424.3 46.9 Q 423.3 45.7, 421.5 45.7 Q 419.6 45.7, 418.6 46.9 Q 417.6 48.1, 417.6 50.5 Q 417.6 52.9, 418.6 54.2 Q 419.6 55.4, 421.5 55.4 " fill="#000000"/>
<path class="atom-10" d="M 289.4 117.8 L 293.4 124.3 Q 293.8 124.9, 294.4 126.1 Q 295.1 127.2, 295.1 127.3 L 295.1 117.8 L 296.7 117.8 L 296.7 130.0 L 295.1 130.0 L 290.8 123.0 Q 290.3 122.1, 289.8 121.2 Q 289.2 120.2, 289.1 120.0 L 289.1 130.0 L 287.5 130.0 L 287.5 117.8 L 289.4 117.8 " fill="#000000"/>
<path class="atom-12" d="M 288.9 192.2 L 292.9 198.7 Q 293.3 199.3, 293.9 200.5 Q 294.6 201.6, 294.6 201.7 L 294.6 192.2 L 296.2 192.2 L 296.2 204.4 L 294.6 204.4 L 290.3 197.3 Q 289.8 196.5, 289.2 195.6 Q 288.7 194.6, 288.6 194.3 L 288.6 204.4 L 287.0 204.4 L 287.0 192.2 L 288.9 192.2 " fill="#000000"/>
<path class="atom-14" d="M 353.1 229.9 L 357.1 236.3 Q 357.5 236.9, 358.1 238.1 Q 358.7 239.2, 358.8 239.3 L 358.8 229.9 L 360.4 229.9 L 360.4 242.0 L 358.7 242.0 L 354.4 235.0 Q 353.9 234.2, 353.4 233.2 Q 352.9 232.3, 352.7 232.0 L 352.7 242.0 L 351.2 242.0 L 351.2 229.9 L 353.1 229.9 " fill="#000000"/>
<path class="atom-14" d="M 362.7 229.9 L 364.3 229.9 L 364.3 235.0 L 370.6 235.0 L 370.6 229.9 L 372.2 229.9 L 372.2 242.0 L 370.6 242.0 L 370.6 236.4 L 364.3 236.4 L 364.3 242.0 L 362.7 242.0 L 362.7 229.9 " fill="#000000"/>
<path class="atom-14" d="M 374.6 241.6 Q 374.9 240.8, 375.6 240.4 Q 376.3 240.0, 377.3 240.0 Q 378.5 240.0, 379.2 240.6 Q 379.8 241.3, 379.8 242.5 Q 379.8 243.7, 379.0 244.8 Q 378.1 245.9, 376.3 247.2 L 380.0 247.2 L 380.0 248.1 L 374.6 248.1 L 374.6 247.3 Q 376.1 246.3, 377.0 245.5 Q 377.8 244.7, 378.3 244.0 Q 378.7 243.3, 378.7 242.5 Q 378.7 241.8, 378.3 241.3 Q 377.9 240.9, 377.3 240.9 Q 376.6 240.9, 376.2 241.2 Q 375.8 241.4, 375.5 242.0 L 374.6 241.6 " fill="#000000"/>
<path class="atom-15" d="M 224.8 154.6 L 228.7 161.0 Q 229.1 161.7, 229.8 162.8 Q 230.4 164.0, 230.4 164.0 L 230.4 154.6 L 232.1 154.6 L 232.1 166.8 L 230.4 166.8 L 226.1 159.7 Q 225.6 158.9, 225.1 157.9 Q 224.6 157.0, 224.4 156.7 L 224.4 166.8 L 222.8 166.8 L 222.8 154.6 L 224.8 154.6 " fill="#000000"/>
<path class="atom-18" d="M 138.9 154.0 L 142.9 160.4 Q 143.3 161.1, 143.9 162.2 Q 144.5 163.4, 144.6 163.4 L 144.6 154.0 L 146.2 154.0 L 146.2 166.2 L 144.5 166.2 L 140.2 159.1 Q 139.7 158.3, 139.2 157.3 Q 138.7 156.4, 138.5 156.1 L 138.5 166.2 L 137.0 166.2 L 137.0 154.0 L 138.9 154.0 " fill="#000000"/>
<path class="atom-22" d="M 71.3 196.9 Q 71.3 193.9, 72.8 192.3 Q 74.2 190.7, 76.9 190.7 Q 79.6 190.7, 81.0 192.3 Q 82.5 193.9, 82.5 196.9 Q 82.5 199.8, 81.0 201.5 Q 79.6 203.2, 76.9 203.2 Q 74.2 203.2, 72.8 201.5 Q 71.3 199.8, 71.3 196.9 M 76.9 201.8 Q 78.8 201.8, 79.7 200.5 Q 80.8 199.3, 80.8 196.9 Q 80.8 194.5, 79.7 193.3 Q 78.8 192.0, 76.9 192.0 Q 75.0 192.0, 74.0 193.2 Q 73.0 194.4, 73.0 196.9 Q 73.0 199.3, 74.0 200.5 Q 75.0 201.8, 76.9 201.8 " fill="#000000"/>
<path class="atom-27" d="M 89.6 83.4 Q 89.6 80.4, 91.0 78.8 Q 92.4 77.2, 95.1 77.2 Q 97.8 77.2, 99.3 78.8 Q 100.7 80.4, 100.7 83.4 Q 100.7 86.3, 99.3 88.0 Q 97.8 89.7, 95.1 89.7 Q 92.5 89.7, 91.0 88.0 Q 89.6 86.3, 89.6 83.4 M 95.1 88.3 Q 97.0 88.3, 98.0 87.1 Q 99.0 85.8, 99.0 83.4 Q 99.0 81.0, 98.0 79.8 Q 97.0 78.6, 95.1 78.6 Q 93.3 78.6, 92.3 79.8 Q 91.3 81.0, 91.3 83.4 Q 91.3 85.8, 92.3 87.1 Q 93.3 88.3, 95.1 88.3 " fill="#000000"/>
</svg>