<?xml version='1.0' encoding='utf-8'?>
<svg xmlns="http://www.w3.org/2000/svg" xmlns:rdkit="http://www.rdkit.org/xml" xmlns:xlink="http://www.w3.org/1999/xlink" version="1.1" baseProfile="full" xml:space="preserve" width="512px" height="321px" viewBox="0 0 512 321">

<rect style="opacity:1.0;fill:#FFFFFF;stroke:none" width="512.0" height="321.0" x="0.0" y="0.0"> </rect>
<path class="bond-0 atom-0 atom-1" d="M 26.0,197.1 L 47.6,202.7" style="fill:none;fill-rule:evenodd;stroke:#000000;stroke-width:2.0px;stroke-linecap:butt;stroke-linejoin:miter;stroke-opacity:1"/>
<path class="bond-1 atom-1 atom-2" d="M 47.6,202.7 L 63.3,186.8" style="fill:none;fill-rule:evenodd;stroke:#000000;stroke-width:2.0px;stroke-linecap:butt;stroke-linejoin:miter;stroke-opacity:1"/>
<path class="bond-2 atom-2 atom-3" d="M 63.3,186.8 L 85.0,192.4" style="fill:none;fill-rule:evenodd;stroke:#000000;stroke-width:2.0px;stroke-linecap:butt;stroke-linejoin:miter;stroke-opacity:1"/>
<path class="bond-3 atom-3 atom-4" d="M 85.0,192.4 L 100.7,176.5" style="fill:none;fill-rule:evenodd;stroke:#000000;stroke-width:2.0px;stroke-linecap:butt;stroke-linejoin:miter;stroke-opacity:1"/>
<path class="bond-4 atom-4 atom-5" d="M 100.7,176.5 L 122.3,182.1" style="fill:none;fill-rule:evenodd;stroke:#000000;stroke-width:2.0px;stroke-linecap:butt;stroke-linejoin:miter;stroke-opacity:1"/>
<path class="bond-5 atom-5 atom-6" d="M 122.3,182.1 L 138.0,166.1" style="fill:none;fill-rule:evenodd;stroke:#000000;stroke-width:2.0px;stroke-linecap:butt;stroke-linejoin:miter;stroke-opacity:1"/>
<path class="bond-6 atom-6 atom-7" d="M 138.0,166.1 L 159.7,171.7" style="fill:none;fill-rule:evenodd;stroke:#000000;stroke-width:2.0px;stroke-linecap:butt;stroke-linejoin:miter;stroke-opacity:1"/>
<path class="bond-7 atom-7 atom-8" d="M 159.7,171.7 L 175.4,155.8" style="fill:none;fill-rule:evenodd;stroke:#000000;stroke-width:2.0px;stroke-linecap:butt;stroke-linejoin:miter;stroke-opacity:1"/>
<path class="bond-8 atom-8 atom-9" d="M 175.4,155.8 L 197.0,161.4" style="fill:none;fill-rule:evenodd;stroke:#000000;stroke-width:2.0px;stroke-linecap:butt;stroke-linejoin:miter;stroke-opacity:1"/>
<path class="bond-9 atom-9 atom-10" d="M 197.0,161.4 L 212.7,145.5" style="fill:none;fill-rule:evenodd;stroke:#000000;stroke-width:2.0px;stroke-linecap:butt;stroke-linejoin:miter;stroke-opacity:1"/>
<path class="bond-10 atom-10 atom-11" d="M 212.7,145.5 L 206.7,123.9" style="fill:none;fill-rule:evenodd;stroke:#000000;stroke-width:2.0px;stroke-linecap:butt;stroke-linejoin:miter;stroke-opacity:1"/>
<path class="bond-10 atom-10 atom-11" d="M 215.5,142.7 L 211.6,128.8" style="fill:none;fill-rule:evenodd;stroke:#000000;stroke-width:2.0px;stroke-linecap:butt;stroke-linejoin:miter;stroke-opacity:1"/>
<path class="bond-11 atom-11 atom-12" d="M 206.7,123.9 L 222.4,108.0" style="fill:none;fill-rule:evenodd;stroke:#000000;stroke-width:2.0px;stroke-linecap:butt;stroke-linejoin:miter;stroke-opacity:1"/>
<path class="bond-12 atom-12 atom-13" d="M 222.4,108.0 L 244.1,113.6" style="fill:none;fill-rule:evenodd;stroke:#000000;stroke-width:2.0px;stroke-linecap:butt;stroke-linejoin:miter;stroke-opacity:1"/>
<path class="bond-12 atom-12 atom-13" d="M 223.5,111.8 L 241.3,116.4" style="fill:none;fill-rule:evenodd;stroke:#000000;stroke-width:2.0px;stroke-linecap:butt;stroke-linejoin:miter;stroke-opacity:1"/>
<path class="bond-13 atom-13 atom-14" d="M 244.1,113.6 L 250.0,135.2" style="fill:none;fill-rule:evenodd;stroke:#000000;stroke-width:2.0px;stroke-linecap:butt;stroke-linejoin:miter;stroke-opacity:1"/>
<path class="bond-14 atom-14 atom-15" d="M 250.0,135.2 L 234.3,151.1" style="fill:none;fill-rule:evenodd;stroke:#000000;stroke-width:2.0px;stroke-linecap:butt;stroke-linejoin:miter;stroke-opacity:1"/>
<path class="bond-14 atom-14 atom-15" d="M 246.2,134.2 L 233.3,147.3" style="fill:none;fill-rule:evenodd;stroke:#000000;stroke-width:2.0px;stroke-linecap:butt;stroke-linejoin:miter;stroke-opacity:1"/>
<path class="bond-15 atom-15 atom-16" d="M 234.3,151.1 L 229.5,133.6" style="fill:none;fill-rule:evenodd;stroke:#000000;stroke-width:2.0px;stroke-linecap:butt;stroke-linejoin:miter;stroke-opacity:1"/>
<path class="bond-16 atom-13 atom-17" d="M 244.1,113.6 L 259.6,103.4" style="fill:none;fill-rule:evenodd;stroke:#000000;stroke-width:2.0px;stroke-linecap:butt;stroke-linejoin:miter;stroke-opacity:1"/>
<path class="bond-17 atom-17 atom-18" d="M 262.9,97.3 L 263.7,78.9" style="fill:none;fill-rule:evenodd;stroke:#000000;stroke-width:2.0px;stroke-linecap:butt;stroke-linejoin:miter;stroke-opacity:1"/>
<path class="bond-18 atom-18 atom-19" d="M 263.7,78.9 L 244.9,66.9" style="fill:none;fill-rule:evenodd;stroke:#000000;stroke-width:2.0px;stroke-linecap:butt;stroke-linejoin:miter;stroke-opacity:1"/>
<path class="bond-19 atom-19 atom-20" d="M 244.9,66.9 L 245.9,44.5" style="fill:none;fill-rule:evenodd;stroke:#000000;stroke-width:2.0px;stroke-linecap:butt;stroke-linejoin:miter;stroke-opacity:1"/>
<path class="bond-20 atom-20 atom-21" d="M 245.9,44.5 L 227.0,32.5" style="fill:none;fill-rule:evenodd;stroke:#000000;stroke-width:2.0px;stroke-linecap:butt;stroke-linejoin:miter;stroke-opacity:1"/>
<path class="bond-21 atom-19 atom-22" d="M 244.9,66.9 L 225.0,77.2" style="fill:none;fill-rule:evenodd;stroke:#000000;stroke-width:2.0px;stroke-linecap:butt;stroke-linejoin:miter;stroke-opacity:1"/>
<path class="bond-22 atom-22 atom-23" d="M 225.0,77.2 L 206.2,65.2" style="fill:none;fill-rule:evenodd;stroke:#000000;stroke-width:2.0px;stroke-linecap:butt;stroke-linejoin:miter;stroke-opacity:1"/>
<path class="bond-23 atom-23 atom-24" d="M 206.2,65.2 L 186.3,75.5" style="fill:none;fill-rule:evenodd;stroke:#000000;stroke-width:2.0px;stroke-linecap:butt;stroke-linejoin:miter;stroke-opacity:1"/>
<path class="bond-24 atom-24 atom-25" d="M 186.3,75.5 L 167.5,63.4" style="fill:none;fill-rule:evenodd;stroke:#000000;stroke-width:2.0px;stroke-linecap:butt;stroke-linejoin:miter;stroke-opacity:1"/>
<path class="bond-25 atom-17 atom-26" d="M 265.9,103.8 L 280.2,115.2" style="fill:none;fill-rule:evenodd;stroke:#000000;stroke-width:2.0px;stroke-linecap:butt;stroke-linejoin:miter;stroke-opacity:1"/>
<path class="bond-26 atom-26 atom-27" d="M 280.2,115.2 L 272.4,136.2" style="fill:none;fill-rule:evenodd;stroke:#000000;stroke-width:2.0px;stroke-linecap:butt;stroke-linejoin:miter;stroke-opacity:1"/>
<path class="bond-27 atom-27 atom-28" d="M 272.4,136.2 L 286.6,153.4" style="fill:none;fill-rule:evenodd;stroke:#000000;stroke-width:2.0px;stroke-linecap:butt;stroke-linejoin:miter;stroke-opacity:1"/>
<path class="bond-27 atom-27 atom-28" d="M 276.3,135.5 L 288.0,149.7" style="fill:none;fill-rule:evenodd;stroke:#000000;stroke-width:2.0px;stroke-linecap:butt;stroke-linejoin:miter;stroke-opacity:1"/>
<path class="bond-28 atom-28 atom-29" d="M 286.6,153.4 L 308.7,149.8" style="fill:none;fill-rule:evenodd;stroke:#000000;stroke-width:2.0px;stroke-linecap:butt;stroke-linejoin:miter;stroke-opacity:1"/>
<path class="bond-29 atom-29 atom-30" d="M 308.7,149.8 L 319.0,169.6" style="fill:none;fill-rule:evenodd;stroke:#000000;stroke-width:2.0px;stroke-linecap:butt;stroke-linejoin:miter;stroke-opacity:1"/>
<path class="bond-30 atom-30 atom-31" d="M 319.0,169.6 L 303.3,185.5" style="fill:none;fill-rule:evenodd;stroke:#000000;stroke-width:2.0px;stroke-linecap:butt;stroke-linejoin:miter;stroke-opacity:1"/>
<path class="bond-30 atom-30 atom-31" d="M 314.8,169.0 L 302.6,181.3" style="fill:none;fill-rule:evenodd;stroke:#000000;stroke-width:2.0px;stroke-linecap:butt;stroke-linejoin:miter;stroke-opacity:1"/>
<path class="bond-31 atom-31 atom-32" d="M 303.3,185.5 L 286.1,176.9" style="fill:none;fill-rule:evenodd;stroke:#000000;stroke-width:2.0px;stroke-linecap:butt;stroke-linejoin:miter;stroke-opacity:1"/>
<path class="bond-32 atom-31 atom-33" d="M 303.3,185.5 L 307.0,207.6" style="fill:none;fill-rule:evenodd;stroke:#000000;stroke-width:2.0px;stroke-linecap:butt;stroke-linejoin:miter;stroke-opacity:1"/>
<path class="bond-33 atom-33 atom-34" d="M 307.0,207.6 L 289.7,221.8" style="fill:none;fill-rule:evenodd;stroke:#000000;stroke-width:2.0px;stroke-linecap:butt;stroke-linejoin:miter;stroke-opacity:1"/>
<path class="bond-33 atom-33 atom-34" d="M 303.2,206.2 L 288.9,218.1" style="fill:none;fill-rule:evenodd;stroke:#000000;stroke-width:2.0px;stroke-linecap:butt;stroke-linejoin:miter;stroke-opacity:1"/>
<path class="bond-34 atom-34 atom-35" d="M 289.7,221.8 L 268.0,216.2" style="fill:none;fill-rule:evenodd;stroke:#000000;stroke-width:2.0px;stroke-linecap:butt;stroke-linejoin:miter;stroke-opacity:1"/>
<path class="bond-35 atom-35 atom-36" d="M 270.1,216.7 L 263.1,198.8" style="fill:none;fill-rule:evenodd;stroke:#000000;stroke-width:2.0px;stroke-linecap:butt;stroke-linejoin:miter;stroke-opacity:1"/>
<path class="bond-35 atom-35 atom-36" d="M 266.9,218.0 L 259.8,200.1" style="fill:none;fill-rule:evenodd;stroke:#000000;stroke-width:2.0px;stroke-linecap:butt;stroke-linejoin:miter;stroke-opacity:1"/>
<path class="bond-36 atom-35 atom-37" d="M 268.0,216.2 L 256.0,235.1" style="fill:none;fill-rule:evenodd;stroke:#000000;stroke-width:2.0px;stroke-linecap:butt;stroke-linejoin:miter;stroke-opacity:1"/>
<path class="bond-37 atom-37 atom-38" d="M 256.0,235.1 L 270.2,252.3" style="fill:none;fill-rule:evenodd;stroke:#000000;stroke-width:2.0px;stroke-linecap:butt;stroke-linejoin:miter;stroke-opacity:1"/>
<path class="bond-38 atom-38 atom-39" d="M 270.2,252.3 L 291.0,244.2" style="fill:none;fill-rule:evenodd;stroke:#000000;stroke-width:2.0px;stroke-linecap:butt;stroke-linejoin:miter;stroke-opacity:1"/>
<path class="bond-39 atom-39 atom-40" d="M 291.0,244.2 L 309.9,256.2" style="fill:none;fill-rule:evenodd;stroke:#000000;stroke-width:2.0px;stroke-linecap:butt;stroke-linejoin:miter;stroke-opacity:1"/>
<path class="bond-39 atom-39 atom-40" d="M 290.7,248.0 L 306.4,258.0" style="fill:none;fill-rule:evenodd;stroke:#000000;stroke-width:2.0px;stroke-linecap:butt;stroke-linejoin:miter;stroke-opacity:1"/>
<path class="bond-40 atom-40 atom-41" d="M 309.9,256.2 L 308.9,278.5" style="fill:none;fill-rule:evenodd;stroke:#000000;stroke-width:2.0px;stroke-linecap:butt;stroke-linejoin:miter;stroke-opacity:1"/>
<path class="bond-41 atom-41 atom-42" d="M 308.9,278.5 L 308.1,297.0" style="fill:none;fill-rule:evenodd;stroke:#000000;stroke-width:2.0px;stroke-linecap:butt;stroke-linejoin:miter;stroke-opacity:1"/>
<path class="bond-41 atom-41 atom-42" d="M 312.3,278.7 L 311.5,297.1" style="fill:none;fill-rule:evenodd;stroke:#000000;stroke-width:2.0px;stroke-linecap:butt;stroke-linejoin:miter;stroke-opacity:1"/>
<path class="bond-41 atom-41 atom-42" d="M 305.5,278.4 L 304.6,296.8" style="fill:none;fill-rule:evenodd;stroke:#000000;stroke-width:2.0px;stroke-linecap:butt;stroke-linejoin:miter;stroke-opacity:1"/>
<path class="bond-42 atom-40 atom-43" d="M 309.9,256.2 L 329.7,245.9" style="fill:none;fill-rule:evenodd;stroke:#000000;stroke-width:2.0px;stroke-linecap:butt;stroke-linejoin:miter;stroke-opacity:1"/>
<path class="bond-43 atom-43 atom-44" d="M 329.7,245.9 L 346.4,237.2" style="fill:none;fill-rule:evenodd;stroke:#000000;stroke-width:2.0px;stroke-linecap:butt;stroke-linejoin:miter;stroke-opacity:1"/>
<path class="bond-43 atom-43 atom-44" d="M 328.2,242.8 L 344.8,234.1" style="fill:none;fill-rule:evenodd;stroke:#000000;stroke-width:2.0px;stroke-linecap:butt;stroke-linejoin:miter;stroke-opacity:1"/>
<path class="bond-43 atom-43 atom-44" d="M 331.3,248.9 L 348.0,240.3" style="fill:none;fill-rule:evenodd;stroke:#000000;stroke-width:2.0px;stroke-linecap:butt;stroke-linejoin:miter;stroke-opacity:1"/>
<path class="bond-44 atom-38 atom-45" d="M 270.2,252.3 L 262.4,273.3" style="fill:none;fill-rule:evenodd;stroke:#000000;stroke-width:2.0px;stroke-linecap:butt;stroke-linejoin:miter;stroke-opacity:1"/>
<path class="bond-44 atom-38 atom-45" d="M 266.3,253.0 L 259.8,270.2" style="fill:none;fill-rule:evenodd;stroke:#000000;stroke-width:2.0px;stroke-linecap:butt;stroke-linejoin:miter;stroke-opacity:1"/>
<path class="bond-45 atom-45 atom-46" d="M 262.4,273.3 L 240.3,277.0" style="fill:none;fill-rule:evenodd;stroke:#000000;stroke-width:2.0px;stroke-linecap:butt;stroke-linejoin:miter;stroke-opacity:1"/>
<path class="bond-46 atom-46 atom-47" d="M 240.3,277.0 L 226.1,259.7" style="fill:none;fill-rule:evenodd;stroke:#000000;stroke-width:2.0px;stroke-linecap:butt;stroke-linejoin:miter;stroke-opacity:1"/>
<path class="bond-46 atom-46 atom-47" d="M 241.7,273.2 L 230.0,259.0" style="fill:none;fill-rule:evenodd;stroke:#000000;stroke-width:2.0px;stroke-linecap:butt;stroke-linejoin:miter;stroke-opacity:1"/>
<path class="bond-47 atom-47 atom-48" d="M 226.1,259.7 L 233.9,238.7" style="fill:none;fill-rule:evenodd;stroke:#000000;stroke-width:2.0px;stroke-linecap:butt;stroke-linejoin:miter;stroke-opacity:1"/>
<path class="bond-48 atom-29 atom-49" d="M 308.7,149.8 L 316.5,128.8" style="fill:none;fill-rule:evenodd;stroke:#000000;stroke-width:2.0px;stroke-linecap:butt;stroke-linejoin:miter;stroke-opacity:1"/>
<path class="bond-48 atom-29 atom-49" d="M 306.1,146.7 L 312.6,129.5" style="fill:none;fill-rule:evenodd;stroke:#000000;stroke-width:2.0px;stroke-linecap:butt;stroke-linejoin:miter;stroke-opacity:1"/>
<path class="bond-49 atom-49 atom-50" d="M 316.5,128.8 L 302.3,111.5" style="fill:none;fill-rule:evenodd;stroke:#000000;stroke-width:2.0px;stroke-linecap:butt;stroke-linejoin:miter;stroke-opacity:1"/>
<path class="bond-50 atom-50 atom-51" d="M 302.3,111.5 L 311.8,96.6" style="fill:none;fill-rule:evenodd;stroke:#000000;stroke-width:2.0px;stroke-linecap:butt;stroke-linejoin:miter;stroke-opacity:1"/>
<path class="bond-51 atom-51 atom-52" d="M 312.8,88.8 L 306.2,71.9" style="fill:none;fill-rule:evenodd;stroke:#000000;stroke-width:2.0px;stroke-linecap:butt;stroke-linejoin:miter;stroke-opacity:1"/>
<path class="bond-52 atom-52 atom-53" d="M 306.2,71.9 L 320.1,54.4" style="fill:none;fill-rule:evenodd;stroke:#000000;stroke-width:2.0px;stroke-linecap:butt;stroke-linejoin:miter;stroke-opacity:1"/>
<path class="bond-53 atom-53 atom-54" d="M 320.1,54.4 L 311.9,33.5" style="fill:none;fill-rule:evenodd;stroke:#000000;stroke-width:2.0px;stroke-linecap:butt;stroke-linejoin:miter;stroke-opacity:1"/>
<path class="bond-54 atom-54 atom-55" d="M 311.9,33.5 L 325.9,16.1" style="fill:none;fill-rule:evenodd;stroke:#000000;stroke-width:2.0px;stroke-linecap:butt;stroke-linejoin:miter;stroke-opacity:1"/>
<path class="bond-55 atom-53 atom-56" d="M 320.1,54.4 L 342.2,57.7" style="fill:none;fill-rule:evenodd;stroke:#000000;stroke-width:2.0px;stroke-linecap:butt;stroke-linejoin:miter;stroke-opacity:1"/>
<path class="bond-56 atom-56 atom-57" d="M 342.2,57.7 L 356.2,40.2" style="fill:none;fill-rule:evenodd;stroke:#000000;stroke-width:2.0px;stroke-linecap:butt;stroke-linejoin:miter;stroke-opacity:1"/>
<path class="bond-57 atom-57 atom-58" d="M 356.2,40.2 L 378.3,43.5" style="fill:none;fill-rule:evenodd;stroke:#000000;stroke-width:2.0px;stroke-linecap:butt;stroke-linejoin:miter;stroke-opacity:1"/>
<path class="bond-58 atom-58 atom-59" d="M 378.3,43.5 L 392.2,26.0" style="fill:none;fill-rule:evenodd;stroke:#000000;stroke-width:2.0px;stroke-linecap:butt;stroke-linejoin:miter;stroke-opacity:1"/>
<path class="bond-59 atom-51 atom-60" d="M 317.5,93.5 L 336.0,98.3" style="fill:none;fill-rule:evenodd;stroke:#000000;stroke-width:2.0px;stroke-linecap:butt;stroke-linejoin:miter;stroke-opacity:1"/>
<path class="bond-60 atom-60 atom-61" d="M 336.0,98.3 L 337.3,120.6" style="fill:none;fill-rule:evenodd;stroke:#000000;stroke-width:2.0px;stroke-linecap:butt;stroke-linejoin:miter;stroke-opacity:1"/>
<path class="bond-60 atom-60 atom-61" d="M 332.7,101.0 L 333.7,118.3" style="fill:none;fill-rule:evenodd;stroke:#000000;stroke-width:2.0px;stroke-linecap:butt;stroke-linejoin:miter;stroke-opacity:1"/>
<path class="bond-61 atom-61 atom-62" d="M 337.3,120.6 L 359.0,126.2" style="fill:none;fill-rule:evenodd;stroke:#000000;stroke-width:2.0px;stroke-linecap:butt;stroke-linejoin:miter;stroke-opacity:1"/>
<path class="bond-62 atom-62 atom-63" d="M 359.0,126.2 L 371.0,107.4" style="fill:none;fill-rule:evenodd;stroke:#000000;stroke-width:2.0px;stroke-linecap:butt;stroke-linejoin:miter;stroke-opacity:1"/>
<path class="bond-62 atom-62 atom-63" d="M 363.2,126.0 L 372.6,111.3" style="fill:none;fill-rule:evenodd;stroke:#000000;stroke-width:2.0px;stroke-linecap:butt;stroke-linejoin:miter;stroke-opacity:1"/>
<path class="bond-63 atom-63 atom-64" d="M 371.0,107.4 L 392.7,113.0" style="fill:none;fill-rule:evenodd;stroke:#000000;stroke-width:2.0px;stroke-linecap:butt;stroke-linejoin:miter;stroke-opacity:1"/>
<path class="bond-64 atom-64 atom-65" d="M 392.7,113.0 L 394.0,135.3" style="fill:none;fill-rule:evenodd;stroke:#000000;stroke-width:2.0px;stroke-linecap:butt;stroke-linejoin:miter;stroke-opacity:1"/>
<path class="bond-64 atom-64 atom-65" d="M 389.4,115.7 L 390.4,133.0" style="fill:none;fill-rule:evenodd;stroke:#000000;stroke-width:2.0px;stroke-linecap:butt;stroke-linejoin:miter;stroke-opacity:1"/>
<path class="bond-65 atom-65 atom-66" d="M 394.0,135.3 L 376.0,142.4" style="fill:none;fill-rule:evenodd;stroke:#000000;stroke-width:2.0px;stroke-linecap:butt;stroke-linejoin:miter;stroke-opacity:1"/>
<path class="bond-66 atom-65 atom-67" d="M 394.0,135.3 L 412.9,147.4" style="fill:none;fill-rule:evenodd;stroke:#000000;stroke-width:2.0px;stroke-linecap:butt;stroke-linejoin:miter;stroke-opacity:1"/>
<path class="bond-67 atom-67 atom-68" d="M 412.9,147.4 L 411.9,169.7" style="fill:none;fill-rule:evenodd;stroke:#000000;stroke-width:2.0px;stroke-linecap:butt;stroke-linejoin:miter;stroke-opacity:1"/>
<path class="bond-67 atom-67 atom-68" d="M 409.4,149.2 L 408.5,167.8" style="fill:none;fill-rule:evenodd;stroke:#000000;stroke-width:2.0px;stroke-linecap:butt;stroke-linejoin:miter;stroke-opacity:1"/>
<path class="bond-68 atom-68 atom-69" d="M 411.9,169.7 L 393.2,182.0" style="fill:none;fill-rule:evenodd;stroke:#000000;stroke-width:2.0px;stroke-linecap:butt;stroke-linejoin:miter;stroke-opacity:1"/>
<path class="bond-69 atom-69 atom-70" d="M 395.0,180.9 L 376.5,174.0" style="fill:none;fill-rule:evenodd;stroke:#000000;stroke-width:2.0px;stroke-linecap:butt;stroke-linejoin:miter;stroke-opacity:1"/>
<path class="bond-69 atom-69 atom-70" d="M 393.8,184.1 L 375.3,177.2" style="fill:none;fill-rule:evenodd;stroke:#000000;stroke-width:2.0px;stroke-linecap:butt;stroke-linejoin:miter;stroke-opacity:1"/>
<path class="bond-70 atom-69 atom-71" d="M 393.2,182.0 L 399.2,203.6" style="fill:none;fill-rule:evenodd;stroke:#000000;stroke-width:2.0px;stroke-linecap:butt;stroke-linejoin:miter;stroke-opacity:1"/>
<path class="bond-71 atom-71 atom-72" d="M 399.2,203.6 L 421.5,204.6" style="fill:none;fill-rule:evenodd;stroke:#000000;stroke-width:2.0px;stroke-linecap:butt;stroke-linejoin:miter;stroke-opacity:1"/>
<path class="bond-72 atom-72 atom-73" d="M 421.5,204.6 L 429.4,183.7" style="fill:none;fill-rule:evenodd;stroke:#000000;stroke-width:2.0px;stroke-linecap:butt;stroke-linejoin:miter;stroke-opacity:1"/>
<path class="bond-73 atom-73 atom-74" d="M 429.4,183.7 L 450.9,177.7" style="fill:none;fill-rule:evenodd;stroke:#000000;stroke-width:2.0px;stroke-linecap:butt;stroke-linejoin:miter;stroke-opacity:1"/>
<path class="bond-73 atom-73 atom-74" d="M 432.0,186.5 L 449.9,181.5" style="fill:none;fill-rule:evenodd;stroke:#000000;stroke-width:2.0px;stroke-linecap:butt;stroke-linejoin:miter;stroke-opacity:1"/>
<path class="bond-74 atom-74 atom-75" d="M 450.9,177.7 L 466.9,193.4" style="fill:none;fill-rule:evenodd;stroke:#000000;stroke-width:2.0px;stroke-linecap:butt;stroke-linejoin:miter;stroke-opacity:1"/>
<path class="bond-75 atom-75 atom-76" d="M 466.9,193.4 L 479.7,206.0" style="fill:none;fill-rule:evenodd;stroke:#000000;stroke-width:2.0px;stroke-linecap:butt;stroke-linejoin:miter;stroke-opacity:1"/>
<path class="bond-75 atom-75 atom-76" d="M 469.3,190.9 L 482.1,203.5" style="fill:none;fill-rule:evenodd;stroke:#000000;stroke-width:2.0px;stroke-linecap:butt;stroke-linejoin:miter;stroke-opacity:1"/>
<path class="bond-75 atom-75 atom-76" d="M 464.5,195.8 L 477.2,208.4" style="fill:none;fill-rule:evenodd;stroke:#000000;stroke-width:2.0px;stroke-linecap:butt;stroke-linejoin:miter;stroke-opacity:1"/>
<path class="bond-76 atom-74 atom-77" d="M 450.9,177.7 L 456.6,156.0" style="fill:none;fill-rule:evenodd;stroke:#000000;stroke-width:2.0px;stroke-linecap:butt;stroke-linejoin:miter;stroke-opacity:1"/>
<path class="bond-77 atom-77 atom-78" d="M 456.6,156.0 L 461.2,138.3" style="fill:none;fill-rule:evenodd;stroke:#000000;stroke-width:2.0px;stroke-linecap:butt;stroke-linejoin:miter;stroke-opacity:1"/>
<path class="bond-77 atom-77 atom-78" d="M 453.2,155.2 L 457.8,137.5" style="fill:none;fill-rule:evenodd;stroke:#000000;stroke-width:2.0px;stroke-linecap:butt;stroke-linejoin:miter;stroke-opacity:1"/>
<path class="bond-77 atom-77 atom-78" d="M 459.9,156.9 L 464.5,139.2" style="fill:none;fill-rule:evenodd;stroke:#000000;stroke-width:2.0px;stroke-linecap:butt;stroke-linejoin:miter;stroke-opacity:1"/>
<path class="bond-78 atom-72 atom-79" d="M 421.5,204.6 L 431.8,224.5" style="fill:none;fill-rule:evenodd;stroke:#000000;stroke-width:2.0px;stroke-linecap:butt;stroke-linejoin:miter;stroke-opacity:1"/>
<path class="bond-78 atom-72 atom-79" d="M 419.4,208.0 L 427.9,224.3" style="fill:none;fill-rule:evenodd;stroke:#000000;stroke-width:2.0px;stroke-linecap:butt;stroke-linejoin:miter;stroke-opacity:1"/>
<path class="bond-79 atom-79 atom-80" d="M 431.8,224.5 L 419.8,243.3" style="fill:none;fill-rule:evenodd;stroke:#000000;stroke-width:2.0px;stroke-linecap:butt;stroke-linejoin:miter;stroke-opacity:1"/>
<path class="bond-80 atom-80 atom-81" d="M 419.8,243.3 L 397.5,242.3" style="fill:none;fill-rule:evenodd;stroke:#000000;stroke-width:2.0px;stroke-linecap:butt;stroke-linejoin:miter;stroke-opacity:1"/>
<path class="bond-80 atom-80 atom-81" d="M 418.0,239.8 L 399.6,239.0" style="fill:none;fill-rule:evenodd;stroke:#000000;stroke-width:2.0px;stroke-linecap:butt;stroke-linejoin:miter;stroke-opacity:1"/>
<path class="bond-81 atom-81 atom-82" d="M 397.5,242.3 L 387.1,222.5" style="fill:none;fill-rule:evenodd;stroke:#000000;stroke-width:2.0px;stroke-linecap:butt;stroke-linejoin:miter;stroke-opacity:1"/>
<path class="bond-82 atom-63 atom-83" d="M 371.0,107.4 L 359.6,93.5" style="fill:none;fill-rule:evenodd;stroke:#000000;stroke-width:2.0px;stroke-linecap:butt;stroke-linejoin:miter;stroke-opacity:1"/>
<path class="bond-83 atom-83 atom-84" d="M 354.0,87.6 L 343.2,78.1" style="fill:none;fill-rule:evenodd;stroke:#000000;stroke-width:2.0px;stroke-linecap:butt;stroke-linejoin:miter;stroke-opacity:1"/>
<path class="bond-83 atom-83 atom-84" d="M 351.7,90.2 L 340.9,80.7" style="fill:none;fill-rule:evenodd;stroke:#000000;stroke-width:2.0px;stroke-linecap:butt;stroke-linejoin:miter;stroke-opacity:1"/>
<path class="bond-84 atom-84 atom-85" d="M 336.9,74.8 L 318.0,71.9" style="fill:none;fill-rule:evenodd;stroke:#000000;stroke-width:2.0px;stroke-linecap:butt;stroke-linejoin:miter;stroke-opacity:1"/>
<path class="bond-85 atom-85 atom-86" d="M 318.0,71.9 L 300.7,79.5" style="fill:none;fill-rule:evenodd;stroke:#000000;stroke-width:2.0px;stroke-linecap:butt;stroke-linejoin:miter;stroke-opacity:1"/>
<path class="bond-85 atom-85 atom-86" d="M 318.4,75.4 L 302.1,82.7" style="fill:none;fill-rule:evenodd;stroke:#000000;stroke-width:2.0px;stroke-linecap:butt;stroke-linejoin:miter;stroke-opacity:1"/>
<path class="bond-86 atom-15 atom-10" d="M 234.3,151.1 L 212.7,145.5" style="fill:none;fill-rule:evenodd;stroke:#000000;stroke-width:2.0px;stroke-linecap:butt;stroke-linejoin:miter;stroke-opacity:1"/>
<path class="bond-87 atom-61 atom-49" d="M 337.3,120.6 L 316.5,128.8" style="fill:none;fill-rule:evenodd;stroke:#000000;stroke-width:2.0px;stroke-linecap:butt;stroke-linejoin:miter;stroke-opacity:1"/>
<path class="bond-88 atom-16 atom-11" d="M 225.6,128.8 L 206.7,123.9" style="fill:none;fill-rule:evenodd;stroke:#000000;stroke-width:2.0px;stroke-linecap:butt;stroke-linejoin:miter;stroke-opacity:1"/>
<path class="bond-89 atom-66 atom-62" d="M 370.4,140.1 L 359.0,126.2" style="fill:none;fill-rule:evenodd;stroke:#000000;stroke-width:2.0px;stroke-linecap:butt;stroke-linejoin:miter;stroke-opacity:1"/>
<path class="bond-90 atom-73 atom-68" d="M 429.4,183.7 L 411.9,169.7" style="fill:none;fill-rule:evenodd;stroke:#000000;stroke-width:2.0px;stroke-linecap:butt;stroke-linejoin:miter;stroke-opacity:1"/>
<path class="bond-91 atom-86 atom-12" d="M 294.3,82.1 L 222.4,108.0" style="fill:none;fill-rule:evenodd;stroke:#000000;stroke-width:2.0px;stroke-linecap:butt;stroke-linejoin:miter;stroke-opacity:1"/>
<path class="bond-92 atom-27 atom-14" d="M 272.4,136.2 L 250.0,135.2" style="fill:none;fill-rule:evenodd;stroke:#000000;stroke-width:2.0px;stroke-linecap:butt;stroke-linejoin:miter;stroke-opacity:1"/>
<path class="bond-93 atom-82 atom-71" d="M 387.1,222.5 L 399.2,203.6" style="fill:none;fill-rule:evenodd;stroke:#000000;stroke-width:2.0px;stroke-linecap:butt;stroke-linejoin:miter;stroke-opacity:1"/>
<path class="bond-93 atom-82 atom-71" d="M 391.1,222.6 L 401.0,207.1" style="fill:none;fill-rule:evenodd;stroke:#000000;stroke-width:2.0px;stroke-linecap:butt;stroke-linejoin:miter;stroke-opacity:1"/>
<path class="bond-94 atom-50 atom-26" d="M 302.3,111.5 L 280.2,115.2" style="fill:none;fill-rule:evenodd;stroke:#000000;stroke-width:2.0px;stroke-linecap:butt;stroke-linejoin:miter;stroke-opacity:1"/>
<path class="bond-94 atom-50 atom-26" d="M 300.9,115.3 L 282.8,118.3" style="fill:none;fill-rule:evenodd;stroke:#000000;stroke-width:2.0px;stroke-linecap:butt;stroke-linejoin:miter;stroke-opacity:1"/>
<path class="bond-95 atom-83 atom-60" d="M 354.0,91.2 L 336.0,98.3" style="fill:none;fill-rule:evenodd;stroke:#000000;stroke-width:2.0px;stroke-linecap:butt;stroke-linejoin:miter;stroke-opacity:1"/>
<path class="bond-96 atom-32 atom-28" d="M 283.9,171.6 L 286.6,153.4" style="fill:none;fill-rule:evenodd;stroke:#000000;stroke-width:2.0px;stroke-linecap:butt;stroke-linejoin:miter;stroke-opacity:1"/>
<path class="bond-97 atom-39 atom-34" d="M 291.0,244.2 L 289.7,221.8" style="fill:none;fill-rule:evenodd;stroke:#000000;stroke-width:2.0px;stroke-linecap:butt;stroke-linejoin:miter;stroke-opacity:1"/>
<path class="bond-98 atom-48 atom-37" d="M 233.9,238.7 L 256.0,235.1" style="fill:none;fill-rule:evenodd;stroke:#000000;stroke-width:2.0px;stroke-linecap:butt;stroke-linejoin:miter;stroke-opacity:1"/>
<path class="bond-98 atom-48 atom-37" d="M 236.5,241.8 L 254.6,238.8" style="fill:none;fill-rule:evenodd;stroke:#000000;stroke-width:2.0px;stroke-linecap:butt;stroke-linejoin:miter;stroke-opacity:1"/>
<path d="M 46.5,202.4 L 47.6,202.7 L 48.4,201.9" style="fill:none;stroke:#000000;stroke-width:2.0px;stroke-linecap:butt;stroke-linejoin:miter;stroke-miterlimit:10;stroke-opacity:1;"/>
<path d="M 62.5,187.6 L 63.3,186.8 L 64.4,187.1" style="fill:none;stroke:#000000;stroke-width:2.0px;stroke-linecap:butt;stroke-linejoin:miter;stroke-miterlimit:10;stroke-opacity:1;"/>
<path d="M 83.9,192.1 L 85.0,192.4 L 85.8,191.6" style="fill:none;stroke:#000000;stroke-width:2.0px;stroke-linecap:butt;stroke-linejoin:miter;stroke-miterlimit:10;stroke-opacity:1;"/>
<path d="M 99.9,177.3 L 100.7,176.5 L 101.7,176.7" style="fill:none;stroke:#000000;stroke-width:2.0px;stroke-linecap:butt;stroke-linejoin:miter;stroke-miterlimit:10;stroke-opacity:1;"/>
<path d="M 121.2,181.8 L 122.3,182.1 L 123.1,181.3" style="fill:none;stroke:#000000;stroke-width:2.0px;stroke-linecap:butt;stroke-linejoin:miter;stroke-miterlimit:10;stroke-opacity:1;"/>
<path d="M 137.2,166.9 L 138.0,166.1 L 139.1,166.4" style="fill:none;stroke:#000000;stroke-width:2.0px;stroke-linecap:butt;stroke-linejoin:miter;stroke-miterlimit:10;stroke-opacity:1;"/>
<path d="M 158.6,171.5 L 159.7,171.7 L 160.4,171.0" style="fill:none;stroke:#000000;stroke-width:2.0px;stroke-linecap:butt;stroke-linejoin:miter;stroke-miterlimit:10;stroke-opacity:1;"/>
<path d="M 174.6,156.6 L 175.4,155.8 L 176.4,156.1" style="fill:none;stroke:#000000;stroke-width:2.0px;stroke-linecap:butt;stroke-linejoin:miter;stroke-miterlimit:10;stroke-opacity:1;"/>
<path d="M 195.9,161.1 L 197.0,161.4 L 197.8,160.6" style="fill:none;stroke:#000000;stroke-width:2.0px;stroke-linecap:butt;stroke-linejoin:miter;stroke-miterlimit:10;stroke-opacity:1;"/>
<path d="M 263.7,79.8 L 263.7,78.9 L 262.8,78.3" style="fill:none;stroke:#000000;stroke-width:2.0px;stroke-linecap:butt;stroke-linejoin:miter;stroke-miterlimit:10;stroke-opacity:1;"/>
<path d="M 245.8,45.7 L 245.9,44.5 L 244.9,43.9" style="fill:none;stroke:#000000;stroke-width:2.0px;stroke-linecap:butt;stroke-linejoin:miter;stroke-miterlimit:10;stroke-opacity:1;"/>
<path d="M 226.0,76.7 L 225.0,77.2 L 224.1,76.6" style="fill:none;stroke:#000000;stroke-width:2.0px;stroke-linecap:butt;stroke-linejoin:miter;stroke-miterlimit:10;stroke-opacity:1;"/>
<path d="M 207.1,65.8 L 206.2,65.2 L 205.2,65.7" style="fill:none;stroke:#000000;stroke-width:2.0px;stroke-linecap:butt;stroke-linejoin:miter;stroke-miterlimit:10;stroke-opacity:1;"/>
<path d="M 187.3,75.0 L 186.3,75.5 L 185.4,74.9" style="fill:none;stroke:#000000;stroke-width:2.0px;stroke-linecap:butt;stroke-linejoin:miter;stroke-miterlimit:10;stroke-opacity:1;"/>
<path d="M 318.5,168.6 L 319.0,169.6 L 318.2,170.4" style="fill:none;stroke:#000000;stroke-width:2.0px;stroke-linecap:butt;stroke-linejoin:miter;stroke-miterlimit:10;stroke-opacity:1;"/>
<path d="M 306.8,206.5 L 307.0,207.6 L 306.1,208.3" style="fill:none;stroke:#000000;stroke-width:2.0px;stroke-linecap:butt;stroke-linejoin:miter;stroke-miterlimit:10;stroke-opacity:1;"/>
<path d="M 269.1,216.5 L 268.0,216.2 L 267.4,217.1" style="fill:none;stroke:#000000;stroke-width:2.0px;stroke-linecap:butt;stroke-linejoin:miter;stroke-miterlimit:10;stroke-opacity:1;"/>
<path d="M 308.9,277.4 L 308.9,278.5 L 308.9,279.5" style="fill:none;stroke:#000000;stroke-width:2.0px;stroke-linecap:butt;stroke-linejoin:miter;stroke-miterlimit:10;stroke-opacity:1;"/>
<path d="M 328.7,246.4 L 329.7,245.9 L 330.6,245.4" style="fill:none;stroke:#000000;stroke-width:2.0px;stroke-linecap:butt;stroke-linejoin:miter;stroke-miterlimit:10;stroke-opacity:1;"/>
<path d="M 262.8,272.2 L 262.4,273.3 L 261.3,273.5" style="fill:none;stroke:#000000;stroke-width:2.0px;stroke-linecap:butt;stroke-linejoin:miter;stroke-miterlimit:10;stroke-opacity:1;"/>
<path d="M 241.4,276.8 L 240.3,277.0 L 239.6,276.1" style="fill:none;stroke:#000000;stroke-width:2.0px;stroke-linecap:butt;stroke-linejoin:miter;stroke-miterlimit:10;stroke-opacity:1;"/>
<path d="M 226.8,260.5 L 226.1,259.7 L 226.5,258.6" style="fill:none;stroke:#000000;stroke-width:2.0px;stroke-linecap:butt;stroke-linejoin:miter;stroke-miterlimit:10;stroke-opacity:1;"/>
<path d="M 233.5,239.8 L 233.9,238.7 L 235.0,238.6" style="fill:none;stroke:#000000;stroke-width:2.0px;stroke-linecap:butt;stroke-linejoin:miter;stroke-miterlimit:10;stroke-opacity:1;"/>
<path d="M 306.5,72.7 L 306.2,71.9 L 306.9,71.0" style="fill:none;stroke:#000000;stroke-width:2.0px;stroke-linecap:butt;stroke-linejoin:miter;stroke-miterlimit:10;stroke-opacity:1;"/>
<path d="M 312.3,34.6 L 311.9,33.5 L 312.6,32.7" style="fill:none;stroke:#000000;stroke-width:2.0px;stroke-linecap:butt;stroke-linejoin:miter;stroke-miterlimit:10;stroke-opacity:1;"/>
<path d="M 341.1,57.5 L 342.2,57.7 L 342.9,56.8" style="fill:none;stroke:#000000;stroke-width:2.0px;stroke-linecap:butt;stroke-linejoin:miter;stroke-miterlimit:10;stroke-opacity:1;"/>
<path d="M 355.5,41.1 L 356.2,40.2 L 357.3,40.4" style="fill:none;stroke:#000000;stroke-width:2.0px;stroke-linecap:butt;stroke-linejoin:miter;stroke-miterlimit:10;stroke-opacity:1;"/>
<path d="M 377.2,43.4 L 378.3,43.5 L 379.0,42.6" style="fill:none;stroke:#000000;stroke-width:2.0px;stroke-linecap:butt;stroke-linejoin:miter;stroke-miterlimit:10;stroke-opacity:1;"/>
<path d="M 391.6,112.7 L 392.7,113.0 L 392.7,114.1" style="fill:none;stroke:#000000;stroke-width:2.0px;stroke-linecap:butt;stroke-linejoin:miter;stroke-miterlimit:10;stroke-opacity:1;"/>
<path d="M 411.9,146.8 L 412.9,147.4 L 412.8,148.5" style="fill:none;stroke:#000000;stroke-width:2.0px;stroke-linecap:butt;stroke-linejoin:miter;stroke-miterlimit:10;stroke-opacity:1;"/>
<path d="M 394.2,181.4 L 393.2,182.0 L 393.5,183.1" style="fill:none;stroke:#000000;stroke-width:2.0px;stroke-linecap:butt;stroke-linejoin:miter;stroke-miterlimit:10;stroke-opacity:1;"/>
<path d="M 466.1,192.6 L 466.9,193.4 L 467.5,194.0" style="fill:none;stroke:#000000;stroke-width:2.0px;stroke-linecap:butt;stroke-linejoin:miter;stroke-miterlimit:10;stroke-opacity:1;"/>
<path d="M 456.3,157.1 L 456.6,156.0 L 456.8,155.2" style="fill:none;stroke:#000000;stroke-width:2.0px;stroke-linecap:butt;stroke-linejoin:miter;stroke-miterlimit:10;stroke-opacity:1;"/>
<path d="M 431.3,223.5 L 431.8,224.5 L 431.2,225.4" style="fill:none;stroke:#000000;stroke-width:2.0px;stroke-linecap:butt;stroke-linejoin:miter;stroke-miterlimit:10;stroke-opacity:1;"/>
<path d="M 420.4,242.4 L 419.8,243.3 L 418.7,243.3" style="fill:none;stroke:#000000;stroke-width:2.0px;stroke-linecap:butt;stroke-linejoin:miter;stroke-miterlimit:10;stroke-opacity:1;"/>
<path d="M 398.6,242.4 L 397.5,242.3 L 396.9,241.3" style="fill:none;stroke:#000000;stroke-width:2.0px;stroke-linecap:butt;stroke-linejoin:miter;stroke-miterlimit:10;stroke-opacity:1;"/>
<path d="M 387.7,223.5 L 387.1,222.5 L 387.7,221.5" style="fill:none;stroke:#000000;stroke-width:2.0px;stroke-linecap:butt;stroke-linejoin:miter;stroke-miterlimit:10;stroke-opacity:1;"/>
<path d="M 318.9,72.0 L 318.0,71.9 L 317.1,72.3" style="fill:none;stroke:#000000;stroke-width:2.0px;stroke-linecap:butt;stroke-linejoin:miter;stroke-miterlimit:10;stroke-opacity:1;"/>
<path class="atom-16" d="M 226.6 131.7 Q 226.7 131.7, 227.0 131.9 Q 227.3 132.0, 227.6 132.1 Q 227.9 132.1, 228.2 132.1 Q 228.8 132.1, 229.2 131.9 Q 229.5 131.6, 229.5 131.1 Q 229.5 130.7, 229.4 130.5 Q 229.2 130.3, 228.9 130.2 Q 228.6 130.0, 228.2 129.9 Q 227.6 129.7, 227.3 129.6 Q 227.0 129.4, 226.7 129.1 Q 226.5 128.7, 226.5 128.2 Q 226.5 127.4, 227.0 126.9 Q 227.6 126.4, 228.6 126.4 Q 229.4 126.4, 230.2 126.7 L 230.0 127.4 Q 229.2 127.1, 228.7 127.1 Q 228.1 127.1, 227.7 127.4 Q 227.4 127.6, 227.4 128.1 Q 227.4 128.4, 227.6 128.6 Q 227.7 128.8, 228.0 128.9 Q 228.2 129.0, 228.7 129.2 Q 229.2 129.4, 229.6 129.5 Q 229.9 129.7, 230.2 130.1 Q 230.4 130.4, 230.4 131.1 Q 230.4 131.9, 229.8 132.4 Q 229.2 132.9, 228.3 132.9 Q 227.7 132.9, 227.3 132.7 Q 226.9 132.6, 226.4 132.4 L 226.6 131.7 " fill="#000000"/>
<path class="atom-17" d="M 261.3 98.1 L 263.4 101.5 Q 263.6 101.8, 264.0 102.4 Q 264.3 103.0, 264.3 103.0 L 264.3 98.1 L 265.1 98.1 L 265.1 104.4 L 264.3 104.4 L 262.0 100.8 Q 261.8 100.3, 261.5 99.8 Q 261.2 99.4, 261.2 99.2 L 261.2 104.4 L 260.3 104.4 L 260.3 98.1 L 261.3 98.1 " fill="#000000"/>
<path class="atom-32" d="M 281.5 177.7 Q 281.6 177.7, 281.9 177.9 Q 282.1 178.0, 282.5 178.1 Q 282.8 178.2, 283.1 178.2 Q 283.7 178.2, 284.1 177.9 Q 284.4 177.6, 284.4 177.1 Q 284.4 176.7, 284.2 176.5 Q 284.1 176.3, 283.8 176.2 Q 283.5 176.0, 283.1 175.9 Q 282.5 175.7, 282.2 175.6 Q 281.9 175.4, 281.6 175.1 Q 281.4 174.7, 281.4 174.2 Q 281.4 173.4, 281.9 172.9 Q 282.5 172.4, 283.5 172.4 Q 284.3 172.4, 285.1 172.7 L 284.9 173.4 Q 284.1 173.1, 283.6 173.1 Q 282.9 173.1, 282.6 173.4 Q 282.3 173.6, 282.3 174.1 Q 282.3 174.4, 282.4 174.6 Q 282.6 174.8, 282.9 174.9 Q 283.1 175.0, 283.6 175.2 Q 284.1 175.4, 284.5 175.5 Q 284.8 175.7, 285.1 176.1 Q 285.3 176.4, 285.3 177.1 Q 285.3 177.9, 284.7 178.4 Q 284.1 178.9, 283.2 178.9 Q 282.6 178.9, 282.2 178.8 Q 281.7 178.6, 281.2 178.4 L 281.5 177.7 " fill="#000000"/>
<path class="atom-36" d="M 256.9 195.4 Q 256.9 193.9, 257.7 193.0 Q 258.4 192.2, 259.9 192.2 Q 261.3 192.2, 262.0 193.0 Q 262.8 193.9, 262.8 195.4 Q 262.8 196.9, 262.0 197.8 Q 261.2 198.7, 259.9 198.7 Q 258.5 198.7, 257.7 197.8 Q 256.9 197.0, 256.9 195.4 M 259.9 198.0 Q 260.8 198.0, 261.3 197.3 Q 261.9 196.7, 261.9 195.4 Q 261.9 194.2, 261.3 193.5 Q 260.8 192.9, 259.9 192.9 Q 258.9 192.9, 258.4 193.5 Q 257.8 194.2, 257.8 195.4 Q 257.8 196.7, 258.4 197.3 Q 258.9 198.0, 259.9 198.0 " fill="#000000"/>
<path class="atom-42" d="M 306.5 297.7 L 308.6 301.1 Q 308.8 301.4, 309.1 302.0 Q 309.4 302.6, 309.5 302.6 L 309.5 297.7 L 310.3 297.7 L 310.3 304.1 L 309.4 304.1 L 307.2 300.4 Q 306.9 300.0, 306.7 299.5 Q 306.4 299.0, 306.3 298.8 L 306.3 304.1 L 305.5 304.1 L 305.5 297.7 L 306.5 297.7 " fill="#000000"/>
<path class="atom-44" d="M 348.2 232.4 L 350.3 235.8 Q 350.5 236.1, 350.8 236.7 Q 351.1 237.3, 351.2 237.3 L 351.2 232.4 L 352.0 232.4 L 352.0 238.7 L 351.1 238.7 L 348.9 235.1 Q 348.6 234.6, 348.4 234.1 Q 348.1 233.6, 348.0 233.5 L 348.0 238.7 L 347.2 238.7 L 347.2 232.4 L 348.2 232.4 " fill="#000000"/>
<path class="atom-51" d="M 312.9 89.5 L 315.0 92.9 Q 315.2 93.2, 315.5 93.8 Q 315.9 94.4, 315.9 94.4 L 315.9 89.5 L 316.7 89.5 L 316.7 95.8 L 315.9 95.8 L 313.6 92.2 Q 313.4 91.7, 313.1 91.3 Q 312.8 90.8, 312.8 90.6 L 312.8 95.8 L 311.9 95.8 L 311.9 89.5 L 312.9 89.5 " fill="#000000"/>
<path class="atom-66" d="M 371.4 145.7 Q 371.5 145.7, 371.8 145.8 Q 372.1 146.0, 372.4 146.0 Q 372.7 146.1, 373.1 146.1 Q 373.6 146.1, 374.0 145.8 Q 374.3 145.5, 374.3 145.0 Q 374.3 144.7, 374.2 144.5 Q 374.0 144.3, 373.7 144.1 Q 373.5 144.0, 373.0 143.9 Q 372.5 143.7, 372.1 143.6 Q 371.8 143.4, 371.5 143.1 Q 371.3 142.7, 371.3 142.1 Q 371.3 141.3, 371.8 140.9 Q 372.4 140.4, 373.5 140.4 Q 374.2 140.4, 375.0 140.7 L 374.8 141.4 Q 374.1 141.1, 373.5 141.1 Q 372.9 141.1, 372.5 141.3 Q 372.2 141.6, 372.2 142.0 Q 372.2 142.4, 372.4 142.6 Q 372.5 142.8, 372.8 142.9 Q 373.1 143.0, 373.5 143.2 Q 374.1 143.3, 374.4 143.5 Q 374.7 143.7, 375.0 144.1 Q 375.2 144.4, 375.2 145.0 Q 375.2 145.9, 374.6 146.4 Q 374.1 146.8, 373.1 146.8 Q 372.5 146.8, 372.1 146.7 Q 371.7 146.6, 371.2 146.4 L 371.4 145.7 " fill="#000000"/>
<path class="atom-70" d="M 369.4 174.2 Q 369.4 172.7, 370.1 171.8 Q 370.9 171.0, 372.3 171.0 Q 373.7 171.0, 374.4 171.8 Q 375.2 172.7, 375.2 174.2 Q 375.2 175.8, 374.4 176.6 Q 373.7 177.5, 372.3 177.5 Q 370.9 177.5, 370.1 176.6 Q 369.4 175.8, 369.4 174.2 M 372.3 176.8 Q 373.2 176.8, 373.8 176.1 Q 374.3 175.5, 374.3 174.2 Q 374.3 173.0, 373.8 172.3 Q 373.2 171.7, 372.3 171.7 Q 371.3 171.7, 370.8 172.3 Q 370.3 173.0, 370.3 174.2 Q 370.3 175.5, 370.8 176.1 Q 371.3 176.8, 372.3 176.8 " fill="#000000"/>
<path class="atom-76" d="M 481.4 205.9 L 483.5 209.3 Q 483.7 209.6, 484.0 210.2 Q 484.4 210.8, 484.4 210.8 L 484.4 205.9 L 485.2 205.9 L 485.2 212.2 L 484.4 212.2 L 482.1 208.6 Q 481.9 208.2, 481.6 207.7 Q 481.3 207.2, 481.2 207.0 L 481.2 212.2 L 480.4 212.2 L 480.4 205.9 L 481.4 205.9 " fill="#000000"/>
<path class="atom-78" d="M 460.8 131.2 L 462.9 134.6 Q 463.1 134.9, 463.4 135.5 Q 463.7 136.1, 463.7 136.1 L 463.7 131.2 L 464.6 131.2 L 464.6 137.6 L 463.7 137.6 L 461.5 133.9 Q 461.2 133.5, 460.9 133.0 Q 460.7 132.5, 460.6 132.3 L 460.6 137.6 L 459.8 137.6 L 459.8 131.2 L 460.8 131.2 " fill="#000000"/>
<path class="atom-83" d="M 355.0 92.3 Q 355.1 92.3, 355.4 92.4 Q 355.7 92.6, 356.0 92.6 Q 356.3 92.7, 356.7 92.7 Q 357.3 92.7, 357.6 92.4 Q 358.0 92.1, 358.0 91.6 Q 358.0 91.3, 357.8 91.1 Q 357.6 90.8, 357.3 90.7 Q 357.1 90.6, 356.6 90.5 Q 356.1 90.3, 355.7 90.2 Q 355.4 90.0, 355.1 89.7 Q 354.9 89.3, 354.9 88.7 Q 354.9 87.9, 355.4 87.4 Q 356.0 87.0, 357.1 87.0 Q 357.8 87.0, 358.6 87.3 L 358.4 88.0 Q 357.7 87.7, 357.1 87.7 Q 356.5 87.7, 356.1 87.9 Q 355.8 88.2, 355.8 88.6 Q 355.8 89.0, 356.0 89.2 Q 356.2 89.4, 356.4 89.5 Q 356.7 89.6, 357.1 89.7 Q 357.7 89.9, 358.0 90.1 Q 358.3 90.3, 358.6 90.7 Q 358.8 91.0, 358.8 91.6 Q 358.8 92.5, 358.2 93.0 Q 357.7 93.4, 356.7 93.4 Q 356.1 93.4, 355.7 93.3 Q 355.3 93.2, 354.8 93.0 L 355.0 92.3 " fill="#000000"/>
<path class="atom-84" d="M 338.7 72.1 L 340.7 75.5 Q 340.9 75.8, 341.3 76.4 Q 341.6 77.0, 341.6 77.0 L 341.6 72.1 L 342.5 72.1 L 342.5 78.5 L 341.6 78.5 L 339.4 74.8 Q 339.1 74.4, 338.8 73.9 Q 338.6 73.4, 338.5 73.2 L 338.5 78.5 L 337.7 78.5 L 337.7 72.1 L 338.7 72.1 " fill="#000000"/>
<path class="atom-86" d="M 296.1 77.8 L 298.2 81.1 Q 298.4 81.5, 298.7 82.1 Q 299.1 82.7, 299.1 82.7 L 299.1 77.8 L 299.9 77.8 L 299.9 84.1 L 299.0 84.1 L 296.8 80.4 Q 296.6 80.0, 296.3 79.5 Q 296.0 79.0, 295.9 78.9 L 295.9 84.1 L 295.1 84.1 L 295.1 77.8 L 296.1 77.8 " fill="#000000"/>
</svg>