<?xml version='1.0' encoding='utf-8'?>
<svg xmlns="http://www.w3.org/2000/svg" xmlns:rdkit="http://www.rdkit.org/xml" xmlns:xlink="http://www.w3.org/1999/xlink" version="1.1" baseProfile="full" xml:space="preserve" width="512px" height="403px" viewBox="0 0 512 403">

<rect style="opacity:1.0;fill:#FFFFFF;stroke:none" width="512.0" height="403.0" x="0.0" y="0.0"> </rect>
<path class="bond-0 atom-0 atom-1" d="M 122.6,336.1 L 184.5,310.8" style="fill:none;fill-rule:evenodd;stroke:#000000;stroke-width:2.0px;stroke-linecap:butt;stroke-linejoin:miter;stroke-opacity:1"/>
<path class="bond-1 atom-1 atom-2" d="M 184.5,310.8 L 193.6,244.5" style="fill:none;fill-rule:evenodd;stroke:#000000;stroke-width:2.0px;stroke-linecap:butt;stroke-linejoin:miter;stroke-opacity:1"/>
<path class="bond-1 atom-1 atom-2" d="M 195.1,306.5 L 202.6,251.4" style="fill:none;fill-rule:evenodd;stroke:#000000;stroke-width:2.0px;stroke-linecap:butt;stroke-linejoin:miter;stroke-opacity:1"/>
<path class="bond-2 atom-2 atom-3" d="M 193.6,244.5 L 255.6,219.1" style="fill:none;fill-rule:evenodd;stroke:#000000;stroke-width:2.0px;stroke-linecap:butt;stroke-linejoin:miter;stroke-opacity:1"/>
<path class="bond-3 atom-3 atom-4" d="M 255.6,219.1 L 308.5,260.2" style="fill:none;fill-rule:evenodd;stroke:#000000;stroke-width:2.0px;stroke-linecap:butt;stroke-linejoin:miter;stroke-opacity:1"/>
<path class="bond-4 atom-4 atom-5" d="M 308.5,260.2 L 299.4,326.5" style="fill:none;fill-rule:evenodd;stroke:#000000;stroke-width:2.0px;stroke-linecap:butt;stroke-linejoin:miter;stroke-opacity:1"/>
<path class="bond-4 atom-4 atom-5" d="M 298.0,264.5 L 290.4,319.5" style="fill:none;fill-rule:evenodd;stroke:#000000;stroke-width:2.0px;stroke-linecap:butt;stroke-linejoin:miter;stroke-opacity:1"/>
<path class="bond-5 atom-5 atom-6" d="M 299.4,326.5 L 246.8,348.0" style="fill:none;fill-rule:evenodd;stroke:#000000;stroke-width:2.0px;stroke-linecap:butt;stroke-linejoin:miter;stroke-opacity:1"/>
<path class="bond-6 atom-5 atom-7" d="M 299.4,326.5 L 352.3,367.5" style="fill:none;fill-rule:evenodd;stroke:#000000;stroke-width:2.0px;stroke-linecap:butt;stroke-linejoin:miter;stroke-opacity:1"/>
<path class="bond-7 atom-4 atom-8" d="M 308.5,260.2 L 370.5,234.9" style="fill:none;fill-rule:evenodd;stroke:#000000;stroke-width:2.0px;stroke-linecap:butt;stroke-linejoin:miter;stroke-opacity:1"/>
<path class="bond-8 atom-8 atom-9" d="M 374.5,238.0 L 383.5,215.7" style="fill:none;fill-rule:evenodd;stroke:#000000;stroke-width:2.0px;stroke-linecap:butt;stroke-linejoin:miter;stroke-opacity:1"/>
<path class="bond-8 atom-8 atom-9" d="M 364.1,237.5 L 374.3,212.0" style="fill:none;fill-rule:evenodd;stroke:#000000;stroke-width:2.0px;stroke-linecap:butt;stroke-linejoin:miter;stroke-opacity:1"/>
<path class="bond-9 atom-8 atom-10" d="M 370.5,234.9 L 412.5,267.5" style="fill:none;fill-rule:evenodd;stroke:#000000;stroke-width:2.0px;stroke-linecap:butt;stroke-linejoin:miter;stroke-opacity:1"/>
<path class="bond-10 atom-10 atom-11" d="M 434.3,271.4 L 485.4,250.6" style="fill:none;fill-rule:evenodd;stroke:#000000;stroke-width:2.0px;stroke-linecap:butt;stroke-linejoin:miter;stroke-opacity:1"/>
<path class="bond-11 atom-3 atom-12" d="M 255.6,219.1 L 264.7,152.8" style="fill:none;fill-rule:evenodd;stroke:#000000;stroke-width:2.0px;stroke-linecap:butt;stroke-linejoin:miter;stroke-opacity:1"/>
<path class="bond-12 atom-12 atom-13" d="M 264.7,152.8 L 211.8,111.8" style="fill:none;fill-rule:evenodd;stroke:#000000;stroke-width:2.0px;stroke-linecap:butt;stroke-linejoin:miter;stroke-opacity:1"/>
<path class="bond-12 atom-12 atom-13" d="M 266.2,141.5 L 222.3,107.5" style="fill:none;fill-rule:evenodd;stroke:#000000;stroke-width:2.0px;stroke-linecap:butt;stroke-linejoin:miter;stroke-opacity:1"/>
<path class="bond-13 atom-13 atom-14" d="M 211.8,111.8 L 220.8,45.5" style="fill:none;fill-rule:evenodd;stroke:#000000;stroke-width:2.0px;stroke-linecap:butt;stroke-linejoin:miter;stroke-opacity:1"/>
<path class="bond-14 atom-14 atom-15" d="M 220.8,45.5 L 282.8,20.2" style="fill:none;fill-rule:evenodd;stroke:#000000;stroke-width:2.0px;stroke-linecap:butt;stroke-linejoin:miter;stroke-opacity:1"/>
<path class="bond-14 atom-14 atom-15" d="M 229.8,52.4 L 281.3,31.4" style="fill:none;fill-rule:evenodd;stroke:#000000;stroke-width:2.0px;stroke-linecap:butt;stroke-linejoin:miter;stroke-opacity:1"/>
<path class="bond-15 atom-15 atom-16" d="M 282.8,20.2 L 335.7,61.2" style="fill:none;fill-rule:evenodd;stroke:#000000;stroke-width:2.0px;stroke-linecap:butt;stroke-linejoin:miter;stroke-opacity:1"/>
<path class="bond-16 atom-16 atom-17" d="M 335.7,61.2 L 326.7,127.5" style="fill:none;fill-rule:evenodd;stroke:#000000;stroke-width:2.0px;stroke-linecap:butt;stroke-linejoin:miter;stroke-opacity:1"/>
<path class="bond-16 atom-16 atom-17" d="M 325.2,65.5 L 317.7,120.5" style="fill:none;fill-rule:evenodd;stroke:#000000;stroke-width:2.0px;stroke-linecap:butt;stroke-linejoin:miter;stroke-opacity:1"/>
<path class="bond-17 atom-17 atom-18" d="M 326.7,127.5 L 370.2,161.3" style="fill:none;fill-rule:evenodd;stroke:#000000;stroke-width:2.0px;stroke-linecap:butt;stroke-linejoin:miter;stroke-opacity:1"/>
<path class="bond-18 atom-18 atom-19" d="M 375.9,180.7 L 380.6,223.9" style="fill:none;fill-rule:evenodd;stroke:#000000;stroke-width:2.0px;stroke-linecap:butt;stroke-linejoin:miter;stroke-opacity:1"/>
<path class="bond-18 atom-18 atom-19" d="M 385.7,179.6 L 390.4,222.8" style="fill:none;fill-rule:evenodd;stroke:#000000;stroke-width:2.0px;stroke-linecap:butt;stroke-linejoin:miter;stroke-opacity:1"/>
<path class="bond-19 atom-18 atom-20" d="M 400.7,159.9 L 430.7,147.7" style="fill:none;fill-rule:evenodd;stroke:#000000;stroke-width:2.0px;stroke-linecap:butt;stroke-linejoin:miter;stroke-opacity:1"/>
<path class="bond-20 atom-2 atom-21" d="M 193.6,244.5 L 140.7,203.4" style="fill:none;fill-rule:evenodd;stroke:#000000;stroke-width:2.0px;stroke-linecap:butt;stroke-linejoin:miter;stroke-opacity:1"/>
<path class="bond-21 atom-21 atom-22" d="M 145.2,206.9 L 153.0,149.8" style="fill:none;fill-rule:evenodd;stroke:#000000;stroke-width:2.0px;stroke-linecap:butt;stroke-linejoin:miter;stroke-opacity:1"/>
<path class="bond-21 atom-21 atom-22" d="M 135.4,205.6 L 143.2,148.5" style="fill:none;fill-rule:evenodd;stroke:#000000;stroke-width:2.0px;stroke-linecap:butt;stroke-linejoin:miter;stroke-opacity:1"/>
<path class="bond-22 atom-21 atom-23" d="M 140.7,203.4 L 89.6,224.3" style="fill:none;fill-rule:evenodd;stroke:#000000;stroke-width:2.0px;stroke-linecap:butt;stroke-linejoin:miter;stroke-opacity:1"/>
<path class="bond-23 atom-23 atom-24" d="M 67.9,220.3 L 25.8,187.7" style="fill:none;fill-rule:evenodd;stroke:#000000;stroke-width:2.0px;stroke-linecap:butt;stroke-linejoin:miter;stroke-opacity:1"/>
<path class="bond-24 atom-6 atom-1" d="M 228.1,344.6 L 184.5,310.8" style="fill:none;fill-rule:evenodd;stroke:#000000;stroke-width:2.0px;stroke-linecap:butt;stroke-linejoin:miter;stroke-opacity:1"/>
<path class="bond-25 atom-17 atom-12" d="M 326.7,127.5 L 264.7,152.8" style="fill:none;fill-rule:evenodd;stroke:#000000;stroke-width:2.0px;stroke-linecap:butt;stroke-linejoin:miter;stroke-opacity:1"/>
<path d="M 367.4,236.1 L 370.5,234.9 L 372.6,236.5" style="fill:none;stroke:#000000;stroke-width:2.0px;stroke-linecap:butt;stroke-linejoin:miter;stroke-miterlimit:10;stroke-opacity:1;"/>
<path d="M 214.4,113.8 L 211.8,111.8 L 212.2,108.5" style="fill:none;stroke:#000000;stroke-width:2.0px;stroke-linecap:butt;stroke-linejoin:miter;stroke-miterlimit:10;stroke-opacity:1;"/>
<path d="M 220.4,48.8 L 220.8,45.5 L 223.9,44.2" style="fill:none;stroke:#000000;stroke-width:2.0px;stroke-linecap:butt;stroke-linejoin:miter;stroke-miterlimit:10;stroke-opacity:1;"/>
<path d="M 279.7,21.4 L 282.8,20.2 L 285.5,22.2" style="fill:none;stroke:#000000;stroke-width:2.0px;stroke-linecap:butt;stroke-linejoin:miter;stroke-miterlimit:10;stroke-opacity:1;"/>
<path d="M 333.1,59.1 L 335.7,61.2 L 335.3,64.5" style="fill:none;stroke:#000000;stroke-width:2.0px;stroke-linecap:butt;stroke-linejoin:miter;stroke-miterlimit:10;stroke-opacity:1;"/>
<path d="M 143.4,205.5 L 140.7,203.4 L 138.2,204.5" style="fill:none;stroke:#000000;stroke-width:2.0px;stroke-linecap:butt;stroke-linejoin:miter;stroke-miterlimit:10;stroke-opacity:1;"/>
<path class="atom-6" d="M 233.3 342.3 L 239.5 352.4 Q 240.1 353.4, 241.1 355.2 Q 242.1 357.0, 242.1 357.1 L 242.1 342.3 L 244.6 342.3 L 244.6 361.3 L 242.1 361.3 L 235.4 350.3 Q 234.6 349.0, 233.8 347.6 Q 233.0 346.1, 232.7 345.6 L 232.7 361.3 L 230.3 361.3 L 230.3 342.3 L 233.3 342.3 " fill="#000000"/>
<path class="atom-6" d="M 230.0 363.2 L 232.6 363.2 L 232.6 371.3 L 242.3 371.3 L 242.3 363.2 L 244.9 363.2 L 244.9 382.2 L 242.3 382.2 L 242.3 373.4 L 232.6 373.4 L 232.6 382.2 L 230.0 382.2 L 230.0 363.2 " fill="#000000"/>
<path class="atom-9" d="M 375.0 201.9 Q 375.0 197.3, 377.2 194.8 Q 379.5 192.2, 383.7 192.2 Q 387.9 192.2, 390.2 194.8 Q 392.4 197.3, 392.4 201.9 Q 392.4 206.5, 390.1 209.1 Q 387.9 211.7, 383.7 211.7 Q 379.5 211.7, 377.2 209.1 Q 375.0 206.5, 375.0 201.9 M 383.7 209.6 Q 386.6 209.6, 388.1 207.6 Q 389.7 205.7, 389.7 201.9 Q 389.7 198.2, 388.1 196.3 Q 386.6 194.4, 383.7 194.4 Q 380.8 194.4, 379.2 196.3 Q 377.7 198.1, 377.7 201.9 Q 377.7 205.7, 379.2 207.6 Q 380.8 209.6, 383.7 209.6 " fill="#000000"/>
<path class="atom-10" d="M 414.7 275.9 Q 414.7 271.4, 416.9 268.8 Q 419.2 266.3, 423.4 266.3 Q 427.6 266.3, 429.9 268.8 Q 432.1 271.4, 432.1 275.9 Q 432.1 280.5, 429.8 283.2 Q 427.6 285.8, 423.4 285.8 Q 419.2 285.8, 416.9 283.2 Q 414.7 280.6, 414.7 275.9 M 423.4 283.6 Q 426.3 283.6, 427.8 281.7 Q 429.4 279.7, 429.4 275.9 Q 429.4 272.2, 427.8 270.3 Q 426.3 268.4, 423.4 268.4 Q 420.5 268.4, 418.9 270.3 Q 417.4 272.2, 417.4 275.9 Q 417.4 279.8, 418.9 281.7 Q 420.5 283.6, 423.4 283.6 " fill="#000000"/>
<path class="atom-18" d="M 375.4 159.0 L 381.6 169.1 Q 382.2 170.1, 383.2 171.9 Q 384.2 173.7, 384.2 173.8 L 384.2 159.0 L 386.8 159.0 L 386.8 178.0 L 384.2 178.0 L 377.5 167.0 Q 376.7 165.7, 375.9 164.3 Q 375.1 162.8, 374.8 162.3 L 374.8 178.0 L 372.4 178.0 L 372.4 159.0 L 375.4 159.0 " fill="#000000"/>
<path class="atom-18" d="M 390.3 162.5 L 393.7 162.5 L 393.7 158.9 L 395.1 158.9 L 395.1 162.5 L 398.6 162.5 L 398.6 163.7 L 395.1 163.7 L 395.1 167.3 L 393.7 167.3 L 393.7 163.7 L 390.3 163.7 L 390.3 162.5 " fill="#000000"/>
<path class="atom-19" d="M 378.1 235.1 Q 378.1 230.6, 380.4 228.0 Q 382.6 225.5, 386.8 225.5 Q 391.0 225.5, 393.3 228.0 Q 395.5 230.6, 395.5 235.1 Q 395.5 239.7, 393.2 242.4 Q 391.0 245.0, 386.8 245.0 Q 382.6 245.0, 380.4 242.4 Q 378.1 239.8, 378.1 235.1 M 386.8 242.8 Q 389.7 242.8, 391.3 240.9 Q 392.8 238.9, 392.8 235.1 Q 392.8 231.4, 391.3 229.5 Q 389.7 227.6, 386.8 227.6 Q 383.9 227.6, 382.3 229.5 Q 380.8 231.4, 380.8 235.1 Q 380.8 239.0, 382.3 240.9 Q 383.9 242.8, 386.8 242.8 " fill="#000000"/>
<path class="atom-20" d="M 432.8 143.3 Q 432.8 138.7, 435.1 136.2 Q 437.3 133.6, 441.5 133.6 Q 445.7 133.6, 448.0 136.2 Q 450.2 138.7, 450.2 143.3 Q 450.2 147.9, 448.0 150.5 Q 445.7 153.1, 441.5 153.1 Q 437.4 153.1, 435.1 150.5 Q 432.8 147.9, 432.8 143.3 M 441.5 151.0 Q 444.4 151.0, 446.0 149.0 Q 447.6 147.1, 447.6 143.3 Q 447.6 139.5, 446.0 137.7 Q 444.4 135.8, 441.5 135.8 Q 438.7 135.8, 437.1 137.6 Q 435.5 139.5, 435.5 143.3 Q 435.5 147.1, 437.1 149.0 Q 438.7 151.0, 441.5 151.0 " fill="#000000"/>
<path class="atom-20" d="M 452.9 136.7 L 459.4 136.7 L 459.4 138.1 L 452.9 138.1 L 452.9 136.7 " fill="#000000"/>
<path class="atom-22" d="M 141.1 137.2 Q 141.1 132.6, 143.3 130.1 Q 145.6 127.5, 149.8 127.5 Q 154.0 127.5, 156.2 130.1 Q 158.5 132.6, 158.5 137.2 Q 158.5 141.8, 156.2 144.4 Q 153.9 147.0, 149.8 147.0 Q 145.6 147.0, 143.3 144.4 Q 141.1 141.8, 141.1 137.2 M 149.8 144.8 Q 152.7 144.8, 154.2 142.9 Q 155.8 141.0, 155.8 137.2 Q 155.8 133.4, 154.2 131.6 Q 152.7 129.7, 149.8 129.7 Q 146.9 129.7, 145.3 131.5 Q 143.8 133.4, 143.8 137.2 Q 143.8 141.0, 145.3 142.9 Q 146.9 144.8, 149.8 144.8 " fill="#000000"/>
<path class="atom-23" d="M 70.0 228.8 Q 70.0 224.2, 72.3 221.7 Q 74.5 219.2, 78.7 219.2 Q 82.9 219.2, 85.2 221.7 Q 87.4 224.2, 87.4 228.8 Q 87.4 233.4, 85.2 236.0 Q 82.9 238.6, 78.7 238.6 Q 74.5 238.6, 72.3 236.0 Q 70.0 233.4, 70.0 228.8 M 78.7 236.5 Q 81.6 236.5, 83.2 234.6 Q 84.8 232.6, 84.8 228.8 Q 84.8 225.1, 83.2 223.2 Q 81.6 221.3, 78.7 221.3 Q 75.8 221.3, 74.3 223.2 Q 72.7 225.1, 72.7 228.8 Q 72.7 232.6, 74.3 234.6 Q 75.8 236.5, 78.7 236.5 " fill="#000000"/>
</svg>