<?xml version='1.0' encoding='utf-8'?>
<svg xmlns="http://www.w3.org/2000/svg" xmlns:rdkit="http://www.rdkit.org/xml" xmlns:xlink="http://www.w3.org/1999/xlink" version="1.1" baseProfile="full" xml:space="preserve" width="512px" height="255px" viewBox="0 0 512 255">

<rect style="opacity:1.0;fill:#FFFFFF;stroke:none" width="512.0" height="255.0" x="0.0" y="0.0"> </rect>
<path class="bond-0 atom-0 atom-1" d="M 481.1,126.9 L 424.5,224.9" style="fill:none;fill-rule:evenodd;stroke:#000000;stroke-width:2.0px;stroke-linecap:butt;stroke-linejoin:miter;stroke-opacity:1"/>
<path class="bond-0 atom-0 atom-1" d="M 461.5,126.9 L 414.7,208.0" style="fill:none;fill-rule:evenodd;stroke:#000000;stroke-width:2.0px;stroke-linecap:butt;stroke-linejoin:miter;stroke-opacity:1"/>
<path class="bond-1 atom-1 atom-2" d="M 424.5,224.9 L 311.2,224.9" style="fill:none;fill-rule:evenodd;stroke:#000000;stroke-width:2.0px;stroke-linecap:butt;stroke-linejoin:miter;stroke-opacity:1"/>
<path class="bond-2 atom-2 atom-3" d="M 311.2,224.9 L 254.6,126.9" style="fill:none;fill-rule:evenodd;stroke:#000000;stroke-width:2.0px;stroke-linecap:butt;stroke-linejoin:miter;stroke-opacity:1"/>
<path class="bond-2 atom-2 atom-3" d="M 321.0,208.0 L 274.2,126.9" style="fill:none;fill-rule:evenodd;stroke:#000000;stroke-width:2.0px;stroke-linecap:butt;stroke-linejoin:miter;stroke-opacity:1"/>
<path class="bond-3 atom-3 atom-4" d="M 254.6,126.9 L 311.2,28.8" style="fill:none;fill-rule:evenodd;stroke:#000000;stroke-width:2.0px;stroke-linecap:butt;stroke-linejoin:miter;stroke-opacity:1"/>
<path class="bond-4 atom-4 atom-5" d="M 311.2,28.8 L 424.5,28.8" style="fill:none;fill-rule:evenodd;stroke:#000000;stroke-width:2.0px;stroke-linecap:butt;stroke-linejoin:miter;stroke-opacity:1"/>
<path class="bond-4 atom-4 atom-5" d="M 321.0,45.8 L 414.7,45.8" style="fill:none;fill-rule:evenodd;stroke:#000000;stroke-width:2.0px;stroke-linecap:butt;stroke-linejoin:miter;stroke-opacity:1"/>
<path class="bond-5 atom-3 atom-6" d="M 254.6,126.9 L 141.4,126.9" style="fill:none;fill-rule:evenodd;stroke:#000000;stroke-width:2.0px;stroke-linecap:butt;stroke-linejoin:miter;stroke-opacity:1"/>
<path class="bond-6 atom-6 atom-7" d="M 141.4,126.9 L 95.1,46.7" style="fill:none;fill-rule:evenodd;stroke:#000000;stroke-width:2.0px;stroke-linecap:butt;stroke-linejoin:miter;stroke-opacity:1"/>
<path class="bond-7 atom-6 atom-8" d="M 136.5,118.4 L 87.7,202.8" style="fill:none;fill-rule:evenodd;stroke:#000000;stroke-width:2.0px;stroke-linecap:butt;stroke-linejoin:miter;stroke-opacity:1"/>
<path class="bond-7 atom-6 atom-8" d="M 151.2,126.9 L 102.4,211.3" style="fill:none;fill-rule:evenodd;stroke:#000000;stroke-width:2.0px;stroke-linecap:butt;stroke-linejoin:miter;stroke-opacity:1"/>
<path class="bond-8 atom-5 atom-0" d="M 424.5,28.8 L 481.1,126.9" style="fill:none;fill-rule:evenodd;stroke:#000000;stroke-width:2.0px;stroke-linecap:butt;stroke-linejoin:miter;stroke-opacity:1"/>
<path d="M 478.2,131.8 L 481.1,126.9 L 478.2,122.0" style="fill:none;stroke:#000000;stroke-width:2.0px;stroke-linecap:butt;stroke-linejoin:miter;stroke-miterlimit:10;stroke-opacity:1;"/>
<path d="M 427.3,220.0 L 424.5,224.9 L 418.8,224.9" style="fill:none;stroke:#000000;stroke-width:2.0px;stroke-linecap:butt;stroke-linejoin:miter;stroke-miterlimit:10;stroke-opacity:1;"/>
<path d="M 316.9,224.9 L 311.2,224.9 L 308.4,220.0" style="fill:none;stroke:#000000;stroke-width:2.0px;stroke-linecap:butt;stroke-linejoin:miter;stroke-miterlimit:10;stroke-opacity:1;"/>
<path d="M 308.4,33.7 L 311.2,28.8 L 316.9,28.8" style="fill:none;stroke:#000000;stroke-width:2.0px;stroke-linecap:butt;stroke-linejoin:miter;stroke-miterlimit:10;stroke-opacity:1;"/>
<path d="M 418.8,28.8 L 424.5,28.8 L 427.3,33.7" style="fill:none;stroke:#000000;stroke-width:2.0px;stroke-linecap:butt;stroke-linejoin:miter;stroke-miterlimit:10;stroke-opacity:1;"/>
<path d="M 147.1,126.9 L 141.4,126.9 L 139.1,122.9" style="fill:none;stroke:#000000;stroke-width:2.0px;stroke-linecap:butt;stroke-linejoin:miter;stroke-miterlimit:10;stroke-opacity:1;"/>
<path class="atom-7" d="M 30.1 14.7 L 34.0 14.7 L 34.0 26.7 L 48.4 26.7 L 48.4 14.7 L 52.3 14.7 L 52.3 43.0 L 48.4 43.0 L 48.4 29.9 L 34.0 29.9 L 34.0 43.0 L 30.1 43.0 L 30.1 14.7 " fill="#000000"/>
<path class="atom-7" d="M 57.8 42.0 Q 58.5 40.2, 60.1 39.3 Q 61.8 38.2, 64.1 38.2 Q 66.9 38.2, 68.5 39.8 Q 70.0 41.3, 70.0 44.0 Q 70.0 46.8, 68.0 49.4 Q 66.0 52.0, 61.7 55.0 L 70.4 55.0 L 70.4 57.2 L 57.8 57.2 L 57.8 55.4 Q 61.3 52.9, 63.3 51.1 Q 65.4 49.2, 66.4 47.5 Q 67.4 45.9, 67.4 44.2 Q 67.4 42.4, 66.5 41.4 Q 65.6 40.4, 64.1 40.4 Q 62.5 40.4, 61.5 41.0 Q 60.5 41.6, 59.8 42.9 L 57.8 42.0 " fill="#000000"/>
<path class="atom-7" d="M 78.5 14.7 L 87.8 29.7 Q 88.7 31.2, 90.2 33.8 Q 91.7 36.5, 91.8 36.7 L 91.8 14.7 L 95.5 14.7 L 95.5 43.0 L 91.6 43.0 L 81.7 26.6 Q 80.5 24.7, 79.3 22.5 Q 78.1 20.3, 77.7 19.6 L 77.7 43.0 L 74.0 43.0 L 74.0 14.7 L 78.5 14.7 " fill="#000000"/>
<path class="atom-8" d="M 76.8 234.7 Q 77.1 234.8, 78.4 235.3 Q 79.7 235.9, 81.2 236.3 Q 82.7 236.6, 84.1 236.6 Q 86.8 236.6, 88.3 235.3 Q 89.9 234.0, 89.9 231.7 Q 89.9 230.1, 89.1 229.2 Q 88.3 228.2, 87.1 227.7 Q 85.9 227.2, 83.9 226.6 Q 81.4 225.8, 79.9 225.1 Q 78.4 224.4, 77.3 222.9 Q 76.3 221.3, 76.3 218.8 Q 76.3 215.2, 78.7 213.0 Q 81.1 210.8, 85.9 210.8 Q 89.2 210.8, 92.9 212.4 L 92.0 215.5 Q 88.6 214.1, 86.1 214.1 Q 83.3 214.1, 81.8 215.2 Q 80.3 216.3, 80.3 218.3 Q 80.3 219.8, 81.1 220.7 Q 81.9 221.7, 83.0 222.2 Q 84.1 222.7, 86.1 223.3 Q 88.6 224.1, 90.1 224.9 Q 91.7 225.7, 92.7 227.3 Q 93.9 228.9, 93.9 231.7 Q 93.9 235.6, 91.2 237.7 Q 88.6 239.8, 84.3 239.8 Q 81.7 239.8, 79.8 239.3 Q 77.9 238.7, 75.7 237.8 L 76.8 234.7 " fill="#000000"/>
</svg>