<?xml version='1.0' encoding='utf-8'?>
<svg xmlns="http://www.w3.org/2000/svg" xmlns:rdkit="http://www.rdkit.org/xml" xmlns:xlink="http://www.w3.org/1999/xlink" version="1.1" baseProfile="full" xml:space="preserve" width="512px" height="267px" viewBox="0 0 512 267">

<rect style="opacity:1.0;fill:#FFFFFF;stroke:none" width="512.0" height="267.0" x="0.0" y="0.0"> </rect>
<path class="bond-0 atom-0 atom-1" d="M 25.6,60.5 L 60.3,52.4" style="fill:none;fill-rule:evenodd;stroke:#000000;stroke-width:2.0px;stroke-linecap:butt;stroke-linejoin:miter;stroke-opacity:1"/>
<path class="bond-1 atom-1 atom-2" d="M 60.3,52.4 L 84.7,78.4" style="fill:none;fill-rule:evenodd;stroke:#000000;stroke-width:2.0px;stroke-linecap:butt;stroke-linejoin:miter;stroke-opacity:1"/>
<path class="bond-2 atom-2 atom-3" d="M 84.7,78.4 L 119.4,70.2" style="fill:none;fill-rule:evenodd;stroke:#000000;stroke-width:2.0px;stroke-linecap:butt;stroke-linejoin:miter;stroke-opacity:1"/>
<path class="bond-3 atom-3 atom-4" d="M 119.4,70.2 L 130.6,43.6" style="fill:none;fill-rule:evenodd;stroke:#000000;stroke-width:2.0px;stroke-linecap:butt;stroke-linejoin:miter;stroke-opacity:1"/>
<path class="bond-3 atom-3 atom-4" d="M 125.9,68.7 L 135.6,45.7" style="fill:none;fill-rule:evenodd;stroke:#000000;stroke-width:2.0px;stroke-linecap:butt;stroke-linejoin:miter;stroke-opacity:1"/>
<path class="bond-4 atom-4 atom-5" d="M 138.3,37.8 L 168.8,40.4" style="fill:none;fill-rule:evenodd;stroke:#000000;stroke-width:2.0px;stroke-linecap:butt;stroke-linejoin:miter;stroke-opacity:1"/>
<path class="bond-5 atom-5 atom-6" d="M 168.8,40.4 L 192.1,13.4" style="fill:none;fill-rule:evenodd;stroke:#000000;stroke-width:2.0px;stroke-linecap:butt;stroke-linejoin:miter;stroke-opacity:1"/>
<path class="bond-6 atom-5 atom-7" d="M 168.8,40.4 L 176.9,75.1" style="fill:none;fill-rule:evenodd;stroke:#000000;stroke-width:2.0px;stroke-linecap:butt;stroke-linejoin:miter;stroke-opacity:1"/>
<path class="bond-6 atom-5 atom-7" d="M 164.5,45.4 L 170.8,72.5" style="fill:none;fill-rule:evenodd;stroke:#000000;stroke-width:2.0px;stroke-linecap:butt;stroke-linejoin:miter;stroke-opacity:1"/>
<path class="bond-7 atom-7 atom-8" d="M 176.9,75.1 L 151.4,90.5" style="fill:none;fill-rule:evenodd;stroke:#000000;stroke-width:2.0px;stroke-linecap:butt;stroke-linejoin:miter;stroke-opacity:1"/>
<path class="bond-8 atom-8 atom-9" d="M 146.5,99.8 L 147.1,129.2" style="fill:none;fill-rule:evenodd;stroke:#000000;stroke-width:2.0px;stroke-linecap:butt;stroke-linejoin:miter;stroke-opacity:1"/>
<path class="bond-9 atom-9 atom-10" d="M 147.1,129.2 L 173.4,143.6" style="fill:none;fill-rule:evenodd;stroke:#000000;stroke-width:2.0px;stroke-linecap:butt;stroke-linejoin:miter;stroke-opacity:1"/>
<path class="bond-9 atom-9 atom-10" d="M 152.4,126.0 L 175.9,138.9" style="fill:none;fill-rule:evenodd;stroke:#000000;stroke-width:2.0px;stroke-linecap:butt;stroke-linejoin:miter;stroke-opacity:1"/>
<path class="bond-10 atom-10 atom-11" d="M 183.4,143.3 L 208.9,127.9" style="fill:none;fill-rule:evenodd;stroke:#000000;stroke-width:2.0px;stroke-linecap:butt;stroke-linejoin:miter;stroke-opacity:1"/>
<path class="bond-11 atom-11 atom-12" d="M 208.9,127.9 L 208.3,98.5" style="fill:none;fill-rule:evenodd;stroke:#000000;stroke-width:2.0px;stroke-linecap:butt;stroke-linejoin:miter;stroke-opacity:1"/>
<path class="bond-11 atom-11 atom-12" d="M 203.5,124.9 L 202.9,98.6" style="fill:none;fill-rule:evenodd;stroke:#000000;stroke-width:2.0px;stroke-linecap:butt;stroke-linejoin:miter;stroke-opacity:1"/>
<path class="bond-12 atom-11 atom-13" d="M 208.9,127.9 L 240.1,145.1" style="fill:none;fill-rule:evenodd;stroke:#000000;stroke-width:2.0px;stroke-linecap:butt;stroke-linejoin:miter;stroke-opacity:1"/>
<path class="bond-13 atom-13 atom-14" d="M 240.1,145.1 L 240.8,180.8" style="fill:none;fill-rule:evenodd;stroke:#000000;stroke-width:2.0px;stroke-linecap:butt;stroke-linejoin:miter;stroke-opacity:1"/>
<path class="bond-13 atom-13 atom-14" d="M 245.5,148.1 L 246.1,177.6" style="fill:none;fill-rule:evenodd;stroke:#000000;stroke-width:2.0px;stroke-linecap:butt;stroke-linejoin:miter;stroke-opacity:1"/>
<path class="bond-14 atom-14 atom-15" d="M 240.8,180.8 L 216.1,195.7" style="fill:none;fill-rule:evenodd;stroke:#000000;stroke-width:2.0px;stroke-linecap:butt;stroke-linejoin:miter;stroke-opacity:1"/>
<path class="bond-15 atom-15 atom-16" d="M 210.5,205.6 L 211.1,234.9" style="fill:none;fill-rule:evenodd;stroke:#000000;stroke-width:2.0px;stroke-linecap:butt;stroke-linejoin:miter;stroke-opacity:1"/>
<path class="bond-16 atom-16 atom-17" d="M 211.1,234.9 L 180.5,253.3" style="fill:none;fill-rule:evenodd;stroke:#000000;stroke-width:2.0px;stroke-linecap:butt;stroke-linejoin:miter;stroke-opacity:1"/>
<path class="bond-17 atom-14 atom-18" d="M 240.8,180.8 L 272.1,197.9" style="fill:none;fill-rule:evenodd;stroke:#000000;stroke-width:2.0px;stroke-linecap:butt;stroke-linejoin:miter;stroke-opacity:1"/>
<path class="bond-18 atom-18 atom-19" d="M 272.1,197.9 L 302.6,179.5" style="fill:none;fill-rule:evenodd;stroke:#000000;stroke-width:2.0px;stroke-linecap:butt;stroke-linejoin:miter;stroke-opacity:1"/>
<path class="bond-18 atom-18 atom-19" d="M 271.9,191.8 L 297.2,176.5" style="fill:none;fill-rule:evenodd;stroke:#000000;stroke-width:2.0px;stroke-linecap:butt;stroke-linejoin:miter;stroke-opacity:1"/>
<path class="bond-19 atom-19 atom-20" d="M 302.6,179.5 L 301.8,143.8" style="fill:none;fill-rule:evenodd;stroke:#000000;stroke-width:2.0px;stroke-linecap:butt;stroke-linejoin:miter;stroke-opacity:1"/>
<path class="bond-20 atom-20 atom-21" d="M 301.8,143.8 L 270.6,126.7" style="fill:none;fill-rule:evenodd;stroke:#000000;stroke-width:2.0px;stroke-linecap:butt;stroke-linejoin:miter;stroke-opacity:1"/>
<path class="bond-20 atom-20 atom-21" d="M 296.6,147.0 L 270.7,132.8" style="fill:none;fill-rule:evenodd;stroke:#000000;stroke-width:2.0px;stroke-linecap:butt;stroke-linejoin:miter;stroke-opacity:1"/>
<path class="bond-21 atom-20 atom-22" d="M 301.8,143.8 L 327.9,128.1" style="fill:none;fill-rule:evenodd;stroke:#000000;stroke-width:2.0px;stroke-linecap:butt;stroke-linejoin:miter;stroke-opacity:1"/>
<path class="bond-22 atom-22 atom-23" d="M 334.0,133.3 L 344.7,151.0" style="fill:none;fill-rule:evenodd;stroke:#000000;stroke-width:2.0px;stroke-linecap:butt;stroke-linejoin:miter;stroke-opacity:1"/>
<path class="bond-22 atom-22 atom-23" d="M 338.6,130.5 L 349.3,148.2" style="fill:none;fill-rule:evenodd;stroke:#000000;stroke-width:2.0px;stroke-linecap:butt;stroke-linejoin:miter;stroke-opacity:1"/>
<path class="bond-23 atom-22 atom-24" d="M 330.9,117.8 L 320.1,99.9" style="fill:none;fill-rule:evenodd;stroke:#000000;stroke-width:2.0px;stroke-linecap:butt;stroke-linejoin:miter;stroke-opacity:1"/>
<path class="bond-23 atom-22 atom-24" d="M 326.3,120.6 L 315.5,102.7" style="fill:none;fill-rule:evenodd;stroke:#000000;stroke-width:2.0px;stroke-linecap:butt;stroke-linejoin:miter;stroke-opacity:1"/>
<path class="bond-24 atom-22 atom-25" d="M 336.8,122.7 L 357.8,110.0" style="fill:none;fill-rule:evenodd;stroke:#000000;stroke-width:2.0px;stroke-linecap:butt;stroke-linejoin:miter;stroke-opacity:1"/>
<path class="bond-25 atom-25 atom-26" d="M 367.9,109.7 L 394.1,124.1" style="fill:none;fill-rule:evenodd;stroke:#000000;stroke-width:2.0px;stroke-linecap:butt;stroke-linejoin:miter;stroke-opacity:1"/>
<path class="bond-26 atom-26 atom-27" d="M 394.1,124.1 L 424.6,105.7" style="fill:none;fill-rule:evenodd;stroke:#000000;stroke-width:2.0px;stroke-linecap:butt;stroke-linejoin:miter;stroke-opacity:1"/>
<path class="bond-27 atom-27 atom-28" d="M 424.6,105.7 L 424.0,76.3" style="fill:none;fill-rule:evenodd;stroke:#000000;stroke-width:2.0px;stroke-linecap:butt;stroke-linejoin:miter;stroke-opacity:1"/>
<path class="bond-28 atom-28 atom-29" d="M 428.9,67.0 L 454.4,51.6" style="fill:none;fill-rule:evenodd;stroke:#000000;stroke-width:2.0px;stroke-linecap:butt;stroke-linejoin:miter;stroke-opacity:1"/>
<path class="bond-29 atom-29 atom-30" d="M 454.4,51.6 L 485.6,68.8" style="fill:none;fill-rule:evenodd;stroke:#000000;stroke-width:2.0px;stroke-linecap:butt;stroke-linejoin:miter;stroke-opacity:1"/>
<path class="bond-30 atom-28 atom-31" d="M 418.9,67.3 L 392.6,52.8" style="fill:none;fill-rule:evenodd;stroke:#000000;stroke-width:2.0px;stroke-linecap:butt;stroke-linejoin:miter;stroke-opacity:1"/>
<path class="bond-31 atom-31 atom-32" d="M 392.6,52.8 L 362.1,71.3" style="fill:none;fill-rule:evenodd;stroke:#000000;stroke-width:2.0px;stroke-linecap:butt;stroke-linejoin:miter;stroke-opacity:1"/>
<path class="bond-32 atom-9 atom-33" d="M 147.1,129.2 L 122.4,144.1" style="fill:none;fill-rule:evenodd;stroke:#000000;stroke-width:2.0px;stroke-linecap:butt;stroke-linejoin:miter;stroke-opacity:1"/>
<path class="bond-33 atom-8 atom-3" d="M 141.4,89.2 L 119.4,70.2" style="fill:none;fill-rule:evenodd;stroke:#000000;stroke-width:2.0px;stroke-linecap:butt;stroke-linejoin:miter;stroke-opacity:1"/>
<path class="bond-34 atom-12 atom-7" d="M 203.1,89.5 L 176.9,75.1" style="fill:none;fill-rule:evenodd;stroke:#000000;stroke-width:2.0px;stroke-linecap:butt;stroke-linejoin:miter;stroke-opacity:1"/>
<path class="bond-35 atom-21 atom-13" d="M 270.6,126.7 L 240.1,145.1" style="fill:none;fill-rule:evenodd;stroke:#000000;stroke-width:2.0px;stroke-linecap:butt;stroke-linejoin:miter;stroke-opacity:1"/>
<path class="bond-36 atom-32 atom-25" d="M 362.1,71.3 L 362.7,100.7" style="fill:none;fill-rule:evenodd;stroke:#000000;stroke-width:2.0px;stroke-linecap:butt;stroke-linejoin:miter;stroke-opacity:1"/>
<path d="M 58.6,52.8 L 60.3,52.4 L 61.5,53.7" style="fill:none;stroke:#000000;stroke-width:2.0px;stroke-linecap:butt;stroke-linejoin:miter;stroke-miterlimit:10;stroke-opacity:1;"/>
<path d="M 83.5,77.1 L 84.7,78.4 L 86.4,77.9" style="fill:none;stroke:#000000;stroke-width:2.0px;stroke-linecap:butt;stroke-linejoin:miter;stroke-miterlimit:10;stroke-opacity:1;"/>
<path d="M 211.0,233.4 L 211.1,234.9 L 209.5,235.8" style="fill:none;stroke:#000000;stroke-width:2.0px;stroke-linecap:butt;stroke-linejoin:miter;stroke-miterlimit:10;stroke-opacity:1;"/>
<path d="M 270.5,197.1 L 272.1,197.9 L 273.6,197.0" style="fill:none;stroke:#000000;stroke-width:2.0px;stroke-linecap:butt;stroke-linejoin:miter;stroke-miterlimit:10;stroke-opacity:1;"/>
<path d="M 301.0,180.4 L 302.6,179.5 L 302.5,177.7" style="fill:none;stroke:#000000;stroke-width:2.0px;stroke-linecap:butt;stroke-linejoin:miter;stroke-miterlimit:10;stroke-opacity:1;"/>
<path d="M 272.2,127.5 L 270.6,126.7 L 269.1,127.6" style="fill:none;stroke:#000000;stroke-width:2.0px;stroke-linecap:butt;stroke-linejoin:miter;stroke-miterlimit:10;stroke-opacity:1;"/>
<path d="M 392.8,123.4 L 394.1,124.1 L 395.6,123.2" style="fill:none;stroke:#000000;stroke-width:2.0px;stroke-linecap:butt;stroke-linejoin:miter;stroke-miterlimit:10;stroke-opacity:1;"/>
<path d="M 423.1,106.6 L 424.6,105.7 L 424.6,104.2" style="fill:none;stroke:#000000;stroke-width:2.0px;stroke-linecap:butt;stroke-linejoin:miter;stroke-miterlimit:10;stroke-opacity:1;"/>
<path d="M 453.1,52.4 L 454.4,51.6 L 455.9,52.4" style="fill:none;stroke:#000000;stroke-width:2.0px;stroke-linecap:butt;stroke-linejoin:miter;stroke-miterlimit:10;stroke-opacity:1;"/>
<path d="M 393.9,53.6 L 392.6,52.8 L 391.1,53.8" style="fill:none;stroke:#000000;stroke-width:2.0px;stroke-linecap:butt;stroke-linejoin:miter;stroke-miterlimit:10;stroke-opacity:1;"/>
<path d="M 363.6,70.4 L 362.1,71.3 L 362.2,72.8" style="fill:none;stroke:#000000;stroke-width:2.0px;stroke-linecap:butt;stroke-linejoin:miter;stroke-miterlimit:10;stroke-opacity:1;"/>
<path class="atom-4" d="M 131.0 32.3 L 134.3 37.7 Q 134.7 38.2, 135.2 39.2 Q 135.7 40.1, 135.7 40.2 L 135.7 32.3 L 137.1 32.3 L 137.1 42.4 L 135.7 42.4 L 132.1 36.6 Q 131.7 35.9, 131.3 35.1 Q 130.9 34.3, 130.7 34.1 L 130.7 42.4 L 129.4 42.4 L 129.4 32.3 L 131.0 32.3 " fill="#000000"/>
<path class="atom-8" d="M 144.2 88.5 L 147.5 93.8 Q 147.8 94.4, 148.3 95.3 Q 148.9 96.3, 148.9 96.3 L 148.9 88.5 L 150.2 88.5 L 150.2 98.6 L 148.8 98.6 L 145.3 92.7 Q 144.9 92.1, 144.4 91.3 Q 144.0 90.5, 143.9 90.2 L 143.9 98.6 L 142.6 98.6 L 142.6 88.5 L 144.2 88.5 " fill="#000000"/>
<path class="atom-10" d="M 176.1 141.3 L 179.4 146.7 Q 179.8 147.2, 180.3 148.2 Q 180.8 149.1, 180.9 149.2 L 180.9 141.3 L 182.2 141.3 L 182.2 151.4 L 180.8 151.4 L 177.3 145.6 Q 176.8 144.9, 176.4 144.1 Q 176.0 143.3, 175.8 143.1 L 175.8 151.4 L 174.5 151.4 L 174.5 141.3 L 176.1 141.3 " fill="#000000"/>
<path class="atom-12" d="M 205.9 87.2 L 209.2 92.6 Q 209.5 93.1, 210.1 94.1 Q 210.6 95.0, 210.6 95.1 L 210.6 87.2 L 212.0 87.2 L 212.0 97.3 L 210.6 97.3 L 207.0 91.5 Q 206.6 90.8, 206.2 90.0 Q 205.7 89.2, 205.6 89.0 L 205.6 97.3 L 204.3 97.3 L 204.3 87.2 L 205.9 87.2 " fill="#000000"/>
<path class="atom-15" d="M 205.7 199.2 Q 205.7 196.8, 206.9 195.5 Q 208.1 194.1, 210.3 194.1 Q 212.6 194.1, 213.8 195.5 Q 215.0 196.8, 215.0 199.2 Q 215.0 201.7, 213.7 203.1 Q 212.5 204.5, 210.3 204.5 Q 208.1 204.5, 206.9 203.1 Q 205.7 201.7, 205.7 199.2 M 210.3 203.3 Q 211.9 203.3, 212.7 202.3 Q 213.5 201.3, 213.5 199.2 Q 213.5 197.3, 212.7 196.3 Q 211.9 195.2, 210.3 195.2 Q 208.8 195.2, 207.9 196.2 Q 207.1 197.2, 207.1 199.2 Q 207.1 201.3, 207.9 202.3 Q 208.8 203.3, 210.3 203.3 " fill="#000000"/>
<path class="atom-22" d="M 329.5 128.9 Q 329.6 128.9, 330.1 129.1 Q 330.5 129.3, 331.1 129.4 Q 331.6 129.5, 332.1 129.5 Q 333.1 129.5, 333.6 129.1 Q 334.2 128.6, 334.2 127.8 Q 334.2 127.2, 333.9 126.9 Q 333.6 126.6, 333.2 126.4 Q 332.8 126.2, 332.0 126.0 Q 331.1 125.7, 330.6 125.5 Q 330.1 125.2, 329.7 124.7 Q 329.3 124.1, 329.3 123.2 Q 329.3 121.9, 330.2 121.1 Q 331.0 120.4, 332.8 120.4 Q 333.9 120.4, 335.3 120.9 L 334.9 122.0 Q 333.7 121.5, 332.8 121.5 Q 331.8 121.5, 331.3 121.9 Q 330.7 122.3, 330.7 123.0 Q 330.7 123.6, 331.0 123.9 Q 331.3 124.2, 331.7 124.4 Q 332.1 124.6, 332.8 124.8 Q 333.7 125.1, 334.3 125.4 Q 334.8 125.7, 335.2 126.2 Q 335.6 126.8, 335.6 127.8 Q 335.6 129.2, 334.6 130.0 Q 333.7 130.7, 332.2 130.7 Q 331.3 130.7, 330.6 130.5 Q 329.9 130.3, 329.1 130.0 L 329.5 128.9 " fill="#000000"/>
<path class="atom-23" d="M 346.2 155.9 Q 346.2 153.5, 347.4 152.1 Q 348.6 150.8, 350.8 150.8 Q 353.0 150.8, 354.2 152.1 Q 355.4 153.5, 355.4 155.9 Q 355.4 158.4, 354.2 159.8 Q 353.0 161.2, 350.8 161.2 Q 348.6 161.2, 347.4 159.8 Q 346.2 158.4, 346.2 155.9 M 350.8 160.0 Q 352.3 160.0, 353.2 159.0 Q 354.0 158.0, 354.0 155.9 Q 354.0 153.9, 353.2 152.9 Q 352.3 151.9, 350.8 151.9 Q 349.3 151.9, 348.4 152.9 Q 347.6 153.9, 347.6 155.9 Q 347.6 158.0, 348.4 159.0 Q 349.3 160.0, 350.8 160.0 " fill="#000000"/>
<path class="atom-24" d="M 309.3 94.9 Q 309.3 92.5, 310.5 91.1 Q 311.7 89.8, 313.9 89.8 Q 316.1 89.8, 317.3 91.1 Q 318.5 92.5, 318.5 94.9 Q 318.5 97.4, 317.3 98.8 Q 316.1 100.2, 313.9 100.2 Q 311.7 100.2, 310.5 98.8 Q 309.3 97.4, 309.3 94.9 M 313.9 99.0 Q 315.4 99.0, 316.3 98.0 Q 317.1 96.9, 317.1 94.9 Q 317.1 92.9, 316.3 91.9 Q 315.4 90.9, 313.9 90.9 Q 312.4 90.9, 311.5 91.9 Q 310.7 92.9, 310.7 94.9 Q 310.7 97.0, 311.5 98.0 Q 312.4 99.0, 313.9 99.0 " fill="#000000"/>
<path class="atom-25" d="M 360.6 101.9 L 363.9 107.2 Q 364.3 107.8, 364.8 108.7 Q 365.3 109.7, 365.3 109.7 L 365.3 101.9 L 366.7 101.9 L 366.7 112.0 L 365.3 112.0 L 361.7 106.1 Q 361.3 105.5, 360.9 104.7 Q 360.5 103.9, 360.3 103.6 L 360.3 112.0 L 359.0 112.0 L 359.0 101.9 L 360.6 101.9 " fill="#000000"/>
<path class="atom-28" d="M 421.6 65.0 L 424.9 70.3 Q 425.3 70.9, 425.8 71.8 Q 426.3 72.8, 426.3 72.8 L 426.3 65.0 L 427.7 65.0 L 427.7 75.1 L 426.3 75.1 L 422.8 69.2 Q 422.3 68.5, 421.9 67.8 Q 421.5 67.0, 421.3 66.7 L 421.3 75.1 L 420.0 75.1 L 420.0 65.0 L 421.6 65.0 " fill="#000000"/>
<path class="atom-33" d="M 102.0 142.6 L 103.4 142.6 L 103.4 146.9 L 108.5 146.9 L 108.5 142.6 L 109.9 142.6 L 109.9 152.7 L 108.5 152.7 L 108.5 148.1 L 103.4 148.1 L 103.4 152.7 L 102.0 152.7 L 102.0 142.6 " fill="#000000"/>
<path class="atom-33" d="M 112.0 147.7 Q 112.0 145.2, 113.2 143.9 Q 114.4 142.5, 116.6 142.5 Q 118.9 142.5, 120.1 143.9 Q 121.3 145.2, 121.3 147.7 Q 121.3 150.1, 120.0 151.5 Q 118.8 152.9, 116.6 152.9 Q 114.4 152.9, 113.2 151.5 Q 112.0 150.1, 112.0 147.7 M 116.6 151.8 Q 118.2 151.8, 119.0 150.7 Q 119.8 149.7, 119.8 147.7 Q 119.8 145.7, 119.0 144.7 Q 118.2 143.7, 116.6 143.7 Q 115.1 143.7, 114.2 144.7 Q 113.4 145.7, 113.4 147.7 Q 113.4 149.7, 114.2 150.7 Q 115.1 151.8, 116.6 151.8 " fill="#000000"/>
</svg>