<?xml version='1.0' encoding='utf-8'?>
<svg xmlns="http://www.w3.org/2000/svg" xmlns:rdkit="http://www.rdkit.org/xml" xmlns:xlink="http://www.w3.org/1999/xlink" version="1.1" baseProfile="full" xml:space="preserve" width="512px" height="200px" viewBox="0 0 512 200">

<rect style="opacity:1.0;fill:#FFFFFF;stroke:none" width="512.0" height="200.0" x="0.0" y="0.0"> </rect>
<path class="bond-0 atom-0 atom-1" d="M 25.6,70.2 L 48.2,86.2" style="fill:none;fill-rule:evenodd;stroke:#000000;stroke-width:2.0px;stroke-linecap:butt;stroke-linejoin:miter;stroke-opacity:1"/>
<path class="bond-1 atom-1 atom-2" d="M 59.5,87.7 L 85.3,75.8" style="fill:none;fill-rule:evenodd;stroke:#000000;stroke-width:2.0px;stroke-linecap:butt;stroke-linejoin:miter;stroke-opacity:1"/>
<path class="bond-2 atom-2 atom-3" d="M 85.3,75.8 L 88.6,41.3" style="fill:none;fill-rule:evenodd;stroke:#000000;stroke-width:2.0px;stroke-linecap:butt;stroke-linejoin:miter;stroke-opacity:1"/>
<path class="bond-2 atom-2 atom-3" d="M 90.8,73.3 L 93.5,44.8" style="fill:none;fill-rule:evenodd;stroke:#000000;stroke-width:2.0px;stroke-linecap:butt;stroke-linejoin:miter;stroke-opacity:1"/>
<path class="bond-3 atom-3 atom-4" d="M 88.6,41.3 L 120.1,26.9" style="fill:none;fill-rule:evenodd;stroke:#000000;stroke-width:2.0px;stroke-linecap:butt;stroke-linejoin:miter;stroke-opacity:1"/>
<path class="bond-4 atom-4 atom-5" d="M 120.1,26.9 L 148.3,47.0" style="fill:none;fill-rule:evenodd;stroke:#000000;stroke-width:2.0px;stroke-linecap:butt;stroke-linejoin:miter;stroke-opacity:1"/>
<path class="bond-4 atom-4 atom-5" d="M 119.5,32.9 L 142.8,49.5" style="fill:none;fill-rule:evenodd;stroke:#000000;stroke-width:2.0px;stroke-linecap:butt;stroke-linejoin:miter;stroke-opacity:1"/>
<path class="bond-5 atom-5 atom-6" d="M 148.3,47.0 L 145.1,81.5" style="fill:none;fill-rule:evenodd;stroke:#000000;stroke-width:2.0px;stroke-linecap:butt;stroke-linejoin:miter;stroke-opacity:1"/>
<path class="bond-6 atom-6 atom-7" d="M 145.1,81.5 L 113.6,95.9" style="fill:none;fill-rule:evenodd;stroke:#000000;stroke-width:2.0px;stroke-linecap:butt;stroke-linejoin:miter;stroke-opacity:1"/>
<path class="bond-6 atom-6 atom-7" d="M 140.2,78.0 L 114.1,89.9" style="fill:none;fill-rule:evenodd;stroke:#000000;stroke-width:2.0px;stroke-linecap:butt;stroke-linejoin:miter;stroke-opacity:1"/>
<path class="bond-7 atom-6 atom-8" d="M 145.1,81.5 L 173.3,101.5" style="fill:none;fill-rule:evenodd;stroke:#000000;stroke-width:2.0px;stroke-linecap:butt;stroke-linejoin:miter;stroke-opacity:1"/>
<path class="bond-8 atom-8 atom-9" d="M 173.3,101.5 L 170.0,136.0" style="fill:none;fill-rule:evenodd;stroke:#000000;stroke-width:2.0px;stroke-linecap:butt;stroke-linejoin:miter;stroke-opacity:1"/>
<path class="bond-9 atom-9 atom-10" d="M 170.0,136.0 L 192.6,152.0" style="fill:none;fill-rule:evenodd;stroke:#000000;stroke-width:2.0px;stroke-linecap:butt;stroke-linejoin:miter;stroke-opacity:1"/>
<path class="bond-10 atom-10 atom-11" d="M 203.9,153.5 L 229.8,141.6" style="fill:none;fill-rule:evenodd;stroke:#000000;stroke-width:2.0px;stroke-linecap:butt;stroke-linejoin:miter;stroke-opacity:1"/>
<path class="bond-11 atom-11 atom-12" d="M 229.8,141.6 L 258.0,161.7" style="fill:none;fill-rule:evenodd;stroke:#000000;stroke-width:2.0px;stroke-linecap:butt;stroke-linejoin:miter;stroke-opacity:1"/>
<path class="bond-12 atom-12 atom-13" d="M 258.0,161.7 L 289.5,147.2" style="fill:none;fill-rule:evenodd;stroke:#000000;stroke-width:2.0px;stroke-linecap:butt;stroke-linejoin:miter;stroke-opacity:1"/>
<path class="bond-12 atom-12 atom-13" d="M 258.6,155.7 L 284.6,143.8" style="fill:none;fill-rule:evenodd;stroke:#000000;stroke-width:2.0px;stroke-linecap:butt;stroke-linejoin:miter;stroke-opacity:1"/>
<path class="bond-13 atom-13 atom-14" d="M 289.5,147.2 L 292.7,112.8" style="fill:none;fill-rule:evenodd;stroke:#000000;stroke-width:2.0px;stroke-linecap:butt;stroke-linejoin:miter;stroke-opacity:1"/>
<path class="bond-14 atom-14 atom-15" d="M 292.7,112.8 L 264.5,92.7" style="fill:none;fill-rule:evenodd;stroke:#000000;stroke-width:2.0px;stroke-linecap:butt;stroke-linejoin:miter;stroke-opacity:1"/>
<path class="bond-14 atom-14 atom-15" d="M 287.3,115.3 L 263.9,98.7" style="fill:none;fill-rule:evenodd;stroke:#000000;stroke-width:2.0px;stroke-linecap:butt;stroke-linejoin:miter;stroke-opacity:1"/>
<path class="bond-15 atom-15 atom-16" d="M 264.5,92.7 L 233.0,107.1" style="fill:none;fill-rule:evenodd;stroke:#000000;stroke-width:2.0px;stroke-linecap:butt;stroke-linejoin:miter;stroke-opacity:1"/>
<path class="bond-16 atom-16 atom-17" d="M 233.0,107.1 L 210.4,91.1" style="fill:none;fill-rule:evenodd;stroke:#000000;stroke-width:2.0px;stroke-linecap:butt;stroke-linejoin:miter;stroke-opacity:1"/>
<path class="bond-17 atom-14 atom-18" d="M 292.7,112.8 L 324.2,98.3" style="fill:none;fill-rule:evenodd;stroke:#000000;stroke-width:2.0px;stroke-linecap:butt;stroke-linejoin:miter;stroke-opacity:1"/>
<path class="bond-18 atom-18 atom-19" d="M 324.2,98.3 L 327.5,63.9" style="fill:none;fill-rule:evenodd;stroke:#000000;stroke-width:2.0px;stroke-linecap:butt;stroke-linejoin:miter;stroke-opacity:1"/>
<path class="bond-19 atom-19 atom-20" d="M 327.5,63.9 L 358.9,49.4" style="fill:none;fill-rule:evenodd;stroke:#000000;stroke-width:2.0px;stroke-linecap:butt;stroke-linejoin:miter;stroke-opacity:1"/>
<path class="bond-20 atom-20 atom-21" d="M 361.4,51.2 L 364.2,21.5" style="fill:none;fill-rule:evenodd;stroke:#000000;stroke-width:2.0px;stroke-linecap:butt;stroke-linejoin:miter;stroke-opacity:1"/>
<path class="bond-20 atom-20 atom-21" d="M 356.2,50.7 L 359.0,21.0" style="fill:none;fill-rule:evenodd;stroke:#000000;stroke-width:2.0px;stroke-linecap:butt;stroke-linejoin:miter;stroke-opacity:1"/>
<path class="bond-21 atom-20 atom-22" d="M 358.9,49.4 L 387.2,69.5" style="fill:none;fill-rule:evenodd;stroke:#000000;stroke-width:2.0px;stroke-linecap:butt;stroke-linejoin:miter;stroke-opacity:1"/>
<path class="bond-22 atom-22 atom-23" d="M 387.2,69.5 L 418.7,55.1" style="fill:none;fill-rule:evenodd;stroke:#000000;stroke-width:2.0px;stroke-linecap:butt;stroke-linejoin:miter;stroke-opacity:1"/>
<path class="bond-22 atom-22 atom-23" d="M 392.1,73.0 L 418.1,61.0" style="fill:none;fill-rule:evenodd;stroke:#000000;stroke-width:2.0px;stroke-linecap:butt;stroke-linejoin:miter;stroke-opacity:1"/>
<path class="bond-23 atom-23 atom-24" d="M 418.7,55.1 L 446.9,75.1" style="fill:none;fill-rule:evenodd;stroke:#000000;stroke-width:2.0px;stroke-linecap:butt;stroke-linejoin:miter;stroke-opacity:1"/>
<path class="bond-24 atom-24 atom-25" d="M 446.9,75.1 L 443.6,109.6" style="fill:none;fill-rule:evenodd;stroke:#000000;stroke-width:2.0px;stroke-linecap:butt;stroke-linejoin:miter;stroke-opacity:1"/>
<path class="bond-24 atom-24 atom-25" d="M 441.4,77.6 L 438.8,106.1" style="fill:none;fill-rule:evenodd;stroke:#000000;stroke-width:2.0px;stroke-linecap:butt;stroke-linejoin:miter;stroke-opacity:1"/>
<path class="bond-25 atom-25 atom-26" d="M 443.6,109.6 L 412.2,124.0" style="fill:none;fill-rule:evenodd;stroke:#000000;stroke-width:2.0px;stroke-linecap:butt;stroke-linejoin:miter;stroke-opacity:1"/>
<path class="bond-26 atom-26 atom-27" d="M 412.2,124.0 L 383.9,104.0" style="fill:none;fill-rule:evenodd;stroke:#000000;stroke-width:2.0px;stroke-linecap:butt;stroke-linejoin:miter;stroke-opacity:1"/>
<path class="bond-26 atom-26 atom-27" d="M 412.7,118.1 L 389.4,101.5" style="fill:none;fill-rule:evenodd;stroke:#000000;stroke-width:2.0px;stroke-linecap:butt;stroke-linejoin:miter;stroke-opacity:1"/>
<path class="bond-27 atom-27 atom-28" d="M 383.9,104.0 L 358.1,115.8" style="fill:none;fill-rule:evenodd;stroke:#000000;stroke-width:2.0px;stroke-linecap:butt;stroke-linejoin:miter;stroke-opacity:1"/>
<path class="bond-28 atom-25 atom-29" d="M 443.6,109.6 L 466.2,125.6" style="fill:none;fill-rule:evenodd;stroke:#000000;stroke-width:2.0px;stroke-linecap:butt;stroke-linejoin:miter;stroke-opacity:1"/>
<path class="bond-29 atom-23 atom-30" d="M 418.7,55.1 L 421.3,26.8" style="fill:none;fill-rule:evenodd;stroke:#000000;stroke-width:2.0px;stroke-linecap:butt;stroke-linejoin:miter;stroke-opacity:1"/>
<path class="bond-30 atom-19 atom-31" d="M 327.5,63.9 L 304.9,47.8" style="fill:none;fill-rule:evenodd;stroke:#000000;stroke-width:2.0px;stroke-linecap:butt;stroke-linejoin:miter;stroke-opacity:1"/>
<path class="bond-31 atom-9 atom-32" d="M 170.0,136.0 L 138.6,150.4" style="fill:none;fill-rule:evenodd;stroke:#000000;stroke-width:2.0px;stroke-linecap:butt;stroke-linejoin:miter;stroke-opacity:1"/>
<path class="bond-32 atom-32 atom-33" d="M 138.6,150.4 L 135.9,178.8" style="fill:none;fill-rule:evenodd;stroke:#000000;stroke-width:2.0px;stroke-linecap:butt;stroke-linejoin:miter;stroke-opacity:1"/>
<path class="bond-33 atom-3 atom-34" d="M 88.6,41.3 L 66.0,25.3" style="fill:none;fill-rule:evenodd;stroke:#000000;stroke-width:2.0px;stroke-linecap:butt;stroke-linejoin:miter;stroke-opacity:1"/>
<path class="bond-34 atom-7 atom-2" d="M 113.6,95.9 L 85.3,75.8" style="fill:none;fill-rule:evenodd;stroke:#000000;stroke-width:2.0px;stroke-linecap:butt;stroke-linejoin:miter;stroke-opacity:1"/>
<path class="bond-35 atom-17 atom-8" d="M 199.1,89.7 L 173.3,101.5" style="fill:none;fill-rule:evenodd;stroke:#000000;stroke-width:2.0px;stroke-linecap:butt;stroke-linejoin:miter;stroke-opacity:1"/>
<path class="bond-36 atom-16 atom-11" d="M 233.0,107.1 L 229.8,141.6" style="fill:none;fill-rule:evenodd;stroke:#000000;stroke-width:2.0px;stroke-linecap:butt;stroke-linejoin:miter;stroke-opacity:1"/>
<path class="bond-36 atom-16 atom-11" d="M 237.9,110.6 L 235.2,139.1" style="fill:none;fill-rule:evenodd;stroke:#000000;stroke-width:2.0px;stroke-linecap:butt;stroke-linejoin:miter;stroke-opacity:1"/>
<path class="bond-37 atom-28 atom-18" d="M 346.8,114.4 L 324.2,98.3" style="fill:none;fill-rule:evenodd;stroke:#000000;stroke-width:2.0px;stroke-linecap:butt;stroke-linejoin:miter;stroke-opacity:1"/>
<path class="bond-38 atom-27 atom-22" d="M 383.9,104.0 L 387.2,69.5" style="fill:none;fill-rule:evenodd;stroke:#000000;stroke-width:2.0px;stroke-linecap:butt;stroke-linejoin:miter;stroke-opacity:1"/>
<path d="M 118.5,27.6 L 120.1,26.9 L 121.5,27.9" style="fill:none;stroke:#000000;stroke-width:2.0px;stroke-linecap:butt;stroke-linejoin:miter;stroke-miterlimit:10;stroke-opacity:1;"/>
<path d="M 146.9,46.0 L 148.3,47.0 L 148.1,48.7" style="fill:none;stroke:#000000;stroke-width:2.0px;stroke-linecap:butt;stroke-linejoin:miter;stroke-miterlimit:10;stroke-opacity:1;"/>
<path d="M 115.1,95.2 L 113.6,95.9 L 112.2,94.9" style="fill:none;stroke:#000000;stroke-width:2.0px;stroke-linecap:butt;stroke-linejoin:miter;stroke-miterlimit:10;stroke-opacity:1;"/>
<path d="M 256.6,160.7 L 258.0,161.7 L 259.6,160.9" style="fill:none;stroke:#000000;stroke-width:2.0px;stroke-linecap:butt;stroke-linejoin:miter;stroke-miterlimit:10;stroke-opacity:1;"/>
<path d="M 287.9,148.0 L 289.5,147.2 L 289.6,145.5" style="fill:none;stroke:#000000;stroke-width:2.0px;stroke-linecap:butt;stroke-linejoin:miter;stroke-miterlimit:10;stroke-opacity:1;"/>
<path d="M 265.9,93.7 L 264.5,92.7 L 262.9,93.4" style="fill:none;stroke:#000000;stroke-width:2.0px;stroke-linecap:butt;stroke-linejoin:miter;stroke-miterlimit:10;stroke-opacity:1;"/>
<path d="M 357.4,50.2 L 358.9,49.4 L 360.4,50.4" style="fill:none;stroke:#000000;stroke-width:2.0px;stroke-linecap:butt;stroke-linejoin:miter;stroke-miterlimit:10;stroke-opacity:1;"/>
<path d="M 445.5,74.1 L 446.9,75.1 L 446.7,76.8" style="fill:none;stroke:#000000;stroke-width:2.0px;stroke-linecap:butt;stroke-linejoin:miter;stroke-miterlimit:10;stroke-opacity:1;"/>
<path d="M 413.7,123.3 L 412.2,124.0 L 410.8,123.0" style="fill:none;stroke:#000000;stroke-width:2.0px;stroke-linecap:butt;stroke-linejoin:miter;stroke-miterlimit:10;stroke-opacity:1;"/>
<path d="M 140.1,149.7 L 138.6,150.4 L 138.4,151.8" style="fill:none;stroke:#000000;stroke-width:2.0px;stroke-linecap:butt;stroke-linejoin:miter;stroke-miterlimit:10;stroke-opacity:1;"/>
<path class="atom-1" d="M 49.3 90.3 Q 49.3 87.9, 50.5 86.6 Q 51.7 85.3, 53.8 85.3 Q 56.0 85.3, 57.2 86.6 Q 58.3 87.9, 58.3 90.3 Q 58.3 92.7, 57.2 94.0 Q 56.0 95.4, 53.8 95.4 Q 51.7 95.4, 50.5 94.0 Q 49.3 92.7, 49.3 90.3 M 53.8 94.2 Q 55.3 94.2, 56.1 93.3 Q 57.0 92.2, 57.0 90.3 Q 57.0 88.3, 56.1 87.4 Q 55.3 86.4, 53.8 86.4 Q 52.4 86.4, 51.5 87.4 Q 50.7 88.3, 50.7 90.3 Q 50.7 92.3, 51.5 93.3 Q 52.4 94.2, 53.8 94.2 " fill="#000000"/>
<path class="atom-10" d="M 193.8 156.1 Q 193.8 153.7, 194.9 152.4 Q 196.1 151.1, 198.3 151.1 Q 200.4 151.1, 201.6 152.4 Q 202.8 153.7, 202.8 156.1 Q 202.8 158.4, 201.6 159.8 Q 200.4 161.2, 198.3 161.2 Q 196.1 161.2, 194.9 159.8 Q 193.8 158.5, 193.8 156.1 M 198.3 160.0 Q 199.8 160.0, 200.6 159.0 Q 201.4 158.0, 201.4 156.1 Q 201.4 154.1, 200.6 153.2 Q 199.8 152.2, 198.3 152.2 Q 196.8 152.2, 196.0 153.2 Q 195.2 154.1, 195.2 156.1 Q 195.2 158.0, 196.0 159.0 Q 196.8 160.0, 198.3 160.0 " fill="#000000"/>
<path class="atom-17" d="M 200.3 87.1 Q 200.3 84.8, 201.4 83.4 Q 202.6 82.1, 204.8 82.1 Q 206.9 82.1, 208.1 83.4 Q 209.3 84.8, 209.3 87.1 Q 209.3 89.5, 208.1 90.8 Q 206.9 92.2, 204.8 92.2 Q 202.6 92.2, 201.4 90.8 Q 200.3 89.5, 200.3 87.1 M 204.8 91.1 Q 206.3 91.1, 207.1 90.1 Q 207.9 89.1, 207.9 87.1 Q 207.9 85.2, 207.1 84.2 Q 206.3 83.2, 204.8 83.2 Q 203.3 83.2, 202.5 84.2 Q 201.7 85.2, 201.7 87.1 Q 201.7 89.1, 202.5 90.1 Q 203.3 91.1, 204.8 91.1 " fill="#000000"/>
<path class="atom-21" d="M 357.7 15.0 Q 357.7 12.6, 358.9 11.3 Q 360.0 10.0, 362.2 10.0 Q 364.4 10.0, 365.5 11.3 Q 366.7 12.6, 366.7 15.0 Q 366.7 17.4, 365.5 18.7 Q 364.3 20.1, 362.2 20.1 Q 360.0 20.1, 358.9 18.7 Q 357.7 17.4, 357.7 15.0 M 362.2 19.0 Q 363.7 19.0, 364.5 18.0 Q 365.3 17.0, 365.3 15.0 Q 365.3 13.1, 364.5 12.1 Q 363.7 11.1, 362.2 11.1 Q 360.7 11.1, 359.9 12.1 Q 359.1 13.0, 359.1 15.0 Q 359.1 17.0, 359.9 18.0 Q 360.7 19.0, 362.2 19.0 " fill="#000000"/>
<path class="atom-28" d="M 347.9 118.4 Q 347.9 116.1, 349.1 114.8 Q 350.3 113.4, 352.4 113.4 Q 354.6 113.4, 355.8 114.8 Q 356.9 116.1, 356.9 118.4 Q 356.9 120.8, 355.8 122.2 Q 354.6 123.5, 352.4 123.5 Q 350.3 123.5, 349.1 122.2 Q 347.9 120.8, 347.9 118.4 M 352.4 122.4 Q 353.9 122.4, 354.7 121.4 Q 355.6 120.4, 355.6 118.4 Q 355.6 116.5, 354.7 115.5 Q 353.9 114.5, 352.4 114.5 Q 350.9 114.5, 350.1 115.5 Q 349.3 116.5, 349.3 118.4 Q 349.3 120.4, 350.1 121.4 Q 350.9 122.4, 352.4 122.4 " fill="#000000"/>
<path class="atom-29" d="M 467.4 129.7 Q 467.4 127.3, 468.5 126.0 Q 469.7 124.7, 471.9 124.7 Q 474.1 124.7, 475.2 126.0 Q 476.4 127.3, 476.4 129.7 Q 476.4 132.1, 475.2 133.4 Q 474.0 134.8, 471.9 134.8 Q 469.7 134.8, 468.5 133.4 Q 467.4 132.1, 467.4 129.7 M 471.9 133.7 Q 473.4 133.7, 474.2 132.7 Q 475.0 131.7, 475.0 129.7 Q 475.0 127.8, 474.2 126.8 Q 473.4 125.8, 471.9 125.8 Q 470.4 125.8, 469.6 126.8 Q 468.8 127.7, 468.8 129.7 Q 468.8 131.7, 469.6 132.7 Q 470.4 133.7, 471.9 133.7 " fill="#000000"/>
<path class="atom-29" d="M 477.9 124.8 L 479.2 124.8 L 479.2 129.0 L 484.3 129.0 L 484.3 124.8 L 485.6 124.8 L 485.6 134.6 L 484.3 134.6 L 484.3 130.1 L 479.2 130.1 L 479.2 134.6 L 477.9 134.6 L 477.9 124.8 " fill="#000000"/>
<path class="atom-30" d="M 417.4 20.6 Q 417.4 18.3, 418.6 16.9 Q 419.7 15.6, 421.9 15.6 Q 424.1 15.6, 425.3 16.9 Q 426.4 18.3, 426.4 20.6 Q 426.4 23.0, 425.2 24.4 Q 424.1 25.7, 421.9 25.7 Q 419.8 25.7, 418.6 24.4 Q 417.4 23.0, 417.4 20.6 M 421.9 24.6 Q 423.4 24.6, 424.2 23.6 Q 425.0 22.6, 425.0 20.6 Q 425.0 18.7, 424.2 17.7 Q 423.4 16.7, 421.9 16.7 Q 420.4 16.7, 419.6 17.7 Q 418.8 18.7, 418.8 20.6 Q 418.8 22.6, 419.6 23.6 Q 420.4 24.6, 421.9 24.6 " fill="#000000"/>
<path class="atom-30" d="M 427.9 15.7 L 429.3 15.7 L 429.3 19.9 L 434.3 19.9 L 434.3 15.7 L 435.6 15.7 L 435.6 25.5 L 434.3 25.5 L 434.3 21.0 L 429.3 21.0 L 429.3 25.5 L 427.9 25.5 L 427.9 15.7 " fill="#000000"/>
<path class="atom-31" d="M 285.0 39.0 L 286.4 39.0 L 286.4 43.1 L 291.4 43.1 L 291.4 39.0 L 292.7 39.0 L 292.7 48.8 L 291.4 48.8 L 291.4 44.2 L 286.4 44.2 L 286.4 48.8 L 285.0 48.8 L 285.0 39.0 " fill="#000000"/>
<path class="atom-31" d="M 294.7 43.8 Q 294.7 41.5, 295.9 40.2 Q 297.1 38.8, 299.2 38.8 Q 301.4 38.8, 302.6 40.2 Q 303.7 41.5, 303.7 43.8 Q 303.7 46.2, 302.6 47.6 Q 301.4 48.9, 299.2 48.9 Q 297.1 48.9, 295.9 47.6 Q 294.7 46.2, 294.7 43.8 M 299.2 47.8 Q 300.7 47.8, 301.5 46.8 Q 302.3 45.8, 302.3 43.8 Q 302.3 41.9, 301.5 40.9 Q 300.7 40.0, 299.2 40.0 Q 297.7 40.0, 296.9 40.9 Q 296.1 41.9, 296.1 43.8 Q 296.1 45.8, 296.9 46.8 Q 297.7 47.8, 299.2 47.8 " fill="#000000"/>
<path class="atom-33" d="M 130.8 184.9 Q 130.8 182.6, 132.0 181.2 Q 133.1 179.9, 135.3 179.9 Q 137.5 179.9, 138.6 181.2 Q 139.8 182.6, 139.8 184.9 Q 139.8 187.3, 138.6 188.7 Q 137.4 190.0, 135.3 190.0 Q 133.1 190.0, 132.0 188.7 Q 130.8 187.3, 130.8 184.9 M 135.3 188.9 Q 136.8 188.9, 137.6 187.9 Q 138.4 186.9, 138.4 184.9 Q 138.4 183.0, 137.6 182.0 Q 136.8 181.0, 135.3 181.0 Q 133.8 181.0, 133.0 182.0 Q 132.2 183.0, 132.2 184.9 Q 132.2 186.9, 133.0 187.9 Q 133.8 188.9, 135.3 188.9 " fill="#000000"/>
<path class="atom-33" d="M 141.3 180.0 L 142.7 180.0 L 142.7 184.2 L 147.7 184.2 L 147.7 180.0 L 149.0 180.0 L 149.0 189.8 L 147.7 189.8 L 147.7 185.3 L 142.7 185.3 L 142.7 189.8 L 141.3 189.8 L 141.3 180.0 " fill="#000000"/>
<path class="atom-34" d="M 46.2 16.4 L 47.5 16.4 L 47.5 20.6 L 52.5 20.6 L 52.5 16.4 L 53.8 16.4 L 53.8 26.2 L 52.5 26.2 L 52.5 21.7 L 47.5 21.7 L 47.5 26.2 L 46.2 26.2 L 46.2 16.4 " fill="#000000"/>
<path class="atom-34" d="M 55.8 21.3 Q 55.8 19.0, 57.0 17.6 Q 58.2 16.3, 60.3 16.3 Q 62.5 16.3, 63.7 17.6 Q 64.9 19.0, 64.9 21.3 Q 64.9 23.7, 63.7 25.1 Q 62.5 26.4, 60.3 26.4 Q 58.2 26.4, 57.0 25.1 Q 55.8 23.7, 55.8 21.3 M 60.3 25.3 Q 61.8 25.3, 62.6 24.3 Q 63.5 23.3, 63.5 21.3 Q 63.5 19.4, 62.6 18.4 Q 61.8 17.4, 60.3 17.4 Q 58.9 17.4, 58.0 18.4 Q 57.2 19.4, 57.2 21.3 Q 57.2 23.3, 58.0 24.3 Q 58.9 25.3, 60.3 25.3 " fill="#000000"/>
</svg>