<?xml version='1.0' encoding='utf-8'?>
<svg xmlns="http://www.w3.org/2000/svg" xmlns:rdkit="http://www.rdkit.org/xml" xmlns:xlink="http://www.w3.org/1999/xlink" version="1.1" baseProfile="full" xml:space="preserve" width="512px" height="172px" viewBox="0 0 512 172">

<rect style="opacity:1.0;fill:#FFFFFF;stroke:none" width="512.0" height="172.0" x="0.0" y="0.0"> </rect>
<path class="bond-0 atom-0 atom-1" d="M 191.0,136.2 L 162.9,122.7" style="fill:none;fill-rule:evenodd;stroke:#000000;stroke-width:2.0px;stroke-linecap:butt;stroke-linejoin:miter;stroke-opacity:1"/>
<path class="bond-1 atom-1 atom-2" d="M 162.9,122.7 L 144.0,139.4" style="fill:none;fill-rule:evenodd;stroke:#000000;stroke-width:2.0px;stroke-linecap:butt;stroke-linejoin:miter;stroke-opacity:1"/>
<path class="bond-2 atom-3 atom-1" d="M 160.6,91.7 L 165.4,123.9 L 162.9,122.7 L 160.6,124.7 Z" style="fill:#000000;fill-rule:evenodd;fill-opacity:1;stroke:#000000;stroke-width:0.5px;stroke-linecap:butt;stroke-linejoin:miter;stroke-miterlimit:10;stroke-opacity:1;"/>
<path class="bond-3 atom-3 atom-4" d="M 160.6,91.7 L 161.4,66.0" style="fill:none;fill-rule:evenodd;stroke:#000000;stroke-width:2.0px;stroke-linecap:butt;stroke-linejoin:miter;stroke-opacity:1"/>
<path class="bond-4 atom-4 atom-5" d="M 165.9,59.3 L 191.4,51.8" style="fill:none;fill-rule:evenodd;stroke:#000000;stroke-width:2.0px;stroke-linecap:butt;stroke-linejoin:miter;stroke-opacity:1"/>
<path class="bond-5 atom-5 atom-6" d="M 193.0,54.2 L 202.1,28.9" style="fill:none;fill-rule:evenodd;stroke:#000000;stroke-width:2.0px;stroke-linecap:butt;stroke-linejoin:miter;stroke-opacity:1"/>
<path class="bond-5 atom-5 atom-6" d="M 188.7,52.6 L 197.8,27.3" style="fill:none;fill-rule:evenodd;stroke:#000000;stroke-width:2.0px;stroke-linecap:butt;stroke-linejoin:miter;stroke-opacity:1"/>
<path class="bond-6 atom-5 atom-7" d="M 191.4,51.8 L 209.0,77.5" style="fill:none;fill-rule:evenodd;stroke:#000000;stroke-width:2.0px;stroke-linecap:butt;stroke-linejoin:miter;stroke-opacity:1"/>
<path class="bond-7 atom-7 atom-8" d="M 212.6,78.0 L 212.7,77.3" style="fill:none;fill-rule:evenodd;stroke:#000000;stroke-width:1.0px;stroke-linecap:butt;stroke-linejoin:miter;stroke-opacity:1"/>
<path class="bond-7 atom-7 atom-8" d="M 216.3,78.5 L 216.3,77.0" style="fill:none;fill-rule:evenodd;stroke:#000000;stroke-width:1.0px;stroke-linecap:butt;stroke-linejoin:miter;stroke-opacity:1"/>
<path class="bond-7 atom-7 atom-8" d="M 220.0,79.0 L 220.0,76.7" style="fill:none;fill-rule:evenodd;stroke:#000000;stroke-width:1.0px;stroke-linecap:butt;stroke-linejoin:miter;stroke-opacity:1"/>
<path class="bond-7 atom-7 atom-8" d="M 223.6,79.5 L 223.7,76.5" style="fill:none;fill-rule:evenodd;stroke:#000000;stroke-width:1.0px;stroke-linecap:butt;stroke-linejoin:miter;stroke-opacity:1"/>
<path class="bond-7 atom-7 atom-8" d="M 227.3,80.0 L 227.4,76.2" style="fill:none;fill-rule:evenodd;stroke:#000000;stroke-width:1.0px;stroke-linecap:butt;stroke-linejoin:miter;stroke-opacity:1"/>
<path class="bond-7 atom-7 atom-8" d="M 230.9,80.5 L 231.1,75.9" style="fill:none;fill-rule:evenodd;stroke:#000000;stroke-width:1.0px;stroke-linecap:butt;stroke-linejoin:miter;stroke-opacity:1"/>
<path class="bond-8 atom-8 atom-9" d="M 243.0,83.9 L 254.8,105.9" style="fill:none;fill-rule:evenodd;stroke:#000000;stroke-width:2.0px;stroke-linecap:butt;stroke-linejoin:miter;stroke-opacity:1"/>
<path class="bond-9 atom-9 atom-10" d="M 253.6,103.6 L 239.9,125.7" style="fill:none;fill-rule:evenodd;stroke:#000000;stroke-width:2.0px;stroke-linecap:butt;stroke-linejoin:miter;stroke-opacity:1"/>
<path class="bond-9 atom-9 atom-10" d="M 257.5,106.0 L 243.8,128.1" style="fill:none;fill-rule:evenodd;stroke:#000000;stroke-width:2.0px;stroke-linecap:butt;stroke-linejoin:miter;stroke-opacity:1"/>
<path class="bond-10 atom-11 atom-9" d="M 282.5,106.4 L 282.5,107.0" style="fill:none;fill-rule:evenodd;stroke:#000000;stroke-width:1.0px;stroke-linecap:butt;stroke-linejoin:miter;stroke-opacity:1"/>
<path class="bond-10 atom-11 atom-9" d="M 279.1,106.0 L 279.0,107.2" style="fill:none;fill-rule:evenodd;stroke:#000000;stroke-width:1.0px;stroke-linecap:butt;stroke-linejoin:miter;stroke-opacity:1"/>
<path class="bond-10 atom-11 atom-9" d="M 275.6,105.7 L 275.6,107.4" style="fill:none;fill-rule:evenodd;stroke:#000000;stroke-width:1.0px;stroke-linecap:butt;stroke-linejoin:miter;stroke-opacity:1"/>
<path class="bond-10 atom-11 atom-9" d="M 272.2,105.3 L 272.1,107.6" style="fill:none;fill-rule:evenodd;stroke:#000000;stroke-width:1.0px;stroke-linecap:butt;stroke-linejoin:miter;stroke-opacity:1"/>
<path class="bond-10 atom-11 atom-9" d="M 268.7,104.9 L 268.6,107.7" style="fill:none;fill-rule:evenodd;stroke:#000000;stroke-width:1.0px;stroke-linecap:butt;stroke-linejoin:miter;stroke-opacity:1"/>
<path class="bond-10 atom-11 atom-9" d="M 265.3,104.5 L 265.2,107.9" style="fill:none;fill-rule:evenodd;stroke:#000000;stroke-width:1.0px;stroke-linecap:butt;stroke-linejoin:miter;stroke-opacity:1"/>
<path class="bond-10 atom-11 atom-9" d="M 261.8,104.1 L 261.7,108.1" style="fill:none;fill-rule:evenodd;stroke:#000000;stroke-width:1.0px;stroke-linecap:butt;stroke-linejoin:miter;stroke-opacity:1"/>
<path class="bond-10 atom-11 atom-9" d="M 258.4,103.7 L 258.2,108.3" style="fill:none;fill-rule:evenodd;stroke:#000000;stroke-width:1.0px;stroke-linecap:butt;stroke-linejoin:miter;stroke-opacity:1"/>
<path class="bond-11 atom-11 atom-12" d="M 286.0,106.8 L 300.7,134.2" style="fill:none;fill-rule:evenodd;stroke:#000000;stroke-width:2.0px;stroke-linecap:butt;stroke-linejoin:miter;stroke-opacity:1"/>
<path class="bond-12 atom-12 atom-13" d="M 300.7,134.2 L 327.5,135.1" style="fill:none;fill-rule:evenodd;stroke:#000000;stroke-width:2.0px;stroke-linecap:butt;stroke-linejoin:miter;stroke-opacity:1"/>
<path class="bond-13 atom-13 atom-14" d="M 334.7,140.6 L 346.6,162.6" style="fill:none;fill-rule:evenodd;stroke:#000000;stroke-width:2.0px;stroke-linecap:butt;stroke-linejoin:miter;stroke-opacity:1"/>
<path class="bond-14 atom-13 atom-15" d="M 335.2,129.8 L 348.2,108.7" style="fill:none;fill-rule:evenodd;stroke:#000000;stroke-width:2.0px;stroke-linecap:butt;stroke-linejoin:miter;stroke-opacity:1"/>
<path class="bond-15 atom-15 atom-16" d="M 348.2,108.7 L 379.3,109.6" style="fill:none;fill-rule:evenodd;stroke:#000000;stroke-width:2.0px;stroke-linecap:butt;stroke-linejoin:miter;stroke-opacity:1"/>
<path class="bond-16 atom-16 atom-17" d="M 379.3,109.6 L 395.7,83.2" style="fill:none;fill-rule:evenodd;stroke:#000000;stroke-width:2.0px;stroke-linecap:butt;stroke-linejoin:miter;stroke-opacity:1"/>
<path class="bond-17 atom-17 atom-18" d="M 395.7,83.2 L 380.9,55.7" style="fill:none;fill-rule:evenodd;stroke:#000000;stroke-width:2.0px;stroke-linecap:butt;stroke-linejoin:miter;stroke-opacity:1"/>
<path class="bond-17 atom-17 atom-18" d="M 398.2,78.0 L 386.6,56.5" style="fill:none;fill-rule:evenodd;stroke:#000000;stroke-width:2.0px;stroke-linecap:butt;stroke-linejoin:miter;stroke-opacity:1"/>
<path class="bond-18 atom-18 atom-19" d="M 380.9,55.7 L 398.1,37.8" style="fill:none;fill-rule:evenodd;stroke:#000000;stroke-width:2.0px;stroke-linecap:butt;stroke-linejoin:miter;stroke-opacity:1"/>
<path class="bond-19 atom-19 atom-20" d="M 406.8,35.3 L 430.5,46.7" style="fill:none;fill-rule:evenodd;stroke:#000000;stroke-width:2.0px;stroke-linecap:butt;stroke-linejoin:miter;stroke-opacity:1"/>
<path class="bond-20 atom-20 atom-21" d="M 430.5,46.7 L 426.3,77.6" style="fill:none;fill-rule:evenodd;stroke:#000000;stroke-width:2.0px;stroke-linecap:butt;stroke-linejoin:miter;stroke-opacity:1"/>
<path class="bond-21 atom-21 atom-22" d="M 426.3,77.6 L 450.9,96.6" style="fill:none;fill-rule:evenodd;stroke:#000000;stroke-width:2.0px;stroke-linecap:butt;stroke-linejoin:miter;stroke-opacity:1"/>
<path class="bond-21 atom-21 atom-22" d="M 431.2,75.6 L 451.7,91.4" style="fill:none;fill-rule:evenodd;stroke:#000000;stroke-width:2.0px;stroke-linecap:butt;stroke-linejoin:miter;stroke-opacity:1"/>
<path class="bond-22 atom-22 atom-23" d="M 450.9,96.6 L 479.8,84.8" style="fill:none;fill-rule:evenodd;stroke:#000000;stroke-width:2.0px;stroke-linecap:butt;stroke-linejoin:miter;stroke-opacity:1"/>
<path class="bond-23 atom-23 atom-24" d="M 479.8,84.8 L 483.9,54.0" style="fill:none;fill-rule:evenodd;stroke:#000000;stroke-width:2.0px;stroke-linecap:butt;stroke-linejoin:miter;stroke-opacity:1"/>
<path class="bond-23 atom-23 atom-24" d="M 475.6,81.6 L 479.0,56.0" style="fill:none;fill-rule:evenodd;stroke:#000000;stroke-width:2.0px;stroke-linecap:butt;stroke-linejoin:miter;stroke-opacity:1"/>
<path class="bond-24 atom-24 atom-25" d="M 483.9,54.0 L 459.3,34.9" style="fill:none;fill-rule:evenodd;stroke:#000000;stroke-width:2.0px;stroke-linecap:butt;stroke-linejoin:miter;stroke-opacity:1"/>
<path class="bond-25 atom-18 atom-26" d="M 380.9,55.7 L 349.8,54.8" style="fill:none;fill-rule:evenodd;stroke:#000000;stroke-width:2.0px;stroke-linecap:butt;stroke-linejoin:miter;stroke-opacity:1"/>
<path class="bond-26 atom-26 atom-27" d="M 349.8,54.8 L 337.9,32.7" style="fill:none;fill-rule:evenodd;stroke:#000000;stroke-width:2.0px;stroke-linecap:butt;stroke-linejoin:miter;stroke-opacity:1"/>
<path class="bond-27 atom-26 atom-28" d="M 349.8,54.8 L 333.4,81.3" style="fill:none;fill-rule:evenodd;stroke:#000000;stroke-width:2.0px;stroke-linecap:butt;stroke-linejoin:miter;stroke-opacity:1"/>
<path class="bond-27 atom-26 atom-28" d="M 352.3,59.5 L 338.8,81.4" style="fill:none;fill-rule:evenodd;stroke:#000000;stroke-width:2.0px;stroke-linecap:butt;stroke-linejoin:miter;stroke-opacity:1"/>
<path class="bond-28 atom-28 atom-29" d="M 333.4,81.3 L 302.3,80.3" style="fill:none;fill-rule:evenodd;stroke:#000000;stroke-width:2.0px;stroke-linecap:butt;stroke-linejoin:miter;stroke-opacity:1"/>
<path class="bond-29 atom-7 atom-30" d="M 209.0,77.5 L 194.2,96.7" style="fill:none;fill-rule:evenodd;stroke:#000000;stroke-width:2.0px;stroke-linecap:butt;stroke-linejoin:miter;stroke-opacity:1"/>
<path class="bond-30 atom-4 atom-31" d="M 157.2,57.9 L 135.1,44.2" style="fill:none;fill-rule:evenodd;stroke:#000000;stroke-width:2.0px;stroke-linecap:butt;stroke-linejoin:miter;stroke-opacity:1"/>
<path class="bond-31 atom-31 atom-32" d="M 137.3,45.6 L 138.1,18.7" style="fill:none;fill-rule:evenodd;stroke:#000000;stroke-width:2.0px;stroke-linecap:butt;stroke-linejoin:miter;stroke-opacity:1"/>
<path class="bond-31 atom-31 atom-32" d="M 132.7,45.4 L 133.5,18.6" style="fill:none;fill-rule:evenodd;stroke:#000000;stroke-width:2.0px;stroke-linecap:butt;stroke-linejoin:miter;stroke-opacity:1"/>
<path class="bond-32 atom-31 atom-33" d="M 135.1,44.2 L 107.6,58.9" style="fill:none;fill-rule:evenodd;stroke:#000000;stroke-width:2.0px;stroke-linecap:butt;stroke-linejoin:miter;stroke-opacity:1"/>
<path class="bond-33 atom-33 atom-34" d="M 107.6,58.9 L 106.9,84.6" style="fill:none;fill-rule:evenodd;stroke:#000000;stroke-width:2.0px;stroke-linecap:butt;stroke-linejoin:miter;stroke-opacity:1"/>
<path class="bond-34 atom-34 atom-35" d="M 111.1,92.7 L 133.2,106.4" style="fill:none;fill-rule:evenodd;stroke:#000000;stroke-width:2.0px;stroke-linecap:butt;stroke-linejoin:miter;stroke-opacity:1"/>
<path class="bond-35 atom-35 atom-36" d="M 131.1,105.1 L 127.9,125.5" style="fill:none;fill-rule:evenodd;stroke:#000000;stroke-width:2.0px;stroke-linecap:butt;stroke-linejoin:miter;stroke-opacity:1"/>
<path class="bond-35 atom-35 atom-36" d="M 135.7,105.1 L 132.5,126.2" style="fill:none;fill-rule:evenodd;stroke:#000000;stroke-width:2.0px;stroke-linecap:butt;stroke-linejoin:miter;stroke-opacity:1"/>
<path class="bond-36 atom-33 atom-37" d="M 107.6,58.9 L 78.7,43.9 L 83.4,41.4 Z" style="fill:#000000;fill-rule:evenodd;fill-opacity:1;stroke:#000000;stroke-width:0.5px;stroke-linecap:butt;stroke-linejoin:miter;stroke-miterlimit:10;stroke-opacity:1;"/>
<path class="bond-37 atom-37 atom-38" d="M 83.4,41.4 L 53.7,57.3" style="fill:none;fill-rule:evenodd;stroke:#000000;stroke-width:2.0px;stroke-linecap:butt;stroke-linejoin:miter;stroke-opacity:1"/>
<path class="bond-38 atom-38 atom-39" d="M 53.7,57.3 L 27.3,40.9" style="fill:none;fill-rule:evenodd;stroke:#000000;stroke-width:2.0px;stroke-linecap:butt;stroke-linejoin:miter;stroke-opacity:1"/>
<path class="bond-39 atom-38 atom-40" d="M 53.7,57.3 L 52.8,88.4" style="fill:none;fill-rule:evenodd;stroke:#000000;stroke-width:2.0px;stroke-linecap:butt;stroke-linejoin:miter;stroke-opacity:1"/>
<path class="bond-40 atom-30 atom-3" d="M 184.9,100.4 L 160.6,91.7" style="fill:none;fill-rule:evenodd;stroke:#000000;stroke-width:2.0px;stroke-linecap:butt;stroke-linejoin:miter;stroke-opacity:1"/>
<path class="bond-41 atom-35 atom-3" d="M 133.2,106.4 L 160.6,91.7" style="fill:none;fill-rule:evenodd;stroke:#000000;stroke-width:2.0px;stroke-linecap:butt;stroke-linejoin:miter;stroke-opacity:1"/>
<path class="bond-42 atom-29 atom-11" d="M 302.3,80.3 L 286.0,106.8" style="fill:none;fill-rule:evenodd;stroke:#000000;stroke-width:2.0px;stroke-linecap:butt;stroke-linejoin:miter;stroke-opacity:1"/>
<path class="bond-43 atom-28 atom-15" d="M 333.4,81.3 L 348.2,108.7" style="fill:none;fill-rule:evenodd;stroke:#000000;stroke-width:2.0px;stroke-linecap:butt;stroke-linejoin:miter;stroke-opacity:1"/>
<path class="bond-44 atom-21 atom-17" d="M 426.3,77.6 L 395.7,83.2" style="fill:none;fill-rule:evenodd;stroke:#000000;stroke-width:2.0px;stroke-linecap:butt;stroke-linejoin:miter;stroke-opacity:1"/>
<path class="bond-45 atom-25 atom-20" d="M 459.3,34.9 L 430.5,46.7" style="fill:none;fill-rule:evenodd;stroke:#000000;stroke-width:2.0px;stroke-linecap:butt;stroke-linejoin:miter;stroke-opacity:1"/>
<path class="bond-45 atom-25 atom-20" d="M 458.6,40.2 L 434.7,50.0" style="fill:none;fill-rule:evenodd;stroke:#000000;stroke-width:2.0px;stroke-linecap:butt;stroke-linejoin:miter;stroke-opacity:1"/>
<path class="bond-46 atom-15 atom-41" d="M 349.4,105.6 L 350.4,106.2" style="fill:none;fill-rule:evenodd;stroke:#000000;stroke-width:1.0px;stroke-linecap:butt;stroke-linejoin:miter;stroke-opacity:1"/>
<path class="bond-46 atom-15 atom-41" d="M 350.7,102.5 L 352.6,103.7" style="fill:none;fill-rule:evenodd;stroke:#000000;stroke-width:1.0px;stroke-linecap:butt;stroke-linejoin:miter;stroke-opacity:1"/>
<path class="bond-46 atom-15 atom-41" d="M 351.9,99.4 L 354.9,101.2" style="fill:none;fill-rule:evenodd;stroke:#000000;stroke-width:1.0px;stroke-linecap:butt;stroke-linejoin:miter;stroke-opacity:1"/>
<path class="bond-46 atom-15 atom-41" d="M 353.2,96.3 L 357.1,98.7" style="fill:none;fill-rule:evenodd;stroke:#000000;stroke-width:1.0px;stroke-linecap:butt;stroke-linejoin:miter;stroke-opacity:1"/>
<path d="M 164.3,123.4 L 162.9,122.7 L 162.0,123.5" style="fill:none;stroke:#000000;stroke-width:2.0px;stroke-linecap:butt;stroke-linejoin:miter;stroke-miterlimit:10;stroke-opacity:1;"/>
<path d="M 190.2,52.2 L 191.4,51.8 L 192.3,53.1" style="fill:none;stroke:#000000;stroke-width:2.0px;stroke-linecap:butt;stroke-linejoin:miter;stroke-miterlimit:10;stroke-opacity:1;"/>
<path d="M 208.1,76.3 L 209.0,77.5 L 208.2,78.5" style="fill:none;stroke:#000000;stroke-width:2.0px;stroke-linecap:butt;stroke-linejoin:miter;stroke-miterlimit:10;stroke-opacity:1;"/>
<path d="M 286.7,108.2 L 286.0,106.8 L 286.8,105.5" style="fill:none;stroke:#000000;stroke-width:2.0px;stroke-linecap:butt;stroke-linejoin:miter;stroke-miterlimit:10;stroke-opacity:1;"/>
<path d="M 300.0,132.9 L 300.7,134.2 L 302.0,134.3" style="fill:none;stroke:#000000;stroke-width:2.0px;stroke-linecap:butt;stroke-linejoin:miter;stroke-miterlimit:10;stroke-opacity:1;"/>
<path d="M 377.8,109.6 L 379.3,109.6 L 380.1,108.3" style="fill:none;stroke:#000000;stroke-width:2.0px;stroke-linecap:butt;stroke-linejoin:miter;stroke-miterlimit:10;stroke-opacity:1;"/>
<path d="M 449.7,95.7 L 450.9,96.6 L 452.4,96.1" style="fill:none;stroke:#000000;stroke-width:2.0px;stroke-linecap:butt;stroke-linejoin:miter;stroke-miterlimit:10;stroke-opacity:1;"/>
<path d="M 478.3,85.4 L 479.8,84.8 L 480.0,83.3" style="fill:none;stroke:#000000;stroke-width:2.0px;stroke-linecap:butt;stroke-linejoin:miter;stroke-miterlimit:10;stroke-opacity:1;"/>
<path d="M 483.7,55.5 L 483.9,54.0 L 482.7,53.0" style="fill:none;stroke:#000000;stroke-width:2.0px;stroke-linecap:butt;stroke-linejoin:miter;stroke-miterlimit:10;stroke-opacity:1;"/>
<path d="M 460.5,35.9 L 459.3,34.9 L 457.9,35.5" style="fill:none;stroke:#000000;stroke-width:2.0px;stroke-linecap:butt;stroke-linejoin:miter;stroke-miterlimit:10;stroke-opacity:1;"/>
<path d="M 303.9,80.4 L 302.3,80.3 L 301.5,81.7" style="fill:none;stroke:#000000;stroke-width:2.0px;stroke-linecap:butt;stroke-linejoin:miter;stroke-miterlimit:10;stroke-opacity:1;"/>
<path d="M 136.2,44.9 L 135.1,44.2 L 133.7,44.9" style="fill:none;stroke:#000000;stroke-width:2.0px;stroke-linecap:butt;stroke-linejoin:miter;stroke-miterlimit:10;stroke-opacity:1;"/>
<path d="M 109.0,58.2 L 107.6,58.9 L 107.6,60.2" style="fill:none;stroke:#000000;stroke-width:2.0px;stroke-linecap:butt;stroke-linejoin:miter;stroke-miterlimit:10;stroke-opacity:1;"/>
<path d="M 132.1,105.7 L 133.2,106.4 L 134.6,105.7" style="fill:none;stroke:#000000;stroke-width:2.0px;stroke-linecap:butt;stroke-linejoin:miter;stroke-miterlimit:10;stroke-opacity:1;"/>
<path class="atom-4" d="M 159.6 56.1 L 162.5 60.8 Q 162.8 61.3, 163.2 62.1 Q 163.7 62.9, 163.7 63.0 L 163.7 56.1 L 164.9 56.1 L 164.9 65.0 L 163.7 65.0 L 160.6 59.8 Q 160.2 59.3, 159.8 58.6 Q 159.5 57.9, 159.3 57.7 L 159.3 65.0 L 158.2 65.0 L 158.2 56.1 L 159.6 56.1 " fill="#000000"/>
<path class="atom-6" d="M 197.9 22.5 Q 197.9 20.4, 198.9 19.2 Q 200.0 18.1, 201.9 18.1 Q 203.9 18.1, 204.9 19.2 Q 206.0 20.4, 206.0 22.5 Q 206.0 24.7, 204.9 25.9 Q 203.9 27.1, 201.9 27.1 Q 200.0 27.1, 198.9 25.9 Q 197.9 24.7, 197.9 22.5 M 201.9 26.1 Q 203.3 26.1, 204.0 25.2 Q 204.7 24.3, 204.7 22.5 Q 204.7 20.8, 204.0 19.9 Q 203.3 19.0, 201.9 19.0 Q 200.6 19.0, 199.9 19.9 Q 199.1 20.8, 199.1 22.5 Q 199.1 24.3, 199.9 25.2 Q 200.6 26.1, 201.9 26.1 " fill="#000000"/>
<path class="atom-8" d="M 238.1 74.1 L 241.0 78.7 Q 241.3 79.2, 241.8 80.0 Q 242.2 80.9, 242.3 80.9 L 242.3 74.1 L 243.4 74.1 L 243.4 82.9 L 242.2 82.9 L 239.1 77.8 Q 238.8 77.2, 238.4 76.5 Q 238.0 75.8, 237.9 75.6 L 237.9 82.9 L 236.7 82.9 L 236.7 74.1 L 238.1 74.1 " fill="#000000"/>
<path class="atom-8" d="M 245.1 74.1 L 246.3 74.1 L 246.3 77.8 L 250.8 77.8 L 250.8 74.1 L 252.0 74.1 L 252.0 82.9 L 250.8 82.9 L 250.8 78.8 L 246.3 78.8 L 246.3 82.9 L 245.1 82.9 L 245.1 74.1 " fill="#000000"/>
<path class="atom-10" d="M 234.4 132.4 Q 234.4 130.3, 235.5 129.1 Q 236.5 127.9, 238.5 127.9 Q 240.4 127.9, 241.5 129.1 Q 242.5 130.3, 242.5 132.4 Q 242.5 134.5, 241.5 135.8 Q 240.4 137.0, 238.5 137.0 Q 236.5 137.0, 235.5 135.8 Q 234.4 134.6, 234.4 132.4 M 238.5 136.0 Q 239.8 136.0, 240.5 135.1 Q 241.3 134.2, 241.3 132.4 Q 241.3 130.7, 240.5 129.8 Q 239.8 128.9, 238.5 128.9 Q 237.1 128.9, 236.4 129.8 Q 235.7 130.7, 235.7 132.4 Q 235.7 134.2, 236.4 135.1 Q 237.1 136.0, 238.5 136.0 " fill="#000000"/>
<path class="atom-13" d="M 329.9 130.8 L 332.8 135.4 Q 333.1 135.9, 333.5 136.7 Q 334.0 137.6, 334.0 137.6 L 334.0 130.8 L 335.2 130.8 L 335.2 139.6 L 334.0 139.6 L 330.9 134.5 Q 330.5 133.9, 330.1 133.2 Q 329.7 132.5, 329.6 132.3 L 329.6 139.6 L 328.5 139.6 L 328.5 130.8 L 329.9 130.8 " fill="#000000"/>
<path class="atom-19" d="M 400.5 28.8 L 403.4 33.5 Q 403.7 34.0, 404.1 34.8 Q 404.6 35.6, 404.6 35.7 L 404.6 28.8 L 405.8 28.8 L 405.8 37.6 L 404.6 37.6 L 401.5 32.5 Q 401.1 31.9, 400.7 31.3 Q 400.4 30.6, 400.3 30.4 L 400.3 37.6 L 399.1 37.6 L 399.1 28.8 L 400.5 28.8 " fill="#000000"/>
<path class="atom-19" d="M 399.0 19.1 L 400.2 19.1 L 400.2 22.9 L 404.7 22.9 L 404.7 19.1 L 405.9 19.1 L 405.9 27.9 L 404.7 27.9 L 404.7 23.9 L 400.2 23.9 L 400.2 27.9 L 399.0 27.9 L 399.0 19.1 " fill="#000000"/>
<path class="atom-27" d="M 330.5 27.2 Q 331.3 27.4, 331.7 27.9 Q 332.2 28.4, 332.2 29.2 Q 332.2 30.4, 331.4 31.1 Q 330.6 31.8, 329.1 31.8 L 326.2 31.8 L 326.2 23.0 L 328.8 23.0 Q 330.3 23.0, 331.1 23.6 Q 331.8 24.2, 331.8 25.3 Q 331.8 26.6, 330.5 27.2 M 327.4 24.0 L 327.4 26.7 L 328.8 26.7 Q 329.7 26.7, 330.1 26.4 Q 330.6 26.0, 330.6 25.3 Q 330.6 24.0, 328.8 24.0 L 327.4 24.0 M 329.1 30.8 Q 330.0 30.8, 330.5 30.4 Q 330.9 30.0, 330.9 29.2 Q 330.9 28.5, 330.4 28.1 Q 329.9 27.7, 329.0 27.7 L 327.4 27.7 L 327.4 30.8 L 329.1 30.8 " fill="#000000"/>
<path class="atom-27" d="M 334.2 25.4 L 334.3 26.3 Q 335.0 25.3, 336.1 25.3 Q 336.4 25.3, 336.9 25.4 L 336.7 26.4 Q 336.2 26.3, 335.9 26.3 Q 335.4 26.3, 335.0 26.5 Q 334.7 26.7, 334.4 27.2 L 334.4 31.8 L 333.2 31.8 L 333.2 25.4 L 334.2 25.4 " fill="#000000"/>
<path class="atom-30" d="M 185.9 102.2 Q 185.9 100.1, 186.9 98.9 Q 188.0 97.7, 189.9 97.7 Q 191.9 97.7, 192.9 98.9 Q 194.0 100.1, 194.0 102.2 Q 194.0 104.3, 192.9 105.6 Q 191.9 106.8, 189.9 106.8 Q 188.0 106.8, 186.9 105.6 Q 185.9 104.4, 185.9 102.2 M 189.9 105.8 Q 191.3 105.8, 192.0 104.9 Q 192.7 104.0, 192.7 102.2 Q 192.7 100.5, 192.0 99.6 Q 191.3 98.7, 189.9 98.7 Q 188.6 98.7, 187.8 99.6 Q 187.1 100.5, 187.1 102.2 Q 187.1 104.0, 187.8 104.9 Q 188.6 105.8, 189.9 105.8 " fill="#000000"/>
<path class="atom-32" d="M 132.0 13.1 Q 132.0 11.0, 133.0 9.8 Q 134.0 8.6, 136.0 8.6 Q 138.0 8.6, 139.0 9.8 Q 140.0 11.0, 140.0 13.1 Q 140.0 15.2, 139.0 16.4 Q 137.9 17.7, 136.0 17.7 Q 134.1 17.7, 133.0 16.4 Q 132.0 15.2, 132.0 13.1 M 136.0 16.7 Q 137.3 16.7, 138.1 15.8 Q 138.8 14.9, 138.8 13.1 Q 138.8 11.4, 138.1 10.5 Q 137.3 9.6, 136.0 9.6 Q 134.7 9.6, 133.9 10.5 Q 133.2 11.3, 133.2 13.1 Q 133.2 14.9, 133.9 15.8 Q 134.7 16.7, 136.0 16.7 " fill="#000000"/>
<path class="atom-34" d="M 94.7 85.6 L 95.9 85.6 L 95.9 89.4 L 100.4 89.4 L 100.4 85.6 L 101.6 85.6 L 101.6 94.5 L 100.4 94.5 L 100.4 90.4 L 95.9 90.4 L 95.9 94.5 L 94.7 94.5 L 94.7 85.6 " fill="#000000"/>
<path class="atom-34" d="M 104.8 85.6 L 107.7 90.3 Q 107.9 90.8, 108.4 91.6 Q 108.9 92.4, 108.9 92.5 L 108.9 85.6 L 110.1 85.6 L 110.1 94.5 L 108.8 94.5 L 105.7 89.4 Q 105.4 88.8, 105.0 88.1 Q 104.6 87.4, 104.5 87.2 L 104.5 94.5 L 103.4 94.5 L 103.4 85.6 L 104.8 85.6 " fill="#000000"/>
<path class="atom-36" d="M 125.3 131.4 Q 125.3 129.3, 126.4 128.1 Q 127.4 126.9, 129.4 126.9 Q 131.3 126.9, 132.4 128.1 Q 133.4 129.3, 133.4 131.4 Q 133.4 133.5, 132.4 134.7 Q 131.3 135.9, 129.4 135.9 Q 127.4 135.9, 126.4 134.7 Q 125.3 133.5, 125.3 131.4 M 129.4 134.9 Q 130.7 134.9, 131.4 134.0 Q 132.2 133.1, 132.2 131.4 Q 132.2 129.6, 131.4 128.8 Q 130.7 127.9, 129.4 127.9 Q 128.0 127.9, 127.3 128.8 Q 126.6 129.6, 126.6 131.4 Q 126.6 133.1, 127.3 134.0 Q 128.0 134.9, 129.4 134.9 " fill="#000000"/>
<path class="atom-41" d="M 355.7 86.6 L 356.9 86.6 L 356.9 90.4 L 361.4 90.4 L 361.4 86.6 L 362.6 86.6 L 362.6 95.5 L 361.4 95.5 L 361.4 91.4 L 356.9 91.4 L 356.9 95.5 L 355.7 95.5 L 355.7 86.6 " fill="#000000"/>
</svg>