<?xml version='1.0' encoding='utf-8'?>
<svg xmlns="http://www.w3.org/2000/svg" xmlns:rdkit="http://www.rdkit.org/xml" xmlns:xlink="http://www.w3.org/1999/xlink" version="1.1" baseProfile="full" xml:space="preserve" width="512px" height="296px" viewBox="0 0 512 296">

<rect style="opacity:1.0;fill:#FFFFFF;stroke:none" width="512.0" height="296.0" x="0.0" y="0.0"> </rect>
<path class="bond-0 atom-0 atom-1" d="M 25.7,150.3 L 52.9,123.6" style="fill:none;fill-rule:evenodd;stroke:#000000;stroke-width:2.0px;stroke-linecap:butt;stroke-linejoin:miter;stroke-opacity:1"/>
<path class="bond-1 atom-1 atom-2" d="M 52.9,123.6 L 89.6,133.8" style="fill:none;fill-rule:evenodd;stroke:#000000;stroke-width:2.0px;stroke-linecap:butt;stroke-linejoin:miter;stroke-opacity:1"/>
<path class="bond-2 atom-2 atom-3" d="M 89.6,133.8 L 116.8,107.1" style="fill:none;fill-rule:evenodd;stroke:#000000;stroke-width:2.0px;stroke-linecap:butt;stroke-linejoin:miter;stroke-opacity:1"/>
<path class="bond-3 atom-3 atom-4" d="M 116.8,107.1 L 112.2,76.0" style="fill:none;fill-rule:evenodd;stroke:#000000;stroke-width:2.0px;stroke-linecap:butt;stroke-linejoin:miter;stroke-opacity:1"/>
<path class="bond-3 atom-3 atom-4" d="M 121.9,102.1 L 117.9,75.2" style="fill:none;fill-rule:evenodd;stroke:#000000;stroke-width:2.0px;stroke-linecap:butt;stroke-linejoin:miter;stroke-opacity:1"/>
<path class="bond-4 atom-4 atom-5" d="M 116.6,66.7 L 140.0,55.1" style="fill:none;fill-rule:evenodd;stroke:#000000;stroke-width:2.0px;stroke-linecap:butt;stroke-linejoin:miter;stroke-opacity:1"/>
<path class="bond-5 atom-5 atom-6" d="M 146.5,45.7 L 151.7,14.8" style="fill:none;fill-rule:evenodd;stroke:#000000;stroke-width:2.0px;stroke-linecap:butt;stroke-linejoin:miter;stroke-opacity:1"/>
<path class="bond-6 atom-5 atom-7" d="M 150.7,57.9 L 172.0,79.6" style="fill:none;fill-rule:evenodd;stroke:#000000;stroke-width:2.0px;stroke-linecap:butt;stroke-linejoin:miter;stroke-opacity:1"/>
<path class="bond-7 atom-7 atom-8" d="M 172.0,79.6 L 154.4,113.4" style="fill:none;fill-rule:evenodd;stroke:#000000;stroke-width:2.0px;stroke-linecap:butt;stroke-linejoin:miter;stroke-opacity:1"/>
<path class="bond-7 atom-7 atom-8" d="M 165.1,80.6 L 151.3,107.1" style="fill:none;fill-rule:evenodd;stroke:#000000;stroke-width:2.0px;stroke-linecap:butt;stroke-linejoin:miter;stroke-opacity:1"/>
<path class="bond-8 atom-8 atom-9" d="M 154.4,113.4 L 170.6,138.9" style="fill:none;fill-rule:evenodd;stroke:#000000;stroke-width:2.0px;stroke-linecap:butt;stroke-linejoin:miter;stroke-opacity:1"/>
<path class="bond-9 atom-9 atom-10" d="M 180.2,145.3 L 213.0,143.9" style="fill:none;fill-rule:evenodd;stroke:#000000;stroke-width:2.0px;stroke-linecap:butt;stroke-linejoin:miter;stroke-opacity:1"/>
<path class="bond-10 atom-10 atom-11" d="M 213.0,143.9 L 227.1,116.8" style="fill:none;fill-rule:evenodd;stroke:#000000;stroke-width:2.0px;stroke-linecap:butt;stroke-linejoin:miter;stroke-opacity:1"/>
<path class="bond-10 atom-10 atom-11" d="M 209.4,138.4 L 222.1,114.1" style="fill:none;fill-rule:evenodd;stroke:#000000;stroke-width:2.0px;stroke-linecap:butt;stroke-linejoin:miter;stroke-opacity:1"/>
<path class="bond-11 atom-11 atom-12" d="M 226.4,103.5 L 210.1,78.0" style="fill:none;fill-rule:evenodd;stroke:#000000;stroke-width:2.0px;stroke-linecap:butt;stroke-linejoin:miter;stroke-opacity:1"/>
<path class="bond-12 atom-12 atom-13" d="M 211.9,80.8 L 226.7,52.4" style="fill:none;fill-rule:evenodd;stroke:#000000;stroke-width:2.0px;stroke-linecap:butt;stroke-linejoin:miter;stroke-opacity:1"/>
<path class="bond-12 atom-12 atom-13" d="M 206.8,78.1 L 221.6,49.7" style="fill:none;fill-rule:evenodd;stroke:#000000;stroke-width:2.0px;stroke-linecap:butt;stroke-linejoin:miter;stroke-opacity:1"/>
<path class="bond-13 atom-10 atom-14" d="M 213.0,143.9 L 233.4,176.1" style="fill:none;fill-rule:evenodd;stroke:#000000;stroke-width:2.0px;stroke-linecap:butt;stroke-linejoin:miter;stroke-opacity:1"/>
<path class="bond-14 atom-14 atom-15" d="M 233.4,176.1 L 215.8,209.9" style="fill:none;fill-rule:evenodd;stroke:#000000;stroke-width:2.0px;stroke-linecap:butt;stroke-linejoin:miter;stroke-opacity:1"/>
<path class="bond-14 atom-14 atom-15" d="M 237.0,181.7 L 222.4,209.6" style="fill:none;fill-rule:evenodd;stroke:#000000;stroke-width:2.0px;stroke-linecap:butt;stroke-linejoin:miter;stroke-opacity:1"/>
<path class="bond-15 atom-15 atom-16" d="M 215.8,209.9 L 183.9,211.3" style="fill:none;fill-rule:evenodd;stroke:#000000;stroke-width:2.0px;stroke-linecap:butt;stroke-linejoin:miter;stroke-opacity:1"/>
<path class="bond-16 atom-16 atom-17" d="M 174.1,218.4 L 160.1,245.4" style="fill:none;fill-rule:evenodd;stroke:#000000;stroke-width:2.0px;stroke-linecap:butt;stroke-linejoin:miter;stroke-opacity:1"/>
<path class="bond-17 atom-17 atom-18" d="M 160.1,245.4 L 122.0,247.0" style="fill:none;fill-rule:evenodd;stroke:#000000;stroke-width:2.0px;stroke-linecap:butt;stroke-linejoin:miter;stroke-opacity:1"/>
<path class="bond-18 atom-18 atom-19" d="M 122.0,247.0 L 104.4,280.8" style="fill:none;fill-rule:evenodd;stroke:#000000;stroke-width:2.0px;stroke-linecap:butt;stroke-linejoin:miter;stroke-opacity:1"/>
<path class="bond-19 atom-15 atom-20" d="M 215.8,209.9 L 236.3,242.1" style="fill:none;fill-rule:evenodd;stroke:#000000;stroke-width:2.0px;stroke-linecap:butt;stroke-linejoin:miter;stroke-opacity:1"/>
<path class="bond-20 atom-20 atom-21" d="M 236.3,242.1 L 274.4,240.4" style="fill:none;fill-rule:evenodd;stroke:#000000;stroke-width:2.0px;stroke-linecap:butt;stroke-linejoin:miter;stroke-opacity:1"/>
<path class="bond-20 atom-20 atom-21" d="M 239.3,236.2 L 270.8,234.9" style="fill:none;fill-rule:evenodd;stroke:#000000;stroke-width:2.0px;stroke-linecap:butt;stroke-linejoin:miter;stroke-opacity:1"/>
<path class="bond-21 atom-21 atom-22" d="M 274.4,240.4 L 292.0,206.6" style="fill:none;fill-rule:evenodd;stroke:#000000;stroke-width:2.0px;stroke-linecap:butt;stroke-linejoin:miter;stroke-opacity:1"/>
<path class="bond-22 atom-22 atom-23" d="M 292.0,206.6 L 271.5,174.5" style="fill:none;fill-rule:evenodd;stroke:#000000;stroke-width:2.0px;stroke-linecap:butt;stroke-linejoin:miter;stroke-opacity:1"/>
<path class="bond-22 atom-22 atom-23" d="M 285.4,206.9 L 268.5,180.3" style="fill:none;fill-rule:evenodd;stroke:#000000;stroke-width:2.0px;stroke-linecap:butt;stroke-linejoin:miter;stroke-opacity:1"/>
<path class="bond-23 atom-22 atom-24" d="M 292.0,206.6 L 325.4,205.2" style="fill:none;fill-rule:evenodd;stroke:#000000;stroke-width:2.0px;stroke-linecap:butt;stroke-linejoin:miter;stroke-opacity:1"/>
<path class="bond-24 atom-24 atom-25" d="M 327.5,212.0 L 328.6,236.5" style="fill:none;fill-rule:evenodd;stroke:#000000;stroke-width:2.0px;stroke-linecap:butt;stroke-linejoin:miter;stroke-opacity:1"/>
<path class="bond-24 atom-24 atom-25" d="M 333.2,211.8 L 334.3,236.2" style="fill:none;fill-rule:evenodd;stroke:#000000;stroke-width:2.0px;stroke-linecap:butt;stroke-linejoin:miter;stroke-opacity:1"/>
<path class="bond-25 atom-24 atom-26" d="M 332.6,198.2 L 331.6,173.7" style="fill:none;fill-rule:evenodd;stroke:#000000;stroke-width:2.0px;stroke-linecap:butt;stroke-linejoin:miter;stroke-opacity:1"/>
<path class="bond-25 atom-24 atom-26" d="M 326.9,198.5 L 325.9,173.9" style="fill:none;fill-rule:evenodd;stroke:#000000;stroke-width:2.0px;stroke-linecap:butt;stroke-linejoin:miter;stroke-opacity:1"/>
<path class="bond-26 atom-24 atom-27" d="M 334.8,204.8 L 362.8,203.6" style="fill:none;fill-rule:evenodd;stroke:#000000;stroke-width:2.0px;stroke-linecap:butt;stroke-linejoin:miter;stroke-opacity:1"/>
<path class="bond-27 atom-27 atom-28" d="M 371.6,196.7 L 385.8,169.5" style="fill:none;fill-rule:evenodd;stroke:#000000;stroke-width:2.0px;stroke-linecap:butt;stroke-linejoin:miter;stroke-opacity:1"/>
<path class="bond-28 atom-28 atom-29" d="M 385.8,169.5 L 423.9,167.9" style="fill:none;fill-rule:evenodd;stroke:#000000;stroke-width:2.0px;stroke-linecap:butt;stroke-linejoin:miter;stroke-opacity:1"/>
<path class="bond-29 atom-29 atom-30" d="M 423.9,167.9 L 438.0,140.8" style="fill:none;fill-rule:evenodd;stroke:#000000;stroke-width:2.0px;stroke-linecap:butt;stroke-linejoin:miter;stroke-opacity:1"/>
<path class="bond-30 atom-30 atom-31" d="M 438.2,127.4 L 424.5,100.0" style="fill:none;fill-rule:evenodd;stroke:#000000;stroke-width:2.0px;stroke-linecap:butt;stroke-linejoin:miter;stroke-opacity:1"/>
<path class="bond-31 atom-31 atom-32" d="M 424.5,100.0 L 451.7,73.3" style="fill:none;fill-rule:evenodd;stroke:#000000;stroke-width:2.0px;stroke-linecap:butt;stroke-linejoin:miter;stroke-opacity:1"/>
<path class="bond-32 atom-32 atom-33" d="M 451.7,73.3 L 485.5,90.9" style="fill:none;fill-rule:evenodd;stroke:#000000;stroke-width:2.0px;stroke-linecap:butt;stroke-linejoin:miter;stroke-opacity:1"/>
<path class="bond-33 atom-33 atom-34" d="M 485.5,90.9 L 479.2,128.5" style="fill:none;fill-rule:evenodd;stroke:#000000;stroke-width:2.0px;stroke-linecap:butt;stroke-linejoin:miter;stroke-opacity:1"/>
<path class="bond-34 atom-8 atom-3" d="M 154.4,113.4 L 116.8,107.1" style="fill:none;fill-rule:evenodd;stroke:#000000;stroke-width:2.0px;stroke-linecap:butt;stroke-linejoin:miter;stroke-opacity:1"/>
<path class="bond-35 atom-12 atom-7" d="M 210.1,78.0 L 172.0,79.6" style="fill:none;fill-rule:evenodd;stroke:#000000;stroke-width:2.0px;stroke-linecap:butt;stroke-linejoin:miter;stroke-opacity:1"/>
<path class="bond-36 atom-23 atom-14" d="M 271.5,174.5 L 233.4,176.1" style="fill:none;fill-rule:evenodd;stroke:#000000;stroke-width:2.0px;stroke-linecap:butt;stroke-linejoin:miter;stroke-opacity:1"/>
<path class="bond-37 atom-34 atom-30" d="M 479.2,128.5 L 446.9,133.3" style="fill:none;fill-rule:evenodd;stroke:#000000;stroke-width:2.0px;stroke-linecap:butt;stroke-linejoin:miter;stroke-opacity:1"/>
<path d="M 51.5,124.9 L 52.9,123.6 L 54.7,124.1" style="fill:none;stroke:#000000;stroke-width:2.0px;stroke-linecap:butt;stroke-linejoin:miter;stroke-miterlimit:10;stroke-opacity:1;"/>
<path d="M 87.8,133.3 L 89.6,133.8 L 91.0,132.5" style="fill:none;stroke:#000000;stroke-width:2.0px;stroke-linecap:butt;stroke-linejoin:miter;stroke-miterlimit:10;stroke-opacity:1;"/>
<path d="M 210.9,79.2 L 210.1,78.0 L 208.2,78.0" style="fill:none;stroke:#000000;stroke-width:2.0px;stroke-linecap:butt;stroke-linejoin:miter;stroke-miterlimit:10;stroke-opacity:1;"/>
<path d="M 160.8,244.0 L 160.1,245.4 L 158.2,245.4" style="fill:none;stroke:#000000;stroke-width:2.0px;stroke-linecap:butt;stroke-linejoin:miter;stroke-miterlimit:10;stroke-opacity:1;"/>
<path d="M 123.9,246.9 L 122.0,247.0 L 121.1,248.7" style="fill:none;stroke:#000000;stroke-width:2.0px;stroke-linecap:butt;stroke-linejoin:miter;stroke-miterlimit:10;stroke-opacity:1;"/>
<path d="M 235.3,240.5 L 236.3,242.1 L 238.2,242.0" style="fill:none;stroke:#000000;stroke-width:2.0px;stroke-linecap:butt;stroke-linejoin:miter;stroke-miterlimit:10;stroke-opacity:1;"/>
<path d="M 272.5,240.5 L 274.4,240.4 L 275.2,238.7" style="fill:none;stroke:#000000;stroke-width:2.0px;stroke-linecap:butt;stroke-linejoin:miter;stroke-miterlimit:10;stroke-opacity:1;"/>
<path d="M 272.5,176.1 L 271.5,174.5 L 269.6,174.5" style="fill:none;stroke:#000000;stroke-width:2.0px;stroke-linecap:butt;stroke-linejoin:miter;stroke-miterlimit:10;stroke-opacity:1;"/>
<path d="M 385.1,170.9 L 385.8,169.5 L 387.7,169.5" style="fill:none;stroke:#000000;stroke-width:2.0px;stroke-linecap:butt;stroke-linejoin:miter;stroke-miterlimit:10;stroke-opacity:1;"/>
<path d="M 422.0,168.0 L 423.9,167.9 L 424.6,166.5" style="fill:none;stroke:#000000;stroke-width:2.0px;stroke-linecap:butt;stroke-linejoin:miter;stroke-miterlimit:10;stroke-opacity:1;"/>
<path d="M 425.2,101.3 L 424.5,100.0 L 425.9,98.6" style="fill:none;stroke:#000000;stroke-width:2.0px;stroke-linecap:butt;stroke-linejoin:miter;stroke-miterlimit:10;stroke-opacity:1;"/>
<path d="M 450.4,74.6 L 451.7,73.3 L 453.4,74.1" style="fill:none;stroke:#000000;stroke-width:2.0px;stroke-linecap:butt;stroke-linejoin:miter;stroke-miterlimit:10;stroke-opacity:1;"/>
<path d="M 483.8,90.0 L 485.5,90.9 L 485.2,92.8" style="fill:none;stroke:#000000;stroke-width:2.0px;stroke-linecap:butt;stroke-linejoin:miter;stroke-miterlimit:10;stroke-opacity:1;"/>
<path d="M 479.5,126.6 L 479.2,128.5 L 477.6,128.7" style="fill:none;stroke:#000000;stroke-width:2.0px;stroke-linecap:butt;stroke-linejoin:miter;stroke-miterlimit:10;stroke-opacity:1;"/>
<path class="atom-4" d="M 108.8 64.0 L 112.4 69.7 Q 112.7 70.3, 113.3 71.3 Q 113.8 72.3, 113.9 72.4 L 113.9 64.0 L 115.3 64.0 L 115.3 74.8 L 113.8 74.8 L 110.0 68.5 Q 109.6 67.8, 109.1 67.0 Q 108.7 66.1, 108.5 65.9 L 108.5 74.8 L 107.1 74.8 L 107.1 64.0 L 108.8 64.0 " fill="#000000"/>
<path class="atom-5" d="M 143.0 47.0 L 146.5 52.7 Q 146.8 53.3, 147.4 54.3 Q 148.0 55.3, 148.0 55.4 L 148.0 47.0 L 149.4 47.0 L 149.4 57.8 L 148.0 57.8 L 144.2 51.5 Q 143.7 50.8, 143.2 50.0 Q 142.8 49.1, 142.6 48.9 L 142.6 57.8 L 141.2 57.8 L 141.2 47.0 L 143.0 47.0 " fill="#000000"/>
<path class="atom-9" d="M 160.2 140.2 L 161.7 140.2 L 161.7 144.8 L 167.2 144.8 L 167.2 140.2 L 168.7 140.2 L 168.7 151.0 L 167.2 151.0 L 167.2 146.0 L 161.7 146.0 L 161.7 151.0 L 160.2 151.0 L 160.2 140.2 " fill="#000000"/>
<path class="atom-9" d="M 172.5 140.2 L 176.0 145.9 Q 176.4 146.5, 176.9 147.5 Q 177.5 148.5, 177.5 148.6 L 177.5 140.2 L 179.0 140.2 L 179.0 151.0 L 177.5 151.0 L 173.7 144.7 Q 173.3 144.0, 172.8 143.2 Q 172.3 142.3, 172.2 142.1 L 172.2 151.0 L 170.8 151.0 L 170.8 140.2 L 172.5 140.2 " fill="#000000"/>
<path class="atom-11" d="M 228.2 104.7 L 231.7 110.5 Q 232.1 111.0, 232.7 112.0 Q 233.2 113.1, 233.3 113.1 L 233.3 104.7 L 234.7 104.7 L 234.7 115.5 L 233.2 115.5 L 229.4 109.3 Q 229.0 108.5, 228.5 107.7 Q 228.0 106.9, 227.9 106.6 L 227.9 115.5 L 226.5 115.5 L 226.5 104.7 L 228.2 104.7 " fill="#000000"/>
<path class="atom-13" d="M 222.8 44.2 Q 222.8 41.6, 224.1 40.1 Q 225.4 38.7, 227.8 38.7 Q 230.1 38.7, 231.4 40.1 Q 232.7 41.6, 232.7 44.2 Q 232.7 46.8, 231.4 48.3 Q 230.1 49.8, 227.8 49.8 Q 225.4 49.8, 224.1 48.3 Q 222.8 46.8, 222.8 44.2 M 227.8 48.6 Q 229.4 48.6, 230.3 47.5 Q 231.2 46.4, 231.2 44.2 Q 231.2 42.1, 230.3 41.0 Q 229.4 39.9, 227.8 39.9 Q 226.1 39.9, 225.2 41.0 Q 224.3 42.1, 224.3 44.2 Q 224.3 46.4, 225.2 47.5 Q 226.1 48.6, 227.8 48.6 " fill="#000000"/>
<path class="atom-16" d="M 172.8 211.6 Q 172.8 209.0, 174.0 207.5 Q 175.3 206.1, 177.7 206.1 Q 180.1 206.1, 181.4 207.5 Q 182.7 209.0, 182.7 211.6 Q 182.7 214.2, 181.4 215.7 Q 180.1 217.2, 177.7 217.2 Q 175.3 217.2, 174.0 215.7 Q 172.8 214.2, 172.8 211.6 M 177.7 216.0 Q 179.4 216.0, 180.3 214.9 Q 181.2 213.7, 181.2 211.6 Q 181.2 209.5, 180.3 208.4 Q 179.4 207.3, 177.7 207.3 Q 176.1 207.3, 175.2 208.4 Q 174.3 209.4, 174.3 211.6 Q 174.3 213.8, 175.2 214.9 Q 176.1 216.0, 177.7 216.0 " fill="#000000"/>
<path class="atom-24" d="M 327.0 208.7 Q 327.1 208.7, 327.7 209.0 Q 328.2 209.2, 328.7 209.3 Q 329.3 209.4, 329.8 209.4 Q 330.8 209.4, 331.4 208.9 Q 332.0 208.4, 332.0 207.6 Q 332.0 207.0, 331.7 206.6 Q 331.4 206.2, 331.0 206.0 Q 330.5 205.8, 329.8 205.6 Q 328.8 205.3, 328.2 205.1 Q 327.7 204.8, 327.2 204.2 Q 326.8 203.6, 326.8 202.6 Q 326.8 201.3, 327.8 200.4 Q 328.7 199.6, 330.5 199.6 Q 331.8 199.6, 333.2 200.2 L 332.8 201.4 Q 331.5 200.8, 330.6 200.8 Q 329.5 200.8, 328.9 201.3 Q 328.4 201.7, 328.4 202.5 Q 328.4 203.0, 328.7 203.4 Q 329.0 203.7, 329.4 203.9 Q 329.8 204.1, 330.6 204.4 Q 331.5 204.7, 332.1 205.0 Q 332.7 205.3, 333.1 205.9 Q 333.5 206.5, 333.5 207.6 Q 333.5 209.1, 332.5 209.9 Q 331.5 210.7, 329.9 210.7 Q 328.9 210.7, 328.2 210.4 Q 327.5 210.3, 326.6 209.9 L 327.0 208.7 " fill="#000000"/>
<path class="atom-25" d="M 326.8 243.1 Q 326.8 240.5, 328.0 239.1 Q 329.3 237.6, 331.7 237.6 Q 334.1 237.6, 335.4 239.1 Q 336.7 240.5, 336.7 243.1 Q 336.7 245.7, 335.4 247.2 Q 334.1 248.7, 331.7 248.7 Q 329.3 248.7, 328.0 247.2 Q 326.8 245.7, 326.8 243.1 M 331.7 247.5 Q 333.4 247.5, 334.2 246.4 Q 335.1 245.3, 335.1 243.1 Q 335.1 241.0, 334.2 239.9 Q 333.4 238.8, 331.7 238.8 Q 330.1 238.8, 329.2 239.9 Q 328.3 241.0, 328.3 243.1 Q 328.3 245.3, 329.2 246.4 Q 330.1 247.5, 331.7 247.5 " fill="#000000"/>
<path class="atom-26" d="M 323.5 166.9 Q 323.5 164.3, 324.8 162.9 Q 326.0 161.4, 328.4 161.4 Q 330.8 161.4, 332.1 162.9 Q 333.4 164.3, 333.4 166.9 Q 333.4 169.6, 332.1 171.0 Q 330.8 172.5, 328.4 172.5 Q 326.1 172.5, 324.8 171.0 Q 323.5 169.6, 323.5 166.9 M 328.4 171.3 Q 330.1 171.3, 331.0 170.2 Q 331.9 169.1, 331.9 166.9 Q 331.9 164.8, 331.0 163.7 Q 330.1 162.7, 328.4 162.7 Q 326.8 162.7, 325.9 163.7 Q 325.0 164.8, 325.0 166.9 Q 325.0 169.1, 325.9 170.2 Q 326.8 171.3, 328.4 171.3 " fill="#000000"/>
<path class="atom-27" d="M 365.8 198.0 L 369.3 203.7 Q 369.7 204.2, 370.2 205.3 Q 370.8 206.3, 370.8 206.3 L 370.8 198.0 L 372.3 198.0 L 372.3 208.7 L 370.8 208.7 L 367.0 202.5 Q 366.5 201.8, 366.1 200.9 Q 365.6 200.1, 365.5 199.8 L 365.5 208.7 L 364.1 208.7 L 364.1 198.0 L 365.8 198.0 " fill="#000000"/>
<path class="atom-27" d="M 374.4 198.0 L 375.8 198.0 L 375.8 202.5 L 381.3 202.5 L 381.3 198.0 L 382.8 198.0 L 382.8 208.7 L 381.3 208.7 L 381.3 203.8 L 375.8 203.8 L 375.8 208.7 L 374.4 208.7 L 374.4 198.0 " fill="#000000"/>
<path class="atom-30" d="M 439.1 128.7 L 442.7 134.4 Q 443.0 135.0, 443.6 136.0 Q 444.1 137.0, 444.2 137.1 L 444.2 128.7 L 445.6 128.7 L 445.6 139.5 L 444.1 139.5 L 440.3 133.2 Q 439.9 132.5, 439.4 131.7 Q 438.9 130.8, 438.8 130.6 L 438.8 139.5 L 437.4 139.5 L 437.4 128.7 L 439.1 128.7 " fill="#000000"/>
</svg>