<?xml version='1.0' encoding='utf-8'?>
<svg xmlns="http://www.w3.org/2000/svg" xmlns:rdkit="http://www.rdkit.org/xml" xmlns:xlink="http://www.w3.org/1999/xlink" version="1.1" baseProfile="full" xml:space="preserve" width="512px" height="226px" viewBox="0 0 512 226">

<rect style="opacity:1.0;fill:#FFFFFF;stroke:none" width="512.0" height="226.0" x="0.0" y="0.0"> </rect>
<path class="bond-0 atom-0 atom-1" d="M 38.7,181.1 L 170.3,125.1" style="fill:none;fill-rule:evenodd;stroke:#000000;stroke-width:2.0px;stroke-linecap:butt;stroke-linejoin:miter;stroke-opacity:1"/>
<path class="bond-0 atom-0 atom-1" d="M 47.1,200.8 L 167.3,149.7" style="fill:none;fill-rule:evenodd;stroke:#000000;stroke-width:2.0px;stroke-linecap:butt;stroke-linejoin:miter;stroke-opacity:1"/>
<path class="bond-1 atom-1 atom-2" d="M 170.3,125.1 L 284.5,211.0" style="fill:none;fill-rule:evenodd;stroke:#000000;stroke-width:2.0px;stroke-linecap:butt;stroke-linejoin:miter;stroke-opacity:1"/>
<path class="bond-2 atom-2 atom-3" d="M 284.5,211.0 L 400.7,161.6" style="fill:none;fill-rule:evenodd;stroke:#000000;stroke-width:2.0px;stroke-linecap:butt;stroke-linejoin:miter;stroke-opacity:1"/>
<path d="M 163.7,127.9 L 170.3,125.1 L 176.0,129.4" style="fill:none;stroke:#000000;stroke-width:2.0px;stroke-linecap:butt;stroke-linejoin:miter;stroke-miterlimit:10;stroke-opacity:1;"/>
<path d="M 278.8,206.7 L 284.5,211.0 L 290.4,208.6" style="fill:none;stroke:#000000;stroke-width:2.0px;stroke-linecap:butt;stroke-linejoin:miter;stroke-miterlimit:10;stroke-opacity:1;"/>
<path class="atom-3" d="M 409.9 140.9 L 419.1 155.9 Q 420.1 157.4, 421.5 160.0 Q 423.0 162.7, 423.1 162.9 L 423.1 140.9 L 426.9 140.9 L 426.9 169.2 L 423.0 169.2 L 413.0 152.8 Q 411.9 150.9, 410.6 148.7 Q 409.4 146.5, 409.1 145.8 L 409.1 169.2 L 405.4 169.2 L 405.4 140.9 L 409.9 140.9 " fill="#000000"/>
<path class="atom-3" d="M 432.3 140.9 L 436.1 140.9 L 436.1 152.9 L 450.6 152.9 L 450.6 140.9 L 454.4 140.9 L 454.4 169.2 L 450.6 169.2 L 450.6 156.1 L 436.1 156.1 L 436.1 169.2 L 432.3 169.2 L 432.3 140.9 " fill="#000000"/>
<path class="atom-3" d="M 460.0 168.2 Q 460.7 166.4, 462.3 165.5 Q 463.9 164.5, 466.2 164.5 Q 469.0 164.5, 470.6 166.0 Q 472.2 167.5, 472.2 170.2 Q 472.2 173.0, 470.1 175.6 Q 468.1 178.2, 463.9 181.3 L 472.5 181.3 L 472.5 183.4 L 459.9 183.4 L 459.9 181.6 Q 463.4 179.1, 465.5 177.3 Q 467.6 175.4, 468.6 173.8 Q 469.6 172.1, 469.6 170.4 Q 469.6 168.6, 468.7 167.6 Q 467.8 166.6, 466.2 166.6 Q 464.7 166.6, 463.7 167.2 Q 462.7 167.8, 462.0 169.1 L 460.0 168.2 " fill="#000000"/>
<path class="atom-4" d="M 173.4 16.6 L 177.2 16.6 L 177.2 28.6 L 191.7 28.6 L 191.7 16.6 L 195.5 16.6 L 195.5 44.9 L 191.7 44.9 L 191.7 31.8 L 177.2 31.8 L 177.2 44.9 L 173.4 44.9 L 173.4 16.6 " fill="#000000"/>
<path class="atom-4" d="M 200.5 30.7 Q 200.5 23.7, 203.8 20.0 Q 207.1 16.3, 213.4 16.3 Q 219.3 16.3, 222.4 20.4 L 219.7 22.6 Q 217.5 19.6, 213.4 19.6 Q 209.1 19.6, 206.9 22.4 Q 204.6 25.3, 204.6 30.7 Q 204.6 36.3, 206.9 39.2 Q 209.3 42.1, 213.9 42.1 Q 217.0 42.1, 220.6 40.2 L 221.7 43.2 Q 220.3 44.2, 218.0 44.7 Q 215.8 45.3, 213.3 45.3 Q 207.1 45.3, 203.8 41.5 Q 200.5 37.8, 200.5 30.7 " fill="#000000"/>
<path class="atom-4" d="M 225.6 14.6 L 229.2 14.6 L 229.2 44.9 L 225.6 44.9 L 225.6 14.6 " fill="#000000"/>
</svg>