<?xml version='1.0' encoding='utf-8'?>
<svg xmlns="http://www.w3.org/2000/svg" xmlns:rdkit="http://www.rdkit.org/xml" xmlns:xlink="http://www.w3.org/1999/xlink" version="1.1" baseProfile="full" xml:space="preserve" width="512px" height="275px" viewBox="0 0 512 275">

<rect style="opacity:1.0;fill:#FFFFFF;stroke:none" width="512.0" height="275.0" x="0.0" y="0.0"> </rect>
<path class="bond-0 atom-0 atom-1" d="M 111.0,13.8 L 92.4,80.0" style="fill:none;fill-rule:evenodd;stroke:#000000;stroke-width:2.0px;stroke-linecap:butt;stroke-linejoin:miter;stroke-opacity:1"/>
<path class="bond-1 atom-1 atom-2" d="M 92.4,80.0 L 73.8,146.3" style="fill:none;fill-rule:evenodd;stroke:#000000;stroke-width:2.0px;stroke-linecap:butt;stroke-linejoin:miter;stroke-opacity:1"/>
<path class="bond-2 atom-1 atom-3" d="M 92.4,80.0 L 26.1,61.5" style="fill:none;fill-rule:evenodd;stroke:#000000;stroke-width:2.0px;stroke-linecap:butt;stroke-linejoin:miter;stroke-opacity:1"/>
<path class="bond-3 atom-1 atom-4" d="M 92.4,80.0 L 149.0,95.9" style="fill:none;fill-rule:evenodd;stroke:#000000;stroke-width:2.0px;stroke-linecap:butt;stroke-linejoin:miter;stroke-opacity:1"/>
<path class="bond-4 atom-4 atom-5" d="M 161.8,110.6 L 175.7,165.3" style="fill:none;fill-rule:evenodd;stroke:#000000;stroke-width:2.0px;stroke-linecap:butt;stroke-linejoin:miter;stroke-opacity:1"/>
<path class="bond-5 atom-5 atom-6" d="M 175.7,165.3 L 126.5,213.4" style="fill:none;fill-rule:evenodd;stroke:#000000;stroke-width:2.0px;stroke-linecap:butt;stroke-linejoin:miter;stroke-opacity:1"/>
<path class="bond-6 atom-5 atom-7" d="M 175.7,165.3 L 242.0,183.9" style="fill:none;fill-rule:evenodd;stroke:#000000;stroke-width:2.0px;stroke-linecap:butt;stroke-linejoin:miter;stroke-opacity:1"/>
<path class="bond-7 atom-7 atom-8" d="M 236.3,182.3 L 251.0,239.7" style="fill:none;fill-rule:evenodd;stroke:#000000;stroke-width:2.0px;stroke-linecap:butt;stroke-linejoin:miter;stroke-opacity:1"/>
<path class="bond-7 atom-7 atom-8" d="M 246.3,179.7 L 261.0,237.2" style="fill:none;fill-rule:evenodd;stroke:#000000;stroke-width:2.0px;stroke-linecap:butt;stroke-linejoin:miter;stroke-opacity:1"/>
<path class="bond-8 atom-7 atom-9" d="M 242.0,183.9 L 291.3,135.8" style="fill:none;fill-rule:evenodd;stroke:#000000;stroke-width:2.0px;stroke-linecap:butt;stroke-linejoin:miter;stroke-opacity:1"/>
<path class="bond-9 atom-9 atom-10" d="M 291.3,135.8 L 274.2,69.1" style="fill:none;fill-rule:evenodd;stroke:#000000;stroke-width:2.0px;stroke-linecap:butt;stroke-linejoin:miter;stroke-opacity:1"/>
<path class="bond-9 atom-9 atom-10" d="M 299.8,127.4 L 285.7,72.3" style="fill:none;fill-rule:evenodd;stroke:#000000;stroke-width:2.0px;stroke-linecap:butt;stroke-linejoin:miter;stroke-opacity:1"/>
<path class="bond-10 atom-10 atom-11" d="M 274.2,69.1 L 323.4,20.9" style="fill:none;fill-rule:evenodd;stroke:#000000;stroke-width:2.0px;stroke-linecap:butt;stroke-linejoin:miter;stroke-opacity:1"/>
<path class="bond-11 atom-11 atom-12" d="M 323.4,20.9 L 389.7,39.5" style="fill:none;fill-rule:evenodd;stroke:#000000;stroke-width:2.0px;stroke-linecap:butt;stroke-linejoin:miter;stroke-opacity:1"/>
<path class="bond-11 atom-11 atom-12" d="M 326.4,32.5 L 381.2,47.9" style="fill:none;fill-rule:evenodd;stroke:#000000;stroke-width:2.0px;stroke-linecap:butt;stroke-linejoin:miter;stroke-opacity:1"/>
<path class="bond-12 atom-12 atom-13" d="M 389.7,39.5 L 406.8,106.2" style="fill:none;fill-rule:evenodd;stroke:#000000;stroke-width:2.0px;stroke-linecap:butt;stroke-linejoin:miter;stroke-opacity:1"/>
<path class="bond-13 atom-13 atom-14" d="M 406.8,106.2 L 463.3,122.1" style="fill:none;fill-rule:evenodd;stroke:#000000;stroke-width:2.0px;stroke-linecap:butt;stroke-linejoin:miter;stroke-opacity:1"/>
<path class="bond-14 atom-13 atom-15" d="M 406.8,106.2 L 357.6,154.3" style="fill:none;fill-rule:evenodd;stroke:#000000;stroke-width:2.0px;stroke-linecap:butt;stroke-linejoin:miter;stroke-opacity:1"/>
<path class="bond-14 atom-13 atom-15" d="M 395.3,103.0 L 354.6,142.8" style="fill:none;fill-rule:evenodd;stroke:#000000;stroke-width:2.0px;stroke-linecap:butt;stroke-linejoin:miter;stroke-opacity:1"/>
<path class="bond-15 atom-15 atom-9" d="M 357.6,154.3 L 291.3,135.8" style="fill:none;fill-rule:evenodd;stroke:#000000;stroke-width:2.0px;stroke-linecap:butt;stroke-linejoin:miter;stroke-opacity:1"/>
<path d="M 238.7,183.0 L 242.0,183.9 L 244.5,181.5" style="fill:none;stroke:#000000;stroke-width:2.0px;stroke-linecap:butt;stroke-linejoin:miter;stroke-miterlimit:10;stroke-opacity:1;"/>
<path d="M 275.1,72.4 L 274.2,69.1 L 276.7,66.7" style="fill:none;stroke:#000000;stroke-width:2.0px;stroke-linecap:butt;stroke-linejoin:miter;stroke-miterlimit:10;stroke-opacity:1;"/>
<path d="M 321.0,23.4 L 323.4,20.9 L 326.7,21.9" style="fill:none;stroke:#000000;stroke-width:2.0px;stroke-linecap:butt;stroke-linejoin:miter;stroke-miterlimit:10;stroke-opacity:1;"/>
<path d="M 386.4,38.6 L 389.7,39.5 L 390.6,42.9" style="fill:none;stroke:#000000;stroke-width:2.0px;stroke-linecap:butt;stroke-linejoin:miter;stroke-miterlimit:10;stroke-opacity:1;"/>
<path d="M 360.0,151.9 L 357.6,154.3 L 354.2,153.4" style="fill:none;stroke:#000000;stroke-width:2.0px;stroke-linecap:butt;stroke-linejoin:miter;stroke-miterlimit:10;stroke-opacity:1;"/>
<path class="atom-4" d="M 154.4 88.9 L 160.8 99.2 Q 161.4 100.2, 162.4 102.1 Q 163.4 103.9, 163.5 104.0 L 163.5 88.9 L 166.1 88.9 L 166.1 108.4 L 163.4 108.4 L 156.5 97.1 Q 155.7 95.8, 154.9 94.2 Q 154.1 92.7, 153.8 92.3 L 153.8 108.4 L 151.3 108.4 L 151.3 88.9 L 154.4 88.9 " fill="#000000"/>
<path class="atom-4" d="M 169.9 88.9 L 172.5 88.9 L 172.5 97.2 L 182.5 97.2 L 182.5 88.9 L 185.1 88.9 L 185.1 108.4 L 182.5 108.4 L 182.5 99.4 L 172.5 99.4 L 172.5 108.4 L 169.9 108.4 L 169.9 88.9 " fill="#000000"/>
<path class="atom-8" d="M 250.1 250.6 Q 250.1 246.0, 252.5 243.3 Q 254.8 240.7, 259.1 240.7 Q 263.4 240.7, 265.7 243.3 Q 268.0 246.0, 268.0 250.6 Q 268.0 255.4, 265.7 258.1 Q 263.4 260.8, 259.1 260.8 Q 254.8 260.8, 252.5 258.1 Q 250.1 255.4, 250.1 250.6 M 259.1 258.5 Q 262.1 258.5, 263.7 256.6 Q 265.3 254.6, 265.3 250.6 Q 265.3 246.8, 263.7 244.9 Q 262.1 242.9, 259.1 242.9 Q 256.1 242.9, 254.5 244.9 Q 252.9 246.8, 252.9 250.6 Q 252.9 254.6, 254.5 256.6 Q 256.1 258.5, 259.1 258.5 " fill="#000000"/>
<path class="atom-14" d="M 465.6 125.5 Q 465.6 120.6, 467.8 118.1 Q 470.1 115.5, 474.4 115.5 Q 478.4 115.5, 480.6 118.4 L 478.8 119.9 Q 477.2 117.8, 474.4 117.8 Q 471.5 117.8, 469.9 119.8 Q 468.4 121.7, 468.4 125.5 Q 468.4 129.3, 470.0 131.3 Q 471.6 133.3, 474.7 133.3 Q 476.9 133.3, 479.4 132.0 L 480.2 134.1 Q 479.1 134.7, 477.6 135.1 Q 476.1 135.5, 474.3 135.5 Q 470.1 135.5, 467.8 132.9 Q 465.6 130.3, 465.6 125.5 " fill="#000000"/>
<path class="atom-14" d="M 482.6 114.3 L 485.1 114.3 L 485.1 135.2 L 482.6 135.2 L 482.6 114.3 " fill="#000000"/>
</svg>