<?xml version='1.0' encoding='utf-8'?>
<svg xmlns="http://www.w3.org/2000/svg" xmlns:rdkit="http://www.rdkit.org/xml" xmlns:xlink="http://www.w3.org/1999/xlink" version="1.1" baseProfile="full" xml:space="preserve" width="512px" height="578px" viewBox="0 0 512 578">

<rect style="opacity:1.0;fill:#FFFFFF;stroke:none" width="512.0" height="578.0" x="0.0" y="0.0"> </rect>
<path class="bond-0 atom-0 atom-1" d="M 393.0,398.4 L 393.0,490.1" style="fill:none;fill-rule:evenodd;stroke:#000000;stroke-width:2.0px;stroke-linecap:butt;stroke-linejoin:miter;stroke-opacity:1"/>
<path class="bond-1 atom-1 atom-2" d="M 393.0,490.1 L 321.4,547.2" style="fill:none;fill-rule:evenodd;stroke:#000000;stroke-width:2.0px;stroke-linecap:butt;stroke-linejoin:miter;stroke-opacity:1"/>
<path class="bond-2 atom-2 atom-3" d="M 321.4,547.2 L 307.9,514.8" style="fill:none;fill-rule:evenodd;stroke:#000000;stroke-width:2.0px;stroke-linecap:butt;stroke-linejoin:miter;stroke-opacity:1"/>
<path class="bond-3 atom-3 atom-4" d="M 294.3,482.5 L 284.6,460.1" style="fill:none;fill-rule:evenodd;stroke:#000000;stroke-width:2.0px;stroke-linecap:butt;stroke-linejoin:miter;stroke-opacity:1"/>
<path class="bond-4 atom-4 atom-5" d="M 284.6,428.4 L 294.2,406.3" style="fill:none;fill-rule:evenodd;stroke:#000000;stroke-width:2.0px;stroke-linecap:butt;stroke-linejoin:miter;stroke-opacity:1"/>
<path class="bond-5 atom-5 atom-6" d="M 307.8,374.0 L 321.4,341.3" style="fill:none;fill-rule:evenodd;stroke:#000000;stroke-width:2.0px;stroke-linecap:butt;stroke-linejoin:miter;stroke-opacity:1"/>
<path class="bond-6 atom-6 atom-7" d="M 321.4,341.3 L 249.7,398.4" style="fill:none;fill-rule:evenodd;stroke:#000000;stroke-width:2.0px;stroke-linecap:butt;stroke-linejoin:miter;stroke-opacity:1"/>
<path class="bond-7 atom-7 atom-8" d="M 249.7,398.4 L 183.0,359.9" style="fill:none;fill-rule:evenodd;stroke:#000000;stroke-width:2.0px;stroke-linecap:butt;stroke-linejoin:miter;stroke-opacity:1"/>
<path class="bond-7 atom-7 atom-8" d="M 236.9,405.8 L 176.6,371.0" style="fill:none;fill-rule:evenodd;stroke:#000000;stroke-width:2.0px;stroke-linecap:butt;stroke-linejoin:miter;stroke-opacity:1"/>
<path class="bond-8 atom-8 atom-9" d="M 157.7,359.9 L 91.0,398.4" style="fill:none;fill-rule:evenodd;stroke:#000000;stroke-width:2.0px;stroke-linecap:butt;stroke-linejoin:miter;stroke-opacity:1"/>
<path class="bond-9 atom-9 atom-10" d="M 91.0,398.4 L 91.0,490.1" style="fill:none;fill-rule:evenodd;stroke:#000000;stroke-width:2.0px;stroke-linecap:butt;stroke-linejoin:miter;stroke-opacity:1"/>
<path class="bond-9 atom-9 atom-10" d="M 103.8,405.8 L 103.8,482.6" style="fill:none;fill-rule:evenodd;stroke:#000000;stroke-width:2.0px;stroke-linecap:butt;stroke-linejoin:miter;stroke-opacity:1"/>
<path class="bond-10 atom-10 atom-11" d="M 91.0,490.1 L 157.7,528.6" style="fill:none;fill-rule:evenodd;stroke:#000000;stroke-width:2.0px;stroke-linecap:butt;stroke-linejoin:miter;stroke-opacity:1"/>
<path class="bond-11 atom-11 atom-12" d="M 183.0,528.6 L 249.7,490.1" style="fill:none;fill-rule:evenodd;stroke:#000000;stroke-width:2.0px;stroke-linecap:butt;stroke-linejoin:miter;stroke-opacity:1"/>
<path class="bond-11 atom-11 atom-12" d="M 176.6,517.4 L 236.9,482.6" style="fill:none;fill-rule:evenodd;stroke:#000000;stroke-width:2.0px;stroke-linecap:butt;stroke-linejoin:miter;stroke-opacity:1"/>
<path class="bond-12 atom-13 atom-14" d="M 292.2,132.8 L 220.2,189.5" style="fill:none;fill-rule:evenodd;stroke:#000000;stroke-width:2.0px;stroke-linecap:butt;stroke-linejoin:miter;stroke-opacity:1"/>
<path class="bond-13 atom-14 atom-15" d="M 220.2,189.5 L 135.1,155.5" style="fill:none;fill-rule:evenodd;stroke:#000000;stroke-width:2.0px;stroke-linecap:butt;stroke-linejoin:miter;stroke-opacity:1"/>
<path class="bond-14 atom-15 atom-16" d="M 142.0,158.2 L 130.7,80.2" style="fill:none;fill-rule:evenodd;stroke:#000000;stroke-width:2.0px;stroke-linecap:butt;stroke-linejoin:miter;stroke-opacity:1"/>
<path class="bond-14 atom-15 atom-16" d="M 129.3,160.1 L 118.0,82.1" style="fill:none;fill-rule:evenodd;stroke:#000000;stroke-width:2.0px;stroke-linecap:butt;stroke-linejoin:miter;stroke-opacity:1"/>
<path class="bond-15 atom-15 atom-17" d="M 135.1,155.5 L 77.9,200.6" style="fill:none;fill-rule:evenodd;stroke:#000000;stroke-width:2.0px;stroke-linecap:butt;stroke-linejoin:miter;stroke-opacity:1"/>
<path class="bond-16 atom-14 atom-18" d="M 220.2,189.5 L 231.1,264.2" style="fill:none;fill-rule:evenodd;stroke:#000000;stroke-width:2.0px;stroke-linecap:butt;stroke-linejoin:miter;stroke-opacity:1"/>
<path class="bond-17 atom-13 atom-19" d="M 292.2,132.8 L 377.4,166.7" style="fill:none;fill-rule:evenodd;stroke:#000000;stroke-width:2.0px;stroke-linecap:butt;stroke-linejoin:miter;stroke-opacity:1"/>
<path class="bond-18 atom-19 atom-20" d="M 370.5,164.0 L 381.8,242.4" style="fill:none;fill-rule:evenodd;stroke:#000000;stroke-width:2.0px;stroke-linecap:butt;stroke-linejoin:miter;stroke-opacity:1"/>
<path class="bond-18 atom-19 atom-20" d="M 383.2,162.1 L 394.5,240.6" style="fill:none;fill-rule:evenodd;stroke:#000000;stroke-width:2.0px;stroke-linecap:butt;stroke-linejoin:miter;stroke-opacity:1"/>
<path class="bond-19 atom-19 atom-21" d="M 377.4,166.7 L 434.6,121.6" style="fill:none;fill-rule:evenodd;stroke:#000000;stroke-width:2.0px;stroke-linecap:butt;stroke-linejoin:miter;stroke-opacity:1"/>
<path class="bond-20 atom-13 atom-22" d="M 292.2,132.8 L 281.5,58.4" style="fill:none;fill-rule:evenodd;stroke:#000000;stroke-width:2.0px;stroke-linecap:butt;stroke-linejoin:miter;stroke-opacity:1"/>
<path class="bond-21 atom-6 atom-0" d="M 321.4,341.3 L 393.0,398.4" style="fill:none;fill-rule:evenodd;stroke:#000000;stroke-width:2.0px;stroke-linecap:butt;stroke-linejoin:miter;stroke-opacity:1"/>
<path class="bond-22 atom-12 atom-2" d="M 249.7,490.1 L 321.4,547.2" style="fill:none;fill-rule:evenodd;stroke:#000000;stroke-width:2.0px;stroke-linecap:butt;stroke-linejoin:miter;stroke-opacity:1"/>
<path class="bond-23 atom-12 atom-7" d="M 249.7,490.1 L 249.7,398.4" style="fill:none;fill-rule:evenodd;stroke:#000000;stroke-width:2.0px;stroke-linecap:butt;stroke-linejoin:miter;stroke-opacity:1"/>
<path d="M 393.0,403.0 L 393.0,398.4 L 389.5,395.6" style="fill:none;stroke:#000000;stroke-width:2.0px;stroke-linecap:butt;stroke-linejoin:miter;stroke-miterlimit:10;stroke-opacity:1;"/>
<path d="M 393.0,485.5 L 393.0,490.1 L 389.5,492.9" style="fill:none;stroke:#000000;stroke-width:2.0px;stroke-linecap:butt;stroke-linejoin:miter;stroke-miterlimit:10;stroke-opacity:1;"/>
<path d="M 94.3,396.5 L 91.0,398.4 L 91.0,403.0" style="fill:none;stroke:#000000;stroke-width:2.0px;stroke-linecap:butt;stroke-linejoin:miter;stroke-miterlimit:10;stroke-opacity:1;"/>
<path d="M 91.0,485.5 L 91.0,490.1 L 94.3,492.0" style="fill:none;stroke:#000000;stroke-width:2.0px;stroke-linecap:butt;stroke-linejoin:miter;stroke-miterlimit:10;stroke-opacity:1;"/>
<path d="M 139.4,157.2 L 135.1,155.5 L 132.3,157.8" style="fill:none;stroke:#000000;stroke-width:2.0px;stroke-linecap:butt;stroke-linejoin:miter;stroke-miterlimit:10;stroke-opacity:1;"/>
<path d="M 373.1,165.0 L 377.4,166.7 L 380.2,164.5" style="fill:none;stroke:#000000;stroke-width:2.0px;stroke-linecap:butt;stroke-linejoin:miter;stroke-miterlimit:10;stroke-opacity:1;"/>
<path class="atom-3" d="M 291.2 498.6 Q 291.2 492.1, 294.2 488.8 Q 297.2 485.4, 303.0 485.4 Q 308.3 485.4, 311.2 489.1 L 308.8 491.1 Q 306.7 488.4, 303.0 488.4 Q 299.0 488.4, 296.9 491.0 Q 294.9 493.6, 294.9 498.6 Q 294.9 503.7, 297.0 506.4 Q 299.2 509.0, 303.4 509.0 Q 306.2 509.0, 309.6 507.3 L 310.6 510.0 Q 309.2 510.9, 307.2 511.4 Q 305.1 511.9, 302.8 511.9 Q 297.2 511.9, 294.2 508.5 Q 291.2 505.1, 291.2 498.6 " fill="#000000"/>
<path class="atom-4" d="M 242.5 431.3 L 246.1 431.3 L 246.1 442.3 L 259.3 442.3 L 259.3 431.3 L 262.8 431.3 L 262.8 457.2 L 259.3 457.2 L 259.3 445.2 L 246.1 445.2 L 246.1 457.2 L 242.5 457.2 L 242.5 431.3 " fill="#000000"/>
<path class="atom-4" d="M 272.1 431.3 L 280.6 445.0 Q 281.4 446.4, 282.8 448.8 Q 284.1 451.3, 284.2 451.4 L 284.2 431.3 L 287.7 431.3 L 287.7 457.2 L 284.1 457.2 L 275.0 442.2 Q 273.9 440.4, 272.8 438.4 Q 271.7 436.4, 271.3 435.8 L 271.3 457.2 L 268.0 457.2 L 268.0 431.3 L 272.1 431.3 " fill="#000000"/>
<path class="atom-5" d="M 291.2 390.1 Q 291.2 383.7, 294.2 380.3 Q 297.2 376.9, 303.0 376.9 Q 308.3 376.9, 311.2 380.7 L 308.8 382.6 Q 306.7 379.9, 303.0 379.9 Q 299.0 379.9, 296.9 382.5 Q 294.9 385.1, 294.9 390.1 Q 294.9 395.2, 297.0 397.9 Q 299.2 400.5, 303.4 400.5 Q 306.2 400.5, 309.6 398.8 L 310.6 401.5 Q 309.2 402.4, 307.2 402.9 Q 305.1 403.5, 302.8 403.5 Q 297.2 403.5, 294.2 400.0 Q 291.2 396.6, 291.2 390.1 " fill="#000000"/>
<path class="atom-8" d="M 164.6 339.6 L 173.1 353.4 Q 174.0 354.7, 175.3 357.2 Q 176.7 359.6, 176.8 359.8 L 176.8 339.6 L 180.2 339.6 L 180.2 365.6 L 176.6 365.6 L 167.5 350.5 Q 166.5 348.8, 165.3 346.8 Q 164.2 344.8, 163.9 344.1 L 163.9 365.6 L 160.5 365.6 L 160.5 339.6 L 164.6 339.6 " fill="#000000"/>
<path class="atom-11" d="M 164.6 522.9 L 173.1 536.7 Q 174.0 538.0, 175.3 540.5 Q 176.7 542.9, 176.8 543.1 L 176.8 522.9 L 180.2 522.9 L 180.2 548.9 L 176.6 548.9 L 167.5 533.8 Q 166.5 532.1, 165.3 530.1 Q 164.2 528.0, 163.9 527.4 L 163.9 548.9 L 160.5 548.9 L 160.5 522.9 L 164.6 522.9 " fill="#000000"/>
<path class="atom-16" d="M 110.1 64.9 Q 110.1 58.6, 113.2 55.2 Q 116.2 51.7, 122.0 51.7 Q 127.8 51.7, 130.8 55.2 Q 133.9 58.6, 133.9 64.9 Q 133.9 71.2, 130.8 74.8 Q 127.7 78.3, 122.0 78.3 Q 116.3 78.3, 113.2 74.8 Q 110.1 71.2, 110.1 64.9 M 122.0 75.4 Q 126.0 75.4, 128.1 72.7 Q 130.3 70.1, 130.3 64.9 Q 130.3 59.8, 128.1 57.2 Q 126.0 54.6, 122.0 54.6 Q 118.0 54.6, 115.9 57.2 Q 113.8 59.7, 113.8 64.9 Q 113.8 70.1, 115.9 72.7 Q 118.0 75.4, 122.0 75.4 " fill="#000000"/>
<path class="atom-17" d="M 25.6 199.4 L 29.1 199.4 L 29.1 210.4 L 42.4 210.4 L 42.4 199.4 L 45.9 199.4 L 45.9 225.3 L 42.4 225.3 L 42.4 213.4 L 29.1 213.4 L 29.1 225.3 L 25.6 225.3 L 25.6 199.4 " fill="#000000"/>
<path class="atom-17" d="M 51.2 212.3 Q 51.2 206.1, 54.3 202.6 Q 57.4 199.1, 63.1 199.1 Q 68.9 199.1, 72.0 202.6 Q 75.1 206.1, 75.1 212.3 Q 75.1 218.6, 71.9 222.2 Q 68.8 225.7, 63.1 225.7 Q 57.4 225.7, 54.3 222.2 Q 51.2 218.6, 51.2 212.3 M 63.1 222.8 Q 67.1 222.8, 69.2 220.2 Q 71.4 217.5, 71.4 212.3 Q 71.4 207.2, 69.2 204.6 Q 67.1 202.0, 63.1 202.0 Q 59.2 202.0, 57.0 204.6 Q 54.9 207.2, 54.9 212.3 Q 54.9 217.5, 57.0 220.2 Q 59.2 222.8, 63.1 222.8 " fill="#000000"/>
<path class="atom-18" d="M 221.5 280.3 Q 221.5 274.0, 224.5 270.5 Q 227.6 267.1, 233.4 267.1 Q 239.1 267.1, 242.2 270.5 Q 245.3 274.0, 245.3 280.3 Q 245.3 286.6, 242.2 290.2 Q 239.1 293.7, 233.4 293.7 Q 227.7 293.7, 224.5 290.2 Q 221.5 286.6, 221.5 280.3 M 233.4 290.8 Q 237.3 290.8, 239.5 288.1 Q 241.6 285.5, 241.6 280.3 Q 241.6 275.2, 239.5 272.6 Q 237.3 270.0, 233.4 270.0 Q 229.4 270.0, 227.3 272.6 Q 225.1 275.1, 225.1 280.3 Q 225.1 285.5, 227.3 288.1 Q 229.4 290.8, 233.4 290.8 " fill="#000000"/>
<path class="atom-18" d="M 249.3 267.4 L 252.9 267.4 L 252.9 278.4 L 266.1 278.4 L 266.1 267.4 L 269.6 267.4 L 269.6 293.3 L 266.1 293.3 L 266.1 281.3 L 252.9 281.3 L 252.9 293.3 L 249.3 293.3 L 249.3 267.4 " fill="#000000"/>
<path class="atom-20" d="M 378.6 257.5 Q 378.6 251.3, 381.6 247.8 Q 384.7 244.3, 390.5 244.3 Q 396.2 244.3, 399.3 247.8 Q 402.4 251.3, 402.4 257.5 Q 402.4 263.8, 399.3 267.4 Q 396.2 271.0, 390.5 271.0 Q 384.8 271.0, 381.6 267.4 Q 378.6 263.9, 378.6 257.5 M 390.5 268.0 Q 394.4 268.0, 396.6 265.4 Q 398.7 262.7, 398.7 257.5 Q 398.7 252.4, 396.6 249.9 Q 394.4 247.2, 390.5 247.2 Q 386.5 247.2, 384.4 249.8 Q 382.2 252.4, 382.2 257.5 Q 382.2 262.8, 384.4 265.4 Q 386.5 268.0, 390.5 268.0 " fill="#000000"/>
<path class="atom-21" d="M 437.4 110.1 Q 437.4 103.9, 440.5 100.4 Q 443.6 96.9, 449.3 96.9 Q 455.1 96.9, 458.2 100.4 Q 461.3 103.9, 461.3 110.1 Q 461.3 116.4, 458.1 120.0 Q 455.0 123.5, 449.3 123.5 Q 443.6 123.5, 440.5 120.0 Q 437.4 116.4, 437.4 110.1 M 449.3 120.6 Q 453.3 120.6, 455.4 118.0 Q 457.6 115.3, 457.6 110.1 Q 457.6 105.0, 455.4 102.4 Q 453.3 99.8, 449.3 99.8 Q 445.4 99.8, 443.2 102.4 Q 441.1 105.0, 441.1 110.1 Q 441.1 115.3, 443.2 118.0 Q 445.4 120.6, 449.3 120.6 " fill="#000000"/>
<path class="atom-21" d="M 465.3 97.2 L 468.8 97.2 L 468.8 108.2 L 482.1 108.2 L 482.1 97.2 L 485.6 97.2 L 485.6 123.1 L 482.1 123.1 L 482.1 111.1 L 468.8 111.1 L 468.8 123.1 L 465.3 123.1 L 465.3 97.2 " fill="#000000"/>
<path class="atom-22" d="M 267.2 42.1 Q 267.2 35.9, 270.3 32.4 Q 273.3 28.9, 279.1 28.9 Q 284.9 28.9, 287.9 32.4 Q 291.0 35.9, 291.0 42.1 Q 291.0 48.4, 287.9 52.0 Q 284.8 55.6, 279.1 55.6 Q 273.4 55.6, 270.3 52.0 Q 267.2 48.5, 267.2 42.1 M 279.1 52.6 Q 283.1 52.6, 285.2 50.0 Q 287.4 47.3, 287.4 42.1 Q 287.4 37.0, 285.2 34.5 Q 283.1 31.9, 279.1 31.9 Q 275.1 31.9, 273.0 34.4 Q 270.9 37.0, 270.9 42.1 Q 270.9 47.4, 273.0 50.0 Q 275.1 52.6, 279.1 52.6 " fill="#000000"/>
<path class="atom-22" d="M 295.1 29.2 L 298.6 29.2 L 298.6 40.3 L 311.8 40.3 L 311.8 29.2 L 315.4 29.2 L 315.4 55.2 L 311.8 55.2 L 311.8 43.2 L 298.6 43.2 L 298.6 55.2 L 295.1 55.2 L 295.1 29.2 " fill="#000000"/>
</svg>