<?xml version='1.0' encoding='utf-8'?>
<svg xmlns="http://www.w3.org/2000/svg" xmlns:rdkit="http://www.rdkit.org/xml" xmlns:xlink="http://www.w3.org/1999/xlink" version="1.1" baseProfile="full" xml:space="preserve" width="512px" height="521px" viewBox="0 0 512 521">

<rect style="opacity:1.0;fill:#FFFFFF;stroke:none" width="512.0" height="521.0" x="0.0" y="0.0"> </rect>
<path class="bond-0 atom-1 atom-2" d="M 446.3,401.7 L 396.8,374.2" style="fill:none;fill-rule:evenodd;stroke:#000000;stroke-width:2.0px;stroke-linecap:butt;stroke-linejoin:miter;stroke-opacity:1"/>
<path class="bond-1 atom-2 atom-3" d="M 396.8,374.2 L 337.1,410.0" style="fill:none;fill-rule:evenodd;stroke:#000000;stroke-width:2.0px;stroke-linecap:butt;stroke-linejoin:miter;stroke-opacity:1"/>
<path class="bond-2 atom-3 atom-4" d="M 337.1,410.0 L 343.3,465.0 L 332.8,465.2 Z" style="fill:#000000;fill-rule:evenodd;fill-opacity:1;stroke:#000000;stroke-width:0.5px;stroke-linecap:butt;stroke-linejoin:miter;stroke-miterlimit:10;stroke-opacity:1;"/>
<path class="bond-3 atom-3 atom-5" d="M 337.1,410.0 L 276.2,376.3" style="fill:none;fill-rule:evenodd;stroke:#000000;stroke-width:2.0px;stroke-linecap:butt;stroke-linejoin:miter;stroke-opacity:1"/>
<path class="bond-4 atom-5 atom-6" d="M 275.8,372.8 L 276.5,372.8" style="fill:none;fill-rule:evenodd;stroke:#000000;stroke-width:1.0px;stroke-linecap:butt;stroke-linejoin:miter;stroke-opacity:1"/>
<path class="bond-4 atom-5 atom-6" d="M 275.4,369.4 L 276.7,369.4" style="fill:none;fill-rule:evenodd;stroke:#000000;stroke-width:1.0px;stroke-linecap:butt;stroke-linejoin:miter;stroke-opacity:1"/>
<path class="bond-4 atom-5 atom-6" d="M 275.1,366.0 L 277.0,366.0" style="fill:none;fill-rule:evenodd;stroke:#000000;stroke-width:1.0px;stroke-linecap:butt;stroke-linejoin:miter;stroke-opacity:1"/>
<path class="bond-4 atom-5 atom-6" d="M 274.7,362.6 L 277.3,362.5" style="fill:none;fill-rule:evenodd;stroke:#000000;stroke-width:1.0px;stroke-linecap:butt;stroke-linejoin:miter;stroke-opacity:1"/>
<path class="bond-4 atom-5 atom-6" d="M 274.3,359.2 L 277.5,359.1" style="fill:none;fill-rule:evenodd;stroke:#000000;stroke-width:1.0px;stroke-linecap:butt;stroke-linejoin:miter;stroke-opacity:1"/>
<path class="bond-4 atom-5 atom-6" d="M 273.9,355.8 L 277.8,355.7" style="fill:none;fill-rule:evenodd;stroke:#000000;stroke-width:1.0px;stroke-linecap:butt;stroke-linejoin:miter;stroke-opacity:1"/>
<path class="bond-4 atom-5 atom-6" d="M 273.5,352.3 L 278.1,352.3" style="fill:none;fill-rule:evenodd;stroke:#000000;stroke-width:1.0px;stroke-linecap:butt;stroke-linejoin:miter;stroke-opacity:1"/>
<path class="bond-4 atom-5 atom-6" d="M 273.1,348.9 L 278.4,348.8" style="fill:none;fill-rule:evenodd;stroke:#000000;stroke-width:1.0px;stroke-linecap:butt;stroke-linejoin:miter;stroke-opacity:1"/>
<path class="bond-4 atom-5 atom-6" d="M 272.7,345.5 L 278.6,345.4" style="fill:none;fill-rule:evenodd;stroke:#000000;stroke-width:1.0px;stroke-linecap:butt;stroke-linejoin:miter;stroke-opacity:1"/>
<path class="bond-4 atom-5 atom-6" d="M 272.4,342.1 L 278.9,342.0" style="fill:none;fill-rule:evenodd;stroke:#000000;stroke-width:1.0px;stroke-linecap:butt;stroke-linejoin:miter;stroke-opacity:1"/>
<path class="bond-4 atom-5 atom-6" d="M 272.0,338.7 L 279.2,338.6" style="fill:none;fill-rule:evenodd;stroke:#000000;stroke-width:1.0px;stroke-linecap:butt;stroke-linejoin:miter;stroke-opacity:1"/>
<path class="bond-4 atom-5 atom-6" d="M 271.6,335.3 L 279.4,335.1" style="fill:none;fill-rule:evenodd;stroke:#000000;stroke-width:1.0px;stroke-linecap:butt;stroke-linejoin:miter;stroke-opacity:1"/>
<path class="bond-4 atom-5 atom-6" d="M 271.2,331.8 L 279.7,331.7" style="fill:none;fill-rule:evenodd;stroke:#000000;stroke-width:1.0px;stroke-linecap:butt;stroke-linejoin:miter;stroke-opacity:1"/>
<path class="bond-4 atom-5 atom-6" d="M 270.8,328.4 L 280.0,328.3" style="fill:none;fill-rule:evenodd;stroke:#000000;stroke-width:1.0px;stroke-linecap:butt;stroke-linejoin:miter;stroke-opacity:1"/>
<path class="bond-4 atom-5 atom-6" d="M 270.4,325.0 L 280.2,324.8" style="fill:none;fill-rule:evenodd;stroke:#000000;stroke-width:1.0px;stroke-linecap:butt;stroke-linejoin:miter;stroke-opacity:1"/>
<path class="bond-4 atom-5 atom-6" d="M 270.1,321.6 L 280.5,321.4" style="fill:none;fill-rule:evenodd;stroke:#000000;stroke-width:1.0px;stroke-linecap:butt;stroke-linejoin:miter;stroke-opacity:1"/>
<path class="bond-5 atom-5 atom-7" d="M 276.2,376.3 L 216.5,412.1" style="fill:none;fill-rule:evenodd;stroke:#000000;stroke-width:2.0px;stroke-linecap:butt;stroke-linejoin:miter;stroke-opacity:1"/>
<path class="bond-6 atom-7 atom-8" d="M 216.9,415.5 L 216.2,415.5" style="fill:none;fill-rule:evenodd;stroke:#000000;stroke-width:1.0px;stroke-linecap:butt;stroke-linejoin:miter;stroke-opacity:1"/>
<path class="bond-6 atom-7 atom-8" d="M 217.3,419.0 L 216.0,419.0" style="fill:none;fill-rule:evenodd;stroke:#000000;stroke-width:1.0px;stroke-linecap:butt;stroke-linejoin:miter;stroke-opacity:1"/>
<path class="bond-6 atom-7 atom-8" d="M 217.6,422.4 L 215.7,422.4" style="fill:none;fill-rule:evenodd;stroke:#000000;stroke-width:1.0px;stroke-linecap:butt;stroke-linejoin:miter;stroke-opacity:1"/>
<path class="bond-6 atom-7 atom-8" d="M 218.0,425.8 L 215.4,425.9" style="fill:none;fill-rule:evenodd;stroke:#000000;stroke-width:1.0px;stroke-linecap:butt;stroke-linejoin:miter;stroke-opacity:1"/>
<path class="bond-6 atom-7 atom-8" d="M 218.4,429.3 L 215.2,429.3" style="fill:none;fill-rule:evenodd;stroke:#000000;stroke-width:1.0px;stroke-linecap:butt;stroke-linejoin:miter;stroke-opacity:1"/>
<path class="bond-6 atom-7 atom-8" d="M 218.8,432.7 L 214.9,432.8" style="fill:none;fill-rule:evenodd;stroke:#000000;stroke-width:1.0px;stroke-linecap:butt;stroke-linejoin:miter;stroke-opacity:1"/>
<path class="bond-6 atom-7 atom-8" d="M 219.2,436.1 L 214.6,436.2" style="fill:none;fill-rule:evenodd;stroke:#000000;stroke-width:1.0px;stroke-linecap:butt;stroke-linejoin:miter;stroke-opacity:1"/>
<path class="bond-6 atom-7 atom-8" d="M 219.6,439.6 L 214.4,439.7" style="fill:none;fill-rule:evenodd;stroke:#000000;stroke-width:1.0px;stroke-linecap:butt;stroke-linejoin:miter;stroke-opacity:1"/>
<path class="bond-6 atom-7 atom-8" d="M 220.0,443.0 L 214.1,443.1" style="fill:none;fill-rule:evenodd;stroke:#000000;stroke-width:1.0px;stroke-linecap:butt;stroke-linejoin:miter;stroke-opacity:1"/>
<path class="bond-6 atom-7 atom-8" d="M 220.3,446.5 L 213.8,446.6" style="fill:none;fill-rule:evenodd;stroke:#000000;stroke-width:1.0px;stroke-linecap:butt;stroke-linejoin:miter;stroke-opacity:1"/>
<path class="bond-6 atom-7 atom-8" d="M 220.7,449.9 L 213.5,450.0" style="fill:none;fill-rule:evenodd;stroke:#000000;stroke-width:1.0px;stroke-linecap:butt;stroke-linejoin:miter;stroke-opacity:1"/>
<path class="bond-6 atom-7 atom-8" d="M 221.1,453.3 L 213.3,453.5" style="fill:none;fill-rule:evenodd;stroke:#000000;stroke-width:1.0px;stroke-linecap:butt;stroke-linejoin:miter;stroke-opacity:1"/>
<path class="bond-6 atom-7 atom-8" d="M 221.5,456.8 L 213.0,456.9" style="fill:none;fill-rule:evenodd;stroke:#000000;stroke-width:1.0px;stroke-linecap:butt;stroke-linejoin:miter;stroke-opacity:1"/>
<path class="bond-6 atom-7 atom-8" d="M 221.9,460.2 L 212.7,460.4" style="fill:none;fill-rule:evenodd;stroke:#000000;stroke-width:1.0px;stroke-linecap:butt;stroke-linejoin:miter;stroke-opacity:1"/>
<path class="bond-6 atom-7 atom-8" d="M 222.3,463.6 L 212.5,463.8" style="fill:none;fill-rule:evenodd;stroke:#000000;stroke-width:1.0px;stroke-linecap:butt;stroke-linejoin:miter;stroke-opacity:1"/>
<path class="bond-6 atom-7 atom-8" d="M 222.7,467.1 L 212.2,467.2" style="fill:none;fill-rule:evenodd;stroke:#000000;stroke-width:1.0px;stroke-linecap:butt;stroke-linejoin:miter;stroke-opacity:1"/>
<path class="bond-7 atom-7 atom-9" d="M 216.5,412.1 L 155.6,378.3" style="fill:none;fill-rule:evenodd;stroke:#000000;stroke-width:2.0px;stroke-linecap:butt;stroke-linejoin:miter;stroke-opacity:1"/>
<path class="bond-8 atom-9 atom-10" d="M 155.2,374.9 L 155.9,374.9" style="fill:none;fill-rule:evenodd;stroke:#000000;stroke-width:1.0px;stroke-linecap:butt;stroke-linejoin:miter;stroke-opacity:1"/>
<path class="bond-8 atom-9 atom-10" d="M 154.8,371.5 L 156.1,371.4" style="fill:none;fill-rule:evenodd;stroke:#000000;stroke-width:1.0px;stroke-linecap:butt;stroke-linejoin:miter;stroke-opacity:1"/>
<path class="bond-8 atom-9 atom-10" d="M 154.5,368.1 L 156.4,368.0" style="fill:none;fill-rule:evenodd;stroke:#000000;stroke-width:1.0px;stroke-linecap:butt;stroke-linejoin:miter;stroke-opacity:1"/>
<path class="bond-8 atom-9 atom-10" d="M 154.1,364.6 L 156.7,364.6" style="fill:none;fill-rule:evenodd;stroke:#000000;stroke-width:1.0px;stroke-linecap:butt;stroke-linejoin:miter;stroke-opacity:1"/>
<path class="bond-8 atom-9 atom-10" d="M 153.7,361.2 L 156.9,361.2" style="fill:none;fill-rule:evenodd;stroke:#000000;stroke-width:1.0px;stroke-linecap:butt;stroke-linejoin:miter;stroke-opacity:1"/>
<path class="bond-8 atom-9 atom-10" d="M 153.3,357.8 L 157.2,357.7" style="fill:none;fill-rule:evenodd;stroke:#000000;stroke-width:1.0px;stroke-linecap:butt;stroke-linejoin:miter;stroke-opacity:1"/>
<path class="bond-8 atom-9 atom-10" d="M 152.9,354.4 L 157.5,354.3" style="fill:none;fill-rule:evenodd;stroke:#000000;stroke-width:1.0px;stroke-linecap:butt;stroke-linejoin:miter;stroke-opacity:1"/>
<path class="bond-8 atom-9 atom-10" d="M 152.5,351.0 L 157.8,350.9" style="fill:none;fill-rule:evenodd;stroke:#000000;stroke-width:1.0px;stroke-linecap:butt;stroke-linejoin:miter;stroke-opacity:1"/>
<path class="bond-8 atom-9 atom-10" d="M 152.1,347.6 L 158.0,347.5" style="fill:none;fill-rule:evenodd;stroke:#000000;stroke-width:1.0px;stroke-linecap:butt;stroke-linejoin:miter;stroke-opacity:1"/>
<path class="bond-8 atom-9 atom-10" d="M 151.8,344.1 L 158.3,344.0" style="fill:none;fill-rule:evenodd;stroke:#000000;stroke-width:1.0px;stroke-linecap:butt;stroke-linejoin:miter;stroke-opacity:1"/>
<path class="bond-8 atom-9 atom-10" d="M 151.4,340.7 L 158.6,340.6" style="fill:none;fill-rule:evenodd;stroke:#000000;stroke-width:1.0px;stroke-linecap:butt;stroke-linejoin:miter;stroke-opacity:1"/>
<path class="bond-8 atom-9 atom-10" d="M 151.0,337.3 L 158.8,337.2" style="fill:none;fill-rule:evenodd;stroke:#000000;stroke-width:1.0px;stroke-linecap:butt;stroke-linejoin:miter;stroke-opacity:1"/>
<path class="bond-8 atom-9 atom-10" d="M 150.6,333.9 L 159.1,333.7" style="fill:none;fill-rule:evenodd;stroke:#000000;stroke-width:1.0px;stroke-linecap:butt;stroke-linejoin:miter;stroke-opacity:1"/>
<path class="bond-8 atom-9 atom-10" d="M 150.2,330.5 L 159.4,330.3" style="fill:none;fill-rule:evenodd;stroke:#000000;stroke-width:1.0px;stroke-linecap:butt;stroke-linejoin:miter;stroke-opacity:1"/>
<path class="bond-8 atom-9 atom-10" d="M 149.8,327.1 L 159.6,326.9" style="fill:none;fill-rule:evenodd;stroke:#000000;stroke-width:1.0px;stroke-linecap:butt;stroke-linejoin:miter;stroke-opacity:1"/>
<path class="bond-8 atom-9 atom-10" d="M 149.5,323.6 L 159.9,323.5" style="fill:none;fill-rule:evenodd;stroke:#000000;stroke-width:1.0px;stroke-linecap:butt;stroke-linejoin:miter;stroke-opacity:1"/>
<path class="bond-9 atom-9 atom-11" d="M 155.6,378.3 L 95.9,414.1" style="fill:none;fill-rule:evenodd;stroke:#000000;stroke-width:2.0px;stroke-linecap:butt;stroke-linejoin:miter;stroke-opacity:1"/>
<path class="bond-10 atom-11 atom-12" d="M 95.9,414.1 L 46.4,386.7" style="fill:none;fill-rule:evenodd;stroke:#000000;stroke-width:2.0px;stroke-linecap:butt;stroke-linejoin:miter;stroke-opacity:1"/>
<path class="bond-11 atom-11 atom-13" d="M 90.6,411.2 L 91.6,471.6" style="fill:none;fill-rule:evenodd;stroke:#000000;stroke-width:2.0px;stroke-linecap:butt;stroke-linejoin:miter;stroke-opacity:1"/>
<path class="bond-11 atom-11 atom-13" d="M 101.1,411.0 L 102.1,471.4" style="fill:none;fill-rule:evenodd;stroke:#000000;stroke-width:2.0px;stroke-linecap:butt;stroke-linejoin:miter;stroke-opacity:1"/>
<path class="bond-12 atom-14 atom-15" d="M 446.3,178.1 L 396.8,150.6" style="fill:none;fill-rule:evenodd;stroke:#000000;stroke-width:2.0px;stroke-linecap:butt;stroke-linejoin:miter;stroke-opacity:1"/>
<path class="bond-13 atom-15 atom-16" d="M 396.8,150.6 L 337.1,186.5" style="fill:none;fill-rule:evenodd;stroke:#000000;stroke-width:2.0px;stroke-linecap:butt;stroke-linejoin:miter;stroke-opacity:1"/>
<path class="bond-14 atom-16 atom-17" d="M 337.1,186.5 L 343.3,241.5 L 332.8,241.6 Z" style="fill:#000000;fill-rule:evenodd;fill-opacity:1;stroke:#000000;stroke-width:0.5px;stroke-linecap:butt;stroke-linejoin:miter;stroke-miterlimit:10;stroke-opacity:1;"/>
<path class="bond-15 atom-16 atom-18" d="M 337.1,186.5 L 276.2,152.7" style="fill:none;fill-rule:evenodd;stroke:#000000;stroke-width:2.0px;stroke-linecap:butt;stroke-linejoin:miter;stroke-opacity:1"/>
<path class="bond-16 atom-18 atom-19" d="M 275.8,149.3 L 276.5,149.3" style="fill:none;fill-rule:evenodd;stroke:#000000;stroke-width:1.0px;stroke-linecap:butt;stroke-linejoin:miter;stroke-opacity:1"/>
<path class="bond-16 atom-18 atom-19" d="M 275.4,145.9 L 276.7,145.8" style="fill:none;fill-rule:evenodd;stroke:#000000;stroke-width:1.0px;stroke-linecap:butt;stroke-linejoin:miter;stroke-opacity:1"/>
<path class="bond-16 atom-18 atom-19" d="M 275.1,142.4 L 277.0,142.4" style="fill:none;fill-rule:evenodd;stroke:#000000;stroke-width:1.0px;stroke-linecap:butt;stroke-linejoin:miter;stroke-opacity:1"/>
<path class="bond-16 atom-18 atom-19" d="M 274.7,139.0 L 277.3,139.0" style="fill:none;fill-rule:evenodd;stroke:#000000;stroke-width:1.0px;stroke-linecap:butt;stroke-linejoin:miter;stroke-opacity:1"/>
<path class="bond-16 atom-18 atom-19" d="M 274.3,135.6 L 277.5,135.6" style="fill:none;fill-rule:evenodd;stroke:#000000;stroke-width:1.0px;stroke-linecap:butt;stroke-linejoin:miter;stroke-opacity:1"/>
<path class="bond-16 atom-18 atom-19" d="M 273.9,132.2 L 277.8,132.1" style="fill:none;fill-rule:evenodd;stroke:#000000;stroke-width:1.0px;stroke-linecap:butt;stroke-linejoin:miter;stroke-opacity:1"/>
<path class="bond-16 atom-18 atom-19" d="M 273.5,128.8 L 278.1,128.7" style="fill:none;fill-rule:evenodd;stroke:#000000;stroke-width:1.0px;stroke-linecap:butt;stroke-linejoin:miter;stroke-opacity:1"/>
<path class="bond-16 atom-18 atom-19" d="M 273.1,125.4 L 278.4,125.3" style="fill:none;fill-rule:evenodd;stroke:#000000;stroke-width:1.0px;stroke-linecap:butt;stroke-linejoin:miter;stroke-opacity:1"/>
<path class="bond-16 atom-18 atom-19" d="M 272.7,121.9 L 278.6,121.8" style="fill:none;fill-rule:evenodd;stroke:#000000;stroke-width:1.0px;stroke-linecap:butt;stroke-linejoin:miter;stroke-opacity:1"/>
<path class="bond-16 atom-18 atom-19" d="M 272.4,118.5 L 278.9,118.4" style="fill:none;fill-rule:evenodd;stroke:#000000;stroke-width:1.0px;stroke-linecap:butt;stroke-linejoin:miter;stroke-opacity:1"/>
<path class="bond-16 atom-18 atom-19" d="M 272.0,115.1 L 279.2,115.0" style="fill:none;fill-rule:evenodd;stroke:#000000;stroke-width:1.0px;stroke-linecap:butt;stroke-linejoin:miter;stroke-opacity:1"/>
<path class="bond-16 atom-18 atom-19" d="M 271.6,111.7 L 279.4,111.6" style="fill:none;fill-rule:evenodd;stroke:#000000;stroke-width:1.0px;stroke-linecap:butt;stroke-linejoin:miter;stroke-opacity:1"/>
<path class="bond-16 atom-18 atom-19" d="M 271.2,108.3 L 279.7,108.1" style="fill:none;fill-rule:evenodd;stroke:#000000;stroke-width:1.0px;stroke-linecap:butt;stroke-linejoin:miter;stroke-opacity:1"/>
<path class="bond-16 atom-18 atom-19" d="M 270.8,104.9 L 280.0,104.7" style="fill:none;fill-rule:evenodd;stroke:#000000;stroke-width:1.0px;stroke-linecap:butt;stroke-linejoin:miter;stroke-opacity:1"/>
<path class="bond-16 atom-18 atom-19" d="M 270.4,101.4 L 280.2,101.3" style="fill:none;fill-rule:evenodd;stroke:#000000;stroke-width:1.0px;stroke-linecap:butt;stroke-linejoin:miter;stroke-opacity:1"/>
<path class="bond-16 atom-18 atom-19" d="M 270.1,98.0 L 280.5,97.8" style="fill:none;fill-rule:evenodd;stroke:#000000;stroke-width:1.0px;stroke-linecap:butt;stroke-linejoin:miter;stroke-opacity:1"/>
<path class="bond-17 atom-18 atom-20" d="M 276.2,152.7 L 216.5,188.5" style="fill:none;fill-rule:evenodd;stroke:#000000;stroke-width:2.0px;stroke-linecap:butt;stroke-linejoin:miter;stroke-opacity:1"/>
<path class="bond-18 atom-20 atom-21" d="M 216.9,192.0 L 216.2,192.0" style="fill:none;fill-rule:evenodd;stroke:#000000;stroke-width:1.0px;stroke-linecap:butt;stroke-linejoin:miter;stroke-opacity:1"/>
<path class="bond-18 atom-20 atom-21" d="M 217.3,195.4 L 216.0,195.4" style="fill:none;fill-rule:evenodd;stroke:#000000;stroke-width:1.0px;stroke-linecap:butt;stroke-linejoin:miter;stroke-opacity:1"/>
<path class="bond-18 atom-20 atom-21" d="M 217.6,198.8 L 215.7,198.9" style="fill:none;fill-rule:evenodd;stroke:#000000;stroke-width:1.0px;stroke-linecap:butt;stroke-linejoin:miter;stroke-opacity:1"/>
<path class="bond-18 atom-20 atom-21" d="M 218.0,202.3 L 215.4,202.3" style="fill:none;fill-rule:evenodd;stroke:#000000;stroke-width:1.0px;stroke-linecap:butt;stroke-linejoin:miter;stroke-opacity:1"/>
<path class="bond-18 atom-20 atom-21" d="M 218.4,205.7 L 215.2,205.8" style="fill:none;fill-rule:evenodd;stroke:#000000;stroke-width:1.0px;stroke-linecap:butt;stroke-linejoin:miter;stroke-opacity:1"/>
<path class="bond-18 atom-20 atom-21" d="M 218.8,209.1 L 214.9,209.2" style="fill:none;fill-rule:evenodd;stroke:#000000;stroke-width:1.0px;stroke-linecap:butt;stroke-linejoin:miter;stroke-opacity:1"/>
<path class="bond-18 atom-20 atom-21" d="M 219.2,212.6 L 214.6,212.7" style="fill:none;fill-rule:evenodd;stroke:#000000;stroke-width:1.0px;stroke-linecap:butt;stroke-linejoin:miter;stroke-opacity:1"/>
<path class="bond-18 atom-20 atom-21" d="M 219.6,216.0 L 214.4,216.1" style="fill:none;fill-rule:evenodd;stroke:#000000;stroke-width:1.0px;stroke-linecap:butt;stroke-linejoin:miter;stroke-opacity:1"/>
<path class="bond-18 atom-20 atom-21" d="M 220.0,219.4 L 214.1,219.5" style="fill:none;fill-rule:evenodd;stroke:#000000;stroke-width:1.0px;stroke-linecap:butt;stroke-linejoin:miter;stroke-opacity:1"/>
<path class="bond-18 atom-20 atom-21" d="M 220.3,222.9 L 213.8,223.0" style="fill:none;fill-rule:evenodd;stroke:#000000;stroke-width:1.0px;stroke-linecap:butt;stroke-linejoin:miter;stroke-opacity:1"/>
<path class="bond-18 atom-20 atom-21" d="M 220.7,226.3 L 213.5,226.4" style="fill:none;fill-rule:evenodd;stroke:#000000;stroke-width:1.0px;stroke-linecap:butt;stroke-linejoin:miter;stroke-opacity:1"/>
<path class="bond-18 atom-20 atom-21" d="M 221.1,229.8 L 213.3,229.9" style="fill:none;fill-rule:evenodd;stroke:#000000;stroke-width:1.0px;stroke-linecap:butt;stroke-linejoin:miter;stroke-opacity:1"/>
<path class="bond-18 atom-20 atom-21" d="M 221.5,233.2 L 213.0,233.3" style="fill:none;fill-rule:evenodd;stroke:#000000;stroke-width:1.0px;stroke-linecap:butt;stroke-linejoin:miter;stroke-opacity:1"/>
<path class="bond-18 atom-20 atom-21" d="M 221.9,236.6 L 212.7,236.8" style="fill:none;fill-rule:evenodd;stroke:#000000;stroke-width:1.0px;stroke-linecap:butt;stroke-linejoin:miter;stroke-opacity:1"/>
<path class="bond-18 atom-20 atom-21" d="M 222.3,240.1 L 212.5,240.2" style="fill:none;fill-rule:evenodd;stroke:#000000;stroke-width:1.0px;stroke-linecap:butt;stroke-linejoin:miter;stroke-opacity:1"/>
<path class="bond-18 atom-20 atom-21" d="M 222.7,243.5 L 212.2,243.7" style="fill:none;fill-rule:evenodd;stroke:#000000;stroke-width:1.0px;stroke-linecap:butt;stroke-linejoin:miter;stroke-opacity:1"/>
<path class="bond-19 atom-20 atom-22" d="M 216.5,188.5 L 155.6,154.7" style="fill:none;fill-rule:evenodd;stroke:#000000;stroke-width:2.0px;stroke-linecap:butt;stroke-linejoin:miter;stroke-opacity:1"/>
<path class="bond-20 atom-22 atom-23" d="M 155.2,151.3 L 155.9,151.3" style="fill:none;fill-rule:evenodd;stroke:#000000;stroke-width:1.0px;stroke-linecap:butt;stroke-linejoin:miter;stroke-opacity:1"/>
<path class="bond-20 atom-22 atom-23" d="M 154.8,147.9 L 156.1,147.9" style="fill:none;fill-rule:evenodd;stroke:#000000;stroke-width:1.0px;stroke-linecap:butt;stroke-linejoin:miter;stroke-opacity:1"/>
<path class="bond-20 atom-22 atom-23" d="M 154.5,144.5 L 156.4,144.5" style="fill:none;fill-rule:evenodd;stroke:#000000;stroke-width:1.0px;stroke-linecap:butt;stroke-linejoin:miter;stroke-opacity:1"/>
<path class="bond-20 atom-22 atom-23" d="M 154.1,141.1 L 156.7,141.0" style="fill:none;fill-rule:evenodd;stroke:#000000;stroke-width:1.0px;stroke-linecap:butt;stroke-linejoin:miter;stroke-opacity:1"/>
<path class="bond-20 atom-22 atom-23" d="M 153.7,137.7 L 156.9,137.6" style="fill:none;fill-rule:evenodd;stroke:#000000;stroke-width:1.0px;stroke-linecap:butt;stroke-linejoin:miter;stroke-opacity:1"/>
<path class="bond-20 atom-22 atom-23" d="M 153.3,134.2 L 157.2,134.2" style="fill:none;fill-rule:evenodd;stroke:#000000;stroke-width:1.0px;stroke-linecap:butt;stroke-linejoin:miter;stroke-opacity:1"/>
<path class="bond-20 atom-22 atom-23" d="M 152.9,130.8 L 157.5,130.7" style="fill:none;fill-rule:evenodd;stroke:#000000;stroke-width:1.0px;stroke-linecap:butt;stroke-linejoin:miter;stroke-opacity:1"/>
<path class="bond-20 atom-22 atom-23" d="M 152.5,127.4 L 157.8,127.3" style="fill:none;fill-rule:evenodd;stroke:#000000;stroke-width:1.0px;stroke-linecap:butt;stroke-linejoin:miter;stroke-opacity:1"/>
<path class="bond-20 atom-22 atom-23" d="M 152.1,124.0 L 158.0,123.9" style="fill:none;fill-rule:evenodd;stroke:#000000;stroke-width:1.0px;stroke-linecap:butt;stroke-linejoin:miter;stroke-opacity:1"/>
<path class="bond-20 atom-22 atom-23" d="M 151.8,120.6 L 158.3,120.5" style="fill:none;fill-rule:evenodd;stroke:#000000;stroke-width:1.0px;stroke-linecap:butt;stroke-linejoin:miter;stroke-opacity:1"/>
<path class="bond-20 atom-22 atom-23" d="M 151.4,117.2 L 158.6,117.0" style="fill:none;fill-rule:evenodd;stroke:#000000;stroke-width:1.0px;stroke-linecap:butt;stroke-linejoin:miter;stroke-opacity:1"/>
<path class="bond-20 atom-22 atom-23" d="M 151.0,113.7 L 158.8,113.6" style="fill:none;fill-rule:evenodd;stroke:#000000;stroke-width:1.0px;stroke-linecap:butt;stroke-linejoin:miter;stroke-opacity:1"/>
<path class="bond-20 atom-22 atom-23" d="M 150.6,110.3 L 159.1,110.2" style="fill:none;fill-rule:evenodd;stroke:#000000;stroke-width:1.0px;stroke-linecap:butt;stroke-linejoin:miter;stroke-opacity:1"/>
<path class="bond-20 atom-22 atom-23" d="M 150.2,106.9 L 159.4,106.8" style="fill:none;fill-rule:evenodd;stroke:#000000;stroke-width:1.0px;stroke-linecap:butt;stroke-linejoin:miter;stroke-opacity:1"/>
<path class="bond-20 atom-22 atom-23" d="M 149.8,103.5 L 159.6,103.3" style="fill:none;fill-rule:evenodd;stroke:#000000;stroke-width:1.0px;stroke-linecap:butt;stroke-linejoin:miter;stroke-opacity:1"/>
<path class="bond-20 atom-22 atom-23" d="M 149.5,100.1 L 159.9,99.9" style="fill:none;fill-rule:evenodd;stroke:#000000;stroke-width:1.0px;stroke-linecap:butt;stroke-linejoin:miter;stroke-opacity:1"/>
<path class="bond-21 atom-22 atom-24" d="M 155.6,154.7 L 95.9,190.6" style="fill:none;fill-rule:evenodd;stroke:#000000;stroke-width:2.0px;stroke-linecap:butt;stroke-linejoin:miter;stroke-opacity:1"/>
<path class="bond-22 atom-24 atom-25" d="M 95.9,190.6 L 46.4,163.1" style="fill:none;fill-rule:evenodd;stroke:#000000;stroke-width:2.0px;stroke-linecap:butt;stroke-linejoin:miter;stroke-opacity:1"/>
<path class="bond-23 atom-24 atom-26" d="M 90.6,187.6 L 91.6,248.0" style="fill:none;fill-rule:evenodd;stroke:#000000;stroke-width:2.0px;stroke-linecap:butt;stroke-linejoin:miter;stroke-opacity:1"/>
<path class="bond-23 atom-24 atom-26" d="M 101.1,187.5 L 102.1,247.8" style="fill:none;fill-rule:evenodd;stroke:#000000;stroke-width:2.0px;stroke-linecap:butt;stroke-linejoin:miter;stroke-opacity:1"/>
<path d="M 399.3,375.6 L 396.8,374.2 L 393.8,376.0" style="fill:none;stroke:#000000;stroke-width:2.0px;stroke-linecap:butt;stroke-linejoin:miter;stroke-miterlimit:10;stroke-opacity:1;"/>
<path d="M 340.1,408.3 L 337.1,410.0 L 334.1,408.4" style="fill:none;stroke:#000000;stroke-width:2.0px;stroke-linecap:butt;stroke-linejoin:miter;stroke-miterlimit:10;stroke-opacity:1;"/>
<path d="M 279.2,377.9 L 276.2,376.3 L 273.2,378.0" style="fill:none;stroke:#000000;stroke-width:2.0px;stroke-linecap:butt;stroke-linejoin:miter;stroke-miterlimit:10;stroke-opacity:1;"/>
<path d="M 219.5,410.3 L 216.5,412.1 L 213.5,410.4" style="fill:none;stroke:#000000;stroke-width:2.0px;stroke-linecap:butt;stroke-linejoin:miter;stroke-miterlimit:10;stroke-opacity:1;"/>
<path d="M 158.6,380.0 L 155.6,378.3 L 152.6,380.1" style="fill:none;stroke:#000000;stroke-width:2.0px;stroke-linecap:butt;stroke-linejoin:miter;stroke-miterlimit:10;stroke-opacity:1;"/>
<path d="M 98.9,412.4 L 95.9,414.1 L 93.4,412.8" style="fill:none;stroke:#000000;stroke-width:2.0px;stroke-linecap:butt;stroke-linejoin:miter;stroke-miterlimit:10;stroke-opacity:1;"/>
<path d="M 399.3,152.0 L 396.8,150.6 L 393.8,152.4" style="fill:none;stroke:#000000;stroke-width:2.0px;stroke-linecap:butt;stroke-linejoin:miter;stroke-miterlimit:10;stroke-opacity:1;"/>
<path d="M 340.1,184.7 L 337.1,186.5 L 334.1,184.8" style="fill:none;stroke:#000000;stroke-width:2.0px;stroke-linecap:butt;stroke-linejoin:miter;stroke-miterlimit:10;stroke-opacity:1;"/>
<path d="M 279.2,154.4 L 276.2,152.7 L 273.2,154.5" style="fill:none;stroke:#000000;stroke-width:2.0px;stroke-linecap:butt;stroke-linejoin:miter;stroke-miterlimit:10;stroke-opacity:1;"/>
<path d="M 219.5,186.7 L 216.5,188.5 L 213.5,186.8" style="fill:none;stroke:#000000;stroke-width:2.0px;stroke-linecap:butt;stroke-linejoin:miter;stroke-miterlimit:10;stroke-opacity:1;"/>
<path d="M 158.6,156.4 L 155.6,154.7 L 152.6,156.5" style="fill:none;stroke:#000000;stroke-width:2.0px;stroke-linecap:butt;stroke-linejoin:miter;stroke-miterlimit:10;stroke-opacity:1;"/>
<path d="M 98.9,188.8 L 95.9,190.6 L 93.4,189.2" style="fill:none;stroke:#000000;stroke-width:2.0px;stroke-linecap:butt;stroke-linejoin:miter;stroke-miterlimit:10;stroke-opacity:1;"/>
<path class="atom-0" d="M 228.2 44.4 L 238.2 29.0 L 228.6 29.0 L 228.6 26.8 L 241.5 26.8 L 241.5 28.8 L 231.5 44.2 L 241.4 44.2 L 241.4 46.5 L 228.2 46.5 L 228.2 44.4 " fill="#000000"/>
<path class="atom-0" d="M 251.5 31.9 Q 253.8 31.9, 254.9 33.2 Q 256.2 34.5, 256.2 37.0 L 256.2 46.5 L 253.6 46.5 L 253.6 37.2 Q 253.6 35.5, 252.9 34.8 Q 252.2 34.0, 250.8 34.0 Q 249.5 34.0, 248.4 34.6 Q 247.3 35.2, 246.6 36.2 L 246.6 46.5 L 244.0 46.5 L 244.0 32.2 L 246.1 32.2 L 246.5 34.2 Q 248.4 31.9, 251.5 31.9 " fill="#000000"/>
<path class="atom-0" d="M 259.7 28.7 Q 260.1 27.4, 261.3 26.7 Q 262.4 26.0, 264.0 26.0 Q 266.0 26.0, 267.1 27.1 Q 268.2 28.2, 268.2 30.1 Q 268.2 32.0, 266.7 33.8 Q 265.3 35.6, 262.4 37.7 L 268.4 37.7 L 268.4 39.2 L 259.6 39.2 L 259.6 38.0 Q 262.0 36.3, 263.5 35.0 Q 264.9 33.7, 265.6 32.5 Q 266.3 31.4, 266.3 30.2 Q 266.3 28.9, 265.7 28.2 Q 265.1 27.5, 264.0 27.5 Q 262.9 27.5, 262.2 27.9 Q 261.5 28.4, 261.0 29.3 L 259.7 28.7 " fill="#000000"/>
<path class="atom-0" d="M 270.8 32.9 L 274.3 32.9 L 274.3 29.2 L 275.8 29.2 L 275.8 32.9 L 279.4 32.9 L 279.4 34.2 L 275.8 34.2 L 275.8 37.9 L 274.3 37.9 L 274.3 34.2 L 270.8 34.2 L 270.8 32.9 " fill="#000000"/>
<path class="atom-1" d="M 448.6 408.1 Q 448.6 403.3, 451.0 400.7 Q 453.3 398.0, 457.7 398.0 Q 462.1 398.0, 464.4 400.7 Q 466.7 403.3, 466.7 408.1 Q 466.7 412.8, 464.4 415.6 Q 462.0 418.3, 457.7 418.3 Q 453.3 418.3, 451.0 415.6 Q 448.6 412.9, 448.6 408.1 M 457.7 416.1 Q 460.7 416.1, 462.3 414.0 Q 464.0 412.0, 464.0 408.1 Q 464.0 404.2, 462.3 402.2 Q 460.7 400.3, 457.7 400.3 Q 454.7 400.3, 453.0 402.2 Q 451.4 404.2, 451.4 408.1 Q 451.4 412.0, 453.0 414.0 Q 454.7 416.1, 457.7 416.1 " fill="#000000"/>
<path class="atom-1" d="M 469.8 398.3 L 472.5 398.3 L 472.5 406.6 L 482.6 406.6 L 482.6 398.3 L 485.2 398.3 L 485.2 418.0 L 482.6 418.0 L 482.6 408.9 L 472.5 408.9 L 472.5 418.0 L 469.8 418.0 L 469.8 398.3 " fill="#000000"/>
<path class="atom-4" d="M 329.2 479.7 Q 329.2 475.0, 331.6 472.4 Q 333.9 469.7, 338.3 469.7 Q 342.6 469.7, 345.0 472.4 Q 347.3 475.0, 347.3 479.7 Q 347.3 484.5, 345.0 487.3 Q 342.6 490.0, 338.3 490.0 Q 333.9 490.0, 331.6 487.3 Q 329.2 484.6, 329.2 479.7 M 338.3 487.7 Q 341.3 487.7, 342.9 485.7 Q 344.5 483.7, 344.5 479.7 Q 344.5 475.9, 342.9 473.9 Q 341.3 471.9, 338.3 471.9 Q 335.3 471.9, 333.6 473.9 Q 332.0 475.8, 332.0 479.7 Q 332.0 483.7, 333.6 485.7 Q 335.3 487.7, 338.3 487.7 " fill="#000000"/>
<path class="atom-4" d="M 350.4 469.9 L 353.1 469.9 L 353.1 478.3 L 363.2 478.3 L 363.2 469.9 L 365.8 469.9 L 365.8 489.6 L 363.2 489.6 L 363.2 480.5 L 353.1 480.5 L 353.1 489.6 L 350.4 489.6 L 350.4 469.9 " fill="#000000"/>
<path class="atom-6" d="M 266.0 306.7 Q 266.0 301.9, 268.3 299.3 Q 270.6 296.7, 275.0 296.7 Q 279.4 296.7, 281.7 299.3 Q 284.1 301.9, 284.1 306.7 Q 284.1 311.5, 281.7 314.2 Q 279.3 316.9, 275.0 316.9 Q 270.7 316.9, 268.3 314.2 Q 266.0 311.5, 266.0 306.7 M 275.0 314.7 Q 278.0 314.7, 279.6 312.7 Q 281.3 310.6, 281.3 306.7 Q 281.3 302.8, 279.6 300.9 Q 278.0 298.9, 275.0 298.9 Q 272.0 298.9, 270.4 300.8 Q 268.8 302.8, 268.8 306.7 Q 268.8 310.7, 270.4 312.7 Q 272.0 314.7, 275.0 314.7 " fill="#000000"/>
<path class="atom-6" d="M 287.1 296.9 L 289.8 296.9 L 289.8 305.3 L 299.9 305.3 L 299.9 296.9 L 302.6 296.9 L 302.6 316.6 L 299.9 316.6 L 299.9 307.5 L 289.8 307.5 L 289.8 316.6 L 287.1 316.6 L 287.1 296.9 " fill="#000000"/>
<path class="atom-8" d="M 208.6 481.8 Q 208.6 477.0, 211.0 474.4 Q 213.3 471.8, 217.7 471.8 Q 222.1 471.8, 224.4 474.4 Q 226.7 477.0, 226.7 481.8 Q 226.7 486.6, 224.4 489.3 Q 222.0 492.0, 217.7 492.0 Q 213.3 492.0, 211.0 489.3 Q 208.6 486.6, 208.6 481.8 M 217.7 489.8 Q 220.7 489.8, 222.3 487.8 Q 223.9 485.7, 223.9 481.8 Q 223.9 477.9, 222.3 476.0 Q 220.7 474.0, 217.7 474.0 Q 214.7 474.0, 213.0 475.9 Q 211.4 477.9, 211.4 481.8 Q 211.4 485.8, 213.0 487.8 Q 214.7 489.8, 217.7 489.8 " fill="#000000"/>
<path class="atom-8" d="M 229.8 472.0 L 232.5 472.0 L 232.5 480.4 L 242.6 480.4 L 242.6 472.0 L 245.2 472.0 L 245.2 491.7 L 242.6 491.7 L 242.6 482.6 L 232.5 482.6 L 232.5 491.7 L 229.8 491.7 L 229.8 472.0 " fill="#000000"/>
<path class="atom-10" d="M 145.4 308.7 Q 145.4 304.0, 147.7 301.4 Q 150.0 298.7, 154.4 298.7 Q 158.8 298.7, 161.1 301.4 Q 163.5 304.0, 163.5 308.7 Q 163.5 313.5, 161.1 316.3 Q 158.7 319.0, 154.4 319.0 Q 150.1 319.0, 147.7 316.3 Q 145.4 313.6, 145.4 308.7 M 154.4 316.7 Q 157.4 316.7, 159.0 314.7 Q 160.7 312.7, 160.7 308.7 Q 160.7 304.9, 159.0 302.9 Q 157.4 300.9, 154.4 300.9 Q 151.4 300.9, 149.8 302.9 Q 148.2 304.8, 148.2 308.7 Q 148.2 312.7, 149.8 314.7 Q 151.4 316.7, 154.4 316.7 " fill="#000000"/>
<path class="atom-10" d="M 166.5 298.9 L 169.2 298.9 L 169.2 307.3 L 179.3 307.3 L 179.3 298.9 L 182.0 298.9 L 182.0 318.6 L 179.3 318.6 L 179.3 309.5 L 169.2 309.5 L 169.2 318.6 L 166.5 318.6 L 166.5 298.9 " fill="#000000"/>
<path class="atom-12" d="M 26.0 380.4 Q 26.0 375.7, 28.3 373.0 Q 30.6 370.4, 35.0 370.4 Q 39.4 370.4, 41.7 373.0 Q 44.1 375.7, 44.1 380.4 Q 44.1 385.2, 41.7 387.9 Q 39.3 390.6, 35.0 390.6 Q 30.7 390.6, 28.3 387.9 Q 26.0 385.2, 26.0 380.4 M 35.0 388.4 Q 38.0 388.4, 39.6 386.4 Q 41.3 384.4, 41.3 380.4 Q 41.3 376.5, 39.6 374.6 Q 38.0 372.6, 35.0 372.6 Q 32.0 372.6, 30.4 374.6 Q 28.7 376.5, 28.7 380.4 Q 28.7 384.4, 30.4 386.4 Q 32.0 388.4, 35.0 388.4 " fill="#000000"/>
<path class="atom-12" d="M 46.9 373.6 L 53.6 373.6 L 53.6 375.1 L 46.9 375.1 L 46.9 373.6 " fill="#000000"/>
<path class="atom-13" d="M 88.0 483.8 Q 88.0 479.1, 90.4 476.4 Q 92.7 473.8, 97.1 473.8 Q 101.5 473.8, 103.8 476.4 Q 106.1 479.1, 106.1 483.8 Q 106.1 488.6, 103.8 491.3 Q 101.4 494.1, 97.1 494.1 Q 92.7 494.1, 90.4 491.3 Q 88.0 488.6, 88.0 483.8 M 97.1 491.8 Q 100.1 491.8, 101.7 489.8 Q 103.3 487.8, 103.3 483.8 Q 103.3 480.0, 101.7 478.0 Q 100.1 476.0, 97.1 476.0 Q 94.1 476.0, 92.4 478.0 Q 90.8 479.9, 90.8 483.8 Q 90.8 487.8, 92.4 489.8 Q 94.1 491.8, 97.1 491.8 " fill="#000000"/>
<path class="atom-14" d="M 448.6 184.5 Q 448.6 179.8, 451.0 177.1 Q 453.3 174.5, 457.7 174.5 Q 462.1 174.5, 464.4 177.1 Q 466.7 179.8, 466.7 184.5 Q 466.7 189.3, 464.4 192.0 Q 462.0 194.7, 457.7 194.7 Q 453.3 194.7, 451.0 192.0 Q 448.6 189.3, 448.6 184.5 M 457.7 192.5 Q 460.7 192.5, 462.3 190.5 Q 464.0 188.4, 464.0 184.5 Q 464.0 180.6, 462.3 178.7 Q 460.7 176.7, 457.7 176.7 Q 454.7 176.7, 453.0 178.6 Q 451.4 180.6, 451.4 184.5 Q 451.4 188.5, 453.0 190.5 Q 454.7 192.5, 457.7 192.5 " fill="#000000"/>
<path class="atom-14" d="M 469.8 174.7 L 472.5 174.7 L 472.5 183.1 L 482.6 183.1 L 482.6 174.7 L 485.2 174.7 L 485.2 194.4 L 482.6 194.4 L 482.6 185.3 L 472.5 185.3 L 472.5 194.4 L 469.8 194.4 L 469.8 174.7 " fill="#000000"/>
<path class="atom-17" d="M 329.2 256.2 Q 329.2 251.4, 331.6 248.8 Q 333.9 246.1, 338.3 246.1 Q 342.6 246.1, 345.0 248.8 Q 347.3 251.4, 347.3 256.2 Q 347.3 261.0, 345.0 263.7 Q 342.6 266.4, 338.3 266.4 Q 333.9 266.4, 331.6 263.7 Q 329.2 261.0, 329.2 256.2 M 338.3 264.2 Q 341.3 264.2, 342.9 262.2 Q 344.5 260.1, 344.5 256.2 Q 344.5 252.3, 342.9 250.3 Q 341.3 248.4, 338.3 248.4 Q 335.3 248.4, 333.6 250.3 Q 332.0 252.3, 332.0 256.2 Q 332.0 260.1, 333.6 262.2 Q 335.3 264.2, 338.3 264.2 " fill="#000000"/>
<path class="atom-17" d="M 350.4 246.4 L 353.1 246.4 L 353.1 254.7 L 363.2 254.7 L 363.2 246.4 L 365.8 246.4 L 365.8 266.1 L 363.2 266.1 L 363.2 257.0 L 353.1 257.0 L 353.1 266.1 L 350.4 266.1 L 350.4 246.4 " fill="#000000"/>
<path class="atom-19" d="M 266.0 83.1 Q 266.0 78.4, 268.3 75.7 Q 270.6 73.1, 275.0 73.1 Q 279.4 73.1, 281.7 75.7 Q 284.1 78.4, 284.1 83.1 Q 284.1 87.9, 281.7 90.6 Q 279.3 93.3, 275.0 93.3 Q 270.7 93.3, 268.3 90.6 Q 266.0 87.9, 266.0 83.1 M 275.0 91.1 Q 278.0 91.1, 279.6 89.1 Q 281.3 87.1, 281.3 83.1 Q 281.3 79.2, 279.6 77.3 Q 278.0 75.3, 275.0 75.3 Q 272.0 75.3, 270.4 77.3 Q 268.8 79.2, 268.8 83.1 Q 268.8 87.1, 270.4 89.1 Q 272.0 91.1, 275.0 91.1 " fill="#000000"/>
<path class="atom-19" d="M 287.1 73.3 L 289.8 73.3 L 289.8 81.7 L 299.9 81.7 L 299.9 73.3 L 302.6 73.3 L 302.6 93.0 L 299.9 93.0 L 299.9 83.9 L 289.8 83.9 L 289.8 93.0 L 287.1 93.0 L 287.1 73.3 " fill="#000000"/>
<path class="atom-21" d="M 208.6 258.2 Q 208.6 253.5, 211.0 250.8 Q 213.3 248.2, 217.7 248.2 Q 222.1 248.2, 224.4 250.8 Q 226.7 253.5, 226.7 258.2 Q 226.7 263.0, 224.4 265.7 Q 222.0 268.4, 217.7 268.4 Q 213.3 268.4, 211.0 265.7 Q 208.6 263.0, 208.6 258.2 M 217.7 266.2 Q 220.7 266.2, 222.3 264.2 Q 223.9 262.2, 223.9 258.2 Q 223.9 254.3, 222.3 252.4 Q 220.7 250.4, 217.7 250.4 Q 214.7 250.4, 213.0 252.4 Q 211.4 254.3, 211.4 258.2 Q 211.4 262.2, 213.0 264.2 Q 214.7 266.2, 217.7 266.2 " fill="#000000"/>
<path class="atom-21" d="M 229.8 248.4 L 232.5 248.4 L 232.5 256.8 L 242.6 256.8 L 242.6 248.4 L 245.2 248.4 L 245.2 268.1 L 242.6 268.1 L 242.6 259.0 L 232.5 259.0 L 232.5 268.1 L 229.8 268.1 L 229.8 248.4 " fill="#000000"/>
<path class="atom-23" d="M 145.4 85.2 Q 145.4 80.4, 147.7 77.8 Q 150.0 75.1, 154.4 75.1 Q 158.8 75.1, 161.1 77.8 Q 163.5 80.4, 163.5 85.2 Q 163.5 90.0, 161.1 92.7 Q 158.7 95.4, 154.4 95.4 Q 150.1 95.4, 147.7 92.7 Q 145.4 90.0, 145.4 85.2 M 154.4 93.2 Q 157.4 93.2, 159.0 91.2 Q 160.7 89.1, 160.7 85.2 Q 160.7 81.3, 159.0 79.3 Q 157.4 77.4, 154.4 77.4 Q 151.4 77.4, 149.8 79.3 Q 148.2 81.3, 148.2 85.2 Q 148.2 89.1, 149.8 91.2 Q 151.4 93.2, 154.4 93.2 " fill="#000000"/>
<path class="atom-23" d="M 166.5 75.4 L 169.2 75.4 L 169.2 83.7 L 179.3 83.7 L 179.3 75.4 L 182.0 75.4 L 182.0 95.1 L 179.3 95.1 L 179.3 86.0 L 169.2 86.0 L 169.2 95.1 L 166.5 95.1 L 166.5 75.4 " fill="#000000"/>
<path class="atom-25" d="M 26.0 156.8 Q 26.0 152.1, 28.3 149.5 Q 30.6 146.8, 35.0 146.8 Q 39.4 146.8, 41.7 149.5 Q 44.1 152.1, 44.1 156.8 Q 44.1 161.6, 41.7 164.4 Q 39.3 167.1, 35.0 167.1 Q 30.7 167.1, 28.3 164.4 Q 26.0 161.7, 26.0 156.8 M 35.0 164.8 Q 38.0 164.8, 39.6 162.8 Q 41.3 160.8, 41.3 156.8 Q 41.3 153.0, 39.6 151.0 Q 38.0 149.0, 35.0 149.0 Q 32.0 149.0, 30.4 151.0 Q 28.7 152.9, 28.7 156.8 Q 28.7 160.8, 30.4 162.8 Q 32.0 164.8, 35.0 164.8 " fill="#000000"/>
<path class="atom-25" d="M 46.9 150.0 L 53.6 150.0 L 53.6 151.5 L 46.9 151.5 L 46.9 150.0 " fill="#000000"/>
<path class="atom-26" d="M 88.0 260.3 Q 88.0 255.5, 90.4 252.9 Q 92.7 250.2, 97.1 250.2 Q 101.5 250.2, 103.8 252.9 Q 106.1 255.5, 106.1 260.3 Q 106.1 265.1, 103.8 267.8 Q 101.4 270.5, 97.1 270.5 Q 92.7 270.5, 90.4 267.8 Q 88.0 265.1, 88.0 260.3 M 97.1 268.3 Q 100.1 268.3, 101.7 266.2 Q 103.3 264.2, 103.3 260.3 Q 103.3 256.4, 101.7 254.4 Q 100.1 252.5, 97.1 252.5 Q 94.1 252.5, 92.4 254.4 Q 90.8 256.4, 90.8 260.3 Q 90.8 264.2, 92.4 266.2 Q 94.1 268.3, 97.1 268.3 " fill="#000000"/>
</svg>