<?xml version='1.0' encoding='utf-8'?>
<svg xmlns="http://www.w3.org/2000/svg" xmlns:rdkit="http://www.rdkit.org/xml" xmlns:xlink="http://www.w3.org/1999/xlink" version="1.1" baseProfile="full" xml:space="preserve" width="512px" height="177px" viewBox="0 0 512 177">

<rect style="opacity:1.0;fill:#FFFFFF;stroke:none" width="512.0" height="177.0" x="0.0" y="0.0"> </rect>
<path class="bond-0 atom-0 atom-1" d="M 26.0,59.6 L 84.9,84.9" style="fill:none;fill-rule:evenodd;stroke:#000000;stroke-width:2.0px;stroke-linecap:butt;stroke-linejoin:miter;stroke-opacity:1"/>
<path class="bond-1 atom-1 atom-2" d="M 83.2,100.1 L 65.4,141.7" style="fill:none;fill-rule:evenodd;stroke:#000000;stroke-width:2.0px;stroke-linecap:butt;stroke-linejoin:miter;stroke-opacity:1"/>
<path class="bond-1 atom-1 atom-2" d="M 93.4,104.5 L 75.6,146.0" style="fill:none;fill-rule:evenodd;stroke:#000000;stroke-width:2.0px;stroke-linecap:butt;stroke-linejoin:miter;stroke-opacity:1"/>
<path class="bond-2 atom-1 atom-3" d="M 104.7,78.1 L 122.7,36.3" style="fill:none;fill-rule:evenodd;stroke:#000000;stroke-width:2.0px;stroke-linecap:butt;stroke-linejoin:miter;stroke-opacity:1"/>
<path class="bond-2 atom-1 atom-3" d="M 94.5,73.7 L 112.4,31.9" style="fill:none;fill-rule:evenodd;stroke:#000000;stroke-width:2.0px;stroke-linecap:butt;stroke-linejoin:miter;stroke-opacity:1"/>
<path class="bond-3 atom-1 atom-4" d="M 103.3,92.7 L 150.1,112.8" style="fill:none;fill-rule:evenodd;stroke:#000000;stroke-width:2.0px;stroke-linecap:butt;stroke-linejoin:miter;stroke-opacity:1"/>
<path class="bond-4 atom-4 atom-5" d="M 174.3,108.9 L 221.5,73.6" style="fill:none;fill-rule:evenodd;stroke:#000000;stroke-width:2.0px;stroke-linecap:butt;stroke-linejoin:miter;stroke-opacity:1"/>
<path class="bond-5 atom-5 atom-6" d="M 221.5,73.6 L 289.7,102.8" style="fill:none;fill-rule:evenodd;stroke:#000000;stroke-width:2.0px;stroke-linecap:butt;stroke-linejoin:miter;stroke-opacity:1"/>
<path class="bond-6 atom-6 atom-7" d="M 289.7,102.8 L 336.9,67.4" style="fill:none;fill-rule:evenodd;stroke:#000000;stroke-width:2.0px;stroke-linecap:butt;stroke-linejoin:miter;stroke-opacity:1"/>
<path class="bond-7 atom-7 atom-8" d="M 361.1,63.6 L 407.9,83.6" style="fill:none;fill-rule:evenodd;stroke:#000000;stroke-width:2.0px;stroke-linecap:butt;stroke-linejoin:miter;stroke-opacity:1"/>
<path class="bond-8 atom-8 atom-9" d="M 406.2,98.9 L 388.4,140.4" style="fill:none;fill-rule:evenodd;stroke:#000000;stroke-width:2.0px;stroke-linecap:butt;stroke-linejoin:miter;stroke-opacity:1"/>
<path class="bond-8 atom-8 atom-9" d="M 416.4,103.2 L 398.6,144.8" style="fill:none;fill-rule:evenodd;stroke:#000000;stroke-width:2.0px;stroke-linecap:butt;stroke-linejoin:miter;stroke-opacity:1"/>
<path class="bond-9 atom-8 atom-10" d="M 427.7,76.9 L 445.7,35.0" style="fill:none;fill-rule:evenodd;stroke:#000000;stroke-width:2.0px;stroke-linecap:butt;stroke-linejoin:miter;stroke-opacity:1"/>
<path class="bond-9 atom-8 atom-10" d="M 417.5,72.5 L 435.4,30.7" style="fill:none;fill-rule:evenodd;stroke:#000000;stroke-width:2.0px;stroke-linecap:butt;stroke-linejoin:miter;stroke-opacity:1"/>
<path class="bond-10 atom-8 atom-11" d="M 426.3,91.5 L 485.2,116.8" style="fill:none;fill-rule:evenodd;stroke:#000000;stroke-width:2.0px;stroke-linecap:butt;stroke-linejoin:miter;stroke-opacity:1"/>
<path d="M 219.2,75.4 L 221.5,73.6 L 225.0,75.1" style="fill:none;stroke:#000000;stroke-width:2.0px;stroke-linecap:butt;stroke-linejoin:miter;stroke-miterlimit:10;stroke-opacity:1;"/>
<path d="M 286.2,101.3 L 289.7,102.8 L 292.0,101.0" style="fill:none;stroke:#000000;stroke-width:2.0px;stroke-linecap:butt;stroke-linejoin:miter;stroke-miterlimit:10;stroke-opacity:1;"/>
<path class="atom-1" d="M 88.2 96.0 Q 88.4 96.1, 89.4 96.5 Q 90.4 96.9, 91.4 97.2 Q 92.5 97.4, 93.6 97.4 Q 95.6 97.4, 96.7 96.5 Q 97.9 95.5, 97.9 93.8 Q 97.9 92.7, 97.3 91.9 Q 96.7 91.2, 95.9 90.8 Q 95.0 90.5, 93.5 90.0 Q 91.6 89.5, 90.5 88.9 Q 89.4 88.4, 88.6 87.3 Q 87.8 86.1, 87.8 84.2 Q 87.8 81.6, 89.6 80.0 Q 91.4 78.3, 95.0 78.3 Q 97.4 78.3, 100.2 79.5 L 99.5 81.8 Q 96.9 80.7, 95.1 80.7 Q 93.0 80.7, 91.9 81.6 Q 90.8 82.4, 90.8 83.9 Q 90.8 85.0, 91.3 85.7 Q 91.9 86.4, 92.8 86.8 Q 93.6 87.1, 95.1 87.6 Q 96.9 88.2, 98.1 88.8 Q 99.2 89.4, 100.0 90.6 Q 100.8 91.8, 100.8 93.8 Q 100.8 96.7, 98.9 98.3 Q 96.9 99.8, 93.7 99.8 Q 91.9 99.8, 90.4 99.4 Q 89.0 99.0, 87.4 98.3 L 88.2 96.0 " fill="#000000"/>
<path class="atom-2" d="M 55.3 157.0 Q 55.3 151.9, 57.8 149.1 Q 60.3 146.3, 64.9 146.3 Q 69.6 146.3, 72.1 149.1 Q 74.6 151.9, 74.6 157.0 Q 74.6 162.1, 72.0 165.0 Q 69.5 167.8, 64.9 167.8 Q 60.3 167.8, 57.8 165.0 Q 55.3 162.1, 55.3 157.0 M 64.9 165.5 Q 68.1 165.5, 69.8 163.3 Q 71.6 161.2, 71.6 157.0 Q 71.6 152.9, 69.8 150.8 Q 68.1 148.7, 64.9 148.7 Q 61.7 148.7, 60.0 150.7 Q 58.3 152.8, 58.3 157.0 Q 58.3 161.2, 60.0 163.3 Q 61.7 165.5, 64.9 165.5 " fill="#000000"/>
<path class="atom-3" d="M 113.7 20.8 Q 113.7 15.7, 116.1 12.9 Q 118.6 10.1, 123.3 10.1 Q 127.9 10.1, 130.4 12.9 Q 132.9 15.7, 132.9 20.8 Q 132.9 25.8, 130.4 28.8 Q 127.9 31.6, 123.3 31.6 Q 118.7 31.6, 116.1 28.8 Q 113.7 25.9, 113.7 20.8 M 123.3 29.3 Q 126.5 29.3, 128.2 27.1 Q 130.0 25.0, 130.0 20.8 Q 130.0 16.6, 128.2 14.6 Q 126.5 12.5, 123.3 12.5 Q 120.1 12.5, 118.3 14.5 Q 116.6 16.6, 116.6 20.8 Q 116.6 25.0, 118.3 27.1 Q 120.1 29.3, 123.3 29.3 " fill="#000000"/>
<path class="atom-4" d="M 152.6 118.0 Q 152.6 113.0, 155.1 110.2 Q 157.6 107.4, 162.2 107.4 Q 166.9 107.4, 169.4 110.2 Q 171.8 113.0, 171.8 118.0 Q 171.8 123.1, 169.3 126.0 Q 166.8 128.9, 162.2 128.9 Q 157.6 128.9, 155.1 126.0 Q 152.6 123.2, 152.6 118.0 M 162.2 126.6 Q 165.4 126.6, 167.1 124.4 Q 168.9 122.3, 168.9 118.0 Q 168.9 113.9, 167.1 111.9 Q 165.4 109.7, 162.2 109.7 Q 159.0 109.7, 157.3 111.8 Q 155.5 113.9, 155.5 118.0 Q 155.5 122.3, 157.3 124.4 Q 159.0 126.6, 162.2 126.6 " fill="#000000"/>
<path class="atom-7" d="M 339.4 58.4 Q 339.4 53.4, 341.8 50.6 Q 344.3 47.8, 349.0 47.8 Q 353.6 47.8, 356.1 50.6 Q 358.6 53.4, 358.6 58.4 Q 358.6 63.5, 356.1 66.4 Q 353.6 69.3, 349.0 69.3 Q 344.4 69.3, 341.8 66.4 Q 339.4 63.6, 339.4 58.4 M 349.0 67.0 Q 352.2 67.0, 353.9 64.8 Q 355.7 62.7, 355.7 58.4 Q 355.7 54.3, 353.9 52.3 Q 352.2 50.1, 349.0 50.1 Q 345.8 50.1, 344.0 52.2 Q 342.3 54.3, 342.3 58.4 Q 342.3 62.7, 344.0 64.8 Q 345.8 67.0, 349.0 67.0 " fill="#000000"/>
<path class="atom-8" d="M 411.2 94.8 Q 411.4 94.9, 412.4 95.3 Q 413.4 95.7, 414.4 96.0 Q 415.5 96.2, 416.6 96.2 Q 418.6 96.2, 419.7 95.2 Q 420.9 94.3, 420.9 92.6 Q 420.9 91.4, 420.3 90.7 Q 419.7 90.0, 418.8 89.6 Q 418.0 89.2, 416.5 88.8 Q 414.6 88.2, 413.5 87.7 Q 412.4 87.2, 411.6 86.0 Q 410.8 84.9, 410.8 83.0 Q 410.8 80.4, 412.6 78.7 Q 414.4 77.1, 418.0 77.1 Q 420.4 77.1, 423.1 78.3 L 422.5 80.5 Q 419.9 79.5, 418.0 79.5 Q 416.0 79.5, 414.9 80.4 Q 413.7 81.2, 413.8 82.7 Q 413.8 83.8, 414.3 84.5 Q 414.9 85.1, 415.8 85.5 Q 416.6 85.9, 418.0 86.4 Q 419.9 86.9, 421.1 87.5 Q 422.2 88.1, 423.0 89.3 Q 423.8 90.5, 423.8 92.6 Q 423.8 95.5, 421.9 97.1 Q 419.9 98.6, 416.7 98.6 Q 414.8 98.6, 413.4 98.2 Q 412.0 97.8, 410.4 97.1 L 411.2 94.8 " fill="#000000"/>
<path class="atom-9" d="M 378.3 155.7 Q 378.3 150.7, 380.8 147.9 Q 383.3 145.1, 387.9 145.1 Q 392.6 145.1, 395.1 147.9 Q 397.5 150.7, 397.5 155.7 Q 397.5 160.8, 395.0 163.7 Q 392.5 166.6, 387.9 166.6 Q 383.3 166.6, 380.8 163.7 Q 378.3 160.9, 378.3 155.7 M 387.9 164.2 Q 391.1 164.2, 392.8 162.1 Q 394.6 160.0, 394.6 155.7 Q 394.6 151.6, 392.8 149.5 Q 391.1 147.4, 387.9 147.4 Q 384.7 147.4, 383.0 149.5 Q 381.2 151.6, 381.2 155.7 Q 381.2 160.0, 383.0 162.1 Q 384.7 164.2, 387.9 164.2 " fill="#000000"/>
<path class="atom-10" d="M 436.6 19.5 Q 436.6 14.5, 439.1 11.7 Q 441.6 8.9, 446.3 8.9 Q 450.9 8.9, 453.4 11.7 Q 455.9 14.5, 455.9 19.5 Q 455.9 24.6, 453.4 27.5 Q 450.9 30.4, 446.3 30.4 Q 441.7 30.4, 439.1 27.5 Q 436.6 24.6, 436.6 19.5 M 446.3 28.0 Q 449.5 28.0, 451.2 25.9 Q 452.9 23.7, 452.9 19.5 Q 452.9 15.4, 451.2 13.3 Q 449.5 11.2, 446.3 11.2 Q 443.1 11.2, 441.3 13.3 Q 439.6 15.4, 439.6 19.5 Q 439.6 23.8, 441.3 25.9 Q 443.1 28.0, 446.3 28.0 " fill="#000000"/>
</svg>