<?xml version='1.0' encoding='utf-8'?>
<svg xmlns="http://www.w3.org/2000/svg" xmlns:rdkit="http://www.rdkit.org/xml" xmlns:xlink="http://www.w3.org/1999/xlink" version="1.1" baseProfile="full" xml:space="preserve" width="512px" height="74px" viewBox="0 0 512 74">

<rect style="opacity:1.0;fill:#FFFFFF;stroke:none" width="512.0" height="74.0" x="0.0" y="0.0"> </rect>
<path class="bond-0 atom-0 atom-1" d="M 135.6,19.7 L 342.1,19.7" style="fill:none;fill-rule:evenodd;stroke:#000000;stroke-width:2.0px;stroke-linecap:butt;stroke-linejoin:miter;stroke-opacity:1"/>
<path class="bond-0 atom-0 atom-1" d="M 135.6,53.7 L 342.1,53.7" style="fill:none;fill-rule:evenodd;stroke:#000000;stroke-width:2.0px;stroke-linecap:butt;stroke-linejoin:miter;stroke-opacity:1"/>
<path class="atom-1" d="M 349.6 36.8 Q 349.6 30.0, 352.9 26.2 Q 356.3 22.4, 362.6 22.4 Q 368.9 22.4, 372.2 26.2 Q 375.6 30.0, 375.6 36.8 Q 375.6 43.7, 372.2 47.6 Q 368.8 51.5, 362.6 51.5 Q 356.3 51.5, 352.9 47.6 Q 349.6 43.7, 349.6 36.8 M 362.6 48.3 Q 366.9 48.3, 369.2 45.4 Q 371.6 42.5, 371.6 36.8 Q 371.6 31.2, 369.2 28.4 Q 366.9 25.6, 362.6 25.6 Q 358.3 25.6, 355.9 28.4 Q 353.6 31.2, 353.6 36.8 Q 353.6 42.5, 355.9 45.4 Q 358.3 48.3, 362.6 48.3 " fill="#000000"/>
</svg>