<?xml version='1.0' encoding='utf-8'?>
<svg xmlns="http://www.w3.org/2000/svg" xmlns:rdkit="http://www.rdkit.org/xml" xmlns:xlink="http://www.w3.org/1999/xlink" version="1.1" baseProfile="full" xml:space="preserve" width="512px" height="158px" viewBox="0 0 512 158">

<rect style="opacity:1.0;fill:#FFFFFF;stroke:none" width="512.0" height="158.0" x="0.0" y="0.0"> </rect>
<path class="bond-0 atom-1 atom-0" d="M 140.8,103.7 L 113.1,149.9 L 106.8,145.5 Z" style="fill:#000000;fill-rule:evenodd;fill-opacity:1;stroke:#000000;stroke-width:0.5px;stroke-linecap:butt;stroke-linejoin:miter;stroke-miterlimit:10;stroke-opacity:1;"/>
<path class="bond-1 atom-1 atom-2" d="M 140.8,103.7 L 168.5,149.8" style="fill:none;fill-rule:evenodd;stroke:#000000;stroke-width:2.0px;stroke-linecap:butt;stroke-linejoin:miter;stroke-opacity:1"/>
<path class="bond-2 atom-2 atom-3" d="M 168.5,149.8 L 222.2,148.9" style="fill:none;fill-rule:evenodd;stroke:#000000;stroke-width:2.0px;stroke-linecap:butt;stroke-linejoin:miter;stroke-opacity:1"/>
<path class="bond-3 atom-3 atom-4" d="M 222.2,148.9 L 248.3,101.9" style="fill:none;fill-rule:evenodd;stroke:#000000;stroke-width:2.0px;stroke-linecap:butt;stroke-linejoin:miter;stroke-opacity:1"/>
<path class="bond-4 atom-4 atom-5" d="M 248.3,101.9 L 220.6,55.8" style="fill:none;fill-rule:evenodd;stroke:#000000;stroke-width:2.0px;stroke-linecap:butt;stroke-linejoin:miter;stroke-opacity:1"/>
<path class="bond-5 atom-5 atom-6" d="M 220.6,55.8 L 166.9,56.7" style="fill:none;fill-rule:evenodd;stroke:#000000;stroke-width:2.0px;stroke-linecap:butt;stroke-linejoin:miter;stroke-opacity:1"/>
<path class="bond-6 atom-6 atom-7" d="M 166.9,56.7 L 130.3,17.4" style="fill:none;fill-rule:evenodd;stroke:#000000;stroke-width:2.0px;stroke-linecap:butt;stroke-linejoin:miter;stroke-opacity:1"/>
<path class="bond-7 atom-7 atom-8" d="M 130.3,17.4 L 81.6,40.0" style="fill:none;fill-rule:evenodd;stroke:#000000;stroke-width:2.0px;stroke-linecap:butt;stroke-linejoin:miter;stroke-opacity:1"/>
<path class="bond-8 atom-8 atom-9" d="M 81.6,40.0 L 88.1,93.4" style="fill:none;fill-rule:evenodd;stroke:#000000;stroke-width:2.0px;stroke-linecap:butt;stroke-linejoin:miter;stroke-opacity:1"/>
<path class="bond-9 atom-9 atom-10" d="M 88.1,93.4 L 61.8,123.2 L 56.5,117.5 Z" style="fill:#000000;fill-rule:evenodd;fill-opacity:1;stroke:#000000;stroke-width:0.5px;stroke-linecap:butt;stroke-linejoin:miter;stroke-miterlimit:10;stroke-opacity:1;"/>
<path class="bond-10 atom-5 atom-11" d="M 220.6,55.8 L 246.7,8.8" style="fill:none;fill-rule:evenodd;stroke:#000000;stroke-width:2.0px;stroke-linecap:butt;stroke-linejoin:miter;stroke-opacity:1"/>
<path class="bond-11 atom-11 atom-12" d="M 246.7,8.8 L 300.4,7.9" style="fill:none;fill-rule:evenodd;stroke:#000000;stroke-width:2.0px;stroke-linecap:butt;stroke-linejoin:miter;stroke-opacity:1"/>
<path class="bond-12 atom-12 atom-13" d="M 300.4,7.9 L 328.1,54.0" style="fill:none;fill-rule:evenodd;stroke:#000000;stroke-width:2.0px;stroke-linecap:butt;stroke-linejoin:miter;stroke-opacity:1"/>
<path class="bond-13 atom-13 atom-14" d="M 328.1,54.0 L 302.0,101.0" style="fill:none;fill-rule:evenodd;stroke:#000000;stroke-width:2.0px;stroke-linecap:butt;stroke-linejoin:miter;stroke-opacity:1"/>
<path class="bond-13 atom-13 atom-14" d="M 332.7,61.7 L 311.0,100.8" style="fill:none;fill-rule:evenodd;stroke:#000000;stroke-width:2.0px;stroke-linecap:butt;stroke-linejoin:miter;stroke-opacity:1"/>
<path class="bond-14 atom-14 atom-15" d="M 302.0,101.0 L 329.7,147.0" style="fill:none;fill-rule:evenodd;stroke:#000000;stroke-width:2.0px;stroke-linecap:butt;stroke-linejoin:miter;stroke-opacity:1"/>
<path class="bond-15 atom-15 atom-16" d="M 329.7,147.0 L 383.4,146.1" style="fill:none;fill-rule:evenodd;stroke:#000000;stroke-width:2.0px;stroke-linecap:butt;stroke-linejoin:miter;stroke-opacity:1"/>
<path class="bond-15 atom-15 atom-16" d="M 334.0,139.2 L 378.8,138.5" style="fill:none;fill-rule:evenodd;stroke:#000000;stroke-width:2.0px;stroke-linecap:butt;stroke-linejoin:miter;stroke-opacity:1"/>
<path class="bond-16 atom-16 atom-17" d="M 383.4,146.1 L 409.5,99.2" style="fill:none;fill-rule:evenodd;stroke:#000000;stroke-width:2.0px;stroke-linecap:butt;stroke-linejoin:miter;stroke-opacity:1"/>
<path class="bond-17 atom-17 atom-18" d="M 409.5,99.2 L 381.8,53.1" style="fill:none;fill-rule:evenodd;stroke:#000000;stroke-width:2.0px;stroke-linecap:butt;stroke-linejoin:miter;stroke-opacity:1"/>
<path class="bond-17 atom-17 atom-18" d="M 400.5,99.3 L 377.5,60.9" style="fill:none;fill-rule:evenodd;stroke:#000000;stroke-width:2.0px;stroke-linecap:butt;stroke-linejoin:miter;stroke-opacity:1"/>
<path class="bond-18 atom-17 atom-19" d="M 409.5,99.2 L 454.5,98.4" style="fill:none;fill-rule:evenodd;stroke:#000000;stroke-width:2.0px;stroke-linecap:butt;stroke-linejoin:miter;stroke-opacity:1"/>
<path class="bond-19 atom-6 atom-1" d="M 166.9,56.7 L 140.8,103.7" style="fill:none;fill-rule:evenodd;stroke:#000000;stroke-width:2.0px;stroke-linecap:butt;stroke-linejoin:miter;stroke-opacity:1"/>
<path class="bond-20 atom-9 atom-1" d="M 88.1,93.4 L 140.8,103.7" style="fill:none;fill-rule:evenodd;stroke:#000000;stroke-width:2.0px;stroke-linecap:butt;stroke-linejoin:miter;stroke-opacity:1"/>
<path class="bond-21 atom-14 atom-4" d="M 302.0,101.0 L 248.3,101.9" style="fill:none;fill-rule:evenodd;stroke:#000000;stroke-width:2.0px;stroke-linecap:butt;stroke-linejoin:miter;stroke-opacity:1"/>
<path class="bond-22 atom-18 atom-13" d="M 381.8,53.1 L 328.1,54.0" style="fill:none;fill-rule:evenodd;stroke:#000000;stroke-width:2.0px;stroke-linecap:butt;stroke-linejoin:miter;stroke-opacity:1"/>
<path class="bond-23 atom-4 atom-20" d="M 248.3,101.9 L 256.2,79.7 L 262.9,83.4 Z" style="fill:#000000;fill-rule:evenodd;fill-opacity:1;stroke:#000000;stroke-width:0.5px;stroke-linecap:butt;stroke-linejoin:miter;stroke-miterlimit:10;stroke-opacity:1;"/>
<path class="bond-24 atom-5 atom-21" d="M 220.6,55.8 L 212.7,78.0 L 206.0,74.2 Z" style="fill:#000000;fill-rule:evenodd;fill-opacity:1;stroke:#000000;stroke-width:0.5px;stroke-linecap:butt;stroke-linejoin:miter;stroke-miterlimit:10;stroke-opacity:1;"/>
<path class="bond-25 atom-6 atom-22" d="M 167.7,53.3 L 168.7,53.8" style="fill:none;fill-rule:evenodd;stroke:#000000;stroke-width:1.0px;stroke-linecap:butt;stroke-linejoin:miter;stroke-opacity:1"/>
<path class="bond-25 atom-6 atom-22" d="M 168.5,50.0 L 170.6,50.9" style="fill:none;fill-rule:evenodd;stroke:#000000;stroke-width:1.0px;stroke-linecap:butt;stroke-linejoin:miter;stroke-opacity:1"/>
<path class="bond-25 atom-6 atom-22" d="M 169.4,46.6 L 172.4,47.9" style="fill:none;fill-rule:evenodd;stroke:#000000;stroke-width:1.0px;stroke-linecap:butt;stroke-linejoin:miter;stroke-opacity:1"/>
<path class="bond-25 atom-6 atom-22" d="M 170.2,43.3 L 174.3,45.0" style="fill:none;fill-rule:evenodd;stroke:#000000;stroke-width:1.0px;stroke-linecap:butt;stroke-linejoin:miter;stroke-opacity:1"/>
<path class="bond-25 atom-6 atom-22" d="M 171.0,39.9 L 176.1,42.1" style="fill:none;fill-rule:evenodd;stroke:#000000;stroke-width:1.0px;stroke-linecap:butt;stroke-linejoin:miter;stroke-opacity:1"/>
<path class="bond-25 atom-6 atom-22" d="M 171.8,36.6 L 178.0,39.2" style="fill:none;fill-rule:evenodd;stroke:#000000;stroke-width:1.0px;stroke-linecap:butt;stroke-linejoin:miter;stroke-opacity:1"/>
<path class="bond-25 atom-6 atom-22" d="M 172.7,33.2 L 179.8,36.3" style="fill:none;fill-rule:evenodd;stroke:#000000;stroke-width:1.0px;stroke-linecap:butt;stroke-linejoin:miter;stroke-opacity:1"/>
<path d="M 167.1,147.5 L 168.5,149.8 L 171.2,149.7" style="fill:none;stroke:#000000;stroke-width:2.0px;stroke-linecap:butt;stroke-linejoin:miter;stroke-miterlimit:10;stroke-opacity:1;"/>
<path d="M 219.5,148.9 L 222.2,148.9 L 223.5,146.5" style="fill:none;stroke:#000000;stroke-width:2.0px;stroke-linecap:butt;stroke-linejoin:miter;stroke-miterlimit:10;stroke-opacity:1;"/>
<path d="M 132.1,19.3 L 130.3,17.4 L 127.8,18.5" style="fill:none;stroke:#000000;stroke-width:2.0px;stroke-linecap:butt;stroke-linejoin:miter;stroke-miterlimit:10;stroke-opacity:1;"/>
<path d="M 84.0,38.9 L 81.6,40.0 L 81.9,42.7" style="fill:none;stroke:#000000;stroke-width:2.0px;stroke-linecap:butt;stroke-linejoin:miter;stroke-miterlimit:10;stroke-opacity:1;"/>
<path d="M 87.7,90.7 L 88.1,93.4 L 90.7,93.9" style="fill:none;stroke:#000000;stroke-width:2.0px;stroke-linecap:butt;stroke-linejoin:miter;stroke-miterlimit:10;stroke-opacity:1;"/>
<path d="M 245.4,11.2 L 246.7,8.8 L 249.4,8.8" style="fill:none;stroke:#000000;stroke-width:2.0px;stroke-linecap:butt;stroke-linejoin:miter;stroke-miterlimit:10;stroke-opacity:1;"/>
<path d="M 297.8,7.9 L 300.4,7.9 L 301.8,10.2" style="fill:none;stroke:#000000;stroke-width:2.0px;stroke-linecap:butt;stroke-linejoin:miter;stroke-miterlimit:10;stroke-opacity:1;"/>
<path d="M 328.3,144.7 L 329.7,147.0 L 332.3,147.0" style="fill:none;stroke:#000000;stroke-width:2.0px;stroke-linecap:butt;stroke-linejoin:miter;stroke-miterlimit:10;stroke-opacity:1;"/>
<path d="M 380.7,146.2 L 383.4,146.1 L 384.7,143.8" style="fill:none;stroke:#000000;stroke-width:2.0px;stroke-linecap:butt;stroke-linejoin:miter;stroke-miterlimit:10;stroke-opacity:1;"/>
<path d="M 383.2,55.4 L 381.8,53.1 L 379.1,53.1" style="fill:none;stroke:#000000;stroke-width:2.0px;stroke-linecap:butt;stroke-linejoin:miter;stroke-miterlimit:10;stroke-opacity:1;"/>
<path class="atom-10" d="M 26.7 122.5 L 28.8 122.5 L 28.8 129.0 L 36.6 129.0 L 36.6 122.5 L 38.6 122.5 L 38.6 137.7 L 36.6 137.7 L 36.6 130.7 L 28.8 130.7 L 28.8 137.7 L 26.7 137.7 L 26.7 122.5 " fill="#000000"/>
<path class="atom-10" d="M 41.8 130.1 Q 41.8 126.4, 43.6 124.4 Q 45.4 122.3, 48.7 122.3 Q 52.1 122.3, 53.9 124.4 Q 55.7 126.4, 55.7 130.1 Q 55.7 133.8, 53.9 135.9 Q 52.1 137.9, 48.7 137.9 Q 45.4 137.9, 43.6 135.9 Q 41.8 133.8, 41.8 130.1 M 48.7 136.2 Q 51.1 136.2, 52.3 134.7 Q 53.6 133.1, 53.6 130.1 Q 53.6 127.1, 52.3 125.6 Q 51.1 124.0, 48.7 124.0 Q 46.4 124.0, 45.2 125.5 Q 43.9 127.0, 43.9 130.1 Q 43.9 133.1, 45.2 134.7 Q 46.4 136.2, 48.7 136.2 " fill="#000000"/>
<path class="atom-19" d="M 456.2 98.3 Q 456.2 94.6, 458.0 92.6 Q 459.8 90.6, 463.2 90.6 Q 466.6 90.6, 468.4 92.6 Q 470.2 94.6, 470.2 98.3 Q 470.2 102.0, 468.4 104.1 Q 466.5 106.2, 463.2 106.2 Q 459.9 106.2, 458.0 104.1 Q 456.2 102.0, 456.2 98.3 M 463.2 104.5 Q 465.5 104.5, 466.8 102.9 Q 468.0 101.4, 468.0 98.3 Q 468.0 95.3, 466.8 93.8 Q 465.5 92.3, 463.2 92.3 Q 460.9 92.3, 459.6 93.8 Q 458.4 95.3, 458.4 98.3 Q 458.4 101.4, 459.6 102.9 Q 460.9 104.5, 463.2 104.5 " fill="#000000"/>
<path class="atom-19" d="M 472.6 90.7 L 474.6 90.7 L 474.6 97.2 L 482.4 97.2 L 482.4 90.7 L 484.5 90.7 L 484.5 106.0 L 482.4 106.0 L 482.4 98.9 L 474.6 98.9 L 474.6 106.0 L 472.6 106.0 L 472.6 90.7 " fill="#000000"/>
<path class="atom-20" d="M 259.7 62.9 L 261.8 62.9 L 261.8 69.4 L 269.6 69.4 L 269.6 62.9 L 271.6 62.9 L 271.6 78.2 L 269.6 78.2 L 269.6 71.1 L 261.8 71.1 L 261.8 78.2 L 259.7 78.2 L 259.7 62.9 " fill="#000000"/>
<path class="atom-21" d="M 197.3 79.5 L 199.4 79.5 L 199.4 86.0 L 207.1 86.0 L 207.1 79.5 L 209.2 79.5 L 209.2 94.7 L 207.1 94.7 L 207.1 87.7 L 199.4 87.7 L 199.4 94.7 L 197.3 94.7 L 197.3 79.5 " fill="#000000"/>
<path class="atom-22" d="M 175.0 16.1 L 177.0 16.1 L 177.0 22.6 L 184.8 22.6 L 184.8 16.1 L 186.9 16.1 L 186.9 31.3 L 184.8 31.3 L 184.8 24.3 L 177.0 24.3 L 177.0 31.3 L 175.0 31.3 L 175.0 16.1 " fill="#000000"/>
</svg>