<?xml version='1.0' encoding='utf-8'?>
<svg xmlns="http://www.w3.org/2000/svg" xmlns:rdkit="http://www.rdkit.org/xml" xmlns:xlink="http://www.w3.org/1999/xlink" version="1.1" baseProfile="full" xml:space="preserve" width="512px" height="184px" viewBox="0 0 512 184">

<rect style="opacity:1.0;fill:#FFFFFF;stroke:none" width="512.0" height="184.0" x="0.0" y="0.0"> </rect>
<path class="bond-0 atom-0 atom-1" d="M 227.5,135.0 L 197.1,169.1" style="fill:none;fill-rule:evenodd;stroke:#000000;stroke-width:2.0px;stroke-linecap:butt;stroke-linejoin:miter;stroke-opacity:1"/>
<path class="bond-1 atom-1 atom-2" d="M 197.1,169.1 L 155.2,150.8" style="fill:none;fill-rule:evenodd;stroke:#000000;stroke-width:2.0px;stroke-linecap:butt;stroke-linejoin:miter;stroke-opacity:1"/>
<path class="bond-2 atom-2 atom-3" d="M 155.2,150.8 L 159.7,105.3" style="fill:none;fill-rule:evenodd;stroke:#000000;stroke-width:2.0px;stroke-linecap:butt;stroke-linejoin:miter;stroke-opacity:1"/>
<path class="bond-3 atom-3 atom-4" d="M 159.7,105.3 L 148.2,71.2 L 154.7,69.7 Z" style="fill:#000000;fill-rule:evenodd;fill-opacity:1;stroke:#000000;stroke-width:0.5px;stroke-linecap:butt;stroke-linejoin:miter;stroke-miterlimit:10;stroke-opacity:1;"/>
<path class="bond-4 atom-3 atom-5" d="M 159.7,105.3 L 114.0,105.5" style="fill:none;fill-rule:evenodd;stroke:#000000;stroke-width:2.0px;stroke-linecap:butt;stroke-linejoin:miter;stroke-opacity:1"/>
<path class="bond-5 atom-5 atom-6" d="M 112.0,102.2 L 93.0,135.6" style="fill:none;fill-rule:evenodd;stroke:#000000;stroke-width:2.0px;stroke-linecap:butt;stroke-linejoin:miter;stroke-opacity:1"/>
<path class="bond-5 atom-5 atom-6" d="M 117.8,105.5 L 98.8,138.9" style="fill:none;fill-rule:evenodd;stroke:#000000;stroke-width:2.0px;stroke-linecap:butt;stroke-linejoin:miter;stroke-opacity:1"/>
<path class="bond-6 atom-5 atom-7" d="M 114.0,105.5 L 90.9,66.0" style="fill:none;fill-rule:evenodd;stroke:#000000;stroke-width:2.0px;stroke-linecap:butt;stroke-linejoin:miter;stroke-opacity:1"/>
<path class="bond-7 atom-7 atom-8" d="M 90.9,66.0 L 52.6,66.3" style="fill:none;fill-rule:evenodd;stroke:#000000;stroke-width:2.0px;stroke-linecap:butt;stroke-linejoin:miter;stroke-opacity:1"/>
<path class="bond-8 atom-3 atom-9" d="M 159.7,105.3 L 204.4,95.5" style="fill:none;fill-rule:evenodd;stroke:#000000;stroke-width:2.0px;stroke-linecap:butt;stroke-linejoin:miter;stroke-opacity:1"/>
<path class="bond-9 atom-9 atom-10" d="M 202.5,92.6 L 202.9,92.3" style="fill:none;fill-rule:evenodd;stroke:#000000;stroke-width:1.0px;stroke-linecap:butt;stroke-linejoin:miter;stroke-opacity:1"/>
<path class="bond-9 atom-9 atom-10" d="M 200.5,89.6 L 201.4,89.1" style="fill:none;fill-rule:evenodd;stroke:#000000;stroke-width:1.0px;stroke-linecap:butt;stroke-linejoin:miter;stroke-opacity:1"/>
<path class="bond-9 atom-9 atom-10" d="M 198.6,86.7 L 199.9,85.9" style="fill:none;fill-rule:evenodd;stroke:#000000;stroke-width:1.0px;stroke-linecap:butt;stroke-linejoin:miter;stroke-opacity:1"/>
<path class="bond-9 atom-9 atom-10" d="M 196.6,83.7 L 198.4,82.7" style="fill:none;fill-rule:evenodd;stroke:#000000;stroke-width:1.0px;stroke-linecap:butt;stroke-linejoin:miter;stroke-opacity:1"/>
<path class="bond-9 atom-9 atom-10" d="M 194.7,80.8 L 196.9,79.5" style="fill:none;fill-rule:evenodd;stroke:#000000;stroke-width:1.0px;stroke-linecap:butt;stroke-linejoin:miter;stroke-opacity:1"/>
<path class="bond-9 atom-9 atom-10" d="M 192.7,77.8 L 195.4,76.3" style="fill:none;fill-rule:evenodd;stroke:#000000;stroke-width:1.0px;stroke-linecap:butt;stroke-linejoin:miter;stroke-opacity:1"/>
<path class="bond-9 atom-9 atom-10" d="M 190.8,74.9 L 193.9,73.2" style="fill:none;fill-rule:evenodd;stroke:#000000;stroke-width:1.0px;stroke-linecap:butt;stroke-linejoin:miter;stroke-opacity:1"/>
<path class="bond-9 atom-9 atom-10" d="M 188.8,72.0 L 192.4,70.0" style="fill:none;fill-rule:evenodd;stroke:#000000;stroke-width:1.0px;stroke-linecap:butt;stroke-linejoin:miter;stroke-opacity:1"/>
<path class="bond-9 atom-9 atom-10" d="M 186.9,69.0 L 190.9,66.8" style="fill:none;fill-rule:evenodd;stroke:#000000;stroke-width:1.0px;stroke-linecap:butt;stroke-linejoin:miter;stroke-opacity:1"/>
<path class="bond-9 atom-9 atom-10" d="M 184.9,66.1 L 189.4,63.6" style="fill:none;fill-rule:evenodd;stroke:#000000;stroke-width:1.0px;stroke-linecap:butt;stroke-linejoin:miter;stroke-opacity:1"/>
<path class="bond-9 atom-9 atom-10" d="M 183.0,63.1 L 187.9,60.4" style="fill:none;fill-rule:evenodd;stroke:#000000;stroke-width:1.0px;stroke-linecap:butt;stroke-linejoin:miter;stroke-opacity:1"/>
<path class="bond-9 atom-9 atom-10" d="M 181.1,60.2 L 186.4,57.2" style="fill:none;fill-rule:evenodd;stroke:#000000;stroke-width:1.0px;stroke-linecap:butt;stroke-linejoin:miter;stroke-opacity:1"/>
<path class="bond-9 atom-9 atom-10" d="M 179.1,57.2 L 184.9,54.0" style="fill:none;fill-rule:evenodd;stroke:#000000;stroke-width:1.0px;stroke-linecap:butt;stroke-linejoin:miter;stroke-opacity:1"/>
<path class="bond-10 atom-9 atom-11" d="M 204.4,95.5 L 227.1,55.8" style="fill:none;fill-rule:evenodd;stroke:#000000;stroke-width:2.0px;stroke-linecap:butt;stroke-linejoin:miter;stroke-opacity:1"/>
<path class="bond-11 atom-11 atom-12" d="M 227.1,55.8 L 272.8,55.5" style="fill:none;fill-rule:evenodd;stroke:#000000;stroke-width:2.0px;stroke-linecap:butt;stroke-linejoin:miter;stroke-opacity:1"/>
<path class="bond-12 atom-12 atom-13" d="M 274.2,52.3 L 274.8,52.7" style="fill:none;fill-rule:evenodd;stroke:#000000;stroke-width:1.0px;stroke-linecap:butt;stroke-linejoin:miter;stroke-opacity:1"/>
<path class="bond-12 atom-12 atom-13" d="M 275.6,49.2 L 276.8,49.8" style="fill:none;fill-rule:evenodd;stroke:#000000;stroke-width:1.0px;stroke-linecap:butt;stroke-linejoin:miter;stroke-opacity:1"/>
<path class="bond-12 atom-12 atom-13" d="M 277.1,46.0 L 278.8,47.0" style="fill:none;fill-rule:evenodd;stroke:#000000;stroke-width:1.0px;stroke-linecap:butt;stroke-linejoin:miter;stroke-opacity:1"/>
<path class="bond-12 atom-12 atom-13" d="M 278.5,42.8 L 280.8,44.1" style="fill:none;fill-rule:evenodd;stroke:#000000;stroke-width:1.0px;stroke-linecap:butt;stroke-linejoin:miter;stroke-opacity:1"/>
<path class="bond-12 atom-12 atom-13" d="M 279.9,39.6 L 282.8,41.3" style="fill:none;fill-rule:evenodd;stroke:#000000;stroke-width:1.0px;stroke-linecap:butt;stroke-linejoin:miter;stroke-opacity:1"/>
<path class="bond-12 atom-12 atom-13" d="M 281.3,36.5 L 284.8,38.4" style="fill:none;fill-rule:evenodd;stroke:#000000;stroke-width:1.0px;stroke-linecap:butt;stroke-linejoin:miter;stroke-opacity:1"/>
<path class="bond-12 atom-12 atom-13" d="M 282.8,33.3 L 286.8,35.6" style="fill:none;fill-rule:evenodd;stroke:#000000;stroke-width:1.0px;stroke-linecap:butt;stroke-linejoin:miter;stroke-opacity:1"/>
<path class="bond-12 atom-12 atom-13" d="M 284.2,30.1 L 288.8,32.8" style="fill:none;fill-rule:evenodd;stroke:#000000;stroke-width:1.0px;stroke-linecap:butt;stroke-linejoin:miter;stroke-opacity:1"/>
<path class="bond-12 atom-12 atom-13" d="M 285.6,27.0 L 290.8,29.9" style="fill:none;fill-rule:evenodd;stroke:#000000;stroke-width:1.0px;stroke-linecap:butt;stroke-linejoin:miter;stroke-opacity:1"/>
<path class="bond-12 atom-12 atom-13" d="M 287.0,23.8 L 292.8,27.1" style="fill:none;fill-rule:evenodd;stroke:#000000;stroke-width:1.0px;stroke-linecap:butt;stroke-linejoin:miter;stroke-opacity:1"/>
<path class="bond-13 atom-12 atom-14" d="M 272.8,55.5 L 295.9,95.0" style="fill:none;fill-rule:evenodd;stroke:#000000;stroke-width:2.0px;stroke-linecap:butt;stroke-linejoin:miter;stroke-opacity:1"/>
<path class="bond-14 atom-14 atom-15" d="M 295.9,95.0 L 273.2,134.7" style="fill:none;fill-rule:evenodd;stroke:#000000;stroke-width:2.0px;stroke-linecap:butt;stroke-linejoin:miter;stroke-opacity:1"/>
<path class="bond-15 atom-15 atom-16" d="M 273.2,134.7 L 296.3,174.2" style="fill:none;fill-rule:evenodd;stroke:#000000;stroke-width:2.0px;stroke-linecap:butt;stroke-linejoin:miter;stroke-opacity:1"/>
<path class="bond-16 atom-16 atom-17" d="M 296.3,174.2 L 342.1,173.9" style="fill:none;fill-rule:evenodd;stroke:#000000;stroke-width:2.0px;stroke-linecap:butt;stroke-linejoin:miter;stroke-opacity:1"/>
<path class="bond-17 atom-17 atom-18" d="M 342.1,173.9 L 364.7,134.2" style="fill:none;fill-rule:evenodd;stroke:#000000;stroke-width:2.0px;stroke-linecap:butt;stroke-linejoin:miter;stroke-opacity:1"/>
<path class="bond-18 atom-18 atom-19" d="M 364.7,134.2 L 410.5,133.9" style="fill:none;fill-rule:evenodd;stroke:#000000;stroke-width:2.0px;stroke-linecap:butt;stroke-linejoin:miter;stroke-opacity:1"/>
<path class="bond-18 atom-18 atom-19" d="M 368.5,127.5 L 406.6,127.3" style="fill:none;fill-rule:evenodd;stroke:#000000;stroke-width:2.0px;stroke-linecap:butt;stroke-linejoin:miter;stroke-opacity:1"/>
<path class="bond-19 atom-19 atom-20" d="M 410.5,133.9 L 433.1,94.2" style="fill:none;fill-rule:evenodd;stroke:#000000;stroke-width:2.0px;stroke-linecap:butt;stroke-linejoin:miter;stroke-opacity:1"/>
<path class="bond-20 atom-20 atom-21" d="M 431.2,97.5 L 471.5,97.3" style="fill:none;fill-rule:evenodd;stroke:#000000;stroke-width:2.0px;stroke-linecap:butt;stroke-linejoin:miter;stroke-opacity:1"/>
<path class="bond-20 atom-20 atom-21" d="M 431.2,90.9 L 471.4,90.6" style="fill:none;fill-rule:evenodd;stroke:#000000;stroke-width:2.0px;stroke-linecap:butt;stroke-linejoin:miter;stroke-opacity:1"/>
<path class="bond-21 atom-20 atom-22" d="M 433.1,94.2 L 410.0,54.7" style="fill:none;fill-rule:evenodd;stroke:#000000;stroke-width:2.0px;stroke-linecap:butt;stroke-linejoin:miter;stroke-opacity:1"/>
<path class="bond-22 atom-22 atom-23" d="M 410.0,54.7 L 364.3,55.0" style="fill:none;fill-rule:evenodd;stroke:#000000;stroke-width:2.0px;stroke-linecap:butt;stroke-linejoin:miter;stroke-opacity:1"/>
<path class="bond-23 atom-23 atom-24" d="M 364.3,55.0 L 341.6,94.7" style="fill:none;fill-rule:evenodd;stroke:#000000;stroke-width:2.0px;stroke-linecap:butt;stroke-linejoin:miter;stroke-opacity:1"/>
<path class="bond-24 atom-24 atom-25" d="M 339.6,91.8 L 340.1,91.5" style="fill:none;fill-rule:evenodd;stroke:#000000;stroke-width:1.0px;stroke-linecap:butt;stroke-linejoin:miter;stroke-opacity:1"/>
<path class="bond-24 atom-24 atom-25" d="M 337.6,88.9 L 338.5,88.4" style="fill:none;fill-rule:evenodd;stroke:#000000;stroke-width:1.0px;stroke-linecap:butt;stroke-linejoin:miter;stroke-opacity:1"/>
<path class="bond-24 atom-24 atom-25" d="M 335.6,86.0 L 337.0,85.2" style="fill:none;fill-rule:evenodd;stroke:#000000;stroke-width:1.0px;stroke-linecap:butt;stroke-linejoin:miter;stroke-opacity:1"/>
<path class="bond-24 atom-24 atom-25" d="M 333.6,83.1 L 335.4,82.0" style="fill:none;fill-rule:evenodd;stroke:#000000;stroke-width:1.0px;stroke-linecap:butt;stroke-linejoin:miter;stroke-opacity:1"/>
<path class="bond-24 atom-24 atom-25" d="M 331.6,80.2 L 333.8,78.9" style="fill:none;fill-rule:evenodd;stroke:#000000;stroke-width:1.0px;stroke-linecap:butt;stroke-linejoin:miter;stroke-opacity:1"/>
<path class="bond-24 atom-24 atom-25" d="M 329.6,77.3 L 332.3,75.7" style="fill:none;fill-rule:evenodd;stroke:#000000;stroke-width:1.0px;stroke-linecap:butt;stroke-linejoin:miter;stroke-opacity:1"/>
<path class="bond-24 atom-24 atom-25" d="M 327.6,74.4 L 330.7,72.5" style="fill:none;fill-rule:evenodd;stroke:#000000;stroke-width:1.0px;stroke-linecap:butt;stroke-linejoin:miter;stroke-opacity:1"/>
<path class="bond-24 atom-24 atom-25" d="M 325.6,71.4 L 329.2,69.4" style="fill:none;fill-rule:evenodd;stroke:#000000;stroke-width:1.0px;stroke-linecap:butt;stroke-linejoin:miter;stroke-opacity:1"/>
<path class="bond-24 atom-24 atom-25" d="M 323.7,68.5 L 327.6,66.2" style="fill:none;fill-rule:evenodd;stroke:#000000;stroke-width:1.0px;stroke-linecap:butt;stroke-linejoin:miter;stroke-opacity:1"/>
<path class="bond-24 atom-24 atom-25" d="M 321.7,65.6 L 326.1,63.1" style="fill:none;fill-rule:evenodd;stroke:#000000;stroke-width:1.0px;stroke-linecap:butt;stroke-linejoin:miter;stroke-opacity:1"/>
<path class="bond-24 atom-24 atom-25" d="M 319.7,62.7 L 324.5,59.9" style="fill:none;fill-rule:evenodd;stroke:#000000;stroke-width:1.0px;stroke-linecap:butt;stroke-linejoin:miter;stroke-opacity:1"/>
<path class="bond-24 atom-24 atom-25" d="M 317.7,59.8 L 323.0,56.7" style="fill:none;fill-rule:evenodd;stroke:#000000;stroke-width:1.0px;stroke-linecap:butt;stroke-linejoin:miter;stroke-opacity:1"/>
<path class="bond-24 atom-24 atom-25" d="M 315.7,56.9 L 321.4,53.6" style="fill:none;fill-rule:evenodd;stroke:#000000;stroke-width:1.0px;stroke-linecap:butt;stroke-linejoin:miter;stroke-opacity:1"/>
<path class="bond-25 atom-9 atom-0" d="M 204.4,95.5 L 227.5,135.0" style="fill:none;fill-rule:evenodd;stroke:#000000;stroke-width:2.0px;stroke-linecap:butt;stroke-linejoin:miter;stroke-opacity:1"/>
<path class="bond-26 atom-24 atom-14" d="M 341.6,94.7 L 295.9,95.0" style="fill:none;fill-rule:evenodd;stroke:#000000;stroke-width:2.0px;stroke-linecap:butt;stroke-linejoin:miter;stroke-opacity:1"/>
<path class="bond-27 atom-15 atom-0" d="M 273.2,134.7 L 227.5,135.0" style="fill:none;fill-rule:evenodd;stroke:#000000;stroke-width:2.0px;stroke-linecap:butt;stroke-linejoin:miter;stroke-opacity:1"/>
<path class="bond-28 atom-24 atom-18" d="M 341.6,94.7 L 364.7,134.2" style="fill:none;fill-rule:evenodd;stroke:#000000;stroke-width:2.0px;stroke-linecap:butt;stroke-linejoin:miter;stroke-opacity:1"/>
<path class="bond-29 atom-0 atom-26" d="M 227.5,135.0 L 238.8,152.0 L 232.8,154.7 Z" style="fill:#000000;fill-rule:evenodd;fill-opacity:1;stroke:#000000;stroke-width:0.5px;stroke-linecap:butt;stroke-linejoin:miter;stroke-miterlimit:10;stroke-opacity:1;"/>
<path class="bond-30 atom-14 atom-27" d="M 295.9,95.0 L 308.7,110.2 L 302.9,113.6 Z" style="fill:#000000;fill-rule:evenodd;fill-opacity:1;stroke:#000000;stroke-width:0.5px;stroke-linecap:butt;stroke-linejoin:miter;stroke-miterlimit:10;stroke-opacity:1;"/>
<path class="bond-31 atom-15 atom-28" d="M 272.1,137.8 L 271.1,137.3" style="fill:none;fill-rule:evenodd;stroke:#000000;stroke-width:1.0px;stroke-linecap:butt;stroke-linejoin:miter;stroke-opacity:1"/>
<path class="bond-31 atom-15 atom-28" d="M 271.0,141.0 L 269.0,139.9" style="fill:none;fill-rule:evenodd;stroke:#000000;stroke-width:1.0px;stroke-linecap:butt;stroke-linejoin:miter;stroke-opacity:1"/>
<path class="bond-31 atom-15 atom-28" d="M 269.8,144.1 L 266.9,142.4" style="fill:none;fill-rule:evenodd;stroke:#000000;stroke-width:1.0px;stroke-linecap:butt;stroke-linejoin:miter;stroke-opacity:1"/>
<path class="bond-31 atom-15 atom-28" d="M 268.7,147.2 L 264.8,145.0" style="fill:none;fill-rule:evenodd;stroke:#000000;stroke-width:1.0px;stroke-linecap:butt;stroke-linejoin:miter;stroke-opacity:1"/>
<path class="bond-31 atom-15 atom-28" d="M 267.5,150.3 L 262.7,147.6" style="fill:none;fill-rule:evenodd;stroke:#000000;stroke-width:1.0px;stroke-linecap:butt;stroke-linejoin:miter;stroke-opacity:1"/>
<path class="bond-31 atom-15 atom-28" d="M 266.4,153.5 L 260.6,150.2" style="fill:none;fill-rule:evenodd;stroke:#000000;stroke-width:1.0px;stroke-linecap:butt;stroke-linejoin:miter;stroke-opacity:1"/>
<path d="M 198.6,167.4 L 197.1,169.1 L 195.0,168.2" style="fill:none;stroke:#000000;stroke-width:2.0px;stroke-linecap:butt;stroke-linejoin:miter;stroke-miterlimit:10;stroke-opacity:1;"/>
<path d="M 157.3,151.7 L 155.2,150.8 L 155.4,148.5" style="fill:none;stroke:#000000;stroke-width:2.0px;stroke-linecap:butt;stroke-linejoin:miter;stroke-miterlimit:10;stroke-opacity:1;"/>
<path d="M 116.3,105.5 L 114.0,105.5 L 112.8,103.6" style="fill:none;stroke:#000000;stroke-width:2.0px;stroke-linecap:butt;stroke-linejoin:miter;stroke-miterlimit:10;stroke-opacity:1;"/>
<path d="M 92.0,68.0 L 90.9,66.0 L 89.0,66.1" style="fill:none;stroke:#000000;stroke-width:2.0px;stroke-linecap:butt;stroke-linejoin:miter;stroke-miterlimit:10;stroke-opacity:1;"/>
<path d="M 225.9,57.7 L 227.1,55.8 L 229.3,55.7" style="fill:none;stroke:#000000;stroke-width:2.0px;stroke-linecap:butt;stroke-linejoin:miter;stroke-miterlimit:10;stroke-opacity:1;"/>
<path d="M 270.5,55.5 L 272.8,55.5 L 273.9,57.5" style="fill:none;stroke:#000000;stroke-width:2.0px;stroke-linecap:butt;stroke-linejoin:miter;stroke-miterlimit:10;stroke-opacity:1;"/>
<path d="M 295.2,172.2 L 296.3,174.2 L 298.6,174.2" style="fill:none;stroke:#000000;stroke-width:2.0px;stroke-linecap:butt;stroke-linejoin:miter;stroke-miterlimit:10;stroke-opacity:1;"/>
<path d="M 339.8,174.0 L 342.1,173.9 L 343.2,172.0" style="fill:none;stroke:#000000;stroke-width:2.0px;stroke-linecap:butt;stroke-linejoin:miter;stroke-miterlimit:10;stroke-opacity:1;"/>
<path d="M 408.2,133.9 L 410.5,133.9 L 411.6,131.9" style="fill:none;stroke:#000000;stroke-width:2.0px;stroke-linecap:butt;stroke-linejoin:miter;stroke-miterlimit:10;stroke-opacity:1;"/>
<path d="M 432.0,96.2 L 433.1,94.2 L 432.0,92.2" style="fill:none;stroke:#000000;stroke-width:2.0px;stroke-linecap:butt;stroke-linejoin:miter;stroke-miterlimit:10;stroke-opacity:1;"/>
<path d="M 411.2,56.7 L 410.0,54.7 L 407.7,54.7" style="fill:none;stroke:#000000;stroke-width:2.0px;stroke-linecap:butt;stroke-linejoin:miter;stroke-miterlimit:10;stroke-opacity:1;"/>
<path d="M 366.6,55.0 L 364.3,55.0 L 363.1,57.0" style="fill:none;stroke:#000000;stroke-width:2.0px;stroke-linecap:butt;stroke-linejoin:miter;stroke-miterlimit:10;stroke-opacity:1;"/>
<path class="atom-4" d="M 143.2 60.8 Q 143.2 57.7, 144.8 55.9 Q 146.3 54.2, 149.2 54.2 Q 152.0 54.2, 153.6 55.9 Q 155.1 57.7, 155.1 60.8 Q 155.1 63.9, 153.6 65.7 Q 152.0 67.5, 149.2 67.5 Q 146.3 67.5, 144.8 65.7 Q 143.2 64.0, 143.2 60.8 M 149.2 66.0 Q 151.2 66.0, 152.2 64.7 Q 153.3 63.4, 153.3 60.8 Q 153.3 58.3, 152.2 57.0 Q 151.2 55.7, 149.2 55.7 Q 147.2 55.7, 146.1 57.0 Q 145.1 58.2, 145.1 60.8 Q 145.1 63.4, 146.1 64.7 Q 147.2 66.0, 149.2 66.0 " fill="#000000"/>
<path class="atom-4" d="M 157.1 54.4 L 158.9 54.4 L 158.9 59.9 L 165.5 59.9 L 165.5 54.4 L 167.3 54.4 L 167.3 67.3 L 165.5 67.3 L 165.5 61.3 L 158.9 61.3 L 158.9 67.3 L 157.1 67.3 L 157.1 54.4 " fill="#000000"/>
<path class="atom-6" d="M 85.4 145.3 Q 85.4 142.2, 86.9 140.5 Q 88.5 138.7, 91.3 138.7 Q 94.2 138.7, 95.7 140.5 Q 97.3 142.2, 97.3 145.3 Q 97.3 148.5, 95.7 150.2 Q 94.2 152.0, 91.3 152.0 Q 88.5 152.0, 86.9 150.2 Q 85.4 148.5, 85.4 145.3 M 91.3 150.6 Q 93.3 150.6, 94.4 149.2 Q 95.5 147.9, 95.5 145.3 Q 95.5 142.8, 94.4 141.5 Q 93.3 140.2, 91.3 140.2 Q 89.4 140.2, 88.3 141.5 Q 87.2 142.7, 87.2 145.3 Q 87.2 147.9, 88.3 149.2 Q 89.4 150.6, 91.3 150.6 " fill="#000000"/>
<path class="atom-8" d="M 26.4 59.9 L 28.2 59.9 L 28.2 65.4 L 34.8 65.4 L 34.8 59.9 L 36.5 59.9 L 36.5 72.9 L 34.8 72.9 L 34.8 66.9 L 28.2 66.9 L 28.2 72.9 L 26.4 72.9 L 26.4 59.9 " fill="#000000"/>
<path class="atom-8" d="M 39.2 66.3 Q 39.2 63.2, 40.7 61.5 Q 42.3 59.8, 45.1 59.8 Q 48.0 59.8, 49.6 61.5 Q 51.1 63.2, 51.1 66.3 Q 51.1 69.5, 49.5 71.3 Q 48.0 73.1, 45.1 73.1 Q 42.3 73.1, 40.7 71.3 Q 39.2 69.5, 39.2 66.3 M 45.1 71.6 Q 47.1 71.6, 48.2 70.3 Q 49.3 68.9, 49.3 66.3 Q 49.3 63.8, 48.2 62.5 Q 47.1 61.2, 45.1 61.2 Q 43.2 61.2, 42.1 62.5 Q 41.0 63.8, 41.0 66.3 Q 41.0 69.0, 42.1 70.3 Q 43.2 71.6, 45.1 71.6 " fill="#000000"/>
<path class="atom-13" d="M 289.5 15.8 Q 289.5 12.7, 291.0 10.9 Q 292.6 9.2, 295.4 9.2 Q 298.3 9.2, 299.8 10.9 Q 301.4 12.7, 301.4 15.8 Q 301.4 18.9, 299.8 20.7 Q 298.3 22.5, 295.4 22.5 Q 292.6 22.5, 291.0 20.7 Q 289.5 19.0, 289.5 15.8 M 295.4 21.0 Q 297.4 21.0, 298.5 19.7 Q 299.6 18.4, 299.6 15.8 Q 299.6 13.2, 298.5 12.0 Q 297.4 10.7, 295.4 10.7 Q 293.5 10.7, 292.4 11.9 Q 291.3 13.2, 291.3 15.8 Q 291.3 18.4, 292.4 19.7 Q 293.5 21.0, 295.4 21.0 " fill="#000000"/>
<path class="atom-13" d="M 303.4 9.3 L 305.2 9.3 L 305.2 14.9 L 311.8 14.9 L 311.8 9.3 L 313.5 9.3 L 313.5 22.3 L 311.8 22.3 L 311.8 16.3 L 305.2 16.3 L 305.2 22.3 L 303.4 22.3 L 303.4 9.3 " fill="#000000"/>
<path class="atom-21" d="M 472.9 94.0 Q 472.9 90.9, 474.4 89.1 Q 476.0 87.4, 478.9 87.4 Q 481.7 87.4, 483.3 89.1 Q 484.8 90.9, 484.8 94.0 Q 484.8 97.1, 483.2 98.9 Q 481.7 100.7, 478.9 100.7 Q 476.0 100.7, 474.4 98.9 Q 472.9 97.1, 472.9 94.0 M 478.9 99.2 Q 480.8 99.2, 481.9 97.9 Q 483.0 96.6, 483.0 94.0 Q 483.0 91.4, 481.9 90.1 Q 480.8 88.8, 478.9 88.8 Q 476.9 88.8, 475.8 90.1 Q 474.7 91.4, 474.7 94.0 Q 474.7 96.6, 475.8 97.9 Q 476.9 99.2, 478.9 99.2 " fill="#000000"/>
<path class="atom-26" d="M 235.0 156.3 L 236.8 156.3 L 236.8 161.8 L 243.4 161.8 L 243.4 156.3 L 245.1 156.3 L 245.1 169.2 L 243.4 169.2 L 243.4 163.3 L 236.8 163.3 L 236.8 169.2 L 235.0 169.2 L 235.0 156.3 " fill="#000000"/>
<path class="atom-27" d="M 306.2 114.8 L 308.0 114.8 L 308.0 120.3 L 314.6 120.3 L 314.6 114.8 L 316.4 114.8 L 316.4 127.8 L 314.6 127.8 L 314.6 121.8 L 308.0 121.8 L 308.0 127.8 L 306.2 127.8 L 306.2 114.8 " fill="#000000"/>
<path class="atom-28" d="M 253.1 154.7 L 254.8 154.7 L 254.8 160.2 L 261.5 160.2 L 261.5 154.7 L 263.2 154.7 L 263.2 167.7 L 261.5 167.7 L 261.5 161.7 L 254.8 161.7 L 254.8 167.7 L 253.1 167.7 L 253.1 154.7 " fill="#000000"/>
</svg>