<?xml version='1.0' encoding='utf-8'?>
<svg xmlns="http://www.w3.org/2000/svg" xmlns:rdkit="http://www.rdkit.org/xml" xmlns:xlink="http://www.w3.org/1999/xlink" version="1.1" baseProfile="full" xml:space="preserve" width="512px" height="302px" viewBox="0 0 512 302">

<rect style="opacity:1.0;fill:#FFFFFF;stroke:none" width="512.0" height="302.0" x="0.0" y="0.0"> </rect>
<path class="bond-0 atom-1 atom-0" d="M 141.6,252.1 L 135.5,273.1 L 131.6,271.6 Z" style="fill:#000000;fill-rule:evenodd;fill-opacity:1;stroke:#000000;stroke-width:0.5px;stroke-linecap:butt;stroke-linejoin:miter;stroke-miterlimit:10;stroke-opacity:1;"/>
<path class="bond-1 atom-1 atom-2" d="M 141.6,252.1 L 169.1,257.5" style="fill:none;fill-rule:evenodd;stroke:#000000;stroke-width:2.0px;stroke-linecap:butt;stroke-linejoin:miter;stroke-opacity:1"/>
<path class="bond-2 atom-2 atom-3" d="M 169.1,257.5 L 193.2,253.2" style="fill:none;fill-rule:evenodd;stroke:#000000;stroke-width:2.0px;stroke-linecap:butt;stroke-linejoin:miter;stroke-opacity:1"/>
<path class="bond-3 atom-3 atom-4" d="M 200.1,250.4 L 217.1,240.1" style="fill:none;fill-rule:evenodd;stroke:#000000;stroke-width:2.0px;stroke-linecap:butt;stroke-linejoin:miter;stroke-opacity:1"/>
<path class="bond-4 atom-4 atom-5" d="M 224.1,233.5 L 237.7,215.8" style="fill:none;fill-rule:evenodd;stroke:#000000;stroke-width:2.0px;stroke-linecap:butt;stroke-linejoin:miter;stroke-opacity:1"/>
<path class="bond-5 atom-5 atom-6" d="M 237.7,215.8 L 245.5,188.9" style="fill:none;fill-rule:evenodd;stroke:#000000;stroke-width:2.0px;stroke-linecap:butt;stroke-linejoin:miter;stroke-opacity:1"/>
<path class="bond-6 atom-6 atom-7" d="M 245.5,188.9 L 243.6,165.9" style="fill:none;fill-rule:evenodd;stroke:#000000;stroke-width:2.0px;stroke-linecap:butt;stroke-linejoin:miter;stroke-opacity:1"/>
<path class="bond-7 atom-7 atom-8" d="M 240.8,156.1 L 230.9,135.8" style="fill:none;fill-rule:evenodd;stroke:#000000;stroke-width:2.0px;stroke-linecap:butt;stroke-linejoin:miter;stroke-opacity:1"/>
<path class="bond-8 atom-8 atom-9" d="M 231.8,137.7 L 250.1,124.2" style="fill:none;fill-rule:evenodd;stroke:#000000;stroke-width:2.0px;stroke-linecap:butt;stroke-linejoin:miter;stroke-opacity:1"/>
<path class="bond-8 atom-8 atom-9" d="M 229.3,134.3 L 247.6,120.8" style="fill:none;fill-rule:evenodd;stroke:#000000;stroke-width:2.0px;stroke-linecap:butt;stroke-linejoin:miter;stroke-opacity:1"/>
<path class="bond-9 atom-8 atom-10" d="M 230.9,135.8 L 210.3,116.7" style="fill:none;fill-rule:evenodd;stroke:#000000;stroke-width:2.0px;stroke-linecap:butt;stroke-linejoin:miter;stroke-opacity:1"/>
<path class="bond-10 atom-10 atom-11" d="M 210.3,116.7 L 224.1,90.8 L 226.4,95.1 Z" style="fill:#000000;fill-rule:evenodd;fill-opacity:1;stroke:#000000;stroke-width:0.5px;stroke-linecap:butt;stroke-linejoin:miter;stroke-miterlimit:10;stroke-opacity:1;"/>
<path class="bond-11 atom-11 atom-12" d="M 226.4,95.1 L 212.2,68.2" style="fill:none;fill-rule:evenodd;stroke:#000000;stroke-width:2.0px;stroke-linecap:butt;stroke-linejoin:miter;stroke-opacity:1"/>
<path class="bond-12 atom-12 atom-13" d="M 212.2,68.2 L 188.2,67.3" style="fill:none;fill-rule:evenodd;stroke:#000000;stroke-width:2.0px;stroke-linecap:butt;stroke-linejoin:miter;stroke-opacity:1"/>
<path class="bond-13 atom-12 atom-14" d="M 213.3,70.4 L 225.7,50.7" style="fill:none;fill-rule:evenodd;stroke:#000000;stroke-width:2.0px;stroke-linecap:butt;stroke-linejoin:miter;stroke-opacity:1"/>
<path class="bond-13 atom-12 atom-14" d="M 209.8,68.2 L 222.2,48.5" style="fill:none;fill-rule:evenodd;stroke:#000000;stroke-width:2.0px;stroke-linecap:butt;stroke-linejoin:miter;stroke-opacity:1"/>
<path class="bond-14 atom-10 atom-15" d="M 210.3,116.7 L 188.2,108.0" style="fill:none;fill-rule:evenodd;stroke:#000000;stroke-width:2.0px;stroke-linecap:butt;stroke-linejoin:miter;stroke-opacity:1"/>
<path class="bond-15 atom-15 atom-16" d="M 180.4,106.4 L 156.3,106.2" style="fill:none;fill-rule:evenodd;stroke:#000000;stroke-width:2.0px;stroke-linecap:butt;stroke-linejoin:miter;stroke-opacity:1"/>
<path class="bond-16 atom-16 atom-17" d="M 158.4,106.2 L 154.3,83.3" style="fill:none;fill-rule:evenodd;stroke:#000000;stroke-width:2.0px;stroke-linecap:butt;stroke-linejoin:miter;stroke-opacity:1"/>
<path class="bond-16 atom-16 atom-17" d="M 154.3,106.9 L 150.2,84.0" style="fill:none;fill-rule:evenodd;stroke:#000000;stroke-width:2.0px;stroke-linecap:butt;stroke-linejoin:miter;stroke-opacity:1"/>
<path class="bond-17 atom-16 atom-18" d="M 156.3,106.2 L 130.1,116.1" style="fill:none;fill-rule:evenodd;stroke:#000000;stroke-width:2.0px;stroke-linecap:butt;stroke-linejoin:miter;stroke-opacity:1"/>
<path class="bond-18 atom-18 atom-19" d="M 130.1,116.1 L 114.4,94.2 L 116.7,89.9 Z" style="fill:#000000;fill-rule:evenodd;fill-opacity:1;stroke:#000000;stroke-width:0.5px;stroke-linecap:butt;stroke-linejoin:miter;stroke-miterlimit:10;stroke-opacity:1;"/>
<path class="bond-19 atom-19 atom-20" d="M 114.4,94.2 L 129.0,67.6" style="fill:none;fill-rule:evenodd;stroke:#000000;stroke-width:2.0px;stroke-linecap:butt;stroke-linejoin:miter;stroke-opacity:1"/>
<path class="bond-20 atom-20 atom-21" d="M 129.0,67.6 L 114.4,43.6" style="fill:none;fill-rule:evenodd;stroke:#000000;stroke-width:2.0px;stroke-linecap:butt;stroke-linejoin:miter;stroke-opacity:1"/>
<path class="bond-21 atom-21 atom-22" d="M 114.4,43.6 L 125.2,24.0" style="fill:none;fill-rule:evenodd;stroke:#000000;stroke-width:2.0px;stroke-linecap:butt;stroke-linejoin:miter;stroke-opacity:1"/>
<path class="bond-22 atom-21 atom-23" d="M 115.6,41.5 L 90.9,42.1" style="fill:none;fill-rule:evenodd;stroke:#000000;stroke-width:2.0px;stroke-linecap:butt;stroke-linejoin:miter;stroke-opacity:1"/>
<path class="bond-22 atom-21 atom-23" d="M 115.7,45.7 L 91.0,46.3" style="fill:none;fill-rule:evenodd;stroke:#000000;stroke-width:2.0px;stroke-linecap:butt;stroke-linejoin:miter;stroke-opacity:1"/>
<path class="bond-23 atom-18 atom-24" d="M 130.1,116.1 L 113.1,131.3" style="fill:none;fill-rule:evenodd;stroke:#000000;stroke-width:2.0px;stroke-linecap:butt;stroke-linejoin:miter;stroke-opacity:1"/>
<path class="bond-24 atom-24 atom-25" d="M 106.7,139.7 L 96.5,159.8" style="fill:none;fill-rule:evenodd;stroke:#000000;stroke-width:2.0px;stroke-linecap:butt;stroke-linejoin:miter;stroke-opacity:1"/>
<path class="bond-25 atom-25 atom-26" d="M 97.5,157.9 L 74.8,151.2" style="fill:none;fill-rule:evenodd;stroke:#000000;stroke-width:2.0px;stroke-linecap:butt;stroke-linejoin:miter;stroke-opacity:1"/>
<path class="bond-25 atom-25 atom-26" d="M 96.3,161.9 L 73.6,155.3" style="fill:none;fill-rule:evenodd;stroke:#000000;stroke-width:2.0px;stroke-linecap:butt;stroke-linejoin:miter;stroke-opacity:1"/>
<path class="bond-26 atom-25 atom-27" d="M 96.5,159.8 L 93.7,187.7" style="fill:none;fill-rule:evenodd;stroke:#000000;stroke-width:2.0px;stroke-linecap:butt;stroke-linejoin:miter;stroke-opacity:1"/>
<path class="bond-27 atom-27 atom-28" d="M 93.7,187.7 L 65.8,190.0" style="fill:none;fill-rule:evenodd;stroke:#000000;stroke-width:2.0px;stroke-linecap:butt;stroke-linejoin:miter;stroke-opacity:1"/>
<path class="bond-28 atom-28 atom-29" d="M 63.6,187.3 L 64.0,187.0" style="fill:none;fill-rule:evenodd;stroke:#000000;stroke-width:1.0px;stroke-linecap:butt;stroke-linejoin:miter;stroke-opacity:1"/>
<path class="bond-28 atom-28 atom-29" d="M 61.4,184.6 L 62.2,184.0" style="fill:none;fill-rule:evenodd;stroke:#000000;stroke-width:1.0px;stroke-linecap:butt;stroke-linejoin:miter;stroke-opacity:1"/>
<path class="bond-28 atom-28 atom-29" d="M 59.1,181.9 L 60.4,181.0" style="fill:none;fill-rule:evenodd;stroke:#000000;stroke-width:1.0px;stroke-linecap:butt;stroke-linejoin:miter;stroke-opacity:1"/>
<path class="bond-28 atom-28 atom-29" d="M 56.9,179.1 L 58.7,177.9" style="fill:none;fill-rule:evenodd;stroke:#000000;stroke-width:1.0px;stroke-linecap:butt;stroke-linejoin:miter;stroke-opacity:1"/>
<path class="bond-28 atom-28 atom-29" d="M 54.7,176.4 L 56.9,174.9" style="fill:none;fill-rule:evenodd;stroke:#000000;stroke-width:1.0px;stroke-linecap:butt;stroke-linejoin:miter;stroke-opacity:1"/>
<path class="bond-28 atom-28 atom-29" d="M 52.5,173.7 L 55.1,171.9" style="fill:none;fill-rule:evenodd;stroke:#000000;stroke-width:1.0px;stroke-linecap:butt;stroke-linejoin:miter;stroke-opacity:1"/>
<path class="bond-28 atom-28 atom-29" d="M 50.3,171.0 L 53.3,168.9" style="fill:none;fill-rule:evenodd;stroke:#000000;stroke-width:1.0px;stroke-linecap:butt;stroke-linejoin:miter;stroke-opacity:1"/>
<path class="bond-28 atom-28 atom-29" d="M 48.1,168.2 L 51.5,165.8" style="fill:none;fill-rule:evenodd;stroke:#000000;stroke-width:1.0px;stroke-linecap:butt;stroke-linejoin:miter;stroke-opacity:1"/>
<path class="bond-29 atom-28 atom-30" d="M 65.8,190.0 L 53.9,215.4" style="fill:none;fill-rule:evenodd;stroke:#000000;stroke-width:2.0px;stroke-linecap:butt;stroke-linejoin:miter;stroke-opacity:1"/>
<path class="bond-30 atom-30 atom-31" d="M 53.9,215.4 L 26.0,217.8" style="fill:none;fill-rule:evenodd;stroke:#000000;stroke-width:2.0px;stroke-linecap:butt;stroke-linejoin:miter;stroke-opacity:1"/>
<path class="bond-31 atom-27 atom-32" d="M 93.7,187.7 L 101.6,208.3 L 97.5,209.4 Z" style="fill:#000000;fill-rule:evenodd;fill-opacity:1;stroke:#000000;stroke-width:0.5px;stroke-linecap:butt;stroke-linejoin:miter;stroke-miterlimit:10;stroke-opacity:1;"/>
<path class="bond-32 atom-32 atom-33" d="M 104.8,219.6 L 117.9,237.2" style="fill:none;fill-rule:evenodd;stroke:#000000;stroke-width:2.0px;stroke-linecap:butt;stroke-linejoin:miter;stroke-opacity:1"/>
<path class="bond-33 atom-33 atom-34" d="M 116.6,235.5 L 101.9,251.4" style="fill:none;fill-rule:evenodd;stroke:#000000;stroke-width:2.0px;stroke-linecap:butt;stroke-linejoin:miter;stroke-opacity:1"/>
<path class="bond-33 atom-33 atom-34" d="M 119.7,238.3 L 104.9,254.2" style="fill:none;fill-rule:evenodd;stroke:#000000;stroke-width:2.0px;stroke-linecap:butt;stroke-linejoin:miter;stroke-opacity:1"/>
<path class="bond-34 atom-6 atom-35" d="M 249.0,189.5 L 249.1,188.9" style="fill:none;fill-rule:evenodd;stroke:#000000;stroke-width:1.0px;stroke-linecap:butt;stroke-linejoin:miter;stroke-opacity:1"/>
<path class="bond-34 atom-6 atom-35" d="M 252.4,190.2 L 252.6,189.0" style="fill:none;fill-rule:evenodd;stroke:#000000;stroke-width:1.0px;stroke-linecap:butt;stroke-linejoin:miter;stroke-opacity:1"/>
<path class="bond-34 atom-6 atom-35" d="M 255.9,190.8 L 256.1,189.0" style="fill:none;fill-rule:evenodd;stroke:#000000;stroke-width:1.0px;stroke-linecap:butt;stroke-linejoin:miter;stroke-opacity:1"/>
<path class="bond-34 atom-6 atom-35" d="M 259.4,191.5 L 259.6,189.1" style="fill:none;fill-rule:evenodd;stroke:#000000;stroke-width:1.0px;stroke-linecap:butt;stroke-linejoin:miter;stroke-opacity:1"/>
<path class="bond-34 atom-6 atom-35" d="M 262.8,192.1 L 263.1,189.1" style="fill:none;fill-rule:evenodd;stroke:#000000;stroke-width:1.0px;stroke-linecap:butt;stroke-linejoin:miter;stroke-opacity:1"/>
<path class="bond-34 atom-6 atom-35" d="M 266.3,192.8 L 266.6,189.2" style="fill:none;fill-rule:evenodd;stroke:#000000;stroke-width:1.0px;stroke-linecap:butt;stroke-linejoin:miter;stroke-opacity:1"/>
<path class="bond-34 atom-6 atom-35" d="M 269.7,193.4 L 270.1,189.2" style="fill:none;fill-rule:evenodd;stroke:#000000;stroke-width:1.0px;stroke-linecap:butt;stroke-linejoin:miter;stroke-opacity:1"/>
<path class="bond-35 atom-35 atom-36" d="M 274.4,193.9 L 287.9,175.2" style="fill:none;fill-rule:evenodd;stroke:#000000;stroke-width:2.0px;stroke-linecap:butt;stroke-linejoin:miter;stroke-opacity:1"/>
<path class="bond-35 atom-35 atom-36" d="M 271.0,191.4 L 284.4,172.8" style="fill:none;fill-rule:evenodd;stroke:#000000;stroke-width:2.0px;stroke-linecap:butt;stroke-linejoin:miter;stroke-opacity:1"/>
<path class="bond-36 atom-35 atom-37" d="M 273.4,191.7 L 282.7,212.3" style="fill:none;fill-rule:evenodd;stroke:#000000;stroke-width:2.0px;stroke-linecap:butt;stroke-linejoin:miter;stroke-opacity:1"/>
<path class="bond-37 atom-37 atom-38" d="M 282.1,222.1 L 271.0,241.6" style="fill:none;fill-rule:evenodd;stroke:#000000;stroke-width:2.0px;stroke-linecap:butt;stroke-linejoin:miter;stroke-opacity:1"/>
<path class="bond-38 atom-38 atom-39" d="M 271.0,241.6 L 289.9,262.3" style="fill:none;fill-rule:evenodd;stroke:#000000;stroke-width:2.0px;stroke-linecap:butt;stroke-linejoin:miter;stroke-opacity:1"/>
<path class="bond-39 atom-39 atom-40" d="M 289.9,262.3 L 315.4,250.8" style="fill:none;fill-rule:evenodd;stroke:#000000;stroke-width:2.0px;stroke-linecap:butt;stroke-linejoin:miter;stroke-opacity:1"/>
<path class="bond-40 atom-40 atom-41" d="M 315.4,250.8 L 312.4,222.9" style="fill:none;fill-rule:evenodd;stroke:#000000;stroke-width:2.0px;stroke-linecap:butt;stroke-linejoin:miter;stroke-opacity:1"/>
<path class="bond-41 atom-41 atom-42" d="M 315.2,220.8 L 314.8,220.4" style="fill:none;fill-rule:evenodd;stroke:#000000;stroke-width:1.0px;stroke-linecap:butt;stroke-linejoin:miter;stroke-opacity:1"/>
<path class="bond-41 atom-41 atom-42" d="M 317.9,218.7 L 317.1,217.8" style="fill:none;fill-rule:evenodd;stroke:#000000;stroke-width:1.0px;stroke-linecap:butt;stroke-linejoin:miter;stroke-opacity:1"/>
<path class="bond-41 atom-41 atom-42" d="M 320.7,216.6 L 319.5,215.2" style="fill:none;fill-rule:evenodd;stroke:#000000;stroke-width:1.0px;stroke-linecap:butt;stroke-linejoin:miter;stroke-opacity:1"/>
<path class="bond-41 atom-41 atom-42" d="M 323.5,214.4 L 321.9,212.6" style="fill:none;fill-rule:evenodd;stroke:#000000;stroke-width:1.0px;stroke-linecap:butt;stroke-linejoin:miter;stroke-opacity:1"/>
<path class="bond-41 atom-41 atom-42" d="M 326.3,212.3 L 324.3,210.1" style="fill:none;fill-rule:evenodd;stroke:#000000;stroke-width:1.0px;stroke-linecap:butt;stroke-linejoin:miter;stroke-opacity:1"/>
<path class="bond-41 atom-41 atom-42" d="M 329.1,210.2 L 326.7,207.5" style="fill:none;fill-rule:evenodd;stroke:#000000;stroke-width:1.0px;stroke-linecap:butt;stroke-linejoin:miter;stroke-opacity:1"/>
<path class="bond-41 atom-41 atom-42" d="M 331.9,208.0 L 329.1,204.9" style="fill:none;fill-rule:evenodd;stroke:#000000;stroke-width:1.0px;stroke-linecap:butt;stroke-linejoin:miter;stroke-opacity:1"/>
<path class="bond-42 atom-42 atom-43" d="M 331.3,205.7 L 354.6,213.2" style="fill:none;fill-rule:evenodd;stroke:#000000;stroke-width:2.0px;stroke-linecap:butt;stroke-linejoin:miter;stroke-opacity:1"/>
<path class="bond-42 atom-42 atom-43" d="M 332.6,201.7 L 355.9,209.2" style="fill:none;fill-rule:evenodd;stroke:#000000;stroke-width:2.0px;stroke-linecap:butt;stroke-linejoin:miter;stroke-opacity:1"/>
<path class="bond-43 atom-42 atom-44" d="M 333.1,204.1 L 328.2,181.6" style="fill:none;fill-rule:evenodd;stroke:#000000;stroke-width:2.0px;stroke-linecap:butt;stroke-linejoin:miter;stroke-opacity:1"/>
<path class="bond-44 atom-44 atom-45" d="M 331.1,173.2 L 347.9,157.9" style="fill:none;fill-rule:evenodd;stroke:#000000;stroke-width:2.0px;stroke-linecap:butt;stroke-linejoin:miter;stroke-opacity:1"/>
<path class="bond-45 atom-45 atom-46" d="M 347.9,157.9 L 340.2,132.1 L 343.8,128.8 Z" style="fill:#000000;fill-rule:evenodd;fill-opacity:1;stroke:#000000;stroke-width:0.5px;stroke-linecap:butt;stroke-linejoin:miter;stroke-miterlimit:10;stroke-opacity:1;"/>
<path class="bond-46 atom-46 atom-47" d="M 340.2,132.1 L 362.7,111.7" style="fill:none;fill-rule:evenodd;stroke:#000000;stroke-width:2.0px;stroke-linecap:butt;stroke-linejoin:miter;stroke-opacity:1"/>
<path class="bond-47 atom-47 atom-48" d="M 362.7,111.7 L 356.8,84.3" style="fill:none;fill-rule:evenodd;stroke:#000000;stroke-width:2.0px;stroke-linecap:butt;stroke-linejoin:miter;stroke-opacity:1"/>
<path class="bond-48 atom-47 atom-49" d="M 362.7,111.7 L 389.4,120.2" style="fill:none;fill-rule:evenodd;stroke:#000000;stroke-width:2.0px;stroke-linecap:butt;stroke-linejoin:miter;stroke-opacity:1"/>
<path class="bond-49 atom-45 atom-50" d="M 347.9,157.9 L 374.6,166.4" style="fill:none;fill-rule:evenodd;stroke:#000000;stroke-width:2.0px;stroke-linecap:butt;stroke-linejoin:miter;stroke-opacity:1"/>
<path class="bond-50 atom-50 atom-51" d="M 372.3,165.7 L 377.4,189.3" style="fill:none;fill-rule:evenodd;stroke:#000000;stroke-width:2.0px;stroke-linecap:butt;stroke-linejoin:miter;stroke-opacity:1"/>
<path class="bond-50 atom-50 atom-51" d="M 376.4,164.8 L 381.5,188.4" style="fill:none;fill-rule:evenodd;stroke:#000000;stroke-width:2.0px;stroke-linecap:butt;stroke-linejoin:miter;stroke-opacity:1"/>
<path class="bond-51 atom-50 atom-52" d="M 374.6,166.4 L 391.4,151.2" style="fill:none;fill-rule:evenodd;stroke:#000000;stroke-width:2.0px;stroke-linecap:butt;stroke-linejoin:miter;stroke-opacity:1"/>
<path class="bond-52 atom-52 atom-53" d="M 399.3,148.8 L 422.0,156.1" style="fill:none;fill-rule:evenodd;stroke:#000000;stroke-width:2.0px;stroke-linecap:butt;stroke-linejoin:miter;stroke-opacity:1"/>
<path class="bond-53 atom-53 atom-54" d="M 422.0,156.1 L 442.8,137.3" style="fill:none;fill-rule:evenodd;stroke:#000000;stroke-width:2.0px;stroke-linecap:butt;stroke-linejoin:miter;stroke-opacity:1"/>
<path class="bond-54 atom-54 atom-55" d="M 442.8,137.3 L 465.5,144.6" style="fill:none;fill-rule:evenodd;stroke:#000000;stroke-width:2.0px;stroke-linecap:butt;stroke-linejoin:miter;stroke-opacity:1"/>
<path class="bond-55 atom-54 atom-56" d="M 445.1,138.0 L 440.0,114.5" style="fill:none;fill-rule:evenodd;stroke:#000000;stroke-width:2.0px;stroke-linecap:butt;stroke-linejoin:miter;stroke-opacity:1"/>
<path class="bond-55 atom-54 atom-56" d="M 441.0,138.9 L 435.9,115.4" style="fill:none;fill-rule:evenodd;stroke:#000000;stroke-width:2.0px;stroke-linecap:butt;stroke-linejoin:miter;stroke-opacity:1"/>
<path class="bond-56 atom-33 atom-1" d="M 117.9,237.2 L 141.6,252.1" style="fill:none;fill-rule:evenodd;stroke:#000000;stroke-width:2.0px;stroke-linecap:butt;stroke-linejoin:miter;stroke-opacity:1"/>
<path class="bond-57 atom-41 atom-37" d="M 312.4,222.9 L 288.9,218.1" style="fill:none;fill-rule:evenodd;stroke:#000000;stroke-width:2.0px;stroke-linecap:butt;stroke-linejoin:miter;stroke-opacity:1"/>
<path d="M 143.0,252.4 L 141.6,252.1 L 140.4,251.4" style="fill:none;stroke:#000000;stroke-width:2.0px;stroke-linecap:butt;stroke-linejoin:miter;stroke-miterlimit:10;stroke-opacity:1;"/>
<path d="M 167.7,257.2 L 169.1,257.5 L 170.3,257.3" style="fill:none;stroke:#000000;stroke-width:2.0px;stroke-linecap:butt;stroke-linejoin:miter;stroke-miterlimit:10;stroke-opacity:1;"/>
<path d="M 237.0,216.7 L 237.7,215.8 L 238.1,214.4" style="fill:none;stroke:#000000;stroke-width:2.0px;stroke-linecap:butt;stroke-linejoin:miter;stroke-miterlimit:10;stroke-opacity:1;"/>
<path d="M 245.2,190.2 L 245.5,188.9 L 245.4,187.7" style="fill:none;stroke:#000000;stroke-width:2.0px;stroke-linecap:butt;stroke-linejoin:miter;stroke-miterlimit:10;stroke-opacity:1;"/>
<path d="M 231.4,136.8 L 230.9,135.8 L 229.9,134.8" style="fill:none;stroke:#000000;stroke-width:2.0px;stroke-linecap:butt;stroke-linejoin:miter;stroke-miterlimit:10;stroke-opacity:1;"/>
<path d="M 211.4,117.7 L 210.3,116.7 L 209.2,116.3" style="fill:none;stroke:#000000;stroke-width:2.0px;stroke-linecap:butt;stroke-linejoin:miter;stroke-miterlimit:10;stroke-opacity:1;"/>
<path d="M 212.9,69.6 L 212.2,68.2 L 211.0,68.2" style="fill:none;stroke:#000000;stroke-width:2.0px;stroke-linecap:butt;stroke-linejoin:miter;stroke-miterlimit:10;stroke-opacity:1;"/>
<path d="M 157.5,106.2 L 156.3,106.2 L 155.0,106.7" style="fill:none;stroke:#000000;stroke-width:2.0px;stroke-linecap:butt;stroke-linejoin:miter;stroke-miterlimit:10;stroke-opacity:1;"/>
<path d="M 131.4,115.6 L 130.1,116.1 L 129.2,116.9" style="fill:none;stroke:#000000;stroke-width:2.0px;stroke-linecap:butt;stroke-linejoin:miter;stroke-miterlimit:10;stroke-opacity:1;"/>
<path d="M 128.2,68.9 L 129.0,67.6 L 128.2,66.4" style="fill:none;stroke:#000000;stroke-width:2.0px;stroke-linecap:butt;stroke-linejoin:miter;stroke-miterlimit:10;stroke-opacity:1;"/>
<path d="M 115.1,44.8 L 114.4,43.6 L 114.9,42.7" style="fill:none;stroke:#000000;stroke-width:2.0px;stroke-linecap:butt;stroke-linejoin:miter;stroke-miterlimit:10;stroke-opacity:1;"/>
<path d="M 97.0,158.8 L 96.5,159.8 L 96.4,161.2" style="fill:none;stroke:#000000;stroke-width:2.0px;stroke-linecap:butt;stroke-linejoin:miter;stroke-miterlimit:10;stroke-opacity:1;"/>
<path d="M 93.9,186.3 L 93.7,187.7 L 92.3,187.8" style="fill:none;stroke:#000000;stroke-width:2.0px;stroke-linecap:butt;stroke-linejoin:miter;stroke-miterlimit:10;stroke-opacity:1;"/>
<path d="M 67.2,189.9 L 65.8,190.0 L 65.2,191.3" style="fill:none;stroke:#000000;stroke-width:2.0px;stroke-linecap:butt;stroke-linejoin:miter;stroke-miterlimit:10;stroke-opacity:1;"/>
<path d="M 54.5,214.1 L 53.9,215.4 L 52.5,215.5" style="fill:none;stroke:#000000;stroke-width:2.0px;stroke-linecap:butt;stroke-linejoin:miter;stroke-miterlimit:10;stroke-opacity:1;"/>
<path d="M 117.2,236.3 L 117.9,237.2 L 119.1,237.9" style="fill:none;stroke:#000000;stroke-width:2.0px;stroke-linecap:butt;stroke-linejoin:miter;stroke-miterlimit:10;stroke-opacity:1;"/>
<path d="M 271.6,240.6 L 271.0,241.6 L 272.0,242.6" style="fill:none;stroke:#000000;stroke-width:2.0px;stroke-linecap:butt;stroke-linejoin:miter;stroke-miterlimit:10;stroke-opacity:1;"/>
<path d="M 288.9,261.3 L 289.9,262.3 L 291.1,261.7" style="fill:none;stroke:#000000;stroke-width:2.0px;stroke-linecap:butt;stroke-linejoin:miter;stroke-miterlimit:10;stroke-opacity:1;"/>
<path d="M 314.1,251.4 L 315.4,250.8 L 315.3,249.4" style="fill:none;stroke:#000000;stroke-width:2.0px;stroke-linecap:butt;stroke-linejoin:miter;stroke-miterlimit:10;stroke-opacity:1;"/>
<path d="M 312.5,224.3 L 312.4,222.9 L 311.2,222.7" style="fill:none;stroke:#000000;stroke-width:2.0px;stroke-linecap:butt;stroke-linejoin:miter;stroke-miterlimit:10;stroke-opacity:1;"/>
<path d="M 347.1,158.6 L 347.9,157.9 L 349.2,158.3" style="fill:none;stroke:#000000;stroke-width:2.0px;stroke-linecap:butt;stroke-linejoin:miter;stroke-miterlimit:10;stroke-opacity:1;"/>
<path d="M 373.3,166.0 L 374.6,166.4 L 375.4,165.7" style="fill:none;stroke:#000000;stroke-width:2.0px;stroke-linecap:butt;stroke-linejoin:miter;stroke-miterlimit:10;stroke-opacity:1;"/>
<path d="M 420.9,155.8 L 422.0,156.1 L 423.0,155.2" style="fill:none;stroke:#000000;stroke-width:2.0px;stroke-linecap:butt;stroke-linejoin:miter;stroke-miterlimit:10;stroke-opacity:1;"/>
<path d="M 441.7,138.2 L 442.8,137.3 L 443.9,137.7" style="fill:none;stroke:#000000;stroke-width:2.0px;stroke-linecap:butt;stroke-linejoin:miter;stroke-miterlimit:10;stroke-opacity:1;"/>
<path class="atom-0" d="M 115.9 274.2 L 117.0 274.2 L 117.0 277.6 L 121.1 277.6 L 121.1 274.2 L 122.1 274.2 L 122.1 282.1 L 121.1 282.1 L 121.1 278.5 L 117.0 278.5 L 117.0 282.1 L 115.9 282.1 L 115.9 274.2 " fill="#000000"/>
<path class="atom-0" d="M 123.7 281.9 Q 123.9 281.4, 124.3 281.1 Q 124.8 280.8, 125.4 280.8 Q 126.2 280.8, 126.7 281.2 Q 127.1 281.7, 127.1 282.4 Q 127.1 283.2, 126.5 283.9 Q 126.0 284.7, 124.8 285.5 L 127.2 285.5 L 127.2 286.1 L 123.7 286.1 L 123.7 285.6 Q 124.7 284.9, 125.2 284.4 Q 125.8 283.9, 126.1 283.4 Q 126.4 282.9, 126.4 282.5 Q 126.4 282.0, 126.1 281.7 Q 125.9 281.4, 125.4 281.4 Q 125.0 281.4, 124.7 281.6 Q 124.5 281.7, 124.3 282.1 L 123.7 281.9 " fill="#000000"/>
<path class="atom-0" d="M 129.5 274.2 L 132.1 278.4 Q 132.4 278.8, 132.8 279.6 Q 133.2 280.3, 133.2 280.4 L 133.2 274.2 L 134.3 274.2 L 134.3 282.1 L 133.2 282.1 L 130.4 277.5 Q 130.1 277.0, 129.7 276.4 Q 129.4 275.8, 129.3 275.6 L 129.3 282.1 L 128.2 282.1 L 128.2 274.2 L 129.5 274.2 " fill="#000000"/>
<path class="atom-3" d="M 194.4 255.3 Q 194.5 255.3, 194.9 255.5 Q 195.2 255.6, 195.7 255.7 Q 196.1 255.8, 196.5 255.8 Q 197.2 255.8, 197.7 255.5 Q 198.1 255.1, 198.1 254.5 Q 198.1 254.0, 197.9 253.7 Q 197.7 253.5, 197.3 253.3 Q 197.0 253.2, 196.4 253.0 Q 195.7 252.8, 195.3 252.6 Q 194.9 252.4, 194.6 252.0 Q 194.3 251.5, 194.3 250.8 Q 194.3 249.8, 195.0 249.2 Q 195.6 248.6, 197.0 248.6 Q 197.9 248.6, 198.9 249.0 L 198.7 249.9 Q 197.7 249.5, 197.0 249.5 Q 196.2 249.5, 195.8 249.8 Q 195.4 250.1, 195.4 250.7 Q 195.4 251.1, 195.6 251.4 Q 195.8 251.6, 196.2 251.8 Q 196.5 251.9, 197.0 252.1 Q 197.7 252.3, 198.2 252.5 Q 198.6 252.8, 198.9 253.2 Q 199.2 253.7, 199.2 254.5 Q 199.2 255.5, 198.5 256.1 Q 197.7 256.7, 196.5 256.7 Q 195.8 256.7, 195.3 256.6 Q 194.7 256.4, 194.1 256.2 L 194.4 255.3 " fill="#000000"/>
<path class="atom-4" d="M 218.4 240.7 Q 218.4 240.8, 218.8 240.9 Q 219.2 241.1, 219.6 241.2 Q 220.0 241.3, 220.4 241.3 Q 221.2 241.3, 221.6 240.9 Q 222.0 240.5, 222.0 239.9 Q 222.0 239.5, 221.8 239.2 Q 221.6 238.9, 221.3 238.8 Q 220.9 238.6, 220.4 238.5 Q 219.7 238.2, 219.2 238.0 Q 218.8 237.8, 218.5 237.4 Q 218.2 237.0, 218.2 236.3 Q 218.2 235.3, 218.9 234.7 Q 219.6 234.0, 220.9 234.0 Q 221.8 234.0, 222.9 234.5 L 222.6 235.3 Q 221.7 234.9, 221.0 234.9 Q 220.2 234.9, 219.8 235.3 Q 219.3 235.6, 219.3 236.1 Q 219.3 236.6, 219.6 236.8 Q 219.8 237.1, 220.1 237.2 Q 220.4 237.4, 221.0 237.5 Q 221.7 237.8, 222.1 238.0 Q 222.5 238.2, 222.8 238.7 Q 223.1 239.1, 223.1 239.9 Q 223.1 241.0, 222.4 241.6 Q 221.7 242.2, 220.5 242.2 Q 219.7 242.2, 219.2 242.0 Q 218.7 241.9, 218.1 241.6 L 218.4 240.7 " fill="#000000"/>
<path class="atom-7" d="M 241.4 157.0 L 244.0 161.2 Q 244.3 161.6, 244.7 162.4 Q 245.1 163.1, 245.1 163.2 L 245.1 157.0 L 246.2 157.0 L 246.2 164.9 L 245.1 164.9 L 242.3 160.3 Q 242.0 159.8, 241.6 159.2 Q 241.3 158.6, 241.2 158.4 L 241.2 164.9 L 240.2 164.9 L 240.2 157.0 L 241.4 157.0 " fill="#000000"/>
<path class="atom-7" d="M 247.7 157.0 L 248.8 157.0 L 248.8 160.4 L 252.9 160.4 L 252.9 157.0 L 253.9 157.0 L 253.9 164.9 L 252.9 164.9 L 252.9 161.3 L 248.8 161.3 L 248.8 164.9 L 247.7 164.9 L 247.7 157.0 " fill="#000000"/>
<path class="atom-9" d="M 249.7 119.1 Q 249.7 117.2, 250.7 116.1 Q 251.6 115.1, 253.4 115.1 Q 255.1 115.1, 256.1 116.1 Q 257.0 117.2, 257.0 119.1 Q 257.0 121.0, 256.1 122.1 Q 255.1 123.2, 253.4 123.2 Q 251.6 123.2, 250.7 122.1 Q 249.7 121.0, 249.7 119.1 M 253.4 122.3 Q 254.6 122.3, 255.2 121.5 Q 255.9 120.7, 255.9 119.1 Q 255.9 117.5, 255.2 116.8 Q 254.6 116.0, 253.4 116.0 Q 252.2 116.0, 251.5 116.7 Q 250.9 117.5, 250.9 119.1 Q 250.9 120.7, 251.5 121.5 Q 252.2 122.3, 253.4 122.3 " fill="#000000"/>
<path class="atom-13" d="M 168.9 63.2 L 170.0 63.2 L 170.0 66.6 L 174.0 66.6 L 174.0 63.2 L 175.1 63.2 L 175.1 71.1 L 174.0 71.1 L 174.0 67.5 L 170.0 67.5 L 170.0 71.1 L 168.9 71.1 L 168.9 63.2 " fill="#000000"/>
<path class="atom-13" d="M 176.7 70.9 Q 176.9 70.4, 177.3 70.1 Q 177.8 69.8, 178.4 69.8 Q 179.2 69.8, 179.6 70.2 Q 180.1 70.7, 180.1 71.4 Q 180.1 72.2, 179.5 72.9 Q 178.9 73.6, 177.8 74.5 L 180.2 74.5 L 180.2 75.1 L 176.7 75.1 L 176.7 74.6 Q 177.6 73.9, 178.2 73.4 Q 178.8 72.9, 179.1 72.4 Q 179.4 71.9, 179.4 71.5 Q 179.4 71.0, 179.1 70.7 Q 178.8 70.4, 178.4 70.4 Q 178.0 70.4, 177.7 70.6 Q 177.4 70.7, 177.2 71.1 L 176.7 70.9 " fill="#000000"/>
<path class="atom-13" d="M 182.5 63.2 L 185.1 67.4 Q 185.3 67.8, 185.7 68.6 Q 186.2 69.3, 186.2 69.4 L 186.2 63.2 L 187.2 63.2 L 187.2 71.1 L 186.1 71.1 L 183.4 66.5 Q 183.0 66.0, 182.7 65.4 Q 182.3 64.8, 182.2 64.6 L 182.2 71.1 L 181.2 71.1 L 181.2 63.2 L 182.5 63.2 " fill="#000000"/>
<path class="atom-14" d="M 223.5 44.6 Q 223.5 42.7, 224.5 41.6 Q 225.4 40.5, 227.2 40.5 Q 228.9 40.5, 229.9 41.6 Q 230.8 42.7, 230.8 44.6 Q 230.8 46.5, 229.8 47.6 Q 228.9 48.7, 227.2 48.7 Q 225.4 48.7, 224.5 47.6 Q 223.5 46.5, 223.5 44.6 M 227.2 47.8 Q 228.4 47.8, 229.0 47.0 Q 229.7 46.2, 229.7 44.6 Q 229.7 43.0, 229.0 42.2 Q 228.4 41.4, 227.2 41.4 Q 225.9 41.4, 225.3 42.2 Q 224.6 43.0, 224.6 44.6 Q 224.6 46.2, 225.3 47.0 Q 225.9 47.8, 227.2 47.8 " fill="#000000"/>
<path class="atom-15" d="M 182.5 102.4 L 185.1 106.6 Q 185.4 107.1, 185.8 107.8 Q 186.2 108.6, 186.2 108.6 L 186.2 102.4 L 187.3 102.4 L 187.3 110.4 L 186.2 110.4 L 183.4 105.8 Q 183.1 105.2, 182.8 104.6 Q 182.4 104.0, 182.3 103.8 L 182.3 110.4 L 181.3 110.4 L 181.3 102.4 L 182.5 102.4 " fill="#000000"/>
<path class="atom-15" d="M 181.2 93.7 L 182.3 93.7 L 182.3 97.1 L 186.3 97.1 L 186.3 93.7 L 187.4 93.7 L 187.4 101.7 L 186.3 101.7 L 186.3 98.0 L 182.3 98.0 L 182.3 101.7 L 181.2 101.7 L 181.2 93.7 " fill="#000000"/>
<path class="atom-17" d="M 147.7 78.6 Q 147.7 76.7, 148.6 75.7 Q 149.6 74.6, 151.3 74.6 Q 153.1 74.6, 154.0 75.7 Q 155.0 76.7, 155.0 78.6 Q 155.0 80.6, 154.0 81.7 Q 153.1 82.7, 151.3 82.7 Q 149.6 82.7, 148.6 81.7 Q 147.7 80.6, 147.7 78.6 M 151.3 81.8 Q 152.6 81.8, 153.2 81.0 Q 153.9 80.2, 153.9 78.6 Q 153.9 77.1, 153.2 76.3 Q 152.6 75.5, 151.3 75.5 Q 150.1 75.5, 149.5 76.3 Q 148.8 77.1, 148.8 78.6 Q 148.8 80.2, 149.5 81.0 Q 150.1 81.8, 151.3 81.8 " fill="#000000"/>
<path class="atom-22" d="M 126.1 15.1 L 128.7 19.3 Q 129.0 19.7, 129.4 20.5 Q 129.8 21.2, 129.8 21.3 L 129.8 15.1 L 130.9 15.1 L 130.9 23.0 L 129.8 23.0 L 127.0 18.4 Q 126.7 17.9, 126.3 17.3 Q 126.0 16.7, 125.9 16.5 L 125.9 23.0 L 124.8 23.0 L 124.8 15.1 L 126.1 15.1 " fill="#000000"/>
<path class="atom-22" d="M 132.4 15.1 L 133.5 15.1 L 133.5 18.5 L 137.5 18.5 L 137.5 15.1 L 138.6 15.1 L 138.6 23.0 L 137.5 23.0 L 137.5 19.4 L 133.5 19.4 L 133.5 23.0 L 132.4 23.0 L 132.4 15.1 " fill="#000000"/>
<path class="atom-22" d="M 140.1 22.8 Q 140.3 22.3, 140.8 22.0 Q 141.2 21.7, 141.9 21.7 Q 142.7 21.7, 143.1 22.1 Q 143.6 22.6, 143.6 23.3 Q 143.6 24.1, 143.0 24.8 Q 142.4 25.6, 141.2 26.4 L 143.7 26.4 L 143.7 27.0 L 140.1 27.0 L 140.1 26.5 Q 141.1 25.8, 141.7 25.3 Q 142.3 24.8, 142.5 24.3 Q 142.8 23.8, 142.8 23.4 Q 142.8 22.9, 142.6 22.6 Q 142.3 22.3, 141.9 22.3 Q 141.5 22.3, 141.2 22.5 Q 140.9 22.6, 140.7 23.0 L 140.1 22.8 " fill="#000000"/>
<path class="atom-23" d="M 82.7 44.3 Q 82.7 42.4, 83.7 41.3 Q 84.6 40.3, 86.4 40.3 Q 88.1 40.3, 89.1 41.3 Q 90.0 42.4, 90.0 44.3 Q 90.0 46.2, 89.1 47.3 Q 88.1 48.4, 86.4 48.4 Q 84.6 48.4, 83.7 47.3 Q 82.7 46.2, 82.7 44.3 M 86.4 47.5 Q 87.6 47.5, 88.2 46.7 Q 88.9 45.9, 88.9 44.3 Q 88.9 42.8, 88.2 42.0 Q 87.6 41.2, 86.4 41.2 Q 85.2 41.2, 84.5 42.0 Q 83.9 42.7, 83.9 44.3 Q 83.9 45.9, 84.5 46.7 Q 85.2 47.5, 86.4 47.5 " fill="#000000"/>
<path class="atom-24" d="M 98.4 130.8 L 99.5 130.8 L 99.5 134.2 L 103.6 134.2 L 103.6 130.8 L 104.6 130.8 L 104.6 138.8 L 103.6 138.8 L 103.6 135.1 L 99.5 135.1 L 99.5 138.8 L 98.4 138.8 L 98.4 130.8 " fill="#000000"/>
<path class="atom-24" d="M 107.5 130.8 L 110.1 135.1 Q 110.3 135.5, 110.7 136.2 Q 111.1 137.0, 111.2 137.0 L 111.2 130.8 L 112.2 130.8 L 112.2 138.8 L 111.1 138.8 L 108.3 134.2 Q 108.0 133.6, 107.7 133.0 Q 107.3 132.4, 107.2 132.2 L 107.2 138.8 L 106.2 138.8 L 106.2 130.8 L 107.5 130.8 " fill="#000000"/>
<path class="atom-26" d="M 66.0 151.9 Q 66.0 150.0, 66.9 149.0 Q 67.9 147.9, 69.6 147.9 Q 71.4 147.9, 72.3 149.0 Q 73.3 150.0, 73.3 151.9 Q 73.3 153.9, 72.3 155.0 Q 71.4 156.1, 69.6 156.1 Q 67.9 156.1, 66.9 155.0 Q 66.0 153.9, 66.0 151.9 M 69.6 155.2 Q 70.8 155.2, 71.5 154.3 Q 72.2 153.5, 72.2 151.9 Q 72.2 150.4, 71.5 149.6 Q 70.8 148.8, 69.6 148.8 Q 68.4 148.8, 67.8 149.6 Q 67.1 150.4, 67.1 151.9 Q 67.1 153.5, 67.8 154.3 Q 68.4 155.2, 69.6 155.2 " fill="#000000"/>
<path class="atom-32" d="M 90.4 210.7 L 91.5 210.7 L 91.5 214.1 L 95.5 214.1 L 95.5 210.7 L 96.6 210.7 L 96.6 218.7 L 95.5 218.7 L 95.5 215.0 L 91.5 215.0 L 91.5 218.7 L 90.4 218.7 L 90.4 210.7 " fill="#000000"/>
<path class="atom-32" d="M 99.4 210.7 L 102.0 214.9 Q 102.3 215.3, 102.7 216.1 Q 103.1 216.8, 103.1 216.9 L 103.1 210.7 L 104.2 210.7 L 104.2 218.7 L 103.1 218.7 L 100.3 214.1 Q 100.0 213.5, 99.6 212.9 Q 99.3 212.3, 99.2 212.1 L 99.2 218.7 L 98.2 218.7 L 98.2 210.7 L 99.4 210.7 " fill="#000000"/>
<path class="atom-34" d="M 95.2 257.8 Q 95.2 255.9, 96.1 254.8 Q 97.1 253.7, 98.8 253.7 Q 100.6 253.7, 101.5 254.8 Q 102.5 255.9, 102.5 257.8 Q 102.5 259.7, 101.5 260.8 Q 100.6 261.9, 98.8 261.9 Q 97.1 261.9, 96.1 260.8 Q 95.2 259.7, 95.2 257.8 M 98.8 261.0 Q 100.0 261.0, 100.7 260.2 Q 101.4 259.3, 101.4 257.8 Q 101.4 256.2, 100.7 255.4 Q 100.0 254.6, 98.8 254.6 Q 97.6 254.6, 97.0 255.4 Q 96.3 256.2, 96.3 257.8 Q 96.3 259.4, 97.0 260.2 Q 97.6 261.0, 98.8 261.0 " fill="#000000"/>
<path class="atom-36" d="M 286.2 169.0 Q 286.2 167.1, 287.1 166.0 Q 288.0 164.9, 289.8 164.9 Q 291.6 164.9, 292.5 166.0 Q 293.4 167.1, 293.4 169.0 Q 293.4 170.9, 292.5 172.0 Q 291.5 173.1, 289.8 173.1 Q 288.0 173.1, 287.1 172.0 Q 286.2 170.9, 286.2 169.0 M 289.8 172.2 Q 291.0 172.2, 291.7 171.4 Q 292.3 170.6, 292.3 169.0 Q 292.3 167.4, 291.7 166.6 Q 291.0 165.8, 289.8 165.8 Q 288.6 165.8, 287.9 166.6 Q 287.3 167.4, 287.3 169.0 Q 287.3 170.6, 287.9 171.4 Q 288.6 172.2, 289.8 172.2 " fill="#000000"/>
<path class="atom-37" d="M 283.2 213.3 L 285.8 217.5 Q 286.0 217.9, 286.5 218.6 Q 286.9 219.4, 286.9 219.4 L 286.9 213.3 L 287.9 213.3 L 287.9 221.2 L 286.9 221.2 L 284.1 216.6 Q 283.7 216.1, 283.4 215.5 Q 283.1 214.8, 283.0 214.6 L 283.0 221.2 L 281.9 221.2 L 281.9 213.3 L 283.2 213.3 " fill="#000000"/>
<path class="atom-43" d="M 356.1 212.7 Q 356.1 210.8, 357.1 209.7 Q 358.0 208.6, 359.8 208.6 Q 361.5 208.6, 362.5 209.7 Q 363.4 210.8, 363.4 212.7 Q 363.4 214.6, 362.5 215.7 Q 361.5 216.8, 359.8 216.8 Q 358.0 216.8, 357.1 215.7 Q 356.1 214.6, 356.1 212.7 M 359.8 215.9 Q 361.0 215.9, 361.7 215.1 Q 362.3 214.3, 362.3 212.7 Q 362.3 211.1, 361.7 210.3 Q 361.0 209.5, 359.8 209.5 Q 358.6 209.5, 357.9 210.3 Q 357.3 211.1, 357.3 212.7 Q 357.3 214.3, 357.9 215.1 Q 358.6 215.9, 359.8 215.9 " fill="#000000"/>
<path class="atom-44" d="M 316.4 172.8 L 317.5 172.8 L 317.5 176.1 L 321.5 176.1 L 321.5 172.8 L 322.6 172.8 L 322.6 180.7 L 321.5 180.7 L 321.5 177.0 L 317.5 177.0 L 317.5 180.7 L 316.4 180.7 L 316.4 172.8 " fill="#000000"/>
<path class="atom-44" d="M 325.4 172.8 L 328.0 177.0 Q 328.3 177.4, 328.7 178.1 Q 329.1 178.9, 329.1 178.9 L 329.1 172.8 L 330.2 172.8 L 330.2 180.7 L 329.1 180.7 L 326.3 176.1 Q 326.0 175.6, 325.6 174.9 Q 325.3 174.3, 325.2 174.1 L 325.2 180.7 L 324.2 180.7 L 324.2 172.8 L 325.4 172.8 " fill="#000000"/>
<path class="atom-51" d="M 376.9 193.8 Q 376.9 191.9, 377.8 190.9 Q 378.8 189.8, 380.5 189.8 Q 382.3 189.8, 383.2 190.9 Q 384.2 191.9, 384.2 193.8 Q 384.2 195.8, 383.2 196.9 Q 382.3 197.9, 380.5 197.9 Q 378.8 197.9, 377.8 196.9 Q 376.9 195.8, 376.9 193.8 M 380.5 197.0 Q 381.7 197.0, 382.4 196.2 Q 383.1 195.4, 383.1 193.8 Q 383.1 192.3, 382.4 191.5 Q 381.7 190.7, 380.5 190.7 Q 379.3 190.7, 378.7 191.5 Q 378.0 192.3, 378.0 193.8 Q 378.0 195.4, 378.7 196.2 Q 379.3 197.0, 380.5 197.0 " fill="#000000"/>
<path class="atom-52" d="M 393.6 143.6 L 396.2 147.8 Q 396.4 148.2, 396.8 149.0 Q 397.3 149.7, 397.3 149.8 L 397.3 143.6 L 398.3 143.6 L 398.3 151.6 L 397.2 151.6 L 394.5 147.0 Q 394.1 146.4, 393.8 145.8 Q 393.4 145.2, 393.3 145.0 L 393.3 151.6 L 392.3 151.6 L 392.3 143.6 L 393.6 143.6 " fill="#000000"/>
<path class="atom-52" d="M 392.2 134.9 L 393.3 134.9 L 393.3 138.3 L 397.4 138.3 L 397.4 134.9 L 398.4 134.9 L 398.4 142.8 L 397.4 142.8 L 397.4 139.2 L 393.3 139.2 L 393.3 142.8 L 392.2 142.8 L 392.2 134.9 " fill="#000000"/>
<path class="atom-55" d="M 467.7 141.9 L 470.3 146.1 Q 470.5 146.5, 471.0 147.2 Q 471.4 148.0, 471.4 148.0 L 471.4 141.9 L 472.4 141.9 L 472.4 149.8 L 471.4 149.8 L 468.6 145.2 Q 468.2 144.7, 467.9 144.1 Q 467.6 143.4, 467.5 143.2 L 467.5 149.8 L 466.4 149.8 L 466.4 141.9 L 467.7 141.9 " fill="#000000"/>
<path class="atom-55" d="M 474.0 141.9 L 475.0 141.9 L 475.0 145.2 L 479.1 145.2 L 479.1 141.9 L 480.2 141.9 L 480.2 149.8 L 479.1 149.8 L 479.1 146.1 L 475.0 146.1 L 475.0 149.8 L 474.0 149.8 L 474.0 141.9 " fill="#000000"/>
<path class="atom-55" d="M 481.7 149.5 Q 481.9 149.0, 482.4 148.8 Q 482.8 148.5, 483.5 148.5 Q 484.3 148.5, 484.7 148.9 Q 485.2 149.3, 485.2 150.1 Q 485.2 150.9, 484.6 151.6 Q 484.0 152.3, 482.8 153.2 L 485.2 153.2 L 485.2 153.8 L 481.7 153.8 L 481.7 153.3 Q 482.7 152.6, 483.3 152.1 Q 483.8 151.5, 484.1 151.1 Q 484.4 150.6, 484.4 150.1 Q 484.4 149.6, 484.2 149.3 Q 483.9 149.1, 483.5 149.1 Q 483.0 149.1, 482.8 149.2 Q 482.5 149.4, 482.3 149.8 L 481.7 149.5 " fill="#000000"/>
<path class="atom-56" d="M 433.2 109.9 Q 433.2 108.0, 434.1 107.0 Q 435.0 105.9, 436.8 105.9 Q 438.6 105.9, 439.5 107.0 Q 440.4 108.0, 440.4 109.9 Q 440.4 111.9, 439.5 113.0 Q 438.5 114.0, 436.8 114.0 Q 435.1 114.0, 434.1 113.0 Q 433.2 111.9, 433.2 109.9 M 436.8 113.1 Q 438.0 113.1, 438.7 112.3 Q 439.3 111.5, 439.3 109.9 Q 439.3 108.4, 438.7 107.6 Q 438.0 106.8, 436.8 106.8 Q 435.6 106.8, 434.9 107.6 Q 434.3 108.4, 434.3 109.9 Q 434.3 111.5, 434.9 112.3 Q 435.6 113.1, 436.8 113.1 " fill="#000000"/>
</svg>