<?xml version='1.0' encoding='utf-8'?>
<svg xmlns="http://www.w3.org/2000/svg" xmlns:rdkit="http://www.rdkit.org/xml" xmlns:xlink="http://www.w3.org/1999/xlink" version="1.1" baseProfile="full" xml:space="preserve" width="512px" height="279px" viewBox="0 0 512 279">

<rect style="opacity:1.0;fill:#FFFFFF;stroke:none" width="512.0" height="279.0" x="0.0" y="0.0"> </rect>
<path class="bond-0 atom-0 atom-1" d="M 70.2,118.3 L 104.7,177.5" style="fill:none;fill-rule:evenodd;stroke:#000000;stroke-width:2.0px;stroke-linecap:butt;stroke-linejoin:miter;stroke-opacity:1"/>
<path class="bond-1 atom-1 atom-2" d="M 104.7,177.5 L 191.4,177.2" style="fill:none;fill-rule:evenodd;stroke:#000000;stroke-width:2.0px;stroke-linecap:butt;stroke-linejoin:miter;stroke-opacity:1"/>
<path class="bond-2 atom-2 atom-3" d="M 191.4,177.2 L 234.4,102.0" style="fill:none;fill-rule:evenodd;stroke:#000000;stroke-width:2.0px;stroke-linecap:butt;stroke-linejoin:miter;stroke-opacity:1"/>
<path class="bond-2 atom-2 atom-3" d="M 206.4,177.1 L 242.0,114.9" style="fill:none;fill-rule:evenodd;stroke:#000000;stroke-width:2.0px;stroke-linecap:butt;stroke-linejoin:miter;stroke-opacity:1"/>
<path class="bond-3 atom-3 atom-4" d="M 234.4,102.0 L 321.1,101.7" style="fill:none;fill-rule:evenodd;stroke:#000000;stroke-width:2.0px;stroke-linecap:butt;stroke-linejoin:miter;stroke-opacity:1"/>
<path class="bond-4 atom-4 atom-5" d="M 324.8,108.1 L 360.8,45.3" style="fill:none;fill-rule:evenodd;stroke:#000000;stroke-width:2.0px;stroke-linecap:butt;stroke-linejoin:miter;stroke-opacity:1"/>
<path class="bond-4 atom-4 atom-5" d="M 313.6,101.7 L 349.5,38.9" style="fill:none;fill-rule:evenodd;stroke:#000000;stroke-width:2.0px;stroke-linecap:butt;stroke-linejoin:miter;stroke-opacity:1"/>
<path class="bond-5 atom-4 atom-6" d="M 321.1,101.7 L 364.7,176.5" style="fill:none;fill-rule:evenodd;stroke:#000000;stroke-width:2.0px;stroke-linecap:butt;stroke-linejoin:miter;stroke-opacity:1"/>
<path class="bond-6 atom-6 atom-7" d="M 364.7,176.5 L 437.2,176.3" style="fill:none;fill-rule:evenodd;stroke:#000000;stroke-width:2.0px;stroke-linecap:butt;stroke-linejoin:miter;stroke-opacity:1"/>
<path class="bond-7 atom-6 atom-8" d="M 364.7,176.5 L 321.6,251.7" style="fill:none;fill-rule:evenodd;stroke:#000000;stroke-width:2.0px;stroke-linecap:butt;stroke-linejoin:miter;stroke-opacity:1"/>
<path class="bond-7 atom-6 atom-8" d="M 349.7,176.6 L 314.1,238.8" style="fill:none;fill-rule:evenodd;stroke:#000000;stroke-width:2.0px;stroke-linecap:butt;stroke-linejoin:miter;stroke-opacity:1"/>
<path class="bond-8 atom-8 atom-9" d="M 321.6,251.7 L 249.1,252.0" style="fill:none;fill-rule:evenodd;stroke:#000000;stroke-width:2.0px;stroke-linecap:butt;stroke-linejoin:miter;stroke-opacity:1"/>
<path class="bond-9 atom-9 atom-2" d="M 226.1,236.8 L 191.4,177.2" style="fill:none;fill-rule:evenodd;stroke:#000000;stroke-width:2.0px;stroke-linecap:butt;stroke-linejoin:miter;stroke-opacity:1"/>
<path d="M 103.0,174.5 L 104.7,177.5 L 109.0,177.5" style="fill:none;stroke:#000000;stroke-width:2.0px;stroke-linecap:butt;stroke-linejoin:miter;stroke-miterlimit:10;stroke-opacity:1;"/>
<path d="M 232.3,105.7 L 234.4,102.0 L 238.7,102.0" style="fill:none;stroke:#000000;stroke-width:2.0px;stroke-linecap:butt;stroke-linejoin:miter;stroke-miterlimit:10;stroke-opacity:1;"/>
<path d="M 316.7,101.7 L 321.1,101.7 L 323.2,105.4" style="fill:none;stroke:#000000;stroke-width:2.0px;stroke-linecap:butt;stroke-linejoin:miter;stroke-miterlimit:10;stroke-opacity:1;"/>
<path d="M 323.8,248.0 L 321.6,251.7 L 318.0,251.8" style="fill:none;stroke:#000000;stroke-width:2.0px;stroke-linecap:butt;stroke-linejoin:miter;stroke-miterlimit:10;stroke-opacity:1;"/>
<path class="atom-0" d="M 25.6 90.5 L 28.9 90.5 L 28.9 100.9 L 41.5 100.9 L 41.5 90.5 L 44.8 90.5 L 44.8 115.0 L 41.5 115.0 L 41.5 103.7 L 28.9 103.7 L 28.9 115.0 L 25.6 115.0 L 25.6 90.5 " fill="#000000"/>
<path class="atom-0" d="M 49.8 102.7 Q 49.8 96.8, 52.7 93.5 Q 55.7 90.2, 61.1 90.2 Q 66.5 90.2, 69.5 93.5 Q 72.4 96.8, 72.4 102.7 Q 72.4 108.6, 69.4 112.0 Q 66.5 115.4, 61.1 115.4 Q 55.7 115.4, 52.7 112.0 Q 49.8 108.7, 49.8 102.7 M 61.1 112.6 Q 64.8 112.6, 66.9 110.1 Q 68.9 107.6, 68.9 102.7 Q 68.9 97.9, 66.9 95.4 Q 64.8 93.0, 61.1 93.0 Q 57.4 93.0, 55.3 95.4 Q 53.3 97.8, 53.3 102.7 Q 53.3 107.6, 55.3 110.1 Q 57.4 112.6, 61.1 112.6 " fill="#000000"/>
<path class="atom-5" d="M 352.9 26.5 Q 352.9 20.6, 355.8 17.3 Q 358.7 14.0, 364.1 14.0 Q 369.6 14.0, 372.5 17.3 Q 375.4 20.6, 375.4 26.5 Q 375.4 32.5, 372.4 35.9 Q 369.5 39.2, 364.1 39.2 Q 358.7 39.2, 355.8 35.9 Q 352.9 32.5, 352.9 26.5 M 364.1 36.5 Q 367.9 36.5, 369.9 34.0 Q 371.9 31.4, 371.9 26.5 Q 371.9 21.7, 369.9 19.3 Q 367.9 16.8, 364.1 16.8 Q 360.4 16.8, 358.3 19.2 Q 356.3 21.7, 356.3 26.5 Q 356.3 31.5, 358.3 34.0 Q 360.4 36.5, 364.1 36.5 " fill="#000000"/>
<path class="atom-7" d="M 440.0 176.3 Q 440.0 170.4, 443.0 167.1 Q 445.9 163.8, 451.3 163.8 Q 456.8 163.8, 459.7 167.1 Q 462.6 170.4, 462.6 176.3 Q 462.6 182.3, 459.6 185.7 Q 456.7 189.0, 451.3 189.0 Q 445.9 189.0, 443.0 185.7 Q 440.0 182.3, 440.0 176.3 M 451.3 186.2 Q 455.1 186.2, 457.1 183.8 Q 459.1 181.2, 459.1 176.3 Q 459.1 171.5, 457.1 169.1 Q 455.1 166.6, 451.3 166.6 Q 447.6 166.6, 445.5 169.0 Q 443.5 171.4, 443.5 176.3 Q 443.5 181.3, 445.5 183.8 Q 447.6 186.2, 451.3 186.2 " fill="#000000"/>
<path class="atom-7" d="M 466.4 164.1 L 469.7 164.1 L 469.7 174.5 L 482.3 174.5 L 482.3 164.1 L 485.6 164.1 L 485.6 188.6 L 482.3 188.6 L 482.3 177.3 L 469.7 177.3 L 469.7 188.6 L 466.4 188.6 L 466.4 164.1 " fill="#000000"/>
<path class="atom-9" d="M 223.7 252.1 Q 223.7 246.2, 226.6 242.9 Q 229.5 239.7, 235.0 239.7 Q 240.4 239.7, 243.3 242.9 Q 246.2 246.2, 246.2 252.1 Q 246.2 258.1, 243.3 261.5 Q 240.3 264.9, 235.0 264.9 Q 229.5 264.9, 226.6 261.5 Q 223.7 258.1, 223.7 252.1 M 235.0 262.1 Q 238.7 262.1, 240.7 259.6 Q 242.7 257.1, 242.7 252.1 Q 242.7 247.3, 240.7 244.9 Q 238.7 242.4, 235.0 242.4 Q 231.2 242.4, 229.2 244.9 Q 227.2 247.3, 227.2 252.1 Q 227.2 257.1, 229.2 259.6 Q 231.2 262.1, 235.0 262.1 " fill="#000000"/>
</svg>