<?xml version='1.0' encoding='utf-8'?>
<svg xmlns="http://www.w3.org/2000/svg" xmlns:rdkit="http://www.rdkit.org/xml" xmlns:xlink="http://www.w3.org/1999/xlink" version="1.1" baseProfile="full" xml:space="preserve" width="512px" height="248px" viewBox="0 0 512 248">

<rect style="opacity:1.0;fill:#FFFFFF;stroke:none" width="512.0" height="248.0" x="0.0" y="0.0"> </rect>
<path class="bond-0 atom-0 atom-1" d="M 485.2,36.2 L 460.3,93.3" style="fill:none;fill-rule:evenodd;stroke:#000000;stroke-width:2.0px;stroke-linecap:butt;stroke-linejoin:miter;stroke-opacity:1"/>
<path class="bond-1 atom-1 atom-2" d="M 460.3,93.3 L 398.4,100.4" style="fill:none;fill-rule:evenodd;stroke:#000000;stroke-width:2.0px;stroke-linecap:butt;stroke-linejoin:miter;stroke-opacity:1"/>
<path class="bond-2 atom-2 atom-3" d="M 398.4,100.4 L 373.5,157.6" style="fill:none;fill-rule:evenodd;stroke:#000000;stroke-width:2.0px;stroke-linecap:butt;stroke-linejoin:miter;stroke-opacity:1"/>
<path class="bond-3 atom-3 atom-4" d="M 373.5,157.6 L 319.3,163.7" style="fill:none;fill-rule:evenodd;stroke:#000000;stroke-width:2.0px;stroke-linecap:butt;stroke-linejoin:miter;stroke-opacity:1"/>
<path class="bond-4 atom-4 atom-5" d="M 315.0,153.2 L 310.4,113.4" style="fill:none;fill-rule:evenodd;stroke:#000000;stroke-width:2.0px;stroke-linecap:butt;stroke-linejoin:miter;stroke-opacity:1"/>
<path class="bond-4 atom-4 atom-5" d="M 305.7,154.3 L 301.1,114.5" style="fill:none;fill-rule:evenodd;stroke:#000000;stroke-width:2.0px;stroke-linecap:butt;stroke-linejoin:miter;stroke-opacity:1"/>
<path class="bond-5 atom-4 atom-6" d="M 308.2,176.5 L 312.7,216.2" style="fill:none;fill-rule:evenodd;stroke:#000000;stroke-width:2.0px;stroke-linecap:butt;stroke-linejoin:miter;stroke-opacity:1"/>
<path class="bond-5 atom-4 atom-6" d="M 317.5,175.4 L 322.0,215.2" style="fill:none;fill-rule:evenodd;stroke:#000000;stroke-width:2.0px;stroke-linecap:butt;stroke-linejoin:miter;stroke-opacity:1"/>
<path class="bond-6 atom-4 atom-7" d="M 303.8,165.5 L 249.6,171.7" style="fill:none;fill-rule:evenodd;stroke:#000000;stroke-width:2.0px;stroke-linecap:butt;stroke-linejoin:miter;stroke-opacity:1"/>
<path class="bond-7 atom-7 atom-8" d="M 249.6,171.7 L 212.5,121.6" style="fill:none;fill-rule:evenodd;stroke:#000000;stroke-width:2.0px;stroke-linecap:butt;stroke-linejoin:miter;stroke-opacity:1"/>
<path class="bond-8 atom-8 atom-9" d="M 212.5,121.6 L 150.6,128.6" style="fill:none;fill-rule:evenodd;stroke:#000000;stroke-width:2.0px;stroke-linecap:butt;stroke-linejoin:miter;stroke-opacity:1"/>
<path class="bond-9 atom-9 atom-10" d="M 150.6,128.6 L 113.5,78.5" style="fill:none;fill-rule:evenodd;stroke:#000000;stroke-width:2.0px;stroke-linecap:butt;stroke-linejoin:miter;stroke-opacity:1"/>
<path class="bond-10 atom-10 atom-11" d="M 116.7,82.8 L 137.8,34.5" style="fill:none;fill-rule:evenodd;stroke:#000000;stroke-width:2.0px;stroke-linecap:butt;stroke-linejoin:miter;stroke-opacity:1"/>
<path class="bond-10 atom-10 atom-11" d="M 108.1,79.1 L 129.2,30.7" style="fill:none;fill-rule:evenodd;stroke:#000000;stroke-width:2.0px;stroke-linecap:butt;stroke-linejoin:miter;stroke-opacity:1"/>
<path class="bond-11 atom-10 atom-12" d="M 113.5,78.5 L 61.7,84.4" style="fill:none;fill-rule:evenodd;stroke:#000000;stroke-width:2.0px;stroke-linecap:butt;stroke-linejoin:miter;stroke-opacity:1"/>
<path class="bond-12 atom-9 atom-13" d="M 150.6,128.6 L 130.5,174.9" style="fill:none;fill-rule:evenodd;stroke:#000000;stroke-width:2.0px;stroke-linecap:butt;stroke-linejoin:miter;stroke-opacity:1"/>
<path d="M 461.6,90.5 L 460.3,93.3 L 457.2,93.7" style="fill:none;stroke:#000000;stroke-width:2.0px;stroke-linecap:butt;stroke-linejoin:miter;stroke-miterlimit:10;stroke-opacity:1;"/>
<path d="M 401.5,100.0 L 398.4,100.4 L 397.1,103.3" style="fill:none;stroke:#000000;stroke-width:2.0px;stroke-linecap:butt;stroke-linejoin:miter;stroke-miterlimit:10;stroke-opacity:1;"/>
<path d="M 374.8,154.7 L 373.5,157.6 L 370.8,157.9" style="fill:none;stroke:#000000;stroke-width:2.0px;stroke-linecap:butt;stroke-linejoin:miter;stroke-miterlimit:10;stroke-opacity:1;"/>
<path d="M 252.3,171.4 L 249.6,171.7 L 247.8,169.2" style="fill:none;stroke:#000000;stroke-width:2.0px;stroke-linecap:butt;stroke-linejoin:miter;stroke-miterlimit:10;stroke-opacity:1;"/>
<path d="M 214.4,124.1 L 212.5,121.6 L 209.4,121.9" style="fill:none;stroke:#000000;stroke-width:2.0px;stroke-linecap:butt;stroke-linejoin:miter;stroke-miterlimit:10;stroke-opacity:1;"/>
<path d="M 115.4,81.0 L 113.5,78.5 L 110.9,78.8" style="fill:none;stroke:#000000;stroke-width:2.0px;stroke-linecap:butt;stroke-linejoin:miter;stroke-miterlimit:10;stroke-opacity:1;"/>
<path class="atom-4" d="M 306.6 170.7 Q 306.8 170.8, 307.6 171.1 Q 308.4 171.5, 309.3 171.7 Q 310.2 171.9, 311.1 171.9 Q 312.8 171.9, 313.8 171.1 Q 314.8 170.3, 314.8 168.8 Q 314.8 167.9, 314.3 167.3 Q 313.8 166.7, 313.0 166.3 Q 312.3 166.0, 311.0 165.6 Q 309.5 165.2, 308.5 164.7 Q 307.6 164.3, 306.9 163.3 Q 306.3 162.4, 306.3 160.8 Q 306.3 158.6, 307.8 157.2 Q 309.3 155.8, 312.3 155.8 Q 314.3 155.8, 316.7 156.8 L 316.1 158.7 Q 314.0 157.8, 312.4 157.8 Q 310.6 157.8, 309.7 158.6 Q 308.8 159.3, 308.8 160.5 Q 308.8 161.4, 309.2 162.0 Q 309.7 162.6, 310.4 162.9 Q 311.2 163.2, 312.4 163.6 Q 314.0 164.1, 314.9 164.6 Q 315.9 165.1, 316.5 166.1 Q 317.2 167.1, 317.2 168.8 Q 317.2 171.3, 315.6 172.6 Q 314.0 173.9, 311.2 173.9 Q 309.7 173.9, 308.5 173.6 Q 307.3 173.2, 305.9 172.7 L 306.6 170.7 " fill="#000000"/>
<path class="atom-5" d="M 296.4 102.7 Q 296.4 98.5, 298.5 96.1 Q 300.6 93.8, 304.5 93.8 Q 308.4 93.8, 310.5 96.1 Q 312.6 98.5, 312.6 102.7 Q 312.6 107.0, 310.5 109.5 Q 308.4 111.9, 304.5 111.9 Q 300.6 111.9, 298.5 109.5 Q 296.4 107.0, 296.4 102.7 M 304.5 109.9 Q 307.2 109.9, 308.7 108.1 Q 310.1 106.3, 310.1 102.7 Q 310.1 99.3, 308.7 97.5 Q 307.2 95.7, 304.5 95.7 Q 301.8 95.7, 300.3 97.5 Q 298.9 99.2, 298.9 102.7 Q 298.9 106.3, 300.3 108.1 Q 301.8 109.9, 304.5 109.9 " fill="#000000"/>
<path class="atom-6" d="M 314.7 217.7 L 320.5 227.1 Q 321.1 228.0, 322.0 229.7 Q 322.9 231.4, 323.0 231.5 L 323.0 217.7 L 325.3 217.7 L 325.3 235.4 L 322.9 235.4 L 316.7 225.2 Q 316.0 224.0, 315.2 222.6 Q 314.4 221.2, 314.2 220.8 L 314.2 235.4 L 311.9 235.4 L 311.9 217.7 L 314.7 217.7 " fill="#000000"/>
<path class="atom-6" d="M 328.8 217.7 L 331.1 217.7 L 331.1 225.2 L 340.2 225.2 L 340.2 217.7 L 342.6 217.7 L 342.6 235.4 L 340.2 235.4 L 340.2 227.2 L 331.1 227.2 L 331.1 235.4 L 328.8 235.4 L 328.8 217.7 " fill="#000000"/>
<path class="atom-11" d="M 130.3 21.4 Q 130.3 17.1, 132.4 14.8 Q 134.5 12.4, 138.4 12.4 Q 142.3 12.4, 144.4 14.8 Q 146.5 17.1, 146.5 21.4 Q 146.5 25.7, 144.4 28.1 Q 142.2 30.5, 138.4 30.5 Q 134.5 30.5, 132.4 28.1 Q 130.3 25.7, 130.3 21.4 M 138.4 28.5 Q 141.1 28.5, 142.5 26.7 Q 144.0 24.9, 144.0 21.4 Q 144.0 17.9, 142.5 16.2 Q 141.1 14.4, 138.4 14.4 Q 135.7 14.4, 134.2 16.1 Q 132.8 17.9, 132.8 21.4 Q 132.8 24.9, 134.2 26.7 Q 135.7 28.5, 138.4 28.5 " fill="#000000"/>
<path class="atom-12" d="M 26.0 76.8 L 28.4 76.8 L 28.4 84.3 L 37.4 84.3 L 37.4 76.8 L 39.8 76.8 L 39.8 94.5 L 37.4 94.5 L 37.4 86.3 L 28.4 86.3 L 28.4 94.5 L 26.0 94.5 L 26.0 76.8 " fill="#000000"/>
<path class="atom-12" d="M 43.5 85.6 Q 43.5 81.4, 45.5 79.0 Q 47.6 76.6, 51.6 76.6 Q 55.5 76.6, 57.6 79.0 Q 59.7 81.4, 59.7 85.6 Q 59.7 89.9, 57.5 92.3 Q 55.4 94.8, 51.6 94.8 Q 47.7 94.8, 45.5 92.3 Q 43.5 89.9, 43.5 85.6 M 51.6 92.8 Q 54.3 92.8, 55.7 91.0 Q 57.2 89.2, 57.2 85.6 Q 57.2 82.1, 55.7 80.4 Q 54.3 78.6, 51.6 78.6 Q 48.9 78.6, 47.4 80.4 Q 45.9 82.1, 45.9 85.6 Q 45.9 89.2, 47.4 91.0 Q 48.9 92.8, 51.6 92.8 " fill="#000000"/>
<path class="atom-13" d="M 91.7 177.0 L 94.0 177.0 L 94.0 184.5 L 103.1 184.5 L 103.1 177.0 L 105.5 177.0 L 105.5 194.6 L 103.1 194.6 L 103.1 186.5 L 94.0 186.5 L 94.0 194.6 L 91.7 194.6 L 91.7 177.0 " fill="#000000"/>
<path class="atom-13" d="M 108.9 194.0 Q 109.4 192.9, 110.4 192.3 Q 111.4 191.7, 112.8 191.7 Q 114.6 191.7, 115.6 192.6 Q 116.5 193.6, 116.5 195.3 Q 116.5 197.0, 115.3 198.6 Q 114.0 200.2, 111.4 202.1 L 116.7 202.1 L 116.7 203.5 L 108.9 203.5 L 108.9 202.4 Q 111.1 200.8, 112.3 199.7 Q 113.6 198.5, 114.3 197.5 Q 114.9 196.4, 114.9 195.4 Q 114.9 194.2, 114.3 193.6 Q 113.8 193.0, 112.8 193.0 Q 111.9 193.0, 111.2 193.4 Q 110.6 193.7, 110.2 194.6 L 108.9 194.0 " fill="#000000"/>
<path class="atom-13" d="M 121.8 177.0 L 127.6 186.3 Q 128.2 187.2, 129.1 188.9 Q 130.0 190.6, 130.1 190.7 L 130.1 177.0 L 132.4 177.0 L 132.4 194.6 L 130.0 194.6 L 123.8 184.4 Q 123.1 183.2, 122.3 181.8 Q 121.6 180.5, 121.3 180.0 L 121.3 194.6 L 119.0 194.6 L 119.0 177.0 L 121.8 177.0 " fill="#000000"/>
</svg>