<?xml version='1.0' encoding='utf-8'?>
<svg xmlns="http://www.w3.org/2000/svg" xmlns:rdkit="http://www.rdkit.org/xml" xmlns:xlink="http://www.w3.org/1999/xlink" version="1.1" baseProfile="full" xml:space="preserve" width="512px" height="319px" viewBox="0 0 512 319">

<rect style="opacity:1.0;fill:#FFFFFF;stroke:none" width="512.0" height="319.0" x="0.0" y="0.0"> </rect>
<path class="bond-0 atom-0 atom-1" d="M 388.2,275.2 L 325.0,207.9" style="fill:none;fill-rule:evenodd;stroke:#000000;stroke-width:2.0px;stroke-linecap:butt;stroke-linejoin:miter;stroke-opacity:1"/>
<path class="bond-0 atom-0 atom-1" d="M 400.5,263.8 L 337.3,196.4" style="fill:none;fill-rule:evenodd;stroke:#000000;stroke-width:2.0px;stroke-linecap:butt;stroke-linejoin:miter;stroke-opacity:1"/>
<path class="bond-1 atom-1 atom-2" d="M 334.5,205.6 L 239.9,227.8" style="fill:none;fill-rule:evenodd;stroke:#000000;stroke-width:2.0px;stroke-linecap:butt;stroke-linejoin:miter;stroke-opacity:1"/>
<path class="bond-2 atom-2 atom-3" d="M 211.0,215.8 L 148.9,149.5" style="fill:none;fill-rule:evenodd;stroke:#000000;stroke-width:2.0px;stroke-linecap:butt;stroke-linejoin:miter;stroke-opacity:1"/>
<path class="bond-3 atom-3 atom-4" d="M 148.9,149.5 L 175.9,60.2" style="fill:none;fill-rule:evenodd;stroke:#000000;stroke-width:2.0px;stroke-linecap:butt;stroke-linejoin:miter;stroke-opacity:1"/>
<path class="bond-4 atom-4 atom-5" d="M 195.7,39.0 L 290.3,16.8" style="fill:none;fill-rule:evenodd;stroke:#000000;stroke-width:2.0px;stroke-linecap:butt;stroke-linejoin:miter;stroke-opacity:1"/>
<path class="bond-5 atom-5 atom-6" d="M 290.3,16.8 L 366.9,98.5" style="fill:none;fill-rule:evenodd;stroke:#000000;stroke-width:2.0px;stroke-linecap:butt;stroke-linejoin:miter;stroke-opacity:1"/>
<path class="bond-5 atom-5 atom-6" d="M 284.7,35.4 L 348.0,102.9" style="fill:none;fill-rule:evenodd;stroke:#000000;stroke-width:2.0px;stroke-linecap:butt;stroke-linejoin:miter;stroke-opacity:1"/>
<path class="bond-6 atom-6 atom-7" d="M 366.9,98.5 L 463.8,75.8" style="fill:none;fill-rule:evenodd;stroke:#000000;stroke-width:2.0px;stroke-linecap:butt;stroke-linejoin:miter;stroke-opacity:1"/>
<path class="bond-7 atom-3 atom-8" d="M 151.7,140.2 L 54.7,162.9" style="fill:none;fill-rule:evenodd;stroke:#000000;stroke-width:2.0px;stroke-linecap:butt;stroke-linejoin:miter;stroke-opacity:1"/>
<path class="bond-7 atom-3 atom-8" d="M 155.5,156.6 L 58.5,179.3" style="fill:none;fill-rule:evenodd;stroke:#000000;stroke-width:2.0px;stroke-linecap:butt;stroke-linejoin:miter;stroke-opacity:1"/>
<path class="bond-8 atom-6 atom-1" d="M 366.9,98.5 L 334.5,205.6" style="fill:none;fill-rule:evenodd;stroke:#000000;stroke-width:2.0px;stroke-linecap:butt;stroke-linejoin:miter;stroke-opacity:1"/>
<path d="M 329.7,206.8 L 334.5,205.6 L 336.1,200.3" style="fill:none;stroke:#000000;stroke-width:2.0px;stroke-linecap:butt;stroke-linejoin:miter;stroke-miterlimit:10;stroke-opacity:1;"/>
<path d="M 152.0,152.8 L 148.9,149.5 L 150.2,145.0" style="fill:none;stroke:#000000;stroke-width:2.0px;stroke-linecap:butt;stroke-linejoin:miter;stroke-miterlimit:10;stroke-opacity:1;"/>
<path d="M 285.6,17.9 L 290.3,16.8 L 294.1,20.9" style="fill:none;stroke:#000000;stroke-width:2.0px;stroke-linecap:butt;stroke-linejoin:miter;stroke-miterlimit:10;stroke-opacity:1;"/>
<path class="atom-0" d="M 398.1 287.4 Q 398.1 280.6, 401.4 276.8 Q 404.8 273.0, 411.1 273.0 Q 417.3 273.0, 420.7 276.8 Q 424.1 280.6, 424.1 287.4 Q 424.1 294.3, 420.7 298.2 Q 417.3 302.1, 411.1 302.1 Q 404.8 302.1, 401.4 298.2 Q 398.1 294.3, 398.1 287.4 M 411.1 298.9 Q 415.4 298.9, 417.7 296.0 Q 420.1 293.1, 420.1 287.4 Q 420.1 281.8, 417.7 279.0 Q 415.4 276.2, 411.1 276.2 Q 406.7 276.2, 404.4 279.0 Q 402.1 281.8, 402.1 287.4 Q 402.1 293.1, 404.4 296.0 Q 406.7 298.9, 411.1 298.9 " fill="#000000"/>
<path class="atom-2" d="M 219.2 217.0 L 228.5 232.0 Q 229.4 233.5, 230.9 236.1 Q 232.4 238.8, 232.4 239.0 L 232.4 217.0 L 236.2 217.0 L 236.2 245.3 L 232.3 245.3 L 222.4 228.9 Q 221.2 227.0, 220.0 224.8 Q 218.8 222.6, 218.4 221.9 L 218.4 245.3 L 214.7 245.3 L 214.7 217.0 L 219.2 217.0 " fill="#000000"/>
<path class="atom-2" d="M 214.4 248.1 L 218.2 248.1 L 218.2 260.2 L 232.7 260.2 L 232.7 248.1 L 236.5 248.1 L 236.5 276.5 L 232.7 276.5 L 232.7 263.4 L 218.2 263.4 L 218.2 276.5 L 214.4 276.5 L 214.4 248.1 " fill="#000000"/>
<path class="atom-4" d="M 142.8 28.2 L 146.7 28.2 L 146.7 40.2 L 161.1 40.2 L 161.1 28.2 L 165.0 28.2 L 165.0 56.5 L 161.1 56.5 L 161.1 43.4 L 146.7 43.4 L 146.7 56.5 L 142.8 56.5 L 142.8 28.2 " fill="#000000"/>
<path class="atom-4" d="M 175.0 28.2 L 184.3 43.2 Q 185.2 44.7, 186.7 47.3 Q 188.2 50.0, 188.3 50.2 L 188.3 28.2 L 192.0 28.2 L 192.0 56.5 L 188.2 56.5 L 178.2 40.1 Q 177.0 38.2, 175.8 36.0 Q 174.6 33.8, 174.2 33.1 L 174.2 56.5 L 170.6 56.5 L 170.6 28.2 L 175.0 28.2 " fill="#000000"/>
<path class="atom-7" d="M 467.5 58.8 L 484.3 58.8 L 484.3 62.1 L 471.3 62.1 L 471.3 70.7 L 482.9 70.7 L 482.9 74.0 L 471.3 74.0 L 471.3 87.2 L 467.5 87.2 L 467.5 58.8 " fill="#000000"/>
<path class="atom-8" d="M 26.9 175.1 Q 26.9 168.3, 30.2 164.5 Q 33.6 160.7, 39.9 160.7 Q 46.2 160.7, 49.5 164.5 Q 52.9 168.3, 52.9 175.1 Q 52.9 181.9, 49.5 185.9 Q 46.1 189.7, 39.9 189.7 Q 33.6 189.7, 30.2 185.9 Q 26.9 182.0, 26.9 175.1 M 39.9 186.5 Q 44.2 186.5, 46.5 183.7 Q 48.9 180.7, 48.9 175.1 Q 48.9 169.5, 46.5 166.7 Q 44.2 163.9, 39.9 163.9 Q 35.6 163.9, 33.2 166.7 Q 30.9 169.5, 30.9 175.1 Q 30.9 180.8, 33.2 183.7 Q 35.6 186.5, 39.9 186.5 " fill="#000000"/>
</svg>