<?xml version='1.0' encoding='utf-8'?>
<svg xmlns="http://www.w3.org/2000/svg" xmlns:rdkit="http://www.rdkit.org/xml" xmlns:xlink="http://www.w3.org/1999/xlink" version="1.1" baseProfile="full" xml:space="preserve" width="512px" height="170px" viewBox="0 0 512 170">

<rect style="opacity:1.0;fill:#FFFFFF;stroke:none" width="512.0" height="170.0" x="0.0" y="0.0"> </rect>
<path class="bond-0 atom-0 atom-1" d="M 298.1,129.4 L 301.6,87.4" style="fill:none;fill-rule:evenodd;stroke:#000000;stroke-width:2.0px;stroke-linecap:butt;stroke-linejoin:miter;stroke-opacity:1"/>
<path class="bond-0 atom-0 atom-1" d="M 305.8,130.1 L 309.3,88.1" style="fill:none;fill-rule:evenodd;stroke:#000000;stroke-width:2.0px;stroke-linecap:butt;stroke-linejoin:miter;stroke-opacity:1"/>
<path class="bond-1 atom-1 atom-2" d="M 305.3,90.0 L 273.4,67.8" style="fill:none;fill-rule:evenodd;stroke:#000000;stroke-width:2.0px;stroke-linecap:butt;stroke-linejoin:miter;stroke-opacity:1"/>
<path class="bond-2 atom-2 atom-3" d="M 257.3,65.9 L 221.3,82.9" style="fill:none;fill-rule:evenodd;stroke:#000000;stroke-width:2.0px;stroke-linecap:butt;stroke-linejoin:miter;stroke-opacity:1"/>
<path class="bond-3 atom-3 atom-4" d="M 221.3,82.9 L 220.9,131.5" style="fill:none;fill-rule:evenodd;stroke:#000000;stroke-width:2.0px;stroke-linecap:butt;stroke-linejoin:miter;stroke-opacity:1"/>
<path class="bond-4 atom-4 atom-5" d="M 220.9,131.5 L 182.6,161.5" style="fill:none;fill-rule:evenodd;stroke:#000000;stroke-width:2.0px;stroke-linecap:butt;stroke-linejoin:miter;stroke-opacity:1"/>
<path class="bond-5 atom-5 atom-6" d="M 182.6,161.5 L 105.8,61.0" style="fill:none;fill-rule:evenodd;stroke:#000000;stroke-width:2.0px;stroke-linecap:butt;stroke-linejoin:miter;stroke-opacity:1"/>
<path class="bond-6 atom-6 atom-7" d="M 105.8,61.0 L 58.2,51.3" style="fill:none;fill-rule:evenodd;stroke:#000000;stroke-width:2.0px;stroke-linecap:butt;stroke-linejoin:miter;stroke-opacity:1"/>
<path class="bond-7 atom-7 atom-8" d="M 58.2,51.3 L 101.2,28.6" style="fill:none;fill-rule:evenodd;stroke:#000000;stroke-width:2.0px;stroke-linecap:butt;stroke-linejoin:miter;stroke-opacity:1"/>
<path class="bond-8 atom-8 atom-9" d="M 101.2,28.6 L 136.1,62.6" style="fill:none;fill-rule:evenodd;stroke:#000000;stroke-width:2.0px;stroke-linecap:butt;stroke-linejoin:miter;stroke-opacity:1"/>
<path class="bond-9 atom-9 atom-10" d="M 136.1,62.6 L 183.6,52.2" style="fill:none;fill-rule:evenodd;stroke:#000000;stroke-width:2.0px;stroke-linecap:butt;stroke-linejoin:miter;stroke-opacity:1"/>
<path class="bond-10 atom-9 atom-11" d="M 136.1,62.6 L 118.8,97.6" style="fill:none;fill-rule:evenodd;stroke:#000000;stroke-width:2.0px;stroke-linecap:butt;stroke-linejoin:miter;stroke-opacity:1"/>
<path class="bond-11 atom-11 atom-12" d="M 118.6,114.8 L 135.2,150.2" style="fill:none;fill-rule:evenodd;stroke:#000000;stroke-width:2.0px;stroke-linecap:butt;stroke-linejoin:miter;stroke-opacity:1"/>
<path class="bond-12 atom-11 atom-13" d="M 107.6,105.2 L 66.4,99.2" style="fill:none;fill-rule:evenodd;stroke:#000000;stroke-width:2.0px;stroke-linecap:butt;stroke-linejoin:miter;stroke-opacity:1"/>
<path class="bond-13 atom-13 atom-14" d="M 65.6,94.5 L 37.7,123.2" style="fill:none;fill-rule:evenodd;stroke:#000000;stroke-width:2.0px;stroke-linecap:butt;stroke-linejoin:miter;stroke-opacity:1"/>
<path class="bond-13 atom-13 atom-14" d="M 71.1,99.9 L 43.2,128.5" style="fill:none;fill-rule:evenodd;stroke:#000000;stroke-width:2.0px;stroke-linecap:butt;stroke-linejoin:miter;stroke-opacity:1"/>
<path class="bond-14 atom-1 atom-15" d="M 305.3,90.0 L 349.3,69.3" style="fill:none;fill-rule:evenodd;stroke:#000000;stroke-width:2.0px;stroke-linecap:butt;stroke-linejoin:miter;stroke-opacity:1"/>
<path class="bond-15 atom-15 atom-16" d="M 349.3,69.3 L 358.4,21.5" style="fill:none;fill-rule:evenodd;stroke:#000000;stroke-width:2.0px;stroke-linecap:butt;stroke-linejoin:miter;stroke-opacity:1"/>
<path class="bond-15 atom-15 atom-16" d="M 357.9,65.2 L 365.0,28.4" style="fill:none;fill-rule:evenodd;stroke:#000000;stroke-width:2.0px;stroke-linecap:butt;stroke-linejoin:miter;stroke-opacity:1"/>
<path class="bond-16 atom-16 atom-17" d="M 358.4,21.5 L 399.8,16.3" style="fill:none;fill-rule:evenodd;stroke:#000000;stroke-width:2.0px;stroke-linecap:butt;stroke-linejoin:miter;stroke-opacity:1"/>
<path class="bond-17 atom-17 atom-18" d="M 410.7,24.0 L 427.4,59.4" style="fill:none;fill-rule:evenodd;stroke:#000000;stroke-width:2.0px;stroke-linecap:butt;stroke-linejoin:miter;stroke-opacity:1"/>
<path class="bond-18 atom-18 atom-19" d="M 427.4,59.4 L 474.0,73.5" style="fill:none;fill-rule:evenodd;stroke:#000000;stroke-width:2.0px;stroke-linecap:butt;stroke-linejoin:miter;stroke-opacity:1"/>
<path class="bond-18 atom-18 atom-19" d="M 429.4,68.1 L 467.5,79.6" style="fill:none;fill-rule:evenodd;stroke:#000000;stroke-width:2.0px;stroke-linecap:butt;stroke-linejoin:miter;stroke-opacity:1"/>
<path class="bond-19 atom-19 atom-20" d="M 474.0,73.5 L 485.1,120.9" style="fill:none;fill-rule:evenodd;stroke:#000000;stroke-width:2.0px;stroke-linecap:butt;stroke-linejoin:miter;stroke-opacity:1"/>
<path class="bond-20 atom-20 atom-21" d="M 485.1,120.9 L 449.6,154.1" style="fill:none;fill-rule:evenodd;stroke:#000000;stroke-width:2.0px;stroke-linecap:butt;stroke-linejoin:miter;stroke-opacity:1"/>
<path class="bond-20 atom-20 atom-21" d="M 476.5,118.3 L 447.6,145.5" style="fill:none;fill-rule:evenodd;stroke:#000000;stroke-width:2.0px;stroke-linecap:butt;stroke-linejoin:miter;stroke-opacity:1"/>
<path class="bond-21 atom-21 atom-22" d="M 449.6,154.1 L 403.0,140.1" style="fill:none;fill-rule:evenodd;stroke:#000000;stroke-width:2.0px;stroke-linecap:butt;stroke-linejoin:miter;stroke-opacity:1"/>
<path class="bond-22 atom-22 atom-23" d="M 403.0,140.1 L 391.9,92.7" style="fill:none;fill-rule:evenodd;stroke:#000000;stroke-width:2.0px;stroke-linecap:butt;stroke-linejoin:miter;stroke-opacity:1"/>
<path class="bond-22 atom-22 atom-23" d="M 409.5,134.0 L 400.5,95.3" style="fill:none;fill-rule:evenodd;stroke:#000000;stroke-width:2.0px;stroke-linecap:butt;stroke-linejoin:miter;stroke-opacity:1"/>
<path class="bond-23 atom-10 atom-3" d="M 183.6,52.2 L 221.3,82.9" style="fill:none;fill-rule:evenodd;stroke:#000000;stroke-width:2.0px;stroke-linecap:butt;stroke-linejoin:miter;stroke-opacity:1"/>
<path class="bond-24 atom-12 atom-5" d="M 135.2,150.2 L 182.6,161.5" style="fill:none;fill-rule:evenodd;stroke:#000000;stroke-width:2.0px;stroke-linecap:butt;stroke-linejoin:miter;stroke-opacity:1"/>
<path class="bond-25 atom-13 atom-7" d="M 66.4,99.2 L 58.2,51.3" style="fill:none;fill-rule:evenodd;stroke:#000000;stroke-width:2.0px;stroke-linecap:butt;stroke-linejoin:miter;stroke-opacity:1"/>
<path class="bond-26 atom-23 atom-15" d="M 391.9,92.7 L 349.3,69.3" style="fill:none;fill-rule:evenodd;stroke:#000000;stroke-width:2.0px;stroke-linecap:butt;stroke-linejoin:miter;stroke-opacity:1"/>
<path class="bond-27 atom-23 atom-18" d="M 391.9,92.7 L 427.4,59.4" style="fill:none;fill-rule:evenodd;stroke:#000000;stroke-width:2.0px;stroke-linecap:butt;stroke-linejoin:miter;stroke-opacity:1"/>
<path d="M 303.7,88.8 L 305.3,90.0 L 307.5,88.9" style="fill:none;stroke:#000000;stroke-width:2.0px;stroke-linecap:butt;stroke-linejoin:miter;stroke-miterlimit:10;stroke-opacity:1;"/>
<path d="M 220.9,129.1 L 220.9,131.5 L 219.0,133.0" style="fill:none;stroke:#000000;stroke-width:2.0px;stroke-linecap:butt;stroke-linejoin:miter;stroke-miterlimit:10;stroke-opacity:1;"/>
<path d="M 109.7,66.0 L 105.8,61.0 L 103.4,60.5" style="fill:none;stroke:#000000;stroke-width:2.0px;stroke-linecap:butt;stroke-linejoin:miter;stroke-miterlimit:10;stroke-opacity:1;"/>
<path d="M 99.1,29.8 L 101.2,28.6 L 102.9,30.3" style="fill:none;stroke:#000000;stroke-width:2.0px;stroke-linecap:butt;stroke-linejoin:miter;stroke-miterlimit:10;stroke-opacity:1;"/>
<path d="M 181.2,52.7 L 183.6,52.2 L 185.5,53.7" style="fill:none;stroke:#000000;stroke-width:2.0px;stroke-linecap:butt;stroke-linejoin:miter;stroke-miterlimit:10;stroke-opacity:1;"/>
<path d="M 134.4,148.5 L 135.2,150.2 L 137.6,150.8" style="fill:none;stroke:#000000;stroke-width:2.0px;stroke-linecap:butt;stroke-linejoin:miter;stroke-miterlimit:10;stroke-opacity:1;"/>
<path d="M 68.5,99.5 L 66.4,99.2 L 66.0,96.8" style="fill:none;stroke:#000000;stroke-width:2.0px;stroke-linecap:butt;stroke-linejoin:miter;stroke-miterlimit:10;stroke-opacity:1;"/>
<path d="M 358.0,23.9 L 358.4,21.5 L 360.5,21.2" style="fill:none;stroke:#000000;stroke-width:2.0px;stroke-linecap:butt;stroke-linejoin:miter;stroke-miterlimit:10;stroke-opacity:1;"/>
<path d="M 471.6,72.8 L 474.0,73.5 L 474.5,75.9" style="fill:none;stroke:#000000;stroke-width:2.0px;stroke-linecap:butt;stroke-linejoin:miter;stroke-miterlimit:10;stroke-opacity:1;"/>
<path d="M 484.5,118.5 L 485.1,120.9 L 483.3,122.5" style="fill:none;stroke:#000000;stroke-width:2.0px;stroke-linecap:butt;stroke-linejoin:miter;stroke-miterlimit:10;stroke-opacity:1;"/>
<path d="M 451.4,152.5 L 449.6,154.1 L 447.3,153.4" style="fill:none;stroke:#000000;stroke-width:2.0px;stroke-linecap:butt;stroke-linejoin:miter;stroke-miterlimit:10;stroke-opacity:1;"/>
<path d="M 405.4,140.8 L 403.0,140.1 L 402.5,137.7" style="fill:none;stroke:#000000;stroke-width:2.0px;stroke-linecap:butt;stroke-linejoin:miter;stroke-miterlimit:10;stroke-opacity:1;"/>
<path class="atom-0" d="M 294.9 138.5 Q 294.9 135.2, 296.5 133.3 Q 298.2 131.5, 301.2 131.5 Q 304.3 131.5, 305.9 133.3 Q 307.5 135.2, 307.5 138.5 Q 307.5 141.8, 305.9 143.7 Q 304.2 145.6, 301.2 145.6 Q 298.2 145.6, 296.5 143.7 Q 294.9 141.8, 294.9 138.5 M 301.2 144.1 Q 303.3 144.1, 304.4 142.7 Q 305.6 141.2, 305.6 138.5 Q 305.6 135.8, 304.4 134.4 Q 303.3 133.0, 301.2 133.0 Q 299.1 133.0, 298.0 134.4 Q 296.8 135.7, 296.8 138.5 Q 296.8 141.3, 298.0 142.7 Q 299.1 144.1, 301.2 144.1 " fill="#000000"/>
<path class="atom-2" d="M 259.0 62.2 Q 259.0 58.9, 260.7 57.1 Q 262.3 55.2, 265.4 55.2 Q 268.4 55.2, 270.0 57.1 Q 271.7 58.9, 271.7 62.2 Q 271.7 65.6, 270.0 67.5 Q 268.4 69.4, 265.4 69.4 Q 262.3 69.4, 260.7 67.5 Q 259.0 65.6, 259.0 62.2 M 265.4 67.8 Q 267.5 67.8, 268.6 66.4 Q 269.7 65.0, 269.7 62.2 Q 269.7 59.5, 268.6 58.2 Q 267.5 56.8, 265.4 56.8 Q 263.3 56.8, 262.1 58.1 Q 261.0 59.5, 261.0 62.2 Q 261.0 65.0, 262.1 66.4 Q 263.3 67.8, 265.4 67.8 " fill="#000000"/>
<path class="atom-11" d="M 111.5 99.3 L 116.0 106.6 Q 116.5 107.3, 117.2 108.6 Q 117.9 109.9, 117.9 110.0 L 117.9 99.3 L 119.8 99.3 L 119.8 113.1 L 117.9 113.1 L 113.0 105.1 Q 112.5 104.2, 111.9 103.1 Q 111.3 102.0, 111.1 101.7 L 111.1 113.1 L 109.3 113.1 L 109.3 99.3 L 111.5 99.3 " fill="#000000"/>
<path class="atom-14" d="M 26.1 134.1 Q 26.1 130.8, 27.8 129.0 Q 29.4 127.1, 32.5 127.1 Q 35.5 127.1, 37.1 129.0 Q 38.8 130.8, 38.8 134.1 Q 38.8 137.5, 37.1 139.4 Q 35.5 141.3, 32.5 141.3 Q 29.4 141.3, 27.8 139.4 Q 26.1 137.5, 26.1 134.1 M 32.5 139.7 Q 34.6 139.7, 35.7 138.3 Q 36.8 136.9, 36.8 134.1 Q 36.8 131.4, 35.7 130.1 Q 34.6 128.7, 32.5 128.7 Q 30.4 128.7, 29.2 130.0 Q 28.1 131.4, 28.1 134.1 Q 28.1 136.9, 29.2 138.3 Q 30.4 139.7, 32.5 139.7 " fill="#000000"/>
<path class="atom-17" d="M 403.7 8.5 L 408.2 15.8 Q 408.6 16.5, 409.3 17.8 Q 410.1 19.1, 410.1 19.2 L 410.1 8.5 L 411.9 8.5 L 411.9 22.3 L 410.0 22.3 L 405.2 14.3 Q 404.6 13.4, 404.0 12.3 Q 403.5 11.2, 403.3 10.9 L 403.3 22.3 L 401.5 22.3 L 401.5 8.5 L 403.7 8.5 " fill="#000000"/>
<path class="atom-17" d="M 414.6 8.5 L 416.5 8.5 L 416.5 14.4 L 423.5 14.4 L 423.5 8.5 L 425.4 8.5 L 425.4 22.3 L 423.5 22.3 L 423.5 15.9 L 416.5 15.9 L 416.5 22.3 L 414.6 22.3 L 414.6 8.5 " fill="#000000"/>
</svg>