<?xml version='1.0' encoding='utf-8'?>
<svg xmlns="http://www.w3.org/2000/svg" xmlns:rdkit="http://www.rdkit.org/xml" xmlns:xlink="http://www.w3.org/1999/xlink" version="1.1" baseProfile="full" xml:space="preserve" width="512px" height="315px" viewBox="0 0 512 315">

<rect style="opacity:1.0;fill:#FFFFFF;stroke:none" width="512.0" height="315.0" x="0.0" y="0.0"> </rect>
<path class="bond-0 atom-0 atom-1" d="M 284.6,46.3 L 323.6,83.3" style="fill:none;fill-rule:evenodd;stroke:#000000;stroke-width:2.0px;stroke-linecap:butt;stroke-linejoin:miter;stroke-opacity:1"/>
<path class="bond-1 atom-1 atom-2" d="M 323.6,83.3 L 336.1,31.0" style="fill:none;fill-rule:evenodd;stroke:#000000;stroke-width:2.0px;stroke-linecap:butt;stroke-linejoin:miter;stroke-opacity:1"/>
<path class="bond-2 atom-2 atom-3" d="M 336.1,31.0 L 387.6,15.8" style="fill:none;fill-rule:evenodd;stroke:#000000;stroke-width:2.0px;stroke-linecap:butt;stroke-linejoin:miter;stroke-opacity:1"/>
<path class="bond-3 atom-3 atom-4" d="M 387.6,15.8 L 426.6,52.7" style="fill:none;fill-rule:evenodd;stroke:#000000;stroke-width:2.0px;stroke-linecap:butt;stroke-linejoin:miter;stroke-opacity:1"/>
<path class="bond-4 atom-4 atom-5" d="M 425.6,57.1 L 470.6,43.8" style="fill:none;fill-rule:evenodd;stroke:#000000;stroke-width:2.0px;stroke-linecap:butt;stroke-linejoin:miter;stroke-opacity:1"/>
<path class="bond-4 atom-4 atom-5" d="M 423.3,49.6 L 468.3,36.3" style="fill:none;fill-rule:evenodd;stroke:#000000;stroke-width:2.0px;stroke-linecap:butt;stroke-linejoin:miter;stroke-opacity:1"/>
<path class="bond-5 atom-4 atom-6" d="M 426.6,52.7 L 414.1,105.0" style="fill:none;fill-rule:evenodd;stroke:#000000;stroke-width:2.0px;stroke-linecap:butt;stroke-linejoin:miter;stroke-opacity:1"/>
<path class="bond-6 atom-6 atom-7" d="M 414.1,105.0 L 362.6,120.3" style="fill:none;fill-rule:evenodd;stroke:#000000;stroke-width:2.0px;stroke-linecap:butt;stroke-linejoin:miter;stroke-opacity:1"/>
<path class="bond-6 atom-6 atom-7" d="M 407.5,98.8 L 364.7,111.5" style="fill:none;fill-rule:evenodd;stroke:#000000;stroke-width:2.0px;stroke-linecap:butt;stroke-linejoin:miter;stroke-opacity:1"/>
<path class="bond-7 atom-7 atom-8" d="M 362.6,120.3 L 350.1,172.5" style="fill:none;fill-rule:evenodd;stroke:#000000;stroke-width:2.0px;stroke-linecap:butt;stroke-linejoin:miter;stroke-opacity:1"/>
<path class="bond-8 atom-8 atom-9" d="M 350.1,172.5 L 383.4,198.8 L 378.0,204.5 Z" style="fill:#000000;fill-rule:evenodd;fill-opacity:1;stroke:#000000;stroke-width:0.5px;stroke-linecap:butt;stroke-linejoin:miter;stroke-miterlimit:10;stroke-opacity:1;"/>
<path class="bond-9 atom-9 atom-10" d="M 386.7,219.2 L 376.5,261.8" style="fill:none;fill-rule:evenodd;stroke:#000000;stroke-width:2.0px;stroke-linecap:butt;stroke-linejoin:miter;stroke-opacity:1"/>
<path class="bond-10 atom-10 atom-11" d="M 376.5,261.8 L 415.5,298.8" style="fill:none;fill-rule:evenodd;stroke:#000000;stroke-width:2.0px;stroke-linecap:butt;stroke-linejoin:miter;stroke-opacity:1"/>
<path class="bond-11 atom-10 atom-12" d="M 377.6,257.4 L 332.6,270.7" style="fill:none;fill-rule:evenodd;stroke:#000000;stroke-width:2.0px;stroke-linecap:butt;stroke-linejoin:miter;stroke-opacity:1"/>
<path class="bond-11 atom-10 atom-12" d="M 379.8,264.9 L 334.8,278.2" style="fill:none;fill-rule:evenodd;stroke:#000000;stroke-width:2.0px;stroke-linecap:butt;stroke-linejoin:miter;stroke-opacity:1"/>
<path class="bond-12 atom-8 atom-13" d="M 350.1,172.5 L 298.5,187.8" style="fill:none;fill-rule:evenodd;stroke:#000000;stroke-width:2.0px;stroke-linecap:butt;stroke-linejoin:miter;stroke-opacity:1"/>
<path class="bond-13 atom-13 atom-14" d="M 298.5,187.8 L 259.5,150.8" style="fill:none;fill-rule:evenodd;stroke:#000000;stroke-width:2.0px;stroke-linecap:butt;stroke-linejoin:miter;stroke-opacity:1"/>
<path class="bond-14 atom-14 atom-15" d="M 259.5,150.8 L 272.1,98.6" style="fill:none;fill-rule:evenodd;stroke:#000000;stroke-width:2.0px;stroke-linecap:butt;stroke-linejoin:miter;stroke-opacity:1"/>
<path class="bond-15 atom-15 atom-16" d="M 272.1,98.6 L 233.1,61.6" style="fill:none;fill-rule:evenodd;stroke:#000000;stroke-width:2.0px;stroke-linecap:butt;stroke-linejoin:miter;stroke-opacity:1"/>
<path class="bond-16 atom-16 atom-17" d="M 233.1,61.6 L 181.5,76.9" style="fill:none;fill-rule:evenodd;stroke:#000000;stroke-width:2.0px;stroke-linecap:butt;stroke-linejoin:miter;stroke-opacity:1"/>
<path class="bond-17 atom-17 atom-18" d="M 181.5,76.9 L 169.0,129.1" style="fill:none;fill-rule:evenodd;stroke:#000000;stroke-width:2.0px;stroke-linecap:butt;stroke-linejoin:miter;stroke-opacity:1"/>
<path class="bond-18 atom-18 atom-19" d="M 169.0,129.1 L 177.2,182.4 L 169.4,183.0 Z" style="fill:#000000;fill-rule:evenodd;fill-opacity:1;stroke:#000000;stroke-width:0.5px;stroke-linecap:butt;stroke-linejoin:miter;stroke-miterlimit:10;stroke-opacity:1;"/>
<path class="bond-19 atom-18 atom-20" d="M 169.0,129.1 L 208.0,166.1" style="fill:none;fill-rule:evenodd;stroke:#000000;stroke-width:2.0px;stroke-linecap:butt;stroke-linejoin:miter;stroke-opacity:1"/>
<path class="bond-20 atom-20 atom-21" d="M 208.0,166.1 L 184.9,214.6" style="fill:none;fill-rule:evenodd;stroke:#000000;stroke-width:2.0px;stroke-linecap:butt;stroke-linejoin:miter;stroke-opacity:1"/>
<path class="bond-21 atom-21 atom-22" d="M 184.9,214.6 L 131.6,207.6" style="fill:none;fill-rule:evenodd;stroke:#000000;stroke-width:2.0px;stroke-linecap:butt;stroke-linejoin:miter;stroke-opacity:1"/>
<path class="bond-22 atom-23 atom-22" d="M 122.2,158.4 L 122.7,158.3" style="fill:none;fill-rule:evenodd;stroke:#000000;stroke-width:1.0px;stroke-linecap:butt;stroke-linejoin:miter;stroke-opacity:1"/>
<path class="bond-22 atom-23 atom-22" d="M 122.6,161.9 L 123.7,161.7" style="fill:none;fill-rule:evenodd;stroke:#000000;stroke-width:1.0px;stroke-linecap:butt;stroke-linejoin:miter;stroke-opacity:1"/>
<path class="bond-22 atom-23 atom-22" d="M 122.9,165.5 L 124.6,165.2" style="fill:none;fill-rule:evenodd;stroke:#000000;stroke-width:1.0px;stroke-linecap:butt;stroke-linejoin:miter;stroke-opacity:1"/>
<path class="bond-22 atom-23 atom-22" d="M 123.3,169.1 L 125.5,168.7" style="fill:none;fill-rule:evenodd;stroke:#000000;stroke-width:1.0px;stroke-linecap:butt;stroke-linejoin:miter;stroke-opacity:1"/>
<path class="bond-22 atom-23 atom-22" d="M 123.7,172.7 L 126.4,172.1" style="fill:none;fill-rule:evenodd;stroke:#000000;stroke-width:1.0px;stroke-linecap:butt;stroke-linejoin:miter;stroke-opacity:1"/>
<path class="bond-22 atom-23 atom-22" d="M 124.1,176.2 L 127.4,175.6" style="fill:none;fill-rule:evenodd;stroke:#000000;stroke-width:1.0px;stroke-linecap:butt;stroke-linejoin:miter;stroke-opacity:1"/>
<path class="bond-22 atom-23 atom-22" d="M 124.5,179.8 L 128.3,179.1" style="fill:none;fill-rule:evenodd;stroke:#000000;stroke-width:1.0px;stroke-linecap:butt;stroke-linejoin:miter;stroke-opacity:1"/>
<path class="bond-22 atom-23 atom-22" d="M 124.8,183.4 L 129.2,182.6" style="fill:none;fill-rule:evenodd;stroke:#000000;stroke-width:1.0px;stroke-linecap:butt;stroke-linejoin:miter;stroke-opacity:1"/>
<path class="bond-22 atom-23 atom-22" d="M 125.2,186.9 L 130.2,186.0" style="fill:none;fill-rule:evenodd;stroke:#000000;stroke-width:1.0px;stroke-linecap:butt;stroke-linejoin:miter;stroke-opacity:1"/>
<path class="bond-22 atom-23 atom-22" d="M 125.6,190.5 L 131.1,189.5" style="fill:none;fill-rule:evenodd;stroke:#000000;stroke-width:1.0px;stroke-linecap:butt;stroke-linejoin:miter;stroke-opacity:1"/>
<path class="bond-22 atom-23 atom-22" d="M 126.0,194.1 L 132.0,193.0" style="fill:none;fill-rule:evenodd;stroke:#000000;stroke-width:1.0px;stroke-linecap:butt;stroke-linejoin:miter;stroke-opacity:1"/>
<path class="bond-22 atom-23 atom-22" d="M 126.3,197.7 L 133.0,196.4" style="fill:none;fill-rule:evenodd;stroke:#000000;stroke-width:1.0px;stroke-linecap:butt;stroke-linejoin:miter;stroke-opacity:1"/>
<path class="bond-22 atom-23 atom-22" d="M 126.7,201.2 L 133.9,199.9" style="fill:none;fill-rule:evenodd;stroke:#000000;stroke-width:1.0px;stroke-linecap:butt;stroke-linejoin:miter;stroke-opacity:1"/>
<path class="bond-22 atom-23 atom-22" d="M 127.1,204.8 L 134.8,203.4" style="fill:none;fill-rule:evenodd;stroke:#000000;stroke-width:1.0px;stroke-linecap:butt;stroke-linejoin:miter;stroke-opacity:1"/>
<path class="bond-23 atom-23 atom-24" d="M 121.8,154.8 L 74.6,180.5" style="fill:none;fill-rule:evenodd;stroke:#000000;stroke-width:2.0px;stroke-linecap:butt;stroke-linejoin:miter;stroke-opacity:1"/>
<path class="bond-24 atom-24 atom-25" d="M 74.6,180.5 L 35.6,143.5" style="fill:none;fill-rule:evenodd;stroke:#000000;stroke-width:2.0px;stroke-linecap:butt;stroke-linejoin:miter;stroke-opacity:1"/>
<path class="bond-25 atom-25 atom-26" d="M 35.6,143.5 L 58.7,95.0" style="fill:none;fill-rule:evenodd;stroke:#000000;stroke-width:2.0px;stroke-linecap:butt;stroke-linejoin:miter;stroke-opacity:1"/>
<path class="bond-26 atom-26 atom-27" d="M 63.5,95.6 L 41.7,55.5" style="fill:none;fill-rule:evenodd;stroke:#000000;stroke-width:2.0px;stroke-linecap:butt;stroke-linejoin:miter;stroke-opacity:1"/>
<path class="bond-26 atom-26 atom-27" d="M 56.6,99.3 L 34.8,59.3" style="fill:none;fill-rule:evenodd;stroke:#000000;stroke-width:2.0px;stroke-linecap:butt;stroke-linejoin:miter;stroke-opacity:1"/>
<path class="bond-27 atom-26 atom-28" d="M 58.7,95.0 L 103.3,100.8" style="fill:none;fill-rule:evenodd;stroke:#000000;stroke-width:2.0px;stroke-linecap:butt;stroke-linejoin:miter;stroke-opacity:1"/>
<path class="bond-28 atom-7 atom-1" d="M 362.6,120.3 L 323.6,83.3" style="fill:none;fill-rule:evenodd;stroke:#000000;stroke-width:2.0px;stroke-linecap:butt;stroke-linejoin:miter;stroke-opacity:1"/>
<path class="bond-29 atom-15 atom-1" d="M 272.1,98.6 L 323.6,83.3" style="fill:none;fill-rule:evenodd;stroke:#000000;stroke-width:2.0px;stroke-linecap:butt;stroke-linejoin:miter;stroke-opacity:1"/>
<path class="bond-30 atom-20 atom-14" d="M 208.0,166.1 L 259.5,150.8" style="fill:none;fill-rule:evenodd;stroke:#000000;stroke-width:2.0px;stroke-linecap:butt;stroke-linejoin:miter;stroke-opacity:1"/>
<path class="bond-31 atom-23 atom-18" d="M 121.8,154.8 L 169.0,129.1" style="fill:none;fill-rule:evenodd;stroke:#000000;stroke-width:2.0px;stroke-linecap:butt;stroke-linejoin:miter;stroke-opacity:1"/>
<path class="bond-32 atom-28 atom-23" d="M 113.8,111.6 L 121.8,154.8" style="fill:none;fill-rule:evenodd;stroke:#000000;stroke-width:2.0px;stroke-linecap:butt;stroke-linejoin:miter;stroke-opacity:1"/>
<path class="bond-33 atom-14 atom-29" d="M 259.3,154.4 L 258.2,154.1" style="fill:none;fill-rule:evenodd;stroke:#000000;stroke-width:1.0px;stroke-linecap:butt;stroke-linejoin:miter;stroke-opacity:1"/>
<path class="bond-33 atom-14 atom-29" d="M 259.0,157.9 L 256.8,157.4" style="fill:none;fill-rule:evenodd;stroke:#000000;stroke-width:1.0px;stroke-linecap:butt;stroke-linejoin:miter;stroke-opacity:1"/>
<path class="bond-33 atom-14 atom-29" d="M 258.7,161.4 L 255.5,160.6" style="fill:none;fill-rule:evenodd;stroke:#000000;stroke-width:1.0px;stroke-linecap:butt;stroke-linejoin:miter;stroke-opacity:1"/>
<path class="bond-33 atom-14 atom-29" d="M 258.5,164.9 L 254.1,163.9" style="fill:none;fill-rule:evenodd;stroke:#000000;stroke-width:1.0px;stroke-linecap:butt;stroke-linejoin:miter;stroke-opacity:1"/>
<path class="bond-33 atom-14 atom-29" d="M 258.2,168.5 L 252.7,167.2" style="fill:none;fill-rule:evenodd;stroke:#000000;stroke-width:1.0px;stroke-linecap:butt;stroke-linejoin:miter;stroke-opacity:1"/>
<path class="bond-33 atom-14 atom-29" d="M 257.9,172.0 L 251.4,170.4" style="fill:none;fill-rule:evenodd;stroke:#000000;stroke-width:1.0px;stroke-linecap:butt;stroke-linejoin:miter;stroke-opacity:1"/>
<path class="bond-33 atom-14 atom-29" d="M 257.6,175.5 L 250.0,173.7" style="fill:none;fill-rule:evenodd;stroke:#000000;stroke-width:1.0px;stroke-linecap:butt;stroke-linejoin:miter;stroke-opacity:1"/>
<path class="bond-34 atom-15 atom-30" d="M 272.1,98.6 L 291.4,111.5 L 286.0,117.2 Z" style="fill:#000000;fill-rule:evenodd;fill-opacity:1;stroke:#000000;stroke-width:0.5px;stroke-linecap:butt;stroke-linejoin:miter;stroke-miterlimit:10;stroke-opacity:1;"/>
<path class="bond-35 atom-20 atom-31" d="M 208.0,166.1 L 224.9,179.8 L 218.9,184.9 Z" style="fill:#000000;fill-rule:evenodd;fill-opacity:1;stroke:#000000;stroke-width:0.5px;stroke-linecap:butt;stroke-linejoin:miter;stroke-miterlimit:10;stroke-opacity:1;"/>
<path d="M 335.5,33.6 L 336.1,31.0 L 338.7,30.3" style="fill:none;stroke:#000000;stroke-width:2.0px;stroke-linecap:butt;stroke-linejoin:miter;stroke-miterlimit:10;stroke-opacity:1;"/>
<path d="M 385.1,16.5 L 387.6,15.8 L 389.6,17.6" style="fill:none;stroke:#000000;stroke-width:2.0px;stroke-linecap:butt;stroke-linejoin:miter;stroke-miterlimit:10;stroke-opacity:1;"/>
<path d="M 424.7,50.9 L 426.6,52.7 L 426.0,55.3" style="fill:none;stroke:#000000;stroke-width:2.0px;stroke-linecap:butt;stroke-linejoin:miter;stroke-miterlimit:10;stroke-opacity:1;"/>
<path d="M 414.7,102.4 L 414.1,105.0 L 411.5,105.8" style="fill:none;stroke:#000000;stroke-width:2.0px;stroke-linecap:butt;stroke-linejoin:miter;stroke-miterlimit:10;stroke-opacity:1;"/>
<path d="M 350.7,169.9 L 350.1,172.5 L 347.5,173.3" style="fill:none;stroke:#000000;stroke-width:2.0px;stroke-linecap:butt;stroke-linejoin:miter;stroke-miterlimit:10;stroke-opacity:1;"/>
<path d="M 377.0,259.6 L 376.5,261.8 L 378.5,263.6" style="fill:none;stroke:#000000;stroke-width:2.0px;stroke-linecap:butt;stroke-linejoin:miter;stroke-miterlimit:10;stroke-opacity:1;"/>
<path d="M 301.1,187.1 L 298.5,187.8 L 296.6,186.0" style="fill:none;stroke:#000000;stroke-width:2.0px;stroke-linecap:butt;stroke-linejoin:miter;stroke-miterlimit:10;stroke-opacity:1;"/>
<path d="M 235.0,63.4 L 233.1,61.6 L 230.5,62.4" style="fill:none;stroke:#000000;stroke-width:2.0px;stroke-linecap:butt;stroke-linejoin:miter;stroke-miterlimit:10;stroke-opacity:1;"/>
<path d="M 184.1,76.1 L 181.5,76.9 L 180.9,79.5" style="fill:none;stroke:#000000;stroke-width:2.0px;stroke-linecap:butt;stroke-linejoin:miter;stroke-miterlimit:10;stroke-opacity:1;"/>
<path d="M 186.1,212.2 L 184.9,214.6 L 182.2,214.3" style="fill:none;stroke:#000000;stroke-width:2.0px;stroke-linecap:butt;stroke-linejoin:miter;stroke-miterlimit:10;stroke-opacity:1;"/>
<path d="M 76.9,179.2 L 74.6,180.5 L 72.6,178.6" style="fill:none;stroke:#000000;stroke-width:2.0px;stroke-linecap:butt;stroke-linejoin:miter;stroke-miterlimit:10;stroke-opacity:1;"/>
<path d="M 37.5,145.3 L 35.6,143.5 L 36.7,141.1" style="fill:none;stroke:#000000;stroke-width:2.0px;stroke-linecap:butt;stroke-linejoin:miter;stroke-miterlimit:10;stroke-opacity:1;"/>
<path d="M 57.5,97.4 L 58.7,95.0 L 60.9,95.3" style="fill:none;stroke:#000000;stroke-width:2.0px;stroke-linecap:butt;stroke-linejoin:miter;stroke-miterlimit:10;stroke-opacity:1;"/>
<path class="atom-5" d="M 471.2 37.5 Q 471.2 33.8, 473.0 31.8 Q 474.8 29.8, 478.2 29.8 Q 481.5 29.8, 483.3 31.8 Q 485.1 33.8, 485.1 37.5 Q 485.1 41.2, 483.3 43.3 Q 481.5 45.4, 478.2 45.4 Q 474.8 45.4, 473.0 43.3 Q 471.2 41.2, 471.2 37.5 M 478.2 43.7 Q 480.5 43.7, 481.7 42.1 Q 483.0 40.5, 483.0 37.5 Q 483.0 34.5, 481.7 33.0 Q 480.5 31.5, 478.2 31.5 Q 475.8 31.5, 474.6 33.0 Q 473.3 34.5, 473.3 37.5 Q 473.3 40.6, 474.6 42.1 Q 475.8 43.7, 478.2 43.7 " fill="#000000"/>
<path class="atom-9" d="M 384.8 214.7 Q 384.9 214.8, 385.6 215.1 Q 386.3 215.4, 387.1 215.6 Q 387.9 215.8, 388.7 215.8 Q 390.1 215.8, 391.0 215.1 Q 391.8 214.4, 391.8 213.1 Q 391.8 212.3, 391.4 211.8 Q 391.0 211.3, 390.3 211.0 Q 389.7 210.7, 388.6 210.4 Q 387.2 210.0, 386.4 209.6 Q 385.6 209.2, 385.1 208.4 Q 384.5 207.6, 384.5 206.2 Q 384.5 204.3, 385.8 203.1 Q 387.1 201.9, 389.7 201.9 Q 391.4 201.9, 393.4 202.8 L 392.9 204.4 Q 391.1 203.7, 389.7 203.7 Q 388.3 203.7, 387.4 204.3 Q 386.6 204.9, 386.6 205.9 Q 386.6 206.8, 387.1 207.3 Q 387.5 207.7, 388.1 208.0 Q 388.7 208.3, 389.7 208.6 Q 391.1 209.1, 391.9 209.5 Q 392.8 209.9, 393.3 210.8 Q 393.9 211.7, 393.9 213.1 Q 393.9 215.3, 392.5 216.4 Q 391.1 217.5, 388.8 217.5 Q 387.4 217.5, 386.4 217.2 Q 385.4 216.9, 384.2 216.4 L 384.8 214.7 " fill="#000000"/>
<path class="atom-12" d="M 318.0 277.1 Q 318.0 273.4, 319.8 271.4 Q 321.6 269.4, 325.0 269.4 Q 328.4 269.4, 330.2 271.4 Q 332.0 273.4, 332.0 277.1 Q 332.0 280.8, 330.2 282.9 Q 328.3 285.0, 325.0 285.0 Q 321.7 285.0, 319.8 282.9 Q 318.0 280.8, 318.0 277.1 M 325.0 283.3 Q 327.3 283.3, 328.6 281.7 Q 329.8 280.1, 329.8 277.1 Q 329.8 274.1, 328.6 272.6 Q 327.3 271.1, 325.0 271.1 Q 322.7 271.1, 321.4 272.6 Q 320.2 274.1, 320.2 277.1 Q 320.2 280.2, 321.4 281.7 Q 322.7 283.3, 325.0 283.3 " fill="#000000"/>
<path class="atom-27" d="M 26.1 47.8 Q 26.1 44.1, 27.9 42.1 Q 29.7 40.1, 33.0 40.1 Q 36.4 40.1, 38.2 42.1 Q 40.0 44.1, 40.0 47.8 Q 40.0 51.5, 38.2 53.6 Q 36.4 55.7, 33.0 55.7 Q 29.7 55.7, 27.9 53.6 Q 26.1 51.5, 26.1 47.8 M 33.0 54.0 Q 35.4 54.0, 36.6 52.4 Q 37.9 50.8, 37.9 47.8 Q 37.9 44.8, 36.6 43.3 Q 35.4 41.8, 33.0 41.8 Q 30.7 41.8, 29.5 43.3 Q 28.2 44.8, 28.2 47.8 Q 28.2 50.9, 29.5 52.4 Q 30.7 54.0, 33.0 54.0 " fill="#000000"/>
<path class="atom-28" d="M 105.0 102.0 Q 105.0 98.4, 106.8 96.3 Q 108.6 94.3, 112.0 94.3 Q 115.4 94.3, 117.2 96.3 Q 119.0 98.4, 119.0 102.0 Q 119.0 105.7, 117.1 107.8 Q 115.3 109.9, 112.0 109.9 Q 108.6 109.9, 106.8 107.8 Q 105.0 105.7, 105.0 102.0 M 112.0 108.2 Q 114.3 108.2, 115.6 106.6 Q 116.8 105.1, 116.8 102.0 Q 116.8 99.0, 115.6 97.5 Q 114.3 96.0, 112.0 96.0 Q 109.7 96.0, 108.4 97.5 Q 107.2 99.0, 107.2 102.0 Q 107.2 105.1, 108.4 106.6 Q 109.7 108.2, 112.0 108.2 " fill="#000000"/>
<path class="atom-29" d="M 245.2 178.1 L 247.3 178.1 L 247.3 184.5 L 255.1 184.5 L 255.1 178.1 L 257.1 178.1 L 257.1 193.3 L 255.1 193.3 L 255.1 186.3 L 247.3 186.3 L 247.3 193.3 L 245.2 193.3 L 245.2 178.1 " fill="#000000"/>
<path class="atom-30" d="M 292.1 115.6 L 294.2 115.6 L 294.2 122.1 L 302.0 122.1 L 302.0 115.6 L 304.0 115.6 L 304.0 130.8 L 302.0 130.8 L 302.0 123.8 L 294.2 123.8 L 294.2 130.8 L 292.1 130.8 L 292.1 115.6 " fill="#000000"/>
<path class="atom-31" d="M 225.3 185.7 L 227.4 185.7 L 227.4 192.2 L 235.2 192.2 L 235.2 185.7 L 237.2 185.7 L 237.2 201.0 L 235.2 201.0 L 235.2 193.9 L 227.4 193.9 L 227.4 201.0 L 225.3 201.0 L 225.3 185.7 " fill="#000000"/>
</svg>