<?xml version='1.0' encoding='utf-8'?>
<svg xmlns="http://www.w3.org/2000/svg" xmlns:rdkit="http://www.rdkit.org/xml" xmlns:xlink="http://www.w3.org/1999/xlink" version="1.1" baseProfile="full" xml:space="preserve" width="512px" height="278px" viewBox="0 0 512 278">

<rect style="opacity:1.0;fill:#FFFFFF;stroke:none" width="512.0" height="278.0" x="0.0" y="0.0"> </rect>
<path class="bond-0 atom-0 atom-1" d="M 83.2,41.7 L 89.7,83.7" style="fill:none;fill-rule:evenodd;stroke:#000000;stroke-width:2.0px;stroke-linecap:butt;stroke-linejoin:miter;stroke-opacity:1"/>
<path class="bond-1 atom-1 atom-2" d="M 89.7,83.7 L 56.5,110.3" style="fill:none;fill-rule:evenodd;stroke:#000000;stroke-width:2.0px;stroke-linecap:butt;stroke-linejoin:miter;stroke-opacity:1"/>
<path class="bond-2 atom-1 atom-3" d="M 89.7,83.7 L 129.3,99.1" style="fill:none;fill-rule:evenodd;stroke:#000000;stroke-width:2.0px;stroke-linecap:butt;stroke-linejoin:miter;stroke-opacity:1"/>
<path class="bond-3 atom-3 atom-4" d="M 129.3,99.1 L 168.9,114.5" style="fill:none;fill-rule:evenodd;stroke:#000000;stroke-width:2.0px;stroke-linecap:butt;stroke-linejoin:miter;stroke-opacity:1"/>
<path class="bond-4 atom-4 atom-5" d="M 168.9,114.5 L 202.0,87.9" style="fill:none;fill-rule:evenodd;stroke:#000000;stroke-width:2.0px;stroke-linecap:butt;stroke-linejoin:miter;stroke-opacity:1"/>
<path class="bond-5 atom-5 atom-6" d="M 202.0,87.9 L 241.6,103.3" style="fill:none;fill-rule:evenodd;stroke:#000000;stroke-width:2.0px;stroke-linecap:butt;stroke-linejoin:miter;stroke-opacity:1"/>
<path class="bond-6 atom-6 atom-7" d="M 241.6,103.3 L 268.8,81.5" style="fill:none;fill-rule:evenodd;stroke:#000000;stroke-width:2.0px;stroke-linecap:butt;stroke-linejoin:miter;stroke-opacity:1"/>
<path class="bond-7 atom-7 atom-8" d="M 273.6,69.3 L 268.3,34.8" style="fill:none;fill-rule:evenodd;stroke:#000000;stroke-width:2.0px;stroke-linecap:butt;stroke-linejoin:miter;stroke-opacity:1"/>
<path class="bond-8 atom-7 atom-9" d="M 280.7,79.1 L 314.3,92.2" style="fill:none;fill-rule:evenodd;stroke:#000000;stroke-width:2.0px;stroke-linecap:butt;stroke-linejoin:miter;stroke-opacity:1"/>
<path class="bond-9 atom-9 atom-10" d="M 314.3,92.2 L 320.8,134.2" style="fill:none;fill-rule:evenodd;stroke:#000000;stroke-width:2.0px;stroke-linecap:butt;stroke-linejoin:miter;stroke-opacity:1"/>
<path class="bond-10 atom-10 atom-11" d="M 320.8,134.2 L 360.4,149.6" style="fill:none;fill-rule:evenodd;stroke:#000000;stroke-width:2.0px;stroke-linecap:butt;stroke-linejoin:miter;stroke-opacity:1"/>
<path class="bond-11 atom-11 atom-12" d="M 360.4,149.6 L 366.8,191.6" style="fill:none;fill-rule:evenodd;stroke:#000000;stroke-width:2.0px;stroke-linecap:butt;stroke-linejoin:miter;stroke-opacity:1"/>
<path class="bond-12 atom-12 atom-13" d="M 366.8,191.6 L 406.4,207.0" style="fill:none;fill-rule:evenodd;stroke:#000000;stroke-width:2.0px;stroke-linecap:butt;stroke-linejoin:miter;stroke-opacity:1"/>
<path class="bond-12 atom-12 atom-13" d="M 372.5,187.0 L 405.3,199.7" style="fill:none;fill-rule:evenodd;stroke:#000000;stroke-width:2.0px;stroke-linecap:butt;stroke-linejoin:miter;stroke-opacity:1"/>
<path class="bond-13 atom-13 atom-14" d="M 406.4,207.0 L 439.5,180.4" style="fill:none;fill-rule:evenodd;stroke:#000000;stroke-width:2.0px;stroke-linecap:butt;stroke-linejoin:miter;stroke-opacity:1"/>
<path class="bond-14 atom-14 atom-15" d="M 439.5,180.4 L 433.1,138.4" style="fill:none;fill-rule:evenodd;stroke:#000000;stroke-width:2.0px;stroke-linecap:butt;stroke-linejoin:miter;stroke-opacity:1"/>
<path class="bond-14 atom-14 atom-15" d="M 432.7,177.7 L 427.3,143.0" style="fill:none;fill-rule:evenodd;stroke:#000000;stroke-width:2.0px;stroke-linecap:butt;stroke-linejoin:miter;stroke-opacity:1"/>
<path class="bond-15 atom-15 atom-16" d="M 433.1,138.4 L 393.5,123.0" style="fill:none;fill-rule:evenodd;stroke:#000000;stroke-width:2.0px;stroke-linecap:butt;stroke-linejoin:miter;stroke-opacity:1"/>
<path class="bond-16 atom-16 atom-17" d="M 393.5,123.0 L 388.2,88.7" style="fill:none;fill-rule:evenodd;stroke:#000000;stroke-width:2.0px;stroke-linecap:butt;stroke-linejoin:miter;stroke-opacity:1"/>
<path class="bond-17 atom-17 atom-18" d="M 394.0,75.4 L 420.2,54.4" style="fill:none;fill-rule:evenodd;stroke:#000000;stroke-width:2.0px;stroke-linecap:butt;stroke-linejoin:miter;stroke-opacity:1"/>
<path class="bond-18 atom-14 atom-19" d="M 439.5,180.4 L 472.2,193.1" style="fill:none;fill-rule:evenodd;stroke:#000000;stroke-width:2.0px;stroke-linecap:butt;stroke-linejoin:miter;stroke-opacity:1"/>
<path class="bond-19 atom-19 atom-20" d="M 480.3,203.5 L 485.6,237.8" style="fill:none;fill-rule:evenodd;stroke:#000000;stroke-width:2.0px;stroke-linecap:butt;stroke-linejoin:miter;stroke-opacity:1"/>
<path class="bond-20 atom-3 atom-21" d="M 129.3,99.1 L 144.7,59.5" style="fill:none;fill-rule:evenodd;stroke:#000000;stroke-width:2.0px;stroke-linecap:butt;stroke-linejoin:miter;stroke-opacity:1"/>
<path class="bond-21 atom-21 atom-22" d="M 144.7,59.5 L 157.2,27.3" style="fill:none;fill-rule:evenodd;stroke:#000000;stroke-width:2.0px;stroke-linecap:butt;stroke-linejoin:miter;stroke-opacity:1"/>
<path class="bond-21 atom-21 atom-22" d="M 138.7,57.2 L 151.3,25.0" style="fill:none;fill-rule:evenodd;stroke:#000000;stroke-width:2.0px;stroke-linecap:butt;stroke-linejoin:miter;stroke-opacity:1"/>
<path class="bond-21 atom-21 atom-22" d="M 150.6,61.8 L 163.1,29.6" style="fill:none;fill-rule:evenodd;stroke:#000000;stroke-width:2.0px;stroke-linecap:butt;stroke-linejoin:miter;stroke-opacity:1"/>
<path class="bond-22 atom-3 atom-23" d="M 129.3,99.1 L 113.9,138.7" style="fill:none;fill-rule:evenodd;stroke:#000000;stroke-width:2.0px;stroke-linecap:butt;stroke-linejoin:miter;stroke-opacity:1"/>
<path class="bond-23 atom-23 atom-24" d="M 113.9,138.7 L 71.9,145.1" style="fill:none;fill-rule:evenodd;stroke:#000000;stroke-width:2.0px;stroke-linecap:butt;stroke-linejoin:miter;stroke-opacity:1"/>
<path class="bond-24 atom-24 atom-25" d="M 71.9,145.1 L 56.5,184.7" style="fill:none;fill-rule:evenodd;stroke:#000000;stroke-width:2.0px;stroke-linecap:butt;stroke-linejoin:miter;stroke-opacity:1"/>
<path class="bond-24 atom-24 atom-25" d="M 76.5,150.9 L 63.7,183.6" style="fill:none;fill-rule:evenodd;stroke:#000000;stroke-width:2.0px;stroke-linecap:butt;stroke-linejoin:miter;stroke-opacity:1"/>
<path class="bond-25 atom-25 atom-26" d="M 56.5,184.7 L 83.0,217.9" style="fill:none;fill-rule:evenodd;stroke:#000000;stroke-width:2.0px;stroke-linecap:butt;stroke-linejoin:miter;stroke-opacity:1"/>
<path class="bond-26 atom-26 atom-27" d="M 83.0,217.9 L 125.0,211.4" style="fill:none;fill-rule:evenodd;stroke:#000000;stroke-width:2.0px;stroke-linecap:butt;stroke-linejoin:miter;stroke-opacity:1"/>
<path class="bond-26 atom-26 atom-27" d="M 85.7,211.0 L 120.4,205.7" style="fill:none;fill-rule:evenodd;stroke:#000000;stroke-width:2.0px;stroke-linecap:butt;stroke-linejoin:miter;stroke-opacity:1"/>
<path class="bond-27 atom-27 atom-28" d="M 125.0,211.4 L 140.4,171.8" style="fill:none;fill-rule:evenodd;stroke:#000000;stroke-width:2.0px;stroke-linecap:butt;stroke-linejoin:miter;stroke-opacity:1"/>
<path class="bond-28 atom-28 atom-29" d="M 140.4,171.8 L 175.5,166.4" style="fill:none;fill-rule:evenodd;stroke:#000000;stroke-width:2.0px;stroke-linecap:butt;stroke-linejoin:miter;stroke-opacity:1"/>
<path class="bond-29 atom-29 atom-30" d="M 188.6,173.1 L 209.0,198.5" style="fill:none;fill-rule:evenodd;stroke:#000000;stroke-width:2.0px;stroke-linecap:butt;stroke-linejoin:miter;stroke-opacity:1"/>
<path class="bond-30 atom-26 atom-31" d="M 83.0,217.9 L 70.5,250.0" style="fill:none;fill-rule:evenodd;stroke:#000000;stroke-width:2.0px;stroke-linecap:butt;stroke-linejoin:miter;stroke-opacity:1"/>
<path class="bond-31 atom-31 atom-32" d="M 60.7,258.5 L 25.6,263.9" style="fill:none;fill-rule:evenodd;stroke:#000000;stroke-width:2.0px;stroke-linecap:butt;stroke-linejoin:miter;stroke-opacity:1"/>
<path class="bond-32 atom-16 atom-11" d="M 393.5,123.0 L 360.4,149.6" style="fill:none;fill-rule:evenodd;stroke:#000000;stroke-width:2.0px;stroke-linecap:butt;stroke-linejoin:miter;stroke-opacity:1"/>
<path class="bond-32 atom-16 atom-11" d="M 394.6,130.3 L 367.2,152.2" style="fill:none;fill-rule:evenodd;stroke:#000000;stroke-width:2.0px;stroke-linecap:butt;stroke-linejoin:miter;stroke-opacity:1"/>
<path class="bond-33 atom-28 atom-23" d="M 140.4,171.8 L 113.9,138.7" style="fill:none;fill-rule:evenodd;stroke:#000000;stroke-width:2.0px;stroke-linecap:butt;stroke-linejoin:miter;stroke-opacity:1"/>
<path class="bond-33 atom-28 atom-23" d="M 133.2,172.9 L 111.2,145.5" style="fill:none;fill-rule:evenodd;stroke:#000000;stroke-width:2.0px;stroke-linecap:butt;stroke-linejoin:miter;stroke-opacity:1"/>
<path d="M 166.9,113.7 L 168.9,114.5 L 170.5,113.2" style="fill:none;stroke:#000000;stroke-width:2.0px;stroke-linecap:butt;stroke-linejoin:miter;stroke-miterlimit:10;stroke-opacity:1;"/>
<path d="M 200.3,89.3 L 202.0,87.9 L 204.0,88.7" style="fill:none;stroke:#000000;stroke-width:2.0px;stroke-linecap:butt;stroke-linejoin:miter;stroke-miterlimit:10;stroke-opacity:1;"/>
<path d="M 239.6,102.6 L 241.6,103.3 L 242.9,102.2" style="fill:none;stroke:#000000;stroke-width:2.0px;stroke-linecap:butt;stroke-linejoin:miter;stroke-miterlimit:10;stroke-opacity:1;"/>
<path d="M 312.6,91.5 L 314.3,92.2 L 314.6,94.3" style="fill:none;stroke:#000000;stroke-width:2.0px;stroke-linecap:butt;stroke-linejoin:miter;stroke-miterlimit:10;stroke-opacity:1;"/>
<path d="M 320.4,132.1 L 320.8,134.2 L 322.7,134.9" style="fill:none;stroke:#000000;stroke-width:2.0px;stroke-linecap:butt;stroke-linejoin:miter;stroke-miterlimit:10;stroke-opacity:1;"/>
<path d="M 366.5,189.5 L 366.8,191.6 L 368.8,192.3" style="fill:none;stroke:#000000;stroke-width:2.0px;stroke-linecap:butt;stroke-linejoin:miter;stroke-miterlimit:10;stroke-opacity:1;"/>
<path d="M 404.4,206.2 L 406.4,207.0 L 408.0,205.6" style="fill:none;stroke:#000000;stroke-width:2.0px;stroke-linecap:butt;stroke-linejoin:miter;stroke-miterlimit:10;stroke-opacity:1;"/>
<path d="M 433.4,140.5 L 433.1,138.4 L 431.1,137.6" style="fill:none;stroke:#000000;stroke-width:2.0px;stroke-linecap:butt;stroke-linejoin:miter;stroke-miterlimit:10;stroke-opacity:1;"/>
<path d="M 143.9,61.5 L 144.7,59.5 L 145.3,57.9" style="fill:none;stroke:#000000;stroke-width:2.0px;stroke-linecap:butt;stroke-linejoin:miter;stroke-miterlimit:10;stroke-opacity:1;"/>
<path d="M 74.0,144.8 L 71.9,145.1 L 71.1,147.1" style="fill:none;stroke:#000000;stroke-width:2.0px;stroke-linecap:butt;stroke-linejoin:miter;stroke-miterlimit:10;stroke-opacity:1;"/>
<path d="M 57.2,182.7 L 56.5,184.7 L 57.8,186.4" style="fill:none;stroke:#000000;stroke-width:2.0px;stroke-linecap:butt;stroke-linejoin:miter;stroke-miterlimit:10;stroke-opacity:1;"/>
<path d="M 122.9,211.7 L 125.0,211.4 L 125.8,209.4" style="fill:none;stroke:#000000;stroke-width:2.0px;stroke-linecap:butt;stroke-linejoin:miter;stroke-miterlimit:10;stroke-opacity:1;"/>
<path class="atom-7" d="M 272.1 70.7 L 276.0 77.1 Q 276.4 77.7, 277.0 78.9 Q 277.7 80.0, 277.7 80.1 L 277.7 70.7 L 279.3 70.7 L 279.3 82.8 L 277.6 82.8 L 273.4 75.8 Q 272.9 75.0, 272.4 74.1 Q 271.9 73.1, 271.7 72.8 L 271.7 82.8 L 270.2 82.8 L 270.2 70.7 L 272.1 70.7 " fill="#000000"/>
<path class="atom-17" d="M 381.5 81.0 Q 381.5 78.1, 383.0 76.5 Q 384.4 74.9, 387.0 74.9 Q 389.7 74.9, 391.1 76.5 Q 392.6 78.1, 392.6 81.0 Q 392.6 84.0, 391.1 85.6 Q 389.7 87.3, 387.0 87.3 Q 384.4 87.3, 383.0 85.6 Q 381.5 84.0, 381.5 81.0 M 387.0 85.9 Q 388.9 85.9, 389.9 84.7 Q 390.9 83.4, 390.9 81.0 Q 390.9 78.7, 389.9 77.5 Q 388.9 76.3, 387.0 76.3 Q 385.2 76.3, 384.2 77.5 Q 383.2 78.7, 383.2 81.0 Q 383.2 83.5, 384.2 84.7 Q 385.2 85.9, 387.0 85.9 " fill="#000000"/>
<path class="atom-19" d="M 473.6 195.8 Q 473.6 193.0, 475.0 191.3 Q 476.5 189.7, 479.1 189.7 Q 481.8 189.7, 483.2 191.3 Q 484.6 193.0, 484.6 195.8 Q 484.6 198.8, 483.2 200.4 Q 481.8 202.1, 479.1 202.1 Q 476.5 202.1, 475.0 200.4 Q 473.6 198.8, 473.6 195.8 M 479.1 200.7 Q 481.0 200.7, 481.9 199.5 Q 482.9 198.3, 482.9 195.8 Q 482.9 193.5, 481.9 192.3 Q 481.0 191.1, 479.1 191.1 Q 477.3 191.1, 476.3 192.3 Q 475.3 193.5, 475.3 195.8 Q 475.3 198.3, 476.3 199.5 Q 477.3 200.7, 479.1 200.7 " fill="#000000"/>
<path class="atom-22" d="M 157.4 13.9 L 161.4 20.3 Q 161.8 20.9, 162.4 22.0 Q 163.0 23.2, 163.1 23.2 L 163.1 13.9 L 164.7 13.9 L 164.7 25.9 L 163.0 25.9 L 158.8 19.0 Q 158.3 18.1, 157.8 17.2 Q 157.2 16.3, 157.1 16.0 L 157.1 25.9 L 155.5 25.9 L 155.5 13.9 L 157.4 13.9 " fill="#000000"/>
<path class="atom-29" d="M 176.9 165.4 Q 176.9 162.5, 178.3 160.9 Q 179.8 159.3, 182.4 159.3 Q 185.1 159.3, 186.5 160.9 Q 187.9 162.5, 187.9 165.4 Q 187.9 168.3, 186.5 170.0 Q 185.1 171.6, 182.4 171.6 Q 179.8 171.6, 178.3 170.0 Q 176.9 168.4, 176.9 165.4 M 182.4 170.3 Q 184.3 170.3, 185.2 169.1 Q 186.2 167.8, 186.2 165.4 Q 186.2 163.0, 185.2 161.9 Q 184.3 160.7, 182.4 160.7 Q 180.6 160.7, 179.6 161.8 Q 178.6 163.0, 178.6 165.4 Q 178.6 167.8, 179.6 169.1 Q 180.6 170.3, 182.4 170.3 " fill="#000000"/>
<path class="atom-31" d="M 62.1 257.5 Q 62.1 254.6, 63.5 253.0 Q 65.0 251.4, 67.6 251.4 Q 70.3 251.4, 71.7 253.0 Q 73.1 254.6, 73.1 257.5 Q 73.1 260.4, 71.7 262.1 Q 70.3 263.7, 67.6 263.7 Q 65.0 263.7, 63.5 262.1 Q 62.1 260.4, 62.1 257.5 M 67.6 262.4 Q 69.5 262.4, 70.4 261.1 Q 71.4 259.9, 71.4 257.5 Q 71.4 255.1, 70.4 253.9 Q 69.5 252.7, 67.6 252.7 Q 65.8 252.7, 64.8 253.9 Q 63.8 255.1, 63.8 257.5 Q 63.8 259.9, 64.8 261.1 Q 65.8 262.4, 67.6 262.4 " fill="#000000"/>
</svg>