<?xml version='1.0' encoding='utf-8'?>
<svg xmlns="http://www.w3.org/2000/svg" xmlns:rdkit="http://www.rdkit.org/xml" xmlns:xlink="http://www.w3.org/1999/xlink" version="1.1" baseProfile="full" xml:space="preserve" width="512px" height="261px" viewBox="0 0 512 261">

<rect style="opacity:1.0;fill:#FFFFFF;stroke:none" width="512.0" height="261.0" x="0.0" y="0.0"> </rect>
<path class="bond-0 atom-0 atom-1" d="M 115.8,247.1 L 116.2,211.9" style="fill:none;fill-rule:evenodd;stroke:#000000;stroke-width:2.0px;stroke-linecap:butt;stroke-linejoin:miter;stroke-opacity:1"/>
<path class="bond-1 atom-1 atom-2" d="M 110.3,202.6 L 75.5,192.1" style="fill:none;fill-rule:evenodd;stroke:#000000;stroke-width:2.0px;stroke-linecap:butt;stroke-linejoin:miter;stroke-opacity:1"/>
<path class="bond-2 atom-1 atom-3" d="M 122.3,201.1 L 153.5,183.6" style="fill:none;fill-rule:evenodd;stroke:#000000;stroke-width:2.0px;stroke-linecap:butt;stroke-linejoin:miter;stroke-opacity:1"/>
<path class="bond-3 atom-3 atom-4" d="M 150.3,185.4 L 181.6,204.0" style="fill:none;fill-rule:evenodd;stroke:#000000;stroke-width:2.0px;stroke-linecap:butt;stroke-linejoin:miter;stroke-opacity:1"/>
<path class="bond-3 atom-3 atom-4" d="M 153.6,179.9 L 184.9,198.5" style="fill:none;fill-rule:evenodd;stroke:#000000;stroke-width:2.0px;stroke-linecap:butt;stroke-linejoin:miter;stroke-opacity:1"/>
<path class="bond-4 atom-3 atom-5" d="M 153.5,183.6 L 154.1,141.0" style="fill:none;fill-rule:evenodd;stroke:#000000;stroke-width:2.0px;stroke-linecap:butt;stroke-linejoin:miter;stroke-opacity:1"/>
<path class="bond-5 atom-5 atom-6" d="M 154.1,141.0 L 196.7,141.5" style="fill:none;fill-rule:evenodd;stroke:#000000;stroke-width:2.0px;stroke-linecap:butt;stroke-linejoin:miter;stroke-opacity:1"/>
<path class="bond-6 atom-6 atom-7" d="M 196.7,141.5 L 217.6,178.7" style="fill:none;fill-rule:evenodd;stroke:#000000;stroke-width:2.0px;stroke-linecap:butt;stroke-linejoin:miter;stroke-opacity:1"/>
<path class="bond-7 atom-7 atom-8" d="M 217.6,178.7 L 254.2,179.2" style="fill:none;fill-rule:evenodd;stroke:#000000;stroke-width:2.0px;stroke-linecap:butt;stroke-linejoin:miter;stroke-opacity:1"/>
<path class="bond-8 atom-8 atom-9" d="M 264.4,186.7 L 281.0,216.5" style="fill:none;fill-rule:evenodd;stroke:#000000;stroke-width:2.0px;stroke-linecap:butt;stroke-linejoin:miter;stroke-opacity:1"/>
<path class="bond-9 atom-9 atom-10" d="M 281.0,216.5 L 323.7,217.1" style="fill:none;fill-rule:evenodd;stroke:#000000;stroke-width:2.0px;stroke-linecap:butt;stroke-linejoin:miter;stroke-opacity:1"/>
<path class="bond-10 atom-10 atom-11" d="M 323.7,217.1 L 345.5,180.4" style="fill:none;fill-rule:evenodd;stroke:#000000;stroke-width:2.0px;stroke-linecap:butt;stroke-linejoin:miter;stroke-opacity:1"/>
<path class="bond-11 atom-11 atom-12" d="M 345.5,180.4 L 324.6,143.2" style="fill:none;fill-rule:evenodd;stroke:#000000;stroke-width:2.0px;stroke-linecap:butt;stroke-linejoin:miter;stroke-opacity:1"/>
<path class="bond-12 atom-12 atom-13" d="M 324.6,143.2 L 282.0,142.6" style="fill:none;fill-rule:evenodd;stroke:#000000;stroke-width:2.0px;stroke-linecap:butt;stroke-linejoin:miter;stroke-opacity:1"/>
<path class="bond-13 atom-11 atom-14" d="M 345.5,180.4 L 378.5,153.4" style="fill:none;fill-rule:evenodd;stroke:#000000;stroke-width:2.0px;stroke-linecap:butt;stroke-linejoin:miter;stroke-opacity:1"/>
<path class="bond-14 atom-14 atom-15" d="M 378.5,153.4 L 418.4,168.6" style="fill:none;fill-rule:evenodd;stroke:#000000;stroke-width:2.0px;stroke-linecap:butt;stroke-linejoin:miter;stroke-opacity:1"/>
<path class="bond-15 atom-15 atom-16" d="M 418.4,168.6 L 451.4,141.6" style="fill:none;fill-rule:evenodd;stroke:#000000;stroke-width:2.0px;stroke-linecap:butt;stroke-linejoin:miter;stroke-opacity:1"/>
<path class="bond-15 atom-15 atom-16" d="M 417.2,161.3 L 444.5,139.0" style="fill:none;fill-rule:evenodd;stroke:#000000;stroke-width:2.0px;stroke-linecap:butt;stroke-linejoin:miter;stroke-opacity:1"/>
<path class="bond-16 atom-16 atom-17" d="M 451.4,141.6 L 444.5,99.5" style="fill:none;fill-rule:evenodd;stroke:#000000;stroke-width:2.0px;stroke-linecap:butt;stroke-linejoin:miter;stroke-opacity:1"/>
<path class="bond-17 atom-17 atom-18" d="M 444.5,99.5 L 471.5,77.5" style="fill:none;fill-rule:evenodd;stroke:#000000;stroke-width:2.0px;stroke-linecap:butt;stroke-linejoin:miter;stroke-opacity:1"/>
<path class="bond-18 atom-17 atom-19" d="M 444.5,99.5 L 404.7,84.4" style="fill:none;fill-rule:evenodd;stroke:#000000;stroke-width:2.0px;stroke-linecap:butt;stroke-linejoin:miter;stroke-opacity:1"/>
<path class="bond-18 atom-17 atom-19" d="M 438.8,104.2 L 405.8,91.7" style="fill:none;fill-rule:evenodd;stroke:#000000;stroke-width:2.0px;stroke-linecap:butt;stroke-linejoin:miter;stroke-opacity:1"/>
<path class="bond-19 atom-19 atom-20" d="M 404.7,84.4 L 371.6,111.4" style="fill:none;fill-rule:evenodd;stroke:#000000;stroke-width:2.0px;stroke-linecap:butt;stroke-linejoin:miter;stroke-opacity:1"/>
<path class="bond-20 atom-11 atom-21" d="M 345.5,180.4 L 370.8,202.3" style="fill:none;fill-rule:evenodd;stroke:#000000;stroke-width:2.0px;stroke-linecap:butt;stroke-linejoin:miter;stroke-opacity:1"/>
<path class="bond-21 atom-5 atom-22" d="M 154.1,141.0 L 111.5,140.4" style="fill:none;fill-rule:evenodd;stroke:#000000;stroke-width:2.0px;stroke-linecap:butt;stroke-linejoin:miter;stroke-opacity:1"/>
<path class="bond-22 atom-22 atom-23" d="M 111.5,140.4 L 90.6,103.2" style="fill:none;fill-rule:evenodd;stroke:#000000;stroke-width:2.0px;stroke-linecap:butt;stroke-linejoin:miter;stroke-opacity:1"/>
<path class="bond-22 atom-22 atom-23" d="M 104.1,140.3 L 86.9,109.5" style="fill:none;fill-rule:evenodd;stroke:#000000;stroke-width:2.0px;stroke-linecap:butt;stroke-linejoin:miter;stroke-opacity:1"/>
<path class="bond-23 atom-23 atom-24" d="M 90.6,103.2 L 48.0,102.6" style="fill:none;fill-rule:evenodd;stroke:#000000;stroke-width:2.0px;stroke-linecap:butt;stroke-linejoin:miter;stroke-opacity:1"/>
<path class="bond-24 atom-24 atom-25" d="M 48.0,102.6 L 26.2,139.3" style="fill:none;fill-rule:evenodd;stroke:#000000;stroke-width:2.0px;stroke-linecap:butt;stroke-linejoin:miter;stroke-opacity:1"/>
<path class="bond-24 atom-24 atom-25" d="M 51.6,109.1 L 33.6,139.4" style="fill:none;fill-rule:evenodd;stroke:#000000;stroke-width:2.0px;stroke-linecap:butt;stroke-linejoin:miter;stroke-opacity:1"/>
<path class="bond-25 atom-25 atom-26" d="M 26.2,139.3 L 47.0,176.5" style="fill:none;fill-rule:evenodd;stroke:#000000;stroke-width:2.0px;stroke-linecap:butt;stroke-linejoin:miter;stroke-opacity:1"/>
<path class="bond-26 atom-26 atom-27" d="M 47.0,176.5 L 89.7,177.0" style="fill:none;fill-rule:evenodd;stroke:#000000;stroke-width:2.0px;stroke-linecap:butt;stroke-linejoin:miter;stroke-opacity:1"/>
<path class="bond-26 atom-26 atom-27" d="M 50.8,170.1 L 86.0,170.6" style="fill:none;fill-rule:evenodd;stroke:#000000;stroke-width:2.0px;stroke-linecap:butt;stroke-linejoin:miter;stroke-opacity:1"/>
<path class="bond-27 atom-5 atom-28" d="M 154.1,141.0 L 154.7,98.3" style="fill:none;fill-rule:evenodd;stroke:#000000;stroke-width:2.0px;stroke-linecap:butt;stroke-linejoin:miter;stroke-opacity:1"/>
<path class="bond-28 atom-28 atom-29" d="M 154.7,98.3 L 191.9,77.5" style="fill:none;fill-rule:evenodd;stroke:#000000;stroke-width:2.0px;stroke-linecap:butt;stroke-linejoin:miter;stroke-opacity:1"/>
<path class="bond-28 atom-28 atom-29" d="M 154.8,90.9 L 185.5,73.7" style="fill:none;fill-rule:evenodd;stroke:#000000;stroke-width:2.0px;stroke-linecap:butt;stroke-linejoin:miter;stroke-opacity:1"/>
<path class="bond-29 atom-29 atom-30" d="M 191.9,77.5 L 192.4,34.9" style="fill:none;fill-rule:evenodd;stroke:#000000;stroke-width:2.0px;stroke-linecap:butt;stroke-linejoin:miter;stroke-opacity:1"/>
<path class="bond-30 atom-30 atom-31" d="M 192.4,34.9 L 155.8,13.1" style="fill:none;fill-rule:evenodd;stroke:#000000;stroke-width:2.0px;stroke-linecap:butt;stroke-linejoin:miter;stroke-opacity:1"/>
<path class="bond-30 atom-30 atom-31" d="M 186.0,38.5 L 155.7,20.4" style="fill:none;fill-rule:evenodd;stroke:#000000;stroke-width:2.0px;stroke-linecap:butt;stroke-linejoin:miter;stroke-opacity:1"/>
<path class="bond-31 atom-31 atom-32" d="M 155.8,13.1 L 118.6,33.9" style="fill:none;fill-rule:evenodd;stroke:#000000;stroke-width:2.0px;stroke-linecap:butt;stroke-linejoin:miter;stroke-opacity:1"/>
<path class="bond-32 atom-32 atom-33" d="M 118.6,33.9 L 118.0,76.5" style="fill:none;fill-rule:evenodd;stroke:#000000;stroke-width:2.0px;stroke-linecap:butt;stroke-linejoin:miter;stroke-opacity:1"/>
<path class="bond-32 atom-32 atom-33" d="M 124.9,37.7 L 124.5,72.9" style="fill:none;fill-rule:evenodd;stroke:#000000;stroke-width:2.0px;stroke-linecap:butt;stroke-linejoin:miter;stroke-opacity:1"/>
<path class="bond-33 atom-13 atom-8" d="M 282.0,142.6 L 264.6,171.8" style="fill:none;fill-rule:evenodd;stroke:#000000;stroke-width:2.0px;stroke-linecap:butt;stroke-linejoin:miter;stroke-opacity:1"/>
<path class="bond-34 atom-20 atom-14" d="M 371.6,111.4 L 378.5,153.4" style="fill:none;fill-rule:evenodd;stroke:#000000;stroke-width:2.0px;stroke-linecap:butt;stroke-linejoin:miter;stroke-opacity:1"/>
<path class="bond-34 atom-20 atom-14" d="M 378.5,114.0 L 384.2,148.8" style="fill:none;fill-rule:evenodd;stroke:#000000;stroke-width:2.0px;stroke-linecap:butt;stroke-linejoin:miter;stroke-opacity:1"/>
<path class="bond-35 atom-27 atom-22" d="M 89.7,177.0 L 111.5,140.4" style="fill:none;fill-rule:evenodd;stroke:#000000;stroke-width:2.0px;stroke-linecap:butt;stroke-linejoin:miter;stroke-opacity:1"/>
<path class="bond-36 atom-33 atom-28" d="M 118.0,76.5 L 154.7,98.3" style="fill:none;fill-rule:evenodd;stroke:#000000;stroke-width:2.0px;stroke-linecap:butt;stroke-linejoin:miter;stroke-opacity:1"/>
<path d="M 152.0,184.5 L 153.5,183.6 L 153.6,181.5" style="fill:none;stroke:#000000;stroke-width:2.0px;stroke-linecap:butt;stroke-linejoin:miter;stroke-miterlimit:10;stroke-opacity:1;"/>
<path d="M 194.6,141.5 L 196.7,141.5 L 197.8,143.4" style="fill:none;stroke:#000000;stroke-width:2.0px;stroke-linecap:butt;stroke-linejoin:miter;stroke-miterlimit:10;stroke-opacity:1;"/>
<path d="M 216.5,176.9 L 217.6,178.7 L 219.4,178.7" style="fill:none;stroke:#000000;stroke-width:2.0px;stroke-linecap:butt;stroke-linejoin:miter;stroke-miterlimit:10;stroke-opacity:1;"/>
<path d="M 280.2,215.0 L 281.0,216.5 L 283.2,216.5" style="fill:none;stroke:#000000;stroke-width:2.0px;stroke-linecap:butt;stroke-linejoin:miter;stroke-miterlimit:10;stroke-opacity:1;"/>
<path d="M 321.5,217.0 L 323.7,217.1 L 324.7,215.2" style="fill:none;stroke:#000000;stroke-width:2.0px;stroke-linecap:butt;stroke-linejoin:miter;stroke-miterlimit:10;stroke-opacity:1;"/>
<path d="M 325.7,145.1 L 324.6,143.2 L 322.5,143.2" style="fill:none;stroke:#000000;stroke-width:2.0px;stroke-linecap:butt;stroke-linejoin:miter;stroke-miterlimit:10;stroke-opacity:1;"/>
<path d="M 284.1,142.7 L 282.0,142.6 L 281.1,144.1" style="fill:none;stroke:#000000;stroke-width:2.0px;stroke-linecap:butt;stroke-linejoin:miter;stroke-miterlimit:10;stroke-opacity:1;"/>
<path d="M 416.4,167.8 L 418.4,168.6 L 420.0,167.2" style="fill:none;stroke:#000000;stroke-width:2.0px;stroke-linecap:butt;stroke-linejoin:miter;stroke-miterlimit:10;stroke-opacity:1;"/>
<path d="M 449.7,142.9 L 451.4,141.6 L 451.0,139.5" style="fill:none;stroke:#000000;stroke-width:2.0px;stroke-linecap:butt;stroke-linejoin:miter;stroke-miterlimit:10;stroke-opacity:1;"/>
<path d="M 406.7,85.1 L 404.7,84.4 L 403.0,85.7" style="fill:none;stroke:#000000;stroke-width:2.0px;stroke-linecap:butt;stroke-linejoin:miter;stroke-miterlimit:10;stroke-opacity:1;"/>
<path d="M 373.3,110.0 L 371.6,111.4 L 372.0,113.5" style="fill:none;stroke:#000000;stroke-width:2.0px;stroke-linecap:butt;stroke-linejoin:miter;stroke-miterlimit:10;stroke-opacity:1;"/>
<path d="M 91.7,105.0 L 90.6,103.2 L 88.5,103.2" style="fill:none;stroke:#000000;stroke-width:2.0px;stroke-linecap:butt;stroke-linejoin:miter;stroke-miterlimit:10;stroke-opacity:1;"/>
<path d="M 50.1,102.6 L 48.0,102.6 L 46.9,104.5" style="fill:none;stroke:#000000;stroke-width:2.0px;stroke-linecap:butt;stroke-linejoin:miter;stroke-miterlimit:10;stroke-opacity:1;"/>
<path d="M 27.3,137.4 L 26.2,139.3 L 27.2,141.1" style="fill:none;stroke:#000000;stroke-width:2.0px;stroke-linecap:butt;stroke-linejoin:miter;stroke-miterlimit:10;stroke-opacity:1;"/>
<path d="M 46.0,174.6 L 47.0,176.5 L 49.2,176.5" style="fill:none;stroke:#000000;stroke-width:2.0px;stroke-linecap:butt;stroke-linejoin:miter;stroke-miterlimit:10;stroke-opacity:1;"/>
<path d="M 87.5,177.0 L 89.7,177.0 L 90.7,175.2" style="fill:none;stroke:#000000;stroke-width:2.0px;stroke-linecap:butt;stroke-linejoin:miter;stroke-miterlimit:10;stroke-opacity:1;"/>
<path d="M 190.0,78.5 L 191.9,77.5 L 191.9,75.4" style="fill:none;stroke:#000000;stroke-width:2.0px;stroke-linecap:butt;stroke-linejoin:miter;stroke-miterlimit:10;stroke-opacity:1;"/>
<path d="M 192.4,37.0 L 192.4,34.9 L 190.6,33.8" style="fill:none;stroke:#000000;stroke-width:2.0px;stroke-linecap:butt;stroke-linejoin:miter;stroke-miterlimit:10;stroke-opacity:1;"/>
<path d="M 157.6,14.1 L 155.8,13.1 L 153.9,14.1" style="fill:none;stroke:#000000;stroke-width:2.0px;stroke-linecap:butt;stroke-linejoin:miter;stroke-miterlimit:10;stroke-opacity:1;"/>
<path d="M 120.4,32.8 L 118.6,33.9 L 118.6,36.0" style="fill:none;stroke:#000000;stroke-width:2.0px;stroke-linecap:butt;stroke-linejoin:miter;stroke-miterlimit:10;stroke-opacity:1;"/>
<path d="M 118.1,74.4 L 118.0,76.5 L 119.9,77.6" style="fill:none;stroke:#000000;stroke-width:2.0px;stroke-linecap:butt;stroke-linejoin:miter;stroke-miterlimit:10;stroke-opacity:1;"/>
<path class="atom-1" d="M 113.7 198.4 L 117.6 204.8 Q 118.0 205.4, 118.6 206.5 Q 119.3 207.7, 119.3 207.8 L 119.3 198.4 L 120.9 198.4 L 120.9 210.5 L 119.3 210.5 L 115.0 203.5 Q 114.5 202.6, 114.0 201.7 Q 113.5 200.8, 113.3 200.5 L 113.3 210.5 L 111.7 210.5 L 111.7 198.4 L 113.7 198.4 " fill="#000000"/>
<path class="atom-4" d="M 184.6 205.4 Q 184.6 202.5, 186.1 200.9 Q 187.5 199.3, 190.2 199.3 Q 192.9 199.3, 194.3 200.9 Q 195.7 202.5, 195.7 205.4 Q 195.7 208.4, 194.3 210.0 Q 192.8 211.7, 190.2 211.7 Q 187.5 211.7, 186.1 210.0 Q 184.6 208.4, 184.6 205.4 M 190.2 210.3 Q 192.0 210.3, 193.0 209.1 Q 194.0 207.8, 194.0 205.4 Q 194.0 203.1, 193.0 201.9 Q 192.0 200.7, 190.2 200.7 Q 188.3 200.7, 187.3 201.8 Q 186.3 203.0, 186.3 205.4 Q 186.3 207.9, 187.3 209.1 Q 188.3 210.3, 190.2 210.3 " fill="#000000"/>
<path class="atom-8" d="M 257.5 173.2 L 261.5 179.6 Q 261.9 180.3, 262.5 181.4 Q 263.1 182.6, 263.2 182.6 L 263.2 173.2 L 264.8 173.2 L 264.8 185.3 L 263.1 185.3 L 258.9 178.3 Q 258.4 177.5, 257.8 176.6 Q 257.3 175.6, 257.2 175.3 L 257.2 185.3 L 255.6 185.3 L 255.6 173.2 L 257.5 173.2 " fill="#000000"/>
<path class="atom-18" d="M 472.9 72.9 Q 472.9 69.9, 474.3 68.4 Q 475.7 66.8, 478.4 66.8 Q 480.9 66.8, 482.2 68.5 L 481.1 69.5 Q 480.1 68.2, 478.4 68.2 Q 476.6 68.2, 475.6 69.4 Q 474.6 70.6, 474.6 72.9 Q 474.6 75.3, 475.6 76.6 Q 476.6 77.8, 478.6 77.8 Q 479.9 77.8, 481.5 77.0 L 481.9 78.3 Q 481.3 78.7, 480.4 78.9 Q 479.4 79.2, 478.3 79.2 Q 475.7 79.2, 474.3 77.5 Q 472.9 75.9, 472.9 72.9 " fill="#000000"/>
<path class="atom-18" d="M 483.4 66.1 L 485.0 66.1 L 485.0 79.0 L 483.4 79.0 L 483.4 66.1 " fill="#000000"/>
<path class="atom-21" d="M 372.2 208.3 Q 372.2 205.4, 373.6 203.8 Q 375.1 202.1, 377.8 202.1 Q 380.4 202.1, 381.9 203.8 Q 383.3 205.4, 383.3 208.3 Q 383.3 211.2, 381.9 212.9 Q 380.4 214.5, 377.8 214.5 Q 375.1 214.5, 373.6 212.9 Q 372.2 211.2, 372.2 208.3 M 377.8 213.2 Q 379.6 213.2, 380.6 212.0 Q 381.6 210.7, 381.6 208.3 Q 381.6 205.9, 380.6 204.7 Q 379.6 203.5, 377.8 203.5 Q 375.9 203.5, 374.9 204.7 Q 373.9 205.9, 373.9 208.3 Q 373.9 210.7, 374.9 212.0 Q 375.9 213.2, 377.8 213.2 " fill="#000000"/>
<path class="atom-21" d="M 385.2 202.3 L 386.8 202.3 L 386.8 207.4 L 393.0 207.4 L 393.0 202.3 L 394.6 202.3 L 394.6 214.4 L 393.0 214.4 L 393.0 208.8 L 386.8 208.8 L 386.8 214.4 L 385.2 214.4 L 385.2 202.3 " fill="#000000"/>
</svg>