<?xml version='1.0' encoding='utf-8'?>
<svg xmlns="http://www.w3.org/2000/svg" xmlns:rdkit="http://www.rdkit.org/xml" xmlns:xlink="http://www.w3.org/1999/xlink" version="1.1" baseProfile="full" xml:space="preserve" width="512px" height="453px" viewBox="0 0 512 453">

<rect style="opacity:1.0;fill:#FFFFFF;stroke:none" width="512.0" height="453.0" x="0.0" y="0.0"> </rect>
<path class="bond-0 atom-0 atom-1" d="M 317.9,395.6 L 249.3,428.3" style="fill:none;fill-rule:evenodd;stroke:#000000;stroke-width:2.0px;stroke-linecap:butt;stroke-linejoin:miter;stroke-opacity:1"/>
<path class="bond-0 atom-0 atom-1" d="M 307.1,388.1 L 250.3,415.1" style="fill:none;fill-rule:evenodd;stroke:#000000;stroke-width:2.0px;stroke-linecap:butt;stroke-linejoin:miter;stroke-opacity:1"/>
<path class="bond-1 atom-1 atom-2" d="M 249.3,428.3 L 186.7,385.2" style="fill:none;fill-rule:evenodd;stroke:#000000;stroke-width:2.0px;stroke-linecap:butt;stroke-linejoin:miter;stroke-opacity:1"/>
<path class="bond-2 atom-2 atom-3" d="M 186.7,385.2 L 192.7,309.4" style="fill:none;fill-rule:evenodd;stroke:#000000;stroke-width:2.0px;stroke-linecap:butt;stroke-linejoin:miter;stroke-opacity:1"/>
<path class="bond-2 atom-2 atom-3" d="M 198.6,379.5 L 203.5,316.8" style="fill:none;fill-rule:evenodd;stroke:#000000;stroke-width:2.0px;stroke-linecap:butt;stroke-linejoin:miter;stroke-opacity:1"/>
<path class="bond-3 atom-3 atom-4" d="M 192.7,309.4 L 261.3,276.7" style="fill:none;fill-rule:evenodd;stroke:#000000;stroke-width:2.0px;stroke-linecap:butt;stroke-linejoin:miter;stroke-opacity:1"/>
<path class="bond-4 atom-4 atom-5" d="M 261.3,276.7 L 324.0,319.8" style="fill:none;fill-rule:evenodd;stroke:#000000;stroke-width:2.0px;stroke-linecap:butt;stroke-linejoin:miter;stroke-opacity:1"/>
<path class="bond-4 atom-4 atom-5" d="M 260.3,289.8 L 312.1,325.5" style="fill:none;fill-rule:evenodd;stroke:#000000;stroke-width:2.0px;stroke-linecap:butt;stroke-linejoin:miter;stroke-opacity:1"/>
<path class="bond-5 atom-5 atom-6" d="M 324.0,319.8 L 392.6,287.1" style="fill:none;fill-rule:evenodd;stroke:#000000;stroke-width:2.0px;stroke-linecap:butt;stroke-linejoin:miter;stroke-opacity:1"/>
<path class="bond-6 atom-6 atom-7" d="M 398.0,290.9 L 403.2,225.5" style="fill:none;fill-rule:evenodd;stroke:#000000;stroke-width:2.0px;stroke-linecap:butt;stroke-linejoin:miter;stroke-opacity:1"/>
<path class="bond-6 atom-6 atom-7" d="M 386.6,290.0 L 391.8,224.6" style="fill:none;fill-rule:evenodd;stroke:#000000;stroke-width:2.0px;stroke-linecap:butt;stroke-linejoin:miter;stroke-opacity:1"/>
<path class="bond-7 atom-6 atom-8" d="M 392.6,287.1 L 442.8,321.7" style="fill:none;fill-rule:evenodd;stroke:#000000;stroke-width:2.0px;stroke-linecap:butt;stroke-linejoin:miter;stroke-opacity:1"/>
<path class="bond-8 atom-3 atom-9" d="M 192.7,309.4 L 139.5,272.8" style="fill:none;fill-rule:evenodd;stroke:#000000;stroke-width:2.0px;stroke-linecap:butt;stroke-linejoin:miter;stroke-opacity:1"/>
<path class="bond-9 atom-9 atom-10" d="M 143.9,256.3 L 168.4,220.6" style="fill:none;fill-rule:evenodd;stroke:#000000;stroke-width:2.0px;stroke-linecap:butt;stroke-linejoin:miter;stroke-opacity:1"/>
<path class="bond-9 atom-9 atom-10" d="M 134.5,249.8 L 159.0,214.2" style="fill:none;fill-rule:evenodd;stroke:#000000;stroke-width:2.0px;stroke-linecap:butt;stroke-linejoin:miter;stroke-opacity:1"/>
<path class="bond-10 atom-9 atom-11" d="M 116.0,276.7 L 91.5,312.3" style="fill:none;fill-rule:evenodd;stroke:#000000;stroke-width:2.0px;stroke-linecap:butt;stroke-linejoin:miter;stroke-opacity:1"/>
<path class="bond-10 atom-9 atom-11" d="M 125.4,283.2 L 100.9,318.7" style="fill:none;fill-rule:evenodd;stroke:#000000;stroke-width:2.0px;stroke-linecap:butt;stroke-linejoin:miter;stroke-opacity:1"/>
<path class="bond-11 atom-9 atom-12" d="M 120.7,259.8 L 78.1,230.5" style="fill:none;fill-rule:evenodd;stroke:#000000;stroke-width:2.0px;stroke-linecap:butt;stroke-linejoin:miter;stroke-opacity:1"/>
<path class="bond-12 atom-2 atom-13" d="M 186.7,385.2 L 121.9,416.0" style="fill:none;fill-rule:evenodd;stroke:#000000;stroke-width:2.0px;stroke-linecap:butt;stroke-linejoin:miter;stroke-opacity:1"/>
<path class="bond-13 atom-14 atom-15" d="M 107.5,78.4 L 149.5,122.1" style="fill:none;fill-rule:evenodd;stroke:#000000;stroke-width:2.0px;stroke-linecap:butt;stroke-linejoin:miter;stroke-opacity:1"/>
<path class="bond-14 atom-15 atom-16" d="M 149.5,122.1 L 223.3,103.9" style="fill:none;fill-rule:evenodd;stroke:#000000;stroke-width:2.0px;stroke-linecap:butt;stroke-linejoin:miter;stroke-opacity:1"/>
<path class="bond-15 atom-16 atom-17" d="M 223.3,103.9 L 281.4,153.0" style="fill:none;fill-rule:evenodd;stroke:#000000;stroke-width:2.0px;stroke-linecap:butt;stroke-linejoin:miter;stroke-opacity:1"/>
<path class="bond-15 atom-16 atom-17" d="M 237.0,100.6 L 282.4,138.9" style="fill:none;fill-rule:evenodd;stroke:#000000;stroke-width:2.0px;stroke-linecap:butt;stroke-linejoin:miter;stroke-opacity:1"/>
<path class="bond-16 atom-17 atom-18" d="M 281.4,153.0 L 346.0,112.9" style="fill:none;fill-rule:evenodd;stroke:#000000;stroke-width:2.0px;stroke-linecap:butt;stroke-linejoin:miter;stroke-opacity:1"/>
<path class="bond-17 atom-18 atom-19" d="M 346.0,112.9 L 327.8,39.1" style="fill:none;fill-rule:evenodd;stroke:#000000;stroke-width:2.0px;stroke-linecap:butt;stroke-linejoin:miter;stroke-opacity:1"/>
<path class="bond-17 atom-18 atom-19" d="M 333.0,107.6 L 318.7,49.8" style="fill:none;fill-rule:evenodd;stroke:#000000;stroke-width:2.0px;stroke-linecap:butt;stroke-linejoin:miter;stroke-opacity:1"/>
<path class="bond-18 atom-19 atom-20" d="M 327.8,39.1 L 264.4,34.4" style="fill:none;fill-rule:evenodd;stroke:#000000;stroke-width:2.0px;stroke-linecap:butt;stroke-linejoin:miter;stroke-opacity:1"/>
<path class="bond-19 atom-5 atom-0" d="M 324.0,319.8 L 317.9,395.6" style="fill:none;fill-rule:evenodd;stroke:#000000;stroke-width:2.0px;stroke-linecap:butt;stroke-linejoin:miter;stroke-opacity:1"/>
<path class="bond-20 atom-20 atom-16" d="M 246.4,47.3 L 223.3,103.9" style="fill:none;fill-rule:evenodd;stroke:#000000;stroke-width:2.0px;stroke-linecap:butt;stroke-linejoin:miter;stroke-opacity:1"/>
<path d="M 314.5,397.2 L 317.9,395.6 L 318.2,391.8" style="fill:none;stroke:#000000;stroke-width:2.0px;stroke-linecap:butt;stroke-linejoin:miter;stroke-miterlimit:10;stroke-opacity:1;"/>
<path d="M 252.7,426.6 L 249.3,428.3 L 246.2,426.1" style="fill:none;stroke:#000000;stroke-width:2.0px;stroke-linecap:butt;stroke-linejoin:miter;stroke-miterlimit:10;stroke-opacity:1;"/>
<path d="M 257.9,278.3 L 261.3,276.7 L 264.5,278.9" style="fill:none;stroke:#000000;stroke-width:2.0px;stroke-linecap:butt;stroke-linejoin:miter;stroke-miterlimit:10;stroke-opacity:1;"/>
<path d="M 389.2,288.8 L 392.6,287.1 L 395.1,288.9" style="fill:none;stroke:#000000;stroke-width:2.0px;stroke-linecap:butt;stroke-linejoin:miter;stroke-miterlimit:10;stroke-opacity:1;"/>
<path d="M 147.4,119.9 L 149.5,122.1 L 153.2,121.2" style="fill:none;stroke:#000000;stroke-width:2.0px;stroke-linecap:butt;stroke-linejoin:miter;stroke-miterlimit:10;stroke-opacity:1;"/>
<path d="M 278.5,150.5 L 281.4,153.0 L 284.6,151.0" style="fill:none;stroke:#000000;stroke-width:2.0px;stroke-linecap:butt;stroke-linejoin:miter;stroke-miterlimit:10;stroke-opacity:1;"/>
<path d="M 342.8,114.9 L 346.0,112.9 L 345.1,109.2" style="fill:none;stroke:#000000;stroke-width:2.0px;stroke-linecap:butt;stroke-linejoin:miter;stroke-miterlimit:10;stroke-opacity:1;"/>
<path d="M 328.7,42.8 L 327.8,39.1 L 324.7,38.8" style="fill:none;stroke:#000000;stroke-width:2.0px;stroke-linecap:butt;stroke-linejoin:miter;stroke-miterlimit:10;stroke-opacity:1;"/>
<path class="atom-7" d="M 388.7 211.4 Q 388.7 206.3, 391.3 203.4 Q 393.8 200.5, 398.6 200.5 Q 403.4 200.5, 405.9 203.4 Q 408.5 206.3, 408.5 211.4 Q 408.5 216.7, 405.9 219.6 Q 403.3 222.6, 398.6 222.6 Q 393.9 222.6, 391.3 219.6 Q 388.7 216.7, 388.7 211.4 M 398.6 220.2 Q 401.9 220.2, 403.7 218.0 Q 405.5 215.7, 405.5 211.4 Q 405.5 207.2, 403.7 205.1 Q 401.9 202.9, 398.6 202.9 Q 395.3 202.9, 393.5 205.0 Q 391.8 207.2, 391.8 211.4 Q 391.8 215.8, 393.5 218.0 Q 395.3 220.2, 398.6 220.2 " fill="#000000"/>
<path class="atom-8" d="M 445.3 330.3 Q 445.3 325.1, 447.9 322.3 Q 450.4 319.4, 455.2 319.4 Q 460.0 319.4, 462.5 322.3 Q 465.1 325.1, 465.1 330.3 Q 465.1 335.5, 462.5 338.5 Q 459.9 341.5, 455.2 341.5 Q 450.5 341.5, 447.9 338.5 Q 445.3 335.6, 445.3 330.3 M 455.2 339.0 Q 458.5 339.0, 460.3 336.9 Q 462.1 334.6, 462.1 330.3 Q 462.1 326.1, 460.3 324.0 Q 458.5 321.8, 455.2 321.8 Q 451.9 321.8, 450.1 323.9 Q 448.4 326.1, 448.4 330.3 Q 448.4 334.7, 450.1 336.9 Q 451.9 339.0, 455.2 339.0 " fill="#000000"/>
<path class="atom-8" d="M 468.4 319.6 L 471.4 319.6 L 471.4 328.8 L 482.4 328.8 L 482.4 319.6 L 485.3 319.6 L 485.3 341.1 L 482.4 341.1 L 482.4 331.2 L 471.4 331.2 L 471.4 341.1 L 468.4 341.1 L 468.4 319.6 " fill="#000000"/>
<path class="atom-9" d="M 124.0 273.7 Q 124.2 273.8, 125.2 274.2 Q 126.2 274.6, 127.3 274.9 Q 128.5 275.1, 129.6 275.1 Q 131.6 275.1, 132.8 274.1 Q 134.0 273.1, 134.0 271.4 Q 134.0 270.2, 133.4 269.5 Q 132.8 268.8, 131.9 268.4 Q 131.0 268.0, 129.4 267.5 Q 127.5 266.9, 126.4 266.4 Q 125.2 265.8, 124.4 264.7 Q 123.6 263.5, 123.6 261.6 Q 123.6 258.9, 125.5 257.2 Q 127.3 255.5, 131.0 255.5 Q 133.5 255.5, 136.3 256.7 L 135.6 259.1 Q 133.0 258.0, 131.1 258.0 Q 129.0 258.0, 127.8 258.9 Q 126.6 259.7, 126.7 261.2 Q 126.7 262.4, 127.2 263.1 Q 127.9 263.8, 128.7 264.2 Q 129.6 264.6, 131.1 265.0 Q 133.0 265.6, 134.2 266.2 Q 135.3 266.9, 136.1 268.1 Q 137.0 269.3, 137.0 271.4 Q 137.0 274.4, 135.0 276.0 Q 133.0 277.6, 129.7 277.6 Q 127.8 277.6, 126.3 277.2 Q 124.9 276.8, 123.2 276.1 L 124.0 273.7 " fill="#000000"/>
<path class="atom-10" d="M 163.3 203.7 Q 163.3 198.5, 165.9 195.7 Q 168.4 192.8, 173.2 192.8 Q 178.0 192.8, 180.5 195.7 Q 183.1 198.5, 183.1 203.7 Q 183.1 208.9, 180.5 211.9 Q 177.9 214.9, 173.2 214.9 Q 168.4 214.9, 165.9 211.9 Q 163.3 209.0, 163.3 203.7 M 173.2 212.4 Q 176.5 212.4, 178.2 210.3 Q 180.0 208.0, 180.0 203.7 Q 180.0 199.5, 178.2 197.4 Q 176.5 195.2, 173.2 195.2 Q 169.9 195.2, 168.1 197.3 Q 166.3 199.5, 166.3 203.7 Q 166.3 208.1, 168.1 210.3 Q 169.9 212.4, 173.2 212.4 " fill="#000000"/>
<path class="atom-11" d="M 77.1 328.9 Q 77.1 323.8, 79.6 320.9 Q 82.2 318.0, 87.0 318.0 Q 91.7 318.0, 94.3 320.9 Q 96.9 323.8, 96.9 328.9 Q 96.9 334.2, 94.3 337.2 Q 91.7 340.1, 87.0 340.1 Q 82.2 340.1, 79.6 337.2 Q 77.1 334.2, 77.1 328.9 M 87.0 337.7 Q 90.3 337.7, 92.0 335.5 Q 93.8 333.3, 93.8 328.9 Q 93.8 324.7, 92.0 322.6 Q 90.3 320.4, 87.0 320.4 Q 83.7 320.4, 81.9 322.6 Q 80.1 324.7, 80.1 328.9 Q 80.1 333.3, 81.9 335.5 Q 83.7 337.7, 87.0 337.7 " fill="#000000"/>
<path class="atom-12" d="M 25.9 212.4 L 28.8 212.4 L 28.8 221.6 L 39.8 221.6 L 39.8 212.4 L 42.8 212.4 L 42.8 233.9 L 39.8 233.9 L 39.8 224.0 L 28.8 224.0 L 28.8 233.9 L 25.9 233.9 L 25.9 212.4 " fill="#000000"/>
<path class="atom-12" d="M 47.0 233.2 Q 47.5 231.8, 48.7 231.1 Q 50.0 230.3, 51.7 230.3 Q 53.9 230.3, 55.1 231.5 Q 56.3 232.7, 56.3 234.7 Q 56.3 236.8, 54.7 238.8 Q 53.2 240.8, 49.9 243.1 L 56.5 243.1 L 56.5 244.7 L 46.9 244.7 L 46.9 243.3 Q 49.6 241.5, 51.1 240.1 Q 52.7 238.7, 53.5 237.4 Q 54.3 236.1, 54.3 234.8 Q 54.3 233.5, 53.6 232.7 Q 52.9 231.9, 51.7 231.9 Q 50.6 231.9, 49.8 232.4 Q 49.0 232.9, 48.5 233.9 L 47.0 233.2 " fill="#000000"/>
<path class="atom-12" d="M 62.7 212.4 L 69.8 223.8 Q 70.5 224.9, 71.6 227.0 Q 72.7 229.0, 72.8 229.1 L 72.8 212.4 L 75.6 212.4 L 75.6 233.9 L 72.7 233.9 L 65.1 221.5 Q 64.2 220.0, 63.3 218.3 Q 62.4 216.7, 62.1 216.1 L 62.1 233.9 L 59.3 233.9 L 59.3 212.4 L 62.7 212.4 " fill="#000000"/>
<path class="atom-13" d="M 97.8 418.6 Q 97.8 413.2, 100.3 410.4 Q 102.9 407.6, 107.6 407.6 Q 112.1 407.6, 114.4 410.7 L 112.4 412.4 Q 110.7 410.1, 107.6 410.1 Q 104.4 410.1, 102.6 412.3 Q 100.9 414.4, 100.9 418.6 Q 100.9 422.8, 102.7 425.0 Q 104.5 427.2, 108.0 427.2 Q 110.3 427.2, 113.1 425.8 L 114.0 428.1 Q 112.8 428.8, 111.1 429.2 Q 109.4 429.6, 107.5 429.6 Q 102.9 429.6, 100.3 426.8 Q 97.8 423.9, 97.8 418.6 " fill="#000000"/>
<path class="atom-13" d="M 116.6 406.3 L 119.4 406.3 L 119.4 429.4 L 116.6 429.4 L 116.6 406.3 " fill="#000000"/>
<path class="atom-14" d="M 55.3 56.5 L 58.2 56.5 L 58.2 65.6 L 69.2 65.6 L 69.2 56.5 L 72.2 56.5 L 72.2 78.0 L 69.2 78.0 L 69.2 68.1 L 58.2 68.1 L 58.2 78.0 L 55.3 78.0 L 55.3 56.5 " fill="#000000"/>
<path class="atom-14" d="M 76.4 77.3 Q 76.9 75.9, 78.1 75.2 Q 79.4 74.4, 81.1 74.4 Q 83.3 74.4, 84.5 75.6 Q 85.7 76.7, 85.7 78.8 Q 85.7 80.9, 84.1 82.9 Q 82.6 84.9, 79.3 87.2 L 85.9 87.2 L 85.9 88.8 L 76.3 88.8 L 76.3 87.4 Q 79.0 85.6, 80.6 84.2 Q 82.1 82.7, 82.9 81.5 Q 83.7 80.2, 83.7 78.9 Q 83.7 77.6, 83.0 76.8 Q 82.3 76.0, 81.1 76.0 Q 80.0 76.0, 79.2 76.5 Q 78.4 76.9, 77.9 78.0 L 76.4 77.3 " fill="#000000"/>
<path class="atom-14" d="M 92.1 56.5 L 99.2 67.9 Q 99.9 69.0, 101.0 71.1 Q 102.1 73.1, 102.2 73.2 L 102.2 56.5 L 105.0 56.5 L 105.0 78.0 L 102.1 78.0 L 94.5 65.6 Q 93.6 64.1, 92.7 62.4 Q 91.8 60.8, 91.5 60.2 L 91.5 78.0 L 88.7 78.0 L 88.7 56.5 L 92.1 56.5 " fill="#000000"/>
<path class="atom-20" d="M 242.1 33.6 Q 242.1 28.4, 244.7 25.5 Q 247.2 22.7, 252.0 22.7 Q 256.8 22.7, 259.3 25.5 Q 261.9 28.4, 261.9 33.6 Q 261.9 38.8, 259.3 41.8 Q 256.7 44.8, 252.0 44.8 Q 247.3 44.8, 244.7 41.8 Q 242.1 38.9, 242.1 33.6 M 252.0 42.3 Q 255.3 42.3, 257.1 40.1 Q 258.9 37.9, 258.9 33.6 Q 258.9 29.4, 257.1 27.2 Q 255.3 25.1, 252.0 25.1 Q 248.7 25.1, 246.9 27.2 Q 245.2 29.3, 245.2 33.6 Q 245.2 37.9, 246.9 40.1 Q 248.7 42.3, 252.0 42.3 " fill="#000000"/>
</svg>