<?xml version='1.0' encoding='utf-8'?>
<svg xmlns="http://www.w3.org/2000/svg" xmlns:rdkit="http://www.rdkit.org/xml" xmlns:xlink="http://www.w3.org/1999/xlink" version="1.1" baseProfile="full" xml:space="preserve" width="512px" height="231px" viewBox="0 0 512 231">

<rect style="opacity:1.0;fill:#FFFFFF;stroke:none" width="512.0" height="231.0" x="0.0" y="0.0"> </rect>
<path class="bond-0 atom-0 atom-1" d="M 28.3,11.6 L 129.6,91.1" style="fill:none;fill-rule:evenodd;stroke:#000000;stroke-width:2.0px;stroke-linecap:butt;stroke-linejoin:miter;stroke-opacity:1"/>
<path class="bond-1 atom-1 atom-2" d="M 129.6,91.1 L 111.3,218.6" style="fill:none;fill-rule:evenodd;stroke:#000000;stroke-width:2.0px;stroke-linecap:butt;stroke-linejoin:miter;stroke-opacity:1"/>
<path class="bond-2 atom-1 atom-3" d="M 129.6,91.1 L 231.9,50.1" style="fill:none;fill-rule:evenodd;stroke:#000000;stroke-width:2.0px;stroke-linecap:butt;stroke-linejoin:miter;stroke-opacity:1"/>
<path class="bond-3 atom-3 atom-4" d="M 266.3,56.7 L 335.4,110.9" style="fill:none;fill-rule:evenodd;stroke:#000000;stroke-width:2.0px;stroke-linecap:butt;stroke-linejoin:miter;stroke-opacity:1"/>
<path class="bond-4 atom-4 atom-5" d="M 368.9,125.7 L 456.2,90.7" style="fill:none;fill-rule:evenodd;stroke:#000000;stroke-width:2.0px;stroke-linecap:butt;stroke-linejoin:miter;stroke-opacity:1"/>
<path class="bond-4 atom-4 atom-5" d="M 361.8,107.7 L 449.0,72.7" style="fill:none;fill-rule:evenodd;stroke:#000000;stroke-width:2.0px;stroke-linecap:butt;stroke-linejoin:miter;stroke-opacity:1"/>
<path class="atom-3" d="M 236.1 43.2 Q 236.1 36.4, 239.5 32.6 Q 242.8 28.8, 249.1 28.8 Q 255.4 28.8, 258.7 32.6 Q 262.1 36.4, 262.1 43.2 Q 262.1 50.1, 258.7 54.0 Q 255.3 57.9, 249.1 57.9 Q 242.9 57.9, 239.5 54.0 Q 236.1 50.2, 236.1 43.2 M 249.1 54.7 Q 253.4 54.7, 255.7 51.8 Q 258.1 48.9, 258.1 43.2 Q 258.1 37.7, 255.7 34.9 Q 253.4 32.0, 249.1 32.0 Q 244.8 32.0, 242.4 34.8 Q 240.1 37.6, 240.1 43.2 Q 240.1 49.0, 242.4 51.8 Q 244.8 54.7, 249.1 54.7 " fill="#000000"/>
<path class="atom-4" d="M 344.1 108.5 L 353.4 123.5 Q 354.3 125.0, 355.8 127.7 Q 357.3 130.4, 357.3 130.5 L 357.3 108.5 L 361.1 108.5 L 361.1 136.9 L 357.2 136.9 L 347.3 120.5 Q 346.1 118.5, 344.9 116.3 Q 343.7 114.1, 343.3 113.5 L 343.3 136.9 L 339.6 136.9 L 339.6 108.5 L 344.1 108.5 " fill="#000000"/>
<path class="atom-5" d="M 456.9 74.9 Q 456.9 68.1, 460.2 64.3 Q 463.6 60.5, 469.9 60.5 Q 476.1 60.5, 479.5 64.3 Q 482.9 68.1, 482.9 74.9 Q 482.9 81.7, 479.5 85.7 Q 476.1 89.5, 469.9 89.5 Q 463.6 89.5, 460.2 85.7 Q 456.9 81.8, 456.9 74.9 M 469.9 86.3 Q 474.2 86.3, 476.5 83.5 Q 478.9 80.5, 478.9 74.9 Q 478.9 69.3, 476.5 66.5 Q 474.2 63.7, 469.9 63.7 Q 465.5 63.7, 463.2 66.5 Q 460.9 69.3, 460.9 74.9 Q 460.9 80.6, 463.2 83.5 Q 465.5 86.3, 469.9 86.3 " fill="#000000"/>
</svg>