<?xml version='1.0' encoding='utf-8'?>
<svg xmlns="http://www.w3.org/2000/svg" xmlns:rdkit="http://www.rdkit.org/xml" xmlns:xlink="http://www.w3.org/1999/xlink" version="1.1" baseProfile="full" xml:space="preserve" width="512px" height="75px" viewBox="0 0 512 75">

<rect style="opacity:1.0;fill:#FFFFFF;stroke:none" width="512.0" height="75.0" x="0.0" y="0.0"> </rect>
<path class="bond-0 atom-0 atom-1" d="M 29.5,58.2 L 103.0,15.8" style="fill:none;fill-rule:evenodd;stroke:#000000;stroke-width:2.0px;stroke-linecap:butt;stroke-linejoin:miter;stroke-opacity:1"/>
<path class="bond-1 atom-1 atom-2" d="M 103.0,15.8 L 176.6,58.2" style="fill:none;fill-rule:evenodd;stroke:#000000;stroke-width:2.0px;stroke-linecap:butt;stroke-linejoin:miter;stroke-opacity:1"/>
<path class="bond-2 atom-2 atom-3" d="M 176.6,58.2 L 250.1,15.8" style="fill:none;fill-rule:evenodd;stroke:#000000;stroke-width:2.0px;stroke-linecap:butt;stroke-linejoin:miter;stroke-opacity:1"/>
<path class="bond-3 atom-3 atom-4" d="M 250.1,15.8 L 309.8,50.2" style="fill:none;fill-rule:evenodd;stroke:#000000;stroke-width:2.0px;stroke-linecap:butt;stroke-linejoin:miter;stroke-opacity:1"/>
<path class="bond-4 atom-4 atom-5" d="M 337.4,50.2 L 385.2,22.7" style="fill:none;fill-rule:evenodd;stroke:#000000;stroke-width:2.0px;stroke-linecap:butt;stroke-linejoin:miter;stroke-opacity:1"/>
<path class="bond-5 atom-5 atom-6" d="M 405.9,28.2 L 453.6,55.7" style="fill:none;fill-rule:evenodd;stroke:#000000;stroke-width:2.0px;stroke-linecap:butt;stroke-linejoin:miter;stroke-opacity:1"/>
<path class="bond-5 atom-5 atom-6" d="M 412.2,17.1 L 460.0,44.7" style="fill:none;fill-rule:evenodd;stroke:#000000;stroke-width:2.0px;stroke-linecap:butt;stroke-linejoin:miter;stroke-opacity:1"/>
<path d="M 99.4,17.9 L 103.0,15.8 L 106.7,17.9" style="fill:none;stroke:#000000;stroke-width:2.0px;stroke-linecap:butt;stroke-linejoin:miter;stroke-miterlimit:10;stroke-opacity:1;"/>
<path d="M 172.9,56.1 L 176.6,58.2 L 180.2,56.1" style="fill:none;stroke:#000000;stroke-width:2.0px;stroke-linecap:butt;stroke-linejoin:miter;stroke-miterlimit:10;stroke-opacity:1;"/>
<path d="M 246.4,17.9 L 250.1,15.8 L 253.1,17.5" style="fill:none;stroke:#000000;stroke-width:2.0px;stroke-linecap:butt;stroke-linejoin:miter;stroke-miterlimit:10;stroke-opacity:1;"/>
<path class="atom-4" d="M 312.6 58.3 Q 312.6 52.5, 315.4 49.3 Q 318.3 46.1, 323.6 46.1 Q 328.9 46.1, 331.8 49.3 Q 334.6 52.5, 334.6 58.3 Q 334.6 64.1, 331.8 67.5 Q 328.9 70.7, 323.6 70.7 Q 318.3 70.7, 315.4 67.5 Q 312.6 64.2, 312.6 58.3 M 323.6 68.0 Q 327.3 68.0, 329.2 65.6 Q 331.2 63.1, 331.2 58.3 Q 331.2 53.6, 329.2 51.2 Q 327.3 48.8, 323.6 48.8 Q 319.9 48.8, 317.9 51.2 Q 316.0 53.5, 316.0 58.3 Q 316.0 63.1, 317.9 65.6 Q 319.9 68.0, 323.6 68.0 " fill="#000000"/>
<path class="atom-5" d="M 391.8 3.8 L 399.7 16.5 Q 400.5 17.7, 401.7 20.0 Q 403.0 22.3, 403.1 22.4 L 403.1 3.8 L 406.2 3.8 L 406.2 27.8 L 402.9 27.8 L 394.5 13.9 Q 393.5 12.2, 392.5 10.4 Q 391.4 8.5, 391.1 7.9 L 391.1 27.8 L 388.0 27.8 L 388.0 3.8 L 391.8 3.8 " fill="#000000"/>
<path class="atom-6" d="M 459.6 58.3 Q 459.6 52.5, 462.5 49.3 Q 465.3 46.1, 470.6 46.1 Q 476.0 46.1, 478.8 49.3 Q 481.7 52.5, 481.7 58.3 Q 481.7 64.1, 478.8 67.5 Q 475.9 70.8, 470.6 70.8 Q 465.4 70.8, 462.5 67.5 Q 459.6 64.2, 459.6 58.3 M 470.6 68.0 Q 474.3 68.0, 476.3 65.6 Q 478.3 63.1, 478.3 58.3 Q 478.3 53.6, 476.3 51.2 Q 474.3 48.8, 470.6 48.8 Q 467.0 48.8, 465.0 51.2 Q 463.0 53.5, 463.0 58.3 Q 463.0 63.1, 465.0 65.6 Q 467.0 68.0, 470.6 68.0 " fill="#000000"/>
</svg>