<?xml version='1.0' encoding='utf-8'?>
<svg xmlns="http://www.w3.org/2000/svg" xmlns:rdkit="http://www.rdkit.org/xml" xmlns:xlink="http://www.w3.org/1999/xlink" version="1.1" baseProfile="full" xml:space="preserve" width="512px" height="293px" viewBox="0 0 512 293">

<rect style="opacity:1.0;fill:#FFFFFF;stroke:none" width="512.0" height="293.0" x="0.0" y="0.0"> </rect>
<path class="bond-0 atom-0 atom-1" d="M 485.1,25.5 L 446.0,22.1" style="fill:none;fill-rule:evenodd;stroke:#000000;stroke-width:2.0px;stroke-linecap:butt;stroke-linejoin:miter;stroke-opacity:1"/>
<path class="bond-1 atom-1 atom-2" d="M 432.4,29.9 L 411.4,59.8" style="fill:none;fill-rule:evenodd;stroke:#000000;stroke-width:2.0px;stroke-linecap:butt;stroke-linejoin:miter;stroke-opacity:1"/>
<path class="bond-2 atom-2 atom-3" d="M 411.4,59.8 L 364.6,55.6" style="fill:none;fill-rule:evenodd;stroke:#000000;stroke-width:2.0px;stroke-linecap:butt;stroke-linejoin:miter;stroke-opacity:1"/>
<path class="bond-3 atom-3 atom-4" d="M 364.6,55.6 L 337.6,94.1" style="fill:none;fill-rule:evenodd;stroke:#000000;stroke-width:2.0px;stroke-linecap:butt;stroke-linejoin:miter;stroke-opacity:1"/>
<path class="bond-4 atom-4 atom-5" d="M 337.6,94.1 L 290.8,89.9" style="fill:none;fill-rule:evenodd;stroke:#000000;stroke-width:2.0px;stroke-linecap:butt;stroke-linejoin:miter;stroke-opacity:1"/>
<path class="bond-5 atom-5 atom-6" d="M 290.8,89.9 L 263.9,128.3" style="fill:none;fill-rule:evenodd;stroke:#000000;stroke-width:2.0px;stroke-linecap:butt;stroke-linejoin:miter;stroke-opacity:1"/>
<path class="bond-6 atom-6 atom-7" d="M 263.9,128.3 L 279.8,162.7" style="fill:none;fill-rule:evenodd;stroke:#000000;stroke-width:2.0px;stroke-linecap:butt;stroke-linejoin:miter;stroke-opacity:1"/>
<path class="bond-6 atom-6 atom-7" d="M 272.0,129.1 L 286.2,159.7" style="fill:none;fill-rule:evenodd;stroke:#000000;stroke-width:2.0px;stroke-linecap:butt;stroke-linejoin:miter;stroke-opacity:1"/>
<path class="bond-7 atom-7 atom-8" d="M 290.2,171.5 L 322.8,174.4" style="fill:none;fill-rule:evenodd;stroke:#000000;stroke-width:2.0px;stroke-linecap:butt;stroke-linejoin:miter;stroke-opacity:1"/>
<path class="bond-8 atom-8 atom-9" d="M 334.4,183.5 L 350.2,217.6" style="fill:none;fill-rule:evenodd;stroke:#000000;stroke-width:2.0px;stroke-linecap:butt;stroke-linejoin:miter;stroke-opacity:1"/>
<path class="bond-9 atom-9 atom-10" d="M 350.2,217.6 L 397.0,221.8" style="fill:none;fill-rule:evenodd;stroke:#000000;stroke-width:2.0px;stroke-linecap:butt;stroke-linejoin:miter;stroke-opacity:1"/>
<path class="bond-10 atom-10 atom-11" d="M 397.0,221.8 L 412.9,256.2" style="fill:none;fill-rule:evenodd;stroke:#000000;stroke-width:2.0px;stroke-linecap:butt;stroke-linejoin:miter;stroke-opacity:1"/>
<path class="bond-11 atom-6 atom-12" d="M 263.9,128.3 L 217.1,124.2" style="fill:none;fill-rule:evenodd;stroke:#000000;stroke-width:2.0px;stroke-linecap:butt;stroke-linejoin:miter;stroke-opacity:1"/>
<path class="bond-12 atom-12 atom-13" d="M 217.1,124.2 L 190.1,162.6" style="fill:none;fill-rule:evenodd;stroke:#000000;stroke-width:2.0px;stroke-linecap:butt;stroke-linejoin:miter;stroke-opacity:1"/>
<path class="bond-13 atom-13 atom-14" d="M 190.1,162.6 L 143.4,158.4" style="fill:none;fill-rule:evenodd;stroke:#000000;stroke-width:2.0px;stroke-linecap:butt;stroke-linejoin:miter;stroke-opacity:1"/>
<path class="bond-13 atom-13 atom-14" d="M 186.7,155.2 L 148.0,151.8" style="fill:none;fill-rule:evenodd;stroke:#000000;stroke-width:2.0px;stroke-linecap:butt;stroke-linejoin:miter;stroke-opacity:1"/>
<path class="bond-14 atom-14 atom-15" d="M 143.4,158.4 L 123.6,115.9" style="fill:none;fill-rule:evenodd;stroke:#000000;stroke-width:2.0px;stroke-linecap:butt;stroke-linejoin:miter;stroke-opacity:1"/>
<path class="bond-15 atom-15 atom-16" d="M 123.6,115.9 L 150.6,77.5" style="fill:none;fill-rule:evenodd;stroke:#000000;stroke-width:2.0px;stroke-linecap:butt;stroke-linejoin:miter;stroke-opacity:1"/>
<path class="bond-15 atom-15 atom-16" d="M 131.7,116.6 L 154.0,84.8" style="fill:none;fill-rule:evenodd;stroke:#000000;stroke-width:2.0px;stroke-linecap:butt;stroke-linejoin:miter;stroke-opacity:1"/>
<path class="bond-16 atom-16 atom-17" d="M 150.6,77.5 L 197.3,81.6" style="fill:none;fill-rule:evenodd;stroke:#000000;stroke-width:2.0px;stroke-linecap:butt;stroke-linejoin:miter;stroke-opacity:1"/>
<path class="bond-17 atom-15 atom-18" d="M 123.6,115.9 L 76.8,111.7" style="fill:none;fill-rule:evenodd;stroke:#000000;stroke-width:2.0px;stroke-linecap:butt;stroke-linejoin:miter;stroke-opacity:1"/>
<path class="bond-18 atom-18 atom-19" d="M 76.8,111.7 L 35.6,108.1" style="fill:none;fill-rule:evenodd;stroke:#000000;stroke-width:2.0px;stroke-linecap:butt;stroke-linejoin:miter;stroke-opacity:1"/>
<path class="bond-19 atom-18 atom-20" d="M 76.8,111.7 L 80.2,73.2" style="fill:none;fill-rule:evenodd;stroke:#000000;stroke-width:2.0px;stroke-linecap:butt;stroke-linejoin:miter;stroke-opacity:1"/>
<path class="bond-20 atom-18 atom-21" d="M 76.8,111.7 L 73.4,150.3" style="fill:none;fill-rule:evenodd;stroke:#000000;stroke-width:2.0px;stroke-linecap:butt;stroke-linejoin:miter;stroke-opacity:1"/>
<path class="bond-21 atom-17 atom-12" d="M 197.3,81.6 L 217.1,124.2" style="fill:none;fill-rule:evenodd;stroke:#000000;stroke-width:2.0px;stroke-linecap:butt;stroke-linejoin:miter;stroke-opacity:1"/>
<path class="bond-21 atom-17 atom-12" d="M 192.7,88.3 L 209.0,123.5" style="fill:none;fill-rule:evenodd;stroke:#000000;stroke-width:2.0px;stroke-linecap:butt;stroke-linejoin:miter;stroke-opacity:1"/>
<path d="M 412.4,58.3 L 411.4,59.8 L 409.0,59.6" style="fill:none;stroke:#000000;stroke-width:2.0px;stroke-linecap:butt;stroke-linejoin:miter;stroke-miterlimit:10;stroke-opacity:1;"/>
<path d="M 366.9,55.8 L 364.6,55.6 L 363.2,57.6" style="fill:none;stroke:#000000;stroke-width:2.0px;stroke-linecap:butt;stroke-linejoin:miter;stroke-miterlimit:10;stroke-opacity:1;"/>
<path d="M 339.0,92.1 L 337.6,94.1 L 335.3,93.9" style="fill:none;stroke:#000000;stroke-width:2.0px;stroke-linecap:butt;stroke-linejoin:miter;stroke-miterlimit:10;stroke-opacity:1;"/>
<path d="M 293.2,90.1 L 290.8,89.9 L 289.5,91.8" style="fill:none;stroke:#000000;stroke-width:2.0px;stroke-linecap:butt;stroke-linejoin:miter;stroke-miterlimit:10;stroke-opacity:1;"/>
<path d="M 349.4,215.9 L 350.2,217.6 L 352.5,217.8" style="fill:none;stroke:#000000;stroke-width:2.0px;stroke-linecap:butt;stroke-linejoin:miter;stroke-miterlimit:10;stroke-opacity:1;"/>
<path d="M 394.6,221.6 L 397.0,221.8 L 397.8,223.5" style="fill:none;stroke:#000000;stroke-width:2.0px;stroke-linecap:butt;stroke-linejoin:miter;stroke-miterlimit:10;stroke-opacity:1;"/>
<path d="M 191.5,160.7 L 190.1,162.6 L 187.8,162.4" style="fill:none;stroke:#000000;stroke-width:2.0px;stroke-linecap:butt;stroke-linejoin:miter;stroke-miterlimit:10;stroke-opacity:1;"/>
<path d="M 145.7,158.7 L 143.4,158.4 L 142.4,156.3" style="fill:none;stroke:#000000;stroke-width:2.0px;stroke-linecap:butt;stroke-linejoin:miter;stroke-miterlimit:10;stroke-opacity:1;"/>
<path d="M 149.2,79.4 L 150.6,77.5 L 152.9,77.7" style="fill:none;stroke:#000000;stroke-width:2.0px;stroke-linecap:butt;stroke-linejoin:miter;stroke-miterlimit:10;stroke-opacity:1;"/>
<path d="M 195.0,81.4 L 197.3,81.6 L 198.3,83.7" style="fill:none;stroke:#000000;stroke-width:2.0px;stroke-linecap:butt;stroke-linejoin:miter;stroke-miterlimit:10;stroke-opacity:1;"/>
<path class="atom-1" d="M 432.2 21.4 Q 432.2 18.2, 433.8 16.4 Q 435.4 14.6, 438.3 14.6 Q 441.3 14.6, 442.9 16.4 Q 444.4 18.2, 444.4 21.4 Q 444.4 24.6, 442.8 26.5 Q 441.2 28.3, 438.3 28.3 Q 435.4 28.3, 433.8 26.5 Q 432.2 24.7, 432.2 21.4 M 438.3 26.8 Q 440.4 26.8, 441.4 25.4 Q 442.6 24.1, 442.6 21.4 Q 442.6 18.8, 441.4 17.5 Q 440.4 16.2, 438.3 16.2 Q 436.3 16.2, 435.2 17.5 Q 434.1 18.8, 434.1 21.4 Q 434.1 24.1, 435.2 25.4 Q 436.3 26.8, 438.3 26.8 " fill="#000000"/>
<path class="atom-7" d="M 280.7 164.3 L 285.1 171.3 Q 285.5 172.0, 286.2 173.3 Q 286.9 174.5, 286.9 174.6 L 286.9 164.3 L 288.7 164.3 L 288.7 177.6 L 286.9 177.6 L 282.2 169.9 Q 281.7 169.0, 281.1 167.9 Q 280.5 166.9, 280.3 166.6 L 280.3 177.6 L 278.6 177.6 L 278.6 164.3 L 280.7 164.3 " fill="#000000"/>
<path class="atom-8" d="M 324.3 175.1 Q 324.3 171.9, 325.9 170.1 Q 327.5 168.3, 330.4 168.3 Q 333.4 168.3, 334.9 170.1 Q 336.5 171.9, 336.5 175.1 Q 336.5 178.3, 334.9 180.2 Q 333.3 182.0, 330.4 182.0 Q 327.5 182.0, 325.9 180.2 Q 324.3 178.3, 324.3 175.1 M 330.4 180.5 Q 332.4 180.5, 333.5 179.1 Q 334.6 177.8, 334.6 175.1 Q 334.6 172.5, 333.5 171.2 Q 332.4 169.8, 330.4 169.8 Q 328.4 169.8, 327.3 171.2 Q 326.2 172.5, 326.2 175.1 Q 326.2 177.8, 327.3 179.1 Q 328.4 180.5, 330.4 180.5 " fill="#000000"/>
<path class="atom-11" d="M 413.8 257.7 L 418.2 264.7 Q 418.6 265.4, 419.3 266.7 Q 420.0 268.0, 420.0 268.0 L 420.0 257.7 L 421.8 257.7 L 421.8 271.0 L 420.0 271.0 L 415.3 263.3 Q 414.8 262.4, 414.2 261.4 Q 413.6 260.3, 413.4 260.0 L 413.4 271.0 L 411.7 271.0 L 411.7 257.7 L 413.8 257.7 " fill="#000000"/>
<path class="atom-11" d="M 424.3 257.7 L 426.1 257.7 L 426.1 263.4 L 432.9 263.4 L 432.9 257.7 L 434.7 257.7 L 434.7 271.0 L 432.9 271.0 L 432.9 264.9 L 426.1 264.9 L 426.1 271.0 L 424.3 271.0 L 424.3 257.7 " fill="#000000"/>
<path class="atom-11" d="M 437.3 270.5 Q 437.7 269.7, 438.4 269.2 Q 439.2 268.8, 440.3 268.8 Q 441.6 268.8, 442.3 269.5 Q 443.1 270.2, 443.1 271.5 Q 443.1 272.8, 442.1 274.0 Q 441.2 275.2, 439.2 276.7 L 443.2 276.7 L 443.2 277.6 L 437.3 277.6 L 437.3 276.8 Q 439.0 275.7, 439.9 274.8 Q 440.9 273.9, 441.4 273.1 Q 441.8 272.4, 441.8 271.6 Q 441.8 270.7, 441.4 270.2 Q 441.0 269.8, 440.3 269.8 Q 439.6 269.8, 439.1 270.1 Q 438.6 270.3, 438.3 271.0 L 437.3 270.5 " fill="#000000"/>
<path class="atom-19" d="M 26.1 100.9 L 34.0 100.9 L 34.0 102.4 L 27.9 102.4 L 27.9 106.5 L 33.3 106.5 L 33.3 108.0 L 27.9 108.0 L 27.9 114.2 L 26.1 114.2 L 26.1 100.9 " fill="#000000"/>
<path class="atom-20" d="M 77.0 58.3 L 84.9 58.3 L 84.9 59.8 L 78.8 59.8 L 78.8 63.9 L 84.3 63.9 L 84.3 65.4 L 78.8 65.4 L 78.8 71.6 L 77.0 71.6 L 77.0 58.3 " fill="#000000"/>
<path class="atom-21" d="M 68.7 151.8 L 76.6 151.8 L 76.6 153.4 L 70.5 153.4 L 70.5 157.4 L 76.0 157.4 L 76.0 158.9 L 70.5 158.9 L 70.5 165.1 L 68.7 165.1 L 68.7 151.8 " fill="#000000"/>
</svg>