<?xml version='1.0' encoding='utf-8'?>
<svg xmlns="http://www.w3.org/2000/svg" xmlns:rdkit="http://www.rdkit.org/xml" xmlns:xlink="http://www.w3.org/1999/xlink" version="1.1" baseProfile="full" xml:space="preserve" width="512px" height="212px" viewBox="0 0 512 212">

<rect style="opacity:1.0;fill:#FFFFFF;stroke:none" width="512.0" height="212.0" x="0.0" y="0.0"> </rect>
<path class="bond-0 atom-0 atom-1" d="M 179.4,11.8 L 224.6,17.2" style="fill:none;fill-rule:evenodd;stroke:#000000;stroke-width:2.0px;stroke-linecap:butt;stroke-linejoin:miter;stroke-opacity:1"/>
<path class="bond-1 atom-1 atom-2" d="M 236.0,27.4 L 252.9,66.9" style="fill:none;fill-rule:evenodd;stroke:#000000;stroke-width:2.0px;stroke-linecap:butt;stroke-linejoin:miter;stroke-opacity:1"/>
<path class="bond-2 atom-2 atom-3" d="M 252.9,66.9 L 305.6,73.3" style="fill:none;fill-rule:evenodd;stroke:#000000;stroke-width:2.0px;stroke-linecap:butt;stroke-linejoin:miter;stroke-opacity:1"/>
<path class="bond-3 atom-3 atom-4" d="M 305.6,73.3 L 326.4,122.1" style="fill:none;fill-rule:evenodd;stroke:#000000;stroke-width:2.0px;stroke-linecap:butt;stroke-linejoin:miter;stroke-opacity:1"/>
<path class="bond-4 atom-4 atom-5" d="M 326.4,122.1 L 379.1,128.4" style="fill:none;fill-rule:evenodd;stroke:#000000;stroke-width:2.0px;stroke-linecap:butt;stroke-linejoin:miter;stroke-opacity:1"/>
<path class="bond-5 atom-5 atom-6" d="M 379.1,128.4 L 400.0,177.2" style="fill:none;fill-rule:evenodd;stroke:#000000;stroke-width:2.0px;stroke-linecap:butt;stroke-linejoin:miter;stroke-opacity:1"/>
<path class="bond-5 atom-5 atom-6" d="M 388.2,129.5 L 405.5,169.9" style="fill:none;fill-rule:evenodd;stroke:#000000;stroke-width:2.0px;stroke-linecap:butt;stroke-linejoin:miter;stroke-opacity:1"/>
<path class="bond-6 atom-6 atom-7" d="M 400.0,177.2 L 452.6,183.6" style="fill:none;fill-rule:evenodd;stroke:#000000;stroke-width:2.0px;stroke-linecap:butt;stroke-linejoin:miter;stroke-opacity:1"/>
<path class="bond-7 atom-7 atom-8" d="M 452.6,183.6 L 484.5,141.1" style="fill:none;fill-rule:evenodd;stroke:#000000;stroke-width:2.0px;stroke-linecap:butt;stroke-linejoin:miter;stroke-opacity:1"/>
<path class="bond-7 atom-7 atom-8" d="M 449.0,175.1 L 475.3,140.0" style="fill:none;fill-rule:evenodd;stroke:#000000;stroke-width:2.0px;stroke-linecap:butt;stroke-linejoin:miter;stroke-opacity:1"/>
<path class="bond-8 atom-8 atom-9" d="M 484.5,141.1 L 463.6,92.3" style="fill:none;fill-rule:evenodd;stroke:#000000;stroke-width:2.0px;stroke-linecap:butt;stroke-linejoin:miter;stroke-opacity:1"/>
<path class="bond-9 atom-9 atom-10" d="M 463.6,92.3 L 411.0,86.0" style="fill:none;fill-rule:evenodd;stroke:#000000;stroke-width:2.0px;stroke-linecap:butt;stroke-linejoin:miter;stroke-opacity:1"/>
<path class="bond-9 atom-9 atom-10" d="M 458.1,99.7 L 414.6,94.4" style="fill:none;fill-rule:evenodd;stroke:#000000;stroke-width:2.0px;stroke-linecap:butt;stroke-linejoin:miter;stroke-opacity:1"/>
<path class="bond-10 atom-4 atom-11" d="M 326.4,122.1 L 301.6,155.2" style="fill:none;fill-rule:evenodd;stroke:#000000;stroke-width:2.0px;stroke-linecap:butt;stroke-linejoin:miter;stroke-opacity:1"/>
<path class="bond-11 atom-11 atom-12" d="M 285.9,163.5 L 241.9,158.2" style="fill:none;fill-rule:evenodd;stroke:#000000;stroke-width:2.0px;stroke-linecap:butt;stroke-linejoin:miter;stroke-opacity:1"/>
<path class="bond-12 atom-12 atom-13" d="M 241.9,158.2 L 221.1,109.4" style="fill:none;fill-rule:evenodd;stroke:#000000;stroke-width:2.0px;stroke-linecap:butt;stroke-linejoin:miter;stroke-opacity:1"/>
<path class="bond-13 atom-13 atom-14" d="M 221.1,109.4 L 168.4,103.0" style="fill:none;fill-rule:evenodd;stroke:#000000;stroke-width:2.0px;stroke-linecap:butt;stroke-linejoin:miter;stroke-opacity:1"/>
<path class="bond-13 atom-13 atom-14" d="M 215.6,116.7 L 172.0,111.5" style="fill:none;fill-rule:evenodd;stroke:#000000;stroke-width:2.0px;stroke-linecap:butt;stroke-linejoin:miter;stroke-opacity:1"/>
<path class="bond-14 atom-14 atom-15" d="M 168.4,103.0 L 136.6,145.5" style="fill:none;fill-rule:evenodd;stroke:#000000;stroke-width:2.0px;stroke-linecap:butt;stroke-linejoin:miter;stroke-opacity:1"/>
<path class="bond-15 atom-15 atom-16" d="M 136.6,145.5 L 157.4,194.2" style="fill:none;fill-rule:evenodd;stroke:#000000;stroke-width:2.0px;stroke-linecap:butt;stroke-linejoin:miter;stroke-opacity:1"/>
<path class="bond-15 atom-15 atom-16" d="M 145.7,146.6 L 162.9,186.9" style="fill:none;fill-rule:evenodd;stroke:#000000;stroke-width:2.0px;stroke-linecap:butt;stroke-linejoin:miter;stroke-opacity:1"/>
<path class="bond-16 atom-16 atom-17" d="M 157.4,194.2 L 210.1,200.6" style="fill:none;fill-rule:evenodd;stroke:#000000;stroke-width:2.0px;stroke-linecap:butt;stroke-linejoin:miter;stroke-opacity:1"/>
<path class="bond-17 atom-15 atom-18" d="M 136.6,145.5 L 83.9,139.1" style="fill:none;fill-rule:evenodd;stroke:#000000;stroke-width:2.0px;stroke-linecap:butt;stroke-linejoin:miter;stroke-opacity:1"/>
<path class="bond-18 atom-18 atom-19" d="M 83.9,139.1 L 37.4,133.5" style="fill:none;fill-rule:evenodd;stroke:#000000;stroke-width:2.0px;stroke-linecap:butt;stroke-linejoin:miter;stroke-opacity:1"/>
<path class="bond-19 atom-18 atom-20" d="M 83.9,139.1 L 89.1,95.7" style="fill:none;fill-rule:evenodd;stroke:#000000;stroke-width:2.0px;stroke-linecap:butt;stroke-linejoin:miter;stroke-opacity:1"/>
<path class="bond-20 atom-18 atom-21" d="M 83.9,139.1 L 78.6,182.5" style="fill:none;fill-rule:evenodd;stroke:#000000;stroke-width:2.0px;stroke-linecap:butt;stroke-linejoin:miter;stroke-opacity:1"/>
<path class="bond-21 atom-10 atom-5" d="M 411.0,86.0 L 379.1,128.4" style="fill:none;fill-rule:evenodd;stroke:#000000;stroke-width:2.0px;stroke-linecap:butt;stroke-linejoin:miter;stroke-opacity:1"/>
<path class="bond-22 atom-17 atom-12" d="M 210.1,200.6 L 241.9,158.2" style="fill:none;fill-rule:evenodd;stroke:#000000;stroke-width:2.0px;stroke-linecap:butt;stroke-linejoin:miter;stroke-opacity:1"/>
<path class="bond-22 atom-17 atom-12" d="M 206.5,192.1 L 232.8,157.1" style="fill:none;fill-rule:evenodd;stroke:#000000;stroke-width:2.0px;stroke-linecap:butt;stroke-linejoin:miter;stroke-opacity:1"/>
<path d="M 252.1,64.9 L 252.9,66.9 L 255.5,67.2" style="fill:none;stroke:#000000;stroke-width:2.0px;stroke-linecap:butt;stroke-linejoin:miter;stroke-miterlimit:10;stroke-opacity:1;"/>
<path d="M 303.0,72.9 L 305.6,73.3 L 306.6,75.7" style="fill:none;stroke:#000000;stroke-width:2.0px;stroke-linecap:butt;stroke-linejoin:miter;stroke-miterlimit:10;stroke-opacity:1;"/>
<path d="M 398.9,174.8 L 400.0,177.2 L 402.6,177.5" style="fill:none;stroke:#000000;stroke-width:2.0px;stroke-linecap:butt;stroke-linejoin:miter;stroke-miterlimit:10;stroke-opacity:1;"/>
<path d="M 450.0,183.2 L 452.6,183.6 L 454.2,181.4" style="fill:none;stroke:#000000;stroke-width:2.0px;stroke-linecap:butt;stroke-linejoin:miter;stroke-miterlimit:10;stroke-opacity:1;"/>
<path d="M 482.9,143.2 L 484.5,141.1 L 483.4,138.7" style="fill:none;stroke:#000000;stroke-width:2.0px;stroke-linecap:butt;stroke-linejoin:miter;stroke-miterlimit:10;stroke-opacity:1;"/>
<path d="M 464.7,94.8 L 463.6,92.3 L 461.0,92.0" style="fill:none;stroke:#000000;stroke-width:2.0px;stroke-linecap:butt;stroke-linejoin:miter;stroke-miterlimit:10;stroke-opacity:1;"/>
<path d="M 413.6,86.3 L 411.0,86.0 L 409.4,88.1" style="fill:none;stroke:#000000;stroke-width:2.0px;stroke-linecap:butt;stroke-linejoin:miter;stroke-miterlimit:10;stroke-opacity:1;"/>
<path d="M 222.1,111.8 L 221.1,109.4 L 218.4,109.0" style="fill:none;stroke:#000000;stroke-width:2.0px;stroke-linecap:butt;stroke-linejoin:miter;stroke-miterlimit:10;stroke-opacity:1;"/>
<path d="M 171.0,103.3 L 168.4,103.0 L 166.8,105.1" style="fill:none;stroke:#000000;stroke-width:2.0px;stroke-linecap:butt;stroke-linejoin:miter;stroke-miterlimit:10;stroke-opacity:1;"/>
<path d="M 156.4,191.8 L 157.4,194.2 L 160.0,194.6" style="fill:none;stroke:#000000;stroke-width:2.0px;stroke-linecap:butt;stroke-linejoin:miter;stroke-miterlimit:10;stroke-opacity:1;"/>
<path d="M 207.4,200.3 L 210.1,200.6 L 211.7,198.5" style="fill:none;stroke:#000000;stroke-width:2.0px;stroke-linecap:butt;stroke-linejoin:miter;stroke-miterlimit:10;stroke-opacity:1;"/>
<path class="atom-1" d="M 228.8 10.6 L 233.7 18.6 Q 234.2 19.3, 235.0 20.8 Q 235.7 22.2, 235.8 22.3 L 235.8 10.6 L 237.8 10.6 L 237.8 25.6 L 235.7 25.6 L 230.4 16.9 Q 229.8 15.9, 229.2 14.7 Q 228.5 13.6, 228.3 13.2 L 228.3 25.6 L 226.4 25.6 L 226.4 10.6 L 228.8 10.6 " fill="#000000"/>
<path class="atom-1" d="M 240.7 10.6 L 242.7 10.6 L 242.7 17.0 L 250.4 17.0 L 250.4 10.6 L 252.5 10.6 L 252.5 25.6 L 250.4 25.6 L 250.4 18.7 L 242.7 18.7 L 242.7 25.6 L 240.7 25.6 L 240.7 10.6 " fill="#000000"/>
<path class="atom-11" d="M 287.7 164.5 Q 287.7 160.9, 289.5 158.9 Q 291.3 156.9, 294.6 156.9 Q 297.9 156.9, 299.7 158.9 Q 301.5 160.9, 301.5 164.5 Q 301.5 168.2, 299.7 170.3 Q 297.9 172.3, 294.6 172.3 Q 291.3 172.3, 289.5 170.3 Q 287.7 168.2, 287.7 164.5 M 294.6 170.6 Q 296.9 170.6, 298.1 169.1 Q 299.4 167.6, 299.4 164.5 Q 299.4 161.6, 298.1 160.1 Q 296.9 158.6, 294.6 158.6 Q 292.3 158.6, 291.0 160.1 Q 289.8 161.6, 289.8 164.5 Q 289.8 167.6, 291.0 169.1 Q 292.3 170.6, 294.6 170.6 " fill="#000000"/>
<path class="atom-19" d="M 26.7 125.2 L 35.7 125.2 L 35.7 127.0 L 28.7 127.0 L 28.7 131.5 L 34.9 131.5 L 34.9 133.3 L 28.7 133.3 L 28.7 140.3 L 26.7 140.3 L 26.7 125.2 " fill="#000000"/>
<path class="atom-20" d="M 85.8 78.9 L 94.7 78.9 L 94.7 80.6 L 87.8 80.6 L 87.8 85.2 L 93.9 85.2 L 93.9 86.9 L 87.8 86.9 L 87.8 93.9 L 85.8 93.9 L 85.8 78.9 " fill="#000000"/>
<path class="atom-21" d="M 73.1 184.3 L 82.0 184.3 L 82.0 186.0 L 75.1 186.0 L 75.1 190.5 L 81.2 190.5 L 81.2 192.3 L 75.1 192.3 L 75.1 199.3 L 73.1 199.3 L 73.1 184.3 " fill="#000000"/>
</svg>