<?xml version='1.0' encoding='utf-8'?>
<svg xmlns="http://www.w3.org/2000/svg" xmlns:rdkit="http://www.rdkit.org/xml" xmlns:xlink="http://www.w3.org/1999/xlink" version="1.1" baseProfile="full" xml:space="preserve" width="512px" height="85px" viewBox="0 0 512 85">

<rect style="opacity:1.0;fill:#FFFFFF;stroke:none" width="512.0" height="85.0" x="0.0" y="0.0"> </rect>
<path class="bond-0 atom-0 atom-1" d="M 36.3,44.8 L 56.5,37.8" style="fill:none;fill-rule:evenodd;stroke:#000000;stroke-width:2.0px;stroke-linecap:butt;stroke-linejoin:miter;stroke-opacity:1"/>
<path class="bond-1 atom-1 atom-2" d="M 56.5,37.8 L 60.7,15.6" style="fill:none;fill-rule:evenodd;stroke:#000000;stroke-width:2.0px;stroke-linecap:butt;stroke-linejoin:miter;stroke-opacity:1"/>
<path class="bond-2 atom-2 atom-3" d="M 60.7,15.6 L 81.9,8.2" style="fill:none;fill-rule:evenodd;stroke:#000000;stroke-width:2.0px;stroke-linecap:butt;stroke-linejoin:miter;stroke-opacity:1"/>
<path class="bond-2 atom-2 atom-3" d="M 63.6,18.2 L 81.2,12.0" style="fill:none;fill-rule:evenodd;stroke:#000000;stroke-width:2.0px;stroke-linecap:butt;stroke-linejoin:miter;stroke-opacity:1"/>
<path class="bond-3 atom-3 atom-4" d="M 81.9,8.2 L 99.0,22.9" style="fill:none;fill-rule:evenodd;stroke:#000000;stroke-width:2.0px;stroke-linecap:butt;stroke-linejoin:miter;stroke-opacity:1"/>
<path class="bond-4 atom-4 atom-5" d="M 99.0,22.9 L 117.1,16.6" style="fill:none;fill-rule:evenodd;stroke:#000000;stroke-width:2.0px;stroke-linecap:butt;stroke-linejoin:miter;stroke-opacity:1"/>
<path class="bond-5 atom-5 atom-6" d="M 123.5,18.2 L 137.4,30.2" style="fill:none;fill-rule:evenodd;stroke:#000000;stroke-width:2.0px;stroke-linecap:butt;stroke-linejoin:miter;stroke-opacity:1"/>
<path class="bond-6 atom-6 atom-7" d="M 135.9,28.9 L 132.2,48.1" style="fill:none;fill-rule:evenodd;stroke:#000000;stroke-width:2.0px;stroke-linecap:butt;stroke-linejoin:miter;stroke-opacity:1"/>
<path class="bond-6 atom-6 atom-7" d="M 139.2,29.5 L 135.6,48.7" style="fill:none;fill-rule:evenodd;stroke:#000000;stroke-width:2.0px;stroke-linecap:butt;stroke-linejoin:miter;stroke-opacity:1"/>
<path class="bond-7 atom-6 atom-8" d="M 137.4,30.2 L 155.5,23.9" style="fill:none;fill-rule:evenodd;stroke:#000000;stroke-width:2.0px;stroke-linecap:butt;stroke-linejoin:miter;stroke-opacity:1"/>
<path class="bond-8 atom-8 atom-9" d="M 161.8,25.5 L 175.7,37.5" style="fill:none;fill-rule:evenodd;stroke:#000000;stroke-width:2.0px;stroke-linecap:butt;stroke-linejoin:miter;stroke-opacity:1"/>
<path class="bond-9 atom-9 atom-10" d="M 174.2,36.2 L 170.6,55.4" style="fill:none;fill-rule:evenodd;stroke:#000000;stroke-width:2.0px;stroke-linecap:butt;stroke-linejoin:miter;stroke-opacity:1"/>
<path class="bond-9 atom-9 atom-10" d="M 177.6,36.8 L 173.9,56.0" style="fill:none;fill-rule:evenodd;stroke:#000000;stroke-width:2.0px;stroke-linecap:butt;stroke-linejoin:miter;stroke-opacity:1"/>
<path class="bond-10 atom-9 atom-11" d="M 175.7,37.5 L 193.8,31.1" style="fill:none;fill-rule:evenodd;stroke:#000000;stroke-width:2.0px;stroke-linecap:butt;stroke-linejoin:miter;stroke-opacity:1"/>
<path class="bond-11 atom-11 atom-12" d="M 200.2,32.8 L 214.1,44.7" style="fill:none;fill-rule:evenodd;stroke:#000000;stroke-width:2.0px;stroke-linecap:butt;stroke-linejoin:miter;stroke-opacity:1"/>
<path class="bond-12 atom-12 atom-13" d="M 214.1,44.7 L 235.3,37.3" style="fill:none;fill-rule:evenodd;stroke:#000000;stroke-width:2.0px;stroke-linecap:butt;stroke-linejoin:miter;stroke-opacity:1"/>
<path class="bond-13 atom-13 atom-14" d="M 235.3,37.3 L 252.4,52.0" style="fill:none;fill-rule:evenodd;stroke:#000000;stroke-width:2.0px;stroke-linecap:butt;stroke-linejoin:miter;stroke-opacity:1"/>
<path class="bond-14 atom-14 atom-15" d="M 252.4,52.0 L 273.7,44.6" style="fill:none;fill-rule:evenodd;stroke:#000000;stroke-width:2.0px;stroke-linecap:butt;stroke-linejoin:miter;stroke-opacity:1"/>
<path class="bond-15 atom-15 atom-16" d="M 273.7,44.6 L 290.8,59.3" style="fill:none;fill-rule:evenodd;stroke:#000000;stroke-width:2.0px;stroke-linecap:butt;stroke-linejoin:miter;stroke-opacity:1"/>
<path class="bond-16 atom-16 atom-17" d="M 290.8,59.3 L 312.0,51.9" style="fill:none;fill-rule:evenodd;stroke:#000000;stroke-width:2.0px;stroke-linecap:butt;stroke-linejoin:miter;stroke-opacity:1"/>
<path class="bond-17 atom-17 atom-18" d="M 312.0,51.9 L 326.0,63.9" style="fill:none;fill-rule:evenodd;stroke:#000000;stroke-width:2.0px;stroke-linecap:butt;stroke-linejoin:miter;stroke-opacity:1"/>
<path class="bond-18 atom-18 atom-19" d="M 332.3,65.5 L 350.4,59.2" style="fill:none;fill-rule:evenodd;stroke:#000000;stroke-width:2.0px;stroke-linecap:butt;stroke-linejoin:miter;stroke-opacity:1"/>
<path class="bond-18 atom-18 atom-19" d="M 331.2,62.3 L 347.4,56.6" style="fill:none;fill-rule:evenodd;stroke:#000000;stroke-width:2.0px;stroke-linecap:butt;stroke-linejoin:miter;stroke-opacity:1"/>
<path class="bond-19 atom-19 atom-20" d="M 350.4,59.2 L 364.3,71.1" style="fill:none;fill-rule:evenodd;stroke:#000000;stroke-width:2.0px;stroke-linecap:butt;stroke-linejoin:miter;stroke-opacity:1"/>
<path class="bond-20 atom-19 atom-21" d="M 350.4,59.2 L 353.9,40.9" style="fill:none;fill-rule:evenodd;stroke:#000000;stroke-width:2.0px;stroke-linecap:butt;stroke-linejoin:miter;stroke-opacity:1"/>
<path class="bond-21 atom-21 atom-22" d="M 357.8,35.9 L 375.9,29.6" style="fill:none;fill-rule:evenodd;stroke:#000000;stroke-width:2.0px;stroke-linecap:butt;stroke-linejoin:miter;stroke-opacity:1"/>
<path class="bond-21 atom-21 atom-22" d="M 358.9,39.1 L 375.2,33.4" style="fill:none;fill-rule:evenodd;stroke:#000000;stroke-width:2.0px;stroke-linecap:butt;stroke-linejoin:miter;stroke-opacity:1"/>
<path class="bond-22 atom-22 atom-23" d="M 375.9,29.6 L 379.3,11.4" style="fill:none;fill-rule:evenodd;stroke:#000000;stroke-width:2.0px;stroke-linecap:butt;stroke-linejoin:miter;stroke-opacity:1"/>
<path class="bond-23 atom-22 atom-24" d="M 375.9,29.6 L 389.8,41.6" style="fill:none;fill-rule:evenodd;stroke:#000000;stroke-width:2.0px;stroke-linecap:butt;stroke-linejoin:miter;stroke-opacity:1"/>
<path class="bond-24 atom-24 atom-25" d="M 396.1,43.2 L 414.2,36.9" style="fill:none;fill-rule:evenodd;stroke:#000000;stroke-width:2.0px;stroke-linecap:butt;stroke-linejoin:miter;stroke-opacity:1"/>
<path class="bond-25 atom-25 atom-26" d="M 414.2,36.9 L 431.3,51.6" style="fill:none;fill-rule:evenodd;stroke:#000000;stroke-width:2.0px;stroke-linecap:butt;stroke-linejoin:miter;stroke-opacity:1"/>
<path class="bond-26 atom-26 atom-27" d="M 431.3,51.6 L 452.6,44.1" style="fill:none;fill-rule:evenodd;stroke:#000000;stroke-width:2.0px;stroke-linecap:butt;stroke-linejoin:miter;stroke-opacity:1"/>
<path class="bond-26 atom-26 atom-27" d="M 432.0,47.7 L 449.6,41.6" style="fill:none;fill-rule:evenodd;stroke:#000000;stroke-width:2.0px;stroke-linecap:butt;stroke-linejoin:miter;stroke-opacity:1"/>
<path class="bond-27 atom-27 atom-28" d="M 452.6,44.1 L 456.8,22.0" style="fill:none;fill-rule:evenodd;stroke:#000000;stroke-width:2.0px;stroke-linecap:butt;stroke-linejoin:miter;stroke-opacity:1"/>
<path class="bond-28 atom-28 atom-29" d="M 456.8,22.0 L 474.9,15.7" style="fill:none;fill-rule:evenodd;stroke:#000000;stroke-width:2.0px;stroke-linecap:butt;stroke-linejoin:miter;stroke-opacity:1"/>
<path class="bond-29 atom-28 atom-30" d="M 456.8,22.0 L 439.7,7.3" style="fill:none;fill-rule:evenodd;stroke:#000000;stroke-width:2.0px;stroke-linecap:butt;stroke-linejoin:miter;stroke-opacity:1"/>
<path class="bond-29 atom-28 atom-30" d="M 453.1,23.3 L 439.0,11.1" style="fill:none;fill-rule:evenodd;stroke:#000000;stroke-width:2.0px;stroke-linecap:butt;stroke-linejoin:miter;stroke-opacity:1"/>
<path class="bond-30 atom-30 atom-31" d="M 439.7,7.3 L 418.4,14.7" style="fill:none;fill-rule:evenodd;stroke:#000000;stroke-width:2.0px;stroke-linecap:butt;stroke-linejoin:miter;stroke-opacity:1"/>
<path class="bond-31 atom-4 atom-32" d="M 99.0,22.9 L 94.8,45.0" style="fill:none;fill-rule:evenodd;stroke:#000000;stroke-width:2.0px;stroke-linecap:butt;stroke-linejoin:miter;stroke-opacity:1"/>
<path class="bond-31 atom-4 atom-32" d="M 95.3,24.2 L 91.9,42.5" style="fill:none;fill-rule:evenodd;stroke:#000000;stroke-width:2.0px;stroke-linecap:butt;stroke-linejoin:miter;stroke-opacity:1"/>
<path class="bond-32 atom-32 atom-33" d="M 94.8,45.0 L 73.5,52.5" style="fill:none;fill-rule:evenodd;stroke:#000000;stroke-width:2.0px;stroke-linecap:butt;stroke-linejoin:miter;stroke-opacity:1"/>
<path class="bond-33 atom-33 atom-1" d="M 73.5,52.5 L 56.5,37.8" style="fill:none;fill-rule:evenodd;stroke:#000000;stroke-width:2.0px;stroke-linecap:butt;stroke-linejoin:miter;stroke-opacity:1"/>
<path class="bond-33 atom-33 atom-1" d="M 74.3,48.6 L 60.1,36.5" style="fill:none;fill-rule:evenodd;stroke:#000000;stroke-width:2.0px;stroke-linecap:butt;stroke-linejoin:miter;stroke-opacity:1"/>
<path class="bond-34 atom-31 atom-25" d="M 418.4,14.7 L 414.2,36.9" style="fill:none;fill-rule:evenodd;stroke:#000000;stroke-width:2.0px;stroke-linecap:butt;stroke-linejoin:miter;stroke-opacity:1"/>
<path class="bond-34 atom-31 atom-25" d="M 421.4,17.3 L 417.9,35.6" style="fill:none;fill-rule:evenodd;stroke:#000000;stroke-width:2.0px;stroke-linecap:butt;stroke-linejoin:miter;stroke-opacity:1"/>
<path d="M 60.5,16.7 L 60.7,15.6 L 61.7,15.3" style="fill:none;stroke:#000000;stroke-width:2.0px;stroke-linecap:butt;stroke-linejoin:miter;stroke-miterlimit:10;stroke-opacity:1;"/>
<path d="M 80.9,8.6 L 81.9,8.2 L 82.8,8.9" style="fill:none;stroke:#000000;stroke-width:2.0px;stroke-linecap:butt;stroke-linejoin:miter;stroke-miterlimit:10;stroke-opacity:1;"/>
<path d="M 136.7,29.6 L 137.4,30.2 L 138.3,29.9" style="fill:none;stroke:#000000;stroke-width:2.0px;stroke-linecap:butt;stroke-linejoin:miter;stroke-miterlimit:10;stroke-opacity:1;"/>
<path d="M 175.0,36.9 L 175.7,37.5 L 176.6,37.1" style="fill:none;stroke:#000000;stroke-width:2.0px;stroke-linecap:butt;stroke-linejoin:miter;stroke-miterlimit:10;stroke-opacity:1;"/>
<path d="M 213.4,44.1 L 214.1,44.7 L 215.1,44.4" style="fill:none;stroke:#000000;stroke-width:2.0px;stroke-linecap:butt;stroke-linejoin:miter;stroke-miterlimit:10;stroke-opacity:1;"/>
<path d="M 234.3,37.7 L 235.3,37.3 L 236.2,38.1" style="fill:none;stroke:#000000;stroke-width:2.0px;stroke-linecap:butt;stroke-linejoin:miter;stroke-miterlimit:10;stroke-opacity:1;"/>
<path d="M 251.6,51.3 L 252.4,52.0 L 253.5,51.7" style="fill:none;stroke:#000000;stroke-width:2.0px;stroke-linecap:butt;stroke-linejoin:miter;stroke-miterlimit:10;stroke-opacity:1;"/>
<path d="M 272.6,45.0 L 273.7,44.6 L 274.6,45.3" style="fill:none;stroke:#000000;stroke-width:2.0px;stroke-linecap:butt;stroke-linejoin:miter;stroke-miterlimit:10;stroke-opacity:1;"/>
<path d="M 289.9,58.6 L 290.8,59.3 L 291.8,58.9" style="fill:none;stroke:#000000;stroke-width:2.0px;stroke-linecap:butt;stroke-linejoin:miter;stroke-miterlimit:10;stroke-opacity:1;"/>
<path d="M 311.0,52.2 L 312.0,51.9 L 312.7,52.5" style="fill:none;stroke:#000000;stroke-width:2.0px;stroke-linecap:butt;stroke-linejoin:miter;stroke-miterlimit:10;stroke-opacity:1;"/>
<path d="M 430.5,50.8 L 431.3,51.6 L 432.4,51.2" style="fill:none;stroke:#000000;stroke-width:2.0px;stroke-linecap:butt;stroke-linejoin:miter;stroke-miterlimit:10;stroke-opacity:1;"/>
<path d="M 451.5,44.5 L 452.6,44.1 L 452.8,43.0" style="fill:none;stroke:#000000;stroke-width:2.0px;stroke-linecap:butt;stroke-linejoin:miter;stroke-miterlimit:10;stroke-opacity:1;"/>
<path d="M 440.6,8.0 L 439.7,7.3 L 438.6,7.7" style="fill:none;stroke:#000000;stroke-width:2.0px;stroke-linecap:butt;stroke-linejoin:miter;stroke-miterlimit:10;stroke-opacity:1;"/>
<path d="M 419.5,14.4 L 418.4,14.7 L 418.2,15.8" style="fill:none;stroke:#000000;stroke-width:2.0px;stroke-linecap:butt;stroke-linejoin:miter;stroke-miterlimit:10;stroke-opacity:1;"/>
<path d="M 95.0,43.9 L 94.8,45.0 L 93.7,45.4" style="fill:none;stroke:#000000;stroke-width:2.0px;stroke-linecap:butt;stroke-linejoin:miter;stroke-miterlimit:10;stroke-opacity:1;"/>
<path d="M 74.6,52.1 L 73.5,52.5 L 72.7,51.7" style="fill:none;stroke:#000000;stroke-width:2.0px;stroke-linecap:butt;stroke-linejoin:miter;stroke-miterlimit:10;stroke-opacity:1;"/>
<path class="atom-0" d="M 29.2 45.4 Q 29.2 43.8, 29.9 43.0 Q 30.7 42.2, 32.1 42.2 Q 33.4 42.2, 34.1 43.1 L 33.5 43.6 Q 33.0 42.9, 32.1 42.9 Q 31.1 42.9, 30.6 43.6 Q 30.1 44.2, 30.1 45.4 Q 30.1 46.7, 30.6 47.3 Q 31.2 48.0, 32.2 48.0 Q 32.9 48.0, 33.7 47.6 L 34.0 48.2 Q 33.6 48.4, 33.1 48.6 Q 32.6 48.7, 32.1 48.7 Q 30.7 48.7, 29.9 47.9 Q 29.2 47.0, 29.2 45.4 " fill="#000000"/>
<path class="atom-0" d="M 34.8 41.8 L 35.6 41.8 L 35.6 48.6 L 34.8 48.6 L 34.8 41.8 " fill="#000000"/>
<path class="atom-5" d="M 118.9 12.3 L 121.0 15.7 Q 121.2 16.0, 121.5 16.6 Q 121.8 17.2, 121.9 17.2 L 121.9 12.3 L 122.7 12.3 L 122.7 18.7 L 121.8 18.7 L 119.6 15.0 Q 119.3 14.5, 119.1 14.0 Q 118.8 13.5, 118.7 13.4 L 118.7 18.7 L 117.9 18.7 L 117.9 12.3 L 118.9 12.3 " fill="#000000"/>
<path class="atom-5" d="M 117.8 5.3 L 118.7 5.3 L 118.7 8.0 L 121.9 8.0 L 121.9 5.3 L 122.8 5.3 L 122.8 11.6 L 121.9 11.6 L 121.9 8.7 L 118.7 8.7 L 118.7 11.6 L 117.8 11.6 L 117.8 5.3 " fill="#000000"/>
<path class="atom-7" d="M 131.8 49.1 L 133.8 52.5 Q 134.1 52.8, 134.4 53.5 Q 134.7 54.1, 134.7 54.1 L 134.7 49.1 L 135.6 49.1 L 135.6 55.5 L 134.7 55.5 L 132.5 51.8 Q 132.2 51.4, 131.9 50.9 Q 131.7 50.4, 131.6 50.2 L 131.6 55.5 L 130.7 55.5 L 130.7 49.1 L 131.8 49.1 " fill="#000000"/>
<path class="atom-7" d="M 136.8 49.1 L 137.7 49.1 L 137.7 51.8 L 141.0 51.8 L 141.0 49.1 L 141.8 49.1 L 141.8 55.5 L 141.0 55.5 L 141.0 52.6 L 137.7 52.6 L 137.7 55.5 L 136.8 55.5 L 136.8 49.1 " fill="#000000"/>
<path class="atom-8" d="M 157.2 19.6 L 159.3 22.9 Q 159.5 23.3, 159.9 23.9 Q 160.2 24.5, 160.2 24.5 L 160.2 19.6 L 161.1 19.6 L 161.1 25.9 L 160.2 25.9 L 157.9 22.2 Q 157.7 21.8, 157.4 21.3 Q 157.1 20.8, 157.1 20.7 L 157.1 25.9 L 156.2 25.9 L 156.2 19.6 L 157.2 19.6 " fill="#000000"/>
<path class="atom-8" d="M 156.1 12.5 L 157.0 12.5 L 157.0 15.3 L 160.3 15.3 L 160.3 12.5 L 161.1 12.5 L 161.1 18.9 L 160.3 18.9 L 160.3 16.0 L 157.0 16.0 L 157.0 18.9 L 156.1 18.9 L 156.1 12.5 " fill="#000000"/>
<path class="atom-10" d="M 170.1 56.4 L 172.2 59.8 Q 172.4 60.1, 172.7 60.7 Q 173.1 61.3, 173.1 61.4 L 173.1 56.4 L 173.9 56.4 L 173.9 62.8 L 173.1 62.8 L 170.8 59.1 Q 170.6 58.7, 170.3 58.2 Q 170.0 57.7, 169.9 57.5 L 169.9 62.8 L 169.1 62.8 L 169.1 56.4 L 170.1 56.4 " fill="#000000"/>
<path class="atom-10" d="M 175.2 56.4 L 176.0 56.4 L 176.0 59.1 L 179.3 59.1 L 179.3 56.4 L 180.2 56.4 L 180.2 62.8 L 179.3 62.8 L 179.3 59.9 L 176.0 59.9 L 176.0 62.8 L 175.2 62.8 L 175.2 56.4 " fill="#000000"/>
<path class="atom-11" d="M 195.6 26.8 L 197.7 30.2 Q 197.9 30.6, 198.2 31.2 Q 198.5 31.8, 198.6 31.8 L 198.6 26.8 L 199.4 26.8 L 199.4 33.2 L 198.5 33.2 L 196.3 29.5 Q 196.0 29.1, 195.8 28.6 Q 195.5 28.1, 195.4 28.0 L 195.4 33.2 L 194.6 33.2 L 194.6 26.8 L 195.6 26.8 " fill="#000000"/>
<path class="atom-11" d="M 194.5 19.8 L 195.4 19.8 L 195.4 22.5 L 198.6 22.5 L 198.6 19.8 L 199.5 19.8 L 199.5 26.2 L 198.6 26.2 L 198.6 23.3 L 195.4 23.3 L 195.4 26.2 L 194.5 26.2 L 194.5 19.8 " fill="#000000"/>
<path class="atom-18" d="M 327.7 63.4 L 329.8 66.8 Q 330.0 67.1, 330.3 67.7 Q 330.7 68.3, 330.7 68.4 L 330.7 63.4 L 331.5 63.4 L 331.5 69.8 L 330.7 69.8 L 328.4 66.1 Q 328.2 65.6, 327.9 65.2 Q 327.6 64.7, 327.5 64.5 L 327.5 69.8 L 326.7 69.8 L 326.7 63.4 L 327.7 63.4 " fill="#000000"/>
<path class="atom-20" d="M 366.1 70.7 L 368.2 74.1 Q 368.4 74.4, 368.7 75.0 Q 369.0 75.6, 369.0 75.6 L 369.0 70.7 L 369.9 70.7 L 369.9 77.1 L 369.0 77.1 L 366.8 73.4 Q 366.5 72.9, 366.2 72.4 Q 366.0 71.9, 365.9 71.8 L 365.9 77.1 L 365.1 77.1 L 365.1 70.7 L 366.1 70.7 " fill="#000000"/>
<path class="atom-20" d="M 371.1 70.7 L 372.0 70.7 L 372.0 73.4 L 375.2 73.4 L 375.2 70.7 L 376.1 70.7 L 376.1 77.1 L 375.2 77.1 L 375.2 74.1 L 372.0 74.1 L 372.0 77.1 L 371.1 77.1 L 371.1 70.7 " fill="#000000"/>
<path class="atom-20" d="M 377.4 76.8 Q 377.5 76.4, 377.9 76.2 Q 378.2 76.0, 378.8 76.0 Q 379.4 76.0, 379.8 76.3 Q 380.1 76.7, 380.1 77.3 Q 380.1 77.9, 379.6 78.5 Q 379.2 79.1, 378.2 79.8 L 380.2 79.8 L 380.2 80.3 L 377.3 80.3 L 377.3 79.9 Q 378.1 79.3, 378.6 78.9 Q 379.1 78.5, 379.3 78.1 Q 379.5 77.7, 379.5 77.3 Q 379.5 76.9, 379.3 76.7 Q 379.1 76.5, 378.8 76.5 Q 378.4 76.5, 378.2 76.6 Q 378.0 76.7, 377.8 77.0 L 377.4 76.8 " fill="#000000"/>
<path class="atom-21" d="M 353.2 33.8 L 355.3 37.2 Q 355.5 37.5, 355.8 38.1 Q 356.2 38.7, 356.2 38.8 L 356.2 33.8 L 357.0 33.8 L 357.0 40.2 L 356.1 40.2 L 353.9 36.5 Q 353.6 36.1, 353.4 35.6 Q 353.1 35.1, 353.0 34.9 L 353.0 40.2 L 352.2 40.2 L 352.2 33.8 L 353.2 33.8 " fill="#000000"/>
<path class="atom-23" d="M 378.7 4.3 L 380.8 7.6 Q 381.0 8.0, 381.3 8.6 Q 381.6 9.2, 381.7 9.2 L 381.7 4.3 L 382.5 4.3 L 382.5 10.6 L 381.6 10.6 L 379.4 6.9 Q 379.1 6.5, 378.8 6.0 Q 378.6 5.5, 378.5 5.4 L 378.5 10.6 L 377.7 10.6 L 377.7 4.3 L 378.7 4.3 " fill="#000000"/>
<path class="atom-23" d="M 383.7 4.3 L 384.6 4.3 L 384.6 7.0 L 387.9 7.0 L 387.9 4.3 L 388.7 4.3 L 388.7 10.6 L 387.9 10.6 L 387.9 7.7 L 384.6 7.7 L 384.6 10.6 L 383.7 10.6 L 383.7 4.3 " fill="#000000"/>
<path class="atom-23" d="M 390.0 10.4 Q 390.1 10.0, 390.5 9.8 Q 390.9 9.6, 391.4 9.6 Q 392.0 9.6, 392.4 9.9 Q 392.7 10.3, 392.7 10.9 Q 392.7 11.5, 392.3 12.1 Q 391.8 12.7, 390.8 13.3 L 392.8 13.3 L 392.8 13.8 L 390.0 13.8 L 390.0 13.4 Q 390.7 12.9, 391.2 12.4 Q 391.7 12.0, 391.9 11.7 Q 392.1 11.3, 392.1 10.9 Q 392.1 10.5, 391.9 10.3 Q 391.7 10.0, 391.4 10.0 Q 391.0 10.0, 390.8 10.2 Q 390.6 10.3, 390.4 10.6 L 390.0 10.4 " fill="#000000"/>
<path class="atom-24" d="M 391.5 41.1 L 393.6 44.5 Q 393.8 44.8, 394.2 45.4 Q 394.5 46.0, 394.5 46.1 L 394.5 41.1 L 395.4 41.1 L 395.4 47.5 L 394.5 47.5 L 392.3 43.8 Q 392.0 43.4, 391.7 42.9 Q 391.4 42.4, 391.4 42.2 L 391.4 47.5 L 390.5 47.5 L 390.5 41.1 L 391.5 41.1 " fill="#000000"/>
<path class="atom-24" d="M 390.5 48.1 L 391.3 48.1 L 391.3 50.8 L 394.6 50.8 L 394.6 48.1 L 395.5 48.1 L 395.5 54.5 L 394.6 54.5 L 394.6 51.6 L 391.3 51.6 L 391.3 54.5 L 390.5 54.5 L 390.5 48.1 " fill="#000000"/>
<path class="atom-29" d="M 475.6 14.8 Q 475.6 13.2, 476.3 12.4 Q 477.1 11.5, 478.5 11.5 Q 479.8 11.5, 480.5 12.5 L 479.9 13.0 Q 479.4 12.3, 478.5 12.3 Q 477.5 12.3, 477.0 12.9 Q 476.5 13.6, 476.5 14.8 Q 476.5 16.1, 477.0 16.7 Q 477.6 17.4, 478.6 17.4 Q 479.3 17.4, 480.1 16.9 L 480.4 17.6 Q 480.0 17.8, 479.5 17.9 Q 479.0 18.1, 478.5 18.1 Q 477.1 18.1, 476.3 17.2 Q 475.6 16.4, 475.6 14.8 " fill="#000000"/>
<path class="atom-29" d="M 481.2 11.2 L 482.0 11.2 L 482.0 18.0 L 481.2 18.0 L 481.2 11.2 " fill="#000000"/>
</svg>