<?xml version='1.0' encoding='utf-8'?>
<svg xmlns="http://www.w3.org/2000/svg" xmlns:rdkit="http://www.rdkit.org/xml" xmlns:xlink="http://www.w3.org/1999/xlink" version="1.1" baseProfile="full" xml:space="preserve" width="512px" height="136px" viewBox="0 0 512 136">

<rect style="opacity:1.0;fill:#FFFFFF;stroke:none" width="512.0" height="136.0" x="0.0" y="0.0"> </rect>
<path class="bond-0 atom-0 atom-1" d="M 27.4,43.3 L 72.5,64.6" style="fill:none;fill-rule:evenodd;stroke:#000000;stroke-width:2.0px;stroke-linecap:butt;stroke-linejoin:miter;stroke-opacity:1"/>
<path class="bond-1 atom-1 atom-2" d="M 70.8,76.6 L 55.9,108.2" style="fill:none;fill-rule:evenodd;stroke:#000000;stroke-width:2.0px;stroke-linecap:butt;stroke-linejoin:miter;stroke-opacity:1"/>
<path class="bond-1 atom-1 atom-2" d="M 78.7,80.3 L 63.8,111.9" style="fill:none;fill-rule:evenodd;stroke:#000000;stroke-width:2.0px;stroke-linecap:butt;stroke-linejoin:miter;stroke-opacity:1"/>
<path class="bond-2 atom-1 atom-3" d="M 88.4,59.7 L 103.3,27.9" style="fill:none;fill-rule:evenodd;stroke:#000000;stroke-width:2.0px;stroke-linecap:butt;stroke-linejoin:miter;stroke-opacity:1"/>
<path class="bond-2 atom-1 atom-3" d="M 80.5,56.0 L 95.5,24.2" style="fill:none;fill-rule:evenodd;stroke:#000000;stroke-width:2.0px;stroke-linecap:butt;stroke-linejoin:miter;stroke-opacity:1"/>
<path class="bond-3 atom-1 atom-4" d="M 86.9,71.3 L 122.6,88.1" style="fill:none;fill-rule:evenodd;stroke:#000000;stroke-width:2.0px;stroke-linecap:butt;stroke-linejoin:miter;stroke-opacity:1"/>
<path class="bond-4 atom-4 atom-5" d="M 141.5,86.0 L 179.5,59.5" style="fill:none;fill-rule:evenodd;stroke:#000000;stroke-width:2.0px;stroke-linecap:butt;stroke-linejoin:miter;stroke-opacity:1"/>
<path class="bond-5 atom-5 atom-6" d="M 179.5,59.5 L 231.9,84.2" style="fill:none;fill-rule:evenodd;stroke:#000000;stroke-width:2.0px;stroke-linecap:butt;stroke-linejoin:miter;stroke-opacity:1"/>
<path class="bond-6 atom-6 atom-7" d="M 231.9,84.2 L 279.3,51.2" style="fill:none;fill-rule:evenodd;stroke:#000000;stroke-width:2.0px;stroke-linecap:butt;stroke-linejoin:miter;stroke-opacity:1"/>
<path class="bond-7 atom-7 atom-8" d="M 279.3,51.2 L 331.7,75.8" style="fill:none;fill-rule:evenodd;stroke:#000000;stroke-width:2.0px;stroke-linecap:butt;stroke-linejoin:miter;stroke-opacity:1"/>
<path class="bond-8 atom-8 atom-9" d="M 331.7,75.8 L 369.7,49.3" style="fill:none;fill-rule:evenodd;stroke:#000000;stroke-width:2.0px;stroke-linecap:butt;stroke-linejoin:miter;stroke-opacity:1"/>
<path class="bond-9 atom-9 atom-10" d="M 388.6,47.2 L 424.3,64.0" style="fill:none;fill-rule:evenodd;stroke:#000000;stroke-width:2.0px;stroke-linecap:butt;stroke-linejoin:miter;stroke-opacity:1"/>
<path class="bond-10 atom-10 atom-11" d="M 438.7,70.8 L 483.8,92.0" style="fill:none;fill-rule:evenodd;stroke:#000000;stroke-width:2.0px;stroke-linecap:butt;stroke-linejoin:miter;stroke-opacity:1"/>
<path class="bond-11 atom-10 atom-12" d="M 422.6,76.1 L 407.8,107.7" style="fill:none;fill-rule:evenodd;stroke:#000000;stroke-width:2.0px;stroke-linecap:butt;stroke-linejoin:miter;stroke-opacity:1"/>
<path class="bond-11 atom-10 atom-12" d="M 430.5,79.8 L 415.6,111.4" style="fill:none;fill-rule:evenodd;stroke:#000000;stroke-width:2.0px;stroke-linecap:butt;stroke-linejoin:miter;stroke-opacity:1"/>
<path class="bond-12 atom-10 atom-13" d="M 440.2,59.2 L 455.1,27.4" style="fill:none;fill-rule:evenodd;stroke:#000000;stroke-width:2.0px;stroke-linecap:butt;stroke-linejoin:miter;stroke-opacity:1"/>
<path class="bond-12 atom-10 atom-13" d="M 432.3,55.5 L 447.3,23.7" style="fill:none;fill-rule:evenodd;stroke:#000000;stroke-width:2.0px;stroke-linecap:butt;stroke-linejoin:miter;stroke-opacity:1"/>
<path d="M 177.6,60.9 L 179.5,59.5 L 182.1,60.8" style="fill:none;stroke:#000000;stroke-width:2.0px;stroke-linecap:butt;stroke-linejoin:miter;stroke-miterlimit:10;stroke-opacity:1;"/>
<path d="M 229.2,82.9 L 231.9,84.2 L 234.2,82.5" style="fill:none;stroke:#000000;stroke-width:2.0px;stroke-linecap:butt;stroke-linejoin:miter;stroke-miterlimit:10;stroke-opacity:1;"/>
<path d="M 277.0,52.8 L 279.3,51.2 L 282.0,52.4" style="fill:none;stroke:#000000;stroke-width:2.0px;stroke-linecap:butt;stroke-linejoin:miter;stroke-miterlimit:10;stroke-opacity:1;"/>
<path d="M 329.1,74.6 L 331.7,75.8 L 333.6,74.5" style="fill:none;stroke:#000000;stroke-width:2.0px;stroke-linecap:butt;stroke-linejoin:miter;stroke-miterlimit:10;stroke-opacity:1;"/>
<path class="atom-1" d="M 75.1 73.6 Q 75.2 73.6, 76.0 73.9 Q 76.8 74.3, 77.6 74.5 Q 78.5 74.7, 79.3 74.7 Q 80.8 74.7, 81.8 73.9 Q 82.7 73.2, 82.7 71.8 Q 82.7 70.9, 82.2 70.4 Q 81.8 69.8, 81.1 69.5 Q 80.4 69.2, 79.2 68.9 Q 77.7 68.4, 76.9 68.0 Q 76.0 67.6, 75.4 66.7 Q 74.8 65.8, 74.8 64.4 Q 74.8 62.3, 76.2 61.0 Q 77.6 59.8, 80.4 59.8 Q 82.3 59.8, 84.4 60.7 L 83.9 62.4 Q 81.9 61.6, 80.4 61.6 Q 78.8 61.6, 78.0 62.3 Q 77.1 63.0, 77.1 64.1 Q 77.1 65.0, 77.5 65.5 Q 78.0 66.0, 78.7 66.3 Q 79.3 66.6, 80.4 67.0 Q 81.9 67.4, 82.8 67.9 Q 83.7 68.4, 84.3 69.3 Q 84.9 70.2, 84.9 71.8 Q 84.9 74.1, 83.4 75.3 Q 81.9 76.5, 79.4 76.5 Q 77.9 76.5, 76.8 76.2 Q 75.7 75.9, 74.4 75.4 L 75.1 73.6 " fill="#000000"/>
<path class="atom-2" d="M 47.5 120.3 Q 47.5 116.4, 49.5 114.2 Q 51.4 112.0, 55.1 112.0 Q 58.7 112.0, 60.6 114.2 Q 62.6 116.4, 62.6 120.3 Q 62.6 124.3, 60.6 126.6 Q 58.6 128.8, 55.1 128.8 Q 51.5 128.8, 49.5 126.6 Q 47.5 124.3, 47.5 120.3 M 55.1 126.9 Q 57.6 126.9, 58.9 125.3 Q 60.3 123.6, 60.3 120.3 Q 60.3 117.1, 58.9 115.5 Q 57.6 113.8, 55.1 113.8 Q 52.6 113.8, 51.2 115.5 Q 49.9 117.1, 49.9 120.3 Q 49.9 123.6, 51.2 125.3 Q 52.6 126.9, 55.1 126.9 " fill="#000000"/>
<path class="atom-3" d="M 96.8 15.6 Q 96.8 11.7, 98.7 9.5 Q 100.7 7.3, 104.3 7.3 Q 108.0 7.3, 109.9 9.5 Q 111.8 11.7, 111.8 15.6 Q 111.8 19.6, 109.9 21.9 Q 107.9 24.1, 104.3 24.1 Q 100.7 24.1, 98.7 21.9 Q 96.8 19.6, 96.8 15.6 M 104.3 22.3 Q 106.8 22.3, 108.2 20.6 Q 109.5 18.9, 109.5 15.6 Q 109.5 12.4, 108.2 10.8 Q 106.8 9.2, 104.3 9.2 Q 101.8 9.2, 100.5 10.8 Q 99.1 12.4, 99.1 15.6 Q 99.1 19.0, 100.5 20.6 Q 101.8 22.3, 104.3 22.3 " fill="#000000"/>
<path class="atom-4" d="M 124.5 92.6 Q 124.5 88.7, 126.4 86.5 Q 128.4 84.3, 132.0 84.3 Q 135.7 84.3, 137.6 86.5 Q 139.5 88.7, 139.5 92.6 Q 139.5 96.6, 137.6 98.9 Q 135.6 101.1, 132.0 101.1 Q 128.4 101.1, 126.4 98.9 Q 124.5 96.6, 124.5 92.6 M 132.0 99.2 Q 134.5 99.2, 135.9 97.6 Q 137.2 95.9, 137.2 92.6 Q 137.2 89.4, 135.9 87.8 Q 134.5 86.1, 132.0 86.1 Q 129.5 86.1, 128.2 87.7 Q 126.8 89.4, 126.8 92.6 Q 126.8 95.9, 128.2 97.6 Q 129.5 99.2, 132.0 99.2 " fill="#000000"/>
<path class="atom-9" d="M 371.7 42.8 Q 371.7 38.9, 373.6 36.7 Q 375.5 34.5, 379.2 34.5 Q 382.8 34.5, 384.8 36.7 Q 386.7 38.9, 386.7 42.8 Q 386.7 46.8, 384.7 49.1 Q 382.8 51.3, 379.2 51.3 Q 375.6 51.3, 373.6 49.1 Q 371.7 46.8, 371.7 42.8 M 379.2 49.5 Q 381.7 49.5, 383.0 47.8 Q 384.4 46.1, 384.4 42.8 Q 384.4 39.6, 383.0 38.0 Q 381.7 36.4, 379.2 36.4 Q 376.7 36.4, 375.3 38.0 Q 374.0 39.6, 374.0 42.8 Q 374.0 46.1, 375.3 47.8 Q 376.7 49.5, 379.2 49.5 " fill="#000000"/>
<path class="atom-10" d="M 426.9 73.0 Q 427.1 73.1, 427.8 73.4 Q 428.6 73.8, 429.4 74.0 Q 430.3 74.1, 431.1 74.1 Q 432.7 74.1, 433.6 73.4 Q 434.5 72.6, 434.5 71.3 Q 434.5 70.4, 434.0 69.9 Q 433.6 69.3, 432.9 69.0 Q 432.2 68.7, 431.0 68.4 Q 429.6 67.9, 428.7 67.5 Q 427.8 67.1, 427.2 66.2 Q 426.6 65.3, 426.6 63.9 Q 426.6 61.8, 428.0 60.5 Q 429.4 59.2, 432.2 59.2 Q 434.1 59.2, 436.2 60.2 L 435.7 61.9 Q 433.7 61.1, 432.2 61.1 Q 430.7 61.1, 429.8 61.8 Q 428.9 62.4, 428.9 63.6 Q 428.9 64.5, 429.4 65.0 Q 429.8 65.5, 430.5 65.8 Q 431.1 66.1, 432.2 66.5 Q 433.7 66.9, 434.6 67.4 Q 435.5 67.9, 436.1 68.8 Q 436.8 69.7, 436.8 71.3 Q 436.8 73.6, 435.2 74.8 Q 433.7 76.0, 431.2 76.0 Q 429.8 76.0, 428.6 75.7 Q 427.6 75.4, 426.3 74.9 L 426.9 73.0 " fill="#000000"/>
<path class="atom-12" d="M 399.4 119.8 Q 399.4 115.9, 401.3 113.7 Q 403.2 111.5, 406.9 111.5 Q 410.5 111.5, 412.5 113.7 Q 414.4 115.9, 414.4 119.8 Q 414.4 123.8, 412.4 126.0 Q 410.5 128.3, 406.9 128.3 Q 403.3 128.3, 401.3 126.0 Q 399.4 123.8, 399.4 119.8 M 406.9 126.4 Q 409.4 126.4, 410.7 124.8 Q 412.1 123.1, 412.1 119.8 Q 412.1 116.6, 410.7 115.0 Q 409.4 113.3, 406.9 113.3 Q 404.4 113.3, 403.0 114.9 Q 401.7 116.6, 401.7 119.8 Q 401.7 123.1, 403.0 124.8 Q 404.4 126.4, 406.9 126.4 " fill="#000000"/>
<path class="atom-13" d="M 448.6 15.1 Q 448.6 11.2, 450.6 9.0 Q 452.5 6.8, 456.1 6.8 Q 459.8 6.8, 461.7 9.0 Q 463.7 11.2, 463.7 15.1 Q 463.7 19.1, 461.7 21.4 Q 459.7 23.6, 456.1 23.6 Q 452.5 23.6, 450.6 21.4 Q 448.6 19.1, 448.6 15.1 M 456.1 21.8 Q 458.6 21.8, 460.0 20.1 Q 461.3 18.4, 461.3 15.1 Q 461.3 11.9, 460.0 10.3 Q 458.6 8.7, 456.1 8.7 Q 453.6 8.7, 452.3 10.3 Q 450.9 11.9, 450.9 15.1 Q 450.9 18.4, 452.3 20.1 Q 453.6 21.8, 456.1 21.8 " fill="#000000"/>
</svg>