<?xml version='1.0' encoding='utf-8'?>
<svg xmlns="http://www.w3.org/2000/svg" xmlns:rdkit="http://www.rdkit.org/xml" xmlns:xlink="http://www.w3.org/1999/xlink" version="1.1" baseProfile="full" xml:space="preserve" width="512px" height="516px" viewBox="0 0 512 516">

<rect style="opacity:1.0;fill:#FFFFFF;stroke:none" width="512.0" height="516.0" x="0.0" y="0.0"> </rect>
<path class="bond-0 atom-0 atom-1" d="M 25.6,144.7 L 100.1,123.0" style="fill:none;fill-rule:evenodd;stroke:#000000;stroke-width:2.0px;stroke-linecap:butt;stroke-linejoin:miter;stroke-opacity:1"/>
<path class="bond-1 atom-1 atom-2" d="M 100.1,123.0 L 156.2,176.7" style="fill:none;fill-rule:evenodd;stroke:#000000;stroke-width:2.0px;stroke-linecap:butt;stroke-linejoin:miter;stroke-opacity:1"/>
<path class="bond-2 atom-2 atom-3" d="M 156.2,176.7 L 230.7,155.0" style="fill:none;fill-rule:evenodd;stroke:#000000;stroke-width:2.0px;stroke-linecap:butt;stroke-linejoin:miter;stroke-opacity:1"/>
<path class="bond-2 atom-2 atom-3" d="M 159.4,163.6 L 221.0,145.7" style="fill:none;fill-rule:evenodd;stroke:#000000;stroke-width:2.0px;stroke-linecap:butt;stroke-linejoin:miter;stroke-opacity:1"/>
<path class="bond-3 atom-3 atom-4" d="M 230.7,155.0 L 249.1,79.6" style="fill:none;fill-rule:evenodd;stroke:#000000;stroke-width:2.0px;stroke-linecap:butt;stroke-linejoin:miter;stroke-opacity:1"/>
<path class="bond-4 atom-4 atom-5" d="M 249.1,79.6 L 193.1,25.9" style="fill:none;fill-rule:evenodd;stroke:#000000;stroke-width:2.0px;stroke-linecap:butt;stroke-linejoin:miter;stroke-opacity:1"/>
<path class="bond-5 atom-3 atom-6" d="M 230.7,155.0 L 286.7,208.6" style="fill:none;fill-rule:evenodd;stroke:#000000;stroke-width:2.0px;stroke-linecap:butt;stroke-linejoin:miter;stroke-opacity:1"/>
<path class="bond-6 atom-6 atom-7" d="M 286.7,208.6 L 268.3,284.0" style="fill:none;fill-rule:evenodd;stroke:#000000;stroke-width:2.0px;stroke-linecap:butt;stroke-linejoin:miter;stroke-opacity:1"/>
<path class="bond-7 atom-7 atom-8" d="M 268.3,284.0 L 324.3,337.7" style="fill:none;fill-rule:evenodd;stroke:#000000;stroke-width:2.0px;stroke-linecap:butt;stroke-linejoin:miter;stroke-opacity:1"/>
<path class="bond-7 atom-7 atom-8" d="M 281.2,280.3 L 327.5,324.6" style="fill:none;fill-rule:evenodd;stroke:#000000;stroke-width:2.0px;stroke-linecap:butt;stroke-linejoin:miter;stroke-opacity:1"/>
<path class="bond-8 atom-8 atom-9" d="M 324.3,337.7 L 398.8,316.0" style="fill:none;fill-rule:evenodd;stroke:#000000;stroke-width:2.0px;stroke-linecap:butt;stroke-linejoin:miter;stroke-opacity:1"/>
<path class="bond-9 atom-9 atom-10" d="M 398.8,316.0 L 442.2,357.5" style="fill:none;fill-rule:evenodd;stroke:#000000;stroke-width:2.0px;stroke-linecap:butt;stroke-linejoin:miter;stroke-opacity:1"/>
<path class="bond-10 atom-9 atom-11" d="M 398.8,316.0 L 417.3,240.6" style="fill:none;fill-rule:evenodd;stroke:#000000;stroke-width:2.0px;stroke-linecap:butt;stroke-linejoin:miter;stroke-opacity:1"/>
<path class="bond-10 atom-9 atom-11" d="M 389.1,306.7 L 404.4,244.4" style="fill:none;fill-rule:evenodd;stroke:#000000;stroke-width:2.0px;stroke-linecap:butt;stroke-linejoin:miter;stroke-opacity:1"/>
<path class="bond-11 atom-11 atom-12" d="M 417.3,240.6 L 361.2,186.9" style="fill:none;fill-rule:evenodd;stroke:#000000;stroke-width:2.0px;stroke-linecap:butt;stroke-linejoin:miter;stroke-opacity:1"/>
<path class="bond-12 atom-2 atom-13" d="M 156.2,176.7 L 137.7,252.1" style="fill:none;fill-rule:evenodd;stroke:#000000;stroke-width:2.0px;stroke-linecap:butt;stroke-linejoin:miter;stroke-opacity:1"/>
<path class="bond-13 atom-13 atom-14" d="M 137.7,252.1 L 63.2,273.8" style="fill:none;fill-rule:evenodd;stroke:#000000;stroke-width:2.0px;stroke-linecap:butt;stroke-linejoin:miter;stroke-opacity:1"/>
<path class="bond-14 atom-14 atom-15" d="M 63.2,273.8 L 44.8,349.2" style="fill:none;fill-rule:evenodd;stroke:#000000;stroke-width:2.0px;stroke-linecap:butt;stroke-linejoin:miter;stroke-opacity:1"/>
<path class="bond-14 atom-14 atom-15" d="M 72.9,283.1 L 57.7,345.4" style="fill:none;fill-rule:evenodd;stroke:#000000;stroke-width:2.0px;stroke-linecap:butt;stroke-linejoin:miter;stroke-opacity:1"/>
<path class="bond-15 atom-15 atom-16" d="M 44.8,349.2 L 100.8,402.8" style="fill:none;fill-rule:evenodd;stroke:#000000;stroke-width:2.0px;stroke-linecap:butt;stroke-linejoin:miter;stroke-opacity:1"/>
<path class="bond-16 atom-16 atom-17" d="M 100.8,402.8 L 85.7,464.5" style="fill:none;fill-rule:evenodd;stroke:#000000;stroke-width:2.0px;stroke-linecap:butt;stroke-linejoin:miter;stroke-opacity:1"/>
<path class="bond-17 atom-16 atom-18" d="M 100.8,402.8 L 175.3,381.1" style="fill:none;fill-rule:evenodd;stroke:#000000;stroke-width:2.0px;stroke-linecap:butt;stroke-linejoin:miter;stroke-opacity:1"/>
<path class="bond-17 atom-16 atom-18" d="M 104.0,389.8 L 165.6,371.8" style="fill:none;fill-rule:evenodd;stroke:#000000;stroke-width:2.0px;stroke-linecap:butt;stroke-linejoin:miter;stroke-opacity:1"/>
<path class="bond-18 atom-18 atom-19" d="M 175.3,381.1 L 193.8,305.7" style="fill:none;fill-rule:evenodd;stroke:#000000;stroke-width:2.0px;stroke-linecap:butt;stroke-linejoin:miter;stroke-opacity:1"/>
<path class="bond-19 atom-12 atom-6" d="M 361.2,186.9 L 286.7,208.6" style="fill:none;fill-rule:evenodd;stroke:#000000;stroke-width:2.0px;stroke-linecap:butt;stroke-linejoin:miter;stroke-opacity:1"/>
<path class="bond-19 atom-12 atom-6" d="M 358.0,200.0 L 296.4,217.9" style="fill:none;fill-rule:evenodd;stroke:#000000;stroke-width:2.0px;stroke-linecap:butt;stroke-linejoin:miter;stroke-opacity:1"/>
<path class="bond-20 atom-19 atom-13" d="M 193.8,305.7 L 137.7,252.1" style="fill:none;fill-rule:evenodd;stroke:#000000;stroke-width:2.0px;stroke-linecap:butt;stroke-linejoin:miter;stroke-opacity:1"/>
<path class="bond-20 atom-19 atom-13" d="M 180.9,309.5 L 134.5,265.1" style="fill:none;fill-rule:evenodd;stroke:#000000;stroke-width:2.0px;stroke-linecap:butt;stroke-linejoin:miter;stroke-opacity:1"/>
<path d="M 96.4,124.1 L 100.1,123.0 L 102.9,125.7" style="fill:none;stroke:#000000;stroke-width:2.0px;stroke-linecap:butt;stroke-linejoin:miter;stroke-miterlimit:10;stroke-opacity:1;"/>
<path d="M 248.2,83.4 L 249.1,79.6 L 246.3,76.9" style="fill:none;stroke:#000000;stroke-width:2.0px;stroke-linecap:butt;stroke-linejoin:miter;stroke-miterlimit:10;stroke-opacity:1;"/>
<path d="M 269.2,280.3 L 268.3,284.0 L 271.1,286.7" style="fill:none;stroke:#000000;stroke-width:2.0px;stroke-linecap:butt;stroke-linejoin:miter;stroke-miterlimit:10;stroke-opacity:1;"/>
<path d="M 321.5,335.0 L 324.3,337.7 L 328.1,336.6" style="fill:none;stroke:#000000;stroke-width:2.0px;stroke-linecap:butt;stroke-linejoin:miter;stroke-miterlimit:10;stroke-opacity:1;"/>
<path d="M 416.4,244.4 L 417.3,240.6 L 414.5,237.9" style="fill:none;stroke:#000000;stroke-width:2.0px;stroke-linecap:butt;stroke-linejoin:miter;stroke-miterlimit:10;stroke-opacity:1;"/>
<path d="M 364.0,189.6 L 361.2,186.9 L 357.5,188.0" style="fill:none;stroke:#000000;stroke-width:2.0px;stroke-linecap:butt;stroke-linejoin:miter;stroke-miterlimit:10;stroke-opacity:1;"/>
<path d="M 66.9,272.7 L 63.2,273.8 L 62.3,277.6" style="fill:none;stroke:#000000;stroke-width:2.0px;stroke-linecap:butt;stroke-linejoin:miter;stroke-miterlimit:10;stroke-opacity:1;"/>
<path d="M 45.7,345.4 L 44.8,349.2 L 47.6,351.8" style="fill:none;stroke:#000000;stroke-width:2.0px;stroke-linecap:butt;stroke-linejoin:miter;stroke-miterlimit:10;stroke-opacity:1;"/>
<path d="M 171.6,382.2 L 175.3,381.1 L 176.2,377.3" style="fill:none;stroke:#000000;stroke-width:2.0px;stroke-linecap:butt;stroke-linejoin:miter;stroke-miterlimit:10;stroke-opacity:1;"/>
<path d="M 192.8,309.5 L 193.8,305.7 L 191.0,303.1" style="fill:none;stroke:#000000;stroke-width:2.0px;stroke-linecap:butt;stroke-linejoin:miter;stroke-miterlimit:10;stroke-opacity:1;"/>
<path class="atom-10" d="M 444.8 369.7 Q 444.8 364.4, 447.4 361.5 Q 450.0 358.5, 454.9 358.5 Q 459.8 358.5, 462.4 361.5 Q 465.0 364.4, 465.0 369.7 Q 465.0 375.0, 462.3 378.1 Q 459.7 381.1, 454.9 381.1 Q 450.1 381.1, 447.4 378.1 Q 444.8 375.1, 444.8 369.7 M 454.9 378.6 Q 458.2 378.6, 460.0 376.4 Q 461.9 374.1, 461.9 369.7 Q 461.9 365.4, 460.0 363.2 Q 458.2 361.0, 454.9 361.0 Q 451.5 361.0, 449.7 363.2 Q 447.9 365.4, 447.9 369.7 Q 447.9 374.1, 449.7 376.4 Q 451.5 378.6, 454.9 378.6 " fill="#000000"/>
<path class="atom-10" d="M 468.4 358.8 L 471.4 358.8 L 471.4 368.1 L 482.6 368.1 L 482.6 358.8 L 485.6 358.8 L 485.6 380.8 L 482.6 380.8 L 482.6 370.6 L 471.4 370.6 L 471.4 380.8 L 468.4 380.8 L 468.4 358.8 " fill="#000000"/>
<path class="atom-17" d="M 72.3 478.3 Q 72.3 473.0, 74.9 470.0 Q 77.5 467.1, 82.4 467.1 Q 87.2 467.1, 89.9 470.0 Q 92.5 473.0, 92.5 478.3 Q 92.5 483.6, 89.8 486.7 Q 87.2 489.7, 82.4 489.7 Q 77.5 489.7, 74.9 486.7 Q 72.3 483.6, 72.3 478.3 M 82.4 487.2 Q 85.7 487.2, 87.5 484.9 Q 89.4 482.7, 89.4 478.3 Q 89.4 474.0, 87.5 471.8 Q 85.7 469.6, 82.4 469.6 Q 79.0 469.6, 77.2 471.8 Q 75.4 473.9, 75.4 478.3 Q 75.4 482.7, 77.2 484.9 Q 79.0 487.2, 82.4 487.2 " fill="#000000"/>
<path class="atom-17" d="M 95.9 467.3 L 98.9 467.3 L 98.9 476.7 L 110.1 476.7 L 110.1 467.3 L 113.1 467.3 L 113.1 489.3 L 110.1 489.3 L 110.1 479.2 L 98.9 479.2 L 98.9 489.3 L 95.9 489.3 L 95.9 467.3 " fill="#000000"/>
</svg>