<?xml version='1.0' encoding='utf-8'?>
<svg xmlns="http://www.w3.org/2000/svg" xmlns:rdkit="http://www.rdkit.org/xml" xmlns:xlink="http://www.w3.org/1999/xlink" version="1.1" baseProfile="full" xml:space="preserve" width="512px" height="463px" viewBox="0 0 512 463">

<rect style="opacity:1.0;fill:#FFFFFF;stroke:none" width="512.0" height="463.0" x="0.0" y="0.0"> </rect>
<path class="bond-0 atom-0 atom-1" d="M 25.8,181.5 L 123.2,206.2" style="fill:none;fill-rule:evenodd;stroke:#000000;stroke-width:2.0px;stroke-linecap:butt;stroke-linejoin:miter;stroke-opacity:1"/>
<path class="bond-1 atom-1 atom-2" d="M 123.2,206.2 L 150.5,302.9" style="fill:none;fill-rule:evenodd;stroke:#000000;stroke-width:2.0px;stroke-linecap:butt;stroke-linejoin:miter;stroke-opacity:1"/>
<path class="bond-1 atom-1 atom-2" d="M 140.0,210.5 L 162.6,290.4" style="fill:none;fill-rule:evenodd;stroke:#000000;stroke-width:2.0px;stroke-linecap:butt;stroke-linejoin:miter;stroke-opacity:1"/>
<path class="bond-2 atom-2 atom-3" d="M 150.5,302.9 L 247.8,327.6" style="fill:none;fill-rule:evenodd;stroke:#000000;stroke-width:2.0px;stroke-linecap:butt;stroke-linejoin:miter;stroke-opacity:1"/>
<path class="bond-3 atom-3 atom-4" d="M 239.4,325.5 L 262.9,408.7" style="fill:none;fill-rule:evenodd;stroke:#000000;stroke-width:2.0px;stroke-linecap:butt;stroke-linejoin:miter;stroke-opacity:1"/>
<path class="bond-3 atom-3 atom-4" d="M 253.9,321.4 L 277.4,404.6" style="fill:none;fill-rule:evenodd;stroke:#000000;stroke-width:2.0px;stroke-linecap:butt;stroke-linejoin:miter;stroke-opacity:1"/>
<path class="bond-4 atom-3 atom-5" d="M 247.8,327.6 L 317.9,255.6" style="fill:none;fill-rule:evenodd;stroke:#000000;stroke-width:2.0px;stroke-linecap:butt;stroke-linejoin:miter;stroke-opacity:1"/>
<path class="bond-5 atom-5 atom-6" d="M 317.9,255.6 L 415.3,280.3" style="fill:none;fill-rule:evenodd;stroke:#000000;stroke-width:2.0px;stroke-linecap:butt;stroke-linejoin:miter;stroke-opacity:1"/>
<path class="bond-5 atom-5 atom-6" d="M 330.1,243.2 L 410.6,263.6" style="fill:none;fill-rule:evenodd;stroke:#000000;stroke-width:2.0px;stroke-linecap:butt;stroke-linejoin:miter;stroke-opacity:1"/>
<path class="bond-6 atom-6 atom-7" d="M 415.3,280.3 L 485.4,208.4" style="fill:none;fill-rule:evenodd;stroke:#000000;stroke-width:2.0px;stroke-linecap:butt;stroke-linejoin:miter;stroke-opacity:1"/>
<path class="bond-7 atom-7 atom-8" d="M 485.4,208.4 L 458.1,111.7" style="fill:none;fill-rule:evenodd;stroke:#000000;stroke-width:2.0px;stroke-linecap:butt;stroke-linejoin:miter;stroke-opacity:1"/>
<path class="bond-7 atom-7 atom-8" d="M 468.6,204.1 L 446.0,124.1" style="fill:none;fill-rule:evenodd;stroke:#000000;stroke-width:2.0px;stroke-linecap:butt;stroke-linejoin:miter;stroke-opacity:1"/>
<path class="bond-8 atom-8 atom-9" d="M 458.1,111.7 L 360.7,87.0" style="fill:none;fill-rule:evenodd;stroke:#000000;stroke-width:2.0px;stroke-linecap:butt;stroke-linejoin:miter;stroke-opacity:1"/>
<path class="bond-9 atom-9 atom-10" d="M 360.7,87.0 L 290.6,158.9" style="fill:none;fill-rule:evenodd;stroke:#000000;stroke-width:2.0px;stroke-linecap:butt;stroke-linejoin:miter;stroke-opacity:1"/>
<path class="bond-9 atom-9 atom-10" d="M 365.5,103.7 L 307.5,163.2" style="fill:none;fill-rule:evenodd;stroke:#000000;stroke-width:2.0px;stroke-linecap:butt;stroke-linejoin:miter;stroke-opacity:1"/>
<path class="bond-10 atom-10 atom-11" d="M 290.6,158.9 L 193.3,134.2" style="fill:none;fill-rule:evenodd;stroke:#000000;stroke-width:2.0px;stroke-linecap:butt;stroke-linejoin:miter;stroke-opacity:1"/>
<path class="bond-11 atom-11 atom-12" d="M 201.7,136.4 L 178.3,53.6" style="fill:none;fill-rule:evenodd;stroke:#000000;stroke-width:2.0px;stroke-linecap:butt;stroke-linejoin:miter;stroke-opacity:1"/>
<path class="bond-11 atom-11 atom-12" d="M 187.2,140.5 L 163.8,57.7" style="fill:none;fill-rule:evenodd;stroke:#000000;stroke-width:2.0px;stroke-linecap:butt;stroke-linejoin:miter;stroke-opacity:1"/>
<path class="bond-12 atom-11 atom-1" d="M 193.3,134.2 L 123.2,206.2" style="fill:none;fill-rule:evenodd;stroke:#000000;stroke-width:2.0px;stroke-linecap:butt;stroke-linejoin:miter;stroke-opacity:1"/>
<path class="bond-13 atom-10 atom-5" d="M 290.6,158.9 L 317.9,255.6" style="fill:none;fill-rule:evenodd;stroke:#000000;stroke-width:2.0px;stroke-linecap:butt;stroke-linejoin:miter;stroke-opacity:1"/>
<path d="M 149.1,298.1 L 150.5,302.9 L 155.3,304.2" style="fill:none;stroke:#000000;stroke-width:2.0px;stroke-linecap:butt;stroke-linejoin:miter;stroke-miterlimit:10;stroke-opacity:1;"/>
<path d="M 243.0,326.4 L 247.8,327.6 L 251.4,324.0" style="fill:none;stroke:#000000;stroke-width:2.0px;stroke-linecap:butt;stroke-linejoin:miter;stroke-miterlimit:10;stroke-opacity:1;"/>
<path d="M 410.5,279.1 L 415.3,280.3 L 418.8,276.7" style="fill:none;stroke:#000000;stroke-width:2.0px;stroke-linecap:butt;stroke-linejoin:miter;stroke-miterlimit:10;stroke-opacity:1;"/>
<path d="M 481.9,212.0 L 485.4,208.4 L 484.1,203.5" style="fill:none;stroke:#000000;stroke-width:2.0px;stroke-linecap:butt;stroke-linejoin:miter;stroke-miterlimit:10;stroke-opacity:1;"/>
<path d="M 459.5,116.5 L 458.1,111.7 L 453.3,110.4" style="fill:none;stroke:#000000;stroke-width:2.0px;stroke-linecap:butt;stroke-linejoin:miter;stroke-miterlimit:10;stroke-opacity:1;"/>
<path d="M 365.6,88.2 L 360.7,87.0 L 357.2,90.6" style="fill:none;stroke:#000000;stroke-width:2.0px;stroke-linecap:butt;stroke-linejoin:miter;stroke-miterlimit:10;stroke-opacity:1;"/>
<path d="M 198.1,135.5 L 193.3,134.2 L 189.8,137.8" style="fill:none;stroke:#000000;stroke-width:2.0px;stroke-linecap:butt;stroke-linejoin:miter;stroke-miterlimit:10;stroke-opacity:1;"/>
<path class="atom-4" d="M 262.1 424.4 Q 262.1 417.6, 265.5 413.8 Q 268.9 410.0, 275.1 410.0 Q 281.4 410.0, 284.8 413.8 Q 288.1 417.6, 288.1 424.4 Q 288.1 431.3, 284.7 435.2 Q 281.3 439.1, 275.1 439.1 Q 268.9 439.1, 265.5 435.2 Q 262.1 431.3, 262.1 424.4 M 275.1 435.9 Q 279.5 435.9, 281.8 433.0 Q 284.1 430.1, 284.1 424.4 Q 284.1 418.8, 281.8 416.0 Q 279.5 413.2, 275.1 413.2 Q 270.8 413.2, 268.5 416.0 Q 266.1 418.8, 266.1 424.4 Q 266.1 430.1, 268.5 433.0 Q 270.8 435.9, 275.1 435.9 " fill="#000000"/>
<path class="atom-12" d="M 153.0 37.6 Q 153.0 30.8, 156.3 27.0 Q 159.7 23.2, 166.0 23.2 Q 172.2 23.2, 175.6 27.0 Q 179.0 30.8, 179.0 37.6 Q 179.0 44.5, 175.6 48.4 Q 172.2 52.3, 166.0 52.3 Q 159.7 52.3, 156.3 48.4 Q 153.0 44.5, 153.0 37.6 M 166.0 49.1 Q 170.3 49.1, 172.6 46.2 Q 175.0 43.3, 175.0 37.6 Q 175.0 32.1, 172.6 29.3 Q 170.3 26.4, 166.0 26.4 Q 161.6 26.4, 159.3 29.2 Q 157.0 32.0, 157.0 37.6 Q 157.0 43.3, 159.3 46.2 Q 161.6 49.1, 166.0 49.1 " fill="#000000"/>
</svg>