<?xml version='1.0' encoding='utf-8'?>
<svg xmlns="http://www.w3.org/2000/svg" xmlns:rdkit="http://www.rdkit.org/xml" xmlns:xlink="http://www.w3.org/1999/xlink" version="1.1" baseProfile="full" xml:space="preserve" width="512px" height="265px" viewBox="0 0 512 265">

<rect style="opacity:1.0;fill:#FFFFFF;stroke:none" width="512.0" height="265.0" x="0.0" y="0.0"> </rect>
<path class="bond-0 atom-0 atom-1" d="M 431.2,215.7 L 382.9,132.0" style="fill:none;fill-rule:evenodd;stroke:#000000;stroke-width:2.0px;stroke-linecap:butt;stroke-linejoin:miter;stroke-opacity:1"/>
<path class="bond-1 atom-1 atom-2" d="M 388.0,140.9 L 438.6,53.2" style="fill:none;fill-rule:evenodd;stroke:#000000;stroke-width:2.0px;stroke-linecap:butt;stroke-linejoin:miter;stroke-opacity:1"/>
<path class="bond-1 atom-1 atom-2" d="M 372.7,132.0 L 423.3,44.4" style="fill:none;fill-rule:evenodd;stroke:#000000;stroke-width:2.0px;stroke-linecap:butt;stroke-linejoin:miter;stroke-opacity:1"/>
<path class="bond-2 atom-1 atom-3" d="M 382.9,132.0 L 265.2,132.0" style="fill:none;fill-rule:evenodd;stroke:#000000;stroke-width:2.0px;stroke-linecap:butt;stroke-linejoin:miter;stroke-opacity:1"/>
<path class="bond-3 atom-3 atom-4" d="M 265.2,132.0 L 206.4,233.9" style="fill:none;fill-rule:evenodd;stroke:#000000;stroke-width:2.0px;stroke-linecap:butt;stroke-linejoin:miter;stroke-opacity:1"/>
<path class="bond-3 atom-3 atom-4" d="M 244.9,132.0 L 196.2,216.3" style="fill:none;fill-rule:evenodd;stroke:#000000;stroke-width:2.0px;stroke-linecap:butt;stroke-linejoin:miter;stroke-opacity:1"/>
<path class="bond-4 atom-4 atom-5" d="M 206.4,233.9 L 88.7,233.9" style="fill:none;fill-rule:evenodd;stroke:#000000;stroke-width:2.0px;stroke-linecap:butt;stroke-linejoin:miter;stroke-opacity:1"/>
<path class="bond-5 atom-5 atom-6" d="M 88.7,233.9 L 29.9,132.0" style="fill:none;fill-rule:evenodd;stroke:#000000;stroke-width:2.0px;stroke-linecap:butt;stroke-linejoin:miter;stroke-opacity:1"/>
<path class="bond-5 atom-5 atom-6" d="M 98.9,216.3 L 50.3,132.0" style="fill:none;fill-rule:evenodd;stroke:#000000;stroke-width:2.0px;stroke-linecap:butt;stroke-linejoin:miter;stroke-opacity:1"/>
<path class="bond-6 atom-6 atom-7" d="M 29.9,132.0 L 78.3,48.2" style="fill:none;fill-rule:evenodd;stroke:#000000;stroke-width:2.0px;stroke-linecap:butt;stroke-linejoin:miter;stroke-opacity:1"/>
<path class="bond-7 atom-7 atom-8" d="M 103.4,30.1 L 206.4,30.1" style="fill:none;fill-rule:evenodd;stroke:#000000;stroke-width:2.0px;stroke-linecap:butt;stroke-linejoin:miter;stroke-opacity:1"/>
<path class="bond-7 atom-7 atom-8" d="M 103.4,47.8 L 196.2,47.8" style="fill:none;fill-rule:evenodd;stroke:#000000;stroke-width:2.0px;stroke-linecap:butt;stroke-linejoin:miter;stroke-opacity:1"/>
<path class="bond-8 atom-8 atom-3" d="M 206.4,30.1 L 265.2,132.0" style="fill:none;fill-rule:evenodd;stroke:#000000;stroke-width:2.0px;stroke-linecap:butt;stroke-linejoin:miter;stroke-opacity:1"/>
<path d="M 385.3,136.2 L 382.9,132.0 L 377.0,132.0" style="fill:none;stroke:#000000;stroke-width:2.0px;stroke-linecap:butt;stroke-linejoin:miter;stroke-miterlimit:10;stroke-opacity:1;"/>
<path d="M 209.3,228.8 L 206.4,233.9 L 200.5,233.9" style="fill:none;stroke:#000000;stroke-width:2.0px;stroke-linecap:butt;stroke-linejoin:miter;stroke-miterlimit:10;stroke-opacity:1;"/>
<path d="M 94.6,233.9 L 88.7,233.9 L 85.8,228.8" style="fill:none;stroke:#000000;stroke-width:2.0px;stroke-linecap:butt;stroke-linejoin:miter;stroke-miterlimit:10;stroke-opacity:1;"/>
<path d="M 32.9,137.1 L 29.9,132.0 L 32.3,127.8" style="fill:none;stroke:#000000;stroke-width:2.0px;stroke-linecap:butt;stroke-linejoin:miter;stroke-miterlimit:10;stroke-opacity:1;"/>
<path d="M 201.3,30.1 L 206.4,30.1 L 209.3,35.2" style="fill:none;stroke:#000000;stroke-width:2.0px;stroke-linecap:butt;stroke-linejoin:miter;stroke-miterlimit:10;stroke-opacity:1;"/>
<path class="atom-0" d="M 428.7 234.0 Q 428.7 227.2, 432.1 223.4 Q 435.4 219.6, 441.7 219.6 Q 448.0 219.6, 451.4 223.4 Q 454.7 227.2, 454.7 234.0 Q 454.7 240.9, 451.3 244.8 Q 447.9 248.7, 441.7 248.7 Q 435.5 248.7, 432.1 244.8 Q 428.7 240.9, 428.7 234.0 M 441.7 245.5 Q 446.0 245.5, 448.4 242.6 Q 450.7 239.7, 450.7 234.0 Q 450.7 228.4, 448.4 225.6 Q 446.0 222.8, 441.7 222.8 Q 437.4 222.8, 435.0 225.6 Q 432.7 228.4, 432.7 234.0 Q 432.7 239.7, 435.0 242.6 Q 437.4 245.5, 441.7 245.5 " fill="#000000"/>
<path class="atom-0" d="M 459.1 219.9 L 463.0 219.9 L 463.0 232.0 L 477.4 232.0 L 477.4 219.9 L 481.3 219.9 L 481.3 248.2 L 477.4 248.2 L 477.4 235.2 L 463.0 235.2 L 463.0 248.2 L 459.1 248.2 L 459.1 219.9 " fill="#000000"/>
<path class="atom-2" d="M 428.7 30.2 Q 428.7 23.4, 432.1 19.6 Q 435.4 15.8, 441.7 15.8 Q 448.0 15.8, 451.4 19.6 Q 454.7 23.4, 454.7 30.2 Q 454.7 37.1, 451.3 41.0 Q 447.9 44.9, 441.7 44.9 Q 435.5 44.9, 432.1 41.0 Q 428.7 37.1, 428.7 30.2 M 441.7 41.7 Q 446.0 41.7, 448.4 38.8 Q 450.7 35.9, 450.7 30.2 Q 450.7 24.7, 448.4 21.9 Q 446.0 19.0, 441.7 19.0 Q 437.4 19.0, 435.0 21.8 Q 432.7 24.6, 432.7 30.2 Q 432.7 35.9, 435.0 38.8 Q 437.4 41.7, 441.7 41.7 " fill="#000000"/>
<path class="atom-7" d="M 82.5 16.0 L 91.8 31.0 Q 92.7 32.5, 94.2 35.1 Q 95.6 37.8, 95.7 38.0 L 95.7 16.0 L 99.5 16.0 L 99.5 44.3 L 95.6 44.3 L 85.6 27.9 Q 84.5 26.0, 83.2 23.8 Q 82.0 21.6, 81.7 20.9 L 81.7 44.3 L 78.0 44.3 L 78.0 16.0 L 82.5 16.0 " fill="#000000"/>
</svg>