<?xml version='1.0' encoding='utf-8'?>
<svg xmlns="http://www.w3.org/2000/svg" xmlns:rdkit="http://www.rdkit.org/xml" xmlns:xlink="http://www.w3.org/1999/xlink" version="1.1" baseProfile="full" xml:space="preserve" width="512px" height="401px" viewBox="0 0 512 401">

<rect style="opacity:1.0;fill:#FFFFFF;stroke:none" width="512.0" height="401.0" x="0.0" y="0.0"> </rect>
<path class="bond-0 atom-0 atom-1" d="M 435.4,361.5 L 431.7,313.1" style="fill:none;fill-rule:evenodd;stroke:#000000;stroke-width:2.0px;stroke-linecap:butt;stroke-linejoin:miter;stroke-opacity:1"/>
<path class="bond-1 atom-1 atom-2" d="M 431.7,313.1 L 378.8,287.6" style="fill:none;fill-rule:evenodd;stroke:#000000;stroke-width:2.0px;stroke-linecap:butt;stroke-linejoin:miter;stroke-opacity:1"/>
<path class="bond-2 atom-2 atom-3" d="M 378.8,287.6 L 374.4,229.0" style="fill:none;fill-rule:evenodd;stroke:#000000;stroke-width:2.0px;stroke-linecap:butt;stroke-linejoin:miter;stroke-opacity:1"/>
<path class="bond-2 atom-2 atom-3" d="M 387.2,281.9 L 383.5,233.4" style="fill:none;fill-rule:evenodd;stroke:#000000;stroke-width:2.0px;stroke-linecap:butt;stroke-linejoin:miter;stroke-opacity:1"/>
<path class="bond-3 atom-3 atom-4" d="M 374.4,229.0 L 422.9,195.9" style="fill:none;fill-rule:evenodd;stroke:#000000;stroke-width:2.0px;stroke-linecap:butt;stroke-linejoin:miter;stroke-opacity:1"/>
<path class="bond-4 atom-4 atom-5" d="M 422.9,195.9 L 475.9,221.4" style="fill:none;fill-rule:evenodd;stroke:#000000;stroke-width:2.0px;stroke-linecap:butt;stroke-linejoin:miter;stroke-opacity:1"/>
<path class="bond-4 atom-4 atom-5" d="M 423.7,206.0 L 467.5,227.1" style="fill:none;fill-rule:evenodd;stroke:#000000;stroke-width:2.0px;stroke-linecap:butt;stroke-linejoin:miter;stroke-opacity:1"/>
<path class="bond-5 atom-5 atom-6" d="M 475.9,221.4 L 480.3,280.0" style="fill:none;fill-rule:evenodd;stroke:#000000;stroke-width:2.0px;stroke-linecap:butt;stroke-linejoin:miter;stroke-opacity:1"/>
<path class="bond-6 atom-7 atom-4" d="M 418.5,140.7 L 419.1,140.7" style="fill:none;fill-rule:evenodd;stroke:#000000;stroke-width:1.0px;stroke-linecap:butt;stroke-linejoin:miter;stroke-opacity:1"/>
<path class="bond-6 atom-7 atom-4" d="M 418.5,144.2 L 419.6,144.1" style="fill:none;fill-rule:evenodd;stroke:#000000;stroke-width:1.0px;stroke-linecap:butt;stroke-linejoin:miter;stroke-opacity:1"/>
<path class="bond-6 atom-7 atom-4" d="M 418.5,147.7 L 420.1,147.6" style="fill:none;fill-rule:evenodd;stroke:#000000;stroke-width:1.0px;stroke-linecap:butt;stroke-linejoin:miter;stroke-opacity:1"/>
<path class="bond-6 atom-7 atom-4" d="M 418.5,151.1 L 420.7,151.0" style="fill:none;fill-rule:evenodd;stroke:#000000;stroke-width:1.0px;stroke-linecap:butt;stroke-linejoin:miter;stroke-opacity:1"/>
<path class="bond-6 atom-7 atom-4" d="M 418.4,154.6 L 421.2,154.4" style="fill:none;fill-rule:evenodd;stroke:#000000;stroke-width:1.0px;stroke-linecap:butt;stroke-linejoin:miter;stroke-opacity:1"/>
<path class="bond-6 atom-7 atom-4" d="M 418.4,158.1 L 421.7,157.8" style="fill:none;fill-rule:evenodd;stroke:#000000;stroke-width:1.0px;stroke-linecap:butt;stroke-linejoin:miter;stroke-opacity:1"/>
<path class="bond-6 atom-7 atom-4" d="M 418.4,161.5 L 422.3,161.3" style="fill:none;fill-rule:evenodd;stroke:#000000;stroke-width:1.0px;stroke-linecap:butt;stroke-linejoin:miter;stroke-opacity:1"/>
<path class="bond-6 atom-7 atom-4" d="M 418.4,165.0 L 422.8,164.7" style="fill:none;fill-rule:evenodd;stroke:#000000;stroke-width:1.0px;stroke-linecap:butt;stroke-linejoin:miter;stroke-opacity:1"/>
<path class="bond-6 atom-7 atom-4" d="M 418.4,168.5 L 423.3,168.1" style="fill:none;fill-rule:evenodd;stroke:#000000;stroke-width:1.0px;stroke-linecap:butt;stroke-linejoin:miter;stroke-opacity:1"/>
<path class="bond-6 atom-7 atom-4" d="M 418.4,171.9 L 423.9,171.5" style="fill:none;fill-rule:evenodd;stroke:#000000;stroke-width:1.0px;stroke-linecap:butt;stroke-linejoin:miter;stroke-opacity:1"/>
<path class="bond-6 atom-7 atom-4" d="M 418.3,175.4 L 424.4,175.0" style="fill:none;fill-rule:evenodd;stroke:#000000;stroke-width:1.0px;stroke-linecap:butt;stroke-linejoin:miter;stroke-opacity:1"/>
<path class="bond-6 atom-7 atom-4" d="M 418.3,178.9 L 424.9,178.4" style="fill:none;fill-rule:evenodd;stroke:#000000;stroke-width:1.0px;stroke-linecap:butt;stroke-linejoin:miter;stroke-opacity:1"/>
<path class="bond-6 atom-7 atom-4" d="M 418.3,182.3 L 425.5,181.8" style="fill:none;fill-rule:evenodd;stroke:#000000;stroke-width:1.0px;stroke-linecap:butt;stroke-linejoin:miter;stroke-opacity:1"/>
<path class="bond-6 atom-7 atom-4" d="M 418.3,185.8 L 426.0,185.2" style="fill:none;fill-rule:evenodd;stroke:#000000;stroke-width:1.0px;stroke-linecap:butt;stroke-linejoin:miter;stroke-opacity:1"/>
<path class="bond-6 atom-7 atom-4" d="M 418.3,189.3 L 426.5,188.7" style="fill:none;fill-rule:evenodd;stroke:#000000;stroke-width:1.0px;stroke-linecap:butt;stroke-linejoin:miter;stroke-opacity:1"/>
<path class="bond-6 atom-7 atom-4" d="M 418.3,192.8 L 427.1,192.1" style="fill:none;fill-rule:evenodd;stroke:#000000;stroke-width:1.0px;stroke-linecap:butt;stroke-linejoin:miter;stroke-opacity:1"/>
<path class="bond-7 atom-7 atom-8" d="M 418.5,137.3 L 467.1,104.1" style="fill:none;fill-rule:evenodd;stroke:#000000;stroke-width:2.0px;stroke-linecap:butt;stroke-linejoin:miter;stroke-opacity:1"/>
<path class="bond-8 atom-8 atom-9" d="M 467.1,104.1 L 463.4,55.8" style="fill:none;fill-rule:evenodd;stroke:#000000;stroke-width:2.0px;stroke-linecap:butt;stroke-linejoin:miter;stroke-opacity:1"/>
<path class="bond-9 atom-9 atom-10" d="M 454.4,41.6 L 409.7,20.1" style="fill:none;fill-rule:evenodd;stroke:#000000;stroke-width:2.0px;stroke-linecap:butt;stroke-linejoin:miter;stroke-opacity:1"/>
<path class="bond-10 atom-10 atom-11" d="M 409.7,20.1 L 361.1,53.2" style="fill:none;fill-rule:evenodd;stroke:#000000;stroke-width:2.0px;stroke-linecap:butt;stroke-linejoin:miter;stroke-opacity:1"/>
<path class="bond-11 atom-11 atom-12" d="M 361.1,53.2 L 365.6,111.8" style="fill:none;fill-rule:evenodd;stroke:#000000;stroke-width:2.0px;stroke-linecap:butt;stroke-linejoin:miter;stroke-opacity:1"/>
<path class="bond-12 atom-12 atom-13" d="M 365.6,111.8 L 321.4,147.0 L 312.2,142.6 Z" style="fill:#000000;fill-rule:evenodd;fill-opacity:1;stroke:#000000;stroke-width:0.5px;stroke-linecap:butt;stroke-linejoin:miter;stroke-miterlimit:10;stroke-opacity:1;"/>
<path class="bond-13 atom-13 atom-14" d="M 321.4,147.0 L 273.6,124.0" style="fill:none;fill-rule:evenodd;stroke:#000000;stroke-width:2.0px;stroke-linecap:butt;stroke-linejoin:miter;stroke-opacity:1"/>
<path class="bond-14 atom-14 atom-15" d="M 254.5,126.0 L 215.5,152.6" style="fill:none;fill-rule:evenodd;stroke:#000000;stroke-width:2.0px;stroke-linecap:butt;stroke-linejoin:miter;stroke-opacity:1"/>
<path class="bond-15 atom-15 atom-16" d="M 215.5,152.6 L 162.5,127.1" style="fill:none;fill-rule:evenodd;stroke:#000000;stroke-width:2.0px;stroke-linecap:butt;stroke-linejoin:miter;stroke-opacity:1"/>
<path class="bond-15 atom-15 atom-16" d="M 207.1,158.3 L 163.3,137.2" style="fill:none;fill-rule:evenodd;stroke:#000000;stroke-width:2.0px;stroke-linecap:butt;stroke-linejoin:miter;stroke-opacity:1"/>
<path class="bond-16 atom-16 atom-17" d="M 162.5,127.1 L 114.0,160.2" style="fill:none;fill-rule:evenodd;stroke:#000000;stroke-width:2.0px;stroke-linecap:butt;stroke-linejoin:miter;stroke-opacity:1"/>
<path class="bond-17 atom-17 atom-18" d="M 114.0,160.2 L 118.4,218.8" style="fill:none;fill-rule:evenodd;stroke:#000000;stroke-width:2.0px;stroke-linecap:butt;stroke-linejoin:miter;stroke-opacity:1"/>
<path class="bond-17 atom-17 atom-18" d="M 123.1,164.6 L 126.8,213.1" style="fill:none;fill-rule:evenodd;stroke:#000000;stroke-width:2.0px;stroke-linecap:butt;stroke-linejoin:miter;stroke-opacity:1"/>
<path class="bond-18 atom-18 atom-19" d="M 118.4,218.8 L 73.6,237.2" style="fill:none;fill-rule:evenodd;stroke:#000000;stroke-width:2.0px;stroke-linecap:butt;stroke-linejoin:miter;stroke-opacity:1"/>
<path class="bond-19 atom-19 atom-20" d="M 55.2,230.8 L 26.0,196.3" style="fill:none;fill-rule:evenodd;stroke:#000000;stroke-width:2.0px;stroke-linecap:butt;stroke-linejoin:miter;stroke-opacity:1"/>
<path class="bond-20 atom-20 atom-21" d="M 26.0,196.3 L 50.3,156.9" style="fill:none;fill-rule:evenodd;stroke:#000000;stroke-width:2.0px;stroke-linecap:butt;stroke-linejoin:miter;stroke-opacity:1"/>
<path class="bond-21 atom-18 atom-22" d="M 118.4,218.8 L 171.3,244.3" style="fill:none;fill-rule:evenodd;stroke:#000000;stroke-width:2.0px;stroke-linecap:butt;stroke-linejoin:miter;stroke-opacity:1"/>
<path class="bond-22 atom-22 atom-23" d="M 171.3,244.3 L 219.9,211.2" style="fill:none;fill-rule:evenodd;stroke:#000000;stroke-width:2.0px;stroke-linecap:butt;stroke-linejoin:miter;stroke-opacity:1"/>
<path class="bond-22 atom-22 atom-23" d="M 170.6,234.1 L 210.7,206.8" style="fill:none;fill-rule:evenodd;stroke:#000000;stroke-width:2.0px;stroke-linecap:butt;stroke-linejoin:miter;stroke-opacity:1"/>
<path class="bond-23 atom-6 atom-1" d="M 480.3,280.0 L 431.7,313.1" style="fill:none;fill-rule:evenodd;stroke:#000000;stroke-width:2.0px;stroke-linecap:butt;stroke-linejoin:miter;stroke-opacity:1"/>
<path class="bond-23 atom-6 atom-1" d="M 471.1,275.6 L 431.0,303.0" style="fill:none;fill-rule:evenodd;stroke:#000000;stroke-width:2.0px;stroke-linecap:butt;stroke-linejoin:miter;stroke-opacity:1"/>
<path class="bond-24 atom-12 atom-7" d="M 365.6,111.8 L 418.5,137.3" style="fill:none;fill-rule:evenodd;stroke:#000000;stroke-width:2.0px;stroke-linecap:butt;stroke-linejoin:miter;stroke-opacity:1"/>
<path class="bond-25 atom-23 atom-15" d="M 219.9,211.2 L 215.5,152.6" style="fill:none;fill-rule:evenodd;stroke:#000000;stroke-width:2.0px;stroke-linecap:butt;stroke-linejoin:miter;stroke-opacity:1"/>
<path class="bond-26 atom-21 atom-17" d="M 66.4,148.6 L 114.0,160.2" style="fill:none;fill-rule:evenodd;stroke:#000000;stroke-width:2.0px;stroke-linecap:butt;stroke-linejoin:miter;stroke-opacity:1"/>
<path d="M 381.4,288.9 L 378.8,287.6 L 378.6,284.7" style="fill:none;stroke:#000000;stroke-width:2.0px;stroke-linecap:butt;stroke-linejoin:miter;stroke-miterlimit:10;stroke-opacity:1;"/>
<path d="M 374.6,231.9 L 374.4,229.0 L 376.8,227.4" style="fill:none;stroke:#000000;stroke-width:2.0px;stroke-linecap:butt;stroke-linejoin:miter;stroke-miterlimit:10;stroke-opacity:1;"/>
<path d="M 420.5,197.5 L 422.9,195.9 L 425.6,197.2" style="fill:none;stroke:#000000;stroke-width:2.0px;stroke-linecap:butt;stroke-linejoin:miter;stroke-miterlimit:10;stroke-opacity:1;"/>
<path d="M 473.2,220.1 L 475.9,221.4 L 476.1,224.3" style="fill:none;stroke:#000000;stroke-width:2.0px;stroke-linecap:butt;stroke-linejoin:miter;stroke-miterlimit:10;stroke-opacity:1;"/>
<path d="M 480.1,277.1 L 480.3,280.0 L 477.9,281.6" style="fill:none;stroke:#000000;stroke-width:2.0px;stroke-linecap:butt;stroke-linejoin:miter;stroke-miterlimit:10;stroke-opacity:1;"/>
<path d="M 420.9,135.6 L 418.5,137.3 L 415.9,136.0" style="fill:none;stroke:#000000;stroke-width:2.0px;stroke-linecap:butt;stroke-linejoin:miter;stroke-miterlimit:10;stroke-opacity:1;"/>
<path d="M 464.6,105.8 L 467.1,104.1 L 466.9,101.7" style="fill:none;stroke:#000000;stroke-width:2.0px;stroke-linecap:butt;stroke-linejoin:miter;stroke-miterlimit:10;stroke-opacity:1;"/>
<path d="M 411.9,21.1 L 409.7,20.1 L 407.3,21.7" style="fill:none;stroke:#000000;stroke-width:2.0px;stroke-linecap:butt;stroke-linejoin:miter;stroke-miterlimit:10;stroke-opacity:1;"/>
<path d="M 363.6,51.5 L 361.1,53.2 L 361.4,56.1" style="fill:none;stroke:#000000;stroke-width:2.0px;stroke-linecap:butt;stroke-linejoin:miter;stroke-miterlimit:10;stroke-opacity:1;"/>
<path d="M 365.3,108.9 L 365.6,111.8 L 368.2,113.1" style="fill:none;stroke:#000000;stroke-width:2.0px;stroke-linecap:butt;stroke-linejoin:miter;stroke-miterlimit:10;stroke-opacity:1;"/>
<path d="M 165.2,128.3 L 162.5,127.1 L 160.1,128.7" style="fill:none;stroke:#000000;stroke-width:2.0px;stroke-linecap:butt;stroke-linejoin:miter;stroke-miterlimit:10;stroke-opacity:1;"/>
<path d="M 27.4,198.0 L 26.0,196.3 L 27.2,194.3" style="fill:none;stroke:#000000;stroke-width:2.0px;stroke-linecap:butt;stroke-linejoin:miter;stroke-miterlimit:10;stroke-opacity:1;"/>
<path d="M 168.7,243.0 L 171.3,244.3 L 173.8,242.6" style="fill:none;stroke:#000000;stroke-width:2.0px;stroke-linecap:butt;stroke-linejoin:miter;stroke-miterlimit:10;stroke-opacity:1;"/>
<path d="M 217.5,212.8 L 219.9,211.2 L 219.7,208.2" style="fill:none;stroke:#000000;stroke-width:2.0px;stroke-linecap:butt;stroke-linejoin:miter;stroke-miterlimit:10;stroke-opacity:1;"/>
<path class="atom-0" d="M 431.2 363.4 L 441.1 363.4 L 441.1 365.3 L 433.4 365.3 L 433.4 370.4 L 440.3 370.4 L 440.3 372.3 L 433.4 372.3 L 433.4 380.1 L 431.2 380.1 L 431.2 363.4 " fill="#000000"/>
<path class="atom-9" d="M 459.0 37.2 L 464.4 46.0 Q 465.0 46.9, 465.8 48.5 Q 466.7 50.1, 466.8 50.1 L 466.8 37.2 L 469.0 37.2 L 469.0 53.9 L 466.7 53.9 L 460.8 44.2 Q 460.2 43.1, 459.4 41.8 Q 458.7 40.5, 458.5 40.1 L 458.5 53.9 L 456.3 53.9 L 456.3 37.2 L 459.0 37.2 " fill="#000000"/>
<path class="atom-9" d="M 472.2 37.2 L 474.5 37.2 L 474.5 44.3 L 483.0 44.3 L 483.0 37.2 L 485.2 37.2 L 485.2 53.9 L 483.0 53.9 L 483.0 46.2 L 474.5 46.2 L 474.5 53.9 L 472.2 53.9 L 472.2 37.2 " fill="#000000"/>
<path class="atom-14" d="M 256.4 119.5 Q 256.4 115.5, 258.4 113.2 Q 260.3 111.0, 264.0 111.0 Q 267.7 111.0, 269.7 113.2 Q 271.7 115.5, 271.7 119.5 Q 271.7 123.5, 269.7 125.8 Q 267.7 128.1, 264.0 128.1 Q 260.4 128.1, 258.4 125.8 Q 256.4 123.5, 256.4 119.5 M 264.0 126.2 Q 266.6 126.2, 267.9 124.5 Q 269.3 122.8, 269.3 119.5 Q 269.3 116.2, 267.9 114.6 Q 266.6 112.9, 264.0 112.9 Q 261.5 112.9, 260.1 114.5 Q 258.7 116.2, 258.7 119.5 Q 258.7 122.8, 260.1 124.5 Q 261.5 126.2, 264.0 126.2 " fill="#000000"/>
<path class="atom-19" d="M 56.3 241.2 Q 56.3 237.2, 58.3 234.9 Q 60.3 232.7, 64.0 232.7 Q 67.7 232.7, 69.7 234.9 Q 71.6 237.2, 71.6 241.2 Q 71.6 245.2, 69.6 247.5 Q 67.6 249.8, 64.0 249.8 Q 60.3 249.8, 58.3 247.5 Q 56.3 245.2, 56.3 241.2 M 64.0 247.9 Q 66.5 247.9, 67.9 246.2 Q 69.3 244.5, 69.3 241.2 Q 69.3 237.9, 67.9 236.2 Q 66.5 234.6, 64.0 234.6 Q 61.4 234.6, 60.1 236.2 Q 58.7 237.9, 58.7 241.2 Q 58.7 244.5, 60.1 246.2 Q 61.4 247.9, 64.0 247.9 " fill="#000000"/>
<path class="atom-21" d="M 49.2 146.3 Q 49.2 142.3, 51.2 140.1 Q 53.2 137.9, 56.8 137.9 Q 60.5 137.9, 62.5 140.1 Q 64.5 142.3, 64.5 146.3 Q 64.5 150.4, 62.5 152.7 Q 60.5 155.0, 56.8 155.0 Q 53.2 155.0, 51.2 152.7 Q 49.2 150.4, 49.2 146.3 M 56.8 153.1 Q 59.4 153.1, 60.8 151.4 Q 62.1 149.7, 62.1 146.3 Q 62.1 143.1, 60.8 141.4 Q 59.4 139.7, 56.8 139.7 Q 54.3 139.7, 52.9 141.4 Q 51.6 143.0, 51.6 146.3 Q 51.6 149.7, 52.9 151.4 Q 54.3 153.1, 56.8 153.1 " fill="#000000"/>
</svg>