<?xml version='1.0' encoding='utf-8'?>
<svg xmlns="http://www.w3.org/2000/svg" xmlns:rdkit="http://www.rdkit.org/xml" xmlns:xlink="http://www.w3.org/1999/xlink" version="1.1" baseProfile="full" xml:space="preserve" width="512px" height="429px" viewBox="0 0 512 429">

<rect style="opacity:1.0;fill:#FFFFFF;stroke:none" width="512.0" height="429.0" x="0.0" y="0.0"> </rect>
<path class="bond-0 atom-0 atom-1" d="M 53.9,357.6 L 227.4,257.4" style="fill:none;fill-rule:evenodd;stroke:#000000;stroke-width:2.0px;stroke-linecap:butt;stroke-linejoin:miter;stroke-opacity:1"/>
<path class="bond-1 atom-1 atom-2" d="M 227.4,257.4 L 383.6,347.6" style="fill:none;fill-rule:evenodd;stroke:#000000;stroke-width:2.0px;stroke-linecap:butt;stroke-linejoin:miter;stroke-opacity:1"/>
<path class="bond-2 atom-1 atom-3" d="M 242.4,266.1 L 242.4,78.6" style="fill:none;fill-rule:evenodd;stroke:#000000;stroke-width:2.0px;stroke-linecap:butt;stroke-linejoin:miter;stroke-opacity:1"/>
<path class="bond-2 atom-1 atom-3" d="M 212.4,266.1 L 212.4,78.6" style="fill:none;fill-rule:evenodd;stroke:#000000;stroke-width:2.0px;stroke-linecap:butt;stroke-linejoin:miter;stroke-opacity:1"/>
<path d="M 218.7,262.4 L 227.4,257.4 L 235.2,261.9" style="fill:none;stroke:#000000;stroke-width:2.0px;stroke-linecap:butt;stroke-linejoin:miter;stroke-miterlimit:10;stroke-opacity:1;"/>
<path class="atom-2" d="M 394.7 343.5 L 403.9 358.5 Q 404.9 359.9, 406.3 362.6 Q 407.8 365.3, 407.9 365.5 L 407.9 343.5 L 411.7 343.5 L 411.7 371.8 L 407.8 371.8 L 397.8 355.4 Q 396.7 353.5, 395.4 351.3 Q 394.2 349.1, 393.9 348.4 L 393.9 371.8 L 390.2 371.8 L 390.2 343.5 L 394.7 343.5 " fill="#000000"/>
<path class="atom-2" d="M 417.1 343.5 L 420.9 343.5 L 420.9 355.5 L 435.4 355.5 L 435.4 343.5 L 439.2 343.5 L 439.2 371.8 L 435.4 371.8 L 435.4 358.7 L 420.9 358.7 L 420.9 371.8 L 417.1 371.8 L 417.1 343.5 " fill="#000000"/>
<path class="atom-2" d="M 444.8 370.8 Q 445.5 369.0, 447.1 368.0 Q 448.7 367.0, 451.0 367.0 Q 453.8 367.0, 455.4 368.6 Q 457.0 370.1, 457.0 372.8 Q 457.0 375.6, 454.9 378.2 Q 452.9 380.8, 448.7 383.8 L 457.3 383.8 L 457.3 385.9 L 444.7 385.9 L 444.7 384.2 Q 448.2 381.7, 450.3 379.8 Q 452.3 378.0, 453.3 376.3 Q 454.3 374.7, 454.3 372.9 Q 454.3 371.1, 453.5 370.1 Q 452.6 369.1, 451.0 369.1 Q 449.5 369.1, 448.5 369.7 Q 447.5 370.4, 446.8 371.7 L 444.8 370.8 " fill="#000000"/>
<path class="atom-3" d="M 219.4 66.8 Q 219.7 66.9, 221.0 67.5 Q 222.4 68.0, 223.8 68.4 Q 225.3 68.7, 226.7 68.7 Q 229.4 68.7, 231.0 67.4 Q 232.5 66.1, 232.5 63.8 Q 232.5 62.3, 231.7 61.3 Q 231.0 60.4, 229.8 59.8 Q 228.6 59.3, 226.6 58.7 Q 224.0 58.0, 222.5 57.2 Q 221.0 56.5, 220.0 55.0 Q 218.9 53.5, 218.9 50.9 Q 218.9 47.4, 221.3 45.2 Q 223.8 43.0, 228.6 43.0 Q 231.8 43.0, 235.6 44.5 L 234.6 47.6 Q 231.2 46.2, 228.7 46.2 Q 225.9 46.2, 224.4 47.4 Q 222.9 48.5, 222.9 50.4 Q 222.9 52.0, 223.7 52.9 Q 224.5 53.8, 225.6 54.3 Q 226.8 54.8, 228.7 55.4 Q 231.2 56.2, 232.8 57.0 Q 234.3 57.8, 235.4 59.5 Q 236.5 61.1, 236.5 63.8 Q 236.5 67.8, 233.8 69.9 Q 231.2 72.0, 226.9 72.0 Q 224.4 72.0, 222.4 71.4 Q 220.6 70.9, 218.3 70.0 L 219.4 66.8 " fill="#000000"/>
</svg>