<?xml version='1.0' encoding='utf-8'?>
<svg xmlns="http://www.w3.org/2000/svg" xmlns:rdkit="http://www.rdkit.org/xml" xmlns:xlink="http://www.w3.org/1999/xlink" version="1.1" baseProfile="full" xml:space="preserve" width="512px" height="402px" viewBox="0 0 512 402">

<rect style="opacity:1.0;fill:#FFFFFF;stroke:none" width="512.0" height="402.0" x="0.0" y="0.0"> </rect>
<path class="bond-0 atom-0 atom-1" d="M 25.8,63.0 L 82.6,72.7" style="fill:none;fill-rule:evenodd;stroke:#000000;stroke-width:2.0px;stroke-linecap:butt;stroke-linejoin:miter;stroke-opacity:1"/>
<path class="bond-1 atom-1 atom-2" d="M 84.4,77.4 L 114.1,41.5" style="fill:none;fill-rule:evenodd;stroke:#000000;stroke-width:2.0px;stroke-linecap:butt;stroke-linejoin:miter;stroke-opacity:1"/>
<path class="bond-1 atom-1 atom-2" d="M 77.7,71.8 L 107.5,36.0" style="fill:none;fill-rule:evenodd;stroke:#000000;stroke-width:2.0px;stroke-linecap:butt;stroke-linejoin:miter;stroke-opacity:1"/>
<path class="bond-2 atom-1 atom-3" d="M 82.6,72.7 L 98.9,116.6" style="fill:none;fill-rule:evenodd;stroke:#000000;stroke-width:2.0px;stroke-linecap:butt;stroke-linejoin:miter;stroke-opacity:1"/>
<path class="bond-3 atom-4 atom-3" d="M 159.4,136.4 L 111.9,132.7 L 113.3,124.2 Z" style="fill:#000000;fill-rule:evenodd;fill-opacity:1;stroke:#000000;stroke-width:0.5px;stroke-linecap:butt;stroke-linejoin:miter;stroke-miterlimit:10;stroke-opacity:1;"/>
<path class="bond-4 atom-4 atom-5" d="M 159.4,136.4 L 192.8,89.5" style="fill:none;fill-rule:evenodd;stroke:#000000;stroke-width:2.0px;stroke-linecap:butt;stroke-linejoin:miter;stroke-opacity:1"/>
<path class="bond-5 atom-5 atom-6" d="M 192.8,89.5 L 250.3,86.3" style="fill:none;fill-rule:evenodd;stroke:#000000;stroke-width:2.0px;stroke-linecap:butt;stroke-linejoin:miter;stroke-opacity:1"/>
<path class="bond-6 atom-6 atom-7" d="M 250.3,86.3 L 288.6,129.3" style="fill:none;fill-rule:evenodd;stroke:#000000;stroke-width:2.0px;stroke-linecap:butt;stroke-linejoin:miter;stroke-opacity:1"/>
<path class="bond-7 atom-7 atom-8" d="M 288.6,129.3 L 342.7,109.3" style="fill:none;fill-rule:evenodd;stroke:#000000;stroke-width:2.0px;stroke-linecap:butt;stroke-linejoin:miter;stroke-opacity:1"/>
<path class="bond-7 atom-7 atom-8" d="M 296.3,135.7 L 341.0,119.2" style="fill:none;fill-rule:evenodd;stroke:#000000;stroke-width:2.0px;stroke-linecap:butt;stroke-linejoin:miter;stroke-opacity:1"/>
<path class="bond-8 atom-8 atom-9" d="M 342.7,109.3 L 387.0,146.1" style="fill:none;fill-rule:evenodd;stroke:#000000;stroke-width:2.0px;stroke-linecap:butt;stroke-linejoin:miter;stroke-opacity:1"/>
<path class="bond-9 atom-9 atom-10" d="M 387.0,146.1 L 377.3,202.9" style="fill:none;fill-rule:evenodd;stroke:#000000;stroke-width:2.0px;stroke-linecap:butt;stroke-linejoin:miter;stroke-opacity:1"/>
<path class="bond-9 atom-9 atom-10" d="M 377.6,149.6 L 369.6,196.5" style="fill:none;fill-rule:evenodd;stroke:#000000;stroke-width:2.0px;stroke-linecap:butt;stroke-linejoin:miter;stroke-opacity:1"/>
<path class="bond-10 atom-10 atom-11" d="M 377.3,202.9 L 323.3,222.9" style="fill:none;fill-rule:evenodd;stroke:#000000;stroke-width:2.0px;stroke-linecap:butt;stroke-linejoin:miter;stroke-opacity:1"/>
<path class="bond-11 atom-11 atom-12" d="M 323.3,222.9 L 278.9,186.1" style="fill:none;fill-rule:evenodd;stroke:#000000;stroke-width:2.0px;stroke-linecap:butt;stroke-linejoin:miter;stroke-opacity:1"/>
<path class="bond-11 atom-11 atom-12" d="M 324.9,213.1 L 288.3,182.6" style="fill:none;fill-rule:evenodd;stroke:#000000;stroke-width:2.0px;stroke-linecap:butt;stroke-linejoin:miter;stroke-opacity:1"/>
<path class="bond-12 atom-12 atom-13" d="M 278.9,186.1 L 228.5,213.9" style="fill:none;fill-rule:evenodd;stroke:#000000;stroke-width:2.0px;stroke-linecap:butt;stroke-linejoin:miter;stroke-opacity:1"/>
<path class="bond-13 atom-13 atom-14" d="M 228.5,213.9 L 244.4,269.3" style="fill:none;fill-rule:evenodd;stroke:#000000;stroke-width:2.0px;stroke-linecap:butt;stroke-linejoin:miter;stroke-opacity:1"/>
<path class="bond-13 atom-13 atom-14" d="M 221.3,220.3 L 234.9,267.7" style="fill:none;fill-rule:evenodd;stroke:#000000;stroke-width:2.0px;stroke-linecap:butt;stroke-linejoin:miter;stroke-opacity:1"/>
<path class="bond-14 atom-14 atom-15" d="M 244.4,269.3 L 211.0,316.2" style="fill:none;fill-rule:evenodd;stroke:#000000;stroke-width:2.0px;stroke-linecap:butt;stroke-linejoin:miter;stroke-opacity:1"/>
<path class="bond-15 atom-15 atom-16" d="M 211.0,316.2 L 153.5,319.4" style="fill:none;fill-rule:evenodd;stroke:#000000;stroke-width:2.0px;stroke-linecap:butt;stroke-linejoin:miter;stroke-opacity:1"/>
<path class="bond-15 atom-15 atom-16" d="M 206.4,307.8 L 157.1,310.5" style="fill:none;fill-rule:evenodd;stroke:#000000;stroke-width:2.0px;stroke-linecap:butt;stroke-linejoin:miter;stroke-opacity:1"/>
<path class="bond-16 atom-16 atom-17" d="M 153.5,319.4 L 115.1,276.4" style="fill:none;fill-rule:evenodd;stroke:#000000;stroke-width:2.0px;stroke-linecap:butt;stroke-linejoin:miter;stroke-opacity:1"/>
<path class="bond-17 atom-17 atom-18" d="M 115.9,271.7 L 67.9,285.4" style="fill:none;fill-rule:evenodd;stroke:#000000;stroke-width:2.0px;stroke-linecap:butt;stroke-linejoin:miter;stroke-opacity:1"/>
<path class="bond-17 atom-17 atom-18" d="M 118.3,280.0 L 70.3,293.7" style="fill:none;fill-rule:evenodd;stroke:#000000;stroke-width:2.0px;stroke-linecap:butt;stroke-linejoin:miter;stroke-opacity:1"/>
<path class="bond-18 atom-17 atom-19" d="M 115.1,276.4 L 124.8,219.6" style="fill:none;fill-rule:evenodd;stroke:#000000;stroke-width:2.0px;stroke-linecap:butt;stroke-linejoin:miter;stroke-opacity:1"/>
<path class="bond-19 atom-19 atom-20" d="M 124.8,219.6 L 175.3,191.8" style="fill:none;fill-rule:evenodd;stroke:#000000;stroke-width:2.0px;stroke-linecap:butt;stroke-linejoin:miter;stroke-opacity:1"/>
<path class="bond-19 atom-19 atom-20" d="M 132.6,225.2 L 175.8,201.4" style="fill:none;fill-rule:evenodd;stroke:#000000;stroke-width:2.0px;stroke-linecap:butt;stroke-linejoin:miter;stroke-opacity:1"/>
<path class="bond-20 atom-16 atom-21" d="M 153.5,319.4 L 135.6,362.4" style="fill:none;fill-rule:evenodd;stroke:#000000;stroke-width:2.0px;stroke-linecap:butt;stroke-linejoin:miter;stroke-opacity:1"/>
<path class="bond-21 atom-21 atom-22" d="M 122.0,373.8 L 74.2,380.1" style="fill:none;fill-rule:evenodd;stroke:#000000;stroke-width:2.0px;stroke-linecap:butt;stroke-linejoin:miter;stroke-opacity:1"/>
<path class="bond-22 atom-11 atom-23" d="M 323.3,222.9 L 315.3,269.5" style="fill:none;fill-rule:evenodd;stroke:#000000;stroke-width:2.0px;stroke-linecap:butt;stroke-linejoin:miter;stroke-opacity:1"/>
<path class="bond-23 atom-23 atom-24" d="M 322.9,287.5 L 357.9,316.5" style="fill:none;fill-rule:evenodd;stroke:#000000;stroke-width:2.0px;stroke-linecap:butt;stroke-linejoin:miter;stroke-opacity:1"/>
<path class="bond-24 atom-10 atom-25" d="M 377.3,202.9 L 412.2,231.9" style="fill:none;fill-rule:evenodd;stroke:#000000;stroke-width:2.0px;stroke-linecap:butt;stroke-linejoin:miter;stroke-opacity:1"/>
<path class="bond-25 atom-25 atom-26" d="M 419.8,250.1 L 411.9,296.5" style="fill:none;fill-rule:evenodd;stroke:#000000;stroke-width:2.0px;stroke-linecap:butt;stroke-linejoin:miter;stroke-opacity:1"/>
<path class="bond-26 atom-9 atom-27" d="M 387.0,146.1 L 431.7,129.6" style="fill:none;fill-rule:evenodd;stroke:#000000;stroke-width:2.0px;stroke-linecap:butt;stroke-linejoin:miter;stroke-opacity:1"/>
<path class="bond-27 atom-27 atom-28" d="M 450.4,133.9 L 485.4,162.9" style="fill:none;fill-rule:evenodd;stroke:#000000;stroke-width:2.0px;stroke-linecap:butt;stroke-linejoin:miter;stroke-opacity:1"/>
<path class="bond-28 atom-20 atom-4" d="M 175.3,191.8 L 159.4,136.4" style="fill:none;fill-rule:evenodd;stroke:#000000;stroke-width:2.0px;stroke-linecap:butt;stroke-linejoin:miter;stroke-opacity:1"/>
<path class="bond-29 atom-12 atom-7" d="M 278.9,186.1 L 288.6,129.3" style="fill:none;fill-rule:evenodd;stroke:#000000;stroke-width:2.0px;stroke-linecap:butt;stroke-linejoin:miter;stroke-opacity:1"/>
<path class="bond-30 atom-20 atom-13" d="M 175.3,191.8 L 228.5,213.9" style="fill:none;fill-rule:evenodd;stroke:#000000;stroke-width:2.0px;stroke-linecap:butt;stroke-linejoin:miter;stroke-opacity:1"/>
<path d="M 79.8,72.2 L 82.6,72.7 L 83.4,74.9" style="fill:none;stroke:#000000;stroke-width:2.0px;stroke-linecap:butt;stroke-linejoin:miter;stroke-miterlimit:10;stroke-opacity:1;"/>
<path d="M 161.1,134.1 L 159.4,136.4 L 160.2,139.2" style="fill:none;stroke:#000000;stroke-width:2.0px;stroke-linecap:butt;stroke-linejoin:miter;stroke-miterlimit:10;stroke-opacity:1;"/>
<path d="M 191.1,91.8 L 192.8,89.5 L 195.7,89.3" style="fill:none;stroke:#000000;stroke-width:2.0px;stroke-linecap:butt;stroke-linejoin:miter;stroke-miterlimit:10;stroke-opacity:1;"/>
<path d="M 247.4,86.5 L 250.3,86.3 L 252.2,88.4" style="fill:none;stroke:#000000;stroke-width:2.0px;stroke-linecap:butt;stroke-linejoin:miter;stroke-miterlimit:10;stroke-opacity:1;"/>
<path d="M 340.0,110.3 L 342.7,109.3 L 344.9,111.2" style="fill:none;stroke:#000000;stroke-width:2.0px;stroke-linecap:butt;stroke-linejoin:miter;stroke-miterlimit:10;stroke-opacity:1;"/>
<path d="M 243.6,266.5 L 244.4,269.3 L 242.7,271.6" style="fill:none;stroke:#000000;stroke-width:2.0px;stroke-linecap:butt;stroke-linejoin:miter;stroke-miterlimit:10;stroke-opacity:1;"/>
<path d="M 212.7,313.9 L 211.0,316.2 L 208.1,316.4" style="fill:none;stroke:#000000;stroke-width:2.0px;stroke-linecap:butt;stroke-linejoin:miter;stroke-miterlimit:10;stroke-opacity:1;"/>
<path d="M 117.0,278.5 L 115.1,276.4 L 115.6,273.6" style="fill:none;stroke:#000000;stroke-width:2.0px;stroke-linecap:butt;stroke-linejoin:miter;stroke-miterlimit:10;stroke-opacity:1;"/>
<path d="M 124.3,222.4 L 124.8,219.6 L 127.4,218.2" style="fill:none;stroke:#000000;stroke-width:2.0px;stroke-linecap:butt;stroke-linejoin:miter;stroke-miterlimit:10;stroke-opacity:1;"/>
<path class="atom-2" d="M 111.9 28.4 Q 111.9 24.5, 113.9 22.3 Q 115.8 20.1, 119.4 20.1 Q 123.0 20.1, 125.0 22.3 Q 126.9 24.5, 126.9 28.4 Q 126.9 32.4, 125.0 34.6 Q 123.0 36.9, 119.4 36.9 Q 115.8 36.9, 113.9 34.6 Q 111.9 32.4, 111.9 28.4 M 119.4 35.0 Q 121.9 35.0, 123.3 33.4 Q 124.6 31.7, 124.6 28.4 Q 124.6 25.2, 123.3 23.6 Q 121.9 21.9, 119.4 21.9 Q 116.9 21.9, 115.6 23.6 Q 114.2 25.2, 114.2 28.4 Q 114.2 31.7, 115.6 33.4 Q 116.9 35.0, 119.4 35.0 " fill="#000000"/>
<path class="atom-3" d="M 80.4 118.5 L 82.6 118.5 L 82.6 125.5 L 91.0 125.5 L 91.0 118.5 L 93.2 118.5 L 93.2 134.9 L 91.0 134.9 L 91.0 127.3 L 82.6 127.3 L 82.6 134.9 L 80.4 134.9 L 80.4 118.5 " fill="#000000"/>
<path class="atom-3" d="M 99.0 118.5 L 104.3 127.2 Q 104.9 128.0, 105.7 129.6 Q 106.6 131.1, 106.6 131.2 L 106.6 118.5 L 108.8 118.5 L 108.8 134.9 L 106.6 134.9 L 100.8 125.4 Q 100.2 124.3, 99.4 123.0 Q 98.7 121.8, 98.5 121.4 L 98.5 134.9 L 96.4 134.9 L 96.4 118.5 L 99.0 118.5 " fill="#000000"/>
<path class="atom-18" d="M 52.3 292.3 Q 52.3 288.4, 54.2 286.2 Q 56.1 284.0, 59.7 284.0 Q 63.4 284.0, 65.3 286.2 Q 67.2 288.4, 67.2 292.3 Q 67.2 296.3, 65.3 298.6 Q 63.3 300.8, 59.7 300.8 Q 56.1 300.8, 54.2 298.6 Q 52.3 296.3, 52.3 292.3 M 59.7 298.9 Q 62.2 298.9, 63.6 297.3 Q 64.9 295.6, 64.9 292.3 Q 64.9 289.1, 63.6 287.5 Q 62.2 285.9, 59.7 285.9 Q 57.3 285.9, 55.9 287.5 Q 54.6 289.1, 54.6 292.3 Q 54.6 295.6, 55.9 297.3 Q 57.3 298.9, 59.7 298.9 " fill="#000000"/>
<path class="atom-21" d="M 123.9 372.6 Q 123.9 368.7, 125.8 366.5 Q 127.7 364.3, 131.4 364.3 Q 135.0 364.3, 136.9 366.5 Q 138.8 368.7, 138.8 372.6 Q 138.8 376.6, 136.9 378.9 Q 134.9 381.1, 131.4 381.1 Q 127.8 381.1, 125.8 378.9 Q 123.9 376.6, 123.9 372.6 M 131.4 379.3 Q 133.8 379.3, 135.2 377.6 Q 136.5 375.9, 136.5 372.6 Q 136.5 369.4, 135.2 367.8 Q 133.8 366.2, 131.4 366.2 Q 128.9 366.2, 127.5 367.8 Q 126.2 369.4, 126.2 372.6 Q 126.2 375.9, 127.5 377.6 Q 128.9 379.3, 131.4 379.3 " fill="#000000"/>
<path class="atom-23" d="M 306.1 279.7 Q 306.1 275.8, 308.0 273.6 Q 309.9 271.4, 313.6 271.4 Q 317.2 271.4, 319.1 273.6 Q 321.0 275.8, 321.0 279.7 Q 321.0 283.7, 319.1 285.9 Q 317.1 288.2, 313.6 288.2 Q 310.0 288.2, 308.0 285.9 Q 306.1 283.7, 306.1 279.7 M 313.6 286.3 Q 316.0 286.3, 317.4 284.7 Q 318.7 283.0, 318.7 279.7 Q 318.7 276.5, 317.4 274.9 Q 316.0 273.3, 313.6 273.3 Q 311.1 273.3, 309.7 274.9 Q 308.4 276.5, 308.4 279.7 Q 308.4 283.0, 309.7 284.7 Q 311.1 286.3, 313.6 286.3 " fill="#000000"/>
<path class="atom-25" d="M 414.1 239.8 Q 414.1 235.8, 416.1 233.6 Q 418.0 231.5, 421.6 231.5 Q 425.2 231.5, 427.2 233.6 Q 429.1 235.8, 429.1 239.8 Q 429.1 243.7, 427.1 246.0 Q 425.2 248.2, 421.6 248.2 Q 418.0 248.2, 416.1 246.0 Q 414.1 243.7, 414.1 239.8 M 421.6 246.4 Q 424.1 246.4, 425.4 244.7 Q 426.8 243.0, 426.8 239.8 Q 426.8 236.6, 425.4 234.9 Q 424.1 233.3, 421.6 233.3 Q 419.1 233.3, 417.8 234.9 Q 416.4 236.5, 416.4 239.8 Q 416.4 243.0, 417.8 244.7 Q 419.1 246.4, 421.6 246.4 " fill="#000000"/>
<path class="atom-27" d="M 433.6 126.2 Q 433.6 122.3, 435.5 120.1 Q 437.4 117.9, 441.0 117.9 Q 444.7 117.9, 446.6 120.1 Q 448.5 122.3, 448.5 126.2 Q 448.5 130.1, 446.6 132.4 Q 444.6 134.6, 441.0 134.6 Q 437.4 134.6, 435.5 132.4 Q 433.6 130.2, 433.6 126.2 M 441.0 132.8 Q 443.5 132.8, 444.9 131.1 Q 446.2 129.5, 446.2 126.2 Q 446.2 123.0, 444.9 121.4 Q 443.5 119.7, 441.0 119.7 Q 438.6 119.7, 437.2 121.3 Q 435.9 123.0, 435.9 126.2 Q 435.9 129.5, 437.2 131.1 Q 438.6 132.8, 441.0 132.8 " fill="#000000"/>
</svg>