<?xml version='1.0' encoding='utf-8'?>
<svg xmlns="http://www.w3.org/2000/svg" xmlns:rdkit="http://www.rdkit.org/xml" xmlns:xlink="http://www.w3.org/1999/xlink" version="1.1" baseProfile="full" xml:space="preserve" width="512px" height="218px" viewBox="0 0 512 218">

<rect style="opacity:1.0;fill:#FFFFFF;stroke:none" width="512.0" height="218.0" x="0.0" y="0.0"> </rect>
<path class="bond-0 atom-0 atom-1" d="M 97.9,57.8 L 100.1,103.7" style="fill:none;fill-rule:evenodd;stroke:#000000;stroke-width:2.0px;stroke-linecap:butt;stroke-linejoin:miter;stroke-opacity:1"/>
<path class="bond-0 atom-0 atom-1" d="M 87.2,58.3 L 89.4,104.2" style="fill:none;fill-rule:evenodd;stroke:#000000;stroke-width:2.0px;stroke-linecap:butt;stroke-linejoin:miter;stroke-opacity:1"/>
<path class="bond-1 atom-1 atom-2" d="M 85.3,122.9 L 49.8,145.7" style="fill:none;fill-rule:evenodd;stroke:#000000;stroke-width:2.0px;stroke-linecap:butt;stroke-linejoin:miter;stroke-opacity:1"/>
<path class="bond-2 atom-1 atom-3" d="M 105.4,121.6 L 147.1,143.1" style="fill:none;fill-rule:evenodd;stroke:#000000;stroke-width:2.0px;stroke-linecap:butt;stroke-linejoin:miter;stroke-opacity:1"/>
<path class="bond-3 atom-3 atom-4" d="M 170.4,141.6 L 218.8,110.5" style="fill:none;fill-rule:evenodd;stroke:#000000;stroke-width:2.0px;stroke-linecap:butt;stroke-linejoin:miter;stroke-opacity:1"/>
<path class="bond-4 atom-4 atom-5" d="M 218.8,110.5 L 285.3,136.4" style="fill:none;fill-rule:evenodd;stroke:#000000;stroke-width:2.0px;stroke-linecap:butt;stroke-linejoin:miter;stroke-opacity:1"/>
<path class="bond-5 atom-5 atom-6" d="M 285.3,136.4 L 315.8,183.8" style="fill:none;fill-rule:evenodd;stroke:#000000;stroke-width:2.0px;stroke-linecap:butt;stroke-linejoin:miter;stroke-opacity:1"/>
<path class="bond-6 atom-6 atom-7" d="M 335.5,193.3 L 392.8,178.2" style="fill:none;fill-rule:evenodd;stroke:#000000;stroke-width:2.0px;stroke-linecap:butt;stroke-linejoin:miter;stroke-opacity:1"/>
<path class="bond-7 atom-7 atom-8" d="M 392.8,178.2 L 396.9,107.0" style="fill:none;fill-rule:evenodd;stroke:#000000;stroke-width:2.0px;stroke-linecap:butt;stroke-linejoin:miter;stroke-opacity:1"/>
<path class="bond-8 atom-8 atom-9" d="M 396.9,107.0 L 445.3,75.9" style="fill:none;fill-rule:evenodd;stroke:#000000;stroke-width:2.0px;stroke-linecap:butt;stroke-linejoin:miter;stroke-opacity:1"/>
<path class="bond-9 atom-8 atom-10" d="M 396.9,107.0 L 330.4,81.1" style="fill:none;fill-rule:evenodd;stroke:#000000;stroke-width:2.0px;stroke-linecap:butt;stroke-linejoin:miter;stroke-opacity:1"/>
<path class="bond-10 atom-10 atom-11" d="M 330.4,81.1 L 300.1,34.0" style="fill:none;fill-rule:evenodd;stroke:#000000;stroke-width:2.0px;stroke-linecap:butt;stroke-linejoin:miter;stroke-opacity:1"/>
<path class="bond-11 atom-11 atom-12" d="M 280.2,24.2 L 222.8,39.3" style="fill:none;fill-rule:evenodd;stroke:#000000;stroke-width:2.0px;stroke-linecap:butt;stroke-linejoin:miter;stroke-opacity:1"/>
<path class="bond-12 atom-12 atom-4" d="M 222.8,39.3 L 218.8,110.5" style="fill:none;fill-rule:evenodd;stroke:#000000;stroke-width:2.0px;stroke-linecap:butt;stroke-linejoin:miter;stroke-opacity:1"/>
<path class="bond-13 atom-10 atom-5" d="M 330.4,81.1 L 285.3,136.4" style="fill:none;fill-rule:evenodd;stroke:#000000;stroke-width:2.0px;stroke-linecap:butt;stroke-linejoin:miter;stroke-opacity:1"/>
<path d="M 390.0,179.0 L 392.8,178.2 L 393.0,174.7" style="fill:none;stroke:#000000;stroke-width:2.0px;stroke-linecap:butt;stroke-linejoin:miter;stroke-miterlimit:10;stroke-opacity:1;"/>
<path d="M 225.7,38.5 L 222.8,39.3 L 222.6,42.8" style="fill:none;stroke:#000000;stroke-width:2.0px;stroke-linecap:butt;stroke-linejoin:miter;stroke-miterlimit:10;stroke-opacity:1;"/>
<path class="atom-0" d="M 82.7 45.2 Q 82.7 40.4, 85.1 37.7 Q 87.5 34.9, 91.9 34.9 Q 96.4 34.9, 98.8 37.7 Q 101.2 40.4, 101.2 45.2 Q 101.2 50.1, 98.8 52.9 Q 96.4 55.7, 91.9 55.7 Q 87.5 55.7, 85.1 52.9 Q 82.7 50.2, 82.7 45.2 M 91.9 53.4 Q 95.0 53.4, 96.7 51.4 Q 98.4 49.3, 98.4 45.2 Q 98.4 41.2, 96.7 39.3 Q 95.0 37.2, 91.9 37.2 Q 88.8 37.2, 87.2 39.2 Q 85.5 41.2, 85.5 45.2 Q 85.5 49.3, 87.2 51.4 Q 88.8 53.4, 91.9 53.4 " fill="#000000"/>
<path class="atom-1" d="M 90.9 106.3 L 97.5 117.0 Q 98.2 118.1, 99.2 120.0 Q 100.3 121.9, 100.3 122.0 L 100.3 106.3 L 103.0 106.3 L 103.0 126.5 L 100.2 126.5 L 93.1 114.8 Q 92.3 113.5, 91.4 111.9 Q 90.6 110.3, 90.3 109.8 L 90.3 126.5 L 87.7 126.5 L 87.7 106.3 L 90.9 106.3 " fill="#000000"/>
<path class="atom-1" d="M 106.8 110.0 L 110.4 110.0 L 110.4 106.2 L 112.0 106.2 L 112.0 110.0 L 115.6 110.0 L 115.6 111.3 L 112.0 111.3 L 112.0 115.1 L 110.4 115.1 L 110.4 111.3 L 106.8 111.3 L 106.8 110.0 " fill="#000000"/>
<path class="atom-2" d="M 26.1 155.1 Q 26.1 150.2, 28.5 147.5 Q 30.9 144.8, 35.3 144.8 Q 39.8 144.8, 42.2 147.5 Q 44.6 150.2, 44.6 155.1 Q 44.6 160.0, 42.2 162.8 Q 39.8 165.5, 35.3 165.5 Q 30.9 165.5, 28.5 162.8 Q 26.1 160.0, 26.1 155.1 M 35.3 163.3 Q 38.4 163.3, 40.1 161.2 Q 41.8 159.1, 41.8 155.1 Q 41.8 151.1, 40.1 149.1 Q 38.4 147.1, 35.3 147.1 Q 32.3 147.1, 30.6 149.1 Q 28.9 151.1, 28.9 155.1 Q 28.9 159.1, 30.6 161.2 Q 32.3 163.3, 35.3 163.3 " fill="#000000"/>
<path class="atom-2" d="M 47.5 148.1 L 54.4 148.1 L 54.4 149.6 L 47.5 149.6 L 47.5 148.1 " fill="#000000"/>
<path class="atom-3" d="M 149.5 149.1 Q 149.5 144.3, 151.9 141.6 Q 154.3 138.9, 158.8 138.9 Q 163.3 138.9, 165.6 141.6 Q 168.0 144.3, 168.0 149.1 Q 168.0 154.1, 165.6 156.9 Q 163.2 159.6, 158.8 159.6 Q 154.3 159.6, 151.9 156.9 Q 149.5 154.1, 149.5 149.1 M 158.8 157.3 Q 161.9 157.3, 163.5 155.3 Q 165.2 153.2, 165.2 149.1 Q 165.2 145.2, 163.5 143.2 Q 161.9 141.2, 158.8 141.2 Q 155.7 141.2, 154.0 143.2 Q 152.3 145.2, 152.3 149.1 Q 152.3 153.2, 154.0 155.3 Q 155.7 157.3, 158.8 157.3 " fill="#000000"/>
<path class="atom-6" d="M 314.6 196.4 Q 314.6 191.6, 317.0 188.9 Q 319.4 186.2, 323.9 186.2 Q 328.3 186.2, 330.7 188.9 Q 333.1 191.6, 333.1 196.4 Q 333.1 201.3, 330.7 204.1 Q 328.3 206.9, 323.9 206.9 Q 319.4 206.9, 317.0 204.1 Q 314.6 201.4, 314.6 196.4 M 323.9 204.6 Q 326.9 204.6, 328.6 202.6 Q 330.3 200.5, 330.3 196.4 Q 330.3 192.5, 328.6 190.5 Q 326.9 188.4, 323.9 188.4 Q 320.8 188.4, 319.1 190.4 Q 317.4 192.4, 317.4 196.4 Q 317.4 200.5, 319.1 202.6 Q 320.8 204.6, 323.9 204.6 " fill="#000000"/>
<path class="atom-9" d="M 447.6 68.5 Q 447.6 63.6, 450.0 60.9 Q 452.4 58.2, 456.9 58.2 Q 461.4 58.2, 463.8 60.9 Q 466.2 63.6, 466.2 68.5 Q 466.2 73.4, 463.8 76.2 Q 461.3 78.9, 456.9 78.9 Q 452.5 78.9, 450.0 76.2 Q 447.6 73.4, 447.6 68.5 M 456.9 76.6 Q 460.0 76.6, 461.6 74.6 Q 463.3 72.5, 463.3 68.5 Q 463.3 64.5, 461.6 62.5 Q 460.0 60.5, 456.9 60.5 Q 453.8 60.5, 452.1 62.5 Q 450.5 64.5, 450.5 68.5 Q 450.5 72.5, 452.1 74.6 Q 453.8 76.6, 456.9 76.6 " fill="#000000"/>
<path class="atom-9" d="M 469.3 58.4 L 472.1 58.4 L 472.1 67.0 L 482.4 67.0 L 482.4 58.4 L 485.1 58.4 L 485.1 78.6 L 482.4 78.6 L 482.4 69.3 L 472.1 69.3 L 472.1 78.6 L 469.3 78.6 L 469.3 58.4 " fill="#000000"/>
<path class="atom-11" d="M 282.5 21.2 Q 282.5 16.3, 284.9 13.6 Q 287.3 10.9, 291.8 10.9 Q 296.3 10.9, 298.7 13.6 Q 301.1 16.3, 301.1 21.2 Q 301.1 26.1, 298.7 28.9 Q 296.2 31.6, 291.8 31.6 Q 287.4 31.6, 284.9 28.9 Q 282.5 26.1, 282.5 21.2 M 291.8 29.4 Q 294.9 29.4, 296.6 27.3 Q 298.2 25.2, 298.2 21.2 Q 298.2 17.2, 296.6 15.2 Q 294.9 13.2, 291.8 13.2 Q 288.7 13.2, 287.1 15.2 Q 285.4 17.2, 285.4 21.2 Q 285.4 25.3, 287.1 27.3 Q 288.7 29.4, 291.8 29.4 " fill="#000000"/>
</svg>