<?xml version='1.0' encoding='utf-8'?>
<svg xmlns="http://www.w3.org/2000/svg" xmlns:rdkit="http://www.rdkit.org/xml" xmlns:xlink="http://www.w3.org/1999/xlink" version="1.1" baseProfile="full" xml:space="preserve" width="512px" height="366px" viewBox="0 0 512 366">

<rect style="opacity:1.0;fill:#FFFFFF;stroke:none" width="512.0" height="366.0" x="0.0" y="0.0"> </rect>
<path class="bond-0 atom-0 atom-1" d="M 170.0,107.8 L 112.5,140.0" style="fill:none;fill-rule:evenodd;stroke:#000000;stroke-width:2.0px;stroke-linecap:butt;stroke-linejoin:miter;stroke-opacity:1"/>
<path class="bond-1 atom-1 atom-2" d="M 112.5,140.0 L 125.3,204.6" style="fill:none;fill-rule:evenodd;stroke:#000000;stroke-width:2.0px;stroke-linecap:butt;stroke-linejoin:miter;stroke-opacity:1"/>
<path class="bond-2 atom-2 atom-3" d="M 125.3,204.6 L 180.0,211.1" style="fill:none;fill-rule:evenodd;stroke:#000000;stroke-width:2.0px;stroke-linecap:butt;stroke-linejoin:miter;stroke-opacity:1"/>
<path class="bond-3 atom-3 atom-4" d="M 196.1,200.8 L 218.4,152.5" style="fill:none;fill-rule:evenodd;stroke:#000000;stroke-width:2.0px;stroke-linecap:butt;stroke-linejoin:miter;stroke-opacity:1"/>
<path class="bond-4 atom-4 atom-5" d="M 218.4,152.5 L 273.8,141.5" style="fill:none;fill-rule:evenodd;stroke:#000000;stroke-width:2.0px;stroke-linecap:butt;stroke-linejoin:miter;stroke-opacity:1"/>
<path class="bond-5 atom-5 atom-6" d="M 292.3,150.3 L 326.5,189.3" style="fill:none;fill-rule:evenodd;stroke:#000000;stroke-width:2.0px;stroke-linecap:butt;stroke-linejoin:miter;stroke-opacity:1"/>
<path class="bond-6 atom-6 atom-7" d="M 326.5,189.3 L 391.1,176.4" style="fill:none;fill-rule:evenodd;stroke:#000000;stroke-width:2.0px;stroke-linecap:butt;stroke-linejoin:miter;stroke-opacity:1"/>
<path class="bond-6 atom-6 atom-7" d="M 330.2,178.5 L 383.6,167.9" style="fill:none;fill-rule:evenodd;stroke:#000000;stroke-width:2.0px;stroke-linecap:butt;stroke-linejoin:miter;stroke-opacity:1"/>
<path class="bond-7 atom-7 atom-8" d="M 391.1,176.4 L 412.3,114.0" style="fill:none;fill-rule:evenodd;stroke:#000000;stroke-width:2.0px;stroke-linecap:butt;stroke-linejoin:miter;stroke-opacity:1"/>
<path class="bond-8 atom-8 atom-9" d="M 410.5,119.4 L 467.2,108.2" style="fill:none;fill-rule:evenodd;stroke:#000000;stroke-width:2.0px;stroke-linecap:butt;stroke-linejoin:miter;stroke-opacity:1"/>
<path class="bond-8 atom-8 atom-9" d="M 408.6,109.7 L 465.3,98.5" style="fill:none;fill-rule:evenodd;stroke:#000000;stroke-width:2.0px;stroke-linecap:butt;stroke-linejoin:miter;stroke-opacity:1"/>
<path class="bond-9 atom-8 atom-10" d="M 412.3,114.0 L 378.1,75.0" style="fill:none;fill-rule:evenodd;stroke:#000000;stroke-width:2.0px;stroke-linecap:butt;stroke-linejoin:miter;stroke-opacity:1"/>
<path class="bond-10 atom-10 atom-11" d="M 359.6,66.3 L 304.2,77.3" style="fill:none;fill-rule:evenodd;stroke:#000000;stroke-width:2.0px;stroke-linecap:butt;stroke-linejoin:miter;stroke-opacity:1"/>
<path class="bond-11 atom-11 atom-12" d="M 309.8,76.2 L 275.0,36.4" style="fill:none;fill-rule:evenodd;stroke:#000000;stroke-width:2.0px;stroke-linecap:butt;stroke-linejoin:miter;stroke-opacity:1"/>
<path class="bond-11 atom-11 atom-12" d="M 302.4,82.7 L 267.5,42.9" style="fill:none;fill-rule:evenodd;stroke:#000000;stroke-width:2.0px;stroke-linecap:butt;stroke-linejoin:miter;stroke-opacity:1"/>
<path class="bond-12 atom-7 atom-13" d="M 391.1,176.4 L 434.6,226.0" style="fill:none;fill-rule:evenodd;stroke:#000000;stroke-width:2.0px;stroke-linecap:butt;stroke-linejoin:miter;stroke-opacity:1"/>
<path class="bond-13 atom-13 atom-14" d="M 434.6,226.0 L 413.4,288.4" style="fill:none;fill-rule:evenodd;stroke:#000000;stroke-width:2.0px;stroke-linecap:butt;stroke-linejoin:miter;stroke-opacity:1"/>
<path class="bond-13 atom-13 atom-14" d="M 423.4,228.2 L 404.0,285.2" style="fill:none;fill-rule:evenodd;stroke:#000000;stroke-width:2.0px;stroke-linecap:butt;stroke-linejoin:miter;stroke-opacity:1"/>
<path class="bond-14 atom-14 atom-15" d="M 413.4,288.4 L 448.3,328.3" style="fill:none;fill-rule:evenodd;stroke:#000000;stroke-width:2.0px;stroke-linecap:butt;stroke-linejoin:miter;stroke-opacity:1"/>
<path class="bond-15 atom-2 atom-16" d="M 125.3,204.6 L 80.6,253.0" style="fill:none;fill-rule:evenodd;stroke:#000000;stroke-width:2.0px;stroke-linecap:butt;stroke-linejoin:miter;stroke-opacity:1"/>
<path class="bond-16 atom-16 atom-17" d="M 80.6,253.0 L 96.5,304.3" style="fill:none;fill-rule:evenodd;stroke:#000000;stroke-width:2.0px;stroke-linecap:butt;stroke-linejoin:miter;stroke-opacity:1"/>
<path class="bond-17 atom-1 atom-18" d="M 112.5,140.0 L 63.4,117.3" style="fill:none;fill-rule:evenodd;stroke:#000000;stroke-width:2.0px;stroke-linecap:butt;stroke-linejoin:miter;stroke-opacity:1"/>
<path class="bond-18 atom-4 atom-0" d="M 218.4,152.5 L 170.0,107.8" style="fill:none;fill-rule:evenodd;stroke:#000000;stroke-width:2.0px;stroke-linecap:butt;stroke-linejoin:miter;stroke-opacity:1"/>
<path class="bond-19 atom-11 atom-5" d="M 304.2,77.3 L 287.0,128.2" style="fill:none;fill-rule:evenodd;stroke:#000000;stroke-width:2.0px;stroke-linecap:butt;stroke-linejoin:miter;stroke-opacity:1"/>
<path d="M 167.1,109.4 L 170.0,107.8 L 172.4,110.0" style="fill:none;stroke:#000000;stroke-width:2.0px;stroke-linecap:butt;stroke-linejoin:miter;stroke-miterlimit:10;stroke-opacity:1;"/>
<path d="M 324.8,187.3 L 326.5,189.3 L 329.7,188.6" style="fill:none;stroke:#000000;stroke-width:2.0px;stroke-linecap:butt;stroke-linejoin:miter;stroke-miterlimit:10;stroke-opacity:1;"/>
<path d="M 411.3,117.2 L 412.3,114.0 L 410.6,112.1" style="fill:none;stroke:#000000;stroke-width:2.0px;stroke-linecap:butt;stroke-linejoin:miter;stroke-miterlimit:10;stroke-opacity:1;"/>
<path d="M 307.0,76.8 L 304.2,77.3 L 303.4,79.8" style="fill:none;stroke:#000000;stroke-width:2.0px;stroke-linecap:butt;stroke-linejoin:miter;stroke-miterlimit:10;stroke-opacity:1;"/>
<path d="M 432.4,223.5 L 434.6,226.0 L 433.5,229.1" style="fill:none;stroke:#000000;stroke-width:2.0px;stroke-linecap:butt;stroke-linejoin:miter;stroke-miterlimit:10;stroke-opacity:1;"/>
<path d="M 414.4,285.3 L 413.4,288.4 L 415.1,290.4" style="fill:none;stroke:#000000;stroke-width:2.0px;stroke-linecap:butt;stroke-linejoin:miter;stroke-miterlimit:10;stroke-opacity:1;"/>
<path d="M 82.8,250.6 L 80.6,253.0 L 81.4,255.6" style="fill:none;stroke:#000000;stroke-width:2.0px;stroke-linecap:butt;stroke-linejoin:miter;stroke-miterlimit:10;stroke-opacity:1;"/>
<path class="atom-3" d="M 182.2 212.4 Q 182.2 208.0, 184.4 205.4 Q 186.6 202.9, 190.8 202.9 Q 194.9 202.9, 197.1 205.4 Q 199.4 208.0, 199.4 212.4 Q 199.4 217.0, 197.1 219.6 Q 194.9 222.1, 190.8 222.1 Q 186.7 222.1, 184.4 219.6 Q 182.2 217.0, 182.2 212.4 M 190.8 220.0 Q 193.6 220.0, 195.2 218.1 Q 196.7 216.2, 196.7 212.4 Q 196.7 208.8, 195.2 206.9 Q 193.6 205.1, 190.8 205.1 Q 187.9 205.1, 186.4 206.9 Q 184.9 208.7, 184.9 212.4 Q 184.9 216.2, 186.4 218.1 Q 187.9 220.0, 190.8 220.0 " fill="#000000"/>
<path class="atom-5" d="M 278.9 130.4 L 285.0 140.3 Q 285.6 141.2, 286.6 143.0 Q 287.6 144.8, 287.6 144.9 L 287.6 130.4 L 290.1 130.4 L 290.1 149.0 L 287.6 149.0 L 281.0 138.2 Q 280.2 137.0, 279.4 135.5 Q 278.6 134.1, 278.4 133.6 L 278.4 149.0 L 276.0 149.0 L 276.0 130.4 L 278.9 130.4 " fill="#000000"/>
<path class="atom-9" d="M 468.4 101.3 Q 468.4 96.8, 470.6 94.3 Q 472.8 91.8, 477.0 91.8 Q 481.1 91.8, 483.3 94.3 Q 485.5 96.8, 485.5 101.3 Q 485.5 105.8, 483.3 108.4 Q 481.1 110.9, 477.0 110.9 Q 472.9 110.9, 470.6 108.4 Q 468.4 105.8, 468.4 101.3 M 477.0 108.8 Q 479.8 108.8, 481.3 106.9 Q 482.9 105.0, 482.9 101.3 Q 482.9 97.6, 481.3 95.7 Q 479.8 93.9, 477.0 93.9 Q 474.1 93.9, 472.6 95.7 Q 471.0 97.6, 471.0 101.3 Q 471.0 105.0, 472.6 106.9 Q 474.1 108.8, 477.0 108.8 " fill="#000000"/>
<path class="atom-10" d="M 364.8 55.1 L 370.9 65.0 Q 371.5 66.0, 372.5 67.8 Q 373.4 69.5, 373.5 69.6 L 373.5 55.1 L 376.0 55.1 L 376.0 73.8 L 373.4 73.8 L 366.8 63.0 Q 366.1 61.7, 365.3 60.3 Q 364.5 58.8, 364.2 58.4 L 364.2 73.8 L 361.8 73.8 L 361.8 55.1 L 364.8 55.1 " fill="#000000"/>
<path class="atom-10" d="M 361.6 34.6 L 364.1 34.6 L 364.1 42.5 L 373.7 42.5 L 373.7 34.6 L 376.2 34.6 L 376.2 53.3 L 373.7 53.3 L 373.7 44.6 L 364.1 44.6 L 364.1 53.3 L 361.6 53.3 L 361.6 34.6 " fill="#000000"/>
<path class="atom-12" d="M 252.2 27.8 Q 252.2 23.3, 254.5 20.8 Q 256.7 18.3, 260.8 18.3 Q 264.9 18.3, 267.2 20.8 Q 269.4 23.3, 269.4 27.8 Q 269.4 32.3, 267.1 34.9 Q 264.9 37.5, 260.8 37.5 Q 256.7 37.5, 254.5 34.9 Q 252.2 32.4, 252.2 27.8 M 260.8 35.4 Q 263.7 35.4, 265.2 33.5 Q 266.7 31.5, 266.7 27.8 Q 266.7 24.1, 265.2 22.3 Q 263.7 20.4, 260.8 20.4 Q 258.0 20.4, 256.4 22.3 Q 254.9 24.1, 254.9 27.8 Q 254.9 31.6, 256.4 33.5 Q 258.0 35.4, 260.8 35.4 " fill="#000000"/>
<path class="atom-15" d="M 459.5 337.5 Q 461.3 338.0, 462.2 339.1 Q 463.1 340.2, 463.1 341.8 Q 463.1 344.4, 461.5 345.9 Q 459.8 347.3, 456.7 347.3 L 450.4 347.3 L 450.4 328.6 L 456.0 328.6 Q 459.1 328.6, 460.8 329.9 Q 462.4 331.2, 462.4 333.6 Q 462.4 336.4, 459.5 337.5 M 453.0 330.7 L 453.0 336.6 L 456.0 336.6 Q 457.8 336.6, 458.8 335.9 Q 459.7 335.1, 459.7 333.6 Q 459.7 330.7, 456.0 330.7 L 453.0 330.7 M 456.7 345.2 Q 458.5 345.2, 459.5 344.3 Q 460.5 343.5, 460.5 341.8 Q 460.5 340.3, 459.4 339.5 Q 458.4 338.7, 456.3 338.7 L 453.0 338.7 L 453.0 345.2 L 456.7 345.2 " fill="#000000"/>
<path class="atom-15" d="M 467.4 333.7 L 467.7 335.6 Q 469.1 333.5, 471.4 333.5 Q 472.1 333.5, 473.1 333.8 L 472.7 336.0 Q 471.6 335.7, 471.0 335.7 Q 469.9 335.7, 469.1 336.2 Q 468.4 336.6, 467.8 337.6 L 467.8 347.3 L 465.4 347.3 L 465.4 333.7 L 467.4 333.7 " fill="#000000"/>
<path class="atom-17" d="M 91.5 316.0 Q 91.5 311.5, 93.8 309.0 Q 96.0 306.5, 100.1 306.5 Q 104.2 306.5, 106.5 309.0 Q 108.7 311.5, 108.7 316.0 Q 108.7 320.5, 106.4 323.1 Q 104.2 325.7, 100.1 325.7 Q 96.0 325.7, 93.8 323.1 Q 91.5 320.6, 91.5 316.0 M 100.1 323.6 Q 103.0 323.6, 104.5 321.7 Q 106.0 319.7, 106.0 316.0 Q 106.0 312.3, 104.5 310.5 Q 103.0 308.6, 100.1 308.6 Q 97.3 308.6, 95.7 310.5 Q 94.2 312.3, 94.2 316.0 Q 94.2 319.8, 95.7 321.7 Q 97.3 323.6, 100.1 323.6 " fill="#000000"/>
<path class="atom-17" d="M 111.6 306.7 L 114.1 306.7 L 114.1 314.6 L 123.7 314.6 L 123.7 306.7 L 126.2 306.7 L 126.2 325.4 L 123.7 325.4 L 123.7 316.8 L 114.1 316.8 L 114.1 325.4 L 111.6 325.4 L 111.6 306.7 " fill="#000000"/>
<path class="atom-18" d="M 25.7 103.1 L 28.2 103.1 L 28.2 111.1 L 37.7 111.1 L 37.7 103.1 L 40.3 103.1 L 40.3 121.8 L 37.7 121.8 L 37.7 113.2 L 28.2 113.2 L 28.2 121.8 L 25.7 121.8 L 25.7 103.1 " fill="#000000"/>
<path class="atom-18" d="M 44.1 112.4 Q 44.1 107.9, 46.3 105.4 Q 48.5 102.9, 52.7 102.9 Q 56.8 102.9, 59.0 105.4 Q 61.2 107.9, 61.2 112.4 Q 61.2 116.9, 59.0 119.5 Q 56.7 122.1, 52.7 122.1 Q 48.5 122.1, 46.3 119.5 Q 44.1 117.0, 44.1 112.4 M 52.7 120.0 Q 55.5 120.0, 57.0 118.1 Q 58.6 116.2, 58.6 112.4 Q 58.6 108.7, 57.0 106.9 Q 55.5 105.0, 52.7 105.0 Q 49.8 105.0, 48.3 106.9 Q 46.7 108.7, 46.7 112.4 Q 46.7 116.2, 48.3 118.1 Q 49.8 120.0, 52.7 120.0 " fill="#000000"/>
</svg>