<?xml version='1.0' encoding='utf-8'?>
<svg xmlns="http://www.w3.org/2000/svg" xmlns:rdkit="http://www.rdkit.org/xml" xmlns:xlink="http://www.w3.org/1999/xlink" version="1.1" baseProfile="full" xml:space="preserve" width="512px" height="150px" viewBox="0 0 512 150">

<rect style="opacity:1.0;fill:#FFFFFF;stroke:none" width="512.0" height="150.0" x="0.0" y="0.0"> </rect>
<path class="bond-0 atom-0 atom-1" d="M 361.9,69.8 L 398.1,89.3" style="fill:none;fill-rule:evenodd;stroke:#000000;stroke-width:2.0px;stroke-linecap:butt;stroke-linejoin:miter;stroke-opacity:1"/>
<path class="bond-1 atom-1 atom-2" d="M 398.1,89.3 L 433.0,67.7" style="fill:none;fill-rule:evenodd;stroke:#000000;stroke-width:2.0px;stroke-linecap:butt;stroke-linejoin:miter;stroke-opacity:1"/>
<path class="bond-2 atom-2 atom-3" d="M 436.1,69.4 L 435.1,34.0" style="fill:none;fill-rule:evenodd;stroke:#000000;stroke-width:2.0px;stroke-linecap:butt;stroke-linejoin:miter;stroke-opacity:1"/>
<path class="bond-2 atom-2 atom-3" d="M 430.0,69.6 L 429.0,34.2" style="fill:none;fill-rule:evenodd;stroke:#000000;stroke-width:2.0px;stroke-linecap:butt;stroke-linejoin:miter;stroke-opacity:1"/>
<path class="bond-3 atom-2 atom-4" d="M 433.0,67.7 L 462.5,83.6" style="fill:none;fill-rule:evenodd;stroke:#000000;stroke-width:2.0px;stroke-linecap:butt;stroke-linejoin:miter;stroke-opacity:1"/>
<path class="bond-4 atom-1 atom-5" d="M 398.1,89.3 L 402.1,121.7 L 395.9,121.9 Z" style="fill:#000000;fill-rule:evenodd;fill-opacity:1;stroke:#000000;stroke-width:0.5px;stroke-linecap:butt;stroke-linejoin:miter;stroke-miterlimit:10;stroke-opacity:1;"/>
<path class="bond-5 atom-0 atom-6" d="M 361.9,69.8 L 327.0,91.3" style="fill:none;fill-rule:evenodd;stroke:#000000;stroke-width:2.0px;stroke-linecap:butt;stroke-linejoin:miter;stroke-opacity:1"/>
<path class="bond-6 atom-6 atom-7" d="M 327.0,91.3 L 290.8,71.8" style="fill:none;fill-rule:evenodd;stroke:#000000;stroke-width:2.0px;stroke-linecap:butt;stroke-linejoin:miter;stroke-opacity:1"/>
<path class="bond-7 atom-7 atom-8" d="M 294.0,73.5 L 293.0,38.1" style="fill:none;fill-rule:evenodd;stroke:#000000;stroke-width:2.0px;stroke-linecap:butt;stroke-linejoin:miter;stroke-opacity:1"/>
<path class="bond-7 atom-7 atom-8" d="M 287.8,73.7 L 286.8,38.3" style="fill:none;fill-rule:evenodd;stroke:#000000;stroke-width:2.0px;stroke-linecap:butt;stroke-linejoin:miter;stroke-opacity:1"/>
<path class="bond-8 atom-7 atom-9" d="M 290.8,71.8 L 261.7,89.8" style="fill:none;fill-rule:evenodd;stroke:#000000;stroke-width:2.0px;stroke-linecap:butt;stroke-linejoin:miter;stroke-opacity:1"/>
<path class="bond-9 atom-9 atom-10" d="M 250.1,90.2 L 219.8,73.9" style="fill:none;fill-rule:evenodd;stroke:#000000;stroke-width:2.0px;stroke-linecap:butt;stroke-linejoin:miter;stroke-opacity:1"/>
<path class="bond-10 atom-10 atom-11" d="M 219.9,70.4 L 219.4,70.4" style="fill:none;fill-rule:evenodd;stroke:#000000;stroke-width:1.0px;stroke-linecap:butt;stroke-linejoin:miter;stroke-opacity:1"/>
<path class="bond-10 atom-10 atom-11" d="M 220.1,67.0 L 219.0,67.0" style="fill:none;fill-rule:evenodd;stroke:#000000;stroke-width:1.0px;stroke-linecap:butt;stroke-linejoin:miter;stroke-opacity:1"/>
<path class="bond-10 atom-10 atom-11" d="M 220.3,63.6 L 218.6,63.6" style="fill:none;fill-rule:evenodd;stroke:#000000;stroke-width:1.0px;stroke-linecap:butt;stroke-linejoin:miter;stroke-opacity:1"/>
<path class="bond-10 atom-10 atom-11" d="M 220.5,60.2 L 218.2,60.2" style="fill:none;fill-rule:evenodd;stroke:#000000;stroke-width:1.0px;stroke-linecap:butt;stroke-linejoin:miter;stroke-opacity:1"/>
<path class="bond-10 atom-10 atom-11" d="M 220.7,56.7 L 217.9,56.8" style="fill:none;fill-rule:evenodd;stroke:#000000;stroke-width:1.0px;stroke-linecap:butt;stroke-linejoin:miter;stroke-opacity:1"/>
<path class="bond-10 atom-10 atom-11" d="M 220.8,53.3 L 217.5,53.4" style="fill:none;fill-rule:evenodd;stroke:#000000;stroke-width:1.0px;stroke-linecap:butt;stroke-linejoin:miter;stroke-opacity:1"/>
<path class="bond-10 atom-10 atom-11" d="M 221.0,49.9 L 217.1,50.0" style="fill:none;fill-rule:evenodd;stroke:#000000;stroke-width:1.0px;stroke-linecap:butt;stroke-linejoin:miter;stroke-opacity:1"/>
<path class="bond-10 atom-10 atom-11" d="M 221.2,46.4 L 216.7,46.6" style="fill:none;fill-rule:evenodd;stroke:#000000;stroke-width:1.0px;stroke-linecap:butt;stroke-linejoin:miter;stroke-opacity:1"/>
<path class="bond-10 atom-10 atom-11" d="M 221.4,43.0 L 216.4,43.2" style="fill:none;fill-rule:evenodd;stroke:#000000;stroke-width:1.0px;stroke-linecap:butt;stroke-linejoin:miter;stroke-opacity:1"/>
<path class="bond-10 atom-10 atom-11" d="M 221.6,39.6 L 216.0,39.8" style="fill:none;fill-rule:evenodd;stroke:#000000;stroke-width:1.0px;stroke-linecap:butt;stroke-linejoin:miter;stroke-opacity:1"/>
<path class="bond-10 atom-10 atom-11" d="M 221.8,36.2 L 215.6,36.3" style="fill:none;fill-rule:evenodd;stroke:#000000;stroke-width:1.0px;stroke-linecap:butt;stroke-linejoin:miter;stroke-opacity:1"/>
<path class="bond-11 atom-11 atom-12" d="M 218.6,32.8 L 187.5,16.1" style="fill:none;fill-rule:evenodd;stroke:#000000;stroke-width:2.0px;stroke-linecap:butt;stroke-linejoin:miter;stroke-opacity:1"/>
<path class="bond-12 atom-10 atom-13" d="M 219.8,73.9 L 184.8,95.4" style="fill:none;fill-rule:evenodd;stroke:#000000;stroke-width:2.0px;stroke-linecap:butt;stroke-linejoin:miter;stroke-opacity:1"/>
<path class="bond-13 atom-13 atom-14" d="M 181.7,93.7 L 182.7,129.3" style="fill:none;fill-rule:evenodd;stroke:#000000;stroke-width:2.0px;stroke-linecap:butt;stroke-linejoin:miter;stroke-opacity:1"/>
<path class="bond-13 atom-13 atom-14" d="M 187.8,93.5 L 188.8,129.1" style="fill:none;fill-rule:evenodd;stroke:#000000;stroke-width:2.0px;stroke-linecap:butt;stroke-linejoin:miter;stroke-opacity:1"/>
<path class="bond-14 atom-13 atom-15" d="M 184.8,95.4 L 154.4,79.0" style="fill:none;fill-rule:evenodd;stroke:#000000;stroke-width:2.0px;stroke-linecap:butt;stroke-linejoin:miter;stroke-opacity:1"/>
<path class="bond-15 atom-15 atom-16" d="M 142.9,79.4 L 113.7,97.4" style="fill:none;fill-rule:evenodd;stroke:#000000;stroke-width:2.0px;stroke-linecap:butt;stroke-linejoin:miter;stroke-opacity:1"/>
<path class="bond-16 atom-16 atom-17" d="M 113.7,97.4 L 77.6,77.9" style="fill:none;fill-rule:evenodd;stroke:#000000;stroke-width:2.0px;stroke-linecap:butt;stroke-linejoin:miter;stroke-opacity:1"/>
<path class="bond-17 atom-17 atom-18" d="M 80.7,79.6 L 79.7,44.2" style="fill:none;fill-rule:evenodd;stroke:#000000;stroke-width:2.0px;stroke-linecap:butt;stroke-linejoin:miter;stroke-opacity:1"/>
<path class="bond-17 atom-17 atom-18" d="M 74.6,79.8 L 73.5,44.4" style="fill:none;fill-rule:evenodd;stroke:#000000;stroke-width:2.0px;stroke-linecap:butt;stroke-linejoin:miter;stroke-opacity:1"/>
<path class="bond-18 atom-17 atom-19" d="M 77.6,77.9 L 49.3,95.4" style="fill:none;fill-rule:evenodd;stroke:#000000;stroke-width:2.0px;stroke-linecap:butt;stroke-linejoin:miter;stroke-opacity:1"/>
<path d="M 363.7,70.8 L 361.9,69.8 L 360.2,70.9" style="fill:none;stroke:#000000;stroke-width:2.0px;stroke-linecap:butt;stroke-linejoin:miter;stroke-miterlimit:10;stroke-opacity:1;"/>
<path d="M 396.3,88.3 L 398.1,89.3 L 399.8,88.2" style="fill:none;stroke:#000000;stroke-width:2.0px;stroke-linecap:butt;stroke-linejoin:miter;stroke-miterlimit:10;stroke-opacity:1;"/>
<path d="M 431.3,68.8 L 433.0,67.7 L 434.5,68.5" style="fill:none;stroke:#000000;stroke-width:2.0px;stroke-linecap:butt;stroke-linejoin:miter;stroke-miterlimit:10;stroke-opacity:1;"/>
<path d="M 328.7,90.2 L 327.0,91.3 L 325.2,90.3" style="fill:none;stroke:#000000;stroke-width:2.0px;stroke-linecap:butt;stroke-linejoin:miter;stroke-miterlimit:10;stroke-opacity:1;"/>
<path d="M 292.6,72.8 L 290.8,71.8 L 289.4,72.7" style="fill:none;stroke:#000000;stroke-width:2.0px;stroke-linecap:butt;stroke-linejoin:miter;stroke-miterlimit:10;stroke-opacity:1;"/>
<path d="M 221.3,74.7 L 219.8,73.9 L 218.0,74.9" style="fill:none;stroke:#000000;stroke-width:2.0px;stroke-linecap:butt;stroke-linejoin:miter;stroke-miterlimit:10;stroke-opacity:1;"/>
<path d="M 186.5,94.3 L 184.8,95.4 L 183.3,94.6" style="fill:none;stroke:#000000;stroke-width:2.0px;stroke-linecap:butt;stroke-linejoin:miter;stroke-miterlimit:10;stroke-opacity:1;"/>
<path d="M 115.2,96.5 L 113.7,97.4 L 111.9,96.5" style="fill:none;stroke:#000000;stroke-width:2.0px;stroke-linecap:butt;stroke-linejoin:miter;stroke-miterlimit:10;stroke-opacity:1;"/>
<path d="M 79.4,78.9 L 77.6,77.9 L 76.2,78.8" style="fill:none;stroke:#000000;stroke-width:2.0px;stroke-linecap:butt;stroke-linejoin:miter;stroke-miterlimit:10;stroke-opacity:1;"/>
<path class="atom-3" d="M 426.5 26.7 Q 426.5 23.9, 427.9 22.4 Q 429.3 20.8, 431.8 20.8 Q 434.4 20.8, 435.8 22.4 Q 437.2 23.9, 437.2 26.7 Q 437.2 29.6, 435.8 31.2 Q 434.4 32.8, 431.8 32.8 Q 429.3 32.8, 427.9 31.2 Q 426.5 29.6, 426.5 26.7 M 431.8 31.4 Q 433.6 31.4, 434.6 30.3 Q 435.5 29.1, 435.5 26.7 Q 435.5 24.5, 434.6 23.3 Q 433.6 22.1, 431.8 22.1 Q 430.1 22.1, 429.1 23.3 Q 428.1 24.4, 428.1 26.7 Q 428.1 29.1, 429.1 30.3 Q 430.1 31.4, 431.8 31.4 " fill="#000000"/>
<path class="atom-4" d="M 463.8 87.3 Q 463.8 84.5, 465.2 82.9 Q 466.6 81.4, 469.1 81.4 Q 471.7 81.4, 473.1 82.9 Q 474.5 84.5, 474.5 87.3 Q 474.5 90.1, 473.1 91.7 Q 471.7 93.3, 469.1 93.3 Q 466.6 93.3, 465.2 91.7 Q 463.8 90.1, 463.8 87.3 M 469.1 92.0 Q 470.9 92.0, 471.9 90.8 Q 472.8 89.6, 472.8 87.3 Q 472.8 85.0, 471.9 83.8 Q 470.9 82.7, 469.1 82.7 Q 467.4 82.7, 466.4 83.8 Q 465.5 85.0, 465.5 87.3 Q 465.5 89.6, 466.4 90.8 Q 467.4 92.0, 469.1 92.0 " fill="#000000"/>
<path class="atom-4" d="M 476.3 81.5 L 477.9 81.5 L 477.9 86.4 L 483.8 86.4 L 483.8 81.5 L 485.4 81.5 L 485.4 93.1 L 483.8 93.1 L 483.8 87.8 L 477.9 87.8 L 477.9 93.1 L 476.3 93.1 L 476.3 81.5 " fill="#000000"/>
<path class="atom-5" d="M 396.7 124.5 L 400.5 130.7 Q 400.9 131.3, 401.5 132.4 Q 402.1 133.5, 402.1 133.5 L 402.1 124.5 L 403.6 124.5 L 403.6 136.1 L 402.1 136.1 L 398.0 129.4 Q 397.5 128.6, 397.0 127.7 Q 396.5 126.8, 396.3 126.5 L 396.3 136.1 L 394.8 136.1 L 394.8 124.5 L 396.7 124.5 " fill="#000000"/>
<path class="atom-5" d="M 405.9 124.5 L 407.4 124.5 L 407.4 129.5 L 413.4 129.5 L 413.4 124.5 L 415.0 124.5 L 415.0 136.1 L 413.4 136.1 L 413.4 130.8 L 407.4 130.8 L 407.4 136.1 L 405.9 136.1 L 405.9 124.5 " fill="#000000"/>
<path class="atom-5" d="M 417.2 135.7 Q 417.5 135.0, 418.2 134.6 Q 418.9 134.2, 419.8 134.2 Q 421.0 134.2, 421.6 134.8 Q 422.3 135.4, 422.3 136.6 Q 422.3 137.7, 421.4 138.8 Q 420.6 139.8, 418.8 141.1 L 422.4 141.1 L 422.4 142.0 L 417.2 142.0 L 417.2 141.2 Q 418.7 140.2, 419.5 139.4 Q 420.4 138.7, 420.8 138.0 Q 421.2 137.3, 421.2 136.6 Q 421.2 135.9, 420.8 135.5 Q 420.4 135.1, 419.8 135.1 Q 419.2 135.1, 418.8 135.3 Q 418.4 135.6, 418.1 136.1 L 417.2 135.7 " fill="#000000"/>
<path class="atom-8" d="M 284.3 30.8 Q 284.3 28.0, 285.7 26.5 Q 287.1 24.9, 289.7 24.9 Q 292.2 24.9, 293.6 26.5 Q 295.0 28.0, 295.0 30.8 Q 295.0 33.6, 293.6 35.2 Q 292.2 36.8, 289.7 36.8 Q 287.1 36.8, 285.7 35.2 Q 284.3 33.7, 284.3 30.8 M 289.7 35.5 Q 291.4 35.5, 292.4 34.3 Q 293.4 33.1, 293.4 30.8 Q 293.4 28.5, 292.4 27.4 Q 291.4 26.2, 289.7 26.2 Q 287.9 26.2, 286.9 27.4 Q 286.0 28.5, 286.0 30.8 Q 286.0 33.2, 286.9 34.3 Q 287.9 35.5, 289.7 35.5 " fill="#000000"/>
<path class="atom-9" d="M 253.3 87.5 L 257.1 93.7 Q 257.5 94.3, 258.1 95.4 Q 258.7 96.5, 258.8 96.6 L 258.8 87.5 L 260.3 87.5 L 260.3 99.2 L 258.7 99.2 L 254.6 92.4 Q 254.1 91.7, 253.6 90.7 Q 253.1 89.8, 253.0 89.6 L 253.0 99.2 L 251.5 99.2 L 251.5 87.5 L 253.3 87.5 " fill="#000000"/>
<path class="atom-9" d="M 251.3 100.3 L 252.9 100.3 L 252.9 105.3 L 258.9 105.3 L 258.9 100.3 L 260.4 100.3 L 260.4 112.0 L 258.9 112.0 L 258.9 106.6 L 252.9 106.6 L 252.9 112.0 L 251.3 112.0 L 251.3 100.3 " fill="#000000"/>
<path class="atom-12" d="M 167.4 7.5 L 169.0 7.5 L 169.0 12.4 L 174.9 12.4 L 174.9 7.5 L 176.5 7.5 L 176.5 19.1 L 174.9 19.1 L 174.9 13.8 L 169.0 13.8 L 169.0 19.1 L 167.4 19.1 L 167.4 7.5 " fill="#000000"/>
<path class="atom-12" d="M 179.2 17.3 Q 179.3 17.4, 179.8 17.6 Q 180.4 17.8, 181.0 18.0 Q 181.6 18.1, 182.2 18.1 Q 183.3 18.1, 183.9 17.6 Q 184.5 17.0, 184.5 16.1 Q 184.5 15.5, 184.2 15.1 Q 183.9 14.7, 183.4 14.5 Q 182.9 14.3, 182.1 14.0 Q 181.1 13.7, 180.4 13.4 Q 179.8 13.1, 179.4 12.5 Q 179.0 11.9, 179.0 10.8 Q 179.0 9.3, 180.0 8.4 Q 181.0 7.5, 182.9 7.5 Q 184.3 7.5, 185.8 8.2 L 185.4 9.4 Q 184.0 8.9, 183.0 8.9 Q 181.8 8.9, 181.2 9.3 Q 180.6 9.8, 180.6 10.6 Q 180.6 11.2, 180.9 11.6 Q 181.2 12.0, 181.7 12.2 Q 182.2 12.4, 183.0 12.7 Q 184.0 13.0, 184.6 13.3 Q 185.3 13.6, 185.7 14.3 Q 186.2 15.0, 186.2 16.1 Q 186.2 17.7, 185.1 18.6 Q 184.0 19.4, 182.2 19.4 Q 181.2 19.4, 180.4 19.2 Q 179.6 19.0, 178.7 18.6 L 179.2 17.3 " fill="#000000"/>
<path class="atom-14" d="M 180.6 136.5 Q 180.6 133.7, 182.0 132.1 Q 183.4 130.6, 186.0 130.6 Q 188.6 130.6, 189.9 132.1 Q 191.3 133.7, 191.3 136.5 Q 191.3 139.3, 189.9 140.9 Q 188.5 142.5, 186.0 142.5 Q 183.4 142.5, 182.0 140.9 Q 180.6 139.3, 180.6 136.5 M 186.0 141.2 Q 187.8 141.2, 188.7 140.0 Q 189.7 138.8, 189.7 136.5 Q 189.7 134.2, 188.7 133.0 Q 187.8 131.9, 186.0 131.9 Q 184.2 131.9, 183.2 133.0 Q 182.3 134.2, 182.3 136.5 Q 182.3 138.8, 183.2 140.0 Q 184.2 141.2, 186.0 141.2 " fill="#000000"/>
<path class="atom-15" d="M 146.1 70.1 L 149.9 76.2 Q 150.3 76.8, 150.9 77.9 Q 151.5 79.0, 151.5 79.1 L 151.5 70.1 L 153.1 70.1 L 153.1 81.7 L 151.5 81.7 L 147.4 75.0 Q 146.9 74.2, 146.4 73.3 Q 145.9 72.4, 145.8 72.1 L 145.8 81.7 L 144.3 81.7 L 144.3 70.1 L 146.1 70.1 " fill="#000000"/>
<path class="atom-15" d="M 144.1 57.3 L 145.7 57.3 L 145.7 62.2 L 151.6 62.2 L 151.6 57.3 L 153.2 57.3 L 153.2 68.9 L 151.6 68.9 L 151.6 63.5 L 145.7 63.5 L 145.7 68.9 L 144.1 68.9 L 144.1 57.3 " fill="#000000"/>
<path class="atom-18" d="M 71.1 36.9 Q 71.1 34.1, 72.4 32.6 Q 73.8 31.0, 76.4 31.0 Q 79.0 31.0, 80.4 32.6 Q 81.7 34.1, 81.7 36.9 Q 81.7 39.8, 80.3 41.4 Q 79.0 43.0, 76.4 43.0 Q 73.8 43.0, 72.4 41.4 Q 71.1 39.8, 71.1 36.9 M 76.4 41.6 Q 78.2 41.6, 79.1 40.5 Q 80.1 39.3, 80.1 36.9 Q 80.1 34.6, 79.1 33.5 Q 78.2 32.3, 76.4 32.3 Q 74.6 32.3, 73.7 33.5 Q 72.7 34.6, 72.7 36.9 Q 72.7 39.3, 73.7 40.5 Q 74.6 41.6, 76.4 41.6 " fill="#000000"/>
<path class="atom-19" d="M 25.8 93.7 L 27.4 93.7 L 27.4 98.7 L 33.3 98.7 L 33.3 93.7 L 34.9 93.7 L 34.9 105.4 L 33.3 105.4 L 33.3 100.0 L 27.4 100.0 L 27.4 105.4 L 25.8 105.4 L 25.8 93.7 " fill="#000000"/>
<path class="atom-19" d="M 37.3 99.5 Q 37.3 96.7, 38.7 95.2 Q 40.0 93.6, 42.6 93.6 Q 45.2 93.6, 46.6 95.2 Q 48.0 96.7, 48.0 99.5 Q 48.0 102.3, 46.6 103.9 Q 45.2 105.5, 42.6 105.5 Q 40.1 105.5, 38.7 103.9 Q 37.3 102.3, 37.3 99.5 M 42.6 104.2 Q 44.4 104.2, 45.4 103.0 Q 46.3 101.8, 46.3 99.5 Q 46.3 97.2, 45.4 96.1 Q 44.4 94.9, 42.6 94.9 Q 40.9 94.9, 39.9 96.1 Q 38.9 97.2, 38.9 99.5 Q 38.9 101.9, 39.9 103.0 Q 40.9 104.2, 42.6 104.2 " fill="#000000"/>
</svg>