<?xml version='1.0' encoding='utf-8'?>
<svg xmlns="http://www.w3.org/2000/svg" xmlns:rdkit="http://www.rdkit.org/xml" xmlns:xlink="http://www.w3.org/1999/xlink" version="1.1" baseProfile="full" xml:space="preserve" width="512px" height="301px" viewBox="0 0 512 301">

<rect style="opacity:1.0;fill:#FFFFFF;stroke:none" width="512.0" height="301.0" x="0.0" y="0.0"> </rect>
<path class="bond-0 atom-0 atom-1" d="M 485.0,199.4 L 468.2,169.9" style="fill:none;fill-rule:evenodd;stroke:#000000;stroke-width:2.0px;stroke-linecap:butt;stroke-linejoin:miter;stroke-opacity:1"/>
<path class="bond-1 atom-1 atom-2" d="M 456.8,162.1 L 420.9,161.8" style="fill:none;fill-rule:evenodd;stroke:#000000;stroke-width:2.0px;stroke-linecap:butt;stroke-linejoin:miter;stroke-opacity:1"/>
<path class="bond-2 atom-2 atom-3" d="M 420.9,161.8 L 399.1,198.9" style="fill:none;fill-rule:evenodd;stroke:#000000;stroke-width:2.0px;stroke-linecap:butt;stroke-linejoin:miter;stroke-opacity:1"/>
<path class="bond-2 atom-2 atom-3" d="M 413.4,161.8 L 395.5,192.4" style="fill:none;fill-rule:evenodd;stroke:#000000;stroke-width:2.0px;stroke-linecap:butt;stroke-linejoin:miter;stroke-opacity:1"/>
<path class="bond-3 atom-3 atom-4" d="M 399.1,198.9 L 356.2,198.6" style="fill:none;fill-rule:evenodd;stroke:#000000;stroke-width:2.0px;stroke-linecap:butt;stroke-linejoin:miter;stroke-opacity:1"/>
<path class="bond-4 atom-4 atom-5" d="M 356.2,198.6 L 335.0,161.2" style="fill:none;fill-rule:evenodd;stroke:#000000;stroke-width:2.0px;stroke-linecap:butt;stroke-linejoin:miter;stroke-opacity:1"/>
<path class="bond-5 atom-5 atom-6" d="M 335.0,161.2 L 356.7,124.2" style="fill:none;fill-rule:evenodd;stroke:#000000;stroke-width:2.0px;stroke-linecap:butt;stroke-linejoin:miter;stroke-opacity:1"/>
<path class="bond-6 atom-6 atom-7" d="M 356.7,124.2 L 399.7,124.5" style="fill:none;fill-rule:evenodd;stroke:#000000;stroke-width:2.0px;stroke-linecap:butt;stroke-linejoin:miter;stroke-opacity:1"/>
<path class="bond-6 atom-6 atom-7" d="M 360.4,130.7 L 395.9,130.9" style="fill:none;fill-rule:evenodd;stroke:#000000;stroke-width:2.0px;stroke-linecap:butt;stroke-linejoin:miter;stroke-opacity:1"/>
<path class="bond-7 atom-7 atom-8" d="M 399.7,124.5 L 416.8,95.2" style="fill:none;fill-rule:evenodd;stroke:#000000;stroke-width:2.0px;stroke-linecap:butt;stroke-linejoin:miter;stroke-opacity:1"/>
<path class="bond-8 atom-8 atom-9" d="M 417.1,79.9 L 400.2,50.2" style="fill:none;fill-rule:evenodd;stroke:#000000;stroke-width:2.0px;stroke-linecap:butt;stroke-linejoin:miter;stroke-opacity:1"/>
<path class="bond-9 atom-5 atom-10" d="M 335.0,161.2 L 298.1,161.0" style="fill:none;fill-rule:evenodd;stroke:#000000;stroke-width:2.0px;stroke-linecap:butt;stroke-linejoin:miter;stroke-opacity:1"/>
<path class="bond-9 atom-5 atom-10" d="M 331.3,167.7 L 298.1,167.4" style="fill:none;fill-rule:evenodd;stroke:#000000;stroke-width:2.0px;stroke-linecap:butt;stroke-linejoin:miter;stroke-opacity:1"/>
<path class="bond-10 atom-10 atom-11" d="M 287.7,168.4 L 270.4,198.0" style="fill:none;fill-rule:evenodd;stroke:#000000;stroke-width:2.0px;stroke-linecap:butt;stroke-linejoin:miter;stroke-opacity:1"/>
<path class="bond-11 atom-11 atom-12" d="M 270.4,198.0 L 287.3,227.8" style="fill:none;fill-rule:evenodd;stroke:#000000;stroke-width:2.0px;stroke-linecap:butt;stroke-linejoin:miter;stroke-opacity:1"/>
<path class="bond-11 atom-11 atom-12" d="M 277.8,198.0 L 292.9,224.6" style="fill:none;fill-rule:evenodd;stroke:#000000;stroke-width:2.0px;stroke-linecap:butt;stroke-linejoin:miter;stroke-opacity:1"/>
<path class="bond-12 atom-12 atom-13" d="M 297.6,235.3 L 334.5,235.6" style="fill:none;fill-rule:evenodd;stroke:#000000;stroke-width:2.0px;stroke-linecap:butt;stroke-linejoin:miter;stroke-opacity:1"/>
<path class="bond-13 atom-13 atom-14" d="M 334.5,235.6 L 351.5,265.4" style="fill:none;fill-rule:evenodd;stroke:#000000;stroke-width:2.0px;stroke-linecap:butt;stroke-linejoin:miter;stroke-opacity:1"/>
<path class="bond-14 atom-11 atom-15" d="M 270.4,198.0 L 233.5,197.7" style="fill:none;fill-rule:evenodd;stroke:#000000;stroke-width:2.0px;stroke-linecap:butt;stroke-linejoin:miter;stroke-opacity:1"/>
<path class="bond-15 atom-15 atom-16" d="M 223.2,190.2 L 206.3,160.4" style="fill:none;fill-rule:evenodd;stroke:#000000;stroke-width:2.0px;stroke-linecap:butt;stroke-linejoin:miter;stroke-opacity:1"/>
<path class="bond-16 atom-16 atom-17" d="M 206.3,160.4 L 163.3,160.1" style="fill:none;fill-rule:evenodd;stroke:#000000;stroke-width:2.0px;stroke-linecap:butt;stroke-linejoin:miter;stroke-opacity:1"/>
<path class="bond-17 atom-17 atom-18" d="M 163.3,160.1 L 146.0,189.6" style="fill:none;fill-rule:evenodd;stroke:#000000;stroke-width:2.0px;stroke-linecap:butt;stroke-linejoin:miter;stroke-opacity:1"/>
<path class="bond-18 atom-18 atom-19" d="M 145.9,204.6 L 162.8,234.4" style="fill:none;fill-rule:evenodd;stroke:#000000;stroke-width:2.0px;stroke-linecap:butt;stroke-linejoin:miter;stroke-opacity:1"/>
<path class="bond-19 atom-19 atom-20" d="M 162.8,234.4 L 205.7,234.7" style="fill:none;fill-rule:evenodd;stroke:#000000;stroke-width:2.0px;stroke-linecap:butt;stroke-linejoin:miter;stroke-opacity:1"/>
<path class="bond-20 atom-18 atom-21" d="M 135.6,197.0 L 98.7,196.8" style="fill:none;fill-rule:evenodd;stroke:#000000;stroke-width:2.0px;stroke-linecap:butt;stroke-linejoin:miter;stroke-opacity:1"/>
<path class="bond-21 atom-21 atom-22" d="M 96.9,193.5 L 78.7,224.6" style="fill:none;fill-rule:evenodd;stroke:#000000;stroke-width:2.0px;stroke-linecap:butt;stroke-linejoin:miter;stroke-opacity:1"/>
<path class="bond-21 atom-21 atom-22" d="M 102.4,196.8 L 84.2,227.9" style="fill:none;fill-rule:evenodd;stroke:#000000;stroke-width:2.0px;stroke-linecap:butt;stroke-linejoin:miter;stroke-opacity:1"/>
<path class="bond-22 atom-21 atom-23" d="M 98.7,196.8 L 77.5,159.5" style="fill:none;fill-rule:evenodd;stroke:#000000;stroke-width:2.0px;stroke-linecap:butt;stroke-linejoin:miter;stroke-opacity:1"/>
<path class="bond-23 atom-23 atom-24" d="M 77.5,159.5 L 34.9,154.7" style="fill:none;fill-rule:evenodd;stroke:#000000;stroke-width:2.0px;stroke-linecap:butt;stroke-linejoin:miter;stroke-opacity:1"/>
<path class="bond-24 atom-24 atom-25" d="M 34.9,154.7 L 26.2,112.6" style="fill:none;fill-rule:evenodd;stroke:#000000;stroke-width:2.0px;stroke-linecap:butt;stroke-linejoin:miter;stroke-opacity:1"/>
<path class="bond-25 atom-25 atom-26" d="M 26.2,112.6 L 63.5,91.4" style="fill:none;fill-rule:evenodd;stroke:#000000;stroke-width:2.0px;stroke-linecap:butt;stroke-linejoin:miter;stroke-opacity:1"/>
<path class="bond-26 atom-26 atom-27" d="M 63.5,91.4 L 88.2,114.0" style="fill:none;fill-rule:evenodd;stroke:#000000;stroke-width:2.0px;stroke-linecap:butt;stroke-linejoin:miter;stroke-opacity:1"/>
<path class="bond-27 atom-7 atom-2" d="M 399.7,124.5 L 420.9,161.8" style="fill:none;fill-rule:evenodd;stroke:#000000;stroke-width:2.0px;stroke-linecap:butt;stroke-linejoin:miter;stroke-opacity:1"/>
<path class="bond-28 atom-13 atom-4" d="M 334.5,235.6 L 356.2,198.6" style="fill:none;fill-rule:evenodd;stroke:#000000;stroke-width:2.0px;stroke-linecap:butt;stroke-linejoin:miter;stroke-opacity:1"/>
<path class="bond-28 atom-13 atom-4" d="M 330.8,229.1 L 348.8,198.5" style="fill:none;fill-rule:evenodd;stroke:#000000;stroke-width:2.0px;stroke-linecap:butt;stroke-linejoin:miter;stroke-opacity:1"/>
<path class="bond-29 atom-20 atom-15" d="M 205.7,234.7 L 223.1,205.2" style="fill:none;fill-rule:evenodd;stroke:#000000;stroke-width:2.0px;stroke-linecap:butt;stroke-linejoin:miter;stroke-opacity:1"/>
<path class="bond-30 atom-27 atom-23" d="M 91.7,128.1 L 77.5,159.5" style="fill:none;fill-rule:evenodd;stroke:#000000;stroke-width:2.0px;stroke-linecap:butt;stroke-linejoin:miter;stroke-opacity:1"/>
<path d="M 400.2,197.0 L 399.1,198.9 L 397.0,198.8" style="fill:none;stroke:#000000;stroke-width:2.0px;stroke-linecap:butt;stroke-linejoin:miter;stroke-miterlimit:10;stroke-opacity:1;"/>
<path d="M 355.7,126.1 L 356.7,124.2 L 358.9,124.2" style="fill:none;stroke:#000000;stroke-width:2.0px;stroke-linecap:butt;stroke-linejoin:miter;stroke-miterlimit:10;stroke-opacity:1;"/>
<path d="M 207.1,161.8 L 206.3,160.4 L 204.1,160.3" style="fill:none;stroke:#000000;stroke-width:2.0px;stroke-linecap:butt;stroke-linejoin:miter;stroke-miterlimit:10;stroke-opacity:1;"/>
<path d="M 165.5,160.1 L 163.3,160.1 L 162.5,161.5" style="fill:none;stroke:#000000;stroke-width:2.0px;stroke-linecap:butt;stroke-linejoin:miter;stroke-miterlimit:10;stroke-opacity:1;"/>
<path d="M 162.0,232.9 L 162.8,234.4 L 165.0,234.4" style="fill:none;stroke:#000000;stroke-width:2.0px;stroke-linecap:butt;stroke-linejoin:miter;stroke-miterlimit:10;stroke-opacity:1;"/>
<path d="M 203.6,234.7 L 205.7,234.7 L 206.6,233.2" style="fill:none;stroke:#000000;stroke-width:2.0px;stroke-linecap:butt;stroke-linejoin:miter;stroke-miterlimit:10;stroke-opacity:1;"/>
<path d="M 100.6,196.8 L 98.7,196.8 L 97.6,194.9" style="fill:none;stroke:#000000;stroke-width:2.0px;stroke-linecap:butt;stroke-linejoin:miter;stroke-miterlimit:10;stroke-opacity:1;"/>
<path d="M 37.0,154.9 L 34.9,154.7 L 34.4,152.6" style="fill:none;stroke:#000000;stroke-width:2.0px;stroke-linecap:butt;stroke-linejoin:miter;stroke-miterlimit:10;stroke-opacity:1;"/>
<path d="M 26.7,114.7 L 26.2,112.6 L 28.1,111.6" style="fill:none;stroke:#000000;stroke-width:2.0px;stroke-linecap:butt;stroke-linejoin:miter;stroke-miterlimit:10;stroke-opacity:1;"/>
<path d="M 61.7,92.5 L 63.5,91.4 L 64.8,92.6" style="fill:none;stroke:#000000;stroke-width:2.0px;stroke-linecap:butt;stroke-linejoin:miter;stroke-miterlimit:10;stroke-opacity:1;"/>
<path class="atom-1" d="M 458.2 162.2 Q 458.2 159.2, 459.6 157.6 Q 461.1 156.0, 463.8 156.0 Q 466.5 156.0, 467.9 157.6 Q 469.4 159.2, 469.4 162.2 Q 469.4 165.1, 467.9 166.8 Q 466.4 168.5, 463.8 168.5 Q 461.1 168.5, 459.6 166.8 Q 458.2 165.1, 458.2 162.2 M 463.8 167.1 Q 465.6 167.1, 466.6 165.9 Q 467.6 164.6, 467.6 162.2 Q 467.6 159.8, 466.6 158.6 Q 465.6 157.4, 463.8 157.4 Q 461.9 157.4, 460.9 158.6 Q 459.9 159.8, 459.9 162.2 Q 459.9 164.6, 460.9 165.9 Q 461.9 167.1, 463.8 167.1 " fill="#000000"/>
<path class="atom-8" d="M 415.8 87.5 Q 415.8 84.6, 417.2 83.0 Q 418.7 81.3, 421.4 81.3 Q 424.1 81.3, 425.5 83.0 Q 427.0 84.6, 427.0 87.5 Q 427.0 90.5, 425.5 92.2 Q 424.0 93.8, 421.4 93.8 Q 418.7 93.8, 417.2 92.2 Q 415.8 90.5, 415.8 87.5 M 421.4 92.5 Q 423.2 92.5, 424.2 91.2 Q 425.2 90.0, 425.2 87.5 Q 425.2 85.1, 424.2 83.9 Q 423.2 82.7, 421.4 82.7 Q 419.5 82.7, 418.5 83.9 Q 417.5 85.1, 417.5 87.5 Q 417.5 90.0, 418.5 91.2 Q 419.5 92.5, 421.4 92.5 " fill="#000000"/>
<path class="atom-10" d="M 289.4 154.9 L 293.4 161.3 Q 293.8 161.9, 294.4 163.1 Q 295.1 164.2, 295.1 164.3 L 295.1 154.9 L 296.7 154.9 L 296.7 167.0 L 295.0 167.0 L 290.8 160.0 Q 290.3 159.2, 289.7 158.2 Q 289.2 157.3, 289.1 157.0 L 289.1 167.0 L 287.5 167.0 L 287.5 154.9 L 289.4 154.9 " fill="#000000"/>
<path class="atom-12" d="M 288.9 229.2 L 292.9 235.6 Q 293.3 236.3, 293.9 237.4 Q 294.5 238.6, 294.6 238.6 L 294.6 229.2 L 296.2 229.2 L 296.2 241.4 L 294.5 241.4 L 290.3 234.3 Q 289.8 233.5, 289.2 232.6 Q 288.7 231.6, 288.6 231.3 L 288.6 241.4 L 287.0 241.4 L 287.0 229.2 L 288.9 229.2 " fill="#000000"/>
<path class="atom-14" d="M 353.0 266.8 L 357.0 273.3 Q 357.4 273.9, 358.0 275.0 Q 358.7 276.2, 358.7 276.3 L 358.7 266.8 L 360.3 266.8 L 360.3 279.0 L 358.7 279.0 L 354.4 271.9 Q 353.9 271.1, 353.3 270.2 Q 352.8 269.2, 352.7 268.9 L 352.7 279.0 L 351.1 279.0 L 351.1 266.8 L 353.0 266.8 " fill="#000000"/>
<path class="atom-14" d="M 362.6 266.8 L 364.3 266.8 L 364.3 272.0 L 370.5 272.0 L 370.5 266.8 L 372.2 266.8 L 372.2 279.0 L 370.5 279.0 L 370.5 273.4 L 364.3 273.4 L 364.3 279.0 L 362.6 279.0 L 362.6 266.8 " fill="#000000"/>
<path class="atom-14" d="M 374.5 278.5 Q 374.8 277.8, 375.5 277.4 Q 376.2 276.9, 377.2 276.9 Q 378.4 276.9, 379.1 277.6 Q 379.8 278.3, 379.8 279.4 Q 379.8 280.6, 378.9 281.7 Q 378.0 282.8, 376.2 284.1 L 379.9 284.1 L 379.9 285.1 L 374.5 285.1 L 374.5 284.3 Q 376.0 283.2, 376.9 282.4 Q 377.8 281.6, 378.2 280.9 Q 378.6 280.2, 378.6 279.5 Q 378.6 278.7, 378.3 278.3 Q 377.9 277.8, 377.2 277.8 Q 376.6 277.8, 376.1 278.1 Q 375.7 278.4, 375.4 278.9 L 374.5 278.5 " fill="#000000"/>
<path class="atom-15" d="M 224.8 191.6 L 228.8 198.0 Q 229.2 198.7, 229.8 199.8 Q 230.4 201.0, 230.5 201.0 L 230.5 191.6 L 232.1 191.6 L 232.1 203.7 L 230.4 203.7 L 226.1 196.7 Q 225.6 195.9, 225.1 194.9 Q 224.6 194.0, 224.4 193.7 L 224.4 203.7 L 222.9 203.7 L 222.9 191.6 L 224.8 191.6 " fill="#000000"/>
<path class="atom-18" d="M 138.9 191.0 L 142.9 197.4 Q 143.3 198.1, 144.0 199.2 Q 144.6 200.4, 144.6 200.4 L 144.6 191.0 L 146.2 191.0 L 146.2 203.2 L 144.6 203.2 L 140.3 196.1 Q 139.8 195.3, 139.3 194.3 Q 138.8 193.4, 138.6 193.1 L 138.6 203.2 L 137.0 203.2 L 137.0 191.0 L 138.9 191.0 " fill="#000000"/>
<path class="atom-22" d="M 71.4 233.8 Q 71.4 230.9, 72.9 229.3 Q 74.3 227.7, 77.0 227.7 Q 79.7 227.7, 81.1 229.3 Q 82.6 230.9, 82.6 233.8 Q 82.6 236.8, 81.1 238.5 Q 79.7 240.1, 77.0 240.1 Q 74.3 240.1, 72.9 238.5 Q 71.4 236.8, 71.4 233.8 M 77.0 238.8 Q 78.8 238.8, 79.8 237.5 Q 80.9 236.3, 80.9 233.8 Q 80.9 231.4, 79.8 230.2 Q 78.8 229.0, 77.0 229.0 Q 75.1 229.0, 74.1 230.2 Q 73.1 231.4, 73.1 233.8 Q 73.1 236.3, 74.1 237.5 Q 75.1 238.8, 77.0 238.8 " fill="#000000"/>
<path class="atom-27" d="M 89.7 120.4 Q 89.7 117.5, 91.1 115.9 Q 92.5 114.2, 95.2 114.2 Q 97.9 114.2, 99.4 115.9 Q 100.8 117.5, 100.8 120.4 Q 100.8 123.4, 99.4 125.0 Q 97.9 126.7, 95.2 126.7 Q 92.6 126.7, 91.1 125.0 Q 89.7 123.4, 89.7 120.4 M 95.2 125.3 Q 97.1 125.3, 98.1 124.1 Q 99.1 122.8, 99.1 120.4 Q 99.1 118.0, 98.1 116.8 Q 97.1 115.6, 95.2 115.6 Q 93.4 115.6, 92.4 116.8 Q 91.4 118.0, 91.4 120.4 Q 91.4 122.9, 92.4 124.1 Q 93.4 125.3, 95.2 125.3 " fill="#000000"/>
<path class="atom-28" d="M 232.6 15.9 L 234.3 15.9 L 234.3 21.1 L 240.5 21.1 L 240.5 15.9 L 242.1 15.9 L 242.1 28.1 L 240.5 28.1 L 240.5 22.5 L 234.3 22.5 L 234.3 28.1 L 232.6 28.1 L 232.6 15.9 " fill="#000000"/>
<path class="atom-28" d="M 244.3 22.0 Q 244.3 19.0, 245.7 17.4 Q 247.1 15.8, 249.8 15.8 Q 252.3 15.8, 253.6 17.6 L 252.5 18.5 Q 251.5 17.2, 249.8 17.2 Q 248.0 17.2, 247.0 18.4 Q 246.0 19.7, 246.0 22.0 Q 246.0 24.4, 247.0 25.6 Q 248.0 26.9, 250.0 26.9 Q 251.3 26.9, 252.9 26.1 L 253.4 27.3 Q 252.7 27.8, 251.8 28.0 Q 250.8 28.2, 249.7 28.2 Q 247.1 28.2, 245.7 26.6 Q 244.3 25.0, 244.3 22.0 " fill="#000000"/>
<path class="atom-28" d="M 255.0 15.0 L 256.6 15.0 L 256.6 28.1 L 255.0 28.1 L 255.0 15.0 " fill="#000000"/>
</svg>