<?xml version='1.0' encoding='utf-8'?>
<svg xmlns="http://www.w3.org/2000/svg" xmlns:rdkit="http://www.rdkit.org/xml" xmlns:xlink="http://www.w3.org/1999/xlink" version="1.1" baseProfile="full" xml:space="preserve" width="512px" height="435px" viewBox="0 0 512 435">

<rect style="opacity:1.0;fill:#FFFFFF;stroke:none" width="512.0" height="435.0" x="0.0" y="0.0"> </rect>
<path class="bond-0 atom-0 atom-1" d="M 422.5,412.8 L 440.7,369.9" style="fill:none;fill-rule:evenodd;stroke:#000000;stroke-width:2.0px;stroke-linecap:butt;stroke-linejoin:miter;stroke-opacity:1"/>
<path class="bond-1 atom-1 atom-2" d="M 440.7,369.9 L 412.7,332.8" style="fill:none;fill-rule:evenodd;stroke:#000000;stroke-width:2.0px;stroke-linecap:butt;stroke-linejoin:miter;stroke-opacity:1"/>
<path class="bond-2 atom-2 atom-3" d="M 412.7,332.8 L 430.9,290.0" style="fill:none;fill-rule:evenodd;stroke:#000000;stroke-width:2.0px;stroke-linecap:butt;stroke-linejoin:miter;stroke-opacity:1"/>
<path class="bond-3 atom-3 atom-4" d="M 430.9,290.0 L 402.9,252.8" style="fill:none;fill-rule:evenodd;stroke:#000000;stroke-width:2.0px;stroke-linecap:butt;stroke-linejoin:miter;stroke-opacity:1"/>
<path class="bond-4 atom-4 atom-5" d="M 402.9,252.8 L 421.0,210.0" style="fill:none;fill-rule:evenodd;stroke:#000000;stroke-width:2.0px;stroke-linecap:butt;stroke-linejoin:miter;stroke-opacity:1"/>
<path class="bond-5 atom-5 atom-6" d="M 421.0,210.0 L 393.0,172.9" style="fill:none;fill-rule:evenodd;stroke:#000000;stroke-width:2.0px;stroke-linecap:butt;stroke-linejoin:miter;stroke-opacity:1"/>
<path class="bond-6 atom-6 atom-7" d="M 393.0,172.9 L 411.2,130.0" style="fill:none;fill-rule:evenodd;stroke:#000000;stroke-width:2.0px;stroke-linecap:butt;stroke-linejoin:miter;stroke-opacity:1"/>
<path class="bond-6 atom-6 atom-7" d="M 401.0,171.9 L 417.6,132.8" style="fill:none;fill-rule:evenodd;stroke:#000000;stroke-width:2.0px;stroke-linecap:butt;stroke-linejoin:miter;stroke-opacity:1"/>
<path class="bond-7 atom-7 atom-8" d="M 411.2,130.0 L 383.2,92.9" style="fill:none;fill-rule:evenodd;stroke:#000000;stroke-width:2.0px;stroke-linecap:butt;stroke-linejoin:miter;stroke-opacity:1"/>
<path class="bond-8 atom-8 atom-9" d="M 383.2,92.9 L 396.8,48.4" style="fill:none;fill-rule:evenodd;stroke:#000000;stroke-width:2.0px;stroke-linecap:butt;stroke-linejoin:miter;stroke-opacity:1"/>
<path class="bond-9 atom-9 atom-10" d="M 396.8,48.4 L 358.7,21.8" style="fill:none;fill-rule:evenodd;stroke:#000000;stroke-width:2.0px;stroke-linecap:butt;stroke-linejoin:miter;stroke-opacity:1"/>
<path class="bond-10 atom-10 atom-11" d="M 358.7,21.8 L 321.5,49.7" style="fill:none;fill-rule:evenodd;stroke:#000000;stroke-width:2.0px;stroke-linecap:butt;stroke-linejoin:miter;stroke-opacity:1"/>
<path class="bond-11 atom-11 atom-12" d="M 325.0,47.2 L 285.7,35.1" style="fill:none;fill-rule:evenodd;stroke:#000000;stroke-width:2.0px;stroke-linecap:butt;stroke-linejoin:miter;stroke-opacity:1"/>
<path class="bond-11 atom-11 atom-12" d="M 323.0,53.8 L 283.6,41.8" style="fill:none;fill-rule:evenodd;stroke:#000000;stroke-width:2.0px;stroke-linecap:butt;stroke-linejoin:miter;stroke-opacity:1"/>
<path class="bond-12 atom-11 atom-13" d="M 321.5,49.7 L 336.7,93.7" style="fill:none;fill-rule:evenodd;stroke:#000000;stroke-width:2.0px;stroke-linecap:butt;stroke-linejoin:miter;stroke-opacity:1"/>
<path class="bond-13 atom-13 atom-14" d="M 336.7,93.7 L 310.0,131.8" style="fill:none;fill-rule:evenodd;stroke:#000000;stroke-width:2.0px;stroke-linecap:butt;stroke-linejoin:miter;stroke-opacity:1"/>
<path class="bond-14 atom-14 atom-15" d="M 310.0,131.8 L 263.7,127.8" style="fill:none;fill-rule:evenodd;stroke:#000000;stroke-width:2.0px;stroke-linecap:butt;stroke-linejoin:miter;stroke-opacity:1"/>
<path class="bond-15 atom-15 atom-16" d="M 263.7,127.8 L 237.0,165.9" style="fill:none;fill-rule:evenodd;stroke:#000000;stroke-width:2.0px;stroke-linecap:butt;stroke-linejoin:miter;stroke-opacity:1"/>
<path class="bond-16 atom-16 atom-17" d="M 237.0,165.9 L 190.7,161.8" style="fill:none;fill-rule:evenodd;stroke:#000000;stroke-width:2.0px;stroke-linecap:butt;stroke-linejoin:miter;stroke-opacity:1"/>
<path class="bond-17 atom-17 atom-18" d="M 190.7,161.8 L 164.0,199.9" style="fill:none;fill-rule:evenodd;stroke:#000000;stroke-width:2.0px;stroke-linecap:butt;stroke-linejoin:miter;stroke-opacity:1"/>
<path class="bond-18 atom-18 atom-19" d="M 164.0,199.9 L 117.7,195.9" style="fill:none;fill-rule:evenodd;stroke:#000000;stroke-width:2.0px;stroke-linecap:butt;stroke-linejoin:miter;stroke-opacity:1"/>
<path class="bond-19 atom-19 atom-20" d="M 117.7,195.9 L 91.0,234.0" style="fill:none;fill-rule:evenodd;stroke:#000000;stroke-width:2.0px;stroke-linecap:butt;stroke-linejoin:miter;stroke-opacity:1"/>
<path class="bond-20 atom-20 atom-21" d="M 87.0,233.6 L 103.7,269.4" style="fill:none;fill-rule:evenodd;stroke:#000000;stroke-width:2.0px;stroke-linecap:butt;stroke-linejoin:miter;stroke-opacity:1"/>
<path class="bond-20 atom-20 atom-21" d="M 93.3,230.7 L 110.0,266.5" style="fill:none;fill-rule:evenodd;stroke:#000000;stroke-width:2.0px;stroke-linecap:butt;stroke-linejoin:miter;stroke-opacity:1"/>
<path class="bond-21 atom-20 atom-22" d="M 91.0,234.0 L 52.2,230.6" style="fill:none;fill-rule:evenodd;stroke:#000000;stroke-width:2.0px;stroke-linecap:butt;stroke-linejoin:miter;stroke-opacity:1"/>
<path class="bond-22 atom-9 atom-23" d="M 396.8,48.4 L 433.2,35.9" style="fill:none;fill-rule:evenodd;stroke:#000000;stroke-width:2.0px;stroke-linecap:butt;stroke-linejoin:miter;stroke-opacity:1"/>
<path class="bond-23 atom-5 atom-24" d="M 421.0,210.0 L 459.6,205.3" style="fill:none;fill-rule:evenodd;stroke:#000000;stroke-width:2.0px;stroke-linecap:butt;stroke-linejoin:miter;stroke-opacity:1"/>
<path class="bond-24 atom-13 atom-8" d="M 336.7,93.7 L 383.2,92.9" style="fill:none;fill-rule:evenodd;stroke:#000000;stroke-width:2.0px;stroke-linecap:butt;stroke-linejoin:miter;stroke-opacity:1"/>
<path d="M 439.8,372.1 L 440.7,369.9 L 439.3,368.1" style="fill:none;stroke:#000000;stroke-width:2.0px;stroke-linecap:butt;stroke-linejoin:miter;stroke-miterlimit:10;stroke-opacity:1;"/>
<path d="M 414.1,334.6 L 412.7,332.8 L 413.6,330.6" style="fill:none;stroke:#000000;stroke-width:2.0px;stroke-linecap:butt;stroke-linejoin:miter;stroke-miterlimit:10;stroke-opacity:1;"/>
<path d="M 429.9,292.1 L 430.9,290.0 L 429.5,288.1" style="fill:none;stroke:#000000;stroke-width:2.0px;stroke-linecap:butt;stroke-linejoin:miter;stroke-miterlimit:10;stroke-opacity:1;"/>
<path d="M 404.3,254.7 L 402.9,252.8 L 403.8,250.7" style="fill:none;stroke:#000000;stroke-width:2.0px;stroke-linecap:butt;stroke-linejoin:miter;stroke-miterlimit:10;stroke-opacity:1;"/>
<path d="M 394.4,174.7 L 393.0,172.9 L 393.9,170.7" style="fill:none;stroke:#000000;stroke-width:2.0px;stroke-linecap:butt;stroke-linejoin:miter;stroke-miterlimit:10;stroke-opacity:1;"/>
<path d="M 410.3,132.2 L 411.2,130.0 L 409.8,128.2" style="fill:none;stroke:#000000;stroke-width:2.0px;stroke-linecap:butt;stroke-linejoin:miter;stroke-miterlimit:10;stroke-opacity:1;"/>
<path d="M 360.6,23.1 L 358.7,21.8 L 356.8,23.1" style="fill:none;stroke:#000000;stroke-width:2.0px;stroke-linecap:butt;stroke-linejoin:miter;stroke-miterlimit:10;stroke-opacity:1;"/>
<path d="M 323.4,48.3 L 321.5,49.7 L 322.3,51.9" style="fill:none;stroke:#000000;stroke-width:2.0px;stroke-linecap:butt;stroke-linejoin:miter;stroke-miterlimit:10;stroke-opacity:1;"/>
<path d="M 311.4,129.9 L 310.0,131.8 L 307.7,131.6" style="fill:none;stroke:#000000;stroke-width:2.0px;stroke-linecap:butt;stroke-linejoin:miter;stroke-miterlimit:10;stroke-opacity:1;"/>
<path d="M 266.0,128.0 L 263.7,127.8 L 262.4,129.7" style="fill:none;stroke:#000000;stroke-width:2.0px;stroke-linecap:butt;stroke-linejoin:miter;stroke-miterlimit:10;stroke-opacity:1;"/>
<path d="M 238.3,164.0 L 237.0,165.9 L 234.7,165.7" style="fill:none;stroke:#000000;stroke-width:2.0px;stroke-linecap:butt;stroke-linejoin:miter;stroke-miterlimit:10;stroke-opacity:1;"/>
<path d="M 193.0,162.0 L 190.7,161.8 L 189.3,163.7" style="fill:none;stroke:#000000;stroke-width:2.0px;stroke-linecap:butt;stroke-linejoin:miter;stroke-miterlimit:10;stroke-opacity:1;"/>
<path d="M 165.3,198.0 L 164.0,199.9 L 161.7,199.7" style="fill:none;stroke:#000000;stroke-width:2.0px;stroke-linecap:butt;stroke-linejoin:miter;stroke-miterlimit:10;stroke-opacity:1;"/>
<path d="M 120.0,196.1 L 117.7,195.9 L 116.3,197.8" style="fill:none;stroke:#000000;stroke-width:2.0px;stroke-linecap:butt;stroke-linejoin:miter;stroke-miterlimit:10;stroke-opacity:1;"/>
<path d="M 92.3,232.1 L 91.0,234.0 L 89.1,233.8" style="fill:none;stroke:#000000;stroke-width:2.0px;stroke-linecap:butt;stroke-linejoin:miter;stroke-miterlimit:10;stroke-opacity:1;"/>
<path class="atom-12" d="M 271.0 36.2 Q 271.0 33.0, 272.6 31.3 Q 274.1 29.5, 277.1 29.5 Q 280.0 29.5, 281.6 31.3 Q 283.1 33.0, 283.1 36.2 Q 283.1 39.4, 281.5 41.2 Q 280.0 43.0, 277.1 43.0 Q 274.2 43.0, 272.6 41.2 Q 271.0 39.4, 271.0 36.2 M 277.1 41.5 Q 279.1 41.5, 280.2 40.2 Q 281.3 38.8, 281.3 36.2 Q 281.3 33.6, 280.2 32.3 Q 279.1 31.0, 277.1 31.0 Q 275.1 31.0, 274.0 32.3 Q 272.9 33.6, 272.9 36.2 Q 272.9 38.9, 274.0 40.2 Q 275.1 41.5, 277.1 41.5 " fill="#000000"/>
<path class="atom-21" d="M 104.6 276.2 Q 104.6 273.0, 106.2 271.3 Q 107.7 269.5, 110.7 269.5 Q 113.6 269.5, 115.1 271.3 Q 116.7 273.0, 116.7 276.2 Q 116.7 279.4, 115.1 281.2 Q 113.5 283.0, 110.7 283.0 Q 107.8 283.0, 106.2 281.2 Q 104.6 279.4, 104.6 276.2 M 110.7 281.5 Q 112.7 281.5, 113.7 280.2 Q 114.8 278.8, 114.8 276.2 Q 114.8 273.6, 113.7 272.3 Q 112.7 271.0, 110.7 271.0 Q 108.6 271.0, 107.5 272.3 Q 106.5 273.6, 106.5 276.2 Q 106.5 278.8, 107.5 280.2 Q 108.6 281.5, 110.7 281.5 " fill="#000000"/>
<path class="atom-22" d="M 25.6 223.4 L 27.4 223.4 L 27.4 229.0 L 34.1 229.0 L 34.1 223.4 L 35.9 223.4 L 35.9 236.6 L 34.1 236.6 L 34.1 230.5 L 27.4 230.5 L 27.4 236.6 L 25.6 236.6 L 25.6 223.4 " fill="#000000"/>
<path class="atom-22" d="M 38.6 230.0 Q 38.6 226.8, 40.2 225.1 Q 41.7 223.3, 44.7 223.3 Q 47.6 223.3, 49.1 225.1 Q 50.7 226.8, 50.7 230.0 Q 50.7 233.2, 49.1 235.0 Q 47.5 236.8, 44.7 236.8 Q 41.8 236.8, 40.2 235.0 Q 38.6 233.2, 38.6 230.0 M 44.7 235.3 Q 46.7 235.3, 47.7 234.0 Q 48.8 232.6, 48.8 230.0 Q 48.8 227.4, 47.7 226.1 Q 46.7 224.8, 44.7 224.8 Q 42.6 224.8, 41.5 226.1 Q 40.5 227.4, 40.5 230.0 Q 40.5 232.6, 41.5 234.0 Q 42.6 235.3, 44.7 235.3 " fill="#000000"/>
<path class="atom-23" d="M 434.7 33.3 Q 434.7 30.1, 436.3 28.4 Q 437.9 26.6, 440.8 26.6 Q 443.7 26.6, 445.3 28.4 Q 446.8 30.1, 446.8 33.3 Q 446.8 36.5, 445.2 38.3 Q 443.7 40.1, 440.8 40.1 Q 437.9 40.1, 436.3 38.3 Q 434.7 36.5, 434.7 33.3 M 440.8 38.7 Q 442.8 38.7, 443.9 37.3 Q 445.0 36.0, 445.0 33.3 Q 445.0 30.7, 443.9 29.4 Q 442.8 28.1, 440.8 28.1 Q 438.8 28.1, 437.7 29.4 Q 436.6 30.7, 436.6 33.3 Q 436.6 36.0, 437.7 37.3 Q 438.8 38.7, 440.8 38.7 " fill="#000000"/>
<path class="atom-23" d="M 448.9 26.8 L 450.7 26.8 L 450.7 32.4 L 457.4 32.4 L 457.4 26.8 L 459.2 26.8 L 459.2 39.9 L 457.4 39.9 L 457.4 33.9 L 450.7 33.9 L 450.7 39.9 L 448.9 39.9 L 448.9 26.8 " fill="#000000"/>
<path class="atom-24" d="M 461.1 204.4 Q 461.1 201.2, 462.7 199.4 Q 464.3 197.7, 467.2 197.7 Q 470.1 197.7, 471.7 199.4 Q 473.2 201.2, 473.2 204.4 Q 473.2 207.6, 471.7 209.4 Q 470.1 211.2, 467.2 211.2 Q 464.3 211.2, 462.7 209.4 Q 461.1 207.6, 461.1 204.4 M 467.2 209.7 Q 469.2 209.7, 470.3 208.4 Q 471.4 207.0, 471.4 204.4 Q 471.4 201.8, 470.3 200.5 Q 469.2 199.2, 467.2 199.2 Q 465.2 199.2, 464.1 200.5 Q 463.0 201.8, 463.0 204.4 Q 463.0 207.0, 464.1 208.4 Q 465.2 209.7, 467.2 209.7 " fill="#000000"/>
<path class="atom-24" d="M 475.3 197.8 L 477.1 197.8 L 477.1 203.4 L 483.8 203.4 L 483.8 197.8 L 485.6 197.8 L 485.6 211.0 L 483.8 211.0 L 483.8 204.9 L 477.1 204.9 L 477.1 211.0 L 475.3 211.0 L 475.3 197.8 " fill="#000000"/>
</svg>