<?xml version='1.0' encoding='utf-8'?>
<svg xmlns="http://www.w3.org/2000/svg" xmlns:rdkit="http://www.rdkit.org/xml" xmlns:xlink="http://www.w3.org/1999/xlink" version="1.1" baseProfile="full" xml:space="preserve" width="512px" height="289px" viewBox="0 0 512 289">

<rect style="opacity:1.0;fill:#FFFFFF;stroke:none" width="512.0" height="289.0" x="0.0" y="0.0"> </rect>
<path class="bond-0 atom-0 atom-1" d="M 38.6,107.8 L 164.5,35.2" style="fill:none;fill-rule:evenodd;stroke:#000000;stroke-width:2.0px;stroke-linecap:butt;stroke-linejoin:miter;stroke-opacity:1"/>
<path class="bond-0 atom-0 atom-1" d="M 49.5,126.7 L 164.5,60.3" style="fill:none;fill-rule:evenodd;stroke:#000000;stroke-width:2.0px;stroke-linecap:butt;stroke-linejoin:miter;stroke-opacity:1"/>
<path class="bond-1 atom-1 atom-2" d="M 164.5,35.2 L 290.3,107.8" style="fill:none;fill-rule:evenodd;stroke:#000000;stroke-width:2.0px;stroke-linecap:butt;stroke-linejoin:miter;stroke-opacity:1"/>
<path class="bond-2 atom-2 atom-3" d="M 290.3,107.8 L 400.6,44.1" style="fill:none;fill-rule:evenodd;stroke:#000000;stroke-width:2.0px;stroke-linecap:butt;stroke-linejoin:miter;stroke-opacity:1"/>
<path class="bond-3 atom-2 atom-4" d="M 279.4,101.5 L 279.4,234.0" style="fill:none;fill-rule:evenodd;stroke:#000000;stroke-width:2.0px;stroke-linecap:butt;stroke-linejoin:miter;stroke-opacity:1"/>
<path class="bond-3 atom-2 atom-4" d="M 301.2,101.5 L 301.2,234.0" style="fill:none;fill-rule:evenodd;stroke:#000000;stroke-width:2.0px;stroke-linecap:butt;stroke-linejoin:miter;stroke-opacity:1"/>
<path d="M 158.2,38.8 L 164.5,35.2 L 170.8,38.8" style="fill:none;stroke:#000000;stroke-width:2.0px;stroke-linecap:butt;stroke-linejoin:miter;stroke-miterlimit:10;stroke-opacity:1;"/>
<path d="M 284.0,104.2 L 290.3,107.8 L 295.8,104.6" style="fill:none;stroke:#000000;stroke-width:2.0px;stroke-linecap:butt;stroke-linejoin:miter;stroke-miterlimit:10;stroke-opacity:1;"/>
<path class="atom-3" d="M 409.9 21.0 L 419.2 36.0 Q 420.1 37.5, 421.6 40.2 Q 423.1 42.8, 423.2 43.0 L 423.2 21.0 L 426.9 21.0 L 426.9 49.3 L 423.0 49.3 L 413.1 32.9 Q 411.9 31.0, 410.7 28.8 Q 409.5 26.6, 409.1 25.9 L 409.1 49.3 L 405.4 49.3 L 405.4 21.0 L 409.9 21.0 " fill="#000000"/>
<path class="atom-3" d="M 432.3 21.0 L 436.2 21.0 L 436.2 33.0 L 450.6 33.0 L 450.6 21.0 L 454.5 21.0 L 454.5 49.3 L 450.6 49.3 L 450.6 36.2 L 436.2 36.2 L 436.2 49.3 L 432.3 49.3 L 432.3 21.0 " fill="#000000"/>
<path class="atom-3" d="M 460.0 48.3 Q 460.7 46.6, 462.4 45.6 Q 464.0 44.6, 466.3 44.6 Q 469.1 44.6, 470.7 46.1 Q 472.3 47.6, 472.3 50.4 Q 472.3 53.1, 470.2 55.7 Q 468.2 58.3, 463.9 61.4 L 472.6 61.4 L 472.6 63.5 L 460.0 63.5 L 460.0 61.7 Q 463.5 59.2, 465.5 57.4 Q 467.6 55.5, 468.6 53.9 Q 469.6 52.2, 469.6 50.5 Q 469.6 48.7, 468.7 47.7 Q 467.8 46.7, 466.3 46.7 Q 464.8 46.7, 463.8 47.3 Q 462.7 47.9, 462.0 49.3 L 460.0 48.3 " fill="#000000"/>
<path class="atom-4" d="M 277.3 253.2 Q 277.3 246.4, 280.7 242.6 Q 284.0 238.8, 290.3 238.8 Q 296.6 238.8, 300.0 242.6 Q 303.3 246.4, 303.3 253.2 Q 303.3 260.1, 299.9 264.0 Q 296.5 267.9, 290.3 267.9 Q 284.1 267.9, 280.7 264.0 Q 277.3 260.1, 277.3 253.2 M 290.3 264.7 Q 294.6 264.7, 297.0 261.8 Q 299.3 258.9, 299.3 253.2 Q 299.3 247.7, 297.0 244.9 Q 294.6 242.0, 290.3 242.0 Q 286.0 242.0, 283.6 244.8 Q 281.3 247.6, 281.3 253.2 Q 281.3 258.9, 283.6 261.8 Q 286.0 264.7, 290.3 264.7 " fill="#000000"/>
</svg>