<?xml version='1.0' encoding='utf-8'?>
<svg xmlns="http://www.w3.org/2000/svg" xmlns:rdkit="http://www.rdkit.org/xml" xmlns:xlink="http://www.w3.org/1999/xlink" version="1.1" baseProfile="full" xml:space="preserve" width="512px" height="342px" viewBox="0 0 512 342">

<rect style="opacity:1.0;fill:#FFFFFF;stroke:none" width="512.0" height="342.0" x="0.0" y="0.0"> </rect>
<path class="bond-0 atom-0 atom-1" d="M 485.3,242.6 L 479.1,206.5" style="fill:none;fill-rule:evenodd;stroke:#000000;stroke-width:2.0px;stroke-linecap:butt;stroke-linejoin:miter;stroke-opacity:1"/>
<path class="bond-1 atom-1 atom-2" d="M 470.4,195.7 L 435.6,182.9" style="fill:none;fill-rule:evenodd;stroke:#000000;stroke-width:2.0px;stroke-linecap:butt;stroke-linejoin:miter;stroke-opacity:1"/>
<path class="bond-2 atom-2 atom-3" d="M 435.6,182.9 L 401.2,211.6" style="fill:none;fill-rule:evenodd;stroke:#000000;stroke-width:2.0px;stroke-linecap:butt;stroke-linejoin:miter;stroke-opacity:1"/>
<path class="bond-3 atom-3 atom-4" d="M 401.2,211.6 L 359.1,196.1" style="fill:none;fill-rule:evenodd;stroke:#000000;stroke-width:2.0px;stroke-linecap:butt;stroke-linejoin:miter;stroke-opacity:1"/>
<path class="bond-3 atom-3 atom-4" d="M 399.9,204.0 L 365.1,191.2" style="fill:none;fill-rule:evenodd;stroke:#000000;stroke-width:2.0px;stroke-linecap:butt;stroke-linejoin:miter;stroke-opacity:1"/>
<path class="bond-4 atom-4 atom-5" d="M 359.1,196.1 L 351.5,151.9" style="fill:none;fill-rule:evenodd;stroke:#000000;stroke-width:2.0px;stroke-linecap:butt;stroke-linejoin:miter;stroke-opacity:1"/>
<path class="bond-5 atom-5 atom-6" d="M 351.5,151.9 L 385.9,123.2" style="fill:none;fill-rule:evenodd;stroke:#000000;stroke-width:2.0px;stroke-linecap:butt;stroke-linejoin:miter;stroke-opacity:1"/>
<path class="bond-5 atom-5 atom-6" d="M 358.8,154.6 L 387.3,130.9" style="fill:none;fill-rule:evenodd;stroke:#000000;stroke-width:2.0px;stroke-linecap:butt;stroke-linejoin:miter;stroke-opacity:1"/>
<path class="bond-6 atom-6 atom-7" d="M 385.9,123.2 L 428.0,138.7" style="fill:none;fill-rule:evenodd;stroke:#000000;stroke-width:2.0px;stroke-linecap:butt;stroke-linejoin:miter;stroke-opacity:1"/>
<path class="bond-7 atom-7 atom-8" d="M 428.0,138.7 L 456.1,115.3" style="fill:none;fill-rule:evenodd;stroke:#000000;stroke-width:2.0px;stroke-linecap:butt;stroke-linejoin:miter;stroke-opacity:1"/>
<path class="bond-8 atom-5 atom-9" d="M 351.5,151.9 L 309.4,136.4" style="fill:none;fill-rule:evenodd;stroke:#000000;stroke-width:2.0px;stroke-linecap:butt;stroke-linejoin:miter;stroke-opacity:1"/>
<path class="bond-9 atom-9 atom-10" d="M 309.4,136.4 L 303.1,100.1" style="fill:none;fill-rule:evenodd;stroke:#000000;stroke-width:2.0px;stroke-linecap:butt;stroke-linejoin:miter;stroke-opacity:1"/>
<path class="bond-10 atom-10 atom-11" d="M 295.5,89.9 L 259.7,76.8" style="fill:none;fill-rule:evenodd;stroke:#000000;stroke-width:2.0px;stroke-linecap:butt;stroke-linejoin:miter;stroke-opacity:1"/>
<path class="bond-11 atom-11 atom-12" d="M 259.7,76.8 L 253.4,40.4" style="fill:none;fill-rule:evenodd;stroke:#000000;stroke-width:2.0px;stroke-linecap:butt;stroke-linejoin:miter;stroke-opacity:1"/>
<path class="bond-12 atom-12 atom-13" d="M 245.8,30.3 L 210.0,17.1" style="fill:none;fill-rule:evenodd;stroke:#000000;stroke-width:2.0px;stroke-linecap:butt;stroke-linejoin:miter;stroke-opacity:1"/>
<path class="bond-12 atom-12 atom-13" d="M 243.5,36.6 L 211.3,24.8" style="fill:none;fill-rule:evenodd;stroke:#000000;stroke-width:2.0px;stroke-linecap:butt;stroke-linejoin:miter;stroke-opacity:1"/>
<path class="bond-13 atom-13 atom-14" d="M 210.0,17.1 L 181.8,40.6" style="fill:none;fill-rule:evenodd;stroke:#000000;stroke-width:2.0px;stroke-linecap:butt;stroke-linejoin:miter;stroke-opacity:1"/>
<path class="bond-14 atom-14 atom-15" d="M 176.9,53.6 L 183.2,90.0" style="fill:none;fill-rule:evenodd;stroke:#000000;stroke-width:2.0px;stroke-linecap:butt;stroke-linejoin:miter;stroke-opacity:1"/>
<path class="bond-14 atom-14 atom-15" d="M 183.5,52.5 L 189.1,85.0" style="fill:none;fill-rule:evenodd;stroke:#000000;stroke-width:2.0px;stroke-linecap:butt;stroke-linejoin:miter;stroke-opacity:1"/>
<path class="bond-15 atom-15 atom-16" d="M 183.2,90.0 L 225.3,105.5" style="fill:none;fill-rule:evenodd;stroke:#000000;stroke-width:2.0px;stroke-linecap:butt;stroke-linejoin:miter;stroke-opacity:1"/>
<path class="bond-16 atom-16 atom-17" d="M 225.3,105.5 L 232.9,149.7" style="fill:none;fill-rule:evenodd;stroke:#000000;stroke-width:2.0px;stroke-linecap:butt;stroke-linejoin:miter;stroke-opacity:1"/>
<path class="bond-17 atom-17 atom-18" d="M 229.9,152.1 L 266.5,165.6" style="fill:none;fill-rule:evenodd;stroke:#000000;stroke-width:2.0px;stroke-linecap:butt;stroke-linejoin:miter;stroke-opacity:1"/>
<path class="bond-17 atom-17 atom-18" d="M 232.2,145.8 L 268.8,159.3" style="fill:none;fill-rule:evenodd;stroke:#000000;stroke-width:2.0px;stroke-linecap:butt;stroke-linejoin:miter;stroke-opacity:1"/>
<path class="bond-18 atom-17 atom-19" d="M 232.9,149.7 L 204.7,173.1" style="fill:none;fill-rule:evenodd;stroke:#000000;stroke-width:2.0px;stroke-linecap:butt;stroke-linejoin:miter;stroke-opacity:1"/>
<path class="bond-19 atom-19 atom-20" d="M 199.8,186.2 L 206.0,222.5" style="fill:none;fill-rule:evenodd;stroke:#000000;stroke-width:2.0px;stroke-linecap:butt;stroke-linejoin:miter;stroke-opacity:1"/>
<path class="bond-20 atom-20 atom-21" d="M 206.0,222.5 L 171.6,251.2" style="fill:none;fill-rule:evenodd;stroke:#000000;stroke-width:2.0px;stroke-linecap:butt;stroke-linejoin:miter;stroke-opacity:1"/>
<path class="bond-21 atom-21 atom-22" d="M 171.6,251.2 L 135.8,238.1" style="fill:none;fill-rule:evenodd;stroke:#000000;stroke-width:2.0px;stroke-linecap:butt;stroke-linejoin:miter;stroke-opacity:1"/>
<path class="bond-21 atom-21 atom-22" d="M 165.6,256.2 L 133.5,244.4" style="fill:none;fill-rule:evenodd;stroke:#000000;stroke-width:2.0px;stroke-linecap:butt;stroke-linejoin:miter;stroke-opacity:1"/>
<path class="bond-22 atom-22 atom-23" d="M 123.2,241.0 L 95.1,264.4" style="fill:none;fill-rule:evenodd;stroke:#000000;stroke-width:2.0px;stroke-linecap:butt;stroke-linejoin:miter;stroke-opacity:1"/>
<path class="bond-23 atom-23 atom-24" d="M 95.1,264.4 L 102.7,308.6" style="fill:none;fill-rule:evenodd;stroke:#000000;stroke-width:2.0px;stroke-linecap:butt;stroke-linejoin:miter;stroke-opacity:1"/>
<path class="bond-23 atom-23 atom-24" d="M 102.4,267.1 L 108.7,303.6" style="fill:none;fill-rule:evenodd;stroke:#000000;stroke-width:2.0px;stroke-linecap:butt;stroke-linejoin:miter;stroke-opacity:1"/>
<path class="bond-24 atom-24 atom-25" d="M 102.7,308.6 L 144.8,324.1" style="fill:none;fill-rule:evenodd;stroke:#000000;stroke-width:2.0px;stroke-linecap:butt;stroke-linejoin:miter;stroke-opacity:1"/>
<path class="bond-25 atom-25 atom-26" d="M 144.8,324.1 L 172.9,300.6" style="fill:none;fill-rule:evenodd;stroke:#000000;stroke-width:2.0px;stroke-linecap:butt;stroke-linejoin:miter;stroke-opacity:1"/>
<path class="bond-25 atom-25 atom-26" d="M 143.4,316.4 L 168.6,295.5" style="fill:none;fill-rule:evenodd;stroke:#000000;stroke-width:2.0px;stroke-linecap:butt;stroke-linejoin:miter;stroke-opacity:1"/>
<path class="bond-26 atom-15 atom-27" d="M 183.2,90.0 L 155.0,113.4" style="fill:none;fill-rule:evenodd;stroke:#000000;stroke-width:2.0px;stroke-linecap:butt;stroke-linejoin:miter;stroke-opacity:1"/>
<path class="bond-27 atom-27 atom-28" d="M 149.2,126.5 L 151.7,163.4" style="fill:none;fill-rule:evenodd;stroke:#000000;stroke-width:2.0px;stroke-linecap:butt;stroke-linejoin:miter;stroke-opacity:1"/>
<path class="bond-28 atom-28 atom-29" d="M 151.7,163.4 L 110.1,180.1" style="fill:none;fill-rule:evenodd;stroke:#000000;stroke-width:2.0px;stroke-linecap:butt;stroke-linejoin:miter;stroke-opacity:1"/>
<path class="bond-29 atom-29 atom-30" d="M 110.1,180.1 L 81.4,145.6" style="fill:none;fill-rule:evenodd;stroke:#000000;stroke-width:2.0px;stroke-linecap:butt;stroke-linejoin:miter;stroke-opacity:1"/>
<path class="bond-30 atom-30 atom-31" d="M 81.4,145.6 L 105.3,107.7" style="fill:none;fill-rule:evenodd;stroke:#000000;stroke-width:2.0px;stroke-linecap:butt;stroke-linejoin:miter;stroke-opacity:1"/>
<path class="bond-31 atom-31 atom-32" d="M 105.3,107.7 L 84.6,65.5 L 92.3,66.6 Z" style="fill:#000000;fill-rule:evenodd;fill-opacity:1;stroke:#000000;stroke-width:0.5px;stroke-linecap:butt;stroke-linejoin:miter;stroke-miterlimit:10;stroke-opacity:1;"/>
<path class="bond-32 atom-32 atom-33" d="M 92.3,66.6 L 51.5,60.7" style="fill:none;fill-rule:evenodd;stroke:#000000;stroke-width:2.0px;stroke-linecap:butt;stroke-linejoin:miter;stroke-opacity:1"/>
<path class="bond-33 atom-7 atom-2" d="M 428.0,138.7 L 435.6,182.9" style="fill:none;fill-rule:evenodd;stroke:#000000;stroke-width:2.0px;stroke-linecap:butt;stroke-linejoin:miter;stroke-opacity:1"/>
<path class="bond-33 atom-7 atom-2" d="M 422.0,143.7 L 428.3,180.2" style="fill:none;fill-rule:evenodd;stroke:#000000;stroke-width:2.0px;stroke-linecap:butt;stroke-linejoin:miter;stroke-opacity:1"/>
<path class="bond-34 atom-16 atom-11" d="M 225.3,105.5 L 259.7,76.8" style="fill:none;fill-rule:evenodd;stroke:#000000;stroke-width:2.0px;stroke-linecap:butt;stroke-linejoin:miter;stroke-opacity:1"/>
<path class="bond-34 atom-16 atom-11" d="M 223.9,97.8 L 252.4,74.1" style="fill:none;fill-rule:evenodd;stroke:#000000;stroke-width:2.0px;stroke-linecap:butt;stroke-linejoin:miter;stroke-opacity:1"/>
<path class="bond-35 atom-26 atom-21" d="M 177.9,287.6 L 171.6,251.2" style="fill:none;fill-rule:evenodd;stroke:#000000;stroke-width:2.0px;stroke-linecap:butt;stroke-linejoin:miter;stroke-opacity:1"/>
<path class="bond-36 atom-31 atom-27" d="M 105.3,107.7 L 142.4,117.1" style="fill:none;fill-rule:evenodd;stroke:#000000;stroke-width:2.0px;stroke-linecap:butt;stroke-linejoin:miter;stroke-opacity:1"/>
<path d="M 402.9,210.2 L 401.2,211.6 L 399.1,210.8" style="fill:none;stroke:#000000;stroke-width:2.0px;stroke-linecap:butt;stroke-linejoin:miter;stroke-miterlimit:10;stroke-opacity:1;"/>
<path d="M 361.2,196.9 L 359.1,196.1 L 358.7,193.9" style="fill:none;stroke:#000000;stroke-width:2.0px;stroke-linecap:butt;stroke-linejoin:miter;stroke-miterlimit:10;stroke-opacity:1;"/>
<path d="M 384.2,124.7 L 385.9,123.2 L 388.0,124.0" style="fill:none;stroke:#000000;stroke-width:2.0px;stroke-linecap:butt;stroke-linejoin:miter;stroke-miterlimit:10;stroke-opacity:1;"/>
<path d="M 311.5,137.2 L 309.4,136.4 L 309.1,134.6" style="fill:none;stroke:#000000;stroke-width:2.0px;stroke-linecap:butt;stroke-linejoin:miter;stroke-miterlimit:10;stroke-opacity:1;"/>
<path d="M 211.8,17.8 L 210.0,17.1 L 208.6,18.3" style="fill:none;stroke:#000000;stroke-width:2.0px;stroke-linecap:butt;stroke-linejoin:miter;stroke-miterlimit:10;stroke-opacity:1;"/>
<path d="M 232.5,147.4 L 232.9,149.7 L 231.5,150.8" style="fill:none;stroke:#000000;stroke-width:2.0px;stroke-linecap:butt;stroke-linejoin:miter;stroke-miterlimit:10;stroke-opacity:1;"/>
<path d="M 205.7,220.7 L 206.0,222.5 L 204.3,224.0" style="fill:none;stroke:#000000;stroke-width:2.0px;stroke-linecap:butt;stroke-linejoin:miter;stroke-miterlimit:10;stroke-opacity:1;"/>
<path d="M 96.5,263.3 L 95.1,264.4 L 95.4,266.6" style="fill:none;stroke:#000000;stroke-width:2.0px;stroke-linecap:butt;stroke-linejoin:miter;stroke-miterlimit:10;stroke-opacity:1;"/>
<path d="M 102.3,306.4 L 102.7,308.6 L 104.8,309.4" style="fill:none;stroke:#000000;stroke-width:2.0px;stroke-linecap:butt;stroke-linejoin:miter;stroke-miterlimit:10;stroke-opacity:1;"/>
<path d="M 142.7,323.3 L 144.8,324.1 L 146.2,322.9" style="fill:none;stroke:#000000;stroke-width:2.0px;stroke-linecap:butt;stroke-linejoin:miter;stroke-miterlimit:10;stroke-opacity:1;"/>
<path d="M 151.6,161.6 L 151.7,163.4 L 149.6,164.2" style="fill:none;stroke:#000000;stroke-width:2.0px;stroke-linecap:butt;stroke-linejoin:miter;stroke-miterlimit:10;stroke-opacity:1;"/>
<path d="M 112.1,179.2 L 110.1,180.1 L 108.6,178.3" style="fill:none;stroke:#000000;stroke-width:2.0px;stroke-linecap:butt;stroke-linejoin:miter;stroke-miterlimit:10;stroke-opacity:1;"/>
<path d="M 82.8,147.3 L 81.4,145.6 L 82.6,143.7" style="fill:none;stroke:#000000;stroke-width:2.0px;stroke-linecap:butt;stroke-linejoin:miter;stroke-miterlimit:10;stroke-opacity:1;"/>
<path d="M 104.1,109.6 L 105.3,107.7 L 107.1,108.1" style="fill:none;stroke:#000000;stroke-width:2.0px;stroke-linecap:butt;stroke-linejoin:miter;stroke-miterlimit:10;stroke-opacity:1;"/>
<path class="atom-1" d="M 471.9 198.4 Q 471.9 195.4, 473.4 193.7 Q 474.9 192.0, 477.7 192.0 Q 480.5 192.0, 482.0 193.7 Q 483.5 195.4, 483.5 198.4 Q 483.5 201.5, 482.0 203.3 Q 480.5 205.0, 477.7 205.0 Q 474.9 205.0, 473.4 203.3 Q 471.9 201.5, 471.9 198.4 M 477.7 203.6 Q 479.6 203.6, 480.7 202.3 Q 481.7 201.0, 481.7 198.4 Q 481.7 195.9, 480.7 194.7 Q 479.6 193.4, 477.7 193.4 Q 475.8 193.4, 474.7 194.7 Q 473.7 195.9, 473.7 198.4 Q 473.7 201.0, 474.7 202.3 Q 475.8 203.6, 477.7 203.6 " fill="#000000"/>
<path class="atom-8" d="M 457.6 110.5 Q 457.6 107.3, 459.0 105.7 Q 460.5 104.0, 463.3 104.0 Q 466.0 104.0, 467.4 105.9 L 466.2 106.8 Q 465.2 105.5, 463.3 105.5 Q 461.4 105.5, 460.4 106.8 Q 459.4 108.0, 459.4 110.5 Q 459.4 113.0, 460.4 114.3 Q 461.5 115.6, 463.5 115.6 Q 464.9 115.6, 466.6 114.7 L 467.1 116.1 Q 466.4 116.5, 465.4 116.8 Q 464.4 117.0, 463.3 117.0 Q 460.5 117.0, 459.0 115.3 Q 457.6 113.6, 457.6 110.5 " fill="#000000"/>
<path class="atom-8" d="M 468.6 103.2 L 470.3 103.2 L 470.3 116.8 L 468.6 116.8 L 468.6 103.2 " fill="#000000"/>
<path class="atom-10" d="M 299.0 85.9 L 303.1 92.6 Q 303.5 93.3, 304.2 94.5 Q 304.9 95.7, 304.9 95.8 L 304.9 85.9 L 306.6 85.9 L 306.6 98.6 L 304.9 98.6 L 300.4 91.3 Q 299.9 90.4, 299.3 89.4 Q 298.8 88.4, 298.6 88.1 L 298.6 98.6 L 297.0 98.6 L 297.0 85.9 L 299.0 85.9 " fill="#000000"/>
<path class="atom-10" d="M 309.1 85.9 L 310.8 85.9 L 310.8 91.3 L 317.3 91.3 L 317.3 85.9 L 319.0 85.9 L 319.0 98.6 L 317.3 98.6 L 317.3 92.7 L 310.8 92.7 L 310.8 98.6 L 309.1 98.6 L 309.1 85.9 " fill="#000000"/>
<path class="atom-12" d="M 249.3 26.2 L 253.4 33.0 Q 253.8 33.6, 254.5 34.8 Q 255.2 36.0, 255.2 36.1 L 255.2 26.2 L 256.9 26.2 L 256.9 38.9 L 255.2 38.9 L 250.7 31.6 Q 250.2 30.7, 249.6 29.7 Q 249.1 28.8, 248.9 28.4 L 248.9 38.9 L 247.3 38.9 L 247.3 26.2 L 249.3 26.2 " fill="#000000"/>
<path class="atom-14" d="M 172.7 39.4 L 176.9 46.2 Q 177.3 46.8, 178.0 48.0 Q 178.6 49.2, 178.7 49.3 L 178.7 39.4 L 180.4 39.4 L 180.4 52.1 L 178.6 52.1 L 174.2 44.8 Q 173.6 43.9, 173.1 42.9 Q 172.5 42.0, 172.4 41.7 L 172.4 52.1 L 170.7 52.1 L 170.7 39.4 L 172.7 39.4 " fill="#000000"/>
<path class="atom-18" d="M 269.1 165.2 Q 269.1 162.1, 270.6 160.4 Q 272.1 158.7, 275.0 158.7 Q 277.8 158.7, 279.3 160.4 Q 280.8 162.1, 280.8 165.2 Q 280.8 168.3, 279.3 170.0 Q 277.7 171.8, 275.0 171.8 Q 272.2 171.8, 270.6 170.0 Q 269.1 168.3, 269.1 165.2 M 275.0 170.3 Q 276.9 170.3, 277.9 169.0 Q 279.0 167.7, 279.0 165.2 Q 279.0 162.7, 277.9 161.4 Q 276.9 160.2, 275.0 160.2 Q 273.0 160.2, 272.0 161.4 Q 270.9 162.7, 270.9 165.2 Q 270.9 167.7, 272.0 169.0 Q 273.0 170.3, 275.0 170.3 " fill="#000000"/>
<path class="atom-19" d="M 181.2 172.0 L 182.9 172.0 L 182.9 177.4 L 189.4 177.4 L 189.4 172.0 L 191.1 172.0 L 191.1 184.7 L 189.4 184.7 L 189.4 178.8 L 182.9 178.8 L 182.9 184.7 L 181.2 184.7 L 181.2 172.0 " fill="#000000"/>
<path class="atom-19" d="M 195.6 172.0 L 199.8 178.7 Q 200.2 179.4, 200.9 180.6 Q 201.5 181.8, 201.6 181.9 L 201.6 172.0 L 203.2 172.0 L 203.2 184.7 L 201.5 184.7 L 197.0 177.3 Q 196.5 176.5, 196.0 175.5 Q 195.4 174.5, 195.3 174.2 L 195.3 184.7 L 193.6 184.7 L 193.6 172.0 L 195.6 172.0 " fill="#000000"/>
<path class="atom-22" d="M 126.7 229.4 L 130.9 236.1 Q 131.3 236.8, 131.9 238.0 Q 132.6 239.2, 132.6 239.2 L 132.6 229.4 L 134.3 229.4 L 134.3 242.1 L 132.6 242.1 L 128.1 234.7 Q 127.6 233.9, 127.1 232.9 Q 126.5 231.9, 126.4 231.6 L 126.4 242.1 L 124.7 242.1 L 124.7 229.4 L 126.7 229.4 " fill="#000000"/>
<path class="atom-26" d="M 176.4 289.1 L 180.6 295.8 Q 181.0 296.4, 181.6 297.6 Q 182.3 298.8, 182.3 298.9 L 182.3 289.1 L 184.0 289.1 L 184.0 301.8 L 182.3 301.8 L 177.8 294.4 Q 177.3 293.5, 176.8 292.6 Q 176.2 291.6, 176.1 291.3 L 176.1 301.8 L 174.4 301.8 L 174.4 289.1 L 176.4 289.1 " fill="#000000"/>
<path class="atom-27" d="M 145.9 112.3 L 150.1 119.0 Q 150.5 119.7, 151.2 120.9 Q 151.8 122.1, 151.9 122.2 L 151.9 112.3 L 153.5 112.3 L 153.5 125.0 L 151.8 125.0 L 147.3 117.7 Q 146.8 116.8, 146.3 115.8 Q 145.7 114.8, 145.6 114.5 L 145.6 125.0 L 143.9 125.0 L 143.9 112.3 L 145.9 112.3 " fill="#000000"/>
<path class="atom-33" d="M 25.9 53.4 L 27.6 53.4 L 27.6 58.7 L 34.1 58.7 L 34.1 53.4 L 35.8 53.4 L 35.8 66.0 L 34.1 66.0 L 34.1 60.2 L 27.6 60.2 L 27.6 66.0 L 25.9 66.0 L 25.9 53.4 " fill="#000000"/>
<path class="atom-33" d="M 38.4 59.7 Q 38.4 56.6, 39.9 54.9 Q 41.4 53.2, 44.2 53.2 Q 47.1 53.2, 48.6 54.9 Q 50.1 56.6, 50.1 59.7 Q 50.1 62.7, 48.5 64.5 Q 47.0 66.2, 44.2 66.2 Q 41.4 66.2, 39.9 64.5 Q 38.4 62.8, 38.4 59.7 M 44.2 64.8 Q 46.2 64.8, 47.2 63.5 Q 48.3 62.2, 48.3 59.7 Q 48.3 57.2, 47.2 55.9 Q 46.2 54.6, 44.2 54.6 Q 42.3 54.6, 41.2 55.9 Q 40.2 57.2, 40.2 59.7 Q 40.2 62.2, 41.2 63.5 Q 42.3 64.8, 44.2 64.8 " fill="#000000"/>
</svg>