<?xml version='1.0' encoding='utf-8'?>
<svg xmlns="http://www.w3.org/2000/svg" xmlns:rdkit="http://www.rdkit.org/xml" xmlns:xlink="http://www.w3.org/1999/xlink" version="1.1" baseProfile="full" xml:space="preserve" width="512px" height="447px" viewBox="0 0 512 447">

<rect style="opacity:1.0;fill:#FFFFFF;stroke:none" width="512.0" height="447.0" x="0.0" y="0.0"> </rect>
<path class="bond-0 atom-0 atom-1" d="M 454.6,224.7 L 485.3,291.1" style="fill:none;fill-rule:evenodd;stroke:#000000;stroke-width:2.0px;stroke-linecap:butt;stroke-linejoin:miter;stroke-opacity:1"/>
<path class="bond-0 atom-0 atom-1" d="M 447.3,235.1 L 472.7,289.9" style="fill:none;fill-rule:evenodd;stroke:#000000;stroke-width:2.0px;stroke-linecap:butt;stroke-linejoin:miter;stroke-opacity:1"/>
<path class="bond-1 atom-1 atom-2" d="M 485.3,291.1 L 443.2,350.9" style="fill:none;fill-rule:evenodd;stroke:#000000;stroke-width:2.0px;stroke-linecap:butt;stroke-linejoin:miter;stroke-opacity:1"/>
<path class="bond-2 atom-2 atom-3" d="M 443.2,350.9 L 370.4,344.3" style="fill:none;fill-rule:evenodd;stroke:#000000;stroke-width:2.0px;stroke-linecap:butt;stroke-linejoin:miter;stroke-opacity:1"/>
<path class="bond-2 atom-2 atom-3" d="M 437.9,339.4 L 377.6,334.0" style="fill:none;fill-rule:evenodd;stroke:#000000;stroke-width:2.0px;stroke-linecap:butt;stroke-linejoin:miter;stroke-opacity:1"/>
<path class="bond-3 atom-3 atom-4" d="M 370.4,344.3 L 339.6,277.9" style="fill:none;fill-rule:evenodd;stroke:#000000;stroke-width:2.0px;stroke-linecap:butt;stroke-linejoin:miter;stroke-opacity:1"/>
<path class="bond-4 atom-4 atom-5" d="M 339.6,277.9 L 381.7,218.1" style="fill:none;fill-rule:evenodd;stroke:#000000;stroke-width:2.0px;stroke-linecap:butt;stroke-linejoin:miter;stroke-opacity:1"/>
<path class="bond-4 atom-4 atom-5" d="M 352.2,279.1 L 387.0,229.6" style="fill:none;fill-rule:evenodd;stroke:#000000;stroke-width:2.0px;stroke-linecap:butt;stroke-linejoin:miter;stroke-opacity:1"/>
<path class="bond-5 atom-4 atom-6" d="M 339.6,277.9 L 266.8,271.4" style="fill:none;fill-rule:evenodd;stroke:#000000;stroke-width:2.0px;stroke-linecap:butt;stroke-linejoin:miter;stroke-opacity:1"/>
<path class="bond-6 atom-6 atom-7" d="M 266.8,271.4 L 236.9,321.4" style="fill:none;fill-rule:evenodd;stroke:#000000;stroke-width:2.0px;stroke-linecap:butt;stroke-linejoin:miter;stroke-opacity:1"/>
<path class="bond-6 atom-6 atom-7" d="M 254.6,270.3 L 227.4,315.8" style="fill:none;fill-rule:evenodd;stroke:#000000;stroke-width:2.0px;stroke-linecap:butt;stroke-linejoin:miter;stroke-opacity:1"/>
<path class="bond-7 atom-7 atom-8" d="M 219.0,335.6 L 156.7,344.0" style="fill:none;fill-rule:evenodd;stroke:#000000;stroke-width:2.0px;stroke-linecap:butt;stroke-linejoin:miter;stroke-opacity:1"/>
<path class="bond-8 atom-8 atom-9" d="M 156.7,344.0 L 103.9,293.4" style="fill:none;fill-rule:evenodd;stroke:#000000;stroke-width:2.0px;stroke-linecap:butt;stroke-linejoin:miter;stroke-opacity:1"/>
<path class="bond-9 atom-9 atom-10" d="M 104.4,287.4 L 45.4,309.5" style="fill:none;fill-rule:evenodd;stroke:#000000;stroke-width:2.0px;stroke-linecap:butt;stroke-linejoin:miter;stroke-opacity:1"/>
<path class="bond-9 atom-9 atom-10" d="M 108.3,297.6 L 49.2,319.8" style="fill:none;fill-rule:evenodd;stroke:#000000;stroke-width:2.0px;stroke-linecap:butt;stroke-linejoin:miter;stroke-opacity:1"/>
<path class="bond-10 atom-9 atom-11" d="M 103.9,293.4 L 109.3,233.3" style="fill:none;fill-rule:evenodd;stroke:#000000;stroke-width:2.0px;stroke-linecap:butt;stroke-linejoin:miter;stroke-opacity:1"/>
<path class="bond-11 atom-11 atom-12" d="M 120.7,213.8 L 171.5,180.3" style="fill:none;fill-rule:evenodd;stroke:#000000;stroke-width:2.0px;stroke-linecap:butt;stroke-linejoin:miter;stroke-opacity:1"/>
<path class="bond-12 atom-12 atom-13" d="M 171.5,180.3 L 241.1,202.9" style="fill:none;fill-rule:evenodd;stroke:#000000;stroke-width:2.0px;stroke-linecap:butt;stroke-linejoin:miter;stroke-opacity:1"/>
<path class="bond-12 atom-12 atom-13" d="M 180.9,171.8 L 238.4,190.5" style="fill:none;fill-rule:evenodd;stroke:#000000;stroke-width:2.0px;stroke-linecap:butt;stroke-linejoin:miter;stroke-opacity:1"/>
<path class="bond-13 atom-13 atom-14" d="M 241.1,202.9 L 295.4,153.9" style="fill:none;fill-rule:evenodd;stroke:#000000;stroke-width:2.0px;stroke-linecap:butt;stroke-linejoin:miter;stroke-opacity:1"/>
<path class="bond-14 atom-14 atom-15" d="M 295.4,153.9 L 280.2,82.4" style="fill:none;fill-rule:evenodd;stroke:#000000;stroke-width:2.0px;stroke-linecap:butt;stroke-linejoin:miter;stroke-opacity:1"/>
<path class="bond-14 atom-14 atom-15" d="M 283.4,150.0 L 270.8,90.9" style="fill:none;fill-rule:evenodd;stroke:#000000;stroke-width:2.0px;stroke-linecap:butt;stroke-linejoin:miter;stroke-opacity:1"/>
<path class="bond-15 atom-15 atom-16" d="M 280.2,82.4 L 210.7,59.8" style="fill:none;fill-rule:evenodd;stroke:#000000;stroke-width:2.0px;stroke-linecap:butt;stroke-linejoin:miter;stroke-opacity:1"/>
<path class="bond-16 atom-16 atom-17" d="M 210.7,59.8 L 156.3,108.7" style="fill:none;fill-rule:evenodd;stroke:#000000;stroke-width:2.0px;stroke-linecap:butt;stroke-linejoin:miter;stroke-opacity:1"/>
<path class="bond-16 atom-16 atom-17" d="M 213.3,72.2 L 168.3,112.6" style="fill:none;fill-rule:evenodd;stroke:#000000;stroke-width:2.0px;stroke-linecap:butt;stroke-linejoin:miter;stroke-opacity:1"/>
<path class="bond-17 atom-15 atom-18" d="M 280.2,82.4 L 324.2,42.8" style="fill:none;fill-rule:evenodd;stroke:#000000;stroke-width:2.0px;stroke-linecap:butt;stroke-linejoin:miter;stroke-opacity:1"/>
<path class="bond-18 atom-8 atom-19" d="M 156.7,344.0 L 138.3,400.7" style="fill:none;fill-rule:evenodd;stroke:#000000;stroke-width:2.0px;stroke-linecap:butt;stroke-linejoin:miter;stroke-opacity:1"/>
<path class="bond-19 atom-3 atom-20" d="M 370.4,344.3 L 332.0,398.8" style="fill:none;fill-rule:evenodd;stroke:#000000;stroke-width:2.0px;stroke-linecap:butt;stroke-linejoin:miter;stroke-opacity:1"/>
<path class="bond-20 atom-5 atom-0" d="M 381.7,218.1 L 454.6,224.7" style="fill:none;fill-rule:evenodd;stroke:#000000;stroke-width:2.0px;stroke-linecap:butt;stroke-linejoin:miter;stroke-opacity:1"/>
<path class="bond-21 atom-13 atom-6" d="M 241.1,202.9 L 266.8,271.4" style="fill:none;fill-rule:evenodd;stroke:#000000;stroke-width:2.0px;stroke-linecap:butt;stroke-linejoin:miter;stroke-opacity:1"/>
<path class="bond-22 atom-17 atom-12" d="M 156.3,108.7 L 171.5,180.3" style="fill:none;fill-rule:evenodd;stroke:#000000;stroke-width:2.0px;stroke-linecap:butt;stroke-linejoin:miter;stroke-opacity:1"/>
<path d="M 456.1,228.0 L 454.6,224.7 L 450.9,224.4" style="fill:none;stroke:#000000;stroke-width:2.0px;stroke-linecap:butt;stroke-linejoin:miter;stroke-miterlimit:10;stroke-opacity:1;"/>
<path d="M 483.8,287.7 L 485.3,291.1 L 483.2,294.1" style="fill:none;stroke:#000000;stroke-width:2.0px;stroke-linecap:butt;stroke-linejoin:miter;stroke-miterlimit:10;stroke-opacity:1;"/>
<path d="M 445.3,347.9 L 443.2,350.9 L 439.6,350.6" style="fill:none;stroke:#000000;stroke-width:2.0px;stroke-linecap:butt;stroke-linejoin:miter;stroke-miterlimit:10;stroke-opacity:1;"/>
<path d="M 379.6,221.1 L 381.7,218.1 L 385.4,218.5" style="fill:none;stroke:#000000;stroke-width:2.0px;stroke-linecap:butt;stroke-linejoin:miter;stroke-miterlimit:10;stroke-opacity:1;"/>
<path d="M 106.5,296.0 L 103.9,293.4 L 104.1,290.4" style="fill:none;stroke:#000000;stroke-width:2.0px;stroke-linecap:butt;stroke-linejoin:miter;stroke-miterlimit:10;stroke-opacity:1;"/>
<path d="M 292.7,156.4 L 295.4,153.9 L 294.7,150.4" style="fill:none;stroke:#000000;stroke-width:2.0px;stroke-linecap:butt;stroke-linejoin:miter;stroke-miterlimit:10;stroke-opacity:1;"/>
<path d="M 214.1,60.9 L 210.7,59.8 L 207.9,62.2" style="fill:none;stroke:#000000;stroke-width:2.0px;stroke-linecap:butt;stroke-linejoin:miter;stroke-miterlimit:10;stroke-opacity:1;"/>
<path d="M 159.0,106.3 L 156.3,108.7 L 157.0,112.3" style="fill:none;stroke:#000000;stroke-width:2.0px;stroke-linecap:butt;stroke-linejoin:miter;stroke-miterlimit:10;stroke-opacity:1;"/>
<path class="atom-7" d="M 224.7 323.8 L 231.4 334.8 Q 232.1 335.9, 233.2 337.8 Q 234.3 339.8, 234.3 339.9 L 234.3 323.8 L 237.1 323.8 L 237.1 344.5 L 234.3 344.5 L 227.0 332.5 Q 226.1 331.1, 225.2 329.5 Q 224.3 327.9, 224.1 327.4 L 224.1 344.5 L 221.4 344.5 L 221.4 323.8 L 224.7 323.8 " fill="#000000"/>
<path class="atom-10" d="M 25.9 319.2 Q 25.9 314.2, 28.3 311.4 Q 30.8 308.7, 35.4 308.7 Q 40.0 308.7, 42.4 311.4 Q 44.9 314.2, 44.9 319.2 Q 44.9 324.2, 42.4 327.1 Q 39.9 329.9, 35.4 329.9 Q 30.8 329.9, 28.3 327.1 Q 25.9 324.2, 25.9 319.2 M 35.4 327.6 Q 38.5 327.6, 40.2 325.5 Q 42.0 323.3, 42.0 319.2 Q 42.0 315.1, 40.2 313.1 Q 38.5 311.0, 35.4 311.0 Q 32.2 311.0, 30.5 313.0 Q 28.8 315.1, 28.8 319.2 Q 28.8 323.4, 30.5 325.5 Q 32.2 327.6, 35.4 327.6 " fill="#000000"/>
<path class="atom-11" d="M 82.3 210.2 L 85.1 210.2 L 85.1 219.0 L 95.7 219.0 L 95.7 210.2 L 98.5 210.2 L 98.5 230.9 L 95.7 230.9 L 95.7 221.4 L 85.1 221.4 L 85.1 230.9 L 82.3 230.9 L 82.3 210.2 " fill="#000000"/>
<path class="atom-11" d="M 105.9 210.2 L 112.6 221.2 Q 113.3 222.3, 114.4 224.2 Q 115.5 226.2, 115.5 226.3 L 115.5 210.2 L 118.3 210.2 L 118.3 230.9 L 115.5 230.9 L 108.2 218.9 Q 107.3 217.5, 106.4 215.9 Q 105.5 214.3, 105.3 213.8 L 105.3 230.9 L 102.6 230.9 L 102.6 210.2 L 105.9 210.2 " fill="#000000"/>
<path class="atom-18" d="M 326.6 34.2 Q 326.6 29.0, 329.0 26.3 Q 331.4 23.6, 336.0 23.6 Q 340.3 23.6, 342.6 26.6 L 340.6 28.2 Q 339.0 26.0, 336.0 26.0 Q 332.9 26.0, 331.2 28.1 Q 329.6 30.2, 329.6 34.2 Q 329.6 38.3, 331.3 40.4 Q 333.0 42.5, 336.3 42.5 Q 338.6 42.5, 341.3 41.1 L 342.1 43.3 Q 341.0 44.0, 339.4 44.4 Q 337.7 44.8, 335.9 44.8 Q 331.4 44.8, 329.0 42.1 Q 326.6 39.3, 326.6 34.2 " fill="#000000"/>
<path class="atom-18" d="M 344.7 22.3 L 347.4 22.3 L 347.4 44.6 L 344.7 44.6 L 344.7 22.3 " fill="#000000"/>
<path class="atom-19" d="M 124.6 413.6 Q 124.6 408.6, 127.1 405.9 Q 129.5 403.1, 134.1 403.1 Q 138.7 403.1, 141.2 405.9 Q 143.6 408.6, 143.6 413.6 Q 143.6 418.6, 141.2 421.5 Q 138.7 424.3, 134.1 424.3 Q 129.6 424.3, 127.1 421.5 Q 124.6 418.7, 124.6 413.6 M 134.1 422.0 Q 137.3 422.0, 139.0 419.9 Q 140.7 417.8, 140.7 413.6 Q 140.7 409.5, 139.0 407.5 Q 137.3 405.4, 134.1 405.4 Q 131.0 405.4, 129.2 407.5 Q 127.6 409.5, 127.6 413.6 Q 127.6 417.8, 129.2 419.9 Q 131.0 422.0, 134.1 422.0 " fill="#000000"/>
<path class="atom-19" d="M 146.9 403.3 L 149.7 403.3 L 149.7 412.1 L 160.3 412.1 L 160.3 403.3 L 163.1 403.3 L 163.1 424.0 L 160.3 424.0 L 160.3 414.5 L 149.7 414.5 L 149.7 424.0 L 146.9 424.0 L 146.9 403.3 " fill="#000000"/>
<path class="atom-20" d="M 308.8 404.8 Q 308.8 399.7, 311.2 397.0 Q 313.6 394.3, 318.2 394.3 Q 322.5 394.3, 324.8 397.3 L 322.9 398.9 Q 321.2 396.7, 318.2 396.7 Q 315.1 396.7, 313.4 398.8 Q 311.8 400.9, 311.8 404.8 Q 311.8 408.9, 313.5 411.1 Q 315.2 413.2, 318.6 413.2 Q 320.8 413.2, 323.5 411.8 L 324.3 414.0 Q 323.2 414.7, 321.6 415.1 Q 320.0 415.5, 318.2 415.5 Q 313.6 415.5, 311.2 412.7 Q 308.8 410.0, 308.8 404.8 " fill="#000000"/>
<path class="atom-20" d="M 326.9 393.0 L 329.6 393.0 L 329.6 415.2 L 326.9 415.2 L 326.9 393.0 " fill="#000000"/>
</svg>