<?xml version='1.0' encoding='utf-8'?>
<svg xmlns="http://www.w3.org/2000/svg" xmlns:rdkit="http://www.rdkit.org/xml" xmlns:xlink="http://www.w3.org/1999/xlink" version="1.1" baseProfile="full" xml:space="preserve" width="512px" height="297px" viewBox="0 0 512 297">

<rect style="opacity:1.0;fill:#FFFFFF;stroke:none" width="512.0" height="297.0" x="0.0" y="0.0"> </rect>
<path class="bond-0 atom-0 atom-1" d="M 484.7,260.6 L 412.0,187.5" style="fill:none;fill-rule:evenodd;stroke:#000000;stroke-width:2.0px;stroke-linecap:butt;stroke-linejoin:miter;stroke-opacity:1"/>
<path class="bond-1 atom-1 atom-2" d="M 412.0,187.5 L 326.6,210.2" style="fill:none;fill-rule:evenodd;stroke:#000000;stroke-width:2.0px;stroke-linecap:butt;stroke-linejoin:miter;stroke-opacity:1"/>
<path class="bond-1 atom-1 atom-2" d="M 399.4,174.9 L 322.6,195.3" style="fill:none;fill-rule:evenodd;stroke:#000000;stroke-width:2.0px;stroke-linecap:butt;stroke-linejoin:miter;stroke-opacity:1"/>
<path class="bond-2 atom-2 atom-3" d="M 298.3,199.8 L 239.7,141.0" style="fill:none;fill-rule:evenodd;stroke:#000000;stroke-width:2.0px;stroke-linecap:butt;stroke-linejoin:miter;stroke-opacity:1"/>
<path class="bond-3 atom-3 atom-4" d="M 239.7,141.0 L 266.6,41.5" style="fill:none;fill-rule:evenodd;stroke:#000000;stroke-width:2.0px;stroke-linecap:butt;stroke-linejoin:miter;stroke-opacity:1"/>
<path class="bond-4 atom-4 atom-5" d="M 266.6,41.5 L 366.2,15.1" style="fill:none;fill-rule:evenodd;stroke:#000000;stroke-width:2.0px;stroke-linecap:butt;stroke-linejoin:miter;stroke-opacity:1"/>
<path class="bond-5 atom-5 atom-6" d="M 366.2,15.1 L 424.7,73.9" style="fill:none;fill-rule:evenodd;stroke:#000000;stroke-width:2.0px;stroke-linecap:butt;stroke-linejoin:miter;stroke-opacity:1"/>
<path class="bond-6 atom-3 atom-7" d="M 236.2,141.6 L 236.4,142.1" style="fill:none;fill-rule:evenodd;stroke:#000000;stroke-width:1.0px;stroke-linecap:butt;stroke-linejoin:miter;stroke-opacity:1"/>
<path class="bond-6 atom-3 atom-7" d="M 232.7,142.3 L 233.0,143.3" style="fill:none;fill-rule:evenodd;stroke:#000000;stroke-width:1.0px;stroke-linecap:butt;stroke-linejoin:miter;stroke-opacity:1"/>
<path class="bond-6 atom-3 atom-7" d="M 229.2,142.9 L 229.7,144.5" style="fill:none;fill-rule:evenodd;stroke:#000000;stroke-width:1.0px;stroke-linecap:butt;stroke-linejoin:miter;stroke-opacity:1"/>
<path class="bond-6 atom-3 atom-7" d="M 225.7,143.5 L 226.3,145.7" style="fill:none;fill-rule:evenodd;stroke:#000000;stroke-width:1.0px;stroke-linecap:butt;stroke-linejoin:miter;stroke-opacity:1"/>
<path class="bond-6 atom-3 atom-7" d="M 222.2,144.2 L 222.9,146.9" style="fill:none;fill-rule:evenodd;stroke:#000000;stroke-width:1.0px;stroke-linecap:butt;stroke-linejoin:miter;stroke-opacity:1"/>
<path class="bond-6 atom-3 atom-7" d="M 218.7,144.8 L 219.6,148.0" style="fill:none;fill-rule:evenodd;stroke:#000000;stroke-width:1.0px;stroke-linecap:butt;stroke-linejoin:miter;stroke-opacity:1"/>
<path class="bond-6 atom-3 atom-7" d="M 215.2,145.5 L 216.2,149.2" style="fill:none;fill-rule:evenodd;stroke:#000000;stroke-width:1.0px;stroke-linecap:butt;stroke-linejoin:miter;stroke-opacity:1"/>
<path class="bond-6 atom-3 atom-7" d="M 211.7,146.1 L 212.8,150.4" style="fill:none;fill-rule:evenodd;stroke:#000000;stroke-width:1.0px;stroke-linecap:butt;stroke-linejoin:miter;stroke-opacity:1"/>
<path class="bond-6 atom-3 atom-7" d="M 208.2,146.8 L 209.5,151.6" style="fill:none;fill-rule:evenodd;stroke:#000000;stroke-width:1.0px;stroke-linecap:butt;stroke-linejoin:miter;stroke-opacity:1"/>
<path class="bond-6 atom-3 atom-7" d="M 204.7,147.4 L 206.1,152.8" style="fill:none;fill-rule:evenodd;stroke:#000000;stroke-width:1.0px;stroke-linecap:butt;stroke-linejoin:miter;stroke-opacity:1"/>
<path class="bond-6 atom-3 atom-7" d="M 201.2,148.1 L 202.8,153.9" style="fill:none;fill-rule:evenodd;stroke:#000000;stroke-width:1.0px;stroke-linecap:butt;stroke-linejoin:miter;stroke-opacity:1"/>
<path class="bond-6 atom-3 atom-7" d="M 197.7,148.7 L 199.4,155.1" style="fill:none;fill-rule:evenodd;stroke:#000000;stroke-width:1.0px;stroke-linecap:butt;stroke-linejoin:miter;stroke-opacity:1"/>
<path class="bond-6 atom-3 atom-7" d="M 194.2,149.4 L 196.0,156.3" style="fill:none;fill-rule:evenodd;stroke:#000000;stroke-width:1.0px;stroke-linecap:butt;stroke-linejoin:miter;stroke-opacity:1"/>
<path class="bond-6 atom-3 atom-7" d="M 190.7,150.0 L 192.7,157.5" style="fill:none;fill-rule:evenodd;stroke:#000000;stroke-width:1.0px;stroke-linecap:butt;stroke-linejoin:miter;stroke-opacity:1"/>
<path class="bond-6 atom-3 atom-7" d="M 187.2,150.6 L 189.3,158.6" style="fill:none;fill-rule:evenodd;stroke:#000000;stroke-width:1.0px;stroke-linecap:butt;stroke-linejoin:miter;stroke-opacity:1"/>
<path class="bond-6 atom-3 atom-7" d="M 183.7,151.3 L 185.9,159.8" style="fill:none;fill-rule:evenodd;stroke:#000000;stroke-width:1.0px;stroke-linecap:butt;stroke-linejoin:miter;stroke-opacity:1"/>
<path class="bond-6 atom-3 atom-7" d="M 180.2,151.9 L 182.6,161.0" style="fill:none;fill-rule:evenodd;stroke:#000000;stroke-width:1.0px;stroke-linecap:butt;stroke-linejoin:miter;stroke-opacity:1"/>
<path class="bond-6 atom-3 atom-7" d="M 176.7,152.6 L 179.2,162.2" style="fill:none;fill-rule:evenodd;stroke:#000000;stroke-width:1.0px;stroke-linecap:butt;stroke-linejoin:miter;stroke-opacity:1"/>
<path class="bond-6 atom-3 atom-7" d="M 173.2,153.2 L 175.9,163.4" style="fill:none;fill-rule:evenodd;stroke:#000000;stroke-width:1.0px;stroke-linecap:butt;stroke-linejoin:miter;stroke-opacity:1"/>
<path class="bond-6 atom-3 atom-7" d="M 169.7,153.9 L 172.5,164.5" style="fill:none;fill-rule:evenodd;stroke:#000000;stroke-width:1.0px;stroke-linecap:butt;stroke-linejoin:miter;stroke-opacity:1"/>
<path class="bond-6 atom-3 atom-7" d="M 166.2,154.5 L 169.1,165.7" style="fill:none;fill-rule:evenodd;stroke:#000000;stroke-width:1.0px;stroke-linecap:butt;stroke-linejoin:miter;stroke-opacity:1"/>
<path class="bond-6 atom-3 atom-7" d="M 162.7,155.2 L 165.8,166.9" style="fill:none;fill-rule:evenodd;stroke:#000000;stroke-width:1.0px;stroke-linecap:butt;stroke-linejoin:miter;stroke-opacity:1"/>
<path class="bond-6 atom-3 atom-7" d="M 159.2,155.8 L 162.4,168.1" style="fill:none;fill-rule:evenodd;stroke:#000000;stroke-width:1.0px;stroke-linecap:butt;stroke-linejoin:miter;stroke-opacity:1"/>
<path class="bond-6 atom-3 atom-7" d="M 155.7,156.4 L 159.1,169.2" style="fill:none;fill-rule:evenodd;stroke:#000000;stroke-width:1.0px;stroke-linecap:butt;stroke-linejoin:miter;stroke-opacity:1"/>
<path class="bond-6 atom-3 atom-7" d="M 152.1,157.1 L 155.7,170.4" style="fill:none;fill-rule:evenodd;stroke:#000000;stroke-width:1.0px;stroke-linecap:butt;stroke-linejoin:miter;stroke-opacity:1"/>
<path class="bond-6 atom-3 atom-7" d="M 148.6,157.7 L 152.3,171.6" style="fill:none;fill-rule:evenodd;stroke:#000000;stroke-width:1.0px;stroke-linecap:butt;stroke-linejoin:miter;stroke-opacity:1"/>
<path class="bond-6 atom-3 atom-7" d="M 145.1,158.4 L 149.0,172.8" style="fill:none;fill-rule:evenodd;stroke:#000000;stroke-width:1.0px;stroke-linecap:butt;stroke-linejoin:miter;stroke-opacity:1"/>
<path class="bond-6 atom-3 atom-7" d="M 141.6,159.0 L 145.6,174.0" style="fill:none;fill-rule:evenodd;stroke:#000000;stroke-width:1.0px;stroke-linecap:butt;stroke-linejoin:miter;stroke-opacity:1"/>
<path class="bond-7 atom-7 atom-8" d="M 133.9,161.1 L 110.6,247.1" style="fill:none;fill-rule:evenodd;stroke:#000000;stroke-width:2.0px;stroke-linecap:butt;stroke-linejoin:miter;stroke-opacity:1"/>
<path class="bond-7 atom-7 atom-8" d="M 148.8,165.1 L 125.5,251.2" style="fill:none;fill-rule:evenodd;stroke:#000000;stroke-width:2.0px;stroke-linecap:butt;stroke-linejoin:miter;stroke-opacity:1"/>
<path class="bond-8 atom-7 atom-9" d="M 140.2,167.4 L 83.9,110.9" style="fill:none;fill-rule:evenodd;stroke:#000000;stroke-width:2.0px;stroke-linecap:butt;stroke-linejoin:miter;stroke-opacity:1"/>
<path class="bond-9 atom-6 atom-1" d="M 434.1,105.6 L 412.0,187.5" style="fill:none;fill-rule:evenodd;stroke:#000000;stroke-width:2.0px;stroke-linecap:butt;stroke-linejoin:miter;stroke-opacity:1"/>
<path d="M 242.7,143.9 L 239.7,141.0 L 241.1,136.0" style="fill:none;stroke:#000000;stroke-width:2.0px;stroke-linecap:butt;stroke-linejoin:miter;stroke-miterlimit:10;stroke-opacity:1;"/>
<path d="M 265.3,46.5 L 266.6,41.5 L 271.6,40.2" style="fill:none;stroke:#000000;stroke-width:2.0px;stroke-linecap:butt;stroke-linejoin:miter;stroke-miterlimit:10;stroke-opacity:1;"/>
<path d="M 361.2,16.4 L 366.2,15.1 L 369.1,18.0" style="fill:none;stroke:#000000;stroke-width:2.0px;stroke-linecap:butt;stroke-linejoin:miter;stroke-miterlimit:10;stroke-opacity:1;"/>
<path class="atom-2" d="M 306.2 199.8 L 315.4 214.8 Q 316.4 216.3, 317.8 219.0 Q 319.3 221.7, 319.4 221.8 L 319.4 199.8 L 323.2 199.8 L 323.2 228.1 L 319.3 228.1 L 309.3 211.7 Q 308.2 209.8, 306.9 207.6 Q 305.7 205.4, 305.4 204.7 L 305.4 228.1 L 301.7 228.1 L 301.7 199.8 L 306.2 199.8 " fill="#000000"/>
<path class="atom-6" d="M 432.6 73.9 L 441.9 88.9 Q 442.8 90.4, 444.3 93.1 Q 445.8 95.8, 445.9 95.9 L 445.9 73.9 L 449.6 73.9 L 449.6 102.2 L 445.7 102.2 L 435.8 85.8 Q 434.6 83.9, 433.4 81.7 Q 432.2 79.5, 431.8 78.8 L 431.8 102.2 L 428.1 102.2 L 428.1 73.9 L 432.6 73.9 " fill="#000000"/>
<path class="atom-6" d="M 455.1 73.9 L 459.0 73.9 L 459.0 86.0 L 473.5 86.0 L 473.5 73.9 L 477.3 73.9 L 477.3 102.2 L 473.5 102.2 L 473.5 89.2 L 459.0 89.2 L 459.0 102.2 L 455.1 102.2 L 455.1 73.9 " fill="#000000"/>
<path class="atom-8" d="M 100.3 266.9 Q 100.3 260.1, 103.6 256.3 Q 107.0 252.5, 113.3 252.5 Q 119.6 252.5, 122.9 256.3 Q 126.3 260.1, 126.3 266.9 Q 126.3 273.8, 122.9 277.7 Q 119.5 281.6, 113.3 281.6 Q 107.0 281.6, 103.6 277.7 Q 100.3 273.9, 100.3 266.9 M 113.3 278.4 Q 117.6 278.4, 119.9 275.5 Q 122.3 272.6, 122.3 266.9 Q 122.3 261.4, 119.9 258.6 Q 117.6 255.7, 113.3 255.7 Q 109.0 255.7, 106.6 258.5 Q 104.3 261.3, 104.3 266.9 Q 104.3 272.7, 106.6 275.5 Q 109.0 278.4, 113.3 278.4 " fill="#000000"/>
<path class="atom-9" d="M 26.5 80.4 L 30.4 80.4 L 30.4 92.4 L 44.8 92.4 L 44.8 80.4 L 48.7 80.4 L 48.7 108.7 L 44.8 108.7 L 44.8 95.6 L 30.4 95.6 L 30.4 108.7 L 26.5 108.7 L 26.5 80.4 " fill="#000000"/>
<path class="atom-9" d="M 54.5 94.5 Q 54.5 87.7, 57.8 83.9 Q 61.2 80.1, 67.5 80.1 Q 73.8 80.1, 77.1 83.9 Q 80.5 87.7, 80.5 94.5 Q 80.5 101.4, 77.1 105.3 Q 73.7 109.2, 67.5 109.2 Q 61.2 109.2, 57.8 105.3 Q 54.5 101.4, 54.5 94.5 M 67.5 106.0 Q 71.8 106.0, 74.1 103.1 Q 76.5 100.2, 76.5 94.5 Q 76.5 88.9, 74.1 86.1 Q 71.8 83.3, 67.5 83.3 Q 63.2 83.3, 60.8 86.1 Q 58.5 88.9, 58.5 94.5 Q 58.5 100.2, 60.8 103.1 Q 63.2 106.0, 67.5 106.0 " fill="#000000"/>
</svg>