<?xml version='1.0' encoding='utf-8'?>
<svg xmlns="http://www.w3.org/2000/svg" xmlns:rdkit="http://www.rdkit.org/xml" xmlns:xlink="http://www.w3.org/1999/xlink" version="1.1" baseProfile="full" xml:space="preserve" width="512px" height="271px" viewBox="0 0 512 271">

<rect style="opacity:1.0;fill:#FFFFFF;stroke:none" width="512.0" height="271.0" x="0.0" y="0.0"> </rect>
<path class="bond-0 atom-0 atom-1" d="M 414.1,207.7 L 368.1,128.0" style="fill:none;fill-rule:evenodd;stroke:#000000;stroke-width:2.0px;stroke-linecap:butt;stroke-linejoin:miter;stroke-opacity:1"/>
<path class="bond-1 atom-1 atom-2" d="M 373.0,136.5 L 421.1,53.2" style="fill:none;fill-rule:evenodd;stroke:#000000;stroke-width:2.0px;stroke-linecap:butt;stroke-linejoin:miter;stroke-opacity:1"/>
<path class="bond-1 atom-1 atom-2" d="M 358.4,128.0 L 406.4,44.8" style="fill:none;fill-rule:evenodd;stroke:#000000;stroke-width:2.0px;stroke-linecap:butt;stroke-linejoin:miter;stroke-opacity:1"/>
<path class="bond-2 atom-1 atom-3" d="M 368.1,128.0 L 255.5,128.0" style="fill:none;fill-rule:evenodd;stroke:#000000;stroke-width:2.0px;stroke-linecap:butt;stroke-linejoin:miter;stroke-opacity:1"/>
<path class="bond-3 atom-3 atom-4" d="M 255.5,128.0 L 199.3,225.5" style="fill:none;fill-rule:evenodd;stroke:#000000;stroke-width:2.0px;stroke-linecap:butt;stroke-linejoin:miter;stroke-opacity:1"/>
<path class="bond-3 atom-3 atom-4" d="M 236.0,128.0 L 189.5,208.7" style="fill:none;fill-rule:evenodd;stroke:#000000;stroke-width:2.0px;stroke-linecap:butt;stroke-linejoin:miter;stroke-opacity:1"/>
<path class="bond-4 atom-4 atom-5" d="M 199.3,225.5 L 86.7,225.5" style="fill:none;fill-rule:evenodd;stroke:#000000;stroke-width:2.0px;stroke-linecap:butt;stroke-linejoin:miter;stroke-opacity:1"/>
<path class="bond-5 atom-5 atom-6" d="M 86.7,225.5 L 30.4,128.0" style="fill:none;fill-rule:evenodd;stroke:#000000;stroke-width:2.0px;stroke-linecap:butt;stroke-linejoin:miter;stroke-opacity:1"/>
<path class="bond-5 atom-5 atom-6" d="M 96.4,208.7 L 49.9,128.0" style="fill:none;fill-rule:evenodd;stroke:#000000;stroke-width:2.0px;stroke-linecap:butt;stroke-linejoin:miter;stroke-opacity:1"/>
<path class="bond-6 atom-6 atom-7" d="M 30.4,128.0 L 76.4,48.4" style="fill:none;fill-rule:evenodd;stroke:#000000;stroke-width:2.0px;stroke-linecap:butt;stroke-linejoin:miter;stroke-opacity:1"/>
<path class="bond-7 atom-7 atom-8" d="M 101.1,30.6 L 199.3,30.6" style="fill:none;fill-rule:evenodd;stroke:#000000;stroke-width:2.0px;stroke-linecap:butt;stroke-linejoin:miter;stroke-opacity:1"/>
<path class="bond-7 atom-7 atom-8" d="M 101.1,47.4 L 189.5,47.4" style="fill:none;fill-rule:evenodd;stroke:#000000;stroke-width:2.0px;stroke-linecap:butt;stroke-linejoin:miter;stroke-opacity:1"/>
<path class="bond-8 atom-8 atom-3" d="M 199.3,30.6 L 255.5,128.0" style="fill:none;fill-rule:evenodd;stroke:#000000;stroke-width:2.0px;stroke-linecap:butt;stroke-linejoin:miter;stroke-opacity:1"/>
<path d="M 370.4,132.0 L 368.1,128.0 L 362.5,128.0" style="fill:none;stroke:#000000;stroke-width:2.0px;stroke-linecap:butt;stroke-linejoin:miter;stroke-miterlimit:10;stroke-opacity:1;"/>
<path d="M 202.1,220.7 L 199.3,225.5 L 193.6,225.5" style="fill:none;stroke:#000000;stroke-width:2.0px;stroke-linecap:butt;stroke-linejoin:miter;stroke-miterlimit:10;stroke-opacity:1;"/>
<path d="M 92.3,225.5 L 86.7,225.5 L 83.9,220.7" style="fill:none;stroke:#000000;stroke-width:2.0px;stroke-linecap:butt;stroke-linejoin:miter;stroke-miterlimit:10;stroke-opacity:1;"/>
<path d="M 33.2,132.9 L 30.4,128.0 L 32.7,124.1" style="fill:none;stroke:#000000;stroke-width:2.0px;stroke-linecap:butt;stroke-linejoin:miter;stroke-miterlimit:10;stroke-opacity:1;"/>
<path d="M 194.4,30.6 L 199.3,30.6 L 202.1,35.4" style="fill:none;stroke:#000000;stroke-width:2.0px;stroke-linecap:butt;stroke-linejoin:miter;stroke-miterlimit:10;stroke-opacity:1;"/>
<path class="atom-0" d="M 418.2 211.4 L 427.4 226.4 Q 428.4 227.9, 429.8 230.5 Q 431.3 233.2, 431.4 233.4 L 431.4 211.4 L 435.2 211.4 L 435.2 239.7 L 431.3 239.7 L 421.3 223.3 Q 420.2 221.4, 418.9 219.2 Q 417.7 217.0, 417.4 216.3 L 417.4 239.7 L 413.7 239.7 L 413.7 211.4 L 418.2 211.4 " fill="#000000"/>
<path class="atom-0" d="M 440.6 211.4 L 444.4 211.4 L 444.4 223.4 L 458.9 223.4 L 458.9 211.4 L 462.7 211.4 L 462.7 239.7 L 458.9 239.7 L 458.9 226.6 L 444.4 226.6 L 444.4 239.7 L 440.6 239.7 L 440.6 211.4 " fill="#000000"/>
<path class="atom-0" d="M 468.3 238.7 Q 469.0 236.9, 470.6 236.0 Q 472.2 235.0, 474.5 235.0 Q 477.3 235.0, 478.9 236.5 Q 480.5 238.0, 480.5 240.7 Q 480.5 243.5, 478.4 246.1 Q 476.4 248.7, 472.2 251.8 L 480.8 251.8 L 480.8 253.9 L 468.2 253.9 L 468.2 252.1 Q 471.7 249.6, 473.8 247.8 Q 475.9 245.9, 476.9 244.3 Q 477.9 242.6, 477.9 240.9 Q 477.9 239.1, 477.0 238.1 Q 476.1 237.1, 474.5 237.1 Q 473.0 237.1, 472.0 237.7 Q 471.0 238.3, 470.3 239.6 L 468.3 238.7 " fill="#000000"/>
<path class="atom-2" d="M 411.4 30.6 Q 411.4 23.8, 414.8 20.0 Q 418.1 16.2, 424.4 16.2 Q 430.7 16.2, 434.1 20.0 Q 437.4 23.8, 437.4 30.6 Q 437.4 37.5, 434.0 41.4 Q 430.6 45.3, 424.4 45.3 Q 418.2 45.3, 414.8 41.4 Q 411.4 37.6, 411.4 30.6 M 424.4 42.1 Q 428.7 42.1, 431.1 39.2 Q 433.4 36.3, 433.4 30.6 Q 433.4 25.1, 431.1 22.3 Q 428.7 19.4, 424.4 19.4 Q 420.1 19.4, 417.7 22.2 Q 415.4 25.0, 415.4 30.6 Q 415.4 36.4, 417.7 39.2 Q 420.1 42.1, 424.4 42.1 " fill="#000000"/>
<path class="atom-7" d="M 80.4 16.4 L 89.7 31.4 Q 90.6 32.9, 92.1 35.6 Q 93.6 38.2, 93.7 38.4 L 93.7 16.4 L 97.4 16.4 L 97.4 44.7 L 93.5 44.7 L 83.6 28.3 Q 82.4 26.4, 81.2 24.2 Q 80.0 22.0, 79.6 21.3 L 79.6 44.7 L 75.9 44.7 L 75.9 16.4 L 80.4 16.4 " fill="#000000"/>
</svg>