<?xml version='1.0' encoding='utf-8'?>
<svg xmlns="http://www.w3.org/2000/svg" xmlns:rdkit="http://www.rdkit.org/xml" xmlns:xlink="http://www.w3.org/1999/xlink" version="1.1" baseProfile="full" xml:space="preserve" width="512px" height="272px" viewBox="0 0 512 272">

<rect style="opacity:1.0;fill:#FFFFFF;stroke:none" width="512.0" height="272.0" x="0.0" y="0.0"> </rect>
<path class="bond-0 atom-0 atom-1" d="M 273.5,13.6 L 273.1,62.2" style="fill:none;fill-rule:evenodd;stroke:#000000;stroke-width:2.0px;stroke-linecap:butt;stroke-linejoin:miter;stroke-opacity:1"/>
<path class="bond-1 atom-1 atom-2" d="M 281.3,77.3 L 323.8,102.2" style="fill:none;fill-rule:evenodd;stroke:#000000;stroke-width:2.0px;stroke-linecap:butt;stroke-linejoin:miter;stroke-opacity:1"/>
<path class="bond-2 atom-2 atom-3" d="M 323.8,102.2 L 323.4,161.0" style="fill:none;fill-rule:evenodd;stroke:#000000;stroke-width:2.0px;stroke-linecap:butt;stroke-linejoin:miter;stroke-opacity:1"/>
<path class="bond-2 atom-2 atom-3" d="M 315.0,107.2 L 314.6,155.9" style="fill:none;fill-rule:evenodd;stroke:#000000;stroke-width:2.0px;stroke-linecap:butt;stroke-linejoin:miter;stroke-opacity:1"/>
<path class="bond-3 atom-3 atom-4" d="M 323.4,161.0 L 272.3,190.1" style="fill:none;fill-rule:evenodd;stroke:#000000;stroke-width:2.0px;stroke-linecap:butt;stroke-linejoin:miter;stroke-opacity:1"/>
<path class="bond-4 atom-4 atom-5" d="M 267.9,187.5 L 267.5,238.5" style="fill:none;fill-rule:evenodd;stroke:#000000;stroke-width:2.0px;stroke-linecap:butt;stroke-linejoin:miter;stroke-opacity:1"/>
<path class="bond-4 atom-4 atom-5" d="M 276.7,187.6 L 276.3,238.6" style="fill:none;fill-rule:evenodd;stroke:#000000;stroke-width:2.0px;stroke-linecap:butt;stroke-linejoin:miter;stroke-opacity:1"/>
<path class="bond-5 atom-4 atom-6" d="M 272.3,190.1 L 221.5,160.3" style="fill:none;fill-rule:evenodd;stroke:#000000;stroke-width:2.0px;stroke-linecap:butt;stroke-linejoin:miter;stroke-opacity:1"/>
<path class="bond-6 atom-6 atom-7" d="M 221.5,160.3 L 221.9,101.5" style="fill:none;fill-rule:evenodd;stroke:#000000;stroke-width:2.0px;stroke-linecap:butt;stroke-linejoin:miter;stroke-opacity:1"/>
<path class="bond-7 atom-6 atom-8" d="M 221.5,160.3 L 170.4,189.4" style="fill:none;fill-rule:evenodd;stroke:#000000;stroke-width:2.0px;stroke-linecap:butt;stroke-linejoin:miter;stroke-opacity:1"/>
<path class="bond-8 atom-8 atom-9" d="M 170.4,189.4 L 127.9,164.5" style="fill:none;fill-rule:evenodd;stroke:#000000;stroke-width:2.0px;stroke-linecap:butt;stroke-linejoin:miter;stroke-opacity:1"/>
<path class="bond-9 atom-9 atom-10" d="M 111.4,163.2 L 65.7,183.2" style="fill:none;fill-rule:evenodd;stroke:#000000;stroke-width:2.0px;stroke-linecap:butt;stroke-linejoin:miter;stroke-opacity:1"/>
<path class="bond-10 atom-10 atom-11" d="M 65.7,183.2 L 26.7,139.2" style="fill:none;fill-rule:evenodd;stroke:#000000;stroke-width:2.0px;stroke-linecap:butt;stroke-linejoin:miter;stroke-opacity:1"/>
<path class="bond-10 atom-10 atom-11" d="M 68.1,172.5 L 37.5,138.1" style="fill:none;fill-rule:evenodd;stroke:#000000;stroke-width:2.0px;stroke-linecap:butt;stroke-linejoin:miter;stroke-opacity:1"/>
<path class="bond-11 atom-11 atom-12" d="M 26.7,139.2 L 50.4,98.7" style="fill:none;fill-rule:evenodd;stroke:#000000;stroke-width:2.0px;stroke-linecap:butt;stroke-linejoin:miter;stroke-opacity:1"/>
<path class="bond-12 atom-12 atom-13" d="M 64.7,90.3 L 113.9,101.1" style="fill:none;fill-rule:evenodd;stroke:#000000;stroke-width:2.0px;stroke-linecap:butt;stroke-linejoin:miter;stroke-opacity:1"/>
<path class="bond-12 atom-12 atom-13" d="M 62.8,98.9 L 105.7,108.3" style="fill:none;fill-rule:evenodd;stroke:#000000;stroke-width:2.0px;stroke-linecap:butt;stroke-linejoin:miter;stroke-opacity:1"/>
<path class="bond-13 atom-13 atom-14" d="M 113.9,101.1 L 157.9,62.0" style="fill:none;fill-rule:evenodd;stroke:#000000;stroke-width:2.0px;stroke-linecap:butt;stroke-linejoin:miter;stroke-opacity:1"/>
<path class="bond-14 atom-3 atom-15" d="M 323.4,161.0 L 382.2,161.4" style="fill:none;fill-rule:evenodd;stroke:#000000;stroke-width:2.0px;stroke-linecap:butt;stroke-linejoin:miter;stroke-opacity:1"/>
<path class="bond-15 atom-15 atom-16" d="M 382.2,161.4 L 433.0,191.2" style="fill:none;fill-rule:evenodd;stroke:#000000;stroke-width:2.0px;stroke-linecap:butt;stroke-linejoin:miter;stroke-opacity:1"/>
<path class="bond-15 atom-15 atom-16" d="M 391.1,156.4 L 433.1,181.0" style="fill:none;fill-rule:evenodd;stroke:#000000;stroke-width:2.0px;stroke-linecap:butt;stroke-linejoin:miter;stroke-opacity:1"/>
<path class="bond-16 atom-16 atom-17" d="M 433.0,191.2 L 484.1,162.1" style="fill:none;fill-rule:evenodd;stroke:#000000;stroke-width:2.0px;stroke-linecap:butt;stroke-linejoin:miter;stroke-opacity:1"/>
<path class="bond-17 atom-17 atom-18" d="M 484.1,162.1 L 484.5,103.3" style="fill:none;fill-rule:evenodd;stroke:#000000;stroke-width:2.0px;stroke-linecap:butt;stroke-linejoin:miter;stroke-opacity:1"/>
<path class="bond-17 atom-17 atom-18" d="M 475.4,157.0 L 475.7,108.3" style="fill:none;fill-rule:evenodd;stroke:#000000;stroke-width:2.0px;stroke-linecap:butt;stroke-linejoin:miter;stroke-opacity:1"/>
<path class="bond-18 atom-18 atom-19" d="M 484.5,103.3 L 433.8,73.5" style="fill:none;fill-rule:evenodd;stroke:#000000;stroke-width:2.0px;stroke-linecap:butt;stroke-linejoin:miter;stroke-opacity:1"/>
<path class="bond-19 atom-19 atom-20" d="M 433.8,73.5 L 382.6,102.6" style="fill:none;fill-rule:evenodd;stroke:#000000;stroke-width:2.0px;stroke-linecap:butt;stroke-linejoin:miter;stroke-opacity:1"/>
<path class="bond-19 atom-19 atom-20" d="M 433.7,83.7 L 391.4,107.7" style="fill:none;fill-rule:evenodd;stroke:#000000;stroke-width:2.0px;stroke-linecap:butt;stroke-linejoin:miter;stroke-opacity:1"/>
<path class="bond-20 atom-7 atom-1" d="M 221.9,101.5 L 264.8,77.1" style="fill:none;fill-rule:evenodd;stroke:#000000;stroke-width:2.0px;stroke-linecap:butt;stroke-linejoin:miter;stroke-opacity:1"/>
<path class="bond-21 atom-20 atom-2" d="M 382.6,102.6 L 323.8,102.2" style="fill:none;fill-rule:evenodd;stroke:#000000;stroke-width:2.0px;stroke-linecap:butt;stroke-linejoin:miter;stroke-opacity:1"/>
<path class="bond-22 atom-13 atom-9" d="M 113.9,101.1 L 118.6,149.4" style="fill:none;fill-rule:evenodd;stroke:#000000;stroke-width:2.0px;stroke-linecap:butt;stroke-linejoin:miter;stroke-opacity:1"/>
<path class="bond-23 atom-20 atom-15" d="M 382.6,102.6 L 382.2,161.4" style="fill:none;fill-rule:evenodd;stroke:#000000;stroke-width:2.0px;stroke-linecap:butt;stroke-linejoin:miter;stroke-opacity:1"/>
<path d="M 274.8,188.6 L 272.3,190.1 L 269.7,188.6" style="fill:none;stroke:#000000;stroke-width:2.0px;stroke-linecap:butt;stroke-linejoin:miter;stroke-miterlimit:10;stroke-opacity:1;"/>
<path d="M 221.9,104.4 L 221.9,101.5 L 224.1,100.3" style="fill:none;stroke:#000000;stroke-width:2.0px;stroke-linecap:butt;stroke-linejoin:miter;stroke-miterlimit:10;stroke-opacity:1;"/>
<path d="M 172.9,187.9 L 170.4,189.4 L 168.2,188.1" style="fill:none;stroke:#000000;stroke-width:2.0px;stroke-linecap:butt;stroke-linejoin:miter;stroke-miterlimit:10;stroke-opacity:1;"/>
<path d="M 68.0,182.2 L 65.7,183.2 L 63.8,181.0" style="fill:none;stroke:#000000;stroke-width:2.0px;stroke-linecap:butt;stroke-linejoin:miter;stroke-miterlimit:10;stroke-opacity:1;"/>
<path d="M 28.6,141.4 L 26.7,139.2 L 27.8,137.2" style="fill:none;stroke:#000000;stroke-width:2.0px;stroke-linecap:butt;stroke-linejoin:miter;stroke-miterlimit:10;stroke-opacity:1;"/>
<path d="M 430.5,189.7 L 433.0,191.2 L 435.6,189.7" style="fill:none;stroke:#000000;stroke-width:2.0px;stroke-linecap:butt;stroke-linejoin:miter;stroke-miterlimit:10;stroke-opacity:1;"/>
<path d="M 481.6,163.6 L 484.1,162.1 L 484.2,159.2" style="fill:none;stroke:#000000;stroke-width:2.0px;stroke-linecap:butt;stroke-linejoin:miter;stroke-miterlimit:10;stroke-opacity:1;"/>
<path d="M 484.5,106.2 L 484.5,103.3 L 482.0,101.8" style="fill:none;stroke:#000000;stroke-width:2.0px;stroke-linecap:butt;stroke-linejoin:miter;stroke-miterlimit:10;stroke-opacity:1;"/>
<path d="M 436.3,75.0 L 433.8,73.5 L 431.2,75.0" style="fill:none;stroke:#000000;stroke-width:2.0px;stroke-linecap:butt;stroke-linejoin:miter;stroke-miterlimit:10;stroke-opacity:1;"/>
<path class="atom-1" d="M 269.4 64.1 L 274.9 72.9 Q 275.4 73.8, 276.3 75.4 Q 277.1 76.9, 277.2 77.0 L 277.2 64.1 L 279.4 64.1 L 279.4 80.8 L 277.1 80.8 L 271.3 71.1 Q 270.6 70.0, 269.8 68.7 Q 269.1 67.4, 268.9 67.0 L 268.9 80.8 L 266.8 80.8 L 266.8 64.1 L 269.4 64.1 " fill="#000000"/>
<path class="atom-5" d="M 264.2 249.0 Q 264.2 245.0, 266.2 242.7 Q 268.2 240.5, 271.9 240.5 Q 275.6 240.5, 277.5 242.7 Q 279.5 245.0, 279.5 249.0 Q 279.5 253.0, 277.5 255.3 Q 275.5 257.6, 271.9 257.6 Q 268.2 257.6, 266.2 255.3 Q 264.2 253.0, 264.2 249.0 M 271.9 255.7 Q 274.4 255.7, 275.8 254.0 Q 277.2 252.3, 277.2 249.0 Q 277.2 245.7, 275.8 244.0 Q 274.4 242.4, 271.9 242.4 Q 269.3 242.4, 267.9 244.0 Q 266.6 245.7, 266.6 249.0 Q 266.6 252.3, 267.9 254.0 Q 269.3 255.7, 271.9 255.7 " fill="#000000"/>
<path class="atom-9" d="M 115.9 151.3 L 121.4 160.1 Q 121.9 161.0, 122.8 162.6 Q 123.7 164.1, 123.7 164.2 L 123.7 151.3 L 125.9 151.3 L 125.9 168.0 L 123.7 168.0 L 117.8 158.3 Q 117.1 157.2, 116.4 155.9 Q 115.7 154.6, 115.5 154.2 L 115.5 168.0 L 113.3 168.0 L 113.3 151.3 L 115.9 151.3 " fill="#000000"/>
<path class="atom-12" d="M 52.7 80.1 L 58.2 88.9 Q 58.7 89.8, 59.6 91.4 Q 60.5 93.0, 60.5 93.1 L 60.5 80.1 L 62.7 80.1 L 62.7 96.8 L 60.5 96.8 L 54.6 87.1 Q 53.9 86.0, 53.2 84.7 Q 52.5 83.4, 52.3 83.0 L 52.3 96.8 L 50.1 96.8 L 50.1 80.1 L 52.7 80.1 " fill="#000000"/>
</svg>